<svg width="368" height="368" viewBox="0 0 368 368" fill="none" xmlns="http://www.w3.org/2000/svg">
<mask id="mask0_3598_11813" style="mask-type:alpha" maskUnits="userSpaceOnUse" x="0" y="0" width="368" height="368">
<path d="M0 60C0 31.7157 0 17.5736 8.7868 8.7868C17.5736 0 31.7157 0 60 0H308C336.284 0 350.426 0 359.213 8.7868C368 17.5736 368 31.7157 368 60V308C368 336.284 368 350.426 359.213 359.213C350.426 368 336.284 368 308 368H60C31.7157 368 17.5736 368 8.7868 359.213C0 350.426 0 336.284 0 308V60Z" fill="#FBFAF9"/>
</mask>
<g mask="url(#mask0_3598_11813)">
<path d="M504 512.235C504 639.683 400.802 743 273.5 743C146.198 743 43 639.683 43 512.235C43 384.788 183.698 307 311 307C438.302 307 504 384.788 504 512.235Z" fill="#F59300" fill-opacity="0.1"/>
<path d="M504 512.235C504 639.683 400.802 743 273.5 743C146.198 743 43 639.683 43 512.235C43 384.788 183.698 307 311 307C438.302 307 504 384.788 504 512.235Z" fill="#17E6B7" fill-opacity="0.14"/>
<path d="M21.033 96.5C21.033 223.802 97.8437 380 -29.4729 380C-156.79 380 -260 276.802 -260 149.5C-260 22.1984 -156.79 -81 -29.4729 -81C97.8437 -81 21.033 -30.8016 21.033 96.5Z" fill="#F59300" fill-opacity="0.1"/>
<path d="M21.033 96.5C21.033 223.802 97.8437 380 -29.4729 380C-156.79 380 -260 276.802 -260 149.5C-260 22.1984 -156.79 -81 -29.4729 -81C97.8437 -81 21.033 -30.8016 21.033 96.5Z" fill="#2A7AF2" fill-opacity="0.2"/>
</g>
</svg>
