<svg width="61" height="12" viewBox="0 0 61 12" fill="none" xmlns="http://www.w3.org/2000/svg">
<path fill-rule="evenodd" clip-rule="evenodd" d="M43.6395 0.242422C43.6196 0.279748 42.772 0.33144 41.7558 0.357354C40.7396 0.383133 39.5532 0.438719 39.1195 0.48061C37.9584 0.592722 37.6847 0.596213 37.6014 0.499944C37.5602 0.452145 37.5094 0.44503 37.4886 0.484101C37.4398 0.575536 36.684 0.662541 35.262 0.740415C34.6386 0.774653 34.1035 0.831717 34.0727 0.867432C34.0418 0.903147 33.7291 0.971488 33.3778 1.01929C33.0266 1.06709 32.729 1.15704 32.7164 1.21921C32.704 1.28137 32.6233 1.28527 32.5372 1.2278C32.3973 1.13462 32.2127 1.12482 31.8273 1.19048C31.7413 1.20511 31.7185 1.28218 31.7516 1.44639C31.7959 1.66524 31.7903 1.66484 31.6694 1.44035C31.5628 1.24244 31.4675 1.21424 31.1357 1.28218C30.9136 1.3277 30.5786 1.35764 30.3913 1.34864C30.1811 1.33857 30.0508 1.3904 30.0508 1.48398C30.0508 1.58562 29.974 1.60321 29.8178 1.53755C29.6896 1.48358 29.5526 1.44558 29.5131 1.45324C29.4737 1.46075 29.1995 1.47901 28.9038 1.49378C28.608 1.50855 28.3366 1.55152 28.3006 1.58898C28.2212 1.67169 28.0018 1.71331 27.1115 1.81441C26.737 1.85697 26.3337 1.91605 26.2154 1.94546C25.7 2.07408 25.1018 2.16981 24.6024 2.20351C24.3067 2.22352 23.8873 2.30985 23.6704 2.39525C23.2673 2.55408 22.3948 2.70205 21.956 2.68593C21.8213 2.68097 21.6848 2.75508 21.6524 2.85054C21.6046 2.99166 21.5934 2.99112 21.5925 2.84799C21.5915 2.68285 21.4234 2.68956 20.8745 2.87632C20.4623 3.01677 20.0668 3.11464 19.7275 3.16043C19.5107 3.18983 19.1558 3.24703 18.9389 3.28771C18.7221 3.32853 18.3349 3.38788 18.0787 3.4197C17.8224 3.45152 17.6127 3.48589 17.6127 3.49596C17.6127 3.5157 17.5036 3.5686 17.2281 3.68273C17.1348 3.72139 16.8122 3.79148 16.5112 3.83861C15.9212 3.93085 15.6771 3.98375 15.6771 4.0192C15.6771 4.03155 15.4835 4.06955 15.2469 4.10365C14.5596 4.20287 14.2693 4.26786 13.849 4.41636C13.6321 4.49302 13.2773 4.59198 13.0604 4.63628C12.8435 4.68073 12.5392 4.74289 12.3841 4.77458C12.229 4.80627 12.0708 4.89085 12.0326 4.96242C11.9877 5.04647 11.9162 5.04553 11.8307 4.95987C11.7442 4.87313 11.6528 4.87273 11.5673 4.95839C11.4953 5.03062 11.2613 5.10273 11.0476 5.11857C10.8337 5.13441 10.5781 5.2041 10.4796 5.27324C10.381 5.34252 10.1874 5.41543 10.0494 5.43544C9.45929 5.52056 8.93237 5.68034 8.85502 5.79755C8.80283 5.87677 8.75565 5.87502 8.72863 5.79285C8.7006 5.70813 8.60367 5.70786 8.45341 5.79205C8.32573 5.86361 8.04758 5.95142 7.83516 5.98714C7.62267 6.02272 7.42044 6.08488 7.3856 6.1253C7.35083 6.16558 7.18587 6.22439 7.01912 6.25607C6.59407 6.3369 6.33083 6.41894 5.99898 6.57401C5.84126 6.64773 5.6558 6.67565 5.58676 6.63605C5.51773 6.59644 5.46124 6.61335 5.46116 6.67377C5.46102 6.73406 5.36782 6.78951 5.25391 6.79703C5.14007 6.80442 4.98687 6.85678 4.9136 6.91331C4.84026 6.96983 4.61279 7.02904 4.40805 7.04475C4.20337 7.06046 3.99217 7.14115 3.93877 7.22413C3.88536 7.30724 3.77868 7.37827 3.70162 7.3823C3.25377 7.40512 2.86808 7.50784 2.7903 7.62505C2.74134 7.69903 2.59638 7.80148 2.46827 7.85277C2.34009 7.90406 2.23514 7.98663 2.23499 8.03604C2.23478 8.08558 2.12997 8.1401 2.002 8.15715C1.60821 8.20965 1.48161 8.289 1.50448 8.46878C1.52046 8.59445 1.50097 8.60305 1.43279 8.5002C1.30196 8.30283 0.91304 8.43937 0.738476 8.74403C0.658112 8.8842 0.540183 8.99886 0.476379 8.99886C0.319451 8.99886 -0.0824403 9.76123 0.0150574 9.87401C0.0564939 9.92208 0.0709037 10.0765 0.0470311 10.2173C-0.000929148 10.5002 0.0764237 10.8401 0.147325 10.658C0.171986 10.5947 0.264752 10.4669 0.353432 10.374C0.495664 10.225 0.514733 10.2351 0.514733 10.459C0.514733 10.6017 0.578824 10.7443 0.661051 10.7846C0.784286 10.845 0.799627 10.8104 0.758191 10.5659C0.731092 10.4061 0.65718 10.1952 0.593878 10.0972C0.493226 9.94101 0.501256 9.92812 0.658112 9.99404C0.756685 10.0354 0.860492 10.0702 0.888881 10.0711C0.917198 10.0722 0.921786 10.1636 0.899132 10.2744C0.876407 10.3852 0.89354 10.4758 0.937199 10.4758C0.980858 10.4758 1.01656 10.4173 1.01656 10.3457C1.01656 10.2743 1.06818 10.2528 1.13133 10.2982C1.19442 10.3435 1.27464 10.2963 1.30948 10.1933C1.3611 10.0406 1.373 10.0468 1.37393 10.2265C1.37451 10.3478 1.4315 10.4916 1.50046 10.546C1.68872 10.6945 2.2284 10.6537 2.33851 10.4825C2.41142 10.3692 2.46347 10.3852 2.55028 10.5479C2.64319 10.7219 2.66542 10.7269 2.66542 10.5733C2.66542 10.4687 2.72707 10.2786 2.80249 10.1509C2.93576 9.9249 2.93784 9.93228 2.87934 10.4179C2.83425 10.7929 2.84521 10.9659 2.92336 11.1123C3.06308 11.374 3.23865 11.2282 3.24001 10.8492C3.2408 10.6395 3.25958 10.5973 3.29951 10.7153C3.33349 10.8155 3.41113 10.8495 3.4849 10.7964C3.55473 10.7462 3.63323 10.7698 3.65932 10.8489C3.71309 11.0121 4.24259 10.7582 4.24259 10.5692C4.24259 10.5091 4.2137 10.4934 4.17842 10.5342C4.14308 10.5751 4.09548 10.5169 4.07247 10.4048C4.03849 10.2388 4.05698 10.2274 4.17255 10.3431C4.25047 10.4213 4.31428 10.4436 4.31428 10.3925C4.31428 10.3417 4.3788 10.4093 4.45765 10.5429C4.58662 10.7615 4.60103 10.7635 4.60103 10.5637C4.60103 10.4416 4.64942 10.3415 4.70857 10.3415C4.76771 10.3415 4.88621 10.2102 4.97196 10.0496C5.07304 9.86031 5.11254 9.83212 5.08444 9.96947C5.02264 10.2708 5.10143 10.3634 5.22402 10.1337C5.36037 9.87844 5.46131 9.88582 5.46131 10.1513C5.46131 10.2682 5.50167 10.3371 5.55092 10.3043C5.60024 10.2716 5.63207 10.1075 5.62175 9.9398C5.60519 9.66966 5.61666 9.65596 5.72211 9.8199C5.82972 9.98706 5.83796 9.96316 5.80728 9.57231C5.78018 9.22604 5.79223 9.16884 5.86757 9.28606C5.92428 9.37414 5.94442 9.56184 5.91811 9.758C5.87746 10.061 5.89223 10.0813 6.13175 10.0511C6.39055 10.0185 6.49192 9.82366 6.4236 9.49028C6.40331 9.39132 6.4337 9.23745 6.49113 9.14817C6.57766 9.01377 6.60361 9.05579 6.64347 9.39522C6.68003 9.70752 6.73071 9.80446 6.85724 9.80446C7.03489 9.80446 7.14056 9.5123 7.03468 9.31398C6.99675 9.24296 7.03152 9.12198 7.11949 9.01914C7.20143 8.92327 7.24716 8.90971 7.221 8.98893C7.19311 9.07338 7.2329 9.13313 7.31677 9.13313C7.39563 9.13313 7.48008 9.07271 7.50446 8.99886C7.59436 8.7263 7.68519 8.87386 7.63909 9.21772C7.60325 9.48504 7.61601 9.55593 7.69149 9.50948C7.74634 9.47577 7.80118 9.29103 7.81337 9.09902C7.83573 8.74752 8.01137 8.35949 8.08543 8.49818C8.10737 8.53914 8.07059 8.72912 8.00377 8.92005C7.93072 9.12897 7.91409 9.2674 7.96219 9.2674C8.00614 9.2674 8.04213 9.21986 8.04213 9.16173C8.04213 9.10359 8.14128 9.04183 8.26236 9.02451C8.39749 9.00531 8.46517 9.04612 8.43735 9.13031C8.36803 9.34044 8.51499 9.29317 8.61213 9.07392C8.65923 8.96758 8.7406 8.91132 8.79286 8.94891C8.84512 8.98637 8.90649 8.96073 8.92929 8.89172C8.95201 8.82284 9.04829 8.79411 9.14321 8.82808C9.23812 8.86204 9.33756 8.82378 9.36423 8.74295C9.42645 8.55431 9.90605 8.55014 9.90605 8.73825C9.90605 8.81639 9.94176 8.83909 9.98541 8.7886C10.0421 8.72295 10.0399 8.66803 9.97774 8.59606C9.85759 8.45696 9.9943 8.31034 10.3611 8.18481C10.5682 8.11378 10.6757 8.13862 10.748 8.27409C10.8881 8.53631 11.0062 8.50852 10.9494 8.22683C10.9059 8.01133 10.9116 8.00972 11.0179 8.20656C11.1528 8.45629 11.4114 8.40017 11.6057 8.079C11.7891 7.77597 11.9419 7.72588 11.8886 7.98636C11.8653 8.10022 11.8774 8.19327 11.9156 8.19327C11.9538 8.19327 11.9851 8.12613 11.9851 8.0441C11.9851 7.94622 12.0715 7.92527 12.236 7.983C12.4538 8.05954 12.4869 8.03631 12.4869 7.80631C12.4869 7.52771 12.8364 6.91827 12.9101 7.06852C12.9336 7.11658 12.9126 7.18291 12.8632 7.21581C12.814 7.24884 12.7736 7.38592 12.7736 7.52059C12.7736 7.85223 13.0213 7.7283 13.111 7.35182L13.178 7.0708L13.3238 7.3439C13.4551 7.58987 13.4885 7.59847 13.6593 7.4309C13.8251 7.2683 13.849 7.27072 13.849 7.4505C13.849 7.56665 13.9113 7.6562 13.9924 7.6562C14.0712 7.6562 14.1357 7.59578 14.1357 7.52193C14.1357 7.44809 14.2164 7.38767 14.315 7.38767C14.4135 7.38767 14.4942 7.3208 14.4942 7.23904C14.4942 7.15727 14.5386 7.12236 14.5928 7.1613C14.6523 7.20399 14.6878 7.14867 14.6824 7.02193C14.677 6.89464 14.7373 6.80173 14.8351 6.78642C14.9838 6.7632 14.9888 6.78401 14.8977 7.04448C14.8062 7.30603 14.8117 7.32685 14.9684 7.31409C15.0619 7.3063 15.1598 7.25985 15.1861 7.21084C15.2123 7.1617 15.2734 7.18318 15.3219 7.2585C15.4406 7.44299 15.8035 7.13646 15.7538 6.89384C15.7097 6.67874 15.798 6.66089 15.906 6.86309C15.962 6.96809 16.0252 6.96876 16.1282 6.86551C16.2402 6.75326 16.2811 6.76534 16.3129 6.92015C16.3352 7.02958 16.4131 7.11914 16.4859 7.11914C16.6727 7.11914 17.0328 6.38255 16.9776 6.11321C16.9499 5.97787 16.9622 5.93021 17.0104 5.98606C17.0528 6.0352 17.0708 6.19512 17.0503 6.3416C17.0059 6.65981 17.0624 6.98487 17.162 6.98487C17.2015 6.98487 17.2152 6.89424 17.1924 6.78347C17.1462 6.55777 17.3259 6.49896 17.3976 6.71634C17.422 6.79018 17.4965 6.84577 17.5631 6.84C17.6378 6.83342 17.65 6.80334 17.5948 6.76172C17.5455 6.72439 17.5074 6.563 17.5102 6.40309C17.515 6.1214 17.5172 6.1206 17.5768 6.38067C17.6107 6.52836 17.6407 6.57012 17.6435 6.47345C17.6462 6.37678 17.6808 6.33502 17.7202 6.38067C17.7596 6.42632 17.7929 6.38456 17.7942 6.28789C17.7956 6.18155 17.8391 6.21794 17.9045 6.38C17.9973 6.60986 18.0223 6.6194 18.0807 6.44713C18.1182 6.33677 18.1347 6.1739 18.1174 6.08542C18.0993 5.99264 18.1276 5.95438 18.1843 5.99506C18.3013 6.07924 18.3823 6.42243 18.3256 6.59415C18.2728 6.7542 18.3819 6.74896 18.619 6.58019C18.7449 6.4905 18.7962 6.37597 18.7692 6.24453C18.7467 6.13483 18.7596 6.04501 18.7978 6.04501C18.836 6.04501 18.8672 6.10167 18.8672 6.17095C18.8672 6.44687 19.1726 6.23929 19.2376 5.9192C19.2926 5.64812 19.3182 5.62166 19.3716 5.78104C19.4078 5.88926 19.4192 6.0881 19.3967 6.22277C19.3612 6.43679 19.3863 6.4568 19.5955 6.38067C19.7273 6.33274 19.8922 6.29447 19.9621 6.29541C20.0319 6.29649 20.0703 6.2405 20.0475 6.17108C20.0245 6.1018 20.0534 6.04501 20.1116 6.04501C20.1698 6.04501 20.231 6.12046 20.2475 6.21284C20.2711 6.34375 20.3038 6.34026 20.3965 6.197C20.4619 6.09603 20.5806 6.04527 20.6603 6.08435C20.7401 6.12342 20.8512 6.06971 20.9071 5.96485C20.9695 5.8479 21.0257 5.82588 21.0528 5.90765C21.1126 6.08904 21.4393 6.025 21.533 5.81366C21.5907 5.68356 21.5717 5.64221 21.4543 5.64221C21.3154 5.64221 21.3087 5.61159 21.3886 5.34011C21.4656 5.07896 21.4812 5.06983 21.504 5.27297C21.5184 5.40227 21.5901 5.50794 21.6633 5.50794C21.7364 5.50794 21.8389 5.58756 21.891 5.6849C21.9434 5.78278 22.1785 5.87637 22.4175 5.89449C22.7878 5.92255 22.8787 5.87999 23.0556 5.59535C23.2441 5.29191 23.5086 5.23793 23.4149 5.52204C23.3931 5.5881 23.4067 5.64221 23.4452 5.64221C23.4836 5.64221 23.5314 5.56662 23.5513 5.47437C23.5802 5.34011 23.5886 5.34011 23.5931 5.47437C23.6019 5.73673 24.0805 5.68557 24.1618 5.41355C24.2174 5.22746 24.25 5.21591 24.3376 5.35206C24.4236 5.48579 24.4526 5.48444 24.4825 5.34575C24.5085 5.22491 24.5377 5.21631 24.579 5.31755C24.6116 5.39744 24.7512 5.45786 24.8892 5.45182C25.1012 5.44255 25.1369 5.39717 25.1195 5.15925C25.1082 5.00444 25.1505 4.79754 25.2136 4.69939C25.3149 4.54203 25.3229 4.56136 25.2822 4.86561C25.2558 5.06177 25.2693 5.24867 25.3135 5.29983C25.3561 5.3491 25.391 5.32346 25.391 5.24276C25.391 5.15737 25.4735 5.12139 25.5881 5.1567C25.6965 5.19 25.7853 5.22732 25.7853 5.23941C25.7853 5.25149 25.8782 5.28989 25.9917 5.32453C26.174 5.38012 26.1935 5.3538 26.1581 5.09977C26.1207 4.83258 26.1269 4.82734 26.2439 5.02566C26.401 5.29177 26.538 5.30117 26.538 5.04593C26.538 4.93946 26.5757 4.80882 26.6219 4.75538C26.6783 4.69012 26.6908 4.73148 26.66 4.88172C26.6263 5.0462 26.6537 5.10514 26.7641 5.10514C26.8832 5.10514 26.8972 5.06714 26.8322 4.92053C26.7665 4.77216 26.7859 4.73591 26.9309 4.73591C27.0364 4.73591 27.1115 4.81271 27.1115 4.92053C27.1115 5.16784 27.2291 5.15616 27.2809 4.90374C27.3035 4.79297 27.3634 4.70718 27.414 4.71295C27.4859 4.72128 27.4864 4.73819 27.4162 4.79123C27.367 4.82855 27.3266 4.9165 27.3266 4.98685C27.3266 5.06231 27.3852 5.05587 27.47 4.97088C27.5488 4.89179 27.6134 4.87649 27.6134 4.93691C27.6134 5.19564 28.0083 5.08487 28.2338 4.7629C28.464 4.43394 28.4736 4.43126 28.4736 4.6955C28.4736 5.04204 28.7223 5.0705 28.8263 4.73591C28.8669 4.60554 28.9004 4.5756 28.9016 4.66878C28.9028 4.76612 28.9972 4.83661 29.1265 4.83661C29.2801 4.83661 29.3381 4.78223 29.3134 4.66166C29.2669 4.43462 29.766 4.35674 29.8395 4.57962C29.8681 4.66596 29.9289 4.69348 29.9746 4.64045C30.0352 4.57023 30.0365 4.49611 29.9791 4.36668C29.9321 4.26047 29.9274 4.15803 29.9675 4.11157C30.0043 4.06887 30.0522 4.16112 30.0739 4.31633L30.1133 4.59856L30.3261 4.31485C30.5751 3.98268 30.655 3.95623 30.6002 4.22368C30.5784 4.32975 30.5992 4.44576 30.6462 4.48161C30.6933 4.51759 30.669 4.5517 30.5921 4.55747C30.5069 4.56391 30.4789 4.61494 30.5204 4.68798C30.5579 4.7539 30.6923 4.77753 30.8192 4.74047C31.0029 4.68677 31.0468 4.6144 31.0343 4.38561C31.0251 4.2159 31.0553 4.11184 31.1082 4.13171C31.1575 4.15024 31.1983 4.08982 31.1989 3.99745C31.1997 3.8856 31.2232 3.89675 31.2695 4.03101C31.3077 4.14178 31.34 4.17199 31.3412 4.09815C31.3424 4.0243 31.3705 4.04404 31.4037 4.14192C31.4368 4.2398 31.5971 4.35339 31.7599 4.3942C32.0103 4.45717 32.0788 4.41931 32.2042 4.14917C32.3384 3.85996 32.3487 3.85553 32.3128 4.10298C32.2834 4.30653 32.3098 4.3836 32.4166 4.40508C32.6417 4.45019 32.7939 4.44697 33.0259 4.39232C33.1442 4.3644 33.3378 4.33016 33.456 4.31633C33.6523 4.29323 33.6599 4.27511 33.544 4.11036C33.4236 3.93944 33.4246 3.92588 33.5619 3.85861C33.6556 3.81283 33.707 3.85297 33.707 3.9722C33.707 4.07841 33.7512 4.12513 33.8111 4.08203C33.8683 4.04095 33.9545 4.05276 34.0025 4.10835C34.0506 4.16407 34.2215 4.19791 34.3823 4.18367C34.5432 4.16944 34.828 4.14433 35.0153 4.12795C35.2314 4.10902 35.3558 4.03679 35.3558 3.93031C35.3558 3.828 35.4538 3.76248 35.6067 3.76248C35.7447 3.76248 35.8576 3.82652 35.8576 3.90467C35.8576 3.98281 35.8913 4.00792 35.9325 3.96025C35.9736 3.91259 36.0536 3.94562 36.1102 4.03356C36.1814 4.1442 36.2743 4.15494 36.4117 4.0682C36.521 3.99933 36.7348 3.9675 36.8869 3.99745C37.082 4.03585 37.1485 4.00658 37.1127 3.89822C37.0815 3.80383 37.1047 3.76087 37.1727 3.78705C37.2336 3.81041 37.3353 3.70877 37.3987 3.56108C37.5123 3.29631 37.5133 3.29671 37.4695 3.59465C37.4378 3.81122 37.4558 3.89675 37.5333 3.89675C37.5928 3.89675 37.6627 3.83216 37.6887 3.75335C37.7148 3.6744 37.7812 3.64231 37.8363 3.68192C37.8921 3.72193 37.9366 3.67265 37.9366 3.57128C37.9366 3.22488 38.1479 3.22394 38.2688 3.56981C38.3657 3.84653 38.4363 3.89997 38.6711 3.87405C38.8314 3.85633 38.9722 3.76302 38.9932 3.66057C39.0137 3.56041 39.0788 3.51328 39.1379 3.55571C39.1969 3.59814 39.2951 3.55625 39.3561 3.46266C39.4514 3.31645 39.4612 3.33484 39.4254 3.59465C39.4025 3.76073 39.3933 3.89675 39.4048 3.89675C39.4776 3.89675 39.833 3.48119 39.8852 3.33498C39.925 3.2234 39.9319 3.2908 39.9038 3.51771L39.8594 3.87728L40.4864 3.82572C40.8312 3.79725 41.1455 3.71414 41.1846 3.64083C41.2238 3.56753 41.2752 3.28288 41.2991 3.00831C41.3229 2.73373 41.3829 2.48373 41.4324 2.45285C41.5015 2.40961 41.5051 2.48118 41.448 2.7626C41.4071 2.96373 41.3896 3.15815 41.4091 3.19453C41.4285 3.23092 41.4121 3.37364 41.3727 3.51154C41.3172 3.70595 41.3258 3.76248 41.4111 3.76248C41.4716 3.76248 41.5211 3.70582 41.5211 3.63654C41.5211 3.56726 41.5776 3.51718 41.6466 3.52537C41.7155 3.53342 41.8412 3.4973 41.9258 3.44521C42.0181 3.38841 42.1184 3.41943 42.1767 3.52295C42.3339 3.80195 42.5531 3.72542 42.6444 3.35968L42.7282 3.02402L42.734 3.39768C42.7398 3.76946 42.7418 3.77094 43.1521 3.70649C43.3788 3.67091 43.7153 3.63869 43.9 3.63493C44.1794 3.62929 44.2439 3.57961 44.2849 3.3378C44.3285 3.07987 44.3416 3.07249 44.401 3.2716C44.4533 3.44628 44.4988 3.46481 44.6076 3.35579C44.7035 3.25979 44.7471 3.25952 44.7471 3.35498C44.7471 3.43138 44.7955 3.49395 44.8547 3.49395C44.9138 3.49395 44.9622 3.55208 44.9622 3.62311C44.9622 3.82894 46.3004 3.69803 46.4425 3.47824C46.5411 3.32598 46.5684 3.3245 46.5946 3.47018C46.618 3.60002 46.6769 3.5639 46.8137 3.33592C46.9168 3.16432 46.957 3.13116 46.9034 3.2622C46.7823 3.55746 46.8551 3.72744 47.0036 3.49663C47.0925 3.35847 47.1133 3.36116 47.1152 3.51113C47.1167 3.63493 47.1517 3.61062 47.2219 3.43662C47.2794 3.29429 47.3478 3.2179 47.3739 3.26663C47.4 3.31551 47.4669 3.25066 47.5225 3.12257C47.5967 2.95191 47.6337 2.93473 47.6612 3.05839C47.6818 3.15117 47.7362 3.19131 47.7821 3.14741C47.8281 3.10364 47.7886 3.18527 47.6946 3.3288C47.5843 3.49717 47.5517 3.62244 47.6029 3.68165C47.6466 3.73214 47.7535 3.62002 47.8406 3.43232C48.0089 3.06993 48.2297 2.96386 48.1657 3.27617C48.1284 3.45796 48.2381 3.76248 48.3409 3.76248C48.3698 3.76248 48.4076 3.62647 48.425 3.46038C48.4561 3.16486 48.4579 3.16432 48.5067 3.43581C48.552 3.68783 48.6073 3.71079 49.1072 3.6846C49.41 3.66876 49.6659 3.64312 49.6758 3.62768C49.73 3.54242 50.3282 3.56605 50.4731 3.6591C50.5816 3.72878 50.6809 3.70958 50.7474 3.60619C50.8166 3.49865 50.8679 3.49032 50.9 3.58149C50.9889 3.83431 51.2614 3.87889 51.3578 3.65641C51.4365 3.47515 51.4315 3.45662 51.3247 3.53168C51.2468 3.58632 51.1992 3.55584 51.1992 3.45112C51.1992 3.15076 51.4689 3.22407 51.5148 3.53691C51.5507 3.78208 51.5691 3.79699 51.6283 3.62821C51.667 3.51744 51.6993 3.49583 51.6999 3.58028C51.7016 3.81001 51.9083 3.91407 52.0603 3.76167C52.1373 3.68447 52.211 3.67843 52.2337 3.74744C52.2812 3.89138 52.8551 3.85324 52.9899 3.69709C53.0533 3.62378 53.0682 3.63842 53.0344 3.74086C53.0016 3.84022 53.0422 3.89285 53.1488 3.88909C53.3077 3.88345 53.8159 3.99328 53.8159 4.03329C53.8159 4.04404 53.9691 4.07156 54.1564 4.09465C54.3436 4.11775 54.4971 4.09774 54.4972 4.05021C54.4973 4.00282 54.6425 3.95851 54.8198 3.95206C55.057 3.9432 55.1421 3.99167 55.1421 4.13547C55.1421 4.26316 55.1906 4.30706 55.2821 4.26235C55.3591 4.22462 55.4371 4.26289 55.4556 4.34734C55.4741 4.4318 55.4918 4.39085 55.4949 4.25644C55.5001 4.0341 55.5108 4.03101 55.6132 4.22288C55.7194 4.42159 55.7919 4.45046 56.3254 4.50645C56.4438 4.51894 56.6105 4.57049 56.6956 4.62111C56.7809 4.67186 56.8705 4.65267 56.895 4.57868C56.9232 4.49316 57.0021 4.48873 57.1114 4.56647C57.2311 4.65172 57.2939 4.64004 57.3182 4.5278C57.3375 4.43918 57.3557 4.47235 57.3588 4.60164C57.3619 4.73094 57.3886 4.83889 57.4183 4.84171C57.6445 4.86306 58.0678 5.02203 58.171 5.12434C58.2732 5.22571 58.2967 5.19201 58.2975 4.94201C58.2985 4.69469 58.3122 4.67428 58.3681 4.83661C58.4254 5.00243 58.4378 5.00444 58.4388 4.84775C58.4393 4.74316 58.4602 4.69576 58.4851 4.74235C58.51 4.78894 58.5907 4.76679 58.6643 4.69295C58.8186 4.53827 58.8232 4.5623 58.7284 5.02928C58.6737 5.29849 58.6806 5.37367 58.76 5.37367C58.8158 5.37367 58.8806 5.31594 58.9039 5.24532C58.9514 5.10111 59.1668 5.21457 59.241 5.42295C59.2677 5.4976 59.3765 5.58071 59.4828 5.6073C59.5891 5.63402 59.7221 5.74197 59.7784 5.84737C59.8607 6.00164 59.908 6.00714 60.0205 5.87543C60.0974 5.78547 60.1604 5.67134 60.1604 5.6218C60.1604 5.49787 60.3078 5.5552 60.5009 5.75405C60.6237 5.88053 60.6622 5.88214 60.6622 5.76036C60.6622 5.66476 60.7199 5.69846 60.806 5.84441C61.0192 6.20572 61.0669 5.97787 60.8978 5.40576C60.7837 5.01988 60.7651 4.82667 60.8172 4.57049C60.8638 4.34117 60.8599 4.22154 60.8048 4.18716C60.7607 4.15964 60.694 3.98657 60.6567 3.80249C60.6193 3.61855 60.5269 3.43769 60.4512 3.40063C60.3756 3.36357 60.2978 3.25589 60.2785 3.16137C60.24 2.9734 58.924 2.19103 58.8063 2.28609C58.791 2.29844 58.7535 2.23292 58.7231 2.14054C58.6926 2.0483 58.3664 1.86691 57.9982 1.73761C57.63 1.60818 57.248 1.46706 57.1494 1.42383C57.0508 1.3806 56.7928 1.31158 56.5759 1.27063C56.359 1.22955 56.1191 1.16161 56.0427 1.11958C55.9663 1.07742 55.7243 1.02519 55.505 1.00344C55.2857 0.981557 55.0256 0.923958 54.927 0.875353C54.8285 0.826749 54.4736 0.766195 54.1385 0.740684C53.8033 0.715174 53.5291 0.685634 53.5291 0.675162C53.5291 0.664689 53.392 0.632733 53.2244 0.604269C53.0377 0.572582 52.9197 0.608566 52.9197 0.697047C52.9197 0.794927 52.8875 0.791436 52.8197 0.686171C52.7648 0.600644 52.4583 0.521025 52.1387 0.509344C51.8191 0.497528 51.5576 0.454294 51.5576 0.413209C51.5576 0.372257 51.0334 0.322579 50.3927 0.302842C49.7519 0.283239 49.1793 0.264442 49.1202 0.261085C49.0611 0.257728 48.803 0.276525 48.5467 0.302707C48.2904 0.328889 48.0001 0.312643 47.9015 0.26659C47.8029 0.220537 47.6174 0.226713 47.4893 0.280151C47.3611 0.333723 47.2563 0.327547 47.2563 0.266321C47.2563 0.205096 47.1676 0.188581 47.0591 0.229532C46.7812 0.334394 44.2647 0.356683 43.9426 0.257191C43.7958 0.211809 43.6595 0.20523 43.6395 0.242422ZM49.9794 2.98629C49.98 3.03932 49.9341 3.04939 49.8775 3.00871C49.8208 2.96803 49.793 2.84396 49.8157 2.73306C49.8494 2.56912 49.8684 2.56496 49.9177 2.71064C49.951 2.80919 49.9788 2.93312 49.9794 2.98629ZM36.2216 2.78905C36.2246 2.84437 36.2379 2.99582 36.2511 3.12539C36.2643 3.25495 36.2496 3.33135 36.2185 3.29523C36.1329 3.19628 36.0766 2.68835 36.1511 2.68835C36.1868 2.68835 36.2185 2.73373 36.2216 2.78905ZM44.5321 2.74756C44.5321 2.78019 44.4998 2.8441 44.4604 2.88975C44.421 2.9354 44.3887 2.90868 44.3887 2.83054C44.3887 2.75239 44.421 2.68835 44.4604 2.68835C44.4998 2.68835 44.5321 2.71493 44.5321 2.74756ZM41.7003 3.22541C41.7247 3.29926 41.7104 3.35968 41.6687 3.35968C41.627 3.35968 41.5928 3.29926 41.5928 3.22541C41.5928 3.15157 41.607 3.09115 41.6244 3.09115C41.6418 3.09115 41.676 3.15157 41.7003 3.22541ZM35.4275 3.41889C35.4275 3.45152 35.3952 3.51543 35.3558 3.56108C35.3164 3.60673 35.2841 3.58001 35.2841 3.50187C35.2841 3.42373 35.3164 3.35968 35.3558 3.35968C35.3952 3.35968 35.4275 3.38627 35.4275 3.41889ZM35.8382 3.44078C35.8144 3.48535 35.7525 3.49019 35.7009 3.45138C35.6437 3.40855 35.6606 3.37673 35.7442 3.37029C35.8197 3.36451 35.862 3.3962 35.8382 3.44078ZM36.1086 3.49395C36.1329 3.56779 36.1007 3.62821 36.0369 3.62821C35.9731 3.62821 35.9408 3.56779 35.9652 3.49395C35.9896 3.4201 36.0218 3.35968 36.0369 3.35968C36.0519 3.35968 36.0842 3.4201 36.1086 3.49395ZM36.8613 3.47824C36.8613 3.54349 36.7887 3.63117 36.7 3.67306C36.5442 3.7465 36.5434 3.74247 36.6778 3.55437C36.8401 3.32732 36.8613 3.31846 36.8613 3.47824ZM34.2805 3.55316C34.2805 3.58579 34.2482 3.6497 34.2088 3.69535C34.1694 3.741 34.1371 3.71428 34.1371 3.63613C34.1371 3.55799 34.1694 3.49395 34.2088 3.49395C34.2482 3.49395 34.2805 3.52053 34.2805 3.55316ZM30.9633 3.70931C30.9395 3.75389 30.8777 3.75872 30.826 3.71992C30.7688 3.67709 30.7858 3.64527 30.8693 3.63882C30.9448 3.63305 30.9871 3.66473 30.9633 3.70931ZM31.7486 4.19052C31.7258 4.29753 31.7088 4.26571 31.7053 4.10929C31.7022 3.96777 31.7192 3.88856 31.743 3.93313C31.7668 3.97771 31.7693 4.09358 31.7486 4.19052ZM56.9344 4.23241C56.9344 4.57023 56.8217 4.55519 56.8067 4.21536C56.7981 4.02322 56.8221 3.91689 56.8632 3.96442C56.9023 4.0098 56.9344 4.13037 56.9344 4.23241ZM27.1474 4.29954C27.1717 4.37339 27.1575 4.43381 27.1158 4.43381C27.074 4.43381 27.0398 4.37339 27.0398 4.29954C27.0398 4.2257 27.054 4.16528 27.0715 4.16528C27.0889 4.16528 27.123 4.2257 27.1474 4.29954ZM31.1016 4.37353C31.1236 4.48054 31.1703 4.56808 31.2055 4.56808C31.3086 4.56808 31.2791 4.33512 31.1656 4.25362C31.0962 4.20368 31.075 4.24342 31.1016 4.37353ZM59.0793 4.3797C58.9992 4.56042 59.0034 4.61413 59.1063 4.72195C59.2782 4.90213 59.2666 5.15294 59.0944 4.98027C59.0208 4.90643 58.935 4.88924 58.9038 4.94201C58.8726 4.99478 58.8684 4.92737 58.8944 4.79203C58.9204 4.65683 58.9417 4.4604 58.9417 4.35567C58.9417 4.25094 58.994 4.16528 59.0579 4.16528C59.1564 4.16528 59.1597 4.19831 59.0793 4.3797ZM23.2893 4.72759C23.2664 4.8346 23.2494 4.80277 23.246 4.64635C23.2429 4.50484 23.2598 4.42562 23.2836 4.4702C23.3074 4.51477 23.31 4.63065 23.2893 4.72759ZM57.7229 4.49302C57.7229 4.52565 57.6907 4.58956 57.6512 4.63521C57.6118 4.68086 57.5796 4.65414 57.5796 4.576C57.5796 4.49786 57.6118 4.43381 57.6512 4.43381C57.6907 4.43381 57.7229 4.4604 57.7229 4.49302ZM57.938 4.56808C57.938 4.64192 57.9057 4.70234 57.8663 4.70234C57.8269 4.70234 57.7946 4.64192 57.7946 4.56808C57.7946 4.49423 57.8269 4.43381 57.8663 4.43381C57.9057 4.43381 57.938 4.49423 57.938 4.56808ZM23.0969 4.83661C23.0969 4.9843 23.0677 5.10514 23.032 5.10514C22.9962 5.10514 22.9839 4.9843 23.0044 4.83661C23.0251 4.68892 23.0543 4.56808 23.0695 4.56808C23.0845 4.56808 23.0969 4.68892 23.0969 4.83661ZM23.5271 4.83661C23.5271 4.91046 23.5129 4.97088 23.4954 4.97088C23.478 4.97088 23.4439 4.91046 23.4195 4.83661C23.3951 4.76276 23.4094 4.70234 23.4511 4.70234C23.4929 4.70234 23.5271 4.76276 23.5271 4.83661ZM22.8591 5.13038C22.8363 5.23739 22.8193 5.20557 22.8158 5.04915C22.8127 4.90764 22.8297 4.82842 22.8535 4.873C22.8773 4.91757 22.8798 5.03344 22.8591 5.13038ZM60.017 5.55265C60.017 5.6512 59.9686 5.73176 59.9095 5.73176C59.7961 5.73176 59.7697 5.61307 59.8498 5.46323C59.9289 5.315 60.017 5.36213 60.017 5.55265ZM13.165 7.53093C13.139 7.60961 13.1331 7.70293 13.1519 7.7381C13.1707 7.77328 13.2051 7.70883 13.2285 7.59484C13.277 7.35826 13.2357 7.31664 13.165 7.53093ZM6.11963 9.29653C6.06823 9.3928 6.03482 9.40072 6.03482 9.31667C6.03482 9.24027 6.05633 9.13756 6.08264 9.08842C6.10888 9.03914 6.14709 9.03001 6.16745 9.06828C6.18781 9.10641 6.1663 9.20912 6.11963 9.29653ZM2.0919 10.1237C2.0919 10.1515 2.03548 10.2573 1.96645 10.3587C1.85275 10.5256 1.85024 10.5209 1.93935 10.308C2.03304 10.0843 2.0919 10.0132 2.0919 10.1237ZM3.14753 10.7443C3.13563 11.04 3.02386 11.1208 3.02386 10.8339C3.02386 10.6737 3.08745 10.4758 3.13893 10.4758C3.14961 10.4758 3.15348 10.5966 3.14753 10.7443Z" fill="#009BFF"/>
</svg>
