<svg width="368" height="368" viewBox="0 0 368 368" fill="none" xmlns="http://www.w3.org/2000/svg">
<path d="M0 60C0 31.7157 0 17.5736 8.7868 8.7868C17.5736 0 31.7157 0 60 0H308C336.284 0 350.426 0 359.213 8.7868C368 17.5736 368 31.7157 368 60V308C368 336.284 368 350.426 359.213 359.213C350.426 368 336.284 368 308 368H60C31.7157 368 17.5736 368 8.7868 359.213C0 350.426 0 336.284 0 308V60Z" fill="#F8F2F4"/>
<mask id="mask0_3072_9152" style="mask-type:alpha" maskUnits="userSpaceOnUse" x="0" y="0" width="368" height="368">
<path d="M0 60C0 31.7157 0 17.5736 8.7868 8.7868C17.5736 0 31.7157 0 60 0H308C336.284 0 350.426 0 359.213 8.7868C368 17.5736 368 31.7157 368 60V308C368 336.284 368 350.426 359.213 359.213C350.426 368 336.284 368 308 368H60C31.7157 368 17.5736 368 8.7868 359.213C0 350.426 0 336.284 0 308V60Z" fill="#F8F2F4"/>
</mask>
<g mask="url(#mask0_3072_9152)">
<path d="M505 522.5C505 649.802 401.802 753 274.5 753C147.198 753 44 649.802 44 522.5C44 395.198 184.698 317.5 312 317.5C439.302 317.5 505 395.198 505 522.5Z" fill="#FF0040" fill-opacity="0.03"/>
<path d="M505 522.5C505 649.802 401.802 753 274.5 753C147.198 753 44 649.802 44 522.5C44 395.198 184.698 317.5 312 317.5C439.302 317.5 505 395.198 505 522.5Z" fill="#E1E431" fill-opacity="0.42"/>
<path d="M62 -42.5C62 84.8016 138.802 241 11.5 241C-115.802 241 -219 137.802 -219 10.5C-219 -116.802 -115.802 -220 11.5 -220C138.802 -220 62 -169.802 62 -42.5Z" fill="#F59300" fill-opacity="0.1"/>
<path d="M62 -42.5C62 84.8016 138.802 241 11.5 241C-115.802 241 -219 137.802 -219 10.5C-219 -116.802 -115.802 -220 11.5 -220C138.802 -220 62 -169.802 62 -42.5Z" fill="#F59300" fill-opacity="0.1"/>
</g>
</svg>
