<svg width="369" height="224" viewBox="0 0 369 224" fill="none" xmlns="http://www.w3.org/2000/svg">
<path d="M0 22C0 11.6291 0 6.44365 3.22183 3.22183C6.44365 0 11.6291 0 22 0H345C355.371 0 360.556 0 363.778 3.22183C367 6.44365 367 11.6291 367 22V202C367 212.371 367 217.556 363.778 220.778C360.556 224 355.371 224 345 224H22C11.6291 224 6.44365 224 3.22183 220.778C0 217.556 0 212.371 0 202V22Z" fill="white"/>
<mask id="mask0_7107_66461" style="mask-type:alpha" maskUnits="userSpaceOnUse" x="1" y="0" width="368" height="224">
<path d="M1 22C1 11.6291 1 6.44365 4.22183 3.22183C7.44365 0 12.6291 0 23 0H347C357.371 0 362.556 0 365.778 3.22183C369 6.44365 369 11.6291 369 22V202C369 212.371 369 217.556 365.778 220.778C362.556 224 357.371 224 347 224H23C12.6291 224 7.44365 224 4.22183 220.778C1 217.556 1 212.371 1 202V22Z" fill="white"/>
</mask>
<g mask="url(#mask0_7107_66461)">
<path d="M56.641 254.963C32.1332 332.701 -21.2218 277.176 -105.509 254.631C-189.797 232.085 -273.099 251.056 -248.592 173.318C-224.084 95.5802 -135.888 50.8379 -51.6 73.3836C103.528 105.681 81.1488 177.225 56.641 254.963Z" fill="#F2E1FF"/>
<path opacity="0.5" d="M593 43.3542C593 120.816 524.911 183.611 440.92 183.611C356.928 183.611 340.962 120.816 340.962 43.3542C340.962 -34.1073 205.047 -96.9023 440.92 -96.9023C524.911 -96.9023 593 -34.1073 593 43.3542Z" fill="#FFE5A6"/>
<path opacity="0.5" d="M300 -1.73204C300 43.6623 261.677 21.4462 212.247 21.4462C162.818 21.4462 121 43.6623 121 -1.73204C121 -47.1264 161.071 -83.9258 210.5 -83.9258C259.929 -83.9258 300 -47.1264 300 -1.73204Z" fill="#F59300" fill-opacity="0.9"/>
</g>
</svg>
