<svg width="368" height="160" viewBox="0 0 368 160" fill="none" xmlns="http://www.w3.org/2000/svg">
<mask id="mask0_3072_9498" style="mask-type:alpha" maskUnits="userSpaceOnUse" x="0" y="0" width="368" height="160">
<path d="M0 21.4823C0 11.3554 0 6.29201 3.146 3.146C6.29201 0 11.3554 0 21.4823 0H346.518C356.645 0 361.708 0 364.854 3.146C368 6.29201 368 11.3554 368 21.4823V138.518C368 148.645 368 153.708 364.854 156.854C361.708 160 356.645 160 346.518 160H21.4823C11.3554 160 6.29201 160 3.146 156.854C0 153.708 0 148.645 0 138.518V21.4823Z" fill="#DDD7CA"/>
</mask>
<g mask="url(#mask0_3072_9498)">
<path d="M53.5965 257.773C28.4336 335.558 -24.4818 279.453 -108.616 256.189C-192.75 232.926 -276.243 251.312 -251.08 173.528C-225.917 95.7432 -137.315 51.5454 -53.1805 74.8092C101.741 108.4 78.7594 179.989 53.5965 257.773Z" fill="#F59300" fill-opacity="0.1"/>
<path d="M53.5965 257.773C28.4336 335.558 -24.4818 279.453 -108.616 256.189C-192.75 232.926 -276.243 251.312 -251.08 173.528C-225.917 95.7432 -137.315 51.5454 -53.1805 74.8092C101.741 108.4 78.7594 179.989 53.5965 257.773Z" fill="#C5CAF7" fill-opacity="0.4"/>
<g opacity="0.5">
<path d="M591.741 43.5C591.741 121.096 523.716 184 439.804 184C355.892 184 339.941 121.096 339.941 43.5C339.941 -34.096 204.154 -97 439.804 -97C523.716 -97 591.741 -34.096 591.741 43.5Z" fill="#EAF7F5"/>
<path d="M591.741 43.5C591.741 121.096 523.716 184 439.804 184C355.892 184 339.941 121.096 339.941 43.5C339.941 -34.096 204.154 -97 439.804 -97C523.716 -97 591.741 -34.096 591.741 43.5Z" fill="#F59300" fill-opacity="0.3"/>
</g>
<g opacity="0.5">
<path d="M298.81 -1.71062C298.81 43.8681 260.588 21.5618 211.289 21.5618C161.989 21.5618 120.281 43.8681 120.281 -1.71062C120.281 -47.2894 160.246 -84.2383 209.546 -84.2383C258.845 -84.2383 298.81 -47.2894 298.81 -1.71062Z" fill="#F59300" fill-opacity="0.5"/>
<path d="M298.81 -1.71062C298.81 43.8681 260.588 21.5618 211.289 21.5618C161.989 21.5618 120.281 43.8681 120.281 -1.71062C120.281 -47.2894 160.246 -84.2383 209.546 -84.2383C258.845 -84.2383 298.81 -47.2894 298.81 -1.71062Z" fill="#F07594" fill-opacity="0.3"/>
</g>
</g>
</svg>
