<svg width="115" height="10" viewBox="0 0 115 10" fill="none" xmlns="http://www.w3.org/2000/svg">
<path fill-rule="evenodd" clip-rule="evenodd" d="M54.2406 0.170612C54.2051 0.20852 52.2338 0.307419 49.8596 0.390434C43.7965 0.602208 42.4043 0.669975 40.6979 0.836429C39.8742 0.916692 38.9228 1.00818 38.5836 1.03973C36.4191 1.24071 35.2366 1.36883 34.6194 1.46963C34.2318 1.53274 33.4786 1.63037 32.9456 1.68628C32.4126 1.74219 31.5904 1.83029 31.1184 1.88217C30.6463 1.93384 30.158 2.07827 30.0329 2.20301C29.8743 2.3612 29.7709 2.36247 29.6911 2.20703C29.628 2.08441 29.403 2.03634 29.1909 2.10009C28.9787 2.16383 28.607 2.24663 28.3647 2.28412C28.1225 2.32139 27.4089 2.43194 26.779 2.52935C26.1491 2.62677 25.5693 2.68522 25.4904 2.65917C25.4114 2.63333 25.0547 2.70152 24.6975 2.81101C24.3404 2.92029 23.5135 3.05921 22.8602 3.11957C22.2071 3.17992 21.604 3.28009 21.5202 3.34235C21.3614 3.46031 20.9514 3.53147 18.3743 3.88788C15.9355 4.22545 15.4565 4.31164 14.7982 4.53083C14.4591 4.64391 13.8243 4.73688 13.3875 4.73752C12.9509 4.73816 12.3166 4.84192 11.978 4.96793C11.3083 5.2174 9.30276 5.55285 7.72482 5.67949C7.17775 5.72333 6.58312 5.84785 6.40341 5.95607C6.22387 6.06428 5.72579 6.17314 5.29677 6.19791C4.86775 6.22248 4.43697 6.30189 4.33972 6.37432C4.16124 6.50689 3.36487 6.65005 2.74733 6.66064C2.33117 6.66784 1.40795 7.22756 1.40795 7.47258C1.40795 8.01748 2.99752 8.05856 3.74068 7.53273C4.10768 7.27309 4.27259 7.25022 4.42834 7.43743C4.58197 7.62209 4.72592 7.62358 5.00271 7.44399C5.20586 7.31206 5.63311 7.22438 5.95184 7.24937C6.27074 7.27415 6.62752 7.22163 6.74468 7.13268C6.86202 7.04374 7.35429 6.94759 7.83881 6.91943C9.2129 6.83938 14.1765 6.19495 15.6792 5.90164C16.4644 5.74832 17.2023 5.62337 17.9168 5.52278C18.2269 5.47915 18.6035 5.32096 18.7537 5.17102C18.9563 4.96899 19.0879 4.95967 19.2632 5.1346C19.3932 5.2642 19.5555 5.30338 19.6237 5.22142C19.6917 5.13947 20.1205 5.05052 20.5763 5.02384C21.0323 4.99715 22.0396 4.87581 22.8148 4.75425C23.59 4.6329 24.6207 4.48318 25.1052 4.42176C25.5897 4.36035 26.5412 4.21465 27.2195 4.09796C28.4368 3.88852 29.6356 3.72969 31.1837 3.57319C33.1241 3.37666 33.6909 3.26781 33.9102 3.04905C34.0831 2.87645 34.1636 2.88323 34.2168 3.07509C34.2733 3.27945 34.6823 3.27374 36.1279 3.04883C37.1394 2.89148 38.2841 2.78263 38.6717 2.80699C39.0593 2.83113 40.2882 2.75489 41.4026 2.63736C43.7479 2.38979 48.4047 2.19411 54.1763 2.10051C56.405 2.0643 58.2682 2.01241 58.3167 1.98509C58.3651 1.95799 58.4841 1.96561 58.581 2.00225C58.6779 2.03888 60.2239 2.08314 62.0166 2.10051C66.2524 2.14159 74.5913 2.53698 75.4069 2.7352C75.915 2.85887 77.946 3.00987 80.9186 3.1454C82.0605 3.1975 83.0758 3.30042 83.1752 3.37412C83.2746 3.44803 84.164 3.54862 85.1515 3.59796C86.1392 3.64731 87.1851 3.77458 87.4758 3.8811C88.1405 4.12443 88.9485 4.1113 89.0803 3.85484C89.1411 3.73689 89.262 3.73583 89.3855 3.85252C89.4981 3.95883 89.709 4.06048 89.8543 4.07869C90.62 4.1742 91.4095 4.30317 91.8805 4.40927C92.9519 4.65112 93.3418 4.71316 95.8447 5.03972C98.6997 5.41223 98.6879 5.41011 99.5447 5.74196C99.8838 5.87326 100.558 6.02765 101.042 6.08504C102.296 6.23349 104.112 6.59986 104.811 6.84594C105.14 6.96157 105.472 7.00964 105.548 6.95289C105.624 6.89613 105.737 6.94654 105.798 7.06492C105.858 7.1833 106.252 7.28008 106.672 7.28008C107.092 7.28008 107.95 7.47068 108.577 7.70384C109.841 8.17313 110.414 8.25763 110.842 8.03781C111.017 7.9478 111.165 8.00731 111.223 8.19113C111.279 8.365 111.693 8.55093 112.208 8.6331C112.697 8.71104 113.144 8.86733 113.202 8.98041C113.333 9.23539 114.522 9.24577 114.852 8.9946C115.163 8.75763 114.952 8.33895 114.521 8.33895C114.338 8.33895 114.144 8.25191 114.09 8.1456C114.035 8.03929 113.657 7.88448 113.249 7.80168C112.842 7.71909 112.386 7.5719 112.237 7.47491C111.892 7.25085 108.305 6.05878 106.856 5.68733C106.663 5.63756 105.394 5.30783 104.037 4.95438C102.025 4.43045 97.3772 3.47513 95.3161 3.16213C95.0739 3.12528 94.7567 3.0465 94.6114 2.98678C94.466 2.92727 93.5146 2.76442 92.4971 2.62507C91.4797 2.48551 90.3697 2.32774 90.0305 2.27416C89.6913 2.22058 88.9381 2.13736 88.3567 2.08907C87.7753 2.04079 85.8328 1.80911 84.0401 1.57467C80.5482 1.11767 73.3977 0.581243 68.3294 0.396152C64.1067 0.241981 54.3202 0.0852673 54.2406 0.170612ZM0.209869 7.53421C-0.160478 7.97936 -0.0278075 8.33895 0.506395 8.33895C0.908456 8.33895 1.03214 8.2284 1.09874 7.80951C1.16745 7.37686 1.11336 7.28008 0.802037 7.28008C0.592726 7.28008 0.326153 7.39444 0.209869 7.53421Z" fill="#4EAA2D"/>
</svg>
