<svg width="235" height="23" viewBox="0 0 235 23" fill="none" xmlns="http://www.w3.org/2000/svg">
<path fill-rule="evenodd" clip-rule="evenodd" d="M168.12 0.0737455C168.043 0.151523 164.777 0.259237 160.862 0.313234C156.947 0.366951 152.377 0.482779 150.706 0.570069C146.233 0.803683 145.179 0.810956 144.858 0.610356C144.699 0.510755 144.504 0.495928 144.423 0.577343C144.235 0.767871 141.324 0.949166 135.845 1.11144C133.444 1.18278 131.382 1.30169 131.264 1.37611C131.144 1.45053 129.94 1.59293 128.587 1.69253C127.233 1.79213 126.087 1.97958 126.039 2.10912C125.991 2.23866 125.68 2.24677 125.348 2.12703C124.809 1.93286 124.098 1.91244 122.614 2.04925C122.282 2.07975 122.194 2.24034 122.322 2.5825C122.493 3.03854 122.471 3.0377 122.005 2.56991C121.594 2.15752 121.227 2.09877 119.949 2.24034C119.093 2.33518 117.803 2.39757 117.081 2.37883C116.271 2.35784 115.769 2.46584 115.769 2.66084C115.769 2.87263 115.474 2.90928 114.872 2.77247C114.378 2.66 113.85 2.58083 113.698 2.59677C113.546 2.61244 112.49 2.65049 111.351 2.68126C110.211 2.71204 109.165 2.80157 109.027 2.87963C108.721 3.05197 107.876 3.1387 104.446 3.34937C103.003 3.43806 101.45 3.56116 100.994 3.62243C99.0083 3.89046 96.7036 4.08994 94.7797 4.16016C93.6405 4.20185 92.0248 4.38175 91.1894 4.55969C89.6364 4.89066 86.275 5.19898 84.5845 5.1654C84.0658 5.15505 83.5397 5.30949 83.4152 5.50841C83.231 5.80245 83.1879 5.80134 83.1843 5.50309C83.1804 5.15897 82.5328 5.17296 80.4183 5.56213C78.8303 5.85477 77.3066 6.05873 75.9994 6.15413C75.164 6.2154 73.7969 6.33459 72.9614 6.41936C72.126 6.50441 70.6346 6.62807 69.6473 6.69438C68.6599 6.76069 67.8521 6.83231 67.8521 6.85329C67.8521 6.89442 67.432 7.00465 66.3704 7.24246C66.0111 7.32304 64.7683 7.46908 63.6086 7.56729C61.3359 7.75949 60.3952 7.86972 60.3952 7.94359C60.3952 7.96933 59.6495 8.0485 58.7381 8.11957C56.0901 8.32632 54.9719 8.46173 53.3526 8.77117C52.5172 8.93092 51.1501 9.13711 50.3146 9.22944C49.4792 9.32205 48.3068 9.45158 47.7091 9.51761C47.1118 9.58364 46.5022 9.7599 46.355 9.90902C46.1821 10.0842 45.9065 10.0822 45.5773 9.9037C45.2439 9.72297 44.8921 9.72213 44.5626 9.90062C44.285 10.0511 43.3839 10.2014 42.5603 10.2344C41.7365 10.2674 40.7519 10.4126 40.3721 10.5567C39.9924 10.7011 39.2467 10.853 38.715 10.8947C36.4415 11.072 34.4116 11.405 34.1136 11.6492C33.9125 11.8143 33.7308 11.8107 33.6267 11.6394C33.5187 11.4629 33.1453 11.4623 32.5664 11.6378C32.0745 11.7869 31.003 11.9699 30.1846 12.0443C29.366 12.1184 28.5869 12.248 28.4527 12.3322C28.3188 12.4161 27.6833 12.5386 27.0409 12.6047C25.4034 12.7731 24.3893 12.944 23.1108 13.2672C22.5032 13.4208 21.7887 13.479 21.5228 13.3964C21.2568 13.3139 21.0392 13.3492 21.0389 13.4751C21.0384 13.6007 20.6793 13.7162 20.2405 13.7319C19.8019 13.7473 19.2117 13.8564 18.9294 13.9742C18.6469 14.092 17.7706 14.2153 16.9818 14.2481C16.1933 14.2808 15.3797 14.449 15.1739 14.6219C14.9682 14.795 14.5572 14.943 14.2603 14.9514C12.535 14.999 11.0492 15.213 10.7495 15.4573C10.5609 15.6114 10.0025 15.8249 9.50892 15.9318C9.0151 16.0386 8.61078 16.2107 8.61022 16.3137C8.6094 16.4169 8.20562 16.5305 7.71264 16.566C6.19558 16.6754 5.70784 16.8408 5.79594 17.2154C5.85753 17.4773 5.78241 17.4952 5.51976 17.2809C5.01573 16.8696 3.51745 17.1541 2.84495 17.7889C2.53535 18.081 2.08103 18.3199 1.83523 18.3199C1.23067 18.3199 -0.317598 19.9085 0.058008 20.1435C0.217641 20.2437 0.273154 20.5654 0.181185 20.8589C-0.00357951 21.4484 0.294419 22.1565 0.567562 21.7771C0.662568 21.6454 1.01995 21.379 1.36158 21.1854C1.90952 20.8749 1.98299 20.8958 1.98299 21.3625C1.98299 21.6599 2.22989 21.957 2.54667 22.041C3.02143 22.1669 3.08053 22.0947 2.9209 21.5852C2.8165 21.2523 2.53176 20.8128 2.28789 20.6085C1.90013 20.2831 1.93107 20.2563 2.53535 20.3937C2.9151 20.4798 3.31501 20.5523 3.42438 20.5542C3.53347 20.5565 3.55114 20.747 3.46387 20.9778C3.37632 21.2086 3.44233 21.3975 3.61052 21.3975C3.77872 21.3975 3.91625 21.2755 3.91625 21.1264C3.91625 20.9775 4.1151 20.9328 4.35842 21.0273C4.60146 21.1219 4.9105 21.0234 5.04473 20.8088C5.24358 20.4907 5.28943 20.5036 5.29302 20.8779C5.29523 21.1309 5.51479 21.4305 5.78047 21.5438C6.50573 21.8532 8.58482 21.7682 9.00903 21.4115C9.2899 21.1753 9.49041 21.2086 9.82487 21.5477C10.1828 21.9103 10.2684 21.9207 10.2684 21.6006C10.2684 21.3827 10.5059 20.9865 10.7965 20.7204C11.3099 20.2496 11.3179 20.265 11.0925 21.2769C10.9188 22.0583 10.9611 22.4187 11.2621 22.7239C11.8004 23.2692 12.4768 22.9654 12.482 22.1756C12.485 21.7385 12.5574 21.6507 12.7112 21.8966C12.8421 22.1053 13.1412 22.1761 13.4254 22.0656C13.6944 21.961 13.9969 22.0102 14.0974 22.175C14.3045 22.5149 16.3444 21.9859 16.3444 21.5922C16.3444 21.4669 16.2331 21.4341 16.0972 21.5192C15.9611 21.6045 15.7777 21.4831 15.689 21.2495C15.5581 20.9037 15.6294 20.8799 16.0746 21.1211C16.3748 21.2839 16.6206 21.3303 16.6206 21.224C16.6206 21.118 16.8691 21.259 17.1729 21.5374C17.6698 21.9929 17.7253 21.9971 17.7253 21.5807C17.7253 21.3261 17.9117 21.1177 18.1396 21.1177C18.3674 21.1177 18.8239 20.8441 19.1543 20.5095C19.5437 20.115 19.6958 20.0562 19.5876 20.3425C19.3495 20.9703 19.653 21.1633 20.1253 20.6846C20.6506 20.1528 21.0395 20.1681 21.0395 20.7213C21.0395 20.965 21.195 21.1085 21.3847 21.0402C21.5747 20.972 21.6973 20.6301 21.6576 20.2806C21.5938 19.7177 21.6379 19.6892 22.0442 20.0308C22.4588 20.3791 22.4905 20.3293 22.3723 19.5149C22.2679 18.7933 22.3143 18.6741 22.6046 18.9184C22.823 19.1019 22.9006 19.4931 22.7993 19.9018C22.6427 20.5333 22.6996 20.5755 23.6223 20.5126C24.6193 20.4446 25.0098 20.0386 24.7466 19.3439C24.6685 19.1377 24.7856 18.8171 25.0068 18.6311C25.3402 18.351 25.4401 18.4386 25.5937 19.1458C25.7345 19.7966 25.9298 19.9986 26.4173 19.9986C27.1016 19.9986 27.5087 19.3898 27.1008 18.9766C26.9547 18.8286 27.0887 18.5765 27.4275 18.3622C27.7432 18.1624 27.9194 18.1342 27.8186 18.2992C27.7112 18.4752 27.8644 18.5997 28.1876 18.5997C28.4914 18.5997 28.8167 18.4738 28.9106 18.3199C29.2569 17.752 29.6069 18.0595 29.4293 18.776C29.2912 19.333 29.3404 19.4807 29.6312 19.3839C29.8424 19.3137 30.0537 18.9287 30.1007 18.5287C30.1868 17.7962 30.8635 16.9876 31.1488 17.2767C31.2333 17.362 31.0916 17.7579 30.8342 18.1557C30.5528 18.591 30.4887 18.8795 30.674 18.8795C30.8433 18.8795 30.982 18.7805 30.982 18.6593C30.982 18.5382 31.3639 18.4095 31.8304 18.3734C32.351 18.3334 32.6117 18.4184 32.5046 18.5938C32.2375 19.0317 32.8037 18.9332 33.1779 18.4763C33.3593 18.2548 33.6728 18.1375 33.8741 18.2159C34.0755 18.2939 34.3119 18.2405 34.3997 18.0967C34.4873 17.9532 34.8582 17.8933 35.2238 17.9641C35.5895 18.0349 35.9726 17.9551 36.0753 17.7867C36.315 17.3936 38.1627 17.3849 38.1627 17.7769C38.1627 17.9397 38.3002 17.987 38.4684 17.8818C38.6869 17.745 38.6783 17.6306 38.4389 17.4806C37.976 17.1908 38.5027 16.8853 39.9156 16.6237C40.7135 16.4757 41.1278 16.5274 41.4064 16.8097C41.9458 17.3561 42.4009 17.2982 42.1819 16.7112C42.0146 16.2622 42.0364 16.2588 42.446 16.669C42.9657 17.1894 43.9619 17.0724 44.7106 16.4032C45.4171 15.7717 46.0057 15.6674 45.8002 16.2101C45.7104 16.4474 45.7574 16.6413 45.9043 16.6413C46.0515 16.6413 46.1719 16.5014 46.1719 16.3305C46.1719 16.1265 46.505 16.0829 47.1385 16.2032C47.9779 16.3626 48.1052 16.3142 48.1052 15.835C48.1052 15.2544 49.4518 13.9845 49.7355 14.2976C49.8261 14.3978 49.7451 14.536 49.5551 14.6045C49.3654 14.6733 49.2099 14.959 49.2099 15.2396C49.2099 15.9307 50.1641 15.6724 50.5096 14.8879L50.7676 14.3024L51.3293 14.8714C51.8353 15.384 51.964 15.4019 52.6218 15.0527C53.2607 14.7139 53.3526 14.7189 53.3526 15.0936C53.3526 15.3356 53.5929 15.5222 53.905 15.5222C54.2088 15.5222 54.4573 15.3963 54.4573 15.2424C54.4573 15.0885 54.768 14.9626 55.1478 14.9626C55.5275 14.9626 55.8382 14.8233 55.8382 14.6529C55.8382 14.4825 56.0092 14.4098 56.2183 14.4909C56.4472 14.5799 56.5842 14.4646 56.5635 14.2005C56.5425 13.9353 56.7748 13.7417 57.1518 13.7098C57.7246 13.6614 57.7439 13.7047 57.3926 14.2475C57.0402 14.7925 57.0615 14.8359 57.6652 14.8093C58.0253 14.7931 58.4026 14.6963 58.5037 14.5942C58.6047 14.4918 58.8403 14.5365 59.027 14.6935C59.4841 15.0779 60.8824 14.4392 60.6907 13.9336C60.5212 13.4854 60.8611 13.4482 61.2771 13.8695C61.493 14.0883 61.7364 14.0897 62.1332 13.8746C62.5649 13.6407 62.7223 13.6659 62.8447 13.9884C62.9308 14.2165 63.2308 14.4031 63.5111 14.4031C64.2308 14.4031 65.6181 12.8682 65.4054 12.307C65.2988 12.025 65.346 11.9256 65.5319 12.042C65.6951 12.1444 65.7645 12.4776 65.6858 12.7829C65.5145 13.446 65.7321 14.1233 66.116 14.1233C66.2679 14.1233 66.3207 13.9344 66.2331 13.7036C66.055 13.2333 66.7474 13.1108 67.0236 13.5637C67.1175 13.7176 67.4044 13.8334 67.6613 13.8214C67.9488 13.8077 67.9957 13.745 67.7831 13.6583C67.5933 13.5805 67.4467 13.2442 67.4572 12.911C67.476 12.324 67.4842 12.3224 67.714 12.8643C67.8447 13.1721 67.9601 13.2591 67.9709 13.0576C67.9814 12.8562 68.1145 12.7692 68.2664 12.8643C68.4183 12.9594 68.5464 12.8724 68.5514 12.671C68.5566 12.4494 68.7246 12.5252 68.9764 12.8629C69.3338 13.3419 69.4302 13.3617 69.6553 13.0028C69.7995 12.7728 69.8633 12.4334 69.7964 12.2491C69.7268 12.0557 69.8359 11.976 70.0544 12.0608C70.5051 12.2362 70.8169 12.9513 70.5984 13.3091C70.3952 13.6426 70.8155 13.6317 71.7289 13.28C72.2138 13.0932 72.4116 12.8545 72.3077 12.5806C72.221 12.352 72.2707 12.1649 72.4177 12.1649C72.5649 12.1649 72.6853 12.2829 72.6853 12.4273C72.6853 13.0022 73.8618 12.5697 74.112 11.9027C74.3241 11.3378 74.4224 11.2827 74.6282 11.6148C74.7677 11.8403 74.8116 12.2547 74.7251 12.5353C74.5882 12.9812 74.6848 13.0229 75.491 12.8643C75.9986 12.7644 76.6338 12.6847 76.9031 12.6866C77.1721 12.6889 77.3201 12.5722 77.232 12.4276C77.1437 12.2832 77.255 12.1649 77.4792 12.1649C77.7032 12.1649 77.9391 12.3221 78.0029 12.5146C78.0934 12.7874 78.2197 12.7801 78.5768 12.4816C78.8286 12.2712 79.286 12.1654 79.5931 12.2468C79.9005 12.3282 80.3283 12.2163 80.5437 11.9978C80.7843 11.7541 81.0008 11.7083 81.1049 11.8786C81.3355 12.2566 82.5941 12.1232 82.9551 11.6828C83.1771 11.4117 83.1039 11.3255 82.6518 11.3255C82.1166 11.3255 82.0909 11.2617 82.3988 10.696C82.6952 10.1519 82.7554 10.1328 82.8432 10.5561C82.8987 10.8256 83.1752 11.0458 83.4569 11.0458C83.7386 11.0458 84.1335 11.2117 84.3343 11.4145C84.5362 11.6185 85.4418 11.8135 86.3626 11.8512C87.789 11.9097 88.1392 11.821 88.8206 11.2279C89.5469 10.5956 90.566 10.4831 90.2048 11.0751C90.1208 11.2128 90.1733 11.3255 90.3216 11.3255C90.4697 11.3255 90.6536 11.168 90.7304 10.9758C90.8417 10.696 90.874 10.696 90.8914 10.9758C90.9254 11.5225 92.7691 11.4159 93.0823 10.8491C93.2966 10.4613 93.4223 10.4372 93.7595 10.7209C94.0909 10.9996 94.2025 10.9968 94.3177 10.7078C94.4179 10.456 94.5306 10.4381 94.6897 10.649C94.8151 10.8155 95.3528 10.9414 95.8845 10.9288C96.7014 10.9095 96.8389 10.8149 96.7718 10.3192C96.7282 9.99659 96.8914 9.56545 97.1345 9.36093C97.5247 9.03304 97.5556 9.07333 97.3985 9.7073C97.2971 10.1161 97.349 10.5055 97.5192 10.6121C97.6835 10.7148 97.8177 10.6613 97.8177 10.4932C97.8177 10.3153 98.1356 10.2403 98.5772 10.3139C98.9948 10.3832 99.3367 10.461 99.3367 10.4862C99.3367 10.5114 99.6946 10.5914 100.132 10.6636C100.834 10.7794 100.91 10.7246 100.773 10.1952C100.629 9.63847 100.653 9.62756 101.104 10.0408C101.709 10.5953 102.237 10.6149 102.237 10.083C102.237 9.86118 102.382 9.58895 102.56 9.4776C102.777 9.34163 102.825 9.4278 102.706 9.74087C102.577 10.0836 102.682 10.2064 103.108 10.2064C103.566 10.2064 103.62 10.1272 103.37 9.82173C103.117 9.51257 103.192 9.43703 103.75 9.43703C104.157 9.43703 104.446 9.59707 104.446 9.82173C104.446 10.3371 104.899 10.3127 105.098 9.78675C105.186 9.55594 105.417 9.37716 105.611 9.38919C105.888 9.40654 105.89 9.44179 105.62 9.5523C105.43 9.63008 105.275 9.81333 105.275 9.95994C105.275 10.1172 105.5 10.1037 105.827 9.92664C106.131 9.76186 106.379 9.72996 106.379 9.85586C106.379 10.395 107.901 10.1642 108.769 9.49327C109.656 8.80782 109.693 8.80222 109.693 9.35282C109.693 10.0749 110.652 10.1342 111.052 9.43703C111.209 9.16537 111.338 9.10298 111.342 9.29715C111.347 9.49998 111.711 9.64687 112.209 9.64687C112.8 9.64687 113.024 9.53356 112.929 9.28232C112.749 8.80921 114.672 8.64694 114.956 9.11137C115.065 9.29127 115.3 9.34863 115.476 9.23811C115.71 9.09179 115.714 8.93735 115.493 8.66765C115.312 8.44634 115.294 8.23287 115.449 8.13607C115.591 8.0471 115.775 8.23931 115.858 8.56273L116.01 9.15082L116.83 8.55965C117.789 7.86749 118.097 7.81237 117.886 8.36968C117.802 8.59071 117.882 8.83244 118.063 8.90714C118.245 8.98212 118.151 9.05318 117.855 9.06521C117.527 9.07864 117.419 9.18495 117.578 9.33715C117.723 9.47452 118.241 9.52376 118.73 9.44655C119.437 9.33463 119.606 9.18384 119.558 8.7071C119.523 8.35346 119.639 8.13663 119.843 8.17804C120.033 8.21665 120.19 8.09075 120.193 7.89826C120.196 7.66521 120.286 7.68843 120.465 7.96821C120.612 8.19902 120.736 8.26197 120.741 8.10809C120.745 7.95422 120.854 7.99534 120.981 8.1993C121.109 8.40326 121.727 8.63995 122.354 8.725C123.318 8.85622 123.582 8.77732 124.065 8.21441C124.582 7.61177 124.622 7.60254 124.484 8.11817C124.37 8.54231 124.472 8.7029 124.884 8.74766C125.751 8.84167 126.337 8.83495 127.231 8.72109C127.687 8.66289 128.432 8.59155 128.888 8.56273C129.644 8.51461 129.674 8.47684 129.227 8.13355C128.763 7.7774 128.767 7.74914 129.296 7.60897C129.657 7.51357 129.855 7.59722 129.855 7.84566C129.855 8.06697 130.025 8.16433 130.256 8.07452C130.476 7.98891 130.808 8.01353 130.993 8.12936C131.179 8.24546 131.837 8.31597 132.457 8.28631C133.076 8.25666 134.173 8.20434 134.895 8.1702C135.728 8.13076 136.207 7.98024 136.207 7.75837C136.207 7.54518 136.584 7.40865 137.173 7.40865C137.705 7.40865 138.14 7.54211 138.14 7.70494C138.14 7.86777 138.27 7.92008 138.428 7.82076C138.587 7.72144 138.895 7.79027 139.113 7.97352C139.387 8.20406 139.745 8.22644 140.275 8.0457C140.696 7.90218 141.519 7.83587 142.105 7.89826C142.857 7.97828 143.113 7.91729 142.975 7.69151C142.855 7.49482 142.944 7.40529 143.206 7.45985C143.441 7.50853 143.833 7.29674 144.077 6.98899C144.515 6.43727 144.519 6.43811 144.35 7.05893C144.227 7.51021 144.297 7.68843 144.596 7.68843C144.825 7.68843 145.094 7.55386 145.194 7.38963C145.295 7.22512 145.551 7.15825 145.763 7.24079C145.978 7.32416 146.149 7.22148 146.149 7.01025C146.149 6.28842 146.963 6.28647 147.429 7.00717C147.802 7.58379 148.074 7.69514 148.979 7.64115C149.596 7.60422 150.139 7.40977 150.22 7.1963C150.299 6.98759 150.549 6.88939 150.777 6.9778C151.005 7.06621 151.383 6.97891 151.618 6.78391C151.985 6.47923 152.023 6.51756 151.885 7.05893C151.797 7.40501 151.761 7.68843 151.805 7.68843C152.086 7.68843 153.455 6.82252 153.656 6.51784C153.81 6.28535 153.836 6.4258 153.728 6.89862L153.557 7.64786L155.972 7.54043C157.301 7.48111 158.511 7.30793 158.662 7.15517C158.813 7.00242 159.011 6.40929 159.103 5.83715C159.195 5.265 159.426 4.74406 159.617 4.67971C159.883 4.58962 159.897 4.73874 159.677 5.32515C159.519 5.74426 159.452 6.14938 159.527 6.2252C159.602 6.30101 159.539 6.59842 159.387 6.88575C159.173 7.29086 159.206 7.40865 159.534 7.40865C159.768 7.40865 159.958 7.29059 159.958 7.14622C159.958 7.00186 160.176 6.8975 160.442 6.91457C160.707 6.93135 161.192 6.85609 161.517 6.74754C161.873 6.62919 162.259 6.69382 162.484 6.90953C163.09 7.49091 163.934 7.33143 164.286 6.56932L164.609 5.86988L164.631 6.6485C164.653 7.4232 164.661 7.42628 166.242 7.29199C167.115 7.21784 168.411 7.1507 169.123 7.14287C170.199 7.13111 170.448 7.0276 170.606 6.52372C170.774 5.98627 170.824 5.97088 171.053 6.38579C171.254 6.74978 171.43 6.78839 171.849 6.56121C172.218 6.36117 172.387 6.36061 172.387 6.55953C172.387 6.71872 172.573 6.8491 172.801 6.8491C173.029 6.8491 173.215 6.97024 173.215 7.11824C173.215 7.54714 178.371 7.27436 178.918 6.81637C179.298 6.4991 179.403 6.49602 179.504 6.79958C179.594 7.07012 179.821 6.99486 180.348 6.5198C180.745 6.16225 180.9 6.09314 180.693 6.3662C180.227 6.98143 180.507 7.33563 181.08 6.85469C181.422 6.5668 181.502 6.5724 181.509 6.88491C181.515 7.14286 181.65 7.09222 181.921 6.72963C182.142 6.43307 182.406 6.27388 182.506 6.37544C182.607 6.47727 182.864 6.34214 183.079 6.07524C183.364 5.71964 183.507 5.68383 183.613 5.9415C183.692 6.13483 183.902 6.21848 184.079 6.12699C184.256 6.03579 184.104 6.20589 183.741 6.50497C183.316 6.85581 183.191 7.11685 183.388 7.24023C183.556 7.34542 183.968 7.11181 184.304 6.72068C184.952 5.96556 185.803 5.74454 185.556 6.3953C185.413 6.77412 185.835 7.40865 186.231 7.40865C186.343 7.40865 186.488 7.12524 186.555 6.77915C186.675 6.16337 186.682 6.16225 186.87 6.72796C187.045 7.2531 187.257 7.30094 189.184 7.24638C190.35 7.21337 191.336 7.15993 191.374 7.12776C191.583 6.9501 193.887 6.99934 194.446 7.19322C194.864 7.33843 195.246 7.29842 195.502 7.08299C195.769 6.85889 195.967 6.84154 196.09 7.03151C196.433 7.55833 197.482 7.65122 197.854 7.18763C198.157 6.80993 198.138 6.77132 197.726 6.92772C197.426 7.04158 197.243 6.97808 197.243 6.75985C197.243 6.13399 198.282 6.28675 198.459 6.93863C198.597 7.4495 198.668 7.48055 198.896 7.12888C199.045 6.89806 199.169 6.85301 199.172 7.02899C199.178 7.50769 199.975 7.72452 200.56 7.40697C200.857 7.2461 201.141 7.23351 201.228 7.37732C201.411 7.67724 203.622 7.59778 204.142 7.2724C204.386 7.11964 204.443 7.15014 204.313 7.36361C204.187 7.57064 204.343 7.68032 204.754 7.67248C205.366 7.66073 207.323 7.88959 207.323 7.97296C207.323 7.99534 207.914 8.0527 208.635 8.10082C209.357 8.14894 209.948 8.10725 209.948 8.00821C209.949 7.90945 210.508 7.81713 211.191 7.8037C212.105 7.78523 212.433 7.88623 212.433 8.18587C212.433 8.45194 212.619 8.54343 212.972 8.45026C213.268 8.37164 213.569 8.45138 213.641 8.62736C213.712 8.80334 213.78 8.71801 213.792 8.43795C213.812 7.97464 213.853 7.96821 214.248 8.36801C214.657 8.78208 214.936 8.84223 216.991 8.9589C217.447 8.98491 218.089 9.09235 218.418 9.19782C218.746 9.30358 219.091 9.26357 219.186 9.10942C219.294 8.9312 219.598 8.92196 220.019 9.08396C220.48 9.26161 220.722 9.23727 220.816 9.00338C220.89 8.81873 220.961 8.88783 220.973 9.15726C220.984 9.42668 221.087 9.65162 221.202 9.6575C222.073 9.70198 223.704 10.0332 224.101 10.2464C224.495 10.4577 224.586 10.3874 224.589 9.86649C224.592 9.35114 224.645 9.30862 224.861 9.64687C225.081 9.99239 225.129 9.99659 225.133 9.67009C225.135 9.45214 225.216 9.35338 225.311 9.45046C225.407 9.54754 225.718 9.50138 226.002 9.34751C226.596 9.0252 226.614 9.07528 226.249 10.0483C226.038 10.6093 226.065 10.766 226.371 10.766C226.586 10.766 226.835 10.6457 226.925 10.4985C227.108 10.198 227.938 10.4344 228.224 10.8687C228.326 11.0242 228.745 11.1974 229.155 11.2528C229.565 11.3085 230.077 11.5334 230.294 11.753C230.611 12.0745 230.793 12.086 231.227 11.8115C231.523 11.624 231.765 11.3862 231.765 11.283C231.765 11.0248 232.333 11.1442 233.077 11.5586C233.55 11.8221 233.699 11.8255 233.699 11.5717C233.699 11.3725 233.921 11.4428 234.253 11.7469C235.074 12.4997 235.258 12.025 234.606 10.8328C234.167 10.0288 234.095 9.62616 234.296 9.09235C234.475 8.61449 234.46 8.36521 234.248 8.29359C234.078 8.23623 233.821 7.8756 233.677 7.49202C233.534 7.10873 233.177 6.73187 232.886 6.65465C232.595 6.57744 232.295 6.35306 232.22 6.15609C232.072 5.7644 227.002 4.13414 226.549 4.33223C226.49 4.35797 226.346 4.22144 226.228 4.02895C226.111 3.83674 224.854 3.45876 223.436 3.18934C222.017 2.91963 220.546 2.62559 220.166 2.5355C219.786 2.44541 218.792 2.30161 217.956 2.21628C217.121 2.13066 216.197 1.9891 215.902 1.90153C215.608 1.81368 214.676 1.70484 213.831 1.65952C212.986 1.61392 211.984 1.49389 211.604 1.39261C211.224 1.29133 209.857 1.16516 208.566 1.112C207.275 1.05884 206.219 0.997287 206.219 0.975465C206.219 0.953642 205.69 0.887055 205.045 0.827743C204.325 0.761715 203.871 0.836696 203.871 1.02107C203.871 1.22503 203.747 1.21775 203.486 0.998407C203.274 0.820189 202.094 0.654283 200.862 0.629942C199.631 0.605322 198.624 0.515233 198.624 0.429621C198.624 0.344289 196.604 0.240772 194.136 0.199645C191.667 0.158798 189.461 0.119629 189.234 0.112634C189.006 0.10564 188.011 0.144808 187.024 0.199365C186.037 0.253921 184.918 0.220069 184.538 0.124105C184.159 0.0281419 183.444 0.0410111 182.95 0.152362C182.457 0.263993 182.053 0.251123 182.053 0.123545C182.053 -0.00403315 181.711 -0.0384452 181.293 0.0468867C180.223 0.265392 170.528 0.311836 169.287 0.104521C168.722 0.00995654 168.196 -0.0037527 168.12 0.0737455ZM192.544 5.79126C192.546 5.90177 192.369 5.92276 192.151 5.83799C191.933 5.75321 191.826 5.4947 191.913 5.2636C192.043 4.922 192.116 4.91332 192.306 5.21688C192.434 5.42224 192.541 5.68047 192.544 5.79126ZM139.542 5.38027C139.554 5.49554 139.605 5.81113 139.656 6.08111C139.707 6.3511 139.65 6.51029 139.53 6.43503C139.201 6.22883 138.984 5.17044 139.271 5.17044C139.408 5.17044 139.53 5.265 139.542 5.38027ZM171.558 5.29382C171.558 5.36181 171.434 5.49498 171.282 5.5901C171.13 5.68523 171.006 5.62955 171.006 5.46672C171.006 5.30389 171.13 5.17044 171.282 5.17044C171.434 5.17044 171.558 5.22583 171.558 5.29382ZM160.649 6.28955C160.743 6.44342 160.688 6.56932 160.527 6.56932C160.366 6.56932 160.235 6.44342 160.235 6.28955C160.235 6.13567 160.289 6.00977 160.356 6.00977C160.423 6.00977 160.555 6.13567 160.649 6.28955ZM136.483 6.6927C136.483 6.76069 136.359 6.89386 136.207 6.98899C136.055 7.08411 135.931 7.02843 135.931 6.8656C135.931 6.70278 136.055 6.56932 136.207 6.56932C136.359 6.56932 136.483 6.62472 136.483 6.6927ZM138.065 6.73831C137.974 6.83119 137.735 6.84126 137.536 6.76041C137.316 6.67116 137.381 6.60485 137.703 6.59142C137.994 6.57939 138.157 6.64542 138.065 6.73831ZM139.107 6.8491C139.201 7.00298 139.076 7.12888 138.831 7.12888C138.585 7.12888 138.46 7.00298 138.554 6.8491C138.648 6.69522 138.773 6.56932 138.831 6.56932C138.889 6.56932 139.013 6.69522 139.107 6.8491ZM142.007 6.81637C142.007 6.95234 141.727 7.13503 141.385 7.22232C140.785 7.37536 140.782 7.36696 141.3 6.975C141.925 6.50189 142.007 6.48343 142.007 6.81637ZM132.064 6.97248C132.064 7.04047 131.94 7.17364 131.788 7.26876C131.636 7.36389 131.512 7.30821 131.512 7.14538C131.512 6.98255 131.636 6.8491 131.788 6.8491C131.94 6.8491 132.064 6.90449 132.064 6.97248ZM119.285 7.29786C119.193 7.39075 118.955 7.40082 118.756 7.31996C118.535 7.23071 118.601 7.16441 118.923 7.15098C119.214 7.13895 119.377 7.20497 119.285 7.29786ZM122.31 8.30058C122.222 8.52356 122.157 8.45726 122.143 8.13132C122.132 7.83643 122.197 7.67136 122.288 7.76425C122.38 7.85714 122.39 8.09858 122.31 8.30058ZM219.337 8.38787C219.337 9.09179 218.903 9.06045 218.845 8.35234C218.813 7.95198 218.905 7.73039 219.063 7.82944C219.214 7.924 219.337 8.17524 219.337 8.38787ZM104.584 8.52776C104.678 8.68164 104.623 8.80754 104.462 8.80754C104.302 8.80754 104.17 8.68164 104.17 8.52776C104.17 8.37388 104.225 8.24798 104.292 8.24798C104.359 8.24798 104.49 8.37388 104.584 8.52776ZM119.818 8.68192C119.902 8.9049 120.082 9.08731 120.218 9.08731C120.615 9.08731 120.501 8.6019 120.064 8.43207C119.797 8.328 119.715 8.41081 119.818 8.68192ZM227.601 8.69479C227.292 9.07137 227.308 9.18328 227.705 9.40794C228.367 9.7834 228.322 10.306 227.659 9.94623C227.375 9.79235 227.045 9.75654 226.925 9.86649C226.804 9.97644 226.788 9.836 226.888 9.55398C226.988 9.27225 227.07 8.86293 227.07 8.64471C227.07 8.42648 227.272 8.24798 227.518 8.24798C227.898 8.24798 227.91 8.31681 227.601 8.69479ZM89.7209 9.41969C89.6328 9.64267 89.5674 9.57636 89.5541 9.25042C89.5422 8.95554 89.6074 8.79047 89.6991 8.88336C89.7908 8.97624 89.8008 9.21769 89.7209 9.41969ZM222.375 8.93092C222.375 8.9989 222.251 9.13208 222.099 9.2272C221.947 9.32233 221.823 9.26665 221.823 9.10382C221.823 8.94099 221.947 8.80754 222.099 8.80754C222.251 8.80754 222.375 8.86293 222.375 8.93092ZM223.204 9.08731C223.204 9.24119 223.08 9.36709 222.928 9.36709C222.776 9.36709 222.651 9.24119 222.651 9.08731C222.651 8.93344 222.776 8.80754 222.928 8.80754C223.08 8.80754 223.204 8.93344 223.204 9.08731ZM88.9799 9.64687C88.9799 9.95462 88.8673 10.2064 88.7297 10.2064C88.5919 10.2064 88.5444 9.95462 88.6237 9.64687C88.7032 9.33911 88.8159 9.08731 88.8742 9.08731C88.9322 9.08731 88.9799 9.33911 88.9799 9.64687ZM90.637 9.64687C90.637 9.80074 90.5823 9.92664 90.5152 9.92664C90.4481 9.92664 90.3167 9.80074 90.2227 9.64687C90.1289 9.49299 90.1838 9.36709 90.3446 9.36709C90.5053 9.36709 90.637 9.49299 90.637 9.64687ZM88.0639 10.259C87.9757 10.482 87.9103 10.4157 87.897 10.0898C87.8852 9.79487 87.9503 9.6298 88.042 9.72269C88.1337 9.81557 88.1437 10.057 88.0639 10.259ZM231.213 11.1389C231.213 11.3443 231.027 11.5121 230.799 11.5121C230.362 11.5121 230.26 11.2648 230.569 10.9526C230.874 10.6437 231.213 10.7419 231.213 11.1389ZM50.7176 15.2611C50.6173 15.4251 50.5947 15.6195 50.667 15.6928C50.7394 15.7661 50.8722 15.6319 50.9623 15.3943C51.149 14.9014 50.9899 14.8146 50.7176 15.2611ZM23.5756 18.9402C23.3776 19.1408 23.2489 19.1573 23.2489 18.9822C23.2489 18.823 23.3318 18.609 23.4331 18.5066C23.5342 18.4039 23.6814 18.3849 23.7598 18.4646C23.8383 18.544 23.7554 18.7581 23.5756 18.9402ZM8.05897 20.6639C8.05897 20.7218 7.84161 20.9423 7.57565 21.1535C7.13763 21.5013 7.12796 21.4915 7.47125 21.0478C7.83222 20.5817 8.05897 20.4337 8.05897 20.6639ZM12.1257 21.957C12.0799 22.5731 11.6493 22.7415 11.6493 22.1437C11.6493 21.8099 11.8943 21.3975 12.0926 21.3975C12.1337 21.3975 12.1487 21.6493 12.1257 21.957Z" fill="#2CD5C4"/>
</svg>
