<svg width="958" height="639" viewBox="0 0 958 639" fill="none" xmlns="http://www.w3.org/2000/svg">
<rect width="958" height="639" rx="14" fill="#FBFAF9"/>
<mask id="mask0_7600_75717" style="mask-type:alpha" maskUnits="userSpaceOnUse" x="0" y="0" width="958" height="639">
<rect width="958" height="639" rx="14" fill="#FBFAF9"/>
</mask>
<g mask="url(#mask0_7600_75717)">
<path opacity="0.7" d="M938.066 11.9774C905.125 153.669 825.804 54.8498 702.701 16.8327C579.599 -21.1844 459.332 15.9968 492.273 -125.695C525.214 -267.386 651.712 -351.431 774.814 -313.414C897.916 -275.397 971.006 -129.714 938.066 11.9774Z" fill="#FF6A09"/>
<g opacity="0.7">
<path d="M1297.65 652.242C1297.65 814.071 1190.36 945.261 1058.02 945.261C925.674 945.261 900.517 814.071 900.517 652.242C900.517 490.412 686.359 359.223 1058.02 359.223C1190.36 359.223 1297.65 490.412 1297.65 652.242Z" fill="#EAF7F5"/>
<path d="M1297.65 652.242C1297.65 814.071 1190.36 945.261 1058.02 945.261C925.674 945.261 900.517 814.071 900.517 652.242C900.517 490.412 686.359 359.223 1058.02 359.223C1190.36 359.223 1297.65 490.412 1297.65 652.242Z" fill="#FFCB4E"/>
</g>
<path opacity="0.7" d="M94.9445 390.774C62.0036 532.466 -17.3176 433.647 -140.42 395.63C-263.522 357.612 -383.789 394.794 -350.848 253.102C-317.907 111.411 -191.409 27.3658 -68.3069 65.3829C54.7952 103.4 127.885 249.083 94.9445 390.774Z" fill="#CF91FF"/>
</g>
</svg>
