<svg width="168" height="52" viewBox="0 0 168 52" fill="none" xmlns="http://www.w3.org/2000/svg">
<path fill-rule="evenodd" clip-rule="evenodd" d="M73.657 0.160926C73.2786 0.242277 72.8686 0.383066 72.7457 0.473974C72.6229 0.564881 72.4675 0.532481 72.4002 0.40218C72.2437 0.0991542 71.5222 0.0919276 71.5222 0.393555C71.5222 0.532015 71.3304 0.516865 71.0337 0.355096C70.6516 0.146474 70.4331 0.160226 70.0286 0.418497C69.64 0.666279 69.4923 0.678634 69.4333 0.468847C69.3735 0.255796 69.239 0.252533 68.8671 0.45556C68.534 0.637143 68.3376 0.645067 68.2473 0.480034C68.1747 0.347169 67.7473 0.222929 67.2976 0.204048C66.6548 0.177009 66.4155 0.279805 66.1782 0.685627C66.0124 0.969306 65.8765 1.09191 65.8765 0.95835C65.8765 0.690288 63.624 0.542038 63.2917 0.787955C63.179 0.871404 62.5224 0.914993 61.8324 0.885157C60.7675 0.839003 60.5086 0.908933 60.1181 1.34809C59.7608 1.74995 59.5981 1.80589 59.3894 1.59843C59.0026 1.21382 57.4545 1.33364 57.1856 1.76906C57.0052 2.0616 56.9082 2.07418 56.6691 1.83689C56.4593 1.62804 56.3541 1.61941 56.3022 1.80659C56.2558 1.97255 55.6247 2.07022 54.5796 2.07325C53.6726 2.07582 52.4485 2.24271 51.8596 2.44434C51.2707 2.64597 50.4998 2.78397 50.1464 2.75133C49.7931 2.71846 49.3948 2.80028 49.2614 2.93268C49.128 3.06531 48.8477 3.17743 48.6384 3.18186C47.843 3.19888 46.687 3.50493 46.312 3.7977C46.0975 3.9653 45.5627 4.09607 45.1239 4.08814C44.6849 4.08045 44.1593 4.18068 43.9558 4.31098C43.7522 4.44152 43.1697 4.62287 42.661 4.71424C42.1523 4.80561 41.7363 4.97321 41.7363 5.08696C41.7363 5.20048 41.5805 5.29349 41.3903 5.29349C41.1999 5.29349 40.8565 5.45083 40.6274 5.64313C40.398 5.83544 40.0726 5.92937 39.904 5.85175C39.7354 5.77436 39.2496 5.92798 38.8247 6.19324C38.3419 6.49463 38.006 6.58694 37.9299 6.43939C37.8557 6.2958 37.7195 6.28578 37.582 6.41422C37.4576 6.5303 36.6246 6.95547 35.7306 7.35919C34.8367 7.76268 33.8893 8.29647 33.6254 8.54495C33.3616 8.79367 33.0197 8.93912 32.8659 8.86849C32.6746 8.78061 32.5864 8.90392 32.5864 9.25963C32.5864 9.64843 32.525 9.71883 32.343 9.53865C32.1736 9.37105 31.8633 9.39669 31.3209 9.62326C30.8927 9.80204 30.5202 9.95006 30.4936 9.95193C30.4669 9.95379 30.4435 10.1916 30.442 10.4799C30.4398 10.8587 30.3929 10.9174 30.2734 10.6915C30.1352 10.4305 30.0388 10.4302 29.6923 10.6892C29.4637 10.8601 29.2768 11.0661 29.2768 11.1472C29.2768 11.2281 28.9046 11.3638 28.4494 11.4486C27.2455 11.6729 25.9673 12.3006 25.9673 12.6677C25.9673 12.8426 25.8403 12.9857 25.6854 12.9857C25.5302 12.9857 25.1687 13.2461 24.8821 13.564C24.5954 13.8822 24.2866 14.0875 24.1959 14.0204C24.1052 13.9533 23.8776 14.1125 23.6903 14.3742C23.5032 14.6362 23.1505 14.8505 22.9065 14.8505C22.6388 14.8505 22.463 14.9915 22.463 15.2059C22.463 15.4013 22.244 15.6609 21.9764 15.7828C21.7087 15.9048 21.4883 16.1905 21.4867 16.418C21.4844 16.7243 21.4422 16.7532 21.3236 16.5295C21.1959 16.2887 21.039 16.3122 20.5492 16.646C20.2112 16.8765 19.9342 17.1961 19.9334 17.3563C19.9328 17.5166 19.757 17.6476 19.5429 17.6476C19.3287 17.6476 19.1535 17.7315 19.1535 17.8343C19.1535 17.9369 18.7593 18.2502 18.2774 18.5306C17.7956 18.8108 17.4014 19.1464 17.4014 19.2763C17.4014 19.4061 17.27 19.5124 17.1094 19.5124C16.9472 19.5124 16.8174 19.7196 16.8174 19.9786C16.8174 20.2376 16.6875 20.4448 16.5253 20.4448C16.3647 20.4448 16.2333 20.5497 16.2333 20.6779C16.2333 20.8061 16.1239 20.9112 15.99 20.9114C15.6265 20.9124 14.3253 22.3063 14.6759 22.3194C14.8365 22.3252 14.6613 22.4622 14.2865 22.6238C13.9118 22.7851 13.3515 23.2002 13.0414 23.5459C12.7312 23.8916 12.4028 24.1743 12.3113 24.1743C12.2198 24.1743 12.1451 24.3289 12.1451 24.5179C12.1451 24.707 11.9009 25.0128 11.6023 25.1976C11.3039 25.3825 10.7173 26.0146 10.2989 26.6023C9.88055 27.1899 9.4435 27.6708 9.32766 27.6708C9.06251 27.6708 8.05719 29.0253 8.05563 29.3847C8.05485 29.5318 7.79515 29.8286 7.4786 30.0444C7.16186 30.26 6.84628 30.7059 6.77717 31.0351C6.70826 31.3642 6.5566 31.6334 6.44018 31.6334C6.09833 31.6334 5.13661 32.8509 5.13661 33.2838C5.13661 33.5024 5.0052 33.7418 4.84459 33.8157C4.68398 33.8893 4.55258 34.1243 4.55258 34.3376C4.55258 34.5511 4.39936 34.8963 4.21189 35.1049C3.7466 35.6231 3.3845 36.4334 3.3845 36.9557C3.3845 37.1944 3.21474 37.6238 3.00721 37.9103C2.79988 38.1967 2.67451 38.5695 2.72863 38.7385C2.78859 38.9254 2.6967 39.0324 2.49404 39.011C1.98281 38.9573 1.95672 39.4475 2.45432 39.7606C2.69826 39.914 2.75744 39.9928 2.58573 39.9361C2.31688 39.8471 1.63239 40.5018 1.63239 40.848C1.63239 40.9133 1.40228 41.4032 1.12097 41.9366C0.696957 42.7407 0.648871 42.9825 0.840046 43.3489C1.00552 43.6659 1.01156 43.8764 0.86146 44.0929C0.63719 44.4162 0.781642 45.1531 1.06918 45.1531C1.16477 45.1531 1.24303 45.2482 1.24303 45.3642C1.24303 45.4806 1.06782 45.5207 0.853673 45.4538C0.592609 45.3719 0.464315 45.4465 0.464315 45.6801C0.464315 45.8717 0.334075 46.1577 0.175022 46.3157C-0.0780609 46.5673 -0.0659908 46.6763 0.272361 47.1915C0.694231 47.8334 0.788261 48.6495 0.440564 48.6495C0.283069 48.6495 0.280732 48.7344 0.432387 48.953C0.548027 49.1199 0.593192 49.4833 0.532647 49.7604C0.386248 50.4308 0.914802 51.0628 1.45114 50.8588C1.6943 50.7665 1.81325 50.5744 1.74997 50.3768C1.69138 50.1938 1.76127 50.0481 1.90786 50.0481C2.19248 50.0481 2.39826 50.6842 2.26587 51.1553C2.2209 51.3157 2.0599 51.4467 1.90825 51.4467C1.55724 51.4467 1.54848 51.8245 1.89579 51.984C2.04063 52.0506 2.30345 51.9033 2.47983 51.6567C2.82966 51.1674 2.9087 50.5143 2.61785 50.5143C2.39728 50.5143 2.42395 49.5204 2.64959 49.3318C2.73758 49.2581 2.84972 48.9488 2.89858 48.6441C2.94764 48.3395 3.12091 48.001 3.28346 47.8922C3.44602 47.7831 3.57918 47.4043 3.57918 47.0505C3.57918 46.6418 3.80501 46.1304 4.19768 45.6496C4.63901 45.109 4.82045 44.6622 4.83038 44.0908C4.84109 43.4899 4.92967 43.2894 5.18528 43.289C5.4958 43.2883 5.60423 43.0601 5.4773 42.6741C5.45044 42.5925 5.61494 42.4433 5.84252 42.3426C6.15946 42.202 6.23402 42.0184 6.16062 41.5582C6.08937 41.1128 6.14602 40.9573 6.37925 40.9573C6.55251 40.9573 6.69405 40.8524 6.69405 40.7242C6.69405 40.596 6.82545 40.4911 6.98606 40.4911C7.14667 40.4911 7.27808 40.3788 7.27808 40.2415C7.27808 40.1039 7.41514 39.8275 7.58256 39.627C7.79787 39.3692 7.82649 39.1897 7.6799 39.0142C7.36705 38.6396 7.4311 38.3643 7.81345 38.4413C8.01183 38.4811 8.15414 38.3639 8.15414 38.1601C8.15414 37.9678 8.32935 37.7487 8.5435 37.6732C8.75764 37.5979 8.91105 37.4142 8.88418 37.2653C8.85751 37.1166 8.95174 36.9947 9.09366 36.9947C9.23558 36.9947 9.54999 36.742 9.79236 36.4331C10.2033 35.9091 10.209 35.8639 9.87491 35.7609C9.6263 35.684 9.67555 35.642 10.0359 35.6231C10.3994 35.6042 10.7494 35.3003 11.204 34.6096C12.1783 33.1285 12.5148 32.7756 12.8821 32.8488C13.1017 32.8926 13.237 32.7362 13.2781 32.391C13.3155 32.0747 13.4757 31.8665 13.6819 31.8665C13.8783 31.8665 14.1865 31.4954 14.4078 30.9924C14.6192 30.5118 14.8756 30.1041 14.9774 30.0868C15.6347 29.9757 16.0965 29.6241 16.2797 29.0957C16.3959 28.7608 16.4767 28.4078 16.4593 28.3118C16.4422 28.2158 16.5374 28.1209 16.6713 28.1016C16.8051 28.082 17.0023 28.0416 17.1094 28.0118C17.2164 27.982 17.4676 27.9456 17.6675 27.9307C17.9311 27.9113 18.003 27.7759 17.929 27.4377C17.848 27.0668 17.9231 26.9715 18.2957 26.9715C18.5533 26.9715 18.7641 26.8524 18.7641 26.7069C18.7641 26.3643 19.6055 25.4335 20.3085 24.9983C20.6109 24.8109 20.9101 24.4965 20.9732 24.2995C21.0364 24.1025 21.2609 23.9412 21.4721 23.9412C21.6832 23.9412 21.8977 23.8606 21.9485 23.7622C21.9993 23.6636 21.676 23.6114 21.23 23.6461C20.5056 23.7023 20.466 23.6802 20.8603 23.4382C21.1643 23.2515 21.2662 23.034 21.1877 22.7385C21.0487 22.2138 21.2496 22.1881 21.6972 22.6732C22.004 23.0056 22.076 22.9848 22.5399 22.4294C22.8189 22.0953 23.0471 21.9319 23.0471 22.066C23.0471 22.3844 23.5784 22.3825 23.6671 22.0639C23.7047 21.9287 23.9091 21.787 24.1213 21.7492C24.3625 21.7061 24.5072 21.5002 24.5072 21.2C24.5072 20.5327 24.7357 20.3247 25.0865 20.6732C25.2839 20.8693 25.3832 20.8818 25.3832 20.7108C25.3832 20.5695 25.6022 20.3879 25.8699 20.3075C26.1376 20.2271 26.3566 20.0152 26.3566 19.8369C26.3566 19.6301 26.5735 19.5124 26.9543 19.5124C27.5342 19.5124 28.9244 18.5532 29.4561 17.7863C29.5959 17.5847 29.7824 17.473 29.8704 17.5381C29.9584 17.6033 30.3427 17.4465 30.7243 17.1898C31.106 16.9332 31.4183 16.7765 31.4183 16.8418C31.4183 17.0833 32.6927 16.1644 32.9403 15.7442C33.0816 15.5048 33.2825 15.3721 33.3869 15.4493C33.4914 15.5267 33.6824 15.4877 33.8117 15.363C33.9407 15.2383 34.4407 15.0626 34.9225 14.9726C35.4043 14.8824 36.1252 14.5558 36.5245 14.247C36.9236 13.9379 37.4302 13.685 37.6502 13.685C37.8699 13.685 38.3755 13.5115 38.7737 13.2994C39.1718 13.0873 39.5751 12.9346 39.6701 12.9603C39.7652 12.9859 40.0385 12.7869 40.2775 12.5181C40.5921 12.1643 40.8507 12.0708 41.2136 12.1799C41.5348 12.2764 41.8745 12.1969 42.1583 11.9589C42.4021 11.7545 42.9791 11.5871 43.4405 11.5871C43.9862 11.5871 44.3164 11.4713 44.3857 11.2554C44.4441 11.0731 44.621 10.8645 44.7789 10.792C44.9386 10.7186 45.0139 10.7612 44.9485 10.8878C44.8819 11.0169 44.9617 11.0554 45.133 10.9769C45.2993 10.9004 45.4422 10.6657 45.4506 10.4549C45.4589 10.2442 45.5035 10.1797 45.5495 10.3111C45.6487 10.5948 47.1873 10.4636 47.1873 10.1713C47.1873 10.0606 47.3253 10.0335 47.4943 10.1111C47.7526 10.2298 48.4681 10.0254 50.3022 9.30858C50.7036 9.15171 51.3515 9.0552 52.8104 8.93493C53.4941 8.87875 54.1074 8.7312 54.1732 8.60719C54.287 8.39298 54.7771 8.33051 57.0186 8.24449C57.554 8.22398 58.0508 8.10953 58.1226 7.99018C58.1944 7.87084 58.6325 7.74543 59.096 7.71163C59.5595 7.6776 59.9909 7.64427 60.0544 7.63727C60.1181 7.63028 60.4165 7.37108 60.7175 7.06129C61.1758 6.58974 61.3074 6.54918 61.5266 6.81165C61.6704 6.9839 61.7882 7.23122 61.7882 7.36106C61.7882 7.69415 64.5153 7.40161 64.9819 7.01864C65.2518 6.79696 65.4558 6.78041 65.7324 6.95756C65.9505 7.09742 66.4142 7.12982 66.8217 7.03379C67.212 6.94195 69.6776 6.83379 72.3009 6.7937C74.9242 6.75337 77.2685 6.71305 77.5105 6.70396C77.7527 6.69463 78.1469 6.45221 78.3866 6.16527L78.8226 5.64313L78.8879 6.19487C78.9461 6.6874 79.0271 6.73216 79.6421 6.61281C80.0209 6.53916 80.4953 6.30093 80.6962 6.08322C81.042 5.70863 81.0615 5.71259 81.0615 6.15921C81.0615 6.54288 81.1981 6.63776 81.7915 6.66666C83.5056 6.75011 84.4458 6.67505 84.6868 6.43543C84.8777 6.24545 85.0214 6.27203 85.2439 6.53846C85.6158 6.98367 89.2452 7.04451 89.4784 6.60932C89.5699 6.43846 89.6225 6.48904 89.6244 6.75034C89.6275 7.18763 90.1876 7.27295 90.8926 6.94358C91.1447 6.82587 91.3504 6.87202 91.4766 7.07435C91.5839 7.24614 92.1971 7.44637 92.8395 7.51933C93.482 7.59229 94.2696 7.68949 94.5901 7.73541C94.9105 7.78133 95.2263 7.7149 95.2919 7.58786C95.3661 7.44427 95.5138 7.47364 95.6828 7.66548C96.0007 8.02678 97.4145 8.19321 97.4145 7.86921C97.4145 7.74776 97.7367 7.80953 98.1307 8.0065C98.5246 8.20347 99.1709 8.32771 99.5671 8.28249C100.088 8.22305 100.261 8.28202 100.193 8.49507C100.109 8.75707 100.502 8.91325 100.986 8.80999C101.077 8.79064 101.691 8.94891 102.349 9.16173C103.008 9.37455 103.985 9.57617 104.52 9.60974C105.056 9.64331 105.669 9.73981 105.883 9.82466C106.192 9.94657 106.35 9.80461 106.649 9.13982C106.953 8.4629 107.058 8.3713 107.195 8.66407C107.288 8.8636 107.31 9.13073 107.245 9.258C107.179 9.38527 107.229 9.48923 107.355 9.48923C107.529 9.48923 107.531 9.56848 107.363 9.81044C107.187 10.0643 107.233 10.1612 107.582 10.2734C108.269 10.4936 108.352 10.4547 108.223 9.97081C108.122 9.58969 108.196 9.52303 108.697 9.54004C109.185 9.55659 109.29 9.65729 109.29 10.1074C109.29 10.9144 109.964 11.6274 110.558 11.4489C110.828 11.3678 111.375 11.4626 111.794 11.6638C112.354 11.9319 112.602 11.9566 112.766 11.7603C112.93 11.564 113.089 11.6277 113.385 12.009C113.689 12.3987 113.945 12.4976 114.456 12.4216C114.844 12.364 115.19 12.4372 115.275 12.5955C115.356 12.7461 115.729 13.0013 116.104 13.1631C116.678 13.4109 116.818 13.4029 116.996 13.1127C117.157 12.851 117.262 12.8337 117.434 13.0405C117.559 13.1899 117.661 13.4367 117.661 13.5894C117.661 13.9871 119.27 14.8367 120.346 15.0076C120.85 15.0875 121.436 15.2947 121.647 15.4679C121.858 15.6411 122.159 15.7828 122.315 15.7828C122.472 15.7828 123 16.0178 123.489 16.305C124.053 16.6367 124.74 16.8281 125.369 16.8295C126.128 16.8313 126.357 16.9138 126.343 17.1814C126.331 17.3968 126.53 17.5595 126.86 17.6047C127.154 17.6453 127.395 17.7651 127.395 17.8709C127.395 18.1341 128.854 18.8131 129.419 18.8131C129.672 18.8131 129.987 18.9704 130.121 19.1628C130.385 19.5441 131.094 19.6432 131.094 19.2986C131.094 19.1812 130.985 19.0322 130.851 18.9674C130.701 18.8952 130.734 18.8427 130.937 18.8315C131.118 18.8215 131.423 19.1299 131.614 19.5171C131.805 19.9042 132.073 20.1697 132.209 20.107C132.345 20.0446 132.457 20.0844 132.457 20.1958C132.457 20.3075 132.779 20.3877 133.174 20.3744C133.576 20.3606 133.925 20.4732 133.969 20.6306C134.011 20.7846 134.16 20.911 134.299 20.911C134.437 20.911 134.66 21.0683 134.793 21.2606C134.926 21.4529 135.2 21.6103 135.401 21.6103C135.602 21.6103 135.95 21.8303 136.175 22.0993C136.438 22.4145 136.747 22.5508 137.044 22.4827C137.297 22.4247 137.545 22.4932 137.594 22.6347C137.654 22.8072 137.745 22.7874 137.869 22.5746C138.026 22.3063 138.074 22.3063 138.176 22.5746C138.269 22.8186 138.323 22.8254 138.41 22.603C138.497 22.3807 138.588 22.3921 138.805 22.6513C138.96 22.8371 139.238 22.9312 139.422 22.8604C139.679 22.7618 139.695 22.7846 139.493 22.9578C139.271 23.148 139.271 23.2158 139.493 23.3876C139.638 23.4998 139.889 23.6023 140.049 23.6154C140.21 23.6284 140.495 23.6548 140.682 23.6736C140.869 23.6925 141.023 23.8655 141.023 24.0578C141.023 24.3011 141.227 24.4074 141.694 24.4074C142.101 24.4074 142.433 24.5513 142.536 24.7718C142.63 24.972 142.844 25.1603 143.013 25.1899C143.182 25.2195 143.456 25.379 143.622 25.544C143.788 25.7093 144.091 25.7811 144.295 25.7034C144.515 25.6202 144.767 25.7079 144.912 25.9172C145.048 26.1125 145.301 26.2729 145.475 26.2738C145.65 26.2745 146.055 26.4836 146.376 26.7384C146.697 26.9932 147.114 27.2023 147.301 27.203C147.488 27.2039 147.642 27.2871 147.642 27.3878C147.642 27.5706 148.097 27.6652 148.988 27.668C149.247 27.6689 149.614 27.8375 149.804 28.0426C149.993 28.2479 150.225 28.3587 150.32 28.289C150.414 28.219 150.614 28.3661 150.764 28.6158C150.914 28.8652 151.139 29.0694 151.262 29.0694C151.386 29.0694 151.597 29.2267 151.73 29.419C152.042 29.8698 152.509 29.8698 152.509 29.419C152.509 29.2267 152.421 29.0694 152.314 29.0694C152.207 29.0694 152.119 28.9743 152.119 28.8582C152.119 28.7421 152.332 28.767 152.591 28.9137C152.941 29.1113 153.011 29.2568 152.859 29.4745C152.747 29.6363 152.732 29.7794 152.826 29.7927C152.919 29.806 153.328 29.8502 153.736 29.891C154.539 29.9712 155.039 30.3383 155.039 30.846C155.039 31.0227 155.13 31.1672 155.241 31.1672C155.352 31.1672 155.672 31.347 155.952 31.5665C156.232 31.7863 156.592 31.9891 156.753 32.0173C156.913 32.0456 157.11 32.1959 157.191 32.3511C157.271 32.5066 157.477 32.5689 157.65 32.4898C157.845 32.4001 158.054 32.5192 158.203 32.8054C158.335 33.0584 158.587 33.2651 158.764 33.2651C158.945 33.2651 159.139 33.5206 159.208 33.8479C159.275 34.1684 159.466 34.4306 159.632 34.4306C159.901 34.4306 159.902 34.4695 159.642 34.7802C159.482 34.9725 159.256 35.1299 159.142 35.1299C159.027 35.1299 158.933 35.2376 158.933 35.369C158.933 35.5049 158.681 35.4516 158.347 35.2453C157.926 34.9847 157.66 34.9478 157.399 35.1145C157.2 35.2422 156.977 35.2746 156.904 35.1868C156.831 35.0989 156.692 35.1781 156.597 35.3632C156.446 35.6551 156.409 35.6541 156.314 35.3565C156.222 35.0688 155.756 35.0322 153.432 35.1299C151.907 35.194 150.54 35.3385 150.394 35.4511C150.224 35.5828 150.068 35.5413 149.959 35.3345C149.824 35.0786 149.789 35.0758 149.786 35.3213C149.785 35.4907 149.669 35.7658 149.53 35.9324C149.323 36.1809 149.202 36.1623 148.857 35.8285C148.52 35.5012 148.274 35.4595 147.602 35.6154C147.142 35.7217 146.7 35.8133 146.62 35.8189C146.539 35.8245 146.474 35.9865 146.474 36.1788C146.474 36.3711 146.383 36.5285 146.273 36.5285C146.162 36.5285 146.022 36.3711 145.96 36.1788C145.827 35.7637 145.47 35.7257 145.162 36.094C144.905 36.4024 145.323 37.0441 145.739 36.9786C146.316 36.8877 146.5 37.0243 146.466 37.5191C146.384 38.7368 146.465 39.0818 146.799 38.9282C147.046 38.8147 147.095 38.873 147 39.1685C146.926 39.4014 146.971 39.5601 147.112 39.562C147.243 39.5636 147.547 39.6284 147.788 39.7056C148.11 39.8091 148.226 39.7464 148.226 39.4695C148.226 39.0399 148.481 38.9904 148.996 39.32C149.277 39.5 149.372 39.4515 149.451 39.0869C149.507 38.8336 149.654 38.6263 149.778 38.6263C149.915 38.6263 149.956 38.8091 149.881 39.0911C149.784 39.4571 149.827 39.5242 150.082 39.4068C150.261 39.3247 150.474 39.3881 150.556 39.5473C150.638 39.7065 151.023 39.8548 151.412 39.8767C151.971 39.9081 152.119 39.8301 152.119 39.5044C152.119 38.9422 152.634 38.9816 152.759 39.5536C152.85 39.9711 152.992 40.0053 154.275 39.9182C155.237 39.8527 155.857 39.9247 156.21 40.1426C156.65 40.4154 156.806 40.4151 157.247 40.1415C157.532 39.9643 157.765 39.9 157.765 39.9984C157.765 40.0967 158.028 40.131 158.349 40.0746C158.67 40.0182 158.933 39.8377 158.933 39.6736C158.933 39.2275 159.468 39.0685 159.598 39.476C159.758 39.975 159.74 40.0736 159.519 39.91C159.407 39.8268 159.378 39.9261 159.449 40.1489C159.547 40.4545 159.605 40.4685 159.739 40.2193C159.876 39.9648 159.942 39.9718 160.101 40.258C160.263 40.548 160.325 40.5536 160.466 40.2914C160.581 40.0783 160.679 40.0569 160.766 40.2256C160.837 40.3634 161.176 40.4671 161.52 40.4557C161.864 40.4445 162.233 40.4603 162.34 40.4909C162.744 40.606 162.867 40.4802 162.652 40.1706C162.474 39.9135 162.524 39.8501 162.904 39.8501C163.204 39.8501 163.413 40.0107 163.473 40.2872C163.605 40.8885 163.95 40.8366 164.052 40.1997L164.136 39.6753L164.163 40.1997C164.199 40.9126 165.163 40.9687 165.163 40.258C165.163 40.0016 165.242 39.7918 165.339 39.7918C165.436 39.7918 165.474 39.9827 165.423 40.2161C165.311 40.73 165.792 41.2585 166.273 41.1501C166.465 41.1067 166.709 40.8368 166.814 40.5503C166.92 40.2638 167.095 40.0408 167.204 40.0548C167.704 40.1189 167.848 39.9755 167.96 39.3035C168.056 38.7315 167.99 38.4946 167.644 38.1585C167.252 37.7779 167.23 37.6597 167.438 37.0003C167.643 36.349 167.621 36.2087 167.246 35.7595C167.013 35.4809 166.848 35.0418 166.878 34.7835C166.918 34.4332 166.887 34.3945 166.753 34.6304C166.628 34.8511 166.534 34.8688 166.441 34.6886C166.368 34.5467 166.147 34.4306 165.951 34.4306C165.54 34.4306 165.357 33.9891 165.357 32.9991C165.357 32.6176 165.285 32.3584 165.197 32.4236C165.019 32.556 164.384 31.7558 164.384 31.3978C164.384 31.271 164.265 31.1672 164.119 31.1672C163.942 31.1672 163.885 30.9756 163.946 30.5913C164.017 30.15 163.887 29.8635 163.392 29.3675C162.177 28.1496 161.639 27.4307 161.763 27.1908C161.931 26.8664 161.33 25.806 160.979 25.806C160.809 25.806 160.742 25.6678 160.809 25.4564C160.884 25.224 160.8 25.1042 160.56 25.0993C159.987 25.0876 159.517 24.5268 159.517 23.8552C159.517 23.2949 159.481 23.265 159.125 23.5312C158.78 23.7888 158.673 23.7396 158.239 23.1252C157.967 22.7408 157.617 22.0851 157.461 21.6685C157.141 20.8187 156.901 20.7182 156.621 21.317C156.347 21.9042 156.114 21.4874 156.137 20.4487C156.152 19.7597 156.092 19.5802 155.879 19.6781C155.705 19.7578 155.559 19.6189 155.492 19.3096C155.432 19.0364 155.27 18.8131 155.132 18.8131C154.97 18.8131 154.919 18.9984 154.989 19.3376L155.096 19.862L154.684 19.3098C154.123 18.5572 153.965 17.8733 154.289 17.5982C154.482 17.4341 154.439 17.4036 154.129 17.4845C153.826 17.5637 153.735 17.5033 153.81 17.2716C153.867 17.0938 153.809 16.9483 153.682 16.9483C153.555 16.9483 153.111 16.5234 152.694 16.0041C152.277 15.4847 151.824 15.0777 151.687 15.0994C150.78 15.2428 150.562 15.0857 150.562 14.2896C150.562 13.622 150.503 13.5141 150.189 13.6122C149.935 13.6917 149.71 13.5339 149.481 13.1169C149.297 12.7803 149.195 12.447 149.254 12.3761C149.389 12.2139 148.788 11.4843 148.192 11.0885C147.742 10.7899 147.626 10.7398 147.252 10.6839C147.145 10.6678 147.058 10.4449 147.058 10.1885C147.058 9.92326 146.928 9.72233 146.756 9.72233C146.591 9.72233 146.306 9.40834 146.124 9.02443C145.719 8.17293 145.388 8.12958 145.226 8.90649C145.158 9.227 144.968 9.48923 144.802 9.48923C144.59 9.48923 144.537 9.35217 144.624 9.02443C144.716 8.67805 144.674 8.5932 144.461 8.69087C143.996 8.90486 143.928 9.70717 144.348 10.0216C144.553 10.175 144.721 10.4503 144.721 10.633C144.721 10.816 144.778 10.8976 144.847 10.8146C144.988 10.647 146.07 12.2603 146.079 12.6496C146.084 12.9004 147.392 13.685 147.804 13.685C147.929 13.685 148.031 13.5148 148.031 13.3069C148.031 12.9971 148.084 12.981 148.323 13.2188C148.484 13.3785 148.616 13.6796 148.618 13.8882C148.621 14.2127 148.647 14.2181 148.802 13.9248C148.902 13.7363 149.051 13.6633 149.134 13.7626C149.322 13.9871 148.797 14.4024 148.554 14.2225C148.39 14.1011 148.041 14.5435 148.034 14.8815C148.032 14.9628 148.206 15.0838 148.419 15.1507C148.633 15.2176 148.87 15.4658 148.945 15.7024C149.159 16.3709 149.838 16.9605 150.292 16.8721C150.61 16.8103 150.682 16.8894 150.61 17.2199C150.559 17.4551 150.437 17.6476 150.34 17.6476C150.243 17.6476 150.311 17.9161 150.49 18.2443C150.692 18.6136 150.867 18.7439 150.948 18.5861C151.189 18.1189 151.707 18.6061 151.768 19.3574C151.822 20.0266 151.895 20.1019 152.558 20.1676C153.233 20.2343 153.272 20.2772 153.071 20.7273C152.883 21.1473 152.9 21.1933 153.191 21.0595C153.449 20.9408 153.507 21.0028 153.438 21.3224C153.325 21.8378 153.789 22.3974 154.18 22.2177C154.367 22.1315 154.534 22.2939 154.658 22.6832C154.896 23.4336 154.719 23.8335 154.323 23.4398C154.162 23.2799 153.753 23.134 153.415 23.1156C152.418 23.0613 152.314 23.0235 152.314 22.7158C152.314 22.4347 151.069 21.8434 150.477 21.8434C150.32 21.8434 150.121 21.6912 150.034 21.5054C149.942 21.3093 149.486 21.1271 148.948 21.0718C148.438 21.0194 147.968 20.9128 147.903 20.8352C147.838 20.7578 147.634 20.7909 147.45 20.9091C147.167 21.0902 147.129 21.0345 147.206 20.5513C147.261 20.2059 147.207 19.9786 147.069 19.9786C146.943 19.9786 146.894 20.0835 146.96 20.2117C147.279 20.8287 146.514 20.3567 145.624 19.3875C145.363 19.1028 143.973 18.5938 143.553 18.629C142.593 18.7094 141.996 18.5537 141.996 18.2231C141.996 18.0266 141.843 17.801 141.655 17.7215C141.468 17.6418 141.183 17.4451 141.023 17.284C140.862 17.1232 140.468 16.9574 140.147 16.9159C139.825 16.8744 139.269 16.6511 138.911 16.4197C138.553 16.1882 138.093 16.0621 137.889 16.1395C137.683 16.218 137.518 16.1703 137.518 16.0316C137.518 15.8947 137.299 15.7828 137.032 15.7828C136.764 15.7828 136.545 15.6717 136.545 15.536C136.545 15.4003 136.457 15.3544 136.349 15.4341C136.241 15.5139 135.899 15.3628 135.589 15.0982C135.279 14.8337 134.929 14.6174 134.812 14.6174C134.694 14.6174 134.598 14.5125 134.598 14.3843C134.598 14.2561 134.397 14.1512 134.15 14.1512C133.904 14.1512 133.619 14.0577 133.518 13.9432C133.416 13.829 132.592 13.4673 131.686 13.1393C130.38 12.6666 129.979 12.6011 129.75 12.8227C129.52 13.0456 129.493 13.0395 129.617 12.7929C129.801 12.4267 129.163 11.6197 128.803 11.7636C128.671 11.8158 128.269 11.6402 127.908 11.3734C127.547 11.1062 127.009 10.8878 126.712 10.8878C126.415 10.8878 126.075 10.7323 125.956 10.5426C125.838 10.3526 125.565 10.1587 125.351 10.1114C125.137 10.064 124.83 9.96638 124.67 9.89435C123.684 9.4524 123.089 9.30695 122.727 9.42023C122.468 9.50158 122.227 9.40368 122.075 9.15543C121.942 8.93772 121.554 8.75218 121.208 8.74029C120.863 8.72863 120.581 8.61885 120.581 8.49647C120.581 8.37409 120.459 8.32981 120.311 8.39834C120.162 8.46663 119.849 8.30906 119.615 8.04799C119.31 7.70814 119.032 7.6107 118.637 7.70534C118.269 7.79345 118.052 7.73191 117.984 7.52026C117.928 7.34567 117.241 7.02913 116.458 6.81677C115.674 6.60466 114.833 6.27552 114.589 6.08555C114.346 5.89558 114.071 5.79534 113.98 5.86271C113.889 5.93007 113.545 5.82401 113.215 5.62681C112.627 5.27577 111.515 5.2816 110.799 5.6394C110.525 5.776 110.458 5.68998 110.458 5.20188C110.458 4.81704 110.351 4.5942 110.166 4.5942C110.005 4.5942 109.874 4.50632 109.874 4.39886C109.874 4.2914 109.557 4.18931 109.17 4.17182C108.783 4.15434 108.351 4.0259 108.21 3.88605C107.917 3.59514 106.926 3.37417 106.093 3.41473C105.78 3.42988 105.461 3.32125 105.385 3.17347C105.309 3.02545 104.776 2.85809 104.202 2.80145C102.68 2.65133 102.427 2.65669 101.929 2.84993C101.576 2.98699 101.458 2.92615 101.379 2.56462C101.277 2.09376 101.262 2.09027 98.7772 1.91591C97.7717 1.84552 97.2885 1.72407 97.0956 1.49307C97.0212 1.4038 96.5544 1.33084 96.0582 1.33084C95.5621 1.33084 95.0731 1.23201 94.9713 1.11103C94.8194 0.930611 93.5846 0.83411 91.9635 0.8763C91.8029 0.880496 91.2772 0.770939 90.7954 0.632946C89.4942 0.259991 88.3931 0.184469 88.1211 0.449267C87.986 0.580733 87.7294 0.601711 87.5371 0.496817C87.0778 0.246937 83.3976 0.166986 83.3976 0.406843C83.3976 0.510804 83.1537 0.450198 82.8556 0.272112C82.5204 0.0718822 81.8332 -0.0290491 81.0544 0.00731397C79.7522 0.0683854 79.2223 0.27421 79.4137 0.645067C79.4744 0.762781 79.3884 0.796814 79.2221 0.720592C79.0559 0.644136 78.92 0.475141 78.92 0.345073C78.92 0.208478 78.7964 0.231087 78.628 0.398451C78.3906 0.634112 78.3359 0.623856 78.3359 0.342741C78.3359 0.058596 78.0527 0.0115097 76.7481 0.0786416C75.8748 0.123629 75.1187 0.210342 75.0677 0.271181C75.0169 0.332252 74.8335 0.298919 74.6602 0.197521C74.4868 0.0961243 74.0355 0.079575 73.657 0.160926ZM142.823 5.92751C142.69 5.98485 142.59 6.36387 142.603 6.76969C142.618 7.26595 142.657 7.35499 142.721 7.04171C142.774 6.78531 142.907 6.44195 143.018 6.27855C143.253 5.9317 143.169 5.77973 142.823 5.92751ZM89.0433 6.45897C89.0433 6.58717 88.9504 6.69207 88.8371 6.69207C88.7238 6.69207 88.6851 6.58717 88.7513 6.45897C88.8175 6.33077 88.9101 6.22587 88.9574 6.22587C89.0048 6.22587 89.0433 6.33077 89.0433 6.45897ZM143.748 7.0923C143.748 7.5487 144.092 8.09065 144.383 8.09065C144.474 8.09065 144.481 7.95965 144.397 7.79928C144.314 7.63914 144.243 7.35966 144.24 7.17831C144.232 6.67272 143.748 6.58811 143.748 7.0923ZM54.727 7.53215C54.6624 7.60954 54.4944 7.61793 54.354 7.55056C54.1987 7.4762 54.2448 7.42096 54.4716 7.40977C54.6768 7.39975 54.7917 7.45476 54.727 7.53215ZM143.261 7.85755C143.195 7.98575 143.278 8.09065 143.445 8.09065C143.611 8.09065 143.748 7.98575 143.748 7.85755C143.748 7.72935 143.666 7.62445 143.565 7.62445C143.464 7.62445 143.328 7.72935 143.261 7.85755ZM51.4702 8.57059C51.4702 8.69134 51.3826 8.78994 51.2756 8.78994C51.1685 8.78994 51.0809 8.62631 51.0809 8.42654C51.0809 8.22678 51.1685 8.12794 51.2756 8.2072C51.3826 8.28645 51.4702 8.44985 51.4702 8.57059ZM41.5416 8.65964C41.5416 8.71628 41.454 8.82723 41.3469 8.90649C41.2398 8.98574 41.1522 8.93935 41.1522 8.80369C41.1522 8.66803 41.2398 8.55684 41.3469 8.55684C41.454 8.55684 41.5416 8.603 41.5416 8.65964ZM41.0864 10.9461C41.0325 11.1065 40.9883 10.9752 40.9883 10.6547C40.9883 10.3342 41.0325 10.2032 41.0864 10.3633C41.1406 10.5237 41.1406 10.7859 41.0864 10.9461ZM38.8161 12.7526C38.8161 12.8808 38.6627 12.9841 38.4754 12.9822C38.1842 12.9792 38.1772 12.9456 38.4267 12.7526C38.7941 12.4682 38.8161 12.4682 38.8161 12.7526ZM127.226 14.4474C126.909 14.8264 126.728 14.4717 127.035 14.0728C127.18 13.8845 127.329 13.8344 127.368 13.9614C127.407 14.0882 127.343 14.3069 127.226 14.4474ZM35.2145 14.1512C35.2807 14.2794 35.242 14.3843 35.1287 14.3843C35.0154 14.3843 34.9225 14.2794 34.9225 14.1512C34.9225 14.023 34.9611 13.9181 35.0084 13.9181C35.0557 13.9181 35.1483 14.023 35.2145 14.1512ZM149.783 15.8994C149.783 16.0917 149.696 16.249 149.588 16.249C149.481 16.249 149.394 16.0917 149.394 15.8994C149.394 15.7071 149.481 15.5497 149.588 15.5497C149.696 15.5497 149.783 15.7071 149.783 15.8994ZM156.402 24.4074C156.402 24.5356 156.364 24.6405 156.316 24.6405C156.269 24.6405 156.176 24.5356 156.11 24.4074C156.044 24.2792 156.083 24.1743 156.196 24.1743C156.309 24.1743 156.402 24.2792 156.402 24.4074ZM155.429 36.1788C155.429 36.3711 155.341 36.5285 155.234 36.5285C155.127 36.5285 155.039 36.3711 155.039 36.1788C155.039 35.9865 155.127 35.8292 155.234 35.8292C155.341 35.8292 155.429 35.9865 155.429 36.1788ZM7.0834 36.6313C7.0834 36.6879 6.9958 36.7989 6.88872 36.8781C6.78165 36.9574 6.69405 36.911 6.69405 36.7753C6.69405 36.6397 6.78165 36.5285 6.88872 36.5285C6.9958 36.5285 7.0834 36.5746 7.0834 36.6313ZM156.597 36.8781C156.597 37.0704 156.509 37.2278 156.402 37.2278C156.295 37.2278 156.208 37.4026 156.208 37.6163C156.208 37.8299 156.153 37.9396 156.087 37.8602C155.912 37.6504 156.181 36.5285 156.406 36.5285C156.511 36.5285 156.597 36.6858 156.597 36.8781ZM149.596 37.9215C149.205 38.211 148.957 37.9699 149.25 37.5846C149.405 37.3807 149.56 37.3469 149.684 37.49C149.811 37.6366 149.781 37.7849 149.596 37.9215ZM151.32 37.5478C151.554 37.8856 151.42 38.6263 151.125 38.6263C151.029 38.6263 150.951 38.469 150.951 38.2767C150.951 38.0844 150.809 37.9271 150.635 37.9271C150.377 37.9271 150.363 37.8639 150.562 37.5774C150.862 37.1441 151.036 37.1373 151.32 37.5478ZM164.019 37.7562C163.827 37.9846 163.804 37.9578 163.91 37.6257C163.983 37.3958 164.092 37.2665 164.152 37.3382C164.212 37.4098 164.152 37.5979 164.019 37.7562ZM147.636 38.1019C147.631 38.6518 147.602 38.6846 147.43 38.3331C147.321 38.1077 147.285 37.8194 147.351 37.6921C147.552 37.3021 147.642 37.4315 147.636 38.1019ZM153.871 38.6401C153.871 38.904 153.784 39.0552 153.677 38.976C153.57 38.8967 153.482 38.6809 153.482 38.496C153.482 38.3112 153.57 38.1601 153.677 38.1601C153.784 38.1601 153.871 38.3762 153.871 38.6401ZM158.349 38.976C158.349 39.1683 158.22 39.3256 158.063 39.3256C157.889 39.3256 157.821 39.189 157.889 38.976C157.951 38.7837 158.08 38.6263 158.175 38.6263C158.271 38.6263 158.349 38.7837 158.349 38.976ZM3.57529 40.1471C3.43979 40.3424 3.28891 40.4543 3.23986 40.3958C3.10494 40.234 3.37924 39.7918 3.61442 39.7918C3.74368 39.7918 3.72889 39.9256 3.57529 40.1471ZM5.33129 41.9925C5.33129 42.0491 5.24369 42.1601 5.13661 42.2393C5.02954 42.3186 4.94193 42.2722 4.94193 42.1366C4.94193 42.0009 5.02954 41.8897 5.13661 41.8897C5.24369 41.8897 5.33129 41.9359 5.33129 41.9925Z" fill="#A6E2B1"/>
</svg>
