<svg width="138" height="35" viewBox="0 0 138 35" fill="none" xmlns="http://www.w3.org/2000/svg">
<path fill-rule="evenodd" clip-rule="evenodd" d="M60.504 0.464557C60.1931 0.517728 59.8563 0.609748 59.7554 0.669166C59.6545 0.728584 59.5269 0.707407 59.4716 0.622242C59.343 0.424183 58.7504 0.419459 58.7504 0.616604C58.7504 0.707102 58.5928 0.6972 58.3491 0.591467C58.0352 0.455111 57.8558 0.464099 57.5235 0.632906C57.2043 0.794857 57.0829 0.802933 57.0345 0.665815C56.9854 0.526564 56.8749 0.524431 56.5694 0.657131C56.2958 0.775814 56.1345 0.780993 56.0603 0.673127C56.0006 0.586286 55.6496 0.505082 55.2802 0.492742C54.7522 0.475069 54.5556 0.542257 54.3607 0.807503C54.2244 0.992917 54.1128 1.07305 54.1128 0.985756C54.1128 0.81055 52.2626 0.713653 51.9896 0.874386C51.897 0.928928 51.3576 0.957418 50.7909 0.937917C49.9162 0.907751 49.7035 0.953457 49.3827 1.24049C49.0893 1.50315 48.9556 1.53971 48.7841 1.40412C48.4664 1.15274 47.1947 1.23104 46.9739 1.51564C46.8257 1.70684 46.746 1.71507 46.5496 1.55997C46.3773 1.42347 46.2909 1.41783 46.2482 1.54017C46.2101 1.64864 45.6917 1.71248 44.8333 1.71446C44.0882 1.71614 43.0827 1.82522 42.5989 1.95701C42.1152 2.08879 41.4819 2.17899 41.1917 2.15766C40.9015 2.13617 40.5743 2.18965 40.4647 2.27619C40.3552 2.36288 40.1249 2.43616 39.953 2.43905C39.2996 2.45017 38.35 2.65021 38.042 2.84157C37.8658 2.95111 37.4265 3.03658 37.066 3.0314C36.7054 3.02637 36.2737 3.09189 36.1066 3.17705C35.9393 3.26237 35.4608 3.3809 35.043 3.44062C34.6251 3.50034 34.2834 3.60988 34.2834 3.68423C34.2834 3.75843 34.1554 3.81922 33.9992 3.81922C33.8428 3.81922 33.5607 3.92206 33.3725 4.04775C33.1841 4.17344 32.9167 4.23484 32.7783 4.1841C32.6398 4.13352 32.2408 4.23392 31.8917 4.4073C31.4951 4.60429 31.2192 4.66462 31.1567 4.56819C31.0958 4.47434 30.9838 4.46778 30.8709 4.55173C30.7688 4.6276 30.0845 4.90549 29.3502 5.16937C28.6158 5.43309 27.8377 5.78198 27.6208 5.94439C27.4041 6.10695 27.1233 6.20202 26.997 6.15586C26.8398 6.09842 26.7674 6.17901 26.7674 6.4115C26.7674 6.66563 26.717 6.71164 26.5675 6.59387C26.4283 6.48433 26.1734 6.50109 25.7279 6.64917C25.3761 6.76603 25.0702 6.86277 25.0483 6.86399C25.0264 6.86521 25.0072 7.02061 25.0059 7.20907C25.0041 7.45665 24.9656 7.49504 24.8674 7.34741C24.7539 7.17677 24.6747 7.17662 24.3901 7.34589C24.2023 7.45756 24.0488 7.59224 24.0488 7.64526C24.0488 7.69813 23.7431 7.7868 23.3692 7.84225C22.3803 7.98881 21.3303 8.3991 21.3303 8.63906C21.3303 8.75332 21.226 8.84687 21.0987 8.84687C20.9713 8.84687 20.6743 9.01705 20.4389 9.22486C20.2033 9.43282 19.9497 9.56704 19.8752 9.52316C19.8007 9.47929 19.6137 9.58334 19.4599 9.75443C19.3062 9.92568 19.0164 10.0657 18.8161 10.0657C18.5962 10.0657 18.4518 10.1579 18.4518 10.298C18.4518 10.4257 18.2719 10.5954 18.052 10.6751C17.8321 10.7548 17.6511 10.9416 17.6498 11.0903C17.6479 11.2905 17.6132 11.3094 17.5158 11.1631C17.4109 11.0057 17.282 11.0211 16.8797 11.2393C16.6021 11.3899 16.3745 11.5988 16.3739 11.7035C16.3734 11.8083 16.229 11.8939 16.0531 11.8939C15.8772 11.8939 15.7332 11.9488 15.7332 12.016C15.7332 12.083 15.4094 12.2878 15.0136 12.471C14.6178 12.6542 14.294 12.8736 14.294 12.9584C14.294 13.0433 14.1861 13.1128 14.0541 13.1128C13.9209 13.1128 13.8143 13.2482 13.8143 13.4175C13.8143 13.5867 13.7076 13.7222 13.5744 13.7222C13.4425 13.7222 13.3345 13.7907 13.3345 13.8745C13.3345 13.9583 13.2446 14.027 13.1346 14.0272C12.8361 14.0278 11.7672 14.9389 12.0552 14.9474C12.1871 14.9512 12.0432 15.0408 11.7354 15.1464C11.4275 15.2518 10.9673 15.5231 10.7125 15.7491C10.4578 15.975 10.188 16.1598 10.1129 16.1598C10.0377 16.1598 9.9763 16.2608 9.9763 16.3844C9.9763 16.5079 9.77577 16.7078 9.53046 16.8286C9.28531 16.9495 8.80348 17.3626 8.45982 17.7467C8.11617 18.1308 7.75716 18.4451 7.66201 18.4451C7.4442 18.4451 6.6184 19.3304 6.61713 19.5654C6.61649 19.6615 6.40316 19.8554 6.14314 19.9965C5.88296 20.1374 5.62373 20.4289 5.56696 20.644C5.51035 20.8591 5.38578 21.0351 5.29015 21.0351C5.00934 21.0351 4.21936 21.8309 4.21936 22.1138C4.21936 22.2567 4.11142 22.4131 3.97949 22.4614C3.84756 22.5096 3.73962 22.6632 3.73962 22.8026C3.73962 22.9421 3.61376 23.1677 3.45976 23.3041C3.07757 23.6428 2.78013 24.1724 2.78013 24.5138C2.78013 24.6698 2.64068 24.9504 2.47021 25.1377C2.2999 25.3249 2.19692 25.5685 2.24137 25.679C2.29063 25.8012 2.21515 25.8711 2.04868 25.8571C1.62874 25.822 1.60731 26.1424 2.01605 26.3471C2.21643 26.4473 2.26504 26.4988 2.124 26.4618C1.90315 26.4036 1.34089 26.8315 1.34089 27.0578C1.34089 27.1004 1.15187 27.4207 0.920795 27.7693C0.5725 28.2949 0.533001 28.4529 0.690037 28.6924C0.825965 28.8996 0.830923 29.0371 0.707628 29.1787C0.523406 29.39 0.642063 29.8716 0.878258 29.8716C0.956776 29.8716 1.02106 29.9337 1.02106 30.0096C1.02106 30.0856 0.877138 30.1118 0.701231 30.0681C0.486786 30.0146 0.381402 30.0634 0.381402 30.2161C0.381402 30.3413 0.274419 30.5282 0.143768 30.6315C-0.0641214 30.7959 -0.0542067 30.8672 0.223725 31.2039C0.570261 31.6235 0.6475 32.1569 0.361892 32.1569C0.232521 32.1569 0.230602 32.2123 0.355175 32.3552C0.450165 32.4643 0.487265 32.7018 0.437531 32.883C0.317275 33.3212 0.751445 33.7342 1.19201 33.6009C1.39174 33.5406 1.48945 33.415 1.43748 33.2858C1.38934 33.1662 1.44676 33.071 1.56717 33.071C1.80097 33.071 1.97 33.4868 1.86125 33.7947C1.82431 33.8995 1.69206 33.9851 1.56749 33.9851C1.27916 33.9851 1.27197 34.2321 1.55726 34.3363C1.67623 34.3799 1.89212 34.2836 2.037 34.1224C2.32437 33.8026 2.38929 33.3757 2.15038 33.3757C1.9692 33.3757 1.99111 32.7261 2.17645 32.6028C2.24873 32.5547 2.34084 32.3525 2.38098 32.1534C2.42128 31.9543 2.5636 31.733 2.69713 31.6619C2.83066 31.5906 2.94004 31.343 2.94004 31.1117C2.94004 30.8447 3.12554 30.5104 3.44809 30.1961C3.81062 29.8428 3.95966 29.5507 3.96781 29.1773C3.97661 28.7845 4.04937 28.6535 4.25934 28.6532C4.5144 28.6528 4.60348 28.5036 4.49921 28.2513C4.47714 28.198 4.61227 28.1005 4.79921 28.0347C5.05955 27.9428 5.1208 27.8227 5.06051 27.522C5.00198 27.2309 5.04852 27.1292 5.2401 27.1292C5.38242 27.1292 5.49868 27.0607 5.49868 26.9769C5.49868 26.8931 5.60662 26.8245 5.73855 26.8245C5.87048 26.8245 5.97842 26.7511 5.97842 26.6614C5.97842 26.5715 6.091 26.3908 6.22853 26.2598C6.4054 26.0913 6.4289 25.9739 6.30849 25.8592C6.05151 25.6144 6.10412 25.4345 6.41819 25.4847C6.58114 25.5108 6.69804 25.4342 6.69804 25.301C6.69804 25.1753 6.84197 25.0321 7.01787 24.9827C7.19378 24.9335 7.31979 24.8135 7.29772 24.7161C7.27581 24.6189 7.35321 24.5392 7.46979 24.5392C7.58637 24.5392 7.84463 24.3741 8.04373 24.1722C8.38131 23.8297 8.38594 23.8002 8.11153 23.7328C7.90732 23.6826 7.94778 23.6551 8.24378 23.6428C8.54234 23.6304 8.82987 23.4318 9.20327 22.9804C10.0036 22.0123 10.28 21.7816 10.5817 21.8295C10.7621 21.8581 10.8733 21.7559 10.907 21.5303C10.9377 21.3235 11.0693 21.1875 11.2387 21.1875C11.4 21.1875 11.6532 20.9449 11.835 20.6161C12.0087 20.302 12.2193 20.0355 12.3029 20.0243C12.8428 19.9516 13.2221 19.7218 13.3726 19.3764C13.468 19.1575 13.5344 18.9268 13.5202 18.8641C13.5061 18.8013 13.5843 18.7393 13.6943 18.7267C13.8042 18.7139 13.9662 18.6875 14.0541 18.668C14.1421 18.6485 14.3484 18.6247 14.5126 18.615C14.7291 18.6023 14.7881 18.5138 14.7274 18.2928C14.6608 18.0504 14.7226 17.9881 15.0286 17.9881C15.2402 17.9881 15.4134 17.9102 15.4134 17.8151C15.4134 17.5912 16.1046 16.9828 16.682 16.6984C16.9304 16.5759 17.1761 16.3704 17.228 16.2416C17.2799 16.1129 17.4643 16.0075 17.6378 16.0075C17.8112 16.0075 17.9874 15.9547 18.0291 15.8905C18.0709 15.826 17.8053 15.7919 17.4389 15.8146C16.8438 15.8513 16.8114 15.8368 17.1352 15.6787C17.385 15.5566 17.4686 15.4145 17.4042 15.2213C17.29 14.8784 17.455 14.8616 17.8227 15.1787C18.0747 15.3959 18.1339 15.3824 18.515 15.0193C18.7441 14.801 18.9315 14.6942 18.9315 14.7818C18.9315 14.9899 19.3679 14.9887 19.4409 14.7804C19.4717 14.692 19.6396 14.5994 19.8139 14.5747C20.0121 14.5465 20.1309 14.412 20.1309 14.2158C20.1309 13.7796 20.3186 13.6437 20.6068 13.8715C20.769 13.9996 20.8505 14.0078 20.8505 13.896C20.8505 13.8037 21.0304 13.685 21.2503 13.6324C21.4702 13.5799 21.6501 13.4414 21.6501 13.3248C21.6501 13.1897 21.8282 13.1128 22.141 13.1128C22.6174 13.1128 23.7594 12.4858 24.1961 11.9846C24.3109 11.8528 24.4641 11.7798 24.5364 11.8223C24.6087 11.865 24.9243 11.7624 25.2378 11.5947C25.5514 11.427 25.8079 11.3246 25.8079 11.3672C25.8079 11.5251 26.8547 10.9245 27.0581 10.6498C27.1742 10.4933 27.3392 10.4067 27.4249 10.4571C27.5108 10.5077 27.6677 10.4822 27.7739 10.4007C27.8799 10.3192 28.2906 10.2043 28.6863 10.1455C29.0821 10.0866 29.6743 9.87312 30.0023 9.67125C30.3301 9.46923 30.7462 9.30393 30.9269 9.30393C31.1075 9.30393 31.5228 9.19058 31.8498 9.05194C32.1768 8.91329 32.5082 8.8135 32.5862 8.83026C32.6642 8.84702 32.8887 8.71691 33.0851 8.54125C33.3435 8.30998 33.5559 8.24888 33.854 8.32018C34.1179 8.38326 34.3969 8.33131 34.6301 8.17575C34.8303 8.04214 35.3043 7.93275 35.6833 7.93275C36.1315 7.93275 36.4027 7.85703 36.4597 7.71595C36.5076 7.59681 36.653 7.46045 36.7827 7.41307C36.9138 7.36508 36.9757 7.39296 36.922 7.47569C36.8673 7.56009 36.9328 7.58523 37.0736 7.53389C37.2101 7.48392 37.3275 7.3305 37.3344 7.19277C37.3413 7.05504 37.3779 7.01284 37.4156 7.09877C37.4972 7.28418 38.761 7.19841 38.761 7.00736C38.761 6.93499 38.8744 6.91732 39.0132 6.96805C39.2254 7.0456 39.8131 6.91198 41.3196 6.4435C41.6494 6.34096 42.1816 6.27789 43.38 6.19928C43.9416 6.16256 44.4453 6.06612 44.4994 5.98507C44.5929 5.84506 44.9954 5.80423 46.8367 5.74801C47.2765 5.7346 47.6846 5.65979 47.7436 5.58179C47.8026 5.50379 48.1624 5.42182 48.5431 5.39973C48.9239 5.37748 49.2783 5.3557 49.3304 5.35113C49.3827 5.34656 49.6278 5.17714 49.8751 4.97466C50.2515 4.66645 50.3596 4.63994 50.5397 4.81149C50.6579 4.92408 50.7546 5.08573 50.7546 5.17059C50.7546 5.3883 52.9947 5.1971 53.378 4.94678C53.5997 4.8019 53.7673 4.79108 53.9945 4.90687C54.1736 4.99828 54.5545 5.01946 54.8892 4.95669C55.2098 4.89666 57.2352 4.82597 59.39 4.79976C61.5449 4.7734 63.4706 4.74705 63.6693 4.74111C63.8683 4.73501 64.1921 4.57656 64.389 4.38902L64.7472 4.04775L64.8007 4.40837C64.8485 4.73029 64.9151 4.75954 65.4202 4.68154C65.7314 4.63339 66.1212 4.47769 66.2862 4.33539C66.5702 4.09056 66.5862 4.09315 66.5862 4.38506C66.5862 4.63583 66.6984 4.69784 67.1859 4.71673C68.5939 4.77127 69.3661 4.72221 69.5641 4.5656C69.721 4.44143 69.839 4.4588 70.0218 4.63294C70.3272 4.92393 73.3085 4.96369 73.5001 4.67925C73.5753 4.56758 73.6184 4.60064 73.62 4.77142C73.6226 5.05724 74.0827 5.113 74.6617 4.89773C74.8688 4.82079 75.0379 4.85095 75.1415 4.98319C75.2296 5.09548 75.7333 5.22635 76.261 5.27404C76.7888 5.32172 77.4358 5.38525 77.699 5.41527C77.9622 5.44528 78.2216 5.40186 78.2755 5.31883C78.3364 5.22498 78.4578 5.24418 78.5966 5.36956C78.8577 5.60571 80.019 5.71449 80.019 5.50272C80.019 5.42334 80.2837 5.46372 80.6074 5.59245C80.9309 5.72119 81.4618 5.8024 81.7872 5.77284C82.215 5.73399 82.3573 5.77254 82.3012 5.91179C82.2323 6.08303 82.5556 6.18511 82.9532 6.11762C83.0278 6.10497 83.5316 6.20842 84.0726 6.34752C84.6137 6.48661 85.4162 6.6184 85.8559 6.64034C86.2957 6.66228 86.7994 6.72535 86.9753 6.78081C87.2288 6.86049 87.3593 6.76771 87.6043 6.33319C87.8539 5.89076 87.9404 5.83089 88.0527 6.02224C88.1293 6.15266 88.1478 6.32725 88.0939 6.41044C88.0401 6.49362 88.081 6.56157 88.1848 6.56157C88.3273 6.56157 88.3287 6.61337 88.1909 6.77151C88.0463 6.93743 88.084 7.00081 88.3712 7.07409C88.9353 7.21806 89.0031 7.19262 88.8977 6.87633C88.8147 6.62724 88.8751 6.58366 89.2866 6.59479C89.6873 6.6056 89.7738 6.67142 89.7738 6.96561C89.7738 7.49306 90.3276 7.95911 90.8157 7.8424C91.0375 7.78938 91.4862 7.85139 91.8308 7.98287C92.2906 8.15808 92.4948 8.17423 92.6294 8.04595C92.7641 7.91767 92.8943 7.95926 93.138 8.20851C93.3871 8.46324 93.5977 8.52784 94.0174 8.47817C94.3364 8.44054 94.6201 8.48838 94.6901 8.59183C94.7566 8.69025 95.063 8.85708 95.3709 8.96281C95.8429 9.12476 95.9578 9.11958 96.1041 8.9299C96.2362 8.75881 96.3221 8.74753 96.4639 8.88267C96.5664 8.98033 96.6502 9.14167 96.6502 9.24146C96.6502 9.50138 97.9714 10.0567 98.8557 10.1684C99.2698 10.2206 99.7506 10.3561 99.9241 10.4693C100.097 10.5825 100.345 10.6751 100.473 10.6751C100.602 10.6751 101.036 10.8287 101.437 11.0164C101.901 11.2332 102.465 11.3583 102.982 11.3592C103.606 11.3604 103.793 11.4143 103.781 11.5892C103.772 11.73 103.935 11.8363 104.206 11.8659C104.448 11.8924 104.646 11.9707 104.646 12.0399C104.646 12.2119 105.844 12.6557 106.309 12.6557C106.516 12.6557 106.775 12.7585 106.885 12.8842C107.102 13.1335 107.684 13.1982 107.684 12.973C107.684 12.8963 107.594 12.7989 107.484 12.7566C107.361 12.7093 107.389 12.675 107.555 12.6677C107.704 12.6612 107.955 12.8627 108.111 13.1158C108.268 13.3689 108.488 13.5424 108.6 13.5014C108.712 13.4606 108.804 13.4866 108.804 13.5595C108.804 13.6324 109.069 13.6848 109.393 13.6762C109.723 13.6672 110.01 13.7408 110.046 13.8436C110.081 13.9443 110.203 14.0269 110.317 14.0269C110.431 14.0269 110.613 14.1297 110.723 14.2554C110.832 14.3811 111.057 14.4839 111.222 14.4839C111.387 14.4839 111.673 14.6278 111.858 14.8036C112.074 15.0095 112.328 15.0987 112.572 15.0542C112.78 15.0163 112.983 15.061 113.024 15.1535C113.073 15.2663 113.147 15.2533 113.25 15.1142C113.379 14.9389 113.418 14.9389 113.502 15.1142C113.578 15.2737 113.623 15.2781 113.694 15.1328C113.765 14.9875 113.84 14.9949 114.018 15.1643C114.146 15.2858 114.374 15.3473 114.525 15.301C114.736 15.2366 114.75 15.2515 114.584 15.3647C114.401 15.489 114.401 15.5333 114.584 15.6456C114.703 15.7189 114.908 15.7859 115.04 15.7945C115.172 15.803 115.406 15.8202 115.56 15.8326C115.714 15.8449 115.84 15.9579 115.84 16.0836C115.84 16.2427 116.008 16.3122 116.392 16.3122C116.726 16.3122 116.999 16.4062 117.083 16.5503C117.16 16.6812 117.336 16.8043 117.475 16.8236C117.613 16.843 117.838 16.9472 117.975 17.055C118.112 17.1631 118.361 17.21 118.528 17.1593C118.708 17.1049 118.916 17.1621 119.035 17.299C119.146 17.4266 119.354 17.5314 119.498 17.5321C119.641 17.5325 119.974 17.6692 120.238 17.8357C120.502 18.0022 120.843 18.1389 120.997 18.1393C121.151 18.1399 121.277 18.1943 121.277 18.2602C121.277 18.3796 121.651 18.4415 122.383 18.4433C122.596 18.4439 122.897 18.554 123.053 18.6881C123.209 18.8223 123.399 18.8947 123.477 18.8491C123.554 18.8034 123.719 18.8996 123.842 19.0627C123.965 19.2258 124.149 19.3592 124.251 19.3592C124.353 19.3592 124.526 19.4621 124.635 19.5878C124.892 19.8824 125.275 19.8824 125.275 19.5878C125.275 19.4621 125.203 19.3592 125.115 19.3592C125.027 19.3592 124.955 19.2971 124.955 19.2212C124.955 19.1453 125.13 19.1616 125.343 19.2575C125.63 19.3867 125.687 19.4817 125.563 19.624C125.471 19.7298 125.459 19.8233 125.535 19.832C125.612 19.8407 125.948 19.8696 126.283 19.8963C126.942 19.9487 127.354 20.1886 127.354 20.5205C127.354 20.6359 127.428 20.7304 127.519 20.7304C127.611 20.7304 127.873 20.8479 128.103 20.9914C128.333 21.1351 128.629 21.2676 128.761 21.286C128.893 21.3045 129.055 21.4027 129.121 21.5042C129.187 21.6058 129.356 21.6465 129.498 21.5949C129.658 21.5362 129.83 21.6141 129.952 21.8011C130.061 21.9664 130.268 22.1016 130.413 22.1016C130.562 22.1016 130.721 22.2686 130.778 22.4825C130.833 22.6919 130.99 22.8633 131.126 22.8633C131.347 22.8633 131.348 22.8888 131.135 23.0919C131.003 23.2176 130.818 23.3204 130.723 23.3204C130.629 23.3204 130.552 23.3908 130.552 23.4767C130.552 23.5655 130.345 23.5307 130.071 23.3958C129.725 23.2255 129.506 23.2014 129.292 23.3104C129.129 23.3938 128.946 23.415 128.885 23.3576C128.825 23.3001 128.712 23.3519 128.633 23.4729C128.509 23.6637 128.479 23.663 128.4 23.4685C128.325 23.2805 127.942 23.2566 126.033 23.3204C124.781 23.3623 123.658 23.4568 123.538 23.5303C123.398 23.6164 123.27 23.5893 123.181 23.4542C123.069 23.2869 123.041 23.2851 123.039 23.4455C123.037 23.5562 122.943 23.736 122.828 23.845C122.658 24.0074 122.558 23.9952 122.276 23.777C121.998 23.5631 121.797 23.5358 121.244 23.6378C120.867 23.7072 120.504 23.7671 120.438 23.7708C120.371 23.7744 120.318 23.8803 120.318 24.006C120.318 24.1317 120.243 24.2345 120.153 24.2345C120.062 24.2345 119.946 24.1317 119.896 24.006C119.786 23.7347 119.493 23.7098 119.24 23.9505C119.029 24.1521 119.373 24.5715 119.714 24.5287C120.188 24.4693 120.339 24.5586 120.311 24.882C120.244 25.6779 120.311 25.9034 120.585 25.803C120.788 25.7288 120.828 25.7669 120.75 25.9601C120.689 26.1123 120.726 26.216 120.842 26.2172C120.95 26.2183 121.199 26.2607 121.397 26.3111C121.662 26.3787 121.757 26.3378 121.757 26.1568C121.757 25.876 121.967 25.8437 122.389 26.0591C122.62 26.1767 122.698 26.145 122.764 25.9068C122.809 25.7411 122.93 25.6057 123.032 25.6057C123.145 25.6057 123.178 25.7251 123.116 25.9095C123.037 26.1487 123.072 26.1926 123.282 26.1158C123.428 26.0622 123.603 26.1036 123.671 26.2076C123.739 26.3117 124.055 26.4086 124.374 26.4229C124.833 26.4435 124.955 26.3925 124.955 26.1796C124.955 25.8121 125.378 25.8379 125.48 26.2118C125.555 26.4846 125.672 26.507 126.726 26.45C127.516 26.4072 128.026 26.4543 128.315 26.5968C128.677 26.775 128.805 26.7749 129.167 26.596C129.401 26.4802 129.593 26.4382 129.593 26.5025C129.593 26.5667 129.809 26.5891 130.072 26.5523C130.336 26.5154 130.552 26.3975 130.552 26.2902C130.552 25.9986 130.991 25.8947 131.099 26.161C131.23 26.4872 131.215 26.5517 131.034 26.4447C130.941 26.3903 130.917 26.4552 130.976 26.6009C131.057 26.8006 131.104 26.8097 131.214 26.6469C131.327 26.4805 131.381 26.4851 131.512 26.6722C131.644 26.8617 131.695 26.8654 131.811 26.694C131.906 26.5547 131.986 26.5407 132.058 26.651C132.116 26.741 132.395 26.8088 132.677 26.8014C132.96 26.7941 133.263 26.8044 133.351 26.8244C133.683 26.8996 133.783 26.8174 133.607 26.615C133.461 26.447 133.502 26.4056 133.814 26.4056C134.06 26.4056 134.232 26.5105 134.282 26.6912C134.39 27.0843 134.673 27.0503 134.757 26.6341L134.826 26.2913L134.848 26.6341C134.878 27.1 135.669 27.1367 135.669 26.6722C135.669 26.5046 135.735 26.3675 135.814 26.3675C135.894 26.3675 135.925 26.4922 135.883 26.6448C135.791 26.9807 136.186 27.3261 136.581 27.2552C136.739 27.2269 136.939 27.0505 137.026 26.8632C137.113 26.676 137.256 26.5302 137.346 26.5393C137.756 26.5812 137.875 26.4875 137.967 26.0483C138.046 25.6744 137.992 25.5196 137.707 25.2999C137.385 25.0511 137.368 24.9739 137.538 24.5429C137.707 24.1172 137.689 24.0255 137.381 23.7319C137.19 23.5499 137.053 23.2628 137.078 23.094C137.112 22.865 137.086 22.8397 136.976 22.9939C136.873 23.1382 136.796 23.1498 136.719 23.032C136.659 22.9392 136.478 22.8633 136.317 22.8633C135.98 22.8633 135.829 22.5748 135.829 21.9277C135.829 21.6783 135.77 21.5089 135.698 21.5516C135.551 21.6381 135.03 21.1151 135.03 20.8811C135.03 20.7982 134.932 20.7304 134.812 20.7304C134.667 20.7304 134.619 20.6052 134.67 20.3539C134.728 20.0655 134.621 19.8783 134.215 19.5541C133.217 18.758 132.775 18.2882 132.877 18.1314C133.014 17.9193 132.521 17.2263 132.233 17.2263C132.093 17.2263 132.038 17.1359 132.093 16.9978C132.155 16.8459 132.086 16.7675 131.889 16.7644C131.418 16.7567 131.032 16.3902 131.032 15.9512C131.032 15.585 131.002 15.5655 130.71 15.7395C130.427 15.9078 130.339 15.8757 129.982 15.4741C129.759 15.2228 129.471 14.7943 129.343 14.522C129.08 13.9665 128.883 13.9009 128.653 14.2923C128.428 14.676 128.237 14.4036 128.255 13.7248C128.268 13.2744 128.218 13.1571 128.043 13.2211C127.901 13.2732 127.781 13.1824 127.726 12.9802C127.676 12.8016 127.544 12.6557 127.43 12.6557C127.297 12.6557 127.255 12.7768 127.312 12.9985L127.4 13.3413L127.062 12.9804C126.601 12.4884 126.471 12.0414 126.737 11.8616C126.896 11.7544 126.861 11.7344 126.606 11.7873C126.357 11.8391 126.282 11.7996 126.344 11.6482C126.39 11.5319 126.343 11.4369 126.239 11.4369C126.135 11.4369 125.769 11.1591 125.427 10.8197C125.085 10.4802 124.713 10.2142 124.6 10.2284C123.855 10.3221 123.676 10.2194 123.676 9.69913C123.676 9.26279 123.627 9.19225 123.37 9.25639C123.161 9.30835 122.976 9.2052 122.788 8.93264C122.637 8.71265 122.553 8.49478 122.601 8.44846C122.713 8.34243 122.218 7.86556 121.729 7.60687C121.36 7.4117 121.264 7.37895 120.957 7.34238C120.869 7.33187 120.797 7.18622 120.797 7.01863C120.797 6.84525 120.691 6.71393 120.55 6.71393C120.414 6.71393 120.18 6.50871 120.03 6.25778C119.698 5.70123 119.426 5.6729 119.292 6.18069C119.237 6.39017 119.081 6.56157 118.945 6.56157C118.77 6.56157 118.727 6.47199 118.798 6.25778C118.874 6.03138 118.84 5.97593 118.665 6.03976C118.283 6.17962 118.226 6.70402 118.572 6.90955C118.74 7.00979 118.878 7.18972 118.878 7.30917C118.878 7.42877 118.925 7.48209 118.982 7.42785C119.097 7.31831 119.986 8.37274 119.993 8.62717C119.998 8.79111 121.072 9.30393 121.411 9.30393C121.513 9.30393 121.597 9.19271 121.597 9.05681C121.597 8.85433 121.64 8.84382 121.837 8.99922C121.969 9.10358 122.078 9.30042 122.079 9.43678C122.081 9.64885 122.103 9.65236 122.23 9.4607C122.312 9.33744 122.435 9.28976 122.503 9.35466C122.657 9.50138 122.226 9.77287 122.026 9.65525C121.892 9.57588 121.605 9.86504 121.599 10.086C121.598 10.1391 121.741 10.2182 121.916 10.2619C122.091 10.3056 122.286 10.4679 122.348 10.6225C122.523 11.0595 123.081 11.4448 123.454 11.3871C123.715 11.3467 123.774 11.3983 123.715 11.6144C123.673 11.7681 123.573 11.8939 123.494 11.8939C123.414 11.8939 123.469 12.0694 123.617 12.284C123.783 12.5253 123.926 12.6104 123.993 12.5073C124.191 12.202 124.616 12.5204 124.666 13.0114C124.711 13.4488 124.771 13.4981 125.315 13.541C125.87 13.5846 125.902 13.6126 125.736 13.9068C125.582 14.1814 125.596 14.2114 125.835 14.1239C126.048 14.0464 126.095 14.0869 126.038 14.2958C125.945 14.6326 126.326 14.9984 126.648 14.881C126.802 14.8246 126.939 14.9308 127.04 15.1852C127.236 15.6756 127.09 15.9371 126.765 15.6797C126.633 15.5752 126.297 15.4799 126.02 15.4678C125.201 15.4323 125.115 15.4076 125.115 15.2065C125.115 15.0228 124.093 14.6363 123.606 14.6363C123.477 14.6363 123.313 14.5368 123.242 14.4154C123.167 14.2872 122.792 14.1681 122.35 14.132C121.931 14.0977 121.545 14.0281 121.492 13.9774C121.438 13.9268 121.271 13.9484 121.12 14.0257C120.887 14.144 120.856 14.1076 120.92 13.7918C120.965 13.566 120.92 13.4175 120.807 13.4175C120.703 13.4175 120.663 13.486 120.717 13.5698C120.979 13.9731 120.351 13.6646 119.62 13.0311C119.406 12.8451 118.264 12.5123 117.919 12.5353C117.13 12.5879 116.64 12.4861 116.64 12.2701C116.64 12.1417 116.514 11.9942 116.36 11.9422C116.206 11.8901 115.972 11.7615 115.84 11.6563C115.708 11.5511 115.384 11.4428 115.12 11.4157C114.857 11.3886 114.4 11.2426 114.106 11.0913C113.811 10.94 113.433 10.8576 113.266 10.9082C113.096 10.9595 112.962 10.9283 112.962 10.8377C112.962 10.7482 112.782 10.6751 112.562 10.6751C112.342 10.6751 112.162 10.6024 112.162 10.5138C112.162 10.4251 112.09 10.3951 112.001 10.4472C111.912 10.4993 111.631 10.4006 111.377 10.2276C111.122 10.0547 110.834 9.91334 110.738 9.91334C110.642 9.91334 110.563 9.84478 110.563 9.76099C110.563 9.67719 110.397 9.60863 110.195 9.60863C109.993 9.60863 109.759 9.54754 109.675 9.47273C109.592 9.39808 108.915 9.16163 108.171 8.94727C107.098 8.6383 106.769 8.59549 106.581 8.74037C106.392 8.88602 106.37 8.88206 106.471 8.72087C106.622 8.48152 106.098 7.95408 105.802 8.04808C105.694 8.08221 105.363 7.96749 105.067 7.79304C104.771 7.61844 104.329 7.47569 104.085 7.47569C103.841 7.47569 103.562 7.37407 103.464 7.25005C103.367 7.12589 103.143 6.99913 102.967 6.9682C102.791 6.93727 102.539 6.87344 102.407 6.82636C101.598 6.5375 101.109 6.44243 100.811 6.51648C100.598 6.56965 100.401 6.50566 100.276 6.3434C100.167 6.20111 99.8482 6.07983 99.5637 6.07206C99.2806 6.06444 99.0489 5.99269 99.0489 5.9127C99.0489 5.83272 98.9488 5.80377 98.8266 5.84856C98.7043 5.8932 98.447 5.79021 98.2548 5.61957C98.0043 5.39744 97.7766 5.33376 97.452 5.39561C97.1498 5.4532 96.9711 5.41298 96.9155 5.27465C96.8694 5.16053 96.3053 4.95364 95.6616 4.81485C95.0179 4.6762 94.3274 4.46108 94.1271 4.33691C93.9267 4.21275 93.7015 4.14723 93.6267 4.19126C93.552 4.23529 93.2689 4.16597 92.9977 4.03708C92.5149 3.80764 91.6015 3.81145 91.0132 4.04531C90.7884 4.13459 90.7333 4.07837 90.7333 3.75934C90.7333 3.50781 90.6454 3.36216 90.4935 3.36216C90.3615 3.36216 90.2536 3.30472 90.2536 3.23449C90.2536 3.16425 89.9934 3.09752 89.6753 3.0861C89.3573 3.07467 89.0026 2.99072 88.887 2.89931C88.6464 2.70917 87.8317 2.56474 87.1476 2.59125C86.8904 2.60116 86.6288 2.53016 86.5661 2.43357C86.5034 2.33682 86.0661 2.22743 85.5943 2.19041C84.3446 2.0923 84.1367 2.0958 83.7276 2.2221C83.4371 2.31168 83.3408 2.27192 83.2759 2.03562C83.1914 1.72787 83.1794 1.72558 81.1385 1.61162C80.3125 1.56561 79.9156 1.48624 79.7571 1.33525C79.696 1.2769 79.3125 1.22922 78.9049 1.22922C78.4975 1.22922 78.0957 1.16462 78.0121 1.08555C77.8874 0.967626 76.873 0.904552 75.5414 0.932128C75.4095 0.934871 74.9777 0.863264 74.5819 0.773071C73.5131 0.529306 72.6086 0.479944 72.3852 0.653017C72.2742 0.738944 72.0634 0.752655 71.9054 0.684097C71.5282 0.520774 68.5052 0.468518 68.5052 0.625289C68.5052 0.693239 68.3048 0.653626 68.06 0.537229C67.7846 0.406357 67.2201 0.340388 66.5804 0.364155C65.5108 0.404072 65.0755 0.5386 65.2327 0.780993C65.2826 0.857932 65.2119 0.880176 65.0753 0.830357C64.9387 0.780385 64.8271 0.669929 64.8271 0.584916C64.8271 0.495637 64.7256 0.510415 64.5872 0.619804C64.3923 0.773833 64.3474 0.76713 64.3474 0.583392C64.3474 0.397674 64.1147 0.366898 63.0431 0.410775C62.3257 0.44018 61.7046 0.496856 61.6627 0.53662C61.621 0.576536 61.4703 0.554749 61.328 0.488476C61.1855 0.422202 60.8149 0.411386 60.504 0.464557ZM117.319 4.23362C117.209 4.2711 117.128 4.51882 117.138 4.78407C117.15 5.10843 117.182 5.16663 117.235 4.96187C117.278 4.79428 117.388 4.56986 117.479 4.46306C117.672 4.23636 117.603 4.13703 117.319 4.23362ZM73.1427 4.58098C73.1427 4.66478 73.0664 4.73334 72.9734 4.73334C72.8803 4.73334 72.8485 4.66478 72.9028 4.58098C72.9572 4.49719 73.0333 4.42863 73.0722 4.42863C73.111 4.42863 73.1427 4.49719 73.1427 4.58098ZM118.079 4.99493C118.079 5.29323 118.362 5.64745 118.6 5.64745C118.675 5.64745 118.681 5.56183 118.612 5.45701C118.543 5.35235 118.485 5.16967 118.483 5.05114C118.476 4.72069 118.079 4.66539 118.079 4.99493ZM44.9543 5.28242C44.9012 5.333 44.7632 5.33848 44.6479 5.29445C44.5203 5.24585 44.5582 5.20974 44.7445 5.20243C44.9131 5.19588 45.0074 5.23183 44.9543 5.28242ZM117.679 5.4951C117.625 5.5789 117.692 5.64745 117.829 5.64745C117.967 5.64745 118.079 5.5789 118.079 5.4951C118.079 5.41131 118.011 5.34275 117.928 5.34275C117.845 5.34275 117.733 5.41131 117.679 5.4951ZM42.2791 5.96115C42.2791 6.04007 42.2072 6.10451 42.1192 6.10451C42.0312 6.10451 41.9593 5.99756 41.9593 5.86699C41.9593 5.73643 42.0312 5.67183 42.1192 5.72363C42.2072 5.77543 42.2791 5.88223 42.2791 5.96115ZM34.1235 6.01935C34.1235 6.05637 34.0515 6.12889 33.9635 6.18069C33.8756 6.23249 33.8036 6.20217 33.8036 6.1135C33.8036 6.02483 33.8756 5.95216 33.9635 5.95216C34.0515 5.95216 34.1235 5.98233 34.1235 6.01935ZM33.7496 7.51378C33.7053 7.6186 33.669 7.53282 33.669 7.32334C33.669 7.11385 33.7053 7.02823 33.7496 7.1329C33.794 7.23771 33.794 7.40911 33.7496 7.51378ZM31.8846 8.69451C31.8846 8.77831 31.7586 8.8458 31.6048 8.84458C31.3656 8.8426 31.3598 8.82066 31.5648 8.69451C31.8666 8.50864 31.8846 8.50864 31.8846 8.69451ZM104.507 9.80227C104.247 10.05 104.098 9.81812 104.35 9.55744C104.469 9.43434 104.592 9.40158 104.624 9.48462C104.656 9.5675 104.603 9.71041 104.507 9.80227ZM28.9262 9.60863C28.9806 9.69243 28.9488 9.76099 28.8557 9.76099C28.7626 9.76099 28.6863 9.69243 28.6863 9.60863C28.6863 9.52484 28.718 9.45628 28.7569 9.45628C28.7957 9.45628 28.8718 9.52484 28.9262 9.60863ZM123.036 10.7513C123.036 10.877 122.964 10.9798 122.876 10.9798C122.788 10.9798 122.716 10.877 122.716 10.7513C122.716 10.6256 122.788 10.5228 122.876 10.5228C122.964 10.5228 123.036 10.6256 123.036 10.7513ZM128.473 16.3122C128.473 16.396 128.442 16.4645 128.403 16.4645C128.364 16.4645 128.288 16.396 128.233 16.3122C128.179 16.2284 128.211 16.1598 128.304 16.1598C128.397 16.1598 128.473 16.2284 128.473 16.3122ZM127.674 24.006C127.674 24.1317 127.602 24.2345 127.514 24.2345C127.426 24.2345 127.354 24.1317 127.354 24.006C127.354 23.8803 127.426 23.7775 127.514 23.7775C127.602 23.7775 127.674 23.8803 127.674 24.006ZM5.81851 24.3017C5.81851 24.3387 5.74655 24.4113 5.65859 24.4631C5.57064 24.5149 5.49868 24.4845 5.49868 24.3959C5.49868 24.3072 5.57064 24.2345 5.65859 24.2345C5.74655 24.2345 5.81851 24.2647 5.81851 24.3017ZM128.633 24.4631C128.633 24.5887 128.561 24.6916 128.473 24.6916C128.385 24.6916 128.313 24.8058 128.313 24.9456C128.313 25.0851 128.269 25.1569 128.214 25.1049C128.07 24.9678 128.291 24.2345 128.476 24.2345C128.563 24.2345 128.633 24.3374 128.633 24.4631ZM122.882 25.145C122.561 25.3342 122.357 25.1767 122.598 24.9248C122.725 24.7915 122.853 24.7694 122.955 24.863C123.059 24.9588 123.034 25.0557 122.882 25.145ZM124.299 24.9008C124.491 25.1215 124.381 25.6057 124.138 25.6057C124.06 25.6057 123.996 25.5029 123.996 25.3772C123.996 25.2515 123.879 25.1486 123.736 25.1486C123.524 25.1486 123.513 25.1074 123.676 24.9201C123.923 24.6369 124.065 24.6325 124.299 24.9008ZM134.73 25.037C134.572 25.1863 134.554 25.1688 134.64 24.9517C134.7 24.8014 134.79 24.7169 134.839 24.7638C134.888 24.8106 134.839 24.9335 134.73 25.037ZM121.272 25.2629C121.268 25.6223 121.244 25.6438 121.104 25.414C121.014 25.2667 120.984 25.0783 121.038 24.9951C121.203 24.7402 121.277 24.8247 121.272 25.2629ZM126.394 25.6147C126.394 25.7872 126.322 25.886 126.234 25.8342C126.147 25.7824 126.075 25.6414 126.075 25.5205C126.075 25.3997 126.147 25.301 126.234 25.301C126.322 25.301 126.394 25.4422 126.394 25.6147ZM130.072 25.8342C130.072 25.9599 129.967 26.0628 129.837 26.0628C129.695 26.0628 129.639 25.9735 129.695 25.8342C129.745 25.7085 129.851 25.6057 129.93 25.6057C130.008 25.6057 130.072 25.7085 130.072 25.8342ZM2.93684 26.5997C2.82554 26.7273 2.70161 26.8005 2.66131 26.7622C2.55049 26.6565 2.77581 26.3675 2.96899 26.3675C3.07517 26.3675 3.06302 26.4549 2.93684 26.5997ZM4.37928 27.8058C4.37928 27.8429 4.30731 27.9154 4.21936 27.9672C4.13141 28.019 4.05945 27.9887 4.05945 27.9C4.05945 27.8113 4.13141 27.7386 4.21936 27.7386C4.30731 27.7386 4.37928 27.7688 4.37928 27.8058Z" fill="#F59300" fill-opacity="0.7"/>
</svg>
