<svg width="368" height="368" viewBox="0 0 368 368" fill="none" xmlns="http://www.w3.org/2000/svg">
<path d="M0 60C0 31.7157 0 17.5736 8.7868 8.7868C17.5736 0 31.7157 0 60 0H308C336.284 0 350.426 0 359.213 8.7868C368 17.5736 368 31.7157 368 60V308C368 336.284 368 350.426 359.213 359.213C350.426 368 336.284 368 308 368H60C31.7157 368 17.5736 368 8.7868 359.213C0 350.426 0 336.284 0 308V60Z" fill="#ACACAC" fill-opacity="0.07"/>
<mask id="mask0_3598_11815" style="mask-type:alpha" maskUnits="userSpaceOnUse" x="0" y="0" width="368" height="368">
<path d="M0 60C0 31.7157 0 17.5736 8.7868 8.7868C17.5736 0 31.7157 0 60 0H308C336.284 0 350.426 0 359.213 8.7868C368 17.5736 368 31.7157 368 60V308C368 336.284 368 350.426 359.213 359.213C350.426 368 336.284 368 308 368H60C31.7157 368 17.5736 368 8.7868 359.213C0 350.426 0 336.284 0 308V60Z" fill="#2CD5C4"/>
</mask>
<g mask="url(#mask0_3598_11815)">
<path d="M144 452.235C144 579.683 40.8016 683 -86.5 683C-213.802 683 -317 579.683 -317 452.235C-317 324.788 -176.302 247 -49 247C78.3016 247 144 324.788 144 452.235Z" fill="#FF0040" fill-opacity="0.23"/>
<path d="M144 452.235C144 579.683 40.8016 683 -86.5 683C-213.802 683 -317 579.683 -317 452.235C-317 324.788 -176.302 247 -49 247C78.3016 247 144 324.788 144 452.235Z" fill="#E1E431" fill-opacity="0.22"/>
<path d="M606.033 18.5C606.033 145.802 682.844 302 555.527 302C428.21 302 325 198.802 325 71.5C325 -55.8016 428.21 -159 555.527 -159C682.844 -159 606.033 -108.802 606.033 18.5Z" fill="#F59300" fill-opacity="0.1"/>
<path d="M606.033 18.5C606.033 145.802 682.844 302 555.527 302C428.21 302 325 198.802 325 71.5C325 -55.8016 428.21 -159 555.527 -159C682.844 -159 606.033 -108.802 606.033 18.5Z" fill="#F59300" fill-opacity="0.3"/>
</g>
</svg>
