<svg width="238" height="276" viewBox="0 0 238 276" fill="none" xmlns="http://www.w3.org/2000/svg">
<rect width="188.225" height="67.4539" rx="5.2509" transform="matrix(0.83205 -0.5547 0.830139 0.557556 1.9375 230.25)" fill="#A6E2B1"/>
<rect width="182.101" height="61.9836" rx="3.84991" transform="matrix(0.83205 -0.5547 0.830139 0.557556 6.64062 230.258)" fill="white"/>
<path d="M60.1391 240.168L56.5562 242.557L46.2378 228.32L50.5465 225.448L71.7757 232.41L68.1928 234.799L52.0593 229.264L51.9358 229.347L60.1391 240.168ZM53.7135 236.152L62.1764 230.51L64.7804 232.259L56.3174 237.901L53.7135 236.152ZM73.679 231.141L57.9014 220.544L64.1405 216.385C65.3399 215.585 66.5903 215.058 67.8916 214.802C69.1878 214.543 70.4605 214.536 71.7095 214.783C72.9586 215.022 74.107 215.494 75.1547 216.197C76.2025 216.901 76.9004 217.673 77.2486 218.513C77.5969 219.353 77.5645 220.21 77.1517 221.083C76.744 221.953 75.9327 222.793 74.7178 223.603L70.7411 226.254L68.0679 224.458L71.504 222.168C72.1475 221.739 72.5673 221.311 72.7634 220.885C72.9596 220.452 72.9628 220.034 72.7733 219.631C72.5837 219.221 72.2296 218.842 71.7109 218.493C71.187 218.142 70.6244 217.905 70.023 217.783C69.4216 217.655 68.802 217.659 68.1642 217.796C67.5212 217.929 66.8754 218.212 66.2268 218.644L63.972 220.147L77.0225 228.912L73.679 231.141ZM87.7576 221.756L71.9799 211.159L78.219 206.999C79.4185 206.2 80.6689 205.672 81.9702 205.416C83.2664 205.157 84.539 205.15 85.7881 205.397C87.0372 205.636 88.1856 206.108 89.2333 206.812C90.281 207.515 90.979 208.287 91.3272 209.128C91.6754 209.968 91.6431 210.824 91.2302 211.698C90.8225 212.567 90.0112 213.407 88.7964 214.217L84.8197 216.868L82.1464 215.073L85.5826 212.782C86.2261 212.353 86.6459 211.925 86.842 211.499C87.0381 211.066 87.0414 210.648 86.8518 210.245C86.6623 209.835 86.3082 209.456 85.7894 209.108C85.2656 208.756 84.7029 208.519 84.1015 208.398C83.5002 208.269 82.8805 208.273 82.2427 208.41C81.5998 208.543 80.954 208.826 80.3053 209.258L78.0506 210.761L91.1011 219.527L87.7576 221.756ZM101.836 212.37L86.0585 201.773L92.2976 197.614C93.4919 196.817 94.7243 196.281 95.9948 196.005C97.2653 195.721 98.5097 195.692 99.728 195.918C100.946 196.137 102.077 196.596 103.119 197.297C104.167 198 104.842 198.757 105.144 199.566C105.441 200.372 105.36 201.195 104.9 202.038C104.447 202.876 103.612 203.701 102.397 204.511L98.2199 207.296L95.5389 205.495L99.1758 203.07C99.8141 202.645 100.257 202.233 100.505 201.834C100.752 201.435 100.804 201.05 100.661 200.678C100.523 200.303 100.194 199.941 99.6754 199.593C99.1515 199.241 98.6043 199.014 98.0337 198.914C97.4683 198.809 96.8795 198.838 96.2673 198.998C95.6552 199.152 95.0274 199.444 94.3839 199.873L92.1292 201.376L105.18 210.141L101.836 212.37ZM103.196 201.854L114.307 204.056L110.616 206.517L99.5902 204.258L103.196 201.854ZM122.749 187.87C124.47 189.026 125.607 190.227 126.16 191.473C126.718 192.716 126.755 193.926 126.269 195.102C125.784 196.271 124.844 197.32 123.449 198.25C122.043 199.187 120.464 199.814 118.71 200.131C116.956 200.448 115.151 200.417 113.295 200.039C111.44 199.661 109.654 198.896 107.939 197.744C106.218 196.588 105.079 195.389 104.521 194.146C103.962 192.903 103.926 191.697 104.411 190.528C104.891 189.355 105.834 188.3 107.24 187.364C108.635 186.434 110.209 185.81 111.963 185.493C113.717 185.169 115.522 185.196 117.377 185.575C119.238 185.949 121.029 186.715 122.749 187.87ZM119.359 190.13C118.245 189.382 117.138 188.862 116.038 188.571C114.943 188.277 113.897 188.197 112.899 188.333C111.901 188.469 110.998 188.807 110.19 189.345C109.382 189.884 108.874 190.487 108.668 191.154C108.461 191.821 108.573 192.523 109.003 193.261C109.439 193.994 110.214 194.735 111.329 195.484C112.443 196.232 113.548 196.754 114.643 197.048C115.743 197.339 116.791 197.417 117.789 197.281C118.787 197.145 119.69 196.807 120.498 196.269C121.306 195.73 121.814 195.127 122.021 194.46C122.227 193.792 122.113 193.092 121.677 192.358C121.246 191.621 120.474 190.879 119.359 190.13ZM119.302 179.61L135.112 185.114L135.259 185.016L127.101 174.411L130.808 171.94L141.134 186.172L136.825 189.044L115.588 182.087L119.302 179.61ZM148.489 181.268L132.711 170.671L143.367 163.567L146.117 165.415L138.805 170.29L142.564 172.815L149.328 168.305L152.079 170.152L145.315 174.662L149.082 177.192L156.425 172.297L159.175 174.144L148.489 181.268ZM167.409 168.655L161.803 172.392L146.025 161.795L151.677 158.027C153.268 156.967 154.953 156.266 156.733 155.925C158.507 155.58 160.292 155.597 162.085 155.975C163.885 156.35 165.603 157.088 167.242 158.188C168.885 159.292 169.986 160.448 170.544 161.657C171.108 162.862 171.126 164.063 170.6 165.259C170.079 166.452 169.015 167.584 167.409 168.655ZM162.288 168.244L164.412 166.828C165.4 166.169 166.057 165.497 166.382 164.813C166.707 164.122 166.67 163.415 166.27 162.692C165.87 161.962 165.082 161.202 163.906 160.412C162.74 159.629 161.615 159.104 160.53 158.837C159.451 158.567 158.399 158.539 157.376 158.754C156.352 158.969 155.346 159.406 154.358 160.065L152.227 161.486L162.288 168.244Z" fill="#A6E2B1"/>
<path d="M165.042 157.39C171.379 153.134 181.664 153.116 188.016 157.35L211.868 173.252C218.219 177.486 218.231 184.369 211.894 188.625L94.4815 267.484C88.1447 271.74 77.8588 271.758 71.5074 267.523L47.6557 251.622C41.3043 247.388 41.2925 240.505 47.6293 236.249L165.042 157.39Z" fill="#D9D9D9" fill-opacity="0.26"/>
<path d="M39.2528 166.65C36.5184 164.814 35.3102 162.195 36.0229 159.649L41.9979 138.31C42.1521 137.759 42.6086 137.267 43.2777 136.93L173.254 71.5607C174.104 71.133 175.208 71.0009 176.229 71.2049L216.314 79.2174L220.708 99.5908C221.049 101.17 220.255 102.763 218.568 103.887L84.0557 193.562C82.7436 194.437 80.6188 194.433 79.3098 193.554L39.2528 166.65Z" fill="#D6D6D6" stroke="black" stroke-width="1.4276"/>
<rect x="0.593234" y="0.00101931" width="160.19" height="54.0547" rx="3.04487" transform="matrix(0.83205 -0.5547 0.830139 0.557556 39.5988 138.56)" fill="white" stroke="black" stroke-width="0.713798"/>
<path fill-rule="evenodd" clip-rule="evenodd" d="M163.015 58.508L161.665 58.9827L54.6226 130.615L53.5391 131.77L53.6874 131.67L162.867 58.6078L163.015 58.5085L163.015 58.508Z" fill="black"/>
<path fill-rule="evenodd" clip-rule="evenodd" d="M48.0192 140.911L78.6021 161.42L78.7503 161.519L78.7378 161.538L75.8859 159.625L78.5523 161.814L78.5515 161.816L78.4033 161.716L46.5466 140.353L46.3984 140.254L48.0192 140.911Z" fill="black"/>
<path fill-rule="evenodd" clip-rule="evenodd" d="M209.545 76.1502L207.946 74.6507L179.011 55.247L177.391 54.5898L177.539 54.6892L209.395 76.0521L209.544 76.1515L209.545 76.1502Z" fill="black"/>
<path fill-rule="evenodd" clip-rule="evenodd" d="M204.56 86.5595L203.206 87.0296L95.8849 158.236L94.7969 159.387L94.9456 159.288L204.413 86.6571L204.56 86.5595Z" fill="black"/>
<path d="M151.158 107.086C152.74 118.947 139.145 125.272 128.228 125.272C118.689 125.272 107.709 119.722 105.09 111.038C104.33 108.52 104.811 104.856 107.425 104.564C112.414 104.007 119.212 117.761 128.228 117.761C139.145 117.761 148.391 96.4122 151.158 107.086Z" fill="#D6D6D6"/>
<path d="M129.972 123.579C115.986 124.634 109.024 116.031 106.345 111.476C105.354 109.79 105.393 107.764 106.009 105.908C107.136 102.513 108.788 96.7363 108.737 92.1676C108.663 85.5917 106.451 82.1619 104.989 75.7502C102.685 65.6462 101.308 59.9159 98.7434 49.875C96.6021 41.4921 96.7523 34.3499 96.7523 30.4282C96.7522 26.5065 97.8676 23.1118 98.0296 22.5765C98.626 20.6056 101.209 17.3509 102.312 15.6127C103.784 13.2951 108.515 9.3756 108.729 9.19892C108.732 9.19497 108.737 9.19273 108.737 9.19273C108.737 9.19273 108.734 9.19482 108.729 9.19892C108.687 9.256 109 9.67031 128.695 8.83576C149.752 7.94351 149.93 9.72807 149.93 9.72807C149.93 9.72807 153.856 13.2971 155.669 16.8619C156.889 19.2613 159.184 23.5612 159.952 26.1413C162.635 35.1586 158.881 50.5888 158.881 50.5888C158.881 50.5888 154.711 65.6441 152.457 75.3933C150.948 81.9186 149.22 85.4784 148.888 92.1676C148.661 96.7335 149.625 102.979 150.282 106.585C150.632 108.505 150.733 110.493 149.912 112.262C148.14 116.08 143.203 122.58 129.972 123.579Z" fill="white" stroke="black" stroke-width="0.713798"/>
<circle r="19.2726" transform="matrix(0.83205 -0.5547 0.830139 0.557556 128.847 15.8568)" fill="#434343" stroke="black" stroke-width="0.713798"/>
</svg>
