<svg width="198" height="135" viewBox="0 0 198 135" fill="none" xmlns="http://www.w3.org/2000/svg">
<ellipse cx="77.1732" cy="79.5779" rx="26.5831" ry="5.29744" transform="rotate(33.4999 77.1732 79.5779)" fill="#D9D9D9" fill-opacity="0.3"/>
<ellipse cx="110.017" cy="110.605" rx="26.5831" ry="5.29744" transform="rotate(33.4999 110.017 110.605)" fill="#D9D9D9" fill-opacity="0.3"/>
<path fill-rule="evenodd" clip-rule="evenodd" d="M67.0569 7.58224C65.0796 6.26397 63.4766 7.12188 63.4766 9.49841V30.7987C63.4766 33.1752 65.0796 36.1704 67.0569 37.4887L67.9249 38.0673C68.3239 38.3333 68.6459 38.94 68.6409 39.4161L68.5991 43.3643C68.5914 44.0994 69.3133 44.9865 69.781 44.8167L74.9335 42.9468C75.0633 42.8997 75.2285 42.9364 75.3994 43.0503L102.145 60.8805C104.122 62.1988 105.725 61.3409 105.725 58.9644V37.6641C105.725 35.2876 104.122 32.2924 102.145 30.9741L67.0569 7.58224Z" fill="#E1E1E1"/>
<mask id="path-4-inside-1_4164_27014" fill="white">
<path fill-rule="evenodd" clip-rule="evenodd" d="M63.5804 8.07442C61.603 6.75616 60 7.61406 60 9.99059V31.2909C60 33.6674 61.603 36.6626 63.5804 37.9809L64.4483 38.5595C64.8473 38.8255 65.1694 39.4322 65.1643 39.9083L65.1226 43.8565C65.1148 44.5916 65.8367 45.4787 66.3045 45.3089L71.457 43.439C71.5867 43.3919 71.752 43.4286 71.9228 43.5425L98.6682 61.3727C100.646 62.691 102.249 61.8331 102.249 59.4566V38.1563C102.249 35.7798 100.646 32.7845 98.6682 31.4663L63.5804 8.07442Z"/>
</mask>
<path fill-rule="evenodd" clip-rule="evenodd" d="M63.5804 8.07442C61.603 6.75616 60 7.61406 60 9.99059V31.2909C60 33.6674 61.603 36.6626 63.5804 37.9809L64.4483 38.5595C64.8473 38.8255 65.1694 39.4322 65.1643 39.9083L65.1226 43.8565C65.1148 44.5916 65.8367 45.4787 66.3045 45.3089L71.457 43.439C71.5867 43.3919 71.752 43.4286 71.9228 43.5425L98.6682 61.3727C100.646 62.691 102.249 61.8331 102.249 59.4566V38.1563C102.249 35.7798 100.646 32.7845 98.6682 31.4663L63.5804 8.07442Z" fill="white"/>
<path d="M63.5804 8.07442V8.65V8.07442ZM63.5804 37.9809V37.4053V37.9809ZM98.6682 31.4663V30.8907V31.4663ZM71.457 43.439L71.7686 44.0838L71.457 43.439ZM65.1226 43.8565L64.6437 43.53L65.1226 43.8565ZM66.3045 45.3089L66.616 45.9537L66.3045 45.3089ZM64.4483 38.5595V39.1351V38.5595ZM60.4789 10.3099C60.4789 8.25122 61.8675 7.50807 63.5804 8.65V7.49884C61.3385 6.00425 59.5211 6.9769 59.5211 9.67132L60.4789 10.3099ZM60.4789 31.6101V10.3099L59.5211 9.67132V30.9716L60.4789 31.6101ZM63.5804 37.4053C61.8675 36.2634 60.4789 33.6688 60.4789 31.6101L59.5211 30.9716C59.5211 33.666 61.3385 37.0619 63.5804 38.5565V37.4053ZM64.4483 37.9839L63.5804 37.4053V38.5565L64.4483 39.1351V37.9839ZM65.6015 44.183L65.6432 40.2348L64.6855 39.5818L64.6437 43.53L65.6015 44.183ZM71.1454 42.7942L65.9929 44.6641L66.616 45.9537L71.7686 44.0838L71.1454 42.7942ZM98.6682 60.7972L71.9228 42.9669V44.1181L98.6682 61.9483V60.7972ZM101.77 59.1373C101.77 61.1959 100.381 61.9391 98.6682 60.7972V61.9483C100.91 63.4429 102.727 62.4703 102.727 59.7758L101.77 59.1373ZM101.77 37.837V59.1373L102.727 59.7758V38.4756L101.77 37.837ZM98.6682 32.0419C100.381 33.1838 101.77 35.7784 101.77 37.837L102.727 38.4756C102.727 35.7811 100.91 32.3853 98.6682 30.8907V32.0419ZM63.5804 8.65L98.6682 32.0419V30.8907L63.5804 7.49884V8.65ZM71.7686 44.0838C71.8115 44.0682 71.8663 44.0804 71.9228 44.1181V42.9669C71.6377 42.7768 71.362 42.7156 71.1454 42.7942L71.7686 44.0838ZM64.6437 43.53C64.6307 44.7566 65.8354 46.237 66.616 45.9537L65.9929 44.6641C65.838 44.7203 65.5989 44.4265 65.6015 44.183L64.6437 43.53ZM64.4483 39.1351C64.5805 39.2232 64.6871 39.4241 64.6855 39.5818L65.6432 40.2348C65.6516 39.4402 65.1142 38.4278 64.4483 37.9839V39.1351Z" fill="black" mask="url(#path-4-inside-1_4164_27014)"/>
<path fill-rule="evenodd" clip-rule="evenodd" d="M95.1366 52.6405C91.5188 50.2286 88.5859 51.7982 88.5859 56.1463V75.4786C88.5859 79.8266 91.5187 85.3066 95.1366 87.7185L118.232 103.115L125.257 115.11C125.681 115.835 126.34 115.912 126.34 115.238L126.34 108.5C129.73 110.459 132.402 108.84 132.402 104.689V85.3572C132.402 81.0092 129.47 75.5292 125.852 73.1173L95.1366 52.6405Z" fill="#D3D3D3"/>
<mask id="path-7-inside-2_4164_27014" fill="white">
<path fill-rule="evenodd" clip-rule="evenodd" d="M91.4647 53.4257C87.8469 51.0138 84.9141 52.5834 84.9141 56.9315V76.2637C84.9141 80.6118 87.8469 86.0918 91.4647 88.5037L114.56 103.9L121.585 115.895C122.009 116.62 122.669 116.697 122.669 116.023L122.669 109.285C126.058 111.244 128.73 109.625 128.73 105.475V86.1424C128.73 81.7943 125.798 76.3143 122.18 73.9024L91.4647 53.4257Z"/>
</mask>
<path fill-rule="evenodd" clip-rule="evenodd" d="M91.4647 53.4257C87.8469 51.0138 84.9141 52.5834 84.9141 56.9315V76.2637C84.9141 80.6118 87.8469 86.0918 91.4647 88.5037L114.56 103.9L121.585 115.895C122.009 116.62 122.669 116.697 122.669 116.023L122.669 109.285C126.058 111.244 128.73 109.625 128.73 105.475V86.1424C128.73 81.7943 125.798 76.3143 122.18 73.9024L91.4647 53.4257Z" fill="white"/>
<path d="M114.56 103.9L114.873 103.674L114.738 103.444L114.56 103.325V103.9ZM121.585 115.895L121.271 116.121L121.585 115.895ZM122.669 116.023L123.148 116.342L122.669 116.023ZM122.669 109.285L122.633 108.687L122.19 108.431V108.965L122.669 109.285ZM85.393 57.2507C85.393 53.2206 88.1114 51.7657 91.4647 54.0013V52.8501C87.5824 50.2619 84.4352 51.9462 84.4352 56.6122L85.393 57.2507ZM85.393 76.583V57.2507L84.4352 56.6122V75.9444L85.393 76.583ZM91.4647 87.9281C88.1114 85.6925 85.393 80.6132 85.393 76.583L84.4352 75.9444C84.4352 80.6104 87.5824 86.491 91.4647 89.0792V87.9281ZM114.56 103.325L91.4647 87.9281V89.0792L114.56 104.476V103.325ZM121.898 115.669L114.873 103.674L114.246 104.127L121.271 116.121L121.898 115.669ZM122.19 115.704C122.19 115.885 122.012 115.864 121.898 115.669L121.271 116.121C122.006 117.375 123.148 117.51 123.148 116.342L122.19 115.704ZM122.19 108.965L122.19 115.704L123.148 116.342L123.147 109.604L122.19 108.965ZM128.252 105.155C128.252 109.002 125.775 110.503 122.633 108.687L122.704 109.882C126.342 111.985 129.209 110.248 129.209 105.794L128.252 105.155ZM128.252 85.8231V105.155L129.209 105.794V86.4617L128.252 85.8231ZM122.18 74.478C125.533 76.7136 128.252 81.7929 128.252 85.8231L129.209 86.4617C129.209 81.7957 126.062 75.9151 122.18 73.3269V74.478ZM91.4647 54.0013L122.18 74.478V73.3269L91.4647 52.8501V54.0013Z" fill="black" mask="url(#path-7-inside-2_4164_27014)"/>
<path d="M69.375 29.9597V21.3167L70.8955 22.3303V25.8964L73.982 27.9541V24.388L75.4989 25.3993V34.0423L73.982 33.031V29.4607L70.8955 27.403V30.9733L69.375 29.9597ZM79.1824 36.6245C78.6276 36.2547 78.1501 35.8012 77.7498 35.2643C77.3518 34.7261 77.0451 34.1362 76.8298 33.4946C76.6144 32.8502 76.5067 32.1862 76.5067 31.5025C76.5067 30.8358 76.6144 30.3223 76.8298 29.9623C77.0451 29.6023 77.3483 29.4119 77.7392 29.3912C78.1325 29.372 78.5937 29.5388 79.1227 29.8915C79.4786 30.1287 79.8098 30.4185 80.1165 30.7608C80.4255 31.1018 80.6947 31.4853 80.9241 31.9111C81.1558 32.3385 81.3361 32.8019 81.4649 33.3014C81.5936 33.798 81.658 34.322 81.658 34.8734V35.3672L77.1037 32.331V31.2168L80.2499 33.3143C80.2499 33.0555 80.2031 32.795 80.1094 32.5328C80.0158 32.2706 79.8859 32.0278 79.7197 31.8045C79.5558 31.5799 79.365 31.395 79.1473 31.2499C78.9202 31.0985 78.7189 31.0276 78.5433 31.0372C78.3701 31.0455 78.2343 31.1224 78.136 31.2678C78.0377 31.4105 77.9874 31.609 77.985 31.8635V32.9228C77.985 33.2435 78.0342 33.5534 78.1325 33.8525C78.2332 34.1531 78.3748 34.4276 78.5574 34.6759C78.74 34.9242 78.9565 35.1319 79.207 35.2989C79.3732 35.4097 79.5254 35.483 79.6635 35.5188C79.8016 35.5546 79.9198 35.549 80.0181 35.502C80.1165 35.455 80.1914 35.3671 80.2429 35.2383L81.6264 36.2703C81.5561 36.623 81.4122 36.8759 81.1945 37.029C80.9791 37.1808 80.7005 37.2258 80.3588 37.164C80.0193 37.1009 79.6272 36.921 79.1824 36.6245ZM84.13 31.1533V39.7963L82.6342 38.7991V30.1561L84.13 31.1533ZM86.8242 32.9494V41.5924L85.3283 40.5952V31.9522L86.8242 32.9494ZM90.4594 44.1425C89.9139 43.7788 89.4422 43.3251 89.0442 42.7813C88.6486 42.2362 88.3431 41.6414 88.1278 40.9971C87.9124 40.3499 87.8047 39.6943 87.8047 39.0303C87.8047 38.3607 87.9124 37.8473 88.1278 37.4901C88.3431 37.1301 88.6486 36.9426 89.0442 36.9279C89.4422 36.9118 89.9139 37.0856 90.4594 37.4492C91.0048 37.8129 91.4753 38.2672 91.8709 38.8123C92.2689 39.3562 92.5756 39.9517 92.7909 40.5989C93.0063 41.2432 93.114 41.9002 93.114 42.5698C93.114 43.2338 93.0063 43.7458 92.7909 44.1058C92.5756 44.4631 92.2689 44.6497 91.8709 44.6657C91.4753 44.6805 91.0048 44.5061 90.4594 44.1425ZM90.4664 42.7545C90.7145 42.9199 90.9217 42.9736 91.0879 42.9156C91.2541 42.8548 91.3793 42.7048 91.4636 42.4656C91.5502 42.2279 91.5935 41.9205 91.5935 41.5435C91.5935 41.1665 91.5502 40.8015 91.4636 40.4483C91.3793 40.0967 91.2541 39.7797 91.0879 39.4973C90.9217 39.2148 90.7145 38.9909 90.4664 38.8255C90.2159 38.6585 90.0052 38.6039 89.8343 38.6615C89.6658 38.7208 89.5382 38.8693 89.4516 39.1069C89.3673 39.3462 89.3252 39.6543 89.3252 40.0313C89.3252 40.4083 89.3673 40.7726 89.4516 41.1242C89.5382 41.4773 89.6658 41.7959 89.8343 42.0799C90.0052 42.3626 90.2159 42.5875 90.4664 42.7545Z" fill="black"/>
<path d="M92.6533 68.9743V74.7363L91.7778 74.1526L89.692 69.1356L89.6569 69.1121V72.7387L88.6433 72.0629V66.301L89.5328 66.894L91.6022 71.8974L91.6443 71.9254V68.3017L92.6533 68.9743ZM95.1107 76.459C94.7408 76.2124 94.4225 75.9101 94.1556 75.5522C93.8903 75.1933 93.6858 74.8001 93.5423 74.3724C93.3987 73.9428 93.3269 73.5001 93.3269 73.0443C93.3269 72.5998 93.3987 72.2575 93.5423 72.0175C93.6858 71.7775 93.8879 71.6506 94.1486 71.6368C94.4108 71.624 94.7182 71.7352 95.0709 71.9703C95.3081 72.1284 95.529 72.3216 95.7334 72.5498C95.9394 72.7772 96.1189 73.0328 96.2718 73.3167C96.4263 73.6017 96.5465 73.9106 96.6323 74.2435C96.7182 74.5746 96.7611 74.9239 96.7611 75.2916V75.6208L93.7249 73.5966V72.8539L95.8223 74.2522C95.8223 74.0796 95.7911 73.906 95.7287 73.7312C95.6663 73.5564 95.5797 73.3945 95.4689 73.2456C95.3596 73.0959 95.2324 72.9727 95.0873 72.8759C94.9359 72.775 94.8017 72.7277 94.6846 72.7341C94.5692 72.7396 94.4786 72.7909 94.4131 72.8878C94.3476 72.9829 94.314 73.1153 94.3124 73.285V73.9911C94.3124 74.205 94.3452 74.4116 94.4108 74.6109C94.4779 74.8114 94.5723 74.9943 94.694 75.1599C94.8157 75.3255 94.9601 75.4639 95.1271 75.5752C95.2379 75.6491 95.3393 75.698 95.4314 75.7218C95.5235 75.7457 95.6023 75.742 95.6678 75.7107C95.7334 75.6793 95.7833 75.6207 95.8177 75.5348L96.74 76.2229C96.6932 76.458 96.5972 76.6266 96.4521 76.7286C96.3085 76.8299 96.1228 76.8599 95.8949 76.8186C95.6686 76.7765 95.4072 76.6567 95.1107 76.459ZM99.0505 79.0855C98.6806 78.8389 98.3623 78.5367 98.0954 78.1787C97.8301 77.8199 97.6257 77.4266 97.4821 76.9989C97.3385 76.5693 97.2667 76.1267 97.2667 75.6709C97.2667 75.2263 97.3385 74.8841 97.4821 74.644C97.6257 74.404 97.8278 74.2771 98.0884 74.2633C98.3506 74.2505 98.658 74.3617 99.0107 74.5968C99.2479 74.755 99.4688 74.9482 99.6732 75.1764C99.8792 75.4037 100.059 75.6594 100.212 75.9433C100.366 76.2282 100.486 76.5371 100.572 76.8701C100.658 77.2011 100.701 77.5505 100.701 77.9181V78.2473L97.6647 76.2232V75.4804L99.7622 76.8787C99.7622 76.7062 99.7309 76.5325 99.6685 76.3577C99.6061 76.1829 99.5195 76.0211 99.4087 75.8722C99.2994 75.7224 99.1722 75.5992 99.0271 75.5024C98.8757 75.4015 98.7415 75.3542 98.6245 75.3606C98.509 75.3662 98.4185 75.4174 98.3529 75.5144C98.2874 75.6095 98.2538 75.7419 98.2523 75.9115V76.6177C98.2523 76.8315 98.285 77.0381 98.3506 77.2375C98.4177 77.4379 98.5121 77.6209 98.6338 77.7864C98.7556 77.952 98.8999 78.0904 99.0669 78.2018C99.1777 78.2756 99.2791 78.3245 99.3712 78.3484C99.4633 78.3723 99.5421 78.3685 99.6077 78.3372C99.6732 78.3059 99.7231 78.2473 99.7575 78.1614L100.68 78.8494C100.633 79.0845 100.537 79.2531 100.392 79.3552C100.248 79.4564 100.063 79.4864 99.8347 79.4452C99.6084 79.4031 99.347 79.2832 99.0505 79.0855ZM102.677 81.4889C102.404 81.3068 102.156 81.0575 101.935 80.7409C101.715 80.4236 101.54 80.0566 101.41 79.6402C101.282 79.2229 101.218 78.7732 101.218 78.2912C101.218 77.796 101.285 77.4285 101.417 77.1887C101.55 76.947 101.726 76.8179 101.946 76.8015C102.168 76.7841 102.411 76.8634 102.674 77.0392C102.876 77.1734 103.043 77.3265 103.178 77.4986C103.313 77.6697 103.423 77.8438 103.505 78.0209C103.59 78.1971 103.654 78.3579 103.697 78.5034L103.728 78.5237V76.3573L104.723 77.0206V82.7825L103.739 82.1271V81.435L103.697 81.4069C103.65 81.4957 103.584 81.5706 103.498 81.6315C103.414 81.6916 103.304 81.7149 103.168 81.7013C103.034 81.6887 102.87 81.6179 102.677 81.4889ZM102.993 80.7458C103.153 80.853 103.289 80.891 103.4 80.8598C103.512 80.8278 103.598 80.7359 103.657 80.5841C103.718 80.4334 103.749 80.2295 103.749 79.9726C103.749 79.7156 103.719 79.4726 103.66 79.2437C103.601 79.0147 103.515 78.8112 103.402 78.6331C103.29 78.455 103.153 78.3124 102.993 78.2052C102.829 78.096 102.691 78.0574 102.578 78.0894C102.466 78.1214 102.381 78.2128 102.323 78.3638C102.265 78.5147 102.237 78.7149 102.237 78.9644C102.237 79.2157 102.265 79.4572 102.323 79.6889C102.382 79.9198 102.468 80.1265 102.578 80.3092C102.691 80.491 102.829 80.6366 102.993 80.7458ZM107.087 84.3588V78.5968L108.101 79.2725V81.6499L110.158 83.0217V80.6443L111.17 81.3185V87.0805L110.158 86.4063V84.0261L108.101 82.6543V85.0345L107.087 84.3588ZM113.625 88.802C113.255 88.5554 112.937 88.2532 112.67 87.8952C112.405 87.5364 112.2 87.1431 112.057 86.7154C111.913 86.2858 111.841 85.8431 111.841 85.3874C111.841 84.9428 111.913 84.6006 112.057 84.3605C112.2 84.1205 112.402 83.9936 112.663 83.9798C112.925 83.967 113.233 84.0782 113.585 84.3133C113.823 84.4715 114.043 84.6646 114.248 84.8928C114.454 85.1202 114.633 85.3758 114.786 85.6597C114.941 85.9447 115.061 86.2536 115.147 86.5866C115.233 86.9176 115.276 87.267 115.276 87.6346V87.9638L112.239 85.9396V85.1969L114.337 86.5952C114.337 86.4227 114.306 86.249 114.243 86.0742C114.181 85.8994 114.094 85.7376 113.983 85.5887C113.874 85.4389 113.747 85.3157 113.602 85.2189C113.45 85.118 113.316 85.0707 113.199 85.0771C113.084 85.0826 112.993 85.1339 112.928 85.2309C112.862 85.326 112.829 85.4584 112.827 85.628V86.3342C112.827 86.548 112.86 86.7546 112.925 86.954C112.992 87.1544 113.087 87.3374 113.209 87.5029C113.33 87.6685 113.475 87.8069 113.642 87.9183C113.752 87.9921 113.854 88.041 113.946 88.0649C114.038 88.0887 114.117 88.085 114.182 88.0537C114.248 88.0224 114.298 87.9637 114.332 87.8778L115.255 88.5659C115.208 88.801 115.112 88.9696 114.967 89.0717C114.823 89.1729 114.637 89.2029 114.409 89.1616C114.183 89.1196 113.922 88.9997 113.625 88.802ZM116.924 85.1546V90.9165L115.926 90.2517V84.4897L116.924 85.1546ZM117.722 93.0697V87.1276L118.706 87.7831V88.509L118.75 88.5386C118.794 88.4515 118.857 88.3754 118.94 88.3105C119.024 88.2448 119.133 88.2163 119.268 88.2252C119.403 88.2331 119.572 88.3042 119.773 88.4385C120.035 88.6133 120.277 88.857 120.499 89.1698C120.72 89.4808 120.898 89.8455 121.03 90.264C121.163 90.6807 121.229 91.1366 121.229 91.6318C121.229 92.1139 121.164 92.4777 121.035 92.7233C120.907 92.9681 120.732 93.102 120.511 93.1249C120.291 93.1471 120.044 93.0671 119.771 92.885C119.577 92.756 119.413 92.6078 119.277 92.4404C119.143 92.274 119.033 92.104 118.947 91.9305C118.861 91.7551 118.795 91.5923 118.75 91.4421L118.72 91.4218V93.7345L117.722 93.0697ZM118.699 89.9391C118.699 90.1961 118.728 90.44 118.788 90.6709C118.847 90.9017 118.933 91.1081 119.045 91.2899C119.157 91.4698 119.294 91.6134 119.455 91.7205C119.617 91.8287 119.754 91.8668 119.867 91.8348C119.979 91.801 120.064 91.7076 120.122 91.5548C120.181 91.4011 120.211 91.1987 120.211 90.9473C120.211 90.6979 120.182 90.4592 120.124 90.2312C120.067 90.0033 119.982 89.7984 119.869 89.6166C119.757 89.4348 119.619 89.2892 119.455 89.18C119.292 89.0718 119.155 89.0318 119.043 89.0601C118.932 89.0893 118.847 89.1789 118.788 89.3288C118.728 89.4787 118.699 89.6822 118.699 89.9391ZM122.751 93.0739V92.9782C122.752 92.651 122.777 92.4055 122.823 92.2416C122.872 92.0788 122.942 91.9681 123.034 91.9094C123.126 91.8508 123.237 91.8159 123.367 91.8047C123.463 91.7942 123.55 91.7741 123.626 91.7444C123.703 91.7147 123.764 91.6662 123.809 91.5988C123.854 91.5296 123.877 91.434 123.877 91.3121C123.877 91.1827 123.851 91.052 123.8 90.9202C123.748 90.7883 123.679 90.667 123.591 90.5562C123.505 90.4465 123.41 90.3567 123.306 90.287C123.204 90.2194 123.108 90.1826 123.018 90.1767C122.927 90.1688 122.853 90.1982 122.795 90.2647C122.738 90.3294 122.706 90.4371 122.702 90.5878L121.747 89.951C121.754 89.5811 121.829 89.3215 121.971 89.1724C122.113 89.0214 122.301 88.9639 122.535 88.9999C122.77 89.034 123.028 89.1453 123.31 89.3336C123.621 89.5406 123.896 89.7856 124.134 90.0686C124.373 90.3497 124.56 90.6518 124.696 90.9749C124.832 91.298 124.9 91.6237 124.9 91.9519C124.9 92.1714 124.869 92.3461 124.809 92.4762C124.749 92.6055 124.666 92.6999 124.558 92.7594C124.45 92.817 124.323 92.8495 124.176 92.8567C124.053 92.8627 123.952 92.8869 123.872 92.9295C123.794 92.9732 123.736 93.0448 123.697 93.1445C123.659 93.2452 123.64 93.3869 123.638 93.5697V93.6654L122.751 93.0739ZM123.214 95.1835C123.058 95.0795 122.925 94.9248 122.814 94.7197C122.705 94.5137 122.651 94.3184 122.653 94.1337C122.651 93.9489 122.705 93.8272 122.814 93.7687C122.925 93.7113 123.058 93.7346 123.214 93.8387C123.363 93.9375 123.493 94.09 123.605 94.2962C123.718 94.5024 123.775 94.698 123.776 94.8828C123.775 95.0056 123.747 95.1008 123.694 95.1686C123.643 95.2356 123.575 95.2719 123.491 95.2776C123.406 95.2815 123.314 95.2501 123.214 95.1835Z" fill="#1D7EFF"/>
</svg>
