<svg width="84" height="121" viewBox="0 0 84 121" fill="none" xmlns="http://www.w3.org/2000/svg">
<path d="M13.2208 13.5671C13.2208 9.99698 15.6311 8.70492 18.6044 10.6813L75.2763 48.3516C78.2496 50.3279 80.6598 54.8242 80.6598 58.3944V99.6891C80.6598 103.259 78.2495 104.551 75.2763 102.575L18.6043 64.9046C15.6311 62.9283 13.2208 58.432 13.2208 54.8618V13.5671Z" fill="black" stroke="black" stroke-width="0.680456"/>
<mask id="path-2-inside-1_3966_18845" fill="white">
<path d="M9.82031 13.3788C9.82031 9.62073 12.3575 8.26068 15.4872 10.341L72.1591 48.0113C75.2889 50.0917 77.826 54.8246 77.826 58.5827V99.8774C77.826 103.635 75.2888 104.996 72.1591 102.915L15.4872 65.2449C12.3574 63.1645 9.82031 58.4316 9.82031 54.6735V13.3788Z"/>
</mask>
<path d="M9.82031 13.3788C9.82031 9.62073 12.3575 8.26068 15.4872 10.341L72.1591 48.0113C75.2889 50.0917 77.826 54.8246 77.826 58.5827V99.8774C77.826 103.635 75.2888 104.996 72.1591 102.915L15.4872 65.2449C12.3574 63.1645 9.82031 58.4316 9.82031 54.6735V13.3788Z" fill="white"/>
<path d="M15.4872 65.2449V65.5851V65.2449ZM72.1591 102.915V102.575V102.915ZM72.1591 48.0113V48.3516V48.0113ZM15.4872 10.341V10.0008V10.341ZM15.4872 10.6813L72.1591 48.3516V47.6711L15.4872 10.0008V10.6813ZM77.5426 58.3944V99.6891L78.1093 100.066V58.771L77.5426 58.3944ZM72.1591 102.575L15.4872 64.9046V65.5851L72.1591 103.255V102.575ZM10.1037 54.8619V13.5671L9.53697 13.1905V54.4852L10.1037 54.8619ZM15.4872 64.9046C12.5139 62.9283 10.1037 58.432 10.1037 54.8619L9.53697 54.4852C9.53697 58.4311 12.201 63.4007 15.4872 65.5851V64.9046ZM77.5426 99.6891C77.5426 103.259 75.1324 104.551 72.1591 102.575V103.255C75.4453 105.44 78.1093 104.012 78.1093 100.066L77.5426 99.6891ZM72.1591 48.3516C75.1324 50.3279 77.5426 54.8242 77.5426 58.3944L78.1093 58.771C78.1093 54.8251 75.4453 49.8555 72.1591 47.6711V48.3516ZM15.4872 10.0008C12.201 7.81643 9.53697 9.24449 9.53697 13.1905L10.1037 13.5671C10.1037 9.99698 12.5139 8.70492 15.4872 10.6813V10.0008Z" fill="black" mask="url(#path-2-inside-1_3966_18845)"/>
<path d="M46.6145 72.7911C45.0211 73.5859 42.4897 71.9033 40.8964 68.9902L13.1405 18.2452C10.8551 14.0669 12.4228 10.4612 15.6052 12.5765L71.9056 49.9999C75.0879 52.1152 76.6557 57.8051 74.3703 58.9452L46.6145 72.7911Z" fill="black" stroke="black" stroke-width="0.340228"/>
<path d="M43.1535 72.7911C41.5602 73.5859 39.0288 71.9033 37.4354 68.9902L9.67952 18.2452C7.39413 14.0669 8.96188 10.4612 12.1442 12.5765L68.4447 49.9999C71.627 52.1152 73.1947 57.8051 70.9094 58.9452L43.1535 72.7911Z" fill="white" stroke="black" stroke-width="0.340228"/>
<ellipse rx="43.5894" ry="4.92707" transform="matrix(0.834633 0.550806 -0.553065 0.833138 42.1015 92.8877)" fill="#D9D9D9" fill-opacity="0.3"/>
</svg>
