<svg width="99" height="32" viewBox="0 0 99 32" fill="none" xmlns="http://www.w3.org/2000/svg">
<path d="M3.93981 11.6846H9.27508C9.27508 11.6846 10.1123 4.98977 16.0744 5.82628C22.0372 6.66348 18.8469 13.5673 15.3424 15.241C11.8379 16.9147 1.99295 22.5115 1.06288 25.5448C0.132812 28.5788 0.132813 30.7394 0.132813 30.7394H21.4623L22.8744 25.5974H8.59494C8.59494 25.5974 13.0411 22.25 19.0039 18.5365C24.9668 14.8231 25.7514 10.9526 24.3392 6.1923C22.927 1.43201 17.9578 0.0307614 12.8322 0.941028C7.70584 1.85129 3.83534 6.55832 3.93981 11.6846Z" fill="black"/>
<path d="M42.0547 1.19233C36.2606 -0.84945 29.2468 4.06926 26.389 12.179C23.5312 20.2888 25.9117 28.5181 31.7051 30.5599C37.4993 32.6016 44.5131 27.6829 47.3709 19.5732C50.2287 11.4634 47.8489 3.23412 42.0547 1.19233ZM42.7362 17.4679C41.5241 21.9973 38.0668 27.1353 33.9484 25.8569C29.9331 24.6107 29.804 18.8602 31.0168 14.3308C32.2289 9.80128 35.887 4.67292 39.7637 5.78054C43.9606 6.98034 43.9483 12.9377 42.7362 17.4679Z" fill="black"/>
<path d="M49.5547 1.55469H55.9477L61.4571 30.0782H55.5059L49.5547 1.55469Z" fill="black"/>
<path d="M60.6172 16.6911L62.4309 25.5138L74.9841 1.90625H68.4982L60.6172 16.6911Z" fill="black"/>
<path d="M92.3526 11.1804H98.4199C98.4199 11.1804 96.9551 -0.0480101 86.4246 0.300937C75.894 0.649883 70.175 12.1228 71.9887 21.4324C73.8024 30.7419 90.2602 37.6123 97.0254 19.8283C94.3752 19.8283 90.6092 19.9676 90.6092 19.9676C90.6092 19.9676 89.3193 25.5118 83.4957 25.1984C77.4674 24.8733 74.8055 14.013 82.845 7.38708C83.9095 6.50959 85.2466 6.0111 86.626 6.02885C90.3094 6.07597 92.0487 9.59822 92.3526 11.1804Z" fill="black"/>
</svg>
