<svg width="240" height="304" viewBox="0 0 240 304" fill="none" xmlns="http://www.w3.org/2000/svg">
<path d="M112.774 158.759L4.67915 220.412C2.53995 221.633 2.44654 224.683 4.50708 226.031L118.88 300.895C119.917 301.574 121.247 301.613 122.323 300.997L235.139 236.381C237.319 235.132 237.355 232 235.204 230.701L116.109 158.8C115.087 158.183 113.811 158.167 112.774 158.759Z" fill="#D9D9D9" fill-opacity="0.4"/>
<path d="M30.8047 201.75L30.8047 191.824L218.401 197.84L218.401 205.274C218.401 206.136 217.929 206.928 217.172 207.34L124.705 257.669C123.975 258.067 123.089 258.049 122.375 257.624L31.9542 203.773C31.2414 203.348 30.8047 202.58 30.8047 201.75Z" fill="#E7E6E6" stroke="black" stroke-width="0.685417"/>
<path d="M128.762 139.252L31.7176 190.585C30.0944 191.444 30.0365 193.748 31.6144 194.687L123.067 249.148C123.776 249.57 124.654 249.59 125.381 249.201L217.396 199.988C218.972 199.145 219.07 196.923 217.575 195.944L131.152 139.363C130.435 138.894 129.519 138.851 128.762 139.252Z" fill="white" stroke="black" stroke-width="0.117676"/>
<path d="M81.0127 198.827L73.3322 193.451L74.0149 152.785L124.32 122.618L185.153 144.817L184.298 193.983L122.526 225.775L93.6217 206.223L93.9529 188.594C93.9529 188.594 92.5025 180.895 88.2429 179.19C83.9834 177.485 81.303 182.134 81.303 182.134L81.0127 198.827Z" fill="#B3AE9E" fill-opacity="0.3" stroke="black" stroke-width="0.235352"/>
<path d="M50.3594 190.201L51.2734 137.645L61.9425 144.485L61.1487 190.129C61.1487 190.129 59.4232 192.186 55.72 192.122C52.0168 192.057 50.3594 190.201 50.3594 190.201Z" fill="white" stroke="black" stroke-width="0.117676"/>
<path d="M100.242 221.861L101.156 169.305L111.825 176.145L111.031 221.79C111.031 221.79 109.306 223.847 105.603 223.782C101.9 223.717 100.242 221.861 100.242 221.861Z" fill="white" stroke="black" stroke-width="0.117676"/>
<path d="M66.5391 201.705L67.4531 149.148L78.1222 155.988L77.3283 201.633C77.3283 201.633 75.6029 203.69 71.8997 203.626C68.1965 203.561 66.5391 201.705 66.5391 201.705Z" fill="white" stroke="black" stroke-width="0.117676"/>
<path d="M116.414 233.365L117.328 180.809L127.997 186.943L127.203 233.294C127.203 233.294 125.478 235.351 121.775 235.286C118.072 235.221 116.414 233.365 116.414 233.365Z" fill="white" stroke="black" stroke-width="0.117676"/>
<path d="M137.656 222.518L138.57 169.961L149.239 176.801L148.446 222.446C148.446 222.446 146.72 224.503 143.017 224.438C139.314 224.373 137.656 222.518 137.656 222.518Z" fill="white" stroke="black" stroke-width="0.117676"/>
<path d="M158.906 211.67L159.82 159.113L170.489 165.953L169.696 211.598C169.696 211.598 167.97 213.655 164.267 213.59C160.564 213.525 158.906 211.67 158.906 211.67Z" fill="white" stroke="black" stroke-width="0.117676"/>
<path d="M177.289 200.776L178.203 148.219L188.872 155.059L188.078 200.704C188.078 200.704 186.353 202.761 182.65 202.696C178.947 202.631 177.289 200.776 177.289 200.776Z" fill="white" stroke="black" stroke-width="0.117676"/>
<path d="M43.9062 112.609L43.9062 135.509C43.9062 136.334 44.3385 137.099 45.0455 137.525L138.289 193.698L138.64 173.484L90.7231 130.407C90.5053 130.211 90.2528 130.058 89.9787 129.955L43.9062 112.609Z" fill="white" stroke="black" stroke-width="0.588379"/>
<path d="M199.647 140.014L198.988 160.863C198.961 161.715 198.475 162.486 197.717 162.878L138.157 193.695L138.509 173.481L199.647 140.014Z" fill="white" stroke="black" stroke-width="0.588379"/>
<path d="M103.471 83.9111L45.1977 110.071C43.2563 110.943 43.377 113.739 45.3863 114.44L90.2644 130.108L152.182 97.4056L105.088 83.7972C104.552 83.6425 103.979 83.6828 103.471 83.9111Z" fill="white" stroke="black" stroke-width="0.470703"/>
<path d="M80.9939 143.844L82.6671 144.855L82.7454 144.903L82.7465 145.027C82.7484 145.271 82.7401 145.497 82.7207 145.707C82.6605 146.359 82.4508 146.945 82.1 147.47C81.7581 147.982 81.2515 148.345 80.5867 148.568L81.1854 151.533C81.9421 151.347 82.6626 151.457 83.345 151.869C83.764 152.122 84.3859 152.67 85.206 153.5L85.206 153.5C86.0221 154.328 86.6781 154.889 87.1764 155.19C87.5648 155.425 87.9731 155.596 88.4017 155.704C88.7922 155.802 89.1442 155.84 89.4578 155.82L88.8475 152.89C88.1295 152.869 87.5472 152.729 87.1061 152.462C86.8456 152.304 86.3805 151.897 85.7189 151.254C85.3442 150.893 85.1238 150.687 85.051 150.628C84.8998 150.506 84.727 150.386 84.5321 150.268C84.0709 149.989 83.6847 149.864 83.3706 149.884L83.289 149.599C83.8887 149.105 84.288 148.666 84.4954 148.284L84.4954 148.284C84.7025 147.903 84.8324 147.43 84.8849 146.861C84.8994 146.705 84.9059 146.542 84.9041 146.376L84.9023 146.206L85.0089 146.271L87.1742 147.58L87.3771 145.383L84.8217 143.838L84.7612 143.802L84.7455 143.703C84.6646 143.197 84.6068 142.658 84.5719 142.087M80.9939 143.844L84.6635 142.108M80.9939 143.844L81.1968 141.647L82.4374 142.397L82.5721 142.479L82.5396 142.259C82.3916 141.257 82.3589 140.314 82.4406 139.429C82.5129 138.647 82.7434 137.996 83.137 137.476L83.1371 137.476C83.5281 136.958 84.0401 136.692 84.6771 136.681L84.6542 136.532M80.9939 143.844L84.6771 136.681M84.5719 142.087L84.6635 142.108M84.5719 142.087C84.5719 142.087 84.5719 142.087 84.5719 142.087L84.6635 142.108M84.5719 142.087C84.5371 141.518 84.5337 141.065 84.5641 140.736C84.6235 140.092 84.8344 139.65 85.1932 139.418M84.6635 142.108C84.629 141.544 84.6264 141.105 84.6553 140.791C84.7111 140.187 84.9072 139.776 85.2439 139.558M85.1932 139.418C85.1932 139.418 85.1932 139.418 85.1932 139.418L85.2439 139.558M85.1932 139.418C85.5509 139.186 85.9685 139.219 86.4402 139.504C86.8818 139.771 87.2398 140.18 87.5069 140.737L87.5069 140.737C87.7628 141.271 87.9073 141.955 87.9512 142.776M85.1932 139.418L85.2439 139.558M85.2439 139.558L87.9512 142.776M87.9512 142.776L87.8666 142.742L87.8656 142.886M87.9512 142.776L87.4392 140.809C87.6894 141.33 87.8317 142.023 87.8656 142.886M87.9512 142.776C87.9536 142.821 87.9557 142.866 87.9575 142.912L87.8656 142.886M87.9512 142.776L90.1106 143.645M87.8656 142.886L90.1135 143.791C90.1129 143.742 90.1119 143.694 90.1106 143.645M84.9962 146.409L85.0885 146.465C85.0884 146.457 85.0884 146.449 85.0883 146.442L84.9962 146.409ZM84.9962 146.409L84.9834 146.547L84.9957 146.554C84.9966 146.506 84.9967 146.458 84.9962 146.409ZM90.1106 143.645C90.0738 142.264 89.7767 141.045 89.223 139.978C88.6482 138.872 87.8152 137.98 86.7138 137.315C85.9949 136.88 85.3162 136.669 84.6771 136.681M90.1106 143.645L90.2029 143.682C90.1661 142.266 89.8611 141.005 89.2876 139.9C88.6945 138.758 87.8407 137.85 86.7266 137.176C85.9969 136.735 85.306 136.521 84.6542 136.532M84.6771 136.681L82.4629 142.121L82.4275 142.1C82.2963 141.139 82.2703 140.23 82.3494 139.374C82.4245 138.561 82.6642 137.887 83.0692 137.352C83.4738 136.817 84.0021 136.544 84.6542 136.532M84.6771 136.681L84.6542 136.532M87.2527 147.773L87.1615 147.718L87.2654 147.635L87.2527 147.773ZM87.4811 145.3L87.4683 145.438L87.3899 145.245L87.4811 145.3Z" stroke="black" stroke-width="0.246139"/>
<path d="M80.3689 144.402L82.0421 145.414L82.1204 145.461L82.1215 145.586C82.1234 145.829 82.1151 146.056 82.0957 146.266C82.0355 146.917 81.8258 147.504 81.475 148.028C81.1331 148.54 80.6265 148.904 79.9617 149.127L80.5604 152.091C81.3171 151.905 82.0376 152.015 82.72 152.428C83.139 152.681 83.7609 153.228 84.581 154.059L84.581 154.059C85.3971 154.886 86.0531 155.447 86.5514 155.748C86.9398 155.983 87.3481 156.155 87.7767 156.263C88.1672 156.361 88.5192 156.399 88.8328 156.378L88.2225 153.448C87.5045 153.428 86.9222 153.287 86.4811 153.021C86.2206 152.863 85.7555 152.456 85.0939 151.812C84.7192 151.451 84.4988 151.245 84.426 151.186C84.2748 151.064 84.102 150.944 83.9071 150.826C83.4459 150.547 83.0597 150.423 82.7456 150.442L82.664 150.158C83.2637 149.664 83.663 149.225 83.8704 148.843L83.8704 148.843C84.0775 148.462 84.2074 147.989 84.2599 147.42C84.2744 147.263 84.2809 147.101 84.2791 146.934L84.2773 146.765L84.3839 146.829L86.5492 148.138L86.7521 145.942L84.1967 144.397L84.1362 144.36L84.1205 144.262C84.0396 143.755 83.9818 143.216 83.9469 142.645M80.3689 144.402L84.0385 142.666M80.3689 144.402L80.5718 142.206L81.8124 142.956L81.9471 143.037L81.9146 142.818C81.7666 141.815 81.7339 140.873 81.8156 139.988C81.8879 139.206 82.1184 138.554 82.512 138.034L82.5121 138.034C82.9031 137.517 83.4151 137.251 84.0521 137.239L84.0292 137.091M80.3689 144.402L84.0521 137.239M83.9469 142.645L84.0385 142.666M83.9469 142.645C83.9469 142.645 83.9469 142.645 83.9469 142.645L84.0385 142.666M83.9469 142.645C83.9121 142.076 83.9087 141.624 83.9391 141.295C83.9985 140.651 84.2094 140.209 84.5682 139.977M84.0385 142.666C84.004 142.102 84.0014 141.663 84.0303 141.35C84.0861 140.746 84.2822 140.335 84.6189 140.117M84.5682 139.977C84.5682 139.977 84.5682 139.977 84.5682 139.977L84.6189 140.117M84.5682 139.977C84.9259 139.745 85.3435 139.777 85.8152 140.062C86.2568 140.329 86.6148 140.739 86.8819 141.295L86.8819 141.295C87.1378 141.829 87.2823 142.514 87.3262 143.334M84.5682 139.977L84.6189 140.117M84.6189 140.117L87.3262 143.334M87.3262 143.334L87.2416 143.3L87.2406 143.444M87.3262 143.334L86.8142 141.367C87.0644 141.889 87.2067 142.581 87.2406 143.444M87.3262 143.334C87.3286 143.379 87.3307 143.425 87.3325 143.471L87.2406 143.444M87.3262 143.334L89.4856 144.204M87.2406 143.444L89.4885 144.349C89.4879 144.301 89.4869 144.252 89.4856 144.204M84.3712 146.967L84.4635 147.023C84.4634 147.016 84.4634 147.008 84.4633 147L84.3712 146.967ZM84.3712 146.967L84.3584 147.105L84.3707 147.113C84.3716 147.065 84.3717 147.016 84.3712 146.967ZM89.4856 144.204C89.4488 142.822 89.1517 141.603 88.598 140.537C88.0232 139.43 87.1902 138.539 86.0888 137.873C85.3699 137.439 84.6912 137.228 84.0521 137.239M89.4856 144.204L89.5779 144.241C89.5411 142.824 89.2361 141.563 88.6626 140.459C88.0695 139.317 87.2157 138.409 86.1016 137.735C85.3719 137.294 84.681 137.079 84.0292 137.091M84.0521 137.239L81.8379 142.68L81.8025 142.658C81.6713 141.697 81.6453 140.789 81.7244 139.933C81.7995 139.12 82.0392 138.445 82.4442 137.91C82.8488 137.375 83.3771 137.102 84.0292 137.091M84.0521 137.239L84.0292 137.091M86.6277 148.332L86.5365 148.276L86.6404 148.194L86.6277 148.332ZM86.8561 145.859L86.8433 145.997L86.7648 145.804L86.8561 145.859Z" fill="black" stroke="black" stroke-width="0.246139"/>
<path d="M198.777 138.159L152.181 97.4065L90.2641 130.109L137.251 172.776C137.986 173.444 139.062 173.578 139.939 173.111L198.334 142.008C199.788 141.233 200.017 139.243 198.777 138.159Z" fill="white" stroke="black" stroke-width="0.470703"/>
<path d="M131.521 142.047L123.975 135.001L154.671 118.841L162.477 125.892L131.521 142.047Z" fill="black" stroke="black" stroke-width="0.117676"/>
<path d="M131.8 140.747L125.79 135.032L154.389 119.879L160.918 125.602L131.8 140.747Z" fill="#8B8B8B" stroke="black" stroke-width="0.0470703"/>
<path d="M141.356 10.3164L141.357 10.3162C141.401 10.282 141.466 10.2317 141.55 10.1673C141.72 10.0385 141.966 9.85357 142.275 9.62935C142.893 9.18085 143.759 8.57539 144.756 7.94757C146.753 6.68918 149.254 5.35118 151.311 4.99468C156.856 4.03382 161.552 6.9698 165.22 10.9638C168.887 14.9566 171.506 19.9868 172.889 23.1596C175.578 29.3287 177.152 36.0108 177.241 42.0503C177.33 48.092 175.932 53.4758 172.695 57.0664C172.112 57.713 171.155 58.3263 170.033 58.8837C168.913 59.4398 167.641 59.9353 166.437 60.3497C165.216 60.7697 164.068 61.1058 163.225 61.3369C162.804 61.4524 162.459 61.5416 162.219 61.602C162.099 61.6321 162.006 61.6551 161.942 61.6705L161.94 61.6711L161.164 59.735L141.356 10.3164Z" fill="white" stroke="black" stroke-width="0.225438"/>
<path d="M171.054 27.72C173.699 35.4018 174.228 42.992 172.957 49.0489C171.684 55.1111 168.62 59.5961 164.113 61.1594C159.606 62.7226 154.437 61.0937 149.706 57.1138C144.98 53.1374 140.727 46.8389 138.082 39.157C135.436 31.4751 134.907 23.885 136.179 17.8281C137.451 11.7658 140.516 7.28092 145.022 5.71764C149.529 4.15436 154.699 5.78327 159.429 9.76315C164.156 13.7396 168.409 20.0381 171.054 27.72Z" fill="#FDBF5F" stroke="black" stroke-width="0.450876"/>
<path d="M148.109 6.38672C148.109 6.38672 163.372 8.4035 169.259 28.1427C175.145 47.882 167.801 56.5221 167.801 56.5221" stroke="black" stroke-width="0.135263"/>
<path d="M137.594 15.5195C137.594 15.5195 134.483 26.9561 139.201 39.5164C143.92 52.0768 151.038 56.5506 151.038 56.5506" stroke="black" stroke-width="0.135263"/>
<path d="M159.711 45.3606L160.997 49.841L159.386 49.935L158.076 45.3437L158.026 45.1696L157.846 45.1813C157.309 45.2162 156.757 45.2408 156.188 45.2549L155.896 45.2622L155.976 45.5437L157.266 50.063L155.655 50.1569L154.34 45.5704L154.291 45.399L154.113 45.408C153.87 45.4204 152.822 45.4777 151.835 45.5318L150.509 45.6048L150.124 45.6261L149.63 42.6301C149.773 42.6248 149.959 42.6176 150.143 42.6093C150.335 42.6007 150.526 42.591 150.669 42.5811C150.739 42.5762 150.801 42.571 150.846 42.5654C150.867 42.5629 150.893 42.5593 150.917 42.5534L150.917 42.5532C150.92 42.5525 150.926 42.551 150.935 42.5483C151.099 42.5287 151.239 42.471 151.35 42.377C151.47 42.2757 151.541 42.1456 151.582 42.0158C151.66 41.7645 151.634 41.4826 151.599 41.2909L151.597 41.2796L151.594 41.2687L147.888 28.3718L147.885 28.3584L147.879 28.3455C147.631 27.7649 147.118 26.9859 146.147 27.0239C146.14 27.0226 146.134 27.0219 146.131 27.0215C146.107 27.0186 146.081 27.018 146.059 27.0178C146.012 27.0175 145.949 27.0196 145.877 27.0231C145.734 27.03 145.542 27.043 145.353 27.0571C145.163 27.0713 144.973 27.0867 144.831 27.0986L144.777 27.1031L144.03 24.4899L144.338 24.4726C144.696 24.4525 145.177 24.4252 145.672 24.3966C146.659 24.3395 147.71 24.2768 147.938 24.2553L148.21 24.2297L148.134 23.9671L146.863 19.5344L148.474 19.4404L149.754 23.9299L149.805 24.1087L149.99 24.0919C150.336 24.0603 150.678 24.0501 151.025 24.0398C151.229 24.0337 151.434 24.0276 151.643 24.017L151.927 24.0027L151.849 23.7287L150.593 19.3124L152.205 19.2185L153.505 23.7509L153.548 23.9035L153.706 23.9131C155.061 23.9951 156.305 24.3392 157.364 25.0386C158.421 25.7364 159.308 26.7969 159.938 28.3359C160.811 30.7636 160.423 32.2596 159.563 33.0836L159.308 33.3279L159.635 33.457C160.469 33.7863 161.454 34.5702 162.301 35.594C163.147 36.6153 163.835 37.8506 164.098 39.0612C164.527 41.1001 164.225 42.5642 163.473 43.5297C162.72 44.4963 161.477 45.0119 159.92 45.0716L159.631 45.0826L159.711 45.3606ZM160.39 38.5639L160.388 38.5547L160.386 38.5457C160.106 37.5744 159.612 36.8882 158.998 36.4133C158.388 35.9407 157.671 35.6862 156.958 35.5569C155.809 35.3486 154.624 35.4608 153.859 35.5332C153.681 35.5501 153.526 35.5648 153.399 35.5728L153.117 35.5907L153.197 35.8627L155.046 42.1725L155.096 42.345L155.275 42.3334C155.44 42.3228 155.652 42.3236 155.905 42.326C155.93 42.3262 155.956 42.3265 155.982 42.3267C156.212 42.329 156.469 42.3316 156.737 42.3264C157.333 42.3147 158.005 42.2647 158.612 42.0805C159.221 41.8959 159.786 41.5699 160.137 40.9924C160.489 40.4146 160.602 39.6249 160.39 38.5639ZM156.947 29.7176L156.944 29.704L156.939 29.6909C156.616 28.7739 156.153 28.1307 155.611 27.6886C155.07 27.2471 154.463 27.0157 153.867 26.9036C153.273 26.7917 152.686 26.7979 152.179 26.8336C151.928 26.8513 151.694 26.8765 151.489 26.8985L151.485 26.899C151.276 26.9215 151.104 26.9399 150.965 26.9459L150.677 26.9584L150.758 27.2363L152.441 32.9632L152.491 33.134L152.668 33.1241C152.805 33.1165 152.982 33.1186 153.196 33.1217L153.224 33.1221C153.428 33.1251 153.66 33.1285 153.902 33.1236C154.408 33.1135 154.982 33.0675 155.5 32.8991C156.02 32.7298 156.502 32.4305 156.791 31.9034C157.079 31.3782 157.154 30.6666 156.947 29.7176Z" fill="white" stroke="black" stroke-width="0.450876"/>
<path d="M157.906 45.3606L159.192 49.841L157.582 49.935L156.271 45.3437L156.221 45.1696L156.041 45.1813C155.504 45.2162 154.952 45.2408 154.383 45.2549L154.091 45.2622L154.172 45.5437L155.462 50.063L153.851 50.1569L152.536 45.5704L152.486 45.399L152.309 45.408C152.065 45.4204 151.017 45.4777 150.031 45.5318L148.705 45.6048L148.319 45.6261L147.825 42.6301C147.968 42.6248 148.154 42.6176 148.339 42.6093C148.53 42.6007 148.722 42.591 148.864 42.5811C148.935 42.5762 148.997 42.571 149.042 42.5654C149.062 42.5629 149.088 42.5593 149.112 42.5534L149.113 42.5532C149.115 42.5525 149.122 42.551 149.13 42.5483C149.294 42.5287 149.434 42.471 149.545 42.377C149.665 42.2757 149.736 42.1456 149.777 42.0158C149.855 41.7645 149.829 41.4826 149.794 41.2909L149.792 41.2796L149.789 41.2687L146.084 28.3718L146.08 28.3584L146.074 28.3455C145.827 27.7649 145.313 26.9859 144.342 27.0239C144.335 27.0226 144.329 27.0219 144.326 27.0215C144.302 27.0186 144.276 27.018 144.254 27.0178C144.207 27.0175 144.144 27.0196 144.073 27.0231C143.929 27.03 143.738 27.043 143.548 27.0571C143.358 27.0713 143.168 27.0867 143.026 27.0986L142.972 27.1031L142.225 24.4899L142.534 24.4726C142.891 24.4525 143.372 24.4252 143.867 24.3966C144.854 24.3395 145.906 24.2768 146.134 24.2553L146.405 24.2297L146.33 23.9671L145.058 19.5344L146.669 19.4404L147.95 23.9299L148.001 24.1087L148.186 24.0919C148.532 24.0603 148.874 24.0501 149.22 24.0398C149.424 24.0337 149.629 24.0276 149.838 24.017L150.122 24.0027L150.044 23.7287L148.788 19.3124L150.4 19.2185L151.7 23.7509L151.744 23.9035L151.902 23.9131C153.256 23.9951 154.5 24.3392 155.559 25.0386C156.616 25.7364 157.503 26.7969 158.133 28.3359C159.007 30.7636 158.619 32.2596 157.758 33.0836L157.503 33.3279L157.83 33.457C158.664 33.7863 159.649 34.5702 160.497 35.594C161.342 36.6153 162.03 37.8506 162.293 39.0612C162.722 41.1001 162.421 42.5642 161.668 43.5297C160.915 44.4963 159.672 45.0119 158.115 45.0716L157.827 45.0826L157.906 45.3606ZM158.585 38.5639L158.583 38.5547L158.581 38.5457C158.301 37.5744 157.807 36.8882 157.194 36.4133C156.583 35.9407 155.867 35.6862 155.153 35.5569C154.004 35.3486 152.82 35.4608 152.054 35.5332C151.877 35.5501 151.722 35.5648 151.595 35.5728L151.312 35.5907L151.392 35.8627L153.241 42.1725L153.291 42.345L153.47 42.3334C153.635 42.3228 153.847 42.3236 154.1 42.326C154.125 42.3262 154.151 42.3265 154.177 42.3267C154.407 42.329 154.664 42.3316 154.933 42.3264C155.529 42.3147 156.2 42.2647 156.807 42.0805C157.416 41.8959 157.981 41.5699 158.333 40.9924C158.684 40.4146 158.797 39.6249 158.585 38.5639ZM155.142 29.7176L155.139 29.704L155.135 29.6909C154.812 28.7739 154.348 28.1307 153.807 27.6886C153.266 27.2471 152.659 27.0157 152.063 26.9036C151.468 26.7917 150.881 26.7979 150.374 26.8336C150.123 26.8513 149.889 26.8765 149.684 26.8985L149.68 26.899C149.471 26.9215 149.299 26.9399 149.161 26.9459L148.872 26.9584L148.954 27.2363L150.636 32.9632L150.686 33.134L150.864 33.1241C151 33.1165 151.177 33.1186 151.391 33.1217L151.42 33.1221C151.624 33.1251 151.855 33.1285 152.098 33.1236C152.604 33.1135 153.177 33.0675 153.695 32.8991C154.215 32.7298 154.697 32.4305 154.986 31.9034C155.274 31.3782 155.35 30.6666 155.142 29.7176Z" fill="black" stroke="black" stroke-width="0.450876"/>
<path d="M150.047 117.883C150.047 124.347 145.797 132.427 140.56 135.931C135.322 139.436 131.073 137.043 131.073 130.579C131.073 124.115 135.322 116.036 140.56 112.531C145.797 109.027 150.047 111.419 150.047 117.883Z" fill="#14044D" stroke="black" stroke-width="0.21283"/>
<path d="M151.656 118.772C151.656 125.175 147.353 133.245 142.045 136.796C136.738 140.347 132.435 138.037 132.435 131.633C132.435 125.23 136.738 117.16 142.045 113.609C147.353 110.058 151.656 112.369 151.656 118.772Z" fill="#716B94" stroke="black" stroke-width="0.425661"/>
<path d="M143.291 131.495L140.094 128.085L143.291 128.285L146.689 123.672L143.291 131.495Z" stroke="black" stroke-width="0.132448"/>
<path d="M139.695 127.283L143.093 118.457L146.29 122.87L142.893 127.483L139.695 127.283Z" stroke="black" stroke-width="0.132448"/>
<path d="M144.096 131.495L140.898 128.085L144.096 128.285L147.493 123.672L144.096 131.495Z" fill="white" stroke="black" stroke-width="0.264895"/>
<path d="M140.5 127.283L143.897 118.457L147.095 122.87L143.698 127.483L140.5 127.283Z" fill="white" stroke="black" stroke-width="0.264895"/>
<path d="M162.053 125.989L131.649 142.053L139.042 150.401L170.14 132.718L162.053 125.989Z" fill="white"/>
<path d="M134.51 139.273L134.961 140.339L161.573 126.454L160.887 125.501L134.51 139.273Z" fill="black"/>
<path d="M135.458 139.994L151.721 131.552" stroke="black" stroke-width="0.117676"/>
<path d="M135.602 138.77L151.472 130.529" stroke="black" stroke-width="0.117676"/>
<path d="M142.309 87.7295C142.309 97.0789 136.026 100.453 128.276 95.2677C120.527 90.0822 114.243 78.2997 114.243 68.9503C114.243 59.6009 120.527 56.2267 128.276 61.4121C136.026 66.5976 142.309 78.3801 142.309 87.7295Z" fill="white" stroke="black" stroke-width="0.360343"/>
<path d="M140.003 88.7113C140.003 97.9616 133.787 101.299 126.12 96.1695C118.453 91.0396 112.237 79.3829 112.237 70.1326C112.237 60.8822 118.453 57.5444 126.12 62.6743C133.787 67.8043 140.003 79.461 140.003 88.7113Z" fill="#1D7EFF" stroke="black" stroke-width="0.720686"/>
<path d="M127.427 78.1402L127.427 78.1405C127.476 78.3486 127.619 78.5583 127.763 78.6546L128.369 79.0601C128.562 79.1894 128.709 79.1102 128.709 78.8777V78.8317V78.8236L128.708 78.8148C128.554 77.6945 127.877 76.4494 127.005 75.739V74.7241C127.005 74.4841 126.854 74.2197 126.643 74.0283L126.636 74.0218L126.628 74.0169L126.06 73.6369C125.861 73.5036 125.726 73.5965 125.685 73.8229L125.683 73.8306V73.8393V74.8114C124.555 74.2684 123.828 74.7122 123.828 75.8858C123.828 76.6596 124.023 77.345 124.434 78.0059C124.838 78.6572 125.441 79.2685 126.238 79.9164C126.767 80.3843 127.102 80.7308 127.304 81.0411C127.403 81.1933 127.47 81.3356 127.512 81.4801C127.555 81.6259 127.576 81.7804 127.576 81.9551C127.576 82.6198 127.095 82.7765 126.401 82.3123C125.919 81.9896 125.606 81.6574 125.402 81.3264C125.198 80.9967 125.091 80.6509 125.036 80.2844L125.036 80.2844L125.035 80.2796C124.989 80.0276 124.847 79.8115 124.698 79.7116L124.054 79.2812C123.861 79.1519 123.714 79.2311 123.714 79.4636V79.5096V79.5167L123.715 79.5244C123.793 80.163 123.989 80.8039 124.329 81.4243C124.657 82.0234 125.116 82.5939 125.72 83.1204V84.1396C125.72 84.3796 125.872 84.644 126.083 84.8355L126.09 84.842L126.098 84.8469L126.665 85.2268C126.865 85.3602 127 85.2673 127.041 85.0408L127.043 85.0332V85.0244V84.0037C128.172 84.5023 128.935 84.0358 128.935 82.7739C128.935 81.9547 128.73 81.2511 128.31 80.5831C127.895 79.9252 127.282 79.3185 126.485 78.6704C125.919 78.2008 125.597 77.8503 125.415 77.5516C125.241 77.2649 125.187 77.0099 125.187 76.7045C125.187 76.4082 125.274 76.2314 125.444 76.1814C125.615 76.1307 125.88 76.2079 126.248 76.4544C126.582 76.6775 126.831 76.9114 127.018 77.178C127.203 77.4423 127.336 77.7515 127.427 78.1402Z" stroke="black" stroke-width="0.179744"/>
<path d="M124.475 84.5098L124.467 84.4984L124.459 84.4887C121.545 81.2774 120.051 76.357 121.134 73.6133L121.135 73.6121C121.695 72.0951 122.927 71.4781 124.459 71.8269L124.459 71.8275L124.467 71.828C124.552 71.8339 124.621 71.8129 124.667 71.7522C124.714 71.6916 124.735 71.5967 124.735 71.4702V70.8313C124.735 70.7251 124.713 70.6108 124.664 70.4969C124.615 70.3819 124.542 70.2768 124.451 70.1891L124.442 70.1806L124.433 70.1745L124.432 70.1737C124.413 70.1611 124.38 70.1386 124.345 70.1225C124.316 70.109 124.277 70.0955 124.244 70.104C120.618 69.0695 118.635 72.3984 119.781 77.545L119.781 77.5455C120.47 80.5883 122.113 83.6727 124.254 85.9367C124.346 86.0523 124.444 86.119 124.526 86.1281C124.604 86.1368 124.662 86.0932 124.689 86.0063C124.71 85.9898 124.723 85.9651 124.729 85.9317C124.735 85.8984 124.735 85.8561 124.735 85.8152L124.735 85.8093V85.1704C124.735 85.075 124.697 84.9515 124.651 84.8397C124.603 84.7253 124.54 84.6062 124.475 84.5098ZM128.252 74.4009L128.26 74.4123L128.268 74.422C131.182 77.6333 132.676 82.5537 131.592 85.2974L131.592 85.2986C131.032 86.8156 129.8 87.4326 128.268 87.0838L128.268 87.0832L128.26 87.0827C128.175 87.0768 128.106 87.0978 128.059 87.1585C128.013 87.2191 127.992 87.314 127.992 87.4404V88.0794C127.992 88.1856 128.014 88.2999 128.063 88.4138C128.112 88.5288 128.185 88.6339 128.276 88.7216L128.285 88.7301L128.294 88.7361L128.295 88.737C128.314 88.7496 128.347 88.7721 128.382 88.7882C128.411 88.8017 128.45 88.8152 128.483 88.8067C132.109 89.8412 134.092 86.5123 132.946 81.3657L132.946 81.3657C132.257 78.2773 130.576 75.168 128.474 72.9293C128.381 72.8136 128.283 72.7468 128.201 72.7376C128.123 72.7289 128.065 72.7725 128.037 72.8595C128.017 72.876 128.004 72.9007 127.998 72.9341C127.992 72.9674 127.992 73.0096 127.992 73.0506L127.992 73.0564V73.6954C127.992 73.8088 128.027 73.9401 128.075 74.0619C128.123 74.184 128.187 74.3042 128.252 74.4009Z" stroke="black" stroke-width="0.179744"/>
<path d="M125.39 79.3001C124.254 78.3572 124.027 77.8403 124.027 77.2014C124.027 76.5625 124.406 76.405 125.162 76.9114C125.844 77.3673 126.223 77.8948 126.412 78.7062C126.45 78.8687 126.563 79.0357 126.677 79.1116L127.283 79.5171C127.435 79.6186 127.548 79.5576 127.548 79.3746V79.3286L125.39 79.3001ZM125.39 79.3001L125.409 79.1353C125.409 79.135 125.409 79.1347 125.408 79.1344C125.408 79.1341 125.408 79.1338 125.407 79.1335L125.39 79.3001ZM124.523 75.2322C123.401 74.7218 122.667 75.1785 122.667 76.3827C122.667 77.177 122.869 77.8959 123.302 78.5927C123.722 79.2704 124.342 79.8949 125.141 80.5448C125.669 81.0119 125.987 81.3451 126.174 81.6318C126.264 81.769 126.321 81.8931 126.358 82.0176C126.395 82.1448 126.415 82.2853 126.415 82.452C126.415 83.0503 125.983 83.2162 125.315 82.7693C124.843 82.4531 124.549 82.1358 124.362 81.8337C124.177 81.5342 124.076 81.2152 124.023 80.8627L124.024 80.8628L124.022 80.853C123.968 80.5577 123.797 80.2925 123.612 80.1686L122.968 79.7382C122.734 79.5812 122.554 79.6786 122.554 79.9605V80.0065V80.0208L122.556 80.0361C122.636 80.6916 122.837 81.3557 123.191 82.0014C123.521 82.6034 123.974 83.1713 124.56 83.6927V84.6365C124.56 84.9335 124.75 85.2493 124.983 85.4608L124.997 85.4738L125.012 85.4836L125.58 85.8636C125.826 86.0288 125.983 85.9039 126.029 85.6541L126.031 85.6388V85.6213V84.6743L124.523 75.2322ZM124.523 75.2322V75.3861L124.672 75.4861L124.652 75.2947C124.608 75.2724 124.565 75.2516 124.523 75.2322ZM125.994 76.4169V76.2575C125.949 76.2191 125.904 76.1821 125.858 76.1465L125.845 76.3169L125.994 76.4169Z" fill="white" stroke="black" stroke-width="0.359487"/>
<path d="M123.431 85.01L123.415 84.9872L123.398 84.968C120.524 81.8 119.049 76.9453 120.118 74.2385L120.119 74.2362C120.672 72.7401 121.887 72.1311 123.399 72.4753L123.407 72.4771L123.414 72.4776C123.508 72.4842 123.589 72.4611 123.645 72.3887C123.701 72.3165 123.724 72.2055 123.724 72.0671V71.4282C123.724 71.3073 123.699 71.1713 123.639 71.0314C123.578 70.8895 123.489 70.7629 123.383 70.6607L123.365 70.6437L123.347 70.6316L123.345 70.6303C123.326 70.6175 123.288 70.5915 123.247 70.5724C123.216 70.558 123.168 70.5401 123.124 70.5468C119.466 69.5112 117.467 72.8751 118.624 78.0712L118.624 78.0723C119.319 81.1452 120.979 84.2611 123.14 86.5489C123.25 86.6838 123.369 86.7661 123.471 86.7776C123.566 86.7881 123.636 86.7377 123.67 86.6407C123.694 86.6181 123.708 86.5862 123.716 86.5453C123.724 86.5038 123.724 86.4529 123.724 86.4142C123.724 86.4115 123.724 86.4088 123.724 86.4062V85.7672C123.724 85.6455 123.677 85.4975 123.626 85.3767C123.574 85.2505 123.504 85.1188 123.431 85.01ZM127.124 74.9944L127.14 75.0172L127.157 75.0365C130.031 78.2045 131.506 83.0592 130.437 85.7659L130.436 85.7682C129.883 87.2643 128.668 87.8733 127.156 87.5291L127.148 87.5273L127.141 87.5268C127.047 87.5203 126.966 87.5434 126.91 87.6158C126.854 87.688 126.831 87.799 126.831 87.9373V88.5763C126.831 88.6972 126.856 88.8331 126.916 88.973C126.977 89.115 127.066 89.2415 127.172 89.3438L127.19 89.3608L127.208 89.3729L127.21 89.3742C127.229 89.3869 127.267 89.4129 127.308 89.432C127.339 89.4464 127.387 89.4643 127.431 89.4576C131.089 90.4933 133.088 87.1293 131.931 81.9332L131.931 81.9332C131.236 78.8138 129.538 75.6733 127.415 73.4111C127.305 73.2759 127.187 73.1934 127.084 73.1819C126.989 73.1714 126.919 73.2218 126.885 73.3188C126.861 73.3414 126.847 73.3733 126.839 73.4142C126.831 73.4557 126.831 73.5066 126.831 73.5453C126.831 73.548 126.831 73.5507 126.831 73.5533V74.1923C126.831 74.3276 126.873 74.48 126.926 74.6153C126.979 74.7511 127.05 74.885 127.124 74.9944Z" fill="white" stroke="black" stroke-width="0.359487"/>
</svg>
