<svg width="168" height="136" viewBox="0 0 168 136" fill="none" xmlns="http://www.w3.org/2000/svg">
<path fill-rule="evenodd" clip-rule="evenodd" d="M100.117 27.6712C108.07 22.3296 120.979 22.3074 128.95 27.6216L141.459 35.9609C148.413 40.5968 149.312 47.7621 144.149 53.0619L145.461 60.8656C146.174 65.0997 143.888 69.316 139.282 72.2636L101.664 96.3394C93.6507 101.468 80.993 101.381 73.1607 96.1439L69.4936 93.6919L56.6205 102.257L51.5915 102.522L48.6395 105.393L43.6105 105.658L41.9415 110.789L37.2993 111.034L36.2612 113.416L32.3927 113.62L28.9927 115.351L28.7486 118.08L23.8828 121.44L16.105 121.074L16.105 117.983L16 117.978L16.1217 112.928L21.0079 109.955L24.1027 109.792L25.202 108.57L28.9481 106.045L29.5994 103.683L33.4678 103.479L34.506 101.097L39.8403 99.2641L40.9192 97.6555L42.3646 95.6397L44.6653 95.1304L45.2758 91.9948L58.3788 82.9808C57.678 80.5895 57.9326 78.0684 59.2308 75.6838L61.3426 71.8049C56.9121 64.1215 59.3221 55.0705 68.5798 48.8526L100.117 27.6712Z" fill="black" fill-opacity="0.05"/>
<path d="M141.853 62.0565L103.035 86.8999C95.3799 91.7992 83.2874 91.7162 75.805 86.7131L63.285 78.3418C59.6963 75.9422 57.6515 72.6986 57.5862 69.3017L57.3112 55.0031L106.149 29.1436C112.446 25.8095 121.149 25.3976 128.072 28.1061L148.445 36.0768L147.873 52.9209C147.756 56.3782 145.59 59.6646 141.853 62.0565Z" fill="#1D7EFF" stroke="black" stroke-width="1.54954"/>
<rect x="0.000370166" y="0.215436" width="49.3402" height="82.2993" rx="17.1532" transform="matrix(0.83205 0.5547 -0.830139 0.557556 116.696 9.09511)" fill="#4092FF" stroke="black" stroke-width="0.387385"/>
<rect x="0.000370166" y="0.215436" width="36.1354" height="68.8851" rx="8.63094" transform="matrix(0.83205 0.5547 -0.830139 0.557556 117.782 15.2931)" fill="#1D7EFF" stroke="black" stroke-width="0.387385"/>
<path d="M58.6205 93.2576L76.9844 81.0395L76.9844 77.9546L65.0118 74.6882L47.3808 86.0919L46.7703 89.2274L44.4696 89.7367L43.0242 91.7525L41.9453 93.3611L36.611 95.1941L35.5729 97.5764L31.7044 97.7804L31.0531 100.142L27.307 102.667L26.2077 103.889L23.1129 104.052L18.105 108.558L18.105 112.075L25.8828 112.441L30.7486 109.081L30.9926 106.352L34.3927 104.621L38.2611 104.417L39.2993 102.035L43.9414 101.79L45.6105 96.6591L50.6395 96.3939L53.5915 93.5228L58.6205 93.2576Z" fill="#A7A7A7" stroke="black" stroke-width="1.16215"/>
<path d="M76.8796 77.9431L65.3046 70.593L47.276 82.9955L46.6655 86.1311L44.3648 86.6403L42.9194 88.6562L41.8404 90.2647L36.5062 92.0977L35.468 94.48L31.5995 94.684L30.9483 97.0459L27.2022 99.571L26.1028 100.793L23.008 100.956L18.1218 103.929L18.0002 108.978L25.7779 109.344L30.6437 105.984L30.8878 103.256L34.2878 101.525L38.1563 101.321L39.1944 98.9386L43.8366 98.6938L45.5057 93.5628L50.5347 93.2976L53.4867 90.4265L58.5157 90.1613L76.8796 77.9431Z" fill="white" stroke="black" stroke-width="0.387385"/>
<path d="M78.2704 51.9405L75.6996 53.6672L79.5647 56.2439C79.5647 56.2439 77.6366 57.5389 79.3544 58.6841C81.0722 59.8293 82.7856 58.3911 82.7856 58.3911L85.577 60.2521C85.577 60.2521 83.6489 61.547 85.3667 62.6922C87.0845 63.8374 89.0126 62.5425 89.0126 62.5425L91.3745 64.1171L93.9453 62.3905L93.5144 61.2431L97.804 61.2357L97.803 60.6616L93.5134 60.669L93.2947 58.2295L86.6383 53.7919L82.1355 54.5172L78.2704 51.9405Z" fill="black" stroke="black" stroke-width="0.516134"/>
<path d="M78.2704 51.1647L75.6996 52.8913L79.5647 55.468C79.5647 55.468 77.6366 56.763 79.3544 57.9082C81.0722 59.0534 82.7856 57.6152 82.7856 57.6152L85.577 59.4762C85.577 59.4762 83.6489 60.7712 85.3667 61.9164C87.0845 63.0616 89.0126 61.7666 89.0126 61.7666L91.3745 63.3412L93.9453 61.6146L93.5144 60.4672L97.804 60.4598L97.803 59.8857L93.5134 59.8931L93.2947 57.4537L86.6383 53.016L82.1355 53.7413L78.2704 51.1647Z" fill="#4092FF" stroke="black" stroke-width="0.516134"/>
<rect x="0.000493193" y="0.287037" width="9.80655" height="7.74201" rx="1.29034" transform="matrix(0.83205 0.5547 -0.830139 0.557556 101.183 40.919)" fill="black" stroke="black" stroke-width="0.516134"/>
<circle cx="0.986399" cy="0.986399" r="0.986399" transform="matrix(0.83205 0.5547 0.830139 -0.557556 101.032 45.3342)" fill="black"/>
<path d="M103.016 45.4843L102.5 45.1407L99.5854 46.3577L101.265 47.4774L103.016 45.4843Z" fill="black"/>
<rect x="0.000493193" y="0.287037" width="9.80655" height="7.74201" rx="1.29034" transform="matrix(0.83205 0.5547 -0.830139 0.557556 101.178 40.1423)" fill="#4092FF" stroke="black" stroke-width="0.516134"/>
<path d="M101.754 41.1346C101.754 41.1346 105.634 39.3842 102.19 36.8469C98.7463 34.3097 95.358 36.8706 95.358 36.8706" stroke="black" stroke-width="0.516134"/>
<circle cx="0.986399" cy="0.986399" r="0.986399" transform="matrix(0.83205 0.5547 0.830139 -0.557556 101.024 44.5591)" fill="black"/>
<path d="M103.007 44.7091L102.492 44.3656L99.5771 45.5825L101.257 46.7023L103.007 44.7091Z" fill="black"/>
<rect x="0.000493193" y="0.287037" width="9.80655" height="7.74201" rx="1.29034" transform="matrix(0.83205 0.5547 -0.830139 0.557556 119.271 28.1865)" fill="black" stroke="black" stroke-width="0.516134"/>
<rect x="0.000493193" y="0.287037" width="9.80655" height="7.74201" rx="1.29034" transform="matrix(0.83205 0.5547 -0.830139 0.557556 119.271 27.4121)" fill="#4092FF" stroke="black" stroke-width="0.516134"/>
<path d="M119.934 28.4586C119.934 28.4586 122.578 25.884 126.141 28.018C129.704 30.152 125.904 32.4383 125.904 32.4383" stroke="black" stroke-width="0.516134"/>
<circle cx="0.986399" cy="0.986399" r="0.986399" transform="matrix(0.83205 0.5547 0.830139 -0.557556 119.12 31.8262)" fill="black"/>
<path d="M121.104 31.9762L120.588 31.6327L117.673 32.8496L119.353 33.9694L121.104 31.9762Z" fill="black"/>
<line y1="-0.077477" x2="28.3718" y2="-0.077477" transform="matrix(0.83205 0.5547 -0.830139 0.557556 83.5117 42.3149)" stroke="black" stroke-opacity="0.22" stroke-width="0.154954"/>
<line y1="-0.077477" x2="28.3718" y2="-0.077477" transform="matrix(0.83205 0.5547 -0.830139 0.557556 99.7812 29.9189)" stroke="black" stroke-opacity="0.22" stroke-width="0.154954"/>
</svg>
