<svg width="176" height="103" viewBox="0 0 176 103" fill="none" xmlns="http://www.w3.org/2000/svg">
<path d="M92.3411 22.2428L94.7559 26.3487C94.7559 26.3487 96.3211 29.2715 96.9771 30.4738C97.9827 32.317 99.332 33.5544 101.089 34.0708C104.304 35.0154 106.948 32.0346 109.871 29.7607C112.622 27.621 116.08 22.5625 116.08 22.5625L113.876 22.0353C113.876 22.0353 107.402 30.0921 102.997 32.0367C100.635 33.0799 99.381 30.2862 99.381 30.2862C99.381 30.2862 98.227 28.4205 97.0792 26.3816C95.9314 24.3427 94.381 21.3585 94.381 21.3585L92.3411 22.2428Z" fill="white" stroke="black" stroke-width="0.0758616"/>
<path d="M149.875 21.9643L149.802 21.6884L149.549 21.8221L128.161 33.1513L106.777 20.7225L106.484 20.5521L106.437 20.888L106.662 20.9192C106.437 20.888 106.437 20.888 106.437 20.8881L106.437 20.8883L106.437 20.8891L106.436 20.8919L106.435 20.9025L106.43 20.943C106.425 20.9786 106.419 21.0309 106.411 21.0988C106.395 21.2346 106.374 21.4329 106.352 21.6843C106.308 22.187 106.259 22.9024 106.242 23.7554C106.208 25.4598 106.3 27.7217 106.807 29.9367C107.313 32.146 107.931 33.7261 109.299 35.2464C110.657 36.7559 112.743 38.1934 116.149 40.1524C119.565 42.1178 121.937 43.0438 123.799 43.4761C125.447 43.8589 126.689 43.8519 127.873 43.8452C128.027 43.8443 128.181 43.8434 128.333 43.8434C131.872 43.8434 135.03 43.385 139.041 41.791C139.734 41.5158 140.418 41.2639 141.089 41.0172C144.834 39.6387 148.145 38.4198 150.073 34.1726C151.05 32.0184 150.989 28.9489 150.699 26.4551C150.553 25.2013 150.347 24.0797 150.178 23.2717C150.094 22.8676 150.018 22.5415 149.964 22.3161C149.937 22.2034 149.915 22.1159 149.899 22.0563L149.882 21.9882L149.877 21.9706L149.876 21.966L149.876 21.9648L149.876 21.9644C149.875 21.9643 149.875 21.9643 149.656 22.0232L149.875 21.9643Z" fill="#1D7EFF" stroke="black" stroke-width="0.45517"/>
<path d="M138.625 34.9551L138.665 37.2807L149.452 44.5944L153.074 44.5314L171.481 56.4127L175.483 56.3431L175.437 53.7327L171.436 53.8023L153.031 42.0634L149.409 42.1264L138.625 34.9551Z" fill="#636363" stroke="black" stroke-width="0.45517"/>
<path d="M145.788 30.2263L138.668 35.0503L149.455 42.4114L152.909 42.3514L171.442 54.2305L175.696 54.1565L175.645 51.2139L158.185 40.503L156.315 37.1647L145.788 30.2263Z" fill="white" stroke="black" stroke-width="0.2"/>
<path d="M138.163 13.0608C143.077 15.7918 150.041 20.4897 149.695 22.0707C149.071 24.9301 144.393 27.3512 140.433 29.733C136.058 32.3649 133.39 34.3182 128.423 34.4046C123.455 34.491 120.617 32.8591 116.257 30.1534C111.931 27.4682 106.905 22.9572 106.617 20.9207C106.329 18.8842 110.705 15.3596 113.902 12.9622C117.72 10.099 120.104 8.64966 124.681 8.2153C130.18 7.69353 133.205 10.3048 138.163 13.0608Z" fill="#4092FF" stroke="black" stroke-width="0.0758616"/>
<path d="M108.445 21.791C108.445 21.791 112.609 26.553 115.854 28.6649C119.119 30.7902 124.894 32.472 124.894 32.472" stroke="black" stroke-width="0.0758616"/>
<path d="M146.648 20.1621C146.648 20.1621 139.502 14.8684 136.035 13.1303C132.547 11.3811 131.611 10.6437 129.583 10.3466" stroke="black" stroke-width="0.0758616"/>
<path d="M115.887 13.4711C118.35 11.6227 121.772 10.2829 122.777 9.90931C123.782 9.53571 124.921 9.45054 125.984 10.2096C126.905 10.8671 127.546 12.8174 127.546 12.8174C127.546 12.8174 122.598 14.5538 119.924 16.6531C118.087 18.0959 115.681 20.9997 115.681 20.9997C115.681 20.9997 113.07 21.0451 111.528 20.8346C110.733 20.726 109.981 20.2918 110.712 18.7123C111.443 17.1329 113.625 15.1688 115.887 13.4711Z" fill="black" stroke="black" stroke-width="0.0758616"/>
<path d="M107.664 20.3496C109.221 17.8539 113.573 14.4517 116.331 12.4129C121.489 8.6 125.917 8.82781 125.917 8.82781" stroke="black" stroke-width="0.0758616"/>
<path d="M148.139 22.2405C148.746 23.2269 139.416 29.042 134.898 31.2338C128.89 34.1476 129.416 33.068 129.416 33.068" stroke="black" stroke-width="0.0758616"/>
<path opacity="0.2" d="M111.835 55.1545L81.7182 38.0098L57.2149 63.12L27.3254 61.982L9.95312 71.7682L10.4078 72.8388C13.857 80.9597 21.2179 86.7541 29.9216 88.1999L38.7805 89.6715L111.835 55.1545Z" fill="#D9D9D9" fill-opacity="0.4"/>
<path d="M89.0704 50.0778L92.2052 52.5761L101.531 41.9833L100.121 35.2324L88.4987 41.0933L88.4987 48.8913C88.4987 49.3532 88.7092 49.79 89.0704 50.0778Z" fill="#2D2D2D" stroke="black" stroke-width="0.227585"/>
<path d="M100.013 49.8649C98.8543 51.3746 97.3862 52.4134 95.9537 52.876C94.5207 53.3387 93.1351 53.2223 92.1206 52.4438C91.1061 51.6653 90.6351 50.3571 90.7112 48.8532C90.7873 47.3498 91.4108 45.6628 92.5693 44.153C93.7278 42.6433 95.196 41.6045 96.6284 41.1419C98.0615 40.6792 99.447 40.7956 100.462 41.5741C101.476 42.3526 101.947 43.6608 101.871 45.1647C101.795 46.6681 101.171 48.3551 100.013 49.8649Z" fill="#2D2D2D" stroke="black" stroke-width="0.227585"/>
<path d="M99.009 48.5862C98.2148 49.6212 97.2212 50.3409 96.2616 50.6714C95.3011 51.0023 94.3888 50.9398 93.7337 50.4371C93.0787 49.9345 92.7822 49.0694 92.8532 48.056C92.9241 47.0435 93.3622 45.8975 94.1564 44.8625C94.9506 43.8276 95.9442 43.1078 96.9038 42.7773C97.8644 42.4465 98.7766 42.509 99.4317 43.0116C100.087 43.5143 100.383 44.3793 100.312 45.3928C100.241 46.4052 99.8032 47.5512 99.009 48.5862Z" fill="#A7A7A7" stroke="black" stroke-width="0.227585"/>
<path d="M43.9256 71.6561L47.3652 74.0368L57.4572 63.7183L53.7479 60.6024L45.5873 64.7569L43.4224 67.1033C42.172 68.4586 42.4094 70.6066 43.9256 71.6561Z" fill="#2D2D2D" stroke="black" stroke-width="0.227585"/>
<path d="M55.1925 71.2653C54.034 72.775 52.5658 73.8138 51.1334 74.2764C49.7003 74.7391 48.3148 74.6227 47.3003 73.8442C46.2857 73.0657 45.8148 71.7575 45.8909 70.2536C45.967 68.7502 46.5904 67.0632 47.749 65.5534C48.9075 64.0437 50.3757 63.0049 51.8081 62.5423C53.2412 62.0796 54.6267 62.196 55.6412 62.9745C56.6558 63.753 57.1267 65.0612 57.0506 66.5651C56.9745 68.0685 56.3511 69.7555 55.1925 71.2653Z" fill="#2D2D2D" stroke="black" stroke-width="0.227585"/>
<path d="M54.1887 69.9866C53.3945 71.0216 52.4009 71.7413 51.4413 72.0718C50.4808 72.4027 49.5685 72.3401 48.9134 71.8375C48.2584 71.3348 47.9619 70.4698 48.0329 69.4563C48.1038 68.4439 48.5419 67.2979 49.3361 66.2629C50.1303 65.2279 51.1239 64.5082 52.0835 64.1777C53.0441 63.8469 53.9563 63.9094 54.6114 64.412C55.2664 64.9147 55.5629 65.7797 55.4919 66.7932C55.421 67.8056 54.9829 68.9516 54.1887 69.9866Z" fill="#A7A7A7" stroke="black" stroke-width="0.227585"/>
<path d="M31.6654 37.6256L41.9295 25.751L62.8008 40.2016L52.9641 52.1116C52.9641 52.1116 44.2095 49.3131 39.7437 45.8545C36.0687 43.0083 31.8687 37.3965 31.8687 37.3965" stroke="black" stroke-width="0.303446"/>
<path d="M78.0631 16.202L70.7188 14.4434L89.4346 27.3465L97.1181 30.3179L78.0631 16.202Z" fill="#EFECE6" stroke="black" stroke-width="0.0758616"/>
<path d="M86.7795 13.9193L77.9506 16.1294L97.4688 30.591L103.043 28.6336C105.323 27.8331 105.798 24.8193 103.876 23.356L93.2166 15.2421C91.3831 13.8465 89.0147 13.3598 86.7795 13.9193Z" fill="#EDEDED" stroke="black" stroke-width="0.0758616"/>
<path d="M62.7985 40.2015L52.8296 52.2235L97.1212 30.2559L89.0765 27.1931C89.0765 27.1931 84.0235 28.8314 78.8838 30.7755C73.7441 32.7196 62.7985 40.2015 62.7985 40.2015Z" fill="#EDEDED" stroke="black" stroke-width="0.0758616"/>
<path d="M89.4347 27.3447L70.7948 14.4416C70.7948 14.4416 62.5259 16.5657 56.0159 19.1185C49.5058 21.6713 41.9292 25.7501 41.9292 25.7501L62.8005 40.2007C62.8005 40.2007 71.1812 35.0364 77.0047 32.709C82.3348 30.5786 89.4347 27.3447 89.4347 27.3447Z" fill="#EDEDED" stroke="black" stroke-width="0.303446"/>
<path d="M57.0148 34.9609L60.8516 37.6328L60.2594 37.1611L45.164 26.7032L43.9635 25.9539L57.0148 34.9609Z" fill="black"/>
<path d="M80.3573 30.0084L85.4844 27.7148L84.6405 28.0388L64.5167 37.0903L62.9893 37.8517L80.3573 30.0084Z" fill="black"/>
<path d="M69.0469 15.4141C69.0469 15.4141 65.8335 16.4638 63.8068 17.1327C61.4676 17.9046 57.9022 18.995 57.9022 18.995L51.6737 21.8291L49.6539 22.7383L47.6172 23.6793L46.0522 24.3598L49.6539 22.7383L57.9022 18.9277L68.1872 15.6934L69.0469 15.4141Z" fill="black"/>
<path d="M82.6471 23.5237L86.1094 25.8867L85.5744 25.463L71.953 16.2204L70.8706 15.5672L82.6471 23.5237Z" fill="black"/>
<path d="M104.556 40.0294L105.089 26.0496L52.9686 52.1117L31.9294 37.4628C31.9294 37.4628 20.2471 42.7045 19.1601 45.4421L19.1573 45.449C18.0702 48.1869 16.3543 52.5082 17.3713 57.4032C18.7297 63.941 18.5049 64.5043 28.5097 69.8806C38.5144 75.257 44.8807 70.3746 44.8807 70.3746C44.8807 70.3746 45.3653 65.7293 50.303 62.8367C55.2406 59.9441 57.0126 64.1858 57.0126 64.1858L90.4263 48.2896C90.4263 48.2896 91.4267 42.8641 95.8112 41.1661C100.196 39.4682 101.414 42.3185 101.414 42.3185L104.556 40.0294Z" fill="#EDEDED" stroke="black" stroke-width="0.303446"/>
<path d="M92.2177 22.616C94.5305 24.4824 97.7247 25.8066 98.6622 26.175C99.5996 26.5434 100.657 26.6115 101.632 25.8087C102.475 25.1134 102.364 23.6471 101.281 22.8679C100.198 22.0888 98.4234 21.3802 95.9114 19.2583C94.185 17.8 91.8812 15.6228 91.0151 15.3199C90.149 15.0169 89.487 14.841 88.0608 15.0855C87.3253 15.2116 86.6345 15.6733 87.3369 17.2921C88.0394 18.911 90.0937 20.9018 92.2177 22.616Z" fill="black" stroke="black" stroke-width="0.0758616"/>
<path d="M36.1431 59.3247L35.8703 62.6214L40.7492 61.7042C42.2931 61.414 43.4527 60.1279 43.5822 58.5624L43.6307 57.9772L36.1431 59.3247Z" fill="white" stroke="black" stroke-width="0.045517"/>
<path d="M19.4959 49.4651L18.144 51.689C18.144 51.689 20.866 54.8937 23.855 56.956C27.6999 59.6088 35.8642 62.6211 35.8642 62.6211L36.137 59.3245L19.4959 49.4651Z" fill="#6A6A6A" stroke="#1A1A1A" stroke-width="0.045517"/>
<path d="M97.2044 25.6693C97.2044 25.6693 98.3062 18.0679 99.3043 16.0274C100.302 13.9868 101.148 13.1926 102.725 12.1825C104.465 11.068 105.77 10.7984 107.601 10.8594C110.949 10.9711 113.154 14.3282 114.404 17.963C114.774 19.0402 114.868 20.9661 114.868 20.9661L112.82 20.8902C112.82 20.8902 112.989 16.2469 108.998 13.4698C106.907 12.0148 104.627 13.4698 104.023 13.7542C103.42 14.0385 102.199 15.0489 101.333 16.8681C100.466 18.6873 99.1339 26.3201 99.1339 26.3201L98.5041 26.1894L97.2044 25.6693Z" fill="white" stroke="black" stroke-width="0.0758616"/>
<path d="M19.4935 49.5258L18.1465 51.6885C18.1465 51.6885 17.5458 50.7787 17.6115 49.9848C17.6772 49.1909 18.8454 46.2144 18.8454 46.2144L19.4935 49.5258Z" fill="white" stroke="black" stroke-width="0.045517"/>
<path d="M52.9625 52.112L31.8672 37.397C31.8672 37.397 19.0654 42.0543 18.8692 45.9106C18.673 49.7668 19.8289 51.3991 24.651 54.7793C29.4732 58.1594 32.5924 59.5361 38.1629 59.3701C44.4715 59.1821 52.9625 52.112 52.9625 52.112Z" fill="#EDEDED" stroke="black" stroke-width="0.303446"/>
<path d="M74 41.502L74 56.002" stroke="black" stroke-width="0.3"/>
</svg>
