<svg width="169" height="136" viewBox="0 0 169 136" fill="none" xmlns="http://www.w3.org/2000/svg">
<path d="M82.8411 46.2389L85.2559 50.3448C85.2559 50.3448 86.8211 53.2676 87.4771 54.4698C88.4827 56.3131 89.832 57.5505 91.5894 58.0669C94.8038 59.0115 97.4478 56.0307 100.371 53.7568C103.122 51.6171 106.58 46.5586 106.58 46.5586L104.376 46.0314C104.376 46.0314 97.9018 54.0881 93.4974 56.0328C91.1346 57.076 89.881 54.2823 89.881 54.2823C89.881 54.2823 88.727 52.4165 87.5792 50.3777C86.4314 48.3388 84.881 45.3546 84.881 45.3546L82.8411 46.2389Z" fill="white" stroke="black" stroke-width="0.0758616"/>
<path d="M140.375 45.9623L140.302 45.6864L140.049 45.8201L118.661 57.1493L97.2767 44.7205L96.9836 44.5501L96.937 44.886L97.1624 44.9173C96.937 44.886 96.937 44.8861 96.9369 44.8861L96.9369 44.8864L96.9368 44.8871L96.9364 44.89L96.935 44.9005L96.9297 44.9411C96.9252 44.9766 96.9187 45.0289 96.9109 45.0968C96.8952 45.2327 96.8741 45.431 96.8519 45.6823C96.8075 46.185 96.759 46.9004 96.742 47.7535C96.708 49.4578 96.7999 51.7198 97.3071 53.9347C97.8131 56.1441 98.4312 57.7241 99.7992 59.2445C101.157 60.754 103.243 62.1914 106.649 64.1504C110.065 66.1158 112.437 67.0419 114.299 67.4741C115.947 67.8569 117.189 67.8499 118.373 67.8432C118.527 67.8424 118.681 67.8415 118.833 67.8415C122.372 67.8415 125.53 67.383 129.541 65.7891C130.234 65.5138 130.918 65.262 131.589 65.0153C135.334 63.6367 138.645 62.4178 140.573 58.1706C141.55 56.0164 141.489 52.9469 141.199 50.4532C141.053 49.1993 140.847 48.0778 140.678 47.2698C140.594 46.8656 140.518 46.5395 140.464 46.3141C140.437 46.2014 140.415 46.1139 140.399 46.0543L140.382 45.9863L140.377 45.9687L140.376 45.9641L140.376 45.9628L140.376 45.9625C140.375 45.9624 140.375 45.9623 140.156 46.0212L140.375 45.9623Z" fill="#648DC4" stroke="black" stroke-width="0.45517"/>
<path d="M129.125 58.9531L129.165 61.2788L139.952 68.5924L143.574 68.5295L161.981 80.4108L165.983 80.3412L165.937 77.7308L161.936 77.8004L143.531 66.0614L139.909 66.1244L129.125 58.9531Z" fill="white" stroke="black" stroke-width="0.45517"/>
<path d="M136.288 54.2224L129.168 59.0464L139.955 66.4075L143.409 66.3475L161.942 78.2266L166.196 78.1526L166.145 75.21L148.685 64.4991L146.815 61.1608L136.288 54.2224Z" fill="#EFEFEF" stroke="black" stroke-width="0.0758616"/>
<path d="M128.663 37.0569C133.577 39.7878 140.541 44.4858 140.195 46.0668C139.571 48.9262 134.893 51.3473 130.933 53.7291C126.558 56.361 123.89 58.3143 118.923 58.4007C113.955 58.4871 111.117 56.8552 106.757 54.1495C102.431 51.4643 97.4053 46.9533 97.1172 44.9168C96.829 42.8803 101.205 39.3557 104.402 36.9583C108.22 34.0951 110.604 32.6458 115.181 32.2114C120.68 31.6896 123.705 34.3009 128.663 37.0569Z" fill="#99B5DB" stroke="black" stroke-width="0.0758616"/>
<path d="M98.9453 45.7891C98.9453 45.7891 103.109 50.5511 106.354 52.663C109.619 54.7883 115.394 56.4701 115.394 56.4701" stroke="black" stroke-width="0.0758616"/>
<path d="M137.148 44.1602C137.148 44.1602 130.002 38.8665 126.535 37.1283C123.047 35.3792 122.111 34.6417 120.083 34.3447" stroke="black" stroke-width="0.0758616"/>
<path d="M106.387 37.4692C108.85 35.6207 112.272 34.281 113.277 33.9074C114.282 33.5338 115.421 33.4486 116.484 34.2077C117.405 34.8652 118.046 36.8154 118.046 36.8154C118.046 36.8154 113.098 38.5518 110.424 40.6511C108.587 42.0939 106.181 44.9978 106.181 44.9978C106.181 44.9978 103.57 45.0432 102.028 44.8326C101.233 44.724 100.481 44.2898 101.212 42.7104C101.943 41.1309 104.125 39.1668 106.387 37.4692Z" fill="black" stroke="black" stroke-width="0.0758616"/>
<path d="M98.1636 44.3477C99.7212 41.8519 104.073 38.4497 106.831 36.4109C111.989 32.598 116.417 32.8259 116.417 32.8259" stroke="black" stroke-width="0.0758616"/>
<path d="M138.639 46.2366C139.246 47.223 129.916 53.0381 125.398 55.2299C119.39 58.1437 119.916 57.0641 119.916 57.0641" stroke="black" stroke-width="0.0758616"/>
<path d="M102.335 79.1486L72.2182 62.0039L47.7149 87.1141L17.8254 85.9762L0.453124 95.7623L0.907849 96.833C4.35701 104.954 11.7179 110.748 20.4216 112.194L29.2805 113.666L102.335 79.1486Z" fill="#D9D9D9" fill-opacity="0.4"/>
<path d="M79.5704 74.07L82.7052 76.5683L92.0306 65.9755L90.6212 59.2246L78.9987 65.0855L78.9987 72.8835C78.9987 73.3454 79.2092 73.7821 79.5704 74.07Z" fill="white" stroke="black" stroke-width="0.227585"/>
<path d="M90.5128 73.8571C89.3543 75.3668 87.8862 76.4056 86.4537 76.8682C85.0207 77.3309 83.6351 77.2145 82.6206 76.436C81.6061 75.6575 81.1351 74.3493 81.2112 72.8454C81.2873 71.342 81.9108 69.655 83.0693 68.1452C84.2278 66.6355 85.696 65.5967 87.1284 65.1341C88.5615 64.6714 89.947 64.7877 90.9615 65.5663C91.9761 66.3448 92.447 67.653 92.3709 69.1569C92.2948 70.6603 91.6714 72.3473 90.5128 73.8571Z" fill="#DCDCDC" stroke="black" stroke-width="0.227585"/>
<path d="M89.509 72.5764C88.7148 73.6114 87.7212 74.3311 86.7616 74.6617C85.8011 74.9925 84.8888 74.93 84.2337 74.4273C83.5787 73.9247 83.2822 73.0597 83.3532 72.0462C83.4241 71.0338 83.8622 69.8877 84.6564 68.8528C85.4506 67.8178 86.4442 67.0981 87.4038 66.7675C88.3644 66.4367 89.2766 66.4992 89.9317 67.0019C90.5867 67.5045 90.8832 68.3695 90.8122 69.383C90.7413 70.3954 90.3032 71.5415 89.509 72.5764Z" fill="white" stroke="black" stroke-width="0.227585"/>
<path d="M34.4256 95.6522L37.8652 98.0329L47.9572 87.7144L44.2479 84.5985L36.0873 88.753L33.9224 91.0994C32.672 92.4547 32.9094 94.6027 34.4256 95.6522Z" fill="white" stroke="black" stroke-width="0.227585"/>
<path d="M45.6925 95.2633C44.534 96.7731 43.0658 97.8119 41.6334 98.2744C40.2003 98.7371 38.8148 98.6208 37.8003 97.8423C36.7857 97.0638 36.3148 95.7556 36.3909 94.2516C36.467 92.7482 37.0904 91.0612 38.249 89.5515C39.4075 88.0417 40.8757 87.0029 42.3081 86.5404C43.7412 86.0776 45.1267 86.194 46.1412 86.9725C47.1558 87.751 47.6267 89.0592 47.5506 90.5632C47.4745 92.0666 46.8511 93.7536 45.6925 95.2633Z" fill="#DCDCDC" stroke="black" stroke-width="0.227585"/>
<path d="M44.6887 93.9827C43.8945 95.0177 42.9009 95.7374 41.9413 96.0679C40.9808 96.3988 40.0685 96.3362 39.4134 95.8336C38.7584 95.3309 38.4619 94.4659 38.5329 93.4524C38.6038 92.44 39.0419 91.294 39.8361 90.259C40.6303 89.224 41.6239 88.5043 42.5835 88.1738C43.5441 87.8429 44.4563 87.9055 45.1114 88.4081C45.7664 88.9108 46.0629 89.7758 45.9919 90.7893C45.921 91.8017 45.4829 92.9477 44.6887 93.9827Z" fill="white" stroke="black" stroke-width="0.227585"/>
<path d="M22.1654 61.6217L32.4295 49.7471L53.3008 64.1977L43.4641 76.1076C43.4641 76.1076 34.7095 73.3092 30.2437 69.8506C26.5687 67.0044 22.3687 61.3926 22.3687 61.3926" stroke="black" stroke-width="0.303446"/>
<path d="M68.5631 40.1961L61.2188 38.4375L79.9346 51.3406L87.6181 54.3121L68.5631 40.1961Z" fill="white" stroke="black" stroke-width="0.0758616"/>
<path d="M77.2795 37.9154L68.4506 40.1255L87.9688 54.5871L93.5432 52.6297C95.8228 51.8292 96.2982 48.8154 94.3758 47.3521L83.7166 39.2382C81.8831 37.8426 79.5147 37.3559 77.2795 37.9154Z" fill="white" stroke="black" stroke-width="0.0758616"/>
<path d="M53.2985 64.1957L43.3296 76.2176L87.6212 54.2501L79.5765 51.1872C79.5765 51.1872 74.5235 52.8255 69.3838 54.7696C64.2441 56.7138 53.2985 64.1957 53.2985 64.1957Z" fill="white" stroke="black" stroke-width="0.0758616"/>
<path d="M79.9347 51.3428L61.2948 38.4396C61.2948 38.4396 53.0259 40.5638 46.5159 43.1165C40.0058 45.6693 32.4292 49.7481 32.4292 49.7481L53.3005 64.1988C53.3005 64.1988 61.6812 59.0345 67.5047 56.707C72.8348 54.5767 79.9347 51.3428 79.9347 51.3428Z" fill="white" stroke="black" stroke-width="0.303446"/>
<path d="M47.5148 58.957L51.3516 61.6289L50.7594 61.1572L35.664 50.6993L34.4635 49.95L47.5148 58.957Z" fill="black"/>
<path d="M70.8573 54.0045L75.9844 51.7109L75.1405 52.0349L55.0167 61.0864L53.4893 61.8478L70.8573 54.0045Z" fill="black"/>
<path d="M59.5469 39.4102C59.5469 39.4102 56.3335 40.4599 54.3068 41.1288C51.9676 41.9007 48.4022 42.9911 48.4022 42.9911L42.1737 45.8252L40.1539 46.7344L38.1172 47.6754L36.5522 48.3559L40.1539 46.7344L48.4022 42.9238L58.6872 39.6895L59.5469 39.4102Z" fill="black"/>
<path d="M73.1471 47.5198L76.6094 49.8828L76.0744 49.4591L62.453 40.2165L61.3706 39.5633L73.1471 47.5198Z" fill="black"/>
<path d="M95.0562 64.0255L95.5889 50.0456L43.4686 76.1078L22.4294 61.4589C22.4294 61.4589 10.7471 66.7006 9.66007 69.4382L9.65732 69.4451C8.57016 72.183 6.85431 76.5043 7.87134 81.3993C9.22969 87.9371 9.00492 88.5004 19.0097 93.8767C29.0144 99.2531 35.3807 94.3706 35.3807 94.3706C35.3807 94.3706 35.8653 89.7254 40.803 86.8328C45.7406 83.9402 47.5126 88.1819 47.5126 88.1819L80.9263 72.2857C80.9263 72.2857 81.9267 66.8602 86.3112 65.1622C90.6957 63.4643 91.9141 66.3146 91.9141 66.3146L95.0562 64.0255Z" fill="white" stroke="black" stroke-width="0.303446"/>
<path d="M82.7177 46.6101C85.0305 48.4766 88.2247 49.8008 89.1622 50.1692C90.0996 50.5375 91.1574 50.6056 92.1316 49.8029C92.9754 49.1075 92.8638 47.6412 91.7807 46.8621C90.6976 46.083 88.9234 45.3744 86.4114 43.2525C84.685 41.7941 82.3812 39.6169 81.5151 39.314C80.649 39.0111 79.987 38.8351 78.5608 39.0796C77.8253 39.2057 77.1345 39.6674 77.8369 41.2862C78.5394 42.9051 80.5937 44.8959 82.7177 46.6101Z" fill="black" stroke="black" stroke-width="0.0758616"/>
<path d="M26.6431 83.3208L26.3703 86.6175L31.2492 85.7003C32.7931 85.4101 33.9527 84.124 34.0822 82.5585L34.1307 81.9733L26.6431 83.3208Z" fill="white" stroke="black" stroke-width="0.045517"/>
<path d="M9.99588 73.4592L8.644 75.6832C8.644 75.6832 11.366 78.8879 14.355 80.9502C18.1999 83.6029 26.3642 86.6153 26.3642 86.6153L26.637 83.3186L9.99588 73.4592Z" fill="#D9D9D9" stroke="black" stroke-width="0.045517"/>
<path d="M87.7044 49.6673C87.7044 49.6673 88.8062 42.066 89.8043 40.0254C90.8025 37.9849 91.6482 37.1906 93.2252 36.1806C94.9655 35.066 96.2701 34.7964 98.1007 34.8575C101.449 34.9691 103.654 38.3262 104.904 41.961C105.274 43.0383 105.368 44.9641 105.368 44.9641L103.32 44.8883C103.32 44.8883 103.489 40.2449 99.4979 37.4679C97.4069 36.0128 95.1266 37.4679 94.5235 37.7522C93.9204 38.0366 92.699 39.047 91.8327 40.8661C90.9664 42.6853 89.6339 50.3182 89.6339 50.3182L89.0041 50.1875L87.7044 49.6673Z" fill="white" stroke="black" stroke-width="0.0758616"/>
<path d="M9.99348 73.5239L8.64655 75.6865C8.64655 75.6865 8.04579 74.7767 8.11148 73.9829C8.17716 73.189 9.34543 70.2125 9.34543 70.2125L9.99348 73.5239Z" fill="white" stroke="black" stroke-width="0.045517"/>
<path d="M43.4625 76.1081L22.3672 61.3931C22.3672 61.3931 9.56536 66.0504 9.3692 69.9067C9.17304 73.7629 10.3289 75.3952 15.151 78.7754C19.9732 82.1555 23.0924 83.5322 28.6629 83.3662C34.9715 83.1782 43.4625 76.1081 43.4625 76.1081Z" fill="white" stroke="black" stroke-width="0.303446"/>
</svg>
