<svg width="169" height="136" viewBox="0 0 169 136" fill="none" xmlns="http://www.w3.org/2000/svg">
<path d="M125.646 114.853C125.646 125.804 110.447 135 91.6981 135C72.9491 135 57.75 125.804 57.75 114.853C57.75 103.901 72.9491 95.0234 91.6981 95.0234C110.447 95.0234 125.646 103.901 125.646 114.853Z" fill="#D9D9D9" fill-opacity="0.4"/>
<path d="M45.5856 103.011C45.4267 106.726 48.2386 110.257 53.0067 112.95C57.7663 115.639 64.4335 117.466 71.8792 117.784C79.3249 118.103 86.1237 116.852 91.0955 114.579C96.0762 112.303 99.1792 109.025 99.338 105.31C99.4969 101.595 96.6851 98.0646 91.917 95.3713C87.1574 92.6827 80.4902 90.8559 73.0445 90.5375C65.5987 90.219 58.7999 91.4699 53.8281 93.7423C48.8475 96.0187 45.7445 99.2964 45.5856 103.011Z" stroke="black" stroke-width="0.317272"/>
<rect width="1.18567" height="4.08942" transform="matrix(0.694472 -0.719519 0.667768 0.74437 51.0391 109.785)" fill="white"/>
<rect width="1.18567" height="4.08942" transform="matrix(0.694472 -0.719519 0.667768 0.74437 52.0703 111.797)" fill="white"/>
<path d="M59.1957 117.937L60.7645 113.749L67.8544 121.652L63.6836 125.974L59.1957 117.937Z" fill="#F0F0F0"/>
<path d="M49.8203 44.7852L57.7521 101.259C57.7521 101.259 58.3073 104.115 61.2421 106.653C68.2512 112.715 79.0757 112.844 80.1857 112.841C80.2522 112.84 80.303 112.84 80.3695 112.838C81.5339 112.805 93.5766 112.312 99.9492 105.939C101.694 104.194 102.408 101.259 102.408 101.259L110.181 46.0542L49.8203 44.7852Z" fill="#D0C8BB" stroke="black" stroke-width="0.475907"/>
<path d="M56.7312 86.548L58.1328 96.6172L57.9507 94.983L52.4046 55.4403L51.9161 52.4068L56.7312 86.548Z" fill="black"/>
<path d="M103.449 87.0944L102.023 97.1602L102.298 95.539L107.858 55.9982L108.224 52.9476L103.449 87.0944Z" fill="black"/>
<path d="M46.5699 40.004C46.1976 37.3405 46.2529 31.4578 46.2529 31.4578C46.2529 31.4578 50.5342 28.7395 62.811 38.7771C65.98 41.3681 71.6978 42.1823 79.9236 42.1823C88.1494 42.1823 93.7133 47.7246 100.839 43.8848C107.463 40.3154 113.911 29.6719 113.911 29.6719C113.911 29.6719 114.308 30.7297 113.911 38.629C113.516 46.4951 104.009 50.3666 100.878 51.6415L100.839 51.6575C97.7491 52.9158 88.4892 55.7099 80.2405 55.7289C71.9012 55.7481 64.5086 54.3735 57.9783 51.5094C53.3122 49.4629 47.2047 44.5452 46.5699 40.004Z" fill="#F3F3F3" stroke="black" stroke-width="0.0793179"/>
<path d="M113.83 30.6654C113.83 36.0228 110.11 40.9952 104.003 44.6413C97.9018 48.2838 89.4583 50.5742 80.1199 50.5742C70.7816 50.5742 62.3381 48.2838 56.237 44.6413C50.1298 40.9952 46.4098 36.0228 46.4098 30.6654C46.4098 25.3093 50.1283 20.4163 56.2351 16.8493C62.336 13.2857 70.7801 11.0739 80.1199 11.0739C89.4598 11.0739 97.9039 13.2857 104.005 16.8493C110.112 20.4163 113.83 25.3093 113.83 30.6654Z" fill="white" stroke="black" stroke-width="0.475907"/>
<path d="M52.2782 31.4588C52.2782 26.623 51.9609 17.5781 51.9609 17.5781L67.1106 25.5099L79.6429 26.2238L89.5576 26.541L108.197 18.4506C108.197 18.4506 107.721 26.541 107.721 31.4588C107.721 38.4335 101.919 41.391 95.4469 43.991C90.3688 46.031 85.4724 46.2119 79.9998 46.2119C74.5272 46.2119 69.6307 45.5551 64.5526 43.5151C58.0806 40.9151 52.2782 37.0903 52.2782 31.4588Z" fill="#E7E6E6" stroke="black" stroke-width="0.0793179"/>
<path d="M108.199 17.4981C108.199 21.9742 105.092 26.0558 100.007 29.0271C94.925 31.9961 87.8944 33.8376 80.12 33.8376C72.3456 33.8376 65.3149 31.9961 60.2333 29.0271C55.1478 26.0558 52.0414 21.9742 52.0414 17.4981C52.0414 13.022 55.1478 8.94045 60.2333 5.96916C65.3149 3.00012 72.3456 1.15864 80.12 1.15864C87.8944 1.15864 94.925 3.00012 100.007 5.96916C105.092 8.94045 108.199 13.022 108.199 17.4981Z" fill="white" stroke="black" stroke-width="0.317272"/>
<path d="M105.622 17.0218C105.622 20.9877 102.796 24.586 98.2082 27.195C93.622 29.8034 87.2835 31.418 80.2802 31.418C73.2768 31.418 66.9384 29.8034 62.3522 27.195C57.7648 24.586 54.9381 20.9877 54.9381 17.0218C54.9381 13.0559 57.7648 9.45763 62.3522 6.84858C66.9384 4.24018 73.2768 2.6256 80.2802 2.6256C87.2835 2.6256 93.622 4.24018 98.2082 6.84858C102.796 9.45763 105.622 13.0559 105.622 17.0218Z" fill="white" fill-opacity="0.3" stroke="black" stroke-width="0.0793179"/>
<path d="M94.5547 109.506L98.7585 52.3969C102.122 52.3969 107.669 48.4839 110.022 46.5273C107.774 63.7658 103.184 98.9406 102.804 101.733C102.423 104.525 97.1457 108.078 94.5547 109.506Z" fill="#B1B1B1" fill-opacity="0.55"/>
<rect x="0.000151585" y="0.0882218" width="12.7194" height="5.18516" rx="2.59258" transform="matrix(0.83205 0.5547 -0.830139 0.557556 66.1436 17.8475)" fill="#8D7F69" stroke="black" stroke-width="0.158636"/>
<rect x="0.000151585" y="0.0882218" width="13.1074" height="5.64525" rx="2.82263" transform="matrix(0.83205 0.5547 -0.830139 0.557556 66.2842 17.4296)" stroke="black" stroke-width="0.158636"/>
<path d="M55.0293 83.2761L52.0391 61.8436C52.8697 64.3932 58.4348 76.6631 82.1073 75.8663C101.045 75.2289 107.496 65.4555 108.355 60.6484C107.386 67.288 105.448 80.6946 105.448 81.2046C105.448 81.7145 104.617 83.8604 104.202 84.8696C102.07 88.1628 94.0848 94.6856 79.2002 94.4306C64.3156 94.1756 56.8843 86.888 55.0293 83.2761Z" fill="#B3B3B3"/>
<path d="M54.873 82.1628L51.8828 60.7303C52.7134 63.2799 58.2785 75.5498 81.9511 74.7531C100.889 74.1157 107.34 64.3422 108.199 59.5352C107.229 66.1747 105.291 79.5814 105.291 80.0913C105.291 80.6012 104.461 82.7471 104.045 83.7563C101.914 87.0496 93.9286 93.5723 79.0439 93.3173C64.1593 93.0624 56.7281 85.7748 54.873 82.1628Z" fill="#D9D9D9" stroke="black" stroke-width="0.158636"/>
</svg>
