<svg width="349" height="234" viewBox="0 0 349 234" fill="none" xmlns="http://www.w3.org/2000/svg">
<rect width="109.355" height="210.1" rx="8.61067" transform="matrix(0.83205 0.5547 -0.830139 0.557556 238.258 56.0195)" fill="#D9D9D9" fill-opacity="0.4"/>
<path d="M231.612 45.8595C234.95 43.8039 240.036 43.7018 243.544 45.62L320.124 87.4936C322.397 88.7366 323.633 90.6377 323.444 92.5996L322.449 102.909C322.307 104.379 321.375 105.765 319.825 106.812L161.224 213.904C157.686 216.293 151.93 216.318 148.357 213.959L71.8729 163.476C70.1363 162.33 69.161 160.765 69.1655 159.131L69.195 148.537C69.1998 146.835 70.2679 145.211 72.1409 144.057L231.612 45.8595Z" stroke="black" stroke-width="1.72213"/>
<rect x="0.000411397" y="0.239432" width="108.925" height="209.67" rx="8.3954" transform="matrix(0.83205 0.5547 -0.830139 0.557556 238.457 30.2932)" fill="white" stroke="black" stroke-width="0.430533"/>
<path d="M244.704 52.9169L243.254 51.9503C243.414 51.8066 243.525 51.6585 243.587 51.5062C243.652 51.3524 243.672 51.1979 243.647 51.0429C243.622 50.8878 243.553 50.7359 243.44 50.587C243.329 50.4396 243.176 50.3011 242.982 50.1717C242.631 49.9377 242.239 49.7926 241.806 49.7362C241.375 49.6783 240.924 49.7128 240.452 49.8397C239.983 49.9651 239.515 50.1858 239.049 50.5018C238.57 50.8266 238.239 51.1474 238.057 51.4641C237.876 51.7822 237.833 52.0844 237.927 52.3708C238.022 52.6571 238.24 52.9143 238.582 53.1423C238.774 53.2703 238.977 53.3717 239.19 53.4464C239.406 53.5226 239.626 53.5708 239.85 53.5908C240.077 53.6094 240.302 53.5992 240.526 53.5601C240.752 53.5226 240.971 53.454 241.184 53.3544L242.627 54.3254C242.281 54.5096 241.89 54.6488 241.453 54.7431C241.021 54.8374 240.566 54.877 240.089 54.8621C239.617 54.8472 239.142 54.7688 238.664 54.6268C238.191 54.4848 237.737 54.2689 237.302 53.9791C236.697 53.576 236.292 53.1236 236.087 52.6219C235.884 52.1216 235.901 51.6053 236.139 51.0728C236.38 50.5417 236.865 50.0285 237.596 49.533C238.329 49.036 239.091 48.7059 239.884 48.5427C240.676 48.3795 241.445 48.3655 242.19 48.5008C242.938 48.6346 243.61 48.9001 244.206 49.2973C244.599 49.5592 244.908 49.839 245.134 50.1368C245.363 50.4361 245.502 50.7437 245.552 51.0597C245.605 51.3743 245.562 51.6883 245.423 52.0019C245.287 52.3169 245.047 52.6219 244.704 52.9169ZM250.954 58.4383C250.221 58.9352 249.458 59.2646 248.663 59.4264C247.871 59.5896 247.099 59.6028 246.346 59.4661C245.598 59.3293 244.925 59.0616 244.327 58.6629C243.725 58.2613 243.32 57.8089 243.112 57.3057C242.905 56.8025 242.919 56.2839 243.155 55.7499C243.391 55.2159 243.875 54.7012 244.605 54.2058C245.338 53.7088 246.101 53.3787 246.893 53.2155C247.685 53.0522 248.455 53.039 249.203 53.1758C249.953 53.3111 250.629 53.5795 251.232 53.9811C251.83 54.3798 252.233 54.8308 252.44 55.3339C252.652 55.8371 252.64 56.3557 252.404 56.8897C252.17 57.4251 251.687 57.9413 250.954 58.4383ZM249.501 57.4695C249.976 57.1476 250.304 56.8283 250.487 56.5117C250.671 56.1965 250.719 55.8957 250.629 55.6094C250.539 55.323 250.321 55.0644 249.975 54.8334C249.628 54.6024 249.242 54.458 248.815 54.4001C248.389 54.3422 247.941 54.3759 247.471 54.5013C247.004 54.6282 246.533 54.8526 246.058 55.1745C245.584 55.4964 245.254 55.815 245.069 56.1302C244.887 56.4468 244.84 56.7483 244.93 57.0347C245.02 57.321 245.238 57.5797 245.584 57.8107C245.931 58.0416 246.317 58.1861 246.744 58.244C247.171 58.3019 247.617 58.2674 248.085 58.1405C248.554 58.0151 249.026 57.7914 249.501 57.4695ZM255.376 56.8675L257.144 58.0459L254.495 62.3523L254.575 62.4053L260.957 60.5881L262.724 61.7665L256.004 66.3236L254.614 65.3968L258.988 62.4306L258.932 62.3931L252.836 64.1674L251.889 63.5363L254.493 59.4117L254.436 59.3742L250.046 62.3515L248.655 61.4247L255.376 56.8675ZM263.905 62.5537L265.673 63.7321L263.024 68.0385L263.104 68.0915L269.486 66.2743L271.254 67.4527L264.533 72.0098L263.143 71.083L267.517 68.1168L267.461 68.0793L261.365 69.8536L260.418 69.2225L263.022 65.0979L262.966 65.0604L258.575 68.0377L257.185 67.1109L263.905 62.5537ZM273.868 69.1954L267.147 73.7526L265.714 72.7971L272.435 68.2399L273.868 69.1954ZM276.792 73.7439C277.03 73.5467 277.122 73.3315 277.068 73.0983C277.013 72.865 276.814 72.6336 276.47 72.4041C276.236 72.2482 276.006 72.1388 275.779 72.0759C275.555 72.0115 275.342 71.9892 275.143 72.0089C274.945 72.0302 274.774 72.0898 274.63 72.1877C274.505 72.2663 274.425 72.3544 274.391 72.452C274.358 72.5511 274.359 72.656 274.393 72.7667C274.429 72.8759 274.487 72.9902 274.57 73.1097C274.654 73.2276 274.753 73.347 274.868 73.4678L275.333 73.9718C275.563 74.2134 275.747 74.4537 275.885 74.6926C276.023 74.9316 276.102 75.1655 276.123 75.3944C276.145 75.6234 276.097 75.8444 275.979 76.0574C275.864 76.272 275.668 76.4749 275.39 76.6663C274.977 76.9437 274.514 77.1149 274.003 77.1798C273.495 77.2448 272.962 77.2027 272.403 77.0535C271.849 76.9044 271.295 76.6459 270.744 76.2782C270.196 75.9133 269.803 75.5392 269.563 75.1557C269.326 74.7738 269.256 74.3965 269.355 74.0239C269.458 73.6514 269.746 73.2975 270.218 72.9623L271.605 73.8869C271.395 74.05 271.272 74.221 271.236 74.3998C271.204 74.5787 271.247 74.7588 271.365 74.9402C271.487 75.1216 271.671 75.2946 271.918 75.4594C272.161 75.6212 272.407 75.738 272.656 75.8097C272.907 75.8828 273.144 75.9102 273.368 75.8919C273.592 75.8735 273.785 75.8095 273.947 75.6997C274.098 75.5973 274.179 75.4811 274.192 75.3511C274.206 75.2225 274.164 75.0764 274.064 74.9127C273.966 74.7505 273.823 74.5669 273.635 74.3621L273.081 73.7454C272.647 73.2709 272.411 72.8239 272.373 72.4045C272.335 71.985 272.566 71.6077 273.065 71.2724C273.469 70.995 273.934 70.8268 274.459 70.7677C274.986 70.7101 275.529 70.7529 276.088 70.8961C276.647 71.0393 277.174 71.2757 277.668 71.6052C278.171 71.9406 278.525 72.2913 278.729 72.6571C278.936 73.0243 278.992 73.381 278.898 73.7269C278.803 74.0729 278.559 74.3838 278.165 74.6597L276.792 73.7439ZM282.9 77.8159C283.138 77.6187 283.23 77.4035 283.176 77.1702C283.121 76.937 282.922 76.7056 282.578 76.4761C282.344 76.3201 282.114 76.2107 281.887 76.1478C281.662 76.0835 281.45 76.0612 281.25 76.0809C281.053 76.1022 280.882 76.1617 280.737 76.2596C280.613 76.3383 280.533 76.4264 280.499 76.524C280.466 76.6231 280.467 76.728 280.501 76.8387C280.536 76.9479 280.595 77.0622 280.678 77.1817C280.762 77.2996 280.861 77.419 280.976 77.5398L281.441 78.0438C281.671 78.2854 281.855 78.5257 281.993 78.7646C282.131 79.0036 282.21 79.2375 282.231 79.4664C282.253 79.6954 282.205 79.9163 282.087 80.1294C281.972 80.3439 281.776 80.5469 281.498 80.7382C281.085 81.0157 280.622 81.1868 280.111 81.2518C279.603 81.3167 279.07 81.2746 278.511 81.1255C277.957 80.9764 277.403 80.7179 276.852 80.3501C276.304 79.9853 275.911 79.6111 275.671 79.2277C275.434 78.8457 275.364 78.4685 275.463 78.0959C275.566 77.7234 275.854 77.3695 276.326 77.0343L277.713 77.9589C277.503 78.122 277.38 78.293 277.344 78.4718C277.312 78.6507 277.355 78.8308 277.473 79.0122C277.595 79.1935 277.779 79.3666 278.026 79.5314C278.269 79.6932 278.515 79.81 278.764 79.8816C279.015 79.9548 279.252 79.9822 279.476 79.9639C279.7 79.9455 279.893 79.8814 280.055 79.7717C280.206 79.6693 280.287 79.5531 280.3 79.4231C280.314 79.2945 280.272 79.1484 280.172 78.9847C280.074 78.8224 279.931 78.6389 279.743 78.4341L279.189 77.8174C278.755 77.3429 278.519 76.8959 278.481 76.4765C278.443 76.057 278.674 75.6796 279.173 75.3444C279.577 75.067 280.042 74.8987 280.567 74.8397C281.094 74.782 281.637 74.8249 282.196 74.9681C282.755 75.1113 283.281 75.3477 283.776 75.6772C284.279 76.0126 284.633 76.3632 284.837 76.729C285.044 77.0963 285.1 77.4529 285.006 77.7989C284.911 78.1448 284.667 78.4558 284.273 78.7317L282.9 77.8159ZM288.696 79.081L281.976 83.6382L280.542 82.6827L287.263 78.1255L288.696 79.081ZM292.745 86.2988C292.012 86.7958 291.248 87.1252 290.454 87.2869C289.662 87.4502 288.89 87.4634 288.137 87.3266C287.389 87.1899 286.716 86.9221 286.118 86.5235C285.516 86.1218 285.111 85.6694 284.903 85.1662C284.696 84.663 284.71 84.1445 284.946 83.6105C285.182 83.0765 285.665 82.5618 286.396 82.0663C287.129 81.5694 287.891 81.2393 288.684 81.076C289.476 80.9128 290.246 80.8996 290.994 81.0363C291.744 81.1716 292.42 81.4401 293.023 81.8417C293.621 82.2404 294.023 82.6913 294.231 83.1945C294.443 83.6977 294.431 84.2163 294.195 84.7502C293.961 85.2857 293.478 85.8019 292.745 86.2988ZM291.292 85.3301C291.766 85.0082 292.095 84.6889 292.278 84.3722C292.462 84.057 292.51 83.7563 292.42 83.4699C292.33 83.1836 292.112 82.9249 291.766 82.6939C291.419 82.463 291.033 82.3185 290.606 82.2606C290.179 82.2027 289.731 82.2365 289.262 82.3619C288.795 82.4888 288.324 82.7132 287.849 83.0351C287.374 83.357 287.045 83.6755 286.86 83.9907C286.677 84.3074 286.631 84.6089 286.721 84.8952C286.811 85.1816 287.029 85.4402 287.375 85.6712C287.722 85.9022 288.108 86.0466 288.535 86.1045C288.961 86.1624 289.408 86.1279 289.876 86.0011C290.345 85.8756 290.817 85.652 291.292 85.3301ZM302.837 88.5082L296.117 93.0654L294.879 92.24L296.159 87.4056L296.109 87.3725L291.88 90.2407L290.446 89.2852L297.167 84.7281L298.425 85.5666L297.124 90.3834L297.184 90.4231L301.41 87.5571L302.837 88.5082Z" fill="black"/>
<path fill-rule="evenodd" clip-rule="evenodd" d="M81.3283 139.41L83.1627 138.408L227.324 41.5833L229.016 40.2148L228.929 40.2729L81.4131 139.351L81.3266 139.409L81.3283 139.41Z" fill="black"/>
<path fill-rule="evenodd" clip-rule="evenodd" d="M166.422 196.137L168.256 195.134L312.417 98.3099L314.109 96.9414L314.023 96.9995L166.507 196.077L166.42 196.136L166.422 196.137Z" fill="black"/>
<path fill-rule="evenodd" clip-rule="evenodd" d="M316.571 85.9346L316.398 86.0508L315.813 85.4287L245.415 38.4967L244.398 38.0508L244.485 38.1086L316.314 85.9947L316.398 86.0508L316.401 86.0525L316.574 85.9363L316.571 85.9346Z" fill="black"/>
<path fill-rule="evenodd" clip-rule="evenodd" d="M147.307 199.615L147.134 199.731L147.135 199.732L147.308 199.616L147.307 199.615ZM147.128 199.727L147.049 199.674L75.2195 151.788L75.1328 151.73L76.1489 152.176L146.542 199.105L147.128 199.727Z" fill="black"/>
<path d="M257.19 98.132C249.611 103.271 237.27 103.306 229.625 98.209C221.98 93.1125 221.927 84.815 229.505 79.6759C237.084 74.5368 249.425 74.5023 257.07 79.5988C264.715 84.6953 264.768 92.9929 257.19 98.132Z" fill="white" stroke="black" stroke-width="0.335816"/>
<circle r="28.131" transform="matrix(0.83271 0.55514 -0.82551 0.559777 196.314 119.196)" fill="white" stroke="black" stroke-width="0.568304"/>
<ellipse rx="30.9864" ry="9.74678" transform="matrix(0.974553 0.227667 -0.576613 0.813839 196.007 129.713)" fill="#D9D9D9" fill-opacity="0.4"/>
<path d="M164.565 158.726C156.986 163.865 144.645 163.899 137 158.803C129.355 153.706 129.302 145.409 136.88 140.27C144.459 135.131 156.8 135.096 164.445 140.193C172.09 145.289 172.143 153.587 164.565 158.726Z" fill="white" stroke="black" stroke-width="0.335816"/>
<path d="M182.533 126.708C176.809 125.811 172.064 123.284 168.297 119.127C164.552 114.973 161.913 109.379 160.379 102.345C158.867 95.3145 158.604 87.0932 159.59 77.6813C160.551 68.294 162.469 60.4605 165.343 54.1809C168.24 47.9045 171.918 43.3546 176.377 40.531C180.861 37.6828 185.955 36.6915 191.66 37.5571C197.364 38.4227 202.092 40.9044 205.843 45.0022C209.615 49.1033 212.273 54.6289 213.816 61.5788C215.361 68.5007 215.642 76.6536 214.659 86.0376C213.692 95.4809 211.756 103.383 208.851 109.743C205.968 116.107 202.293 120.743 197.825 123.65C193.357 126.558 188.26 127.577 182.533 126.708ZM184.078 111.619C187.985 112.211 191.357 110.205 194.195 105.598C197.034 100.992 198.95 93.7276 199.943 83.8045C200.611 77.2754 200.635 71.7584 200.014 67.2534C199.416 62.7517 198.263 59.2615 196.556 56.7828C194.87 54.3074 192.729 52.8727 190.132 52.4787C186.248 51.8892 182.889 53.8696 180.057 58.4198C177.224 62.9699 175.296 70.1331 174.273 79.9093C173.596 86.5224 173.552 92.1219 174.142 96.7076C174.757 101.269 175.917 104.803 177.622 107.309C179.329 109.788 181.481 111.224 184.078 111.619Z" fill="white"/>
<path fill-rule="evenodd" clip-rule="evenodd" d="M182.512 126.844L182.511 126.844C176.769 125.944 172.003 123.408 168.217 119.23L168.217 119.23C164.454 115.056 161.805 109.438 160.266 102.383L160.266 102.382C158.749 95.3297 158.487 87.0894 159.474 77.6646C160.437 68.2648 162.358 60.4127 165.241 54.1132L165.242 54.1128C168.147 47.8169 171.84 43.2462 176.321 40.4087C180.827 37.5466 185.944 36.5528 191.666 37.4211C197.389 38.2894 202.137 40.7802 205.906 44.8983C209.697 49.0193 212.365 54.5692 213.913 61.5408C215.463 68.4852 215.744 76.6576 214.759 86.0544C213.791 95.5102 211.852 103.43 208.938 109.81C206.046 116.194 202.356 120.85 197.866 123.772C193.376 126.694 188.256 127.716 182.512 126.844ZM208.843 109.743C211.749 103.383 213.685 95.4809 214.651 86.0376C215.635 76.6537 215.353 68.5008 213.808 61.5789C212.265 54.6289 209.608 49.1034 205.835 45.0022C202.084 40.9044 197.357 38.4227 191.652 37.5571C185.948 36.6915 180.853 37.6829 176.369 40.5311C171.91 43.3547 168.232 47.9046 165.335 54.1809C162.461 60.4606 160.543 68.2941 159.582 77.6814C158.596 87.0933 158.859 95.3146 160.371 102.345C161.905 109.379 164.544 114.973 168.289 119.127C172.056 123.284 176.802 125.811 182.525 126.708C188.252 127.577 193.349 126.558 197.817 123.65C202.285 120.743 205.96 116.107 208.843 109.743ZM199.827 83.7886L199.827 83.7882C200.495 77.2674 200.518 71.7651 199.9 67.278L199.899 67.2772C199.303 62.7911 198.156 59.3272 196.465 56.8732L196.465 56.8726C194.798 54.4232 192.681 53.0048 190.111 52.6148C186.271 52.0321 182.948 53.9842 180.134 58.5038C177.32 63.0251 175.395 70.1591 174.373 79.9261C173.697 86.5309 173.654 92.1159 174.242 96.6842C174.855 101.23 176.009 104.737 177.696 107.219C179.386 109.672 181.514 111.092 184.084 111.483C187.946 112.068 191.283 110.09 194.102 105.515C196.923 100.938 198.835 93.7026 199.827 83.7886ZM177.614 107.309C175.909 104.803 174.75 101.269 174.135 96.7076C173.545 92.1219 173.588 86.5225 174.265 79.9094C175.288 70.1331 177.216 62.97 180.049 58.4198C182.882 53.8697 186.24 51.8893 190.125 52.4787C192.722 52.8728 194.863 54.3075 196.548 56.7828C198.255 59.2615 199.408 62.7517 200.007 67.2534C200.627 71.7584 200.604 77.2755 199.935 83.8046C198.942 93.7276 197.026 100.992 194.188 105.598C191.349 110.205 187.977 112.211 184.07 111.619C181.473 111.224 179.321 109.788 177.614 107.309Z" fill="black"/>
<path d="M176.826 126.031L176.827 126.031C182.594 126.906 187.736 125.879 192.243 122.946C196.746 120.016 200.44 115.35 203.333 108.965C206.249 102.582 208.188 94.6593 209.156 85.2027C210.141 75.8051 209.861 67.6304 208.309 60.6824C206.761 53.7084 204.091 48.1481 200.289 44.0147C196.505 39.8815 191.736 37.3797 185.991 36.5079C180.247 35.6362 175.108 36.6346 170.586 39.5071C166.091 42.3532 162.393 46.9334 159.487 53.2316L159.486 53.2321C156.601 59.5348 154.68 67.389 153.718 76.7898C152.73 86.2153 152.992 94.4577 154.51 101.514L154.51 101.514C156.049 108.572 158.701 114.2 162.475 118.387L162.475 118.387C166.274 122.58 171.061 125.127 176.826 126.031ZM194.071 82.9132L194.071 82.9136C193.078 92.8279 191.166 100.059 188.349 104.63C185.531 109.204 182.217 111.147 178.41 110.569C175.872 110.184 173.765 108.783 172.085 106.344C170.405 103.873 169.252 100.373 168.639 95.8283C168.051 91.2622 168.094 85.6784 168.77 79.0741C169.793 69.307 171.717 62.1772 174.528 57.6619C177.34 53.1445 180.64 51.2268 184.426 51.8012C186.963 52.1863 189.059 53.5855 190.717 56.0211L190.717 56.022C192.4 58.4648 193.546 61.9207 194.143 66.4065L194.143 66.4074C194.761 70.8921 194.738 76.3929 194.071 82.9132Z" fill="#EA5F5F" stroke="black" stroke-width="0.373645"/>
<path fill-rule="evenodd" clip-rule="evenodd" d="M176.84 125.979L176.839 125.979C171.097 125.08 166.331 122.544 162.545 118.367L162.544 118.366C158.781 114.193 156.131 108.575 154.592 101.52L154.592 101.519C153.075 94.4669 152.812 86.2266 153.798 76.8017C154.76 67.4018 156.68 59.5495 159.563 53.2498L159.564 53.2493C162.469 46.9531 166.161 42.3821 170.642 39.5442C175.148 36.6816 180.264 35.6872 185.987 36.5549C191.709 37.4227 196.458 39.9129 200.228 44.0307C204.019 48.1512 206.687 53.7008 208.235 60.6723C209.786 67.6165 210.068 75.7888 209.084 85.1857C208.117 94.6416 206.178 102.562 203.264 108.942C200.373 115.326 196.683 119.983 192.194 122.905C187.704 125.828 182.585 126.85 176.84 125.979ZM203.17 108.875C206.075 102.514 208.01 94.6124 208.976 85.169C209.959 75.785 209.677 67.6321 208.131 60.7104C206.588 53.7606 203.929 48.2353 200.156 44.1346C196.405 40.0372 191.678 37.556 185.973 36.691C180.268 35.826 175.174 36.8178 170.69 39.6665C166.231 42.4905 162.554 47.0409 159.657 53.3175C156.784 59.5974 154.866 67.4311 153.906 76.8185C152.921 86.2305 153.184 94.4517 154.697 101.482C156.231 108.516 158.871 114.11 162.617 118.263C166.384 122.42 171.13 124.946 176.854 125.843C182.58 126.711 187.677 125.691 192.145 122.783C196.613 119.875 200.288 115.239 203.17 108.875ZM194.152 82.9215L194.152 82.9211C194.819 76.4002 194.841 70.8979 194.223 66.411L194.223 66.4102C193.626 61.9241 192.478 58.4603 190.788 56.0065L190.787 56.0059C189.12 53.5567 187.003 52.1385 184.433 51.7487C180.593 51.1665 177.27 53.1189 174.457 57.6388C171.643 62.1604 169.719 69.2946 168.697 79.0617C168.021 85.6665 167.979 91.2515 168.567 95.8197C169.181 100.365 170.335 103.873 172.023 106.354C173.713 108.807 175.841 110.227 178.411 110.617C182.273 111.203 185.609 109.224 188.428 104.648C191.249 100.071 193.16 92.8356 194.152 82.9215ZM171.94 106.445C170.236 103.938 169.076 100.404 168.46 95.8432C167.87 91.2575 167.913 85.6581 168.589 79.0449C169.612 69.2686 171.539 62.1053 174.372 57.5548C177.204 53.0044 180.562 51.0237 184.447 51.6127C187.044 52.0065 189.185 53.441 190.87 55.9161C192.578 58.3947 193.731 61.8847 194.33 66.3863C194.951 70.8913 194.928 76.4083 194.26 82.9374C193.267 92.8606 191.352 100.125 188.514 104.732C185.676 109.338 182.304 111.345 178.397 110.753C175.8 110.359 173.648 108.923 171.94 106.445Z" fill="black"/>
<path d="M214.699 120.148L214.699 120.149C214.164 121.038 213.854 122.034 213.767 123.135L213.654 124.549C213.566 125.65 213.714 126.688 214.099 127.661L214.1 127.662C214.487 128.63 215.104 129.432 215.947 130.064C216.796 130.711 217.872 131.082 219.161 131.188C220.434 131.293 221.549 131.102 222.498 130.604C223.439 130.119 224.179 129.429 224.715 128.536L224.716 128.536C225.25 127.638 225.561 126.638 225.649 125.537L225.761 124.123C225.85 123.014 225.702 121.976 225.316 121.011C224.937 120.034 224.32 119.228 223.468 118.594C222.618 117.957 221.543 117.59 220.254 117.484C218.981 117.379 217.865 117.57 216.917 118.068C215.984 118.555 215.244 119.249 214.699 120.148ZM220.951 126.841L220.95 126.843C220.671 127.285 220.196 127.498 219.46 127.437C218.727 127.377 218.28 127.085 218.059 126.59C217.823 126.044 217.729 125.478 217.776 124.889L217.889 123.474C217.937 122.868 218.125 122.317 218.452 121.818C218.749 121.364 219.233 121.149 219.957 121.209C220.72 121.272 221.16 121.565 221.356 122.051C221.576 122.596 221.662 123.172 221.614 123.781L221.501 125.196C221.452 125.803 221.269 126.351 220.951 126.841ZM204.613 101.591L204.613 101.591L204.612 101.591C203.68 102.078 202.94 102.772 202.395 103.671C201.851 104.56 201.536 105.561 201.448 106.67L201.335 108.085C201.248 109.185 201.391 110.218 201.769 111.182L201.769 111.182L201.769 111.184C202.158 112.143 202.775 112.944 203.616 113.585L203.618 113.586C204.476 114.224 205.551 114.591 206.832 114.696C208.112 114.802 209.227 114.62 210.166 114.139L210.166 114.139C211.107 113.653 211.847 112.964 212.384 112.071C212.927 111.183 213.242 110.182 213.33 109.073L213.443 107.658C213.531 106.549 213.384 105.511 212.997 104.546C212.61 103.569 211.994 102.763 211.15 102.13C210.3 101.492 209.22 101.125 207.923 101.018C206.666 100.914 205.561 101.102 204.613 101.591ZM208.633 110.376L208.633 110.376L208.631 110.378C208.353 110.82 207.874 111.033 207.129 110.971C206.423 110.913 205.987 110.628 205.764 110.139C205.529 109.603 205.435 109.033 205.483 108.426L205.596 107.012C205.643 106.422 205.826 105.874 206.147 105.364C206.438 104.902 206.913 104.684 207.626 104.743C208.398 104.807 208.842 105.101 209.038 105.586C209.258 106.131 209.344 106.707 209.295 107.317L209.182 108.731C209.134 109.339 208.95 109.886 208.633 110.376ZM201.451 128.501L201.232 128.776L201.582 128.804L204.958 129.083L205.057 129.091L205.119 129.013L225.4 103.686L225.62 103.412L225.269 103.383L221.893 103.105L221.795 103.097L221.733 103.174L201.451 128.501Z" fill="#FFFEFE" stroke="black" stroke-width="0.373645"/>
<path d="M212.519 119.695L212.519 119.696C211.985 120.585 211.675 121.581 211.587 122.682L211.474 124.096C211.386 125.197 211.534 126.235 211.92 127.208L211.92 127.209C212.308 128.177 212.924 128.978 213.767 129.611C214.617 130.258 215.692 130.629 216.981 130.735C218.255 130.84 219.37 130.649 220.318 130.151C221.259 129.666 221.999 128.976 222.536 128.083L222.536 128.083C223.071 127.185 223.381 126.185 223.469 125.084L223.582 123.67C223.67 122.561 223.523 121.523 223.136 120.558C222.758 119.581 222.141 118.774 221.288 118.141C220.438 117.504 219.363 117.137 218.074 117.031C216.801 116.926 215.686 117.117 214.737 117.615C213.805 118.101 213.065 118.796 212.519 119.695ZM218.771 126.388L218.77 126.39C218.491 126.832 218.016 127.044 217.281 126.984C216.548 126.924 216.101 126.632 215.879 126.136C215.643 125.591 215.549 125.025 215.596 124.436L215.709 123.021C215.757 122.415 215.945 121.863 216.272 121.365C216.57 120.911 217.053 120.696 217.777 120.756C218.54 120.819 218.981 121.112 219.177 121.598C219.396 122.143 219.483 122.719 219.434 123.328L219.321 124.743C219.273 125.35 219.089 125.898 218.771 126.388ZM202.433 101.138L202.433 101.138L202.433 101.138C201.5 101.625 200.76 102.319 200.215 103.218C199.672 104.107 199.357 105.107 199.268 106.217L199.156 107.631C199.068 108.731 199.212 109.765 199.589 110.729L199.589 110.729L199.59 110.731C199.978 111.69 200.595 112.491 201.436 113.132L201.438 113.133C202.296 113.771 203.371 114.138 204.652 114.243C205.933 114.349 207.047 114.167 207.986 113.686L207.986 113.685C208.927 113.2 209.668 112.51 210.204 111.618C210.747 110.73 211.062 109.729 211.15 108.62L211.263 107.205C211.352 106.096 211.204 105.058 210.818 104.093C210.43 103.116 209.814 102.31 208.971 101.677C208.12 101.039 207.041 100.672 205.743 100.565C204.487 100.461 203.381 100.649 202.433 101.138ZM206.453 109.923L206.453 109.923L206.452 109.925C206.173 110.367 205.694 110.58 204.949 110.518C204.244 110.46 203.808 110.175 203.585 109.686C203.349 109.15 203.255 108.58 203.303 107.973L203.416 106.559C203.463 105.969 203.646 105.421 203.967 104.911C204.258 104.449 204.733 104.231 205.446 104.29C206.218 104.354 206.662 104.648 206.858 105.133C207.078 105.678 207.164 106.254 207.115 106.863L207.003 108.278C206.954 108.885 206.771 109.433 206.453 109.923ZM199.272 128.048L199.052 128.322L199.403 128.351L202.779 128.629L202.878 128.638L202.939 128.56L223.221 103.233L223.44 102.959L223.09 102.93L219.714 102.652L219.615 102.644L219.553 102.721L199.272 128.048Z" fill="#EA5F5F" stroke="black" stroke-width="0.373645"/>
</svg>
