<svg width="344" height="232" viewBox="0 0 344 232" fill="none" xmlns="http://www.w3.org/2000/svg">
<rect width="101.983" height="195.935" rx="8.03014" transform="matrix(0.83205 0.5547 -0.830139 0.557556 206.581 42.813)" fill="black" fill-opacity="0.05"/>
<rect x="0.000383661" y="0.223289" width="101.581" height="195.534" rx="7.82938" transform="matrix(0.83205 0.5547 -0.830139 0.557556 206.766 20.4677)" fill="black" stroke="black" stroke-width="0.401507"/>
<rect x="0.000383661" y="0.223289" width="101.581" height="195.534" rx="7.82938" transform="matrix(0.83205 0.5547 -0.830139 0.557556 206.766 18.8217)" fill="white" stroke="black" stroke-width="0.401507"/>
<path d="M211.765 37.4582L210.413 36.5569C210.562 36.4228 210.665 36.2847 210.724 36.1427C210.785 35.9992 210.803 35.8552 210.78 35.7106C210.756 35.566 210.692 35.4243 210.586 35.2854C210.483 35.1479 210.341 35.0188 210.16 34.8981C209.832 34.6799 209.467 34.5446 209.063 34.492C208.661 34.438 208.24 34.4702 207.8 34.5885C207.362 34.7055 206.926 34.9113 206.492 35.2059C206.045 35.5089 205.736 35.808 205.566 36.1034C205.398 36.4 205.358 36.6819 205.446 36.9489C205.533 37.216 205.737 37.4558 206.056 37.6685C206.235 37.7878 206.424 37.8824 206.623 37.9521C206.824 38.0231 207.03 38.068 207.239 38.0867C207.45 38.1041 207.66 38.0945 207.869 38.0581C208.079 38.0231 208.284 37.9591 208.482 37.8663L209.828 38.7718C209.505 38.9435 209.14 39.0734 208.733 39.1613C208.33 39.2492 207.906 39.2862 207.462 39.2723C207.021 39.2584 206.578 39.1853 206.132 39.0529C205.691 38.9205 205.267 38.7191 204.862 38.4488C204.298 38.0729 203.92 37.651 203.729 37.1831C203.539 36.7166 203.556 36.235 203.778 35.7384C204.002 35.2432 204.455 34.7646 205.136 34.3025C205.82 33.839 206.531 33.5312 207.27 33.379C208.009 33.2267 208.726 33.2137 209.421 33.3399C210.119 33.4647 210.745 33.7123 211.301 34.0827C211.667 34.3269 211.956 34.5879 212.166 34.8656C212.379 35.1447 212.509 35.4316 212.556 35.7263C212.605 36.0196 212.565 36.3125 212.436 36.6049C212.309 36.8987 212.085 37.1832 211.765 37.4582ZM217.594 42.6074C216.91 43.0708 216.198 43.378 215.457 43.5288C214.719 43.6811 213.999 43.6934 213.297 43.5659C212.599 43.4383 211.972 43.1887 211.414 42.8168C210.852 42.4423 210.475 42.0204 210.281 41.5511C210.087 41.0819 210.101 40.5983 210.321 40.1003C210.541 39.6023 210.992 39.1223 211.673 38.6602C212.357 38.1968 213.068 37.8889 213.806 37.7367C214.545 37.5844 215.263 37.5721 215.961 37.6997C216.66 37.8258 217.291 38.0762 217.853 38.4507C218.411 38.8225 218.786 39.2431 218.98 39.7123C219.177 40.1816 219.166 40.6652 218.946 41.1632C218.728 41.6625 218.277 42.1439 217.594 42.6074ZM216.239 41.7039C216.681 41.4037 216.988 41.106 217.158 40.8107C217.33 40.5167 217.375 40.2362 217.291 39.9692C217.207 39.7021 217.004 39.4609 216.681 39.2455C216.358 39.0301 215.997 38.8954 215.599 38.8414C215.201 38.7874 214.784 38.8189 214.346 38.9359C213.91 39.0542 213.471 39.2635 213.028 39.5637C212.586 39.8639 212.278 40.1609 212.106 40.4549C211.936 40.7502 211.892 41.0314 211.976 41.2984C212.06 41.5654 212.263 41.8067 212.586 42.0221C212.909 42.2375 213.27 42.3722 213.668 42.4262C214.065 42.4802 214.482 42.448 214.918 42.3297C215.356 42.2127 215.796 42.0041 216.239 41.7039ZM221.718 41.1425L223.366 42.2415L220.896 46.2576L220.97 46.3069L226.922 44.6122L228.571 45.7112L222.303 49.9611L221.007 49.0967L225.086 46.3306L225.034 46.2956L219.349 47.9503L218.466 47.3617L220.894 43.5152L220.841 43.4802L216.747 46.2568L215.45 45.3924L221.718 41.1425ZM229.672 46.4454L231.32 47.5443L228.85 51.5604L228.925 51.6098L234.876 49.9151L236.525 51.014L230.258 55.2639L228.961 54.3996L233.04 51.6334L232.988 51.5984L227.303 53.2531L226.42 52.6645L228.848 48.818L228.796 48.7831L224.701 51.5596L223.405 50.6953L229.672 46.4454ZM238.963 52.6393L232.695 56.8892L231.359 55.9981L237.626 51.7482L238.963 52.6393ZM241.69 56.8811C241.912 56.6972 241.998 56.4965 241.947 56.279C241.896 56.0615 241.711 55.8457 241.39 55.6316C241.171 55.4862 240.957 55.3842 240.745 55.3255C240.536 55.2655 240.338 55.2447 240.152 55.2631C239.967 55.2829 239.808 55.3385 239.673 55.4298C239.557 55.5031 239.483 55.5853 239.45 55.6763C239.42 55.7687 239.421 55.8665 239.452 55.9698C239.486 56.0716 239.541 56.1783 239.617 56.2896C239.696 56.3996 239.789 56.511 239.896 56.6236L240.329 57.0936C240.544 57.319 240.715 57.5431 240.844 57.7659C240.972 57.9887 241.047 58.2069 241.066 58.4204C241.086 58.6339 241.041 58.84 240.932 59.0387C240.825 59.2387 240.642 59.428 240.382 59.6064C239.997 59.8652 239.566 60.0248 239.088 60.0854C238.616 60.1459 238.118 60.1067 237.597 59.9676C237.08 59.8285 236.564 59.5875 236.049 59.2445C235.539 58.9043 235.172 58.5553 234.948 58.1978C234.727 57.8415 234.662 57.4897 234.754 57.1423C234.85 56.7948 235.119 56.4648 235.559 56.1522L236.853 57.0145C236.657 57.1666 236.542 57.326 236.508 57.4928C236.479 57.6596 236.519 57.8276 236.628 57.9967C236.742 58.1659 236.914 58.3273 237.145 58.4809C237.371 58.6319 237.6 58.7407 237.832 58.8076C238.066 58.8758 238.288 58.9014 238.497 58.8843C238.706 58.8672 238.886 58.8074 239.037 58.705C239.177 58.6096 239.253 58.5012 239.265 58.3799C239.279 58.26 239.239 58.1238 239.146 57.9711C239.054 57.8198 238.921 57.6486 238.746 57.4576L238.229 56.8825C237.824 56.44 237.604 56.0232 237.569 55.632C237.534 55.2408 237.749 54.8889 238.214 54.5762C238.591 54.3175 239.025 54.1606 239.514 54.1055C240.005 54.0518 240.512 54.0917 241.033 54.2253C241.554 54.3589 242.046 54.5793 242.507 54.8866C242.976 55.1994 243.306 55.5264 243.497 55.8675C243.689 56.2101 243.742 56.5426 243.654 56.8653C243.565 57.1879 243.338 57.4779 242.971 57.7351L241.69 56.8811ZM247.386 60.6785C247.608 60.4947 247.694 60.294 247.643 60.0764C247.593 59.8589 247.407 59.6431 247.086 59.4291C246.868 59.2837 246.653 59.1816 246.441 59.123C246.232 59.0629 246.034 59.0421 245.848 59.0606C245.663 59.0804 245.504 59.1359 245.369 59.2272C245.253 59.3006 245.179 59.3828 245.147 59.4738C245.116 59.5662 245.117 59.664 245.148 59.7672C245.182 59.8691 245.237 59.9757 245.313 60.0871C245.392 60.1971 245.485 60.3084 245.592 60.4211L246.026 60.8911C246.24 61.1164 246.412 61.3405 246.54 61.5633C246.669 61.7862 246.743 62.0043 246.763 62.2178C246.782 62.4313 246.738 62.6374 246.628 62.8361C246.521 63.0362 246.338 63.2254 246.079 63.4039C245.693 63.6626 245.262 63.8222 244.785 63.8828C244.312 63.9434 243.815 63.9041 243.293 63.7651C242.776 63.626 242.26 63.3849 241.746 63.042C241.235 62.7017 240.868 62.3528 240.645 61.9952C240.423 61.639 240.358 61.2872 240.45 60.9397C240.546 60.5923 240.815 60.2622 241.255 59.9496L242.549 60.8119C242.353 60.964 242.238 61.1235 242.204 61.2903C242.175 61.4571 242.215 61.625 242.325 61.7942C242.438 61.9633 242.61 62.1247 242.841 62.2784C243.067 62.4293 243.297 62.5382 243.529 62.605C243.763 62.6733 243.984 62.6988 244.193 62.6817C244.402 62.6646 244.582 62.6049 244.733 62.5025C244.873 62.407 244.95 62.2987 244.961 62.1774C244.975 62.0575 244.935 61.9212 244.842 61.7685C244.751 61.6172 244.617 61.4461 244.442 61.2551L243.925 60.6799C243.52 60.2375 243.3 59.8206 243.265 59.4294C243.23 59.0383 243.445 58.6863 243.91 58.3737C244.287 58.115 244.721 57.9581 245.21 57.903C245.702 57.8493 246.208 57.8892 246.729 58.0227C247.251 58.1563 247.742 58.3767 248.203 58.6841C248.672 58.9969 249.002 59.3238 249.193 59.665C249.385 60.0075 249.438 60.3401 249.35 60.6627C249.262 60.9853 249.034 61.2753 248.667 61.5326L247.386 60.6785ZM252.791 61.8584L246.524 66.1083L245.187 65.2172L251.455 60.9673L252.791 61.8584ZM256.567 68.5896C255.884 69.053 255.172 69.3602 254.431 69.5111C253.692 69.6633 252.972 69.6757 252.27 69.5481C251.573 69.4206 250.945 69.1709 250.387 68.7991C249.826 68.4245 249.448 68.0026 249.254 67.5334C249.061 67.0641 249.074 66.5805 249.294 66.0825C249.514 65.5845 249.965 65.1045 250.646 64.6424C251.33 64.179 252.041 63.8711 252.78 63.7189C253.518 63.5667 254.237 63.5543 254.934 63.6819C255.634 63.8081 256.264 64.0584 256.826 64.433C257.384 64.8048 257.759 65.2253 257.953 65.6946C258.151 66.1638 258.14 66.6474 257.919 67.1454C257.701 67.6448 257.251 68.1261 256.567 68.5896ZM255.212 67.6862C255.655 67.3859 255.961 67.0882 256.131 66.7929C256.304 66.4989 256.348 66.2185 256.264 65.9514C256.181 65.6844 255.977 65.4431 255.654 65.2277C255.331 65.0123 254.97 64.8776 254.573 64.8237C254.175 64.7697 253.757 64.8011 253.319 64.9181C252.883 65.0364 252.444 65.2457 252.002 65.5459C251.559 65.8461 251.251 66.1432 251.079 66.4371C250.909 66.7324 250.866 67.0136 250.949 67.2806C251.033 67.5477 251.236 67.7889 251.559 68.0043C251.883 68.2197 252.243 68.3544 252.641 68.4084C253.039 68.4624 253.456 68.4302 253.891 68.3119C254.329 68.1949 254.769 67.9864 255.212 67.6862ZM265.979 70.65L259.712 74.8999L258.557 74.1302L259.751 69.6217L259.705 69.5909L255.76 72.2657L254.424 71.3746L260.691 67.1247L261.864 67.9068L260.651 72.3988L260.707 72.4358L264.648 69.763L265.979 70.65Z" fill="black"/>
<path fill-rule="evenodd" clip-rule="evenodd" d="M60.2386 120.579L61.966 119.635L196.385 29.3534L197.963 28.0771L197.882 28.1313L60.3117 120.529L60.2386 120.579Z" fill="black"/>
<path fill-rule="evenodd" clip-rule="evenodd" d="M139.592 173.48L141.319 172.537L275.738 82.2552L277.316 80.979L277.236 81.0332L139.665 173.431L139.592 173.48Z" fill="black"/>
<path fill-rule="evenodd" clip-rule="evenodd" d="M279.618 70.7116L279.457 70.8199L279.458 70.8206L279.619 70.7123L279.618 70.7116ZM279.454 70.8179L279.377 70.7667L212.39 26.1091L212.31 26.0552L213.257 26.4711L278.907 70.2378L279.454 70.8179Z" fill="black"/>
<path fill-rule="evenodd" clip-rule="evenodd" d="M121.762 176.728L121.601 176.837L121.602 176.837L121.763 176.729L121.762 176.728ZM121.597 176.834L121.521 176.783L54.5344 132.126L54.4536 132.072L55.4012 132.488L121.05 176.254L121.597 176.834Z" fill="black"/>
<path d="M224.24 82.0885C217.172 86.8811 205.663 86.9133 198.534 82.1604C191.404 77.4075 191.354 69.6693 198.422 64.8768C205.49 60.0842 216.999 60.052 224.128 64.8049C231.258 69.5578 231.308 77.2959 224.24 82.0885Z" fill="white" stroke="black" stroke-width="0.313175"/>
<circle cx="26.4995" cy="26.4995" r="26.2345" transform="matrix(0.83271 0.55514 -0.82551 0.559777 167.281 72.188)" fill="white" stroke="black" stroke-width="0.529989"/>
<ellipse cx="28.8973" cy="9.08965" rx="28.8973" ry="9.08965" transform="matrix(0.974553 0.227667 -0.576613 0.813839 144.265 97.5615)" fill="#D9D9D9" fill-opacity="0.4"/>
<path d="M137.858 138.596C130.79 143.389 119.281 143.421 112.152 138.668C105.023 133.915 104.973 126.177 112.04 121.385C119.108 116.592 130.617 116.56 137.746 121.313C144.876 126.066 144.926 133.804 137.858 138.596Z" fill="white" stroke="black" stroke-width="0.313175"/>
<path d="M154.592 108.937L154.593 108.938C159.979 109.755 164.782 108.796 168.991 106.057C173.196 103.32 176.645 98.9639 179.344 93.0055C182.065 87.0488 183.875 79.657 184.778 70.8356C185.696 62.0692 185.435 54.4419 183.987 47.958C182.543 41.4501 180.05 36.2588 176.499 32.3986C172.966 28.5381 168.511 26.2016 163.147 25.3875C157.782 24.5735 152.983 25.5058 148.759 28.1888C144.561 30.8469 141.11 35.1234 138.397 41.0005L138.397 41.0011C135.705 46.8828 133.912 54.211 133.014 62.9802C132.093 71.7726 132.338 79.4628 133.754 86.0472L133.754 86.0479C135.19 92.6338 137.665 97.8888 141.19 101.798L141.19 101.799C144.739 105.715 149.21 108.094 154.592 108.937ZM170.647 68.6908L170.647 68.6913C169.721 77.9357 167.939 84.6738 165.315 88.9308C162.69 93.1906 159.61 94.992 156.076 94.4558C153.72 94.0982 151.763 92.7977 150.2 90.5294C148.638 88.231 147.563 84.973 146.992 80.7371C146.445 76.4823 146.484 71.2779 147.114 65.1205C148.068 56.0132 149.862 49.3696 152.48 45.1646C155.099 40.9573 158.166 39.1794 161.68 39.7126C164.037 40.0701 165.983 41.369 167.525 43.6337L167.525 43.6347C169.09 45.9068 170.158 49.1239 170.714 53.3045L170.714 53.3055C171.29 57.4845 171.269 62.6117 170.647 68.6908Z" fill="white" stroke="black" stroke-width="0.411586"/>
<path fill-rule="evenodd" clip-rule="evenodd" d="M154.599 108.86L154.599 108.86C149.244 108.021 144.799 105.656 141.268 101.76L141.268 101.76C137.759 97.867 135.288 92.6275 133.853 86.0478L133.853 86.0474C132.439 79.4704 132.194 71.7856 133.115 62.9962C134.013 54.2301 135.804 46.9075 138.493 41.0327L138.493 41.0323C141.203 35.1608 144.647 30.8983 148.826 28.2522C153.028 25.583 157.8 24.6561 163.136 25.4659C168.473 26.2757 172.902 28.5986 176.417 32.4391C179.952 36.2822 182.44 41.4579 183.883 47.9595C185.329 54.4357 185.591 62.0571 184.673 70.8204C183.77 79.6387 181.961 87.0249 179.244 92.9747C176.547 98.9277 173.105 103.27 168.919 105.995C164.731 108.72 159.957 109.673 154.599 108.86ZM179.156 92.9121C181.865 86.9805 183.671 79.6114 184.572 70.8047C185.489 62.0535 185.227 54.4502 183.786 47.995C182.347 41.5136 179.868 36.3606 176.35 32.536C172.852 28.7144 168.443 26.4 163.123 25.5928C157.804 24.7856 153.053 25.71 148.871 28.3663C144.712 30.9995 141.282 35.2426 138.581 41.0958C135.9 46.9521 134.112 54.2575 133.216 63.0119C132.296 71.7893 132.541 79.4563 133.951 86.0129C135.382 92.5727 137.843 97.7894 141.336 101.663C144.849 105.54 149.274 107.897 154.612 108.733C159.953 109.544 164.706 108.593 168.873 105.882C173.039 103.17 176.467 98.8468 179.156 92.9121ZM170.748 68.7074L170.748 68.707C171.37 62.6258 171.391 57.4945 170.815 53.3099L170.815 53.3092C170.258 49.1255 169.189 45.8951 167.612 43.6066L167.612 43.606C166.057 41.3218 164.083 39.999 161.686 39.6353C158.105 39.0919 155.006 40.9124 152.382 45.1273C149.757 49.3437 147.963 55.9968 147.009 65.1053C146.379 71.2648 146.339 76.4733 146.887 80.7336C147.459 84.9725 148.535 88.2437 150.108 90.5584C151.684 92.8461 153.669 94.1704 156.066 94.5342C159.667 95.0806 162.779 93.236 165.408 88.9689C168.038 84.7004 169.822 77.953 170.748 68.7074ZM150.032 90.6424C148.442 88.3046 147.36 85.009 146.787 80.7554C146.237 76.4789 146.277 71.2569 146.909 65.0897C147.863 55.9726 149.661 49.2923 152.303 45.0489C154.944 40.8055 158.076 38.9587 161.699 39.5084C164.121 39.8759 166.117 41.2139 167.689 43.5223C169.281 45.8339 170.356 49.0888 170.915 53.287C171.494 57.4883 171.471 62.6334 170.848 68.7222C169.922 77.9763 168.135 84.7511 165.488 89.0468C162.841 93.3424 159.696 95.2139 156.053 94.661C153.631 94.2935 151.624 92.954 150.032 90.6424Z" fill="black"/>
<path d="M149.296 108.104L149.297 108.104C154.676 108.92 159.472 107.963 163.674 105.228C167.873 102.495 171.319 98.1436 174.017 92.1889C176.736 86.236 178.544 78.8477 179.447 70.0285C180.366 61.2645 180.104 53.6411 178.657 47.1615C177.214 40.6575 174.723 35.472 171.177 31.6172C167.649 27.7627 163.202 25.4297 157.844 24.6167C152.487 23.8037 147.695 24.7348 143.477 27.4138C139.285 30.068 135.837 34.3394 133.126 40.2128L133.126 40.2133C130.436 46.0911 128.644 53.4158 127.746 62.1828C126.825 70.9728 127.07 78.6595 128.485 85.2397L128.485 85.2402C129.92 91.8221 132.393 97.0712 135.913 100.975L135.913 100.976C139.456 104.886 143.921 107.261 149.296 108.104ZM165.379 67.8933L165.379 67.8937C164.453 77.1396 162.67 83.8833 160.043 88.1463C157.415 92.4116 154.324 94.2237 150.773 93.6849C148.407 93.3259 146.443 92.0195 144.876 89.7447C143.309 87.4403 142.233 84.1763 141.662 79.9375C141.114 75.6793 141.153 70.4723 141.784 64.3134C142.737 55.2047 144.532 48.5554 147.153 44.3445C149.776 40.1317 152.854 38.3432 156.384 38.8789C158.751 39.238 160.705 40.5429 162.251 42.8143L162.251 42.8152C163.821 45.0933 164.89 48.3162 165.446 52.4995L165.446 52.5004C166.022 56.6827 166.001 61.8127 165.379 67.8933Z" fill="#EA5F5F" stroke="black" stroke-width="0.348454"/>
<path fill-rule="evenodd" clip-rule="evenodd" d="M149.307 108.055L149.307 108.055C143.952 107.216 139.506 104.851 135.976 100.955L135.976 100.955C132.466 97.0631 129.995 91.8239 128.559 85.2443L128.559 85.2439C127.144 78.6671 126.899 70.9824 127.819 62.1929C128.716 53.4267 130.507 46.1039 133.196 40.2288L133.196 40.2284C135.905 34.3567 139.348 30.0938 143.527 27.4472C147.729 24.7776 152.501 23.8503 157.838 24.6595C163.174 25.4688 167.603 27.7912 171.118 31.6313C174.654 35.474 177.142 40.6495 178.586 47.1509C180.033 53.6269 180.295 61.2483 179.377 70.0116C178.475 78.83 176.667 86.2164 173.95 92.1665C171.254 98.1197 167.813 102.463 163.626 105.188C159.439 107.913 154.665 108.867 149.307 108.055ZM173.862 92.1039C176.571 86.1721 178.376 78.8028 179.277 69.996C180.193 61.2447 179.93 53.6415 178.489 47.1864C177.049 40.7052 174.57 35.5525 171.052 31.7282C167.554 27.907 163.145 25.5931 157.825 24.7864C152.505 23.9797 147.754 24.9047 143.572 27.5613C139.414 30.195 135.984 34.4385 133.283 40.2919C130.603 46.1485 128.815 53.4541 127.92 62.2085C127.001 70.986 127.247 78.6529 128.657 85.2094C130.088 91.769 132.55 96.9855 136.043 100.859C139.556 104.736 143.982 107.092 149.32 107.928C154.661 108.738 159.414 107.786 163.58 105.074C167.747 102.362 171.174 98.0389 173.862 92.1039ZM165.452 67.9001L165.452 67.8997C166.074 61.8185 166.095 56.6871 165.518 52.5027L165.518 52.5019C164.961 48.3184 163.891 45.088 162.315 42.7997L162.314 42.7992C160.759 40.515 158.785 39.1925 156.388 38.829C152.807 38.286 149.708 40.1068 147.085 44.322C144.46 48.5387 142.666 55.1919 141.713 64.3005C141.083 70.4601 141.044 75.6685 141.592 79.9287C142.164 84.1677 143.241 87.4387 144.815 89.7532C146.391 92.0408 148.375 93.3649 150.772 93.7284C154.374 94.2744 157.485 92.4295 160.115 88.1622C162.744 83.8934 164.527 77.1458 165.452 67.9001ZM144.738 89.8372C143.148 87.4997 142.066 84.2041 141.492 79.9506C140.942 75.6741 140.982 70.4522 141.613 64.2849C142.567 55.1677 144.364 48.4873 147.005 44.2436C149.647 40 152.779 38.1528 156.401 38.7021C158.823 39.0693 160.82 40.4071 162.392 42.7154C163.984 45.0268 165.059 48.2816 165.618 52.4797C166.197 56.681 166.176 61.826 165.553 67.915C164.627 77.1691 162.841 83.9441 160.194 88.24C157.548 92.536 154.403 94.4077 150.759 93.8552C148.338 93.488 146.33 92.1487 144.738 89.8372Z" fill="black"/>
<path d="M184.621 102.615L184.621 102.616C184.123 103.445 183.833 104.374 183.752 105.4L183.646 106.719C183.565 107.746 183.702 108.714 184.062 109.622L184.062 109.622C184.424 110.525 184.999 111.273 185.785 111.862C186.577 112.466 187.58 112.812 188.783 112.911C189.97 113.009 191.01 112.83 191.895 112.366C192.772 111.913 193.462 111.27 193.962 110.438L193.963 110.437C194.461 109.6 194.751 108.667 194.833 107.641L194.938 106.322C195.02 105.288 194.883 104.32 194.522 103.42C194.169 102.509 193.594 101.757 192.799 101.166C192.006 100.571 191.004 100.229 189.802 100.13C188.614 100.033 187.574 100.211 186.689 100.675C185.82 101.129 185.13 101.776 184.621 102.615ZM189.048 109.586C189.777 109.646 190.293 109.435 190.598 108.952C190.911 108.469 191.091 107.931 191.138 107.337L191.243 106.018C191.291 105.423 191.207 104.859 190.991 104.325C190.776 103.791 190.292 103.493 189.538 103.431C188.818 103.371 188.296 103.587 187.975 104.076C187.654 104.566 187.469 105.108 187.422 105.703L187.317 107.022C187.271 107.6 187.363 108.157 187.595 108.692C187.834 109.228 188.319 109.526 189.048 109.586ZM190.452 108.857L190.451 108.859C190.191 109.271 189.747 109.469 189.061 109.413C188.378 109.356 187.961 109.084 187.754 108.622C187.534 108.113 187.447 107.585 187.491 107.036L187.596 105.717C187.641 105.151 187.816 104.637 188.121 104.172C188.399 103.749 188.85 103.549 189.525 103.604C190.236 103.663 190.647 103.937 190.83 104.39C191.035 104.898 191.115 105.435 191.07 106.003L190.964 107.322C190.919 107.889 190.748 108.399 190.452 108.857ZM175.215 85.3092L175.215 85.3095C174.345 85.763 173.655 86.4103 173.146 87.2491C172.64 88.0778 172.346 89.0111 172.264 90.0458L172.158 91.3649C172.077 92.3908 172.211 93.3544 172.563 94.2531L172.563 94.2531L172.563 94.255C172.926 95.1496 173.501 95.8967 174.285 96.4942L174.287 96.4954C175.087 97.0903 176.09 97.4326 177.284 97.531C178.479 97.6294 179.518 97.4596 180.394 97.011L180.394 97.0107C181.271 96.5582 181.962 95.9149 182.462 95.0827C182.969 94.2541 183.262 93.3209 183.345 92.2863L183.45 90.9673C183.532 89.9331 183.395 88.9647 183.034 88.0649C182.673 87.1538 182.098 86.4018 181.312 85.8118C180.519 85.2168 179.512 84.8744 178.302 84.7747C177.13 84.6782 176.099 84.8533 175.215 85.3092ZM178.964 93.5021L178.964 93.5021L178.963 93.5039C178.703 93.9156 178.256 94.1142 177.562 94.057C176.904 94.0028 176.497 93.7368 176.289 93.2808C176.069 92.7813 175.981 92.2498 176.027 91.6835L176.132 90.3644C176.176 89.8148 176.346 89.3034 176.646 88.8281C176.917 88.397 177.36 88.1939 178.025 88.2487C178.745 88.3081 179.159 88.5827 179.342 89.0351C179.547 89.5431 179.627 90.0802 179.582 90.6486L179.477 91.9677C179.431 92.5344 179.26 93.0448 178.964 93.5021ZM172.267 110.405L172.062 110.661L172.389 110.688L175.537 110.947L175.63 110.955L175.687 110.883L194.601 87.263L194.806 87.0071L194.479 86.9802L191.331 86.7208L191.238 86.7132L191.181 86.7853L172.267 110.405Z" fill="#FFFEFE" stroke="black" stroke-width="0.348454"/>
<path d="M182.589 102.193L182.589 102.194C182.09 103.023 181.801 103.952 181.719 104.979L181.614 106.298C181.532 107.324 181.67 108.292 182.03 109.2L182.03 109.2C182.392 110.103 182.967 110.851 183.753 111.44C184.545 112.044 185.548 112.39 186.75 112.489C187.938 112.587 188.978 112.409 189.862 111.944C190.739 111.492 191.43 110.848 191.93 110.016L191.93 110.015C192.429 109.179 192.719 108.246 192.8 107.219L192.906 105.9C192.988 104.866 192.85 103.898 192.49 102.998C192.137 102.087 191.562 101.335 190.767 100.744C189.974 100.15 188.972 99.8075 187.769 99.7084C186.582 99.6106 185.542 99.789 184.657 100.254C183.788 100.707 183.097 101.355 182.589 102.193ZM187.015 109.164C187.744 109.224 188.261 109.013 188.566 108.53C188.878 108.048 189.059 107.509 189.106 106.915L189.211 105.596C189.258 105.001 189.174 104.437 188.959 103.903C188.744 103.369 188.259 103.071 187.506 103.009C186.785 102.949 186.264 103.165 185.943 103.655C185.622 104.144 185.437 104.687 185.39 105.281L185.285 106.6C185.239 107.178 185.331 107.735 185.563 108.27C185.802 108.806 186.286 109.104 187.015 109.164ZM188.42 108.435L188.418 108.437C188.158 108.849 187.715 109.047 187.029 108.991C186.346 108.934 185.929 108.662 185.722 108.2C185.502 107.691 185.414 107.163 185.458 106.614L185.563 105.295C185.609 104.729 185.784 104.215 186.089 103.75C186.366 103.327 186.817 103.127 187.492 103.182C188.204 103.241 188.615 103.515 188.797 103.968C189.002 104.476 189.083 105.013 189.037 105.581L188.932 106.9C188.887 107.467 188.716 107.978 188.42 108.435ZM173.183 84.8873L173.182 84.8876C172.313 85.3411 171.623 85.9884 171.114 86.8273C170.607 87.6559 170.314 88.5892 170.231 89.6239L170.126 90.943C170.044 91.9689 170.178 92.9325 170.53 93.8312L170.53 93.8313L170.531 93.8331C170.894 94.7278 171.469 95.4748 172.253 96.0723L172.255 96.0735C173.055 96.6684 174.058 97.0107 175.252 97.1091C176.446 97.2075 177.486 97.0377 178.361 96.5891L178.362 96.5889C179.239 96.1363 179.929 95.493 180.43 94.6608C180.936 93.8323 181.23 92.8991 181.312 91.8644L181.418 90.5454C181.5 89.5112 181.362 88.5428 181.002 87.643C180.641 86.7319 180.066 85.98 179.28 85.3899C178.487 84.7949 177.48 84.4525 176.269 84.3528C175.098 84.2563 174.067 84.4314 173.183 84.8873ZM176.932 93.0802L176.932 93.0802L176.93 93.082C176.671 93.4937 176.224 93.6923 175.529 93.6351C174.871 93.5809 174.465 93.315 174.257 92.8589C174.037 92.3594 173.949 91.8279 173.994 91.2616L174.1 89.9426C174.143 89.393 174.314 88.8816 174.613 88.4062C174.885 87.9751 175.328 87.7721 175.992 87.8268C176.713 87.8862 177.127 88.1608 177.31 88.6132C177.514 89.1212 177.595 89.6583 177.549 90.2267L177.444 91.5458C177.399 92.1125 177.228 92.6229 176.932 93.0802ZM170.235 109.983L170.03 110.239L170.357 110.266L173.505 110.525L173.597 110.533L173.655 110.461L192.569 86.8411L192.774 86.5852L192.447 86.5583L189.298 86.2989L189.206 86.2913L189.148 86.3634L170.235 109.983Z" fill="#EA5F5F" stroke="black" stroke-width="0.348454"/>
</svg>
