<svg width="344" height="232" viewBox="0 0 344 232" fill="none" xmlns="http://www.w3.org/2000/svg">
<rect width="101.983" height="195.935" rx="8.03014" transform="matrix(0.83205 0.5547 -0.830139 0.557556 206.578 42.8135)" fill="black" fill-opacity="0.05"/>
<rect x="0.000383661" y="0.223289" width="101.581" height="195.534" rx="7.82938" transform="matrix(0.83205 0.5547 -0.830139 0.557556 206.764 20.4682)" fill="black" stroke="black" stroke-width="0.401507"/>
<rect x="0.000383661" y="0.223289" width="101.581" height="195.534" rx="7.82938" transform="matrix(0.83205 0.5547 -0.830139 0.557556 206.764 18.8217)" fill="white" stroke="black" stroke-width="0.401507"/>
<path d="M211.761 37.4587L210.409 36.5573C210.557 36.4233 210.661 36.2852 210.72 36.1432C210.78 35.9997 210.799 35.8557 210.775 35.7111C210.752 35.5665 210.687 35.4248 210.582 35.2859C210.479 35.1484 210.336 35.0193 210.155 34.8986C209.828 34.6804 209.462 34.5451 209.058 34.4925C208.656 34.4385 208.236 34.4707 207.796 34.589C207.358 34.7059 206.922 34.9118 206.487 35.2064C206.04 35.5094 205.732 35.8085 205.562 36.1038C205.394 36.4005 205.353 36.6824 205.441 36.9494C205.529 37.2164 205.732 37.4563 206.051 37.6689C206.23 37.7883 206.419 37.8828 206.619 37.9526C206.82 38.0236 207.025 38.0685 207.234 38.0872C207.445 38.1045 207.655 38.095 207.864 38.0586C208.075 38.0236 208.28 37.9596 208.478 37.8668L209.824 38.7723C209.501 38.944 209.136 39.0739 208.729 39.1618C208.326 39.2497 207.902 39.2867 207.457 39.2728C207.016 39.2589 206.573 39.1857 206.128 39.0533C205.686 38.9209 205.263 38.7196 204.858 38.4493C204.294 38.0734 203.916 37.6515 203.725 37.1836C203.535 36.7171 203.551 36.2355 203.774 35.7389C203.998 35.2437 204.451 34.765 205.132 34.303C205.816 33.8395 206.527 33.5317 207.265 33.3795C208.004 33.2272 208.721 33.2142 209.417 33.3404C210.114 33.4652 210.741 33.7128 211.296 34.0832C211.663 34.3274 211.951 34.5884 212.162 34.8661C212.375 35.1452 212.505 35.4321 212.552 35.7268C212.601 36.0201 212.561 36.313 212.431 36.6054C212.304 36.8992 212.081 37.1837 211.761 37.4587ZM217.589 42.6079C216.906 43.0713 216.194 43.3785 215.453 43.5293C214.714 43.6816 213.994 43.6939 213.293 43.5664C212.595 43.4388 211.967 43.1891 211.41 42.8173C210.848 42.4428 210.47 42.0209 210.277 41.5516C210.083 41.0824 210.096 40.5987 210.316 40.1008C210.536 39.6028 210.987 39.1228 211.669 38.6607C212.352 38.1973 213.063 37.8894 213.802 37.7372C214.541 37.5849 215.259 37.5726 215.956 37.7002C216.656 37.8263 217.287 38.0767 217.848 38.4512C218.406 38.823 218.782 39.2436 218.975 39.7128C219.173 40.1821 219.162 40.6657 218.942 41.1637C218.724 41.663 218.273 42.1444 217.589 42.6079ZM216.234 41.7044C216.677 41.4042 216.983 41.1065 217.154 40.8112C217.326 40.5172 217.37 40.2367 217.287 39.9697C217.203 39.7026 216.999 39.4614 216.676 39.246C216.353 39.0306 215.993 38.8959 215.595 38.8419C215.197 38.7879 214.779 38.8194 214.341 38.9364C213.906 39.0547 213.467 39.2639 213.024 39.5641C212.581 39.8644 212.274 40.1614 212.101 40.4554C211.931 40.7507 211.888 41.0318 211.972 41.2989C212.055 41.5659 212.259 41.8072 212.582 42.0226C212.905 42.238 213.265 42.3727 213.663 42.4267C214.061 42.4806 214.478 42.4485 214.914 42.3302C215.351 42.2132 215.792 42.0046 216.234 41.7044ZM221.713 41.143L223.362 42.242L220.892 46.258L220.966 46.3074L226.918 44.6127L228.566 45.7117L222.299 49.9616L221.002 49.0972L225.082 46.3311L225.029 46.2961L219.344 47.9508L218.462 47.3622L220.889 43.5157L220.837 43.4807L216.742 46.2572L215.446 45.3929L221.713 41.143ZM229.667 46.4458L231.316 47.5448L228.846 51.5609L228.92 51.6103L234.872 49.9156L236.52 51.0145L230.253 55.2644L228.957 54.4001L233.036 51.6339L232.983 51.5989L227.299 53.2536L226.416 52.665L228.844 48.8185L228.791 48.7835L224.697 51.5601L223.4 50.6957L229.667 46.4458ZM238.958 52.6398L232.691 56.8897L231.354 55.9986L237.622 51.7487L238.958 52.6398ZM241.685 56.8816C241.907 56.6977 241.993 56.497 241.943 56.2795C241.892 56.0619 241.706 55.8462 241.385 55.6321C241.167 55.4867 240.952 55.3847 240.741 55.326C240.531 55.266 240.334 55.2452 240.147 55.2636C239.963 55.2834 239.803 55.339 239.669 55.4303C239.552 55.5036 239.478 55.5858 239.446 55.6768C239.416 55.7692 239.416 55.867 239.448 55.9703C239.481 56.0721 239.536 56.1787 239.613 56.2901C239.691 56.4001 239.784 56.5115 239.892 56.6241L240.325 57.0941C240.54 57.3195 240.711 57.5435 240.84 57.7664C240.968 57.9892 241.042 58.2074 241.062 58.4209C241.082 58.6344 241.037 58.8405 240.928 59.0391C240.82 59.2392 240.637 59.4285 240.378 59.6069C239.992 59.8656 239.561 60.0253 239.084 60.0859C238.611 60.1464 238.114 60.1072 237.593 59.9681C237.075 59.829 236.559 59.588 236.045 59.245C235.535 58.9047 235.168 58.5558 234.944 58.1982C234.722 57.842 234.658 57.4902 234.75 57.1428C234.846 56.7953 235.114 56.4653 235.555 56.1527L236.848 57.015C236.652 57.1671 236.538 57.3265 236.504 57.4933C236.474 57.6601 236.514 57.8281 236.624 57.9972C236.738 58.1664 236.91 58.3278 237.14 58.4814C237.367 58.6323 237.596 58.7412 237.828 58.8081C238.062 58.8763 238.283 58.9019 238.492 58.8848C238.701 58.8676 238.881 58.8079 239.032 58.7055C239.173 58.6101 239.249 58.5017 239.261 58.3804C239.274 58.2605 239.234 58.1243 239.141 57.9716C239.05 57.8203 238.917 57.6491 238.741 57.4581L238.224 56.883C237.82 56.4405 237.6 56.0237 237.565 55.6325C237.529 55.2413 237.744 54.8894 238.209 54.5767C238.587 54.318 239.02 54.1611 239.51 54.106C240.001 54.0523 240.507 54.0922 241.029 54.2258C241.55 54.3593 242.041 54.5798 242.502 54.8871C242.971 55.1999 243.301 55.5269 243.492 55.868C243.685 56.2105 243.737 56.5431 243.649 56.8658C243.561 57.1884 243.333 57.4783 242.966 57.7356L241.685 56.8816ZM247.381 60.679C247.604 60.4952 247.689 60.2945 247.639 60.0769C247.588 59.8594 247.402 59.6436 247.081 59.4296C246.863 59.2841 246.648 59.1821 246.437 59.1235C246.228 59.0634 246.03 59.0426 245.843 59.0611C245.659 59.0809 245.5 59.1364 245.365 59.2277C245.249 59.3011 245.174 59.3832 245.142 59.4743C245.112 59.5667 245.113 59.6645 245.144 59.7677C245.177 59.8696 245.232 59.9762 245.309 60.0876C245.388 60.1976 245.481 60.3089 245.588 60.4216L246.021 60.8916C246.236 61.1169 246.407 61.341 246.536 61.5638C246.664 61.7867 246.738 62.0048 246.758 62.2183C246.778 62.4318 246.733 62.6379 246.624 62.8366C246.517 63.0367 246.333 63.2259 246.074 63.4044C245.689 63.6631 245.257 63.8227 244.78 63.8833C244.307 63.9439 243.81 63.9046 243.289 63.7656C242.772 63.6265 242.256 63.3854 241.741 63.0424C241.231 62.7022 240.864 62.3533 240.64 61.9957C240.419 61.6395 240.354 61.2877 240.446 60.9402C240.542 60.5928 240.81 60.2627 241.251 59.9501L242.544 60.8124C242.349 60.9645 242.234 61.124 242.2 61.2908C242.17 61.4575 242.21 61.6255 242.32 61.7947C242.434 61.9638 242.606 62.1252 242.837 62.2789C243.063 62.4298 243.292 62.5387 243.524 62.6055C243.758 62.6738 243.98 62.6993 244.189 62.6822C244.397 62.6651 244.577 62.6053 244.728 62.503C244.869 62.4075 244.945 62.2992 244.957 62.1779C244.97 62.058 244.93 61.9217 244.837 61.769C244.746 61.6177 244.613 61.4466 244.437 61.2556L243.92 60.6804C243.516 60.2379 243.296 59.8211 243.261 59.4299C243.225 59.0388 243.44 58.6868 243.906 58.3742C244.283 58.1155 244.716 57.9586 245.206 57.9035C245.697 57.8498 246.204 57.8897 246.725 58.0232C247.246 58.1568 247.737 58.3772 248.198 58.6845C248.668 58.9974 248.998 59.3243 249.188 59.6655C249.381 60.008 249.433 60.3406 249.345 60.6632C249.257 60.9858 249.03 61.2758 248.662 61.5331L247.381 60.679ZM252.787 61.8589L246.52 66.1088L245.183 65.2177L251.45 60.9678L252.787 61.8589ZM256.563 68.5901C255.879 69.0535 255.167 69.3607 254.426 69.5116C253.688 69.6638 252.967 69.6761 252.266 69.5486C251.568 69.421 250.941 69.1714 250.383 68.7996C249.821 68.425 249.443 68.0031 249.25 67.5338C249.056 67.0646 249.07 66.581 249.29 66.083C249.51 65.585 249.961 65.105 250.642 64.6429C251.325 64.1795 252.037 63.8716 252.775 63.7194C253.514 63.5672 254.232 63.5548 254.93 63.6824C255.629 63.8085 256.26 64.0589 256.822 64.4335C257.379 64.8053 257.755 65.2258 257.949 65.6951C258.146 66.1643 258.135 66.6479 257.915 67.1459C257.697 67.6452 257.246 68.1266 256.563 68.5901ZM255.208 67.6866C255.65 67.3864 255.957 67.0887 256.127 66.7934C256.299 66.4994 256.344 66.2189 256.26 65.9519C256.176 65.6849 255.973 65.4436 255.65 65.2282C255.327 65.0128 254.966 64.8781 254.568 64.8241C254.17 64.7701 253.753 64.8016 253.315 64.9186C252.879 65.0369 252.44 65.2462 251.997 65.5464C251.554 65.8466 251.247 66.1436 251.075 66.4376C250.904 66.7329 250.861 67.0141 250.945 67.2811C251.029 67.5482 251.232 67.7894 251.555 68.0048C251.878 68.2202 252.239 68.3549 252.637 68.4089C253.034 68.4629 253.451 68.4307 253.887 68.3124C254.325 68.1954 254.765 67.9868 255.208 67.6866ZM265.974 70.6505L259.707 74.9004L258.553 74.1307L259.747 69.6222L259.7 69.5914L255.756 72.2662L254.419 71.3751L260.687 67.1252L261.86 67.9072L260.647 72.3993L260.702 72.4363L264.644 69.7635L265.974 70.6505Z" fill="black"/>
<path fill-rule="evenodd" clip-rule="evenodd" d="M60.2366 120.579L61.964 119.635L196.383 29.3534L197.961 28.0771L197.88 28.1313L60.3097 120.529L60.2366 120.579Z" fill="black"/>
<path fill-rule="evenodd" clip-rule="evenodd" d="M139.588 173.48L141.316 172.537L275.734 82.2552L277.312 80.979L277.232 81.0332L139.661 173.431L139.588 173.48Z" fill="black"/>
<path fill-rule="evenodd" clip-rule="evenodd" d="M279.621 70.7116L279.46 70.8199L279.461 70.8206L279.622 70.7123L279.621 70.7116ZM279.457 70.8179L279.38 70.7667L212.393 26.1091L212.312 26.0552L213.26 26.4711L278.91 70.2378L279.457 70.8179Z" fill="black"/>
<path fill-rule="evenodd" clip-rule="evenodd" d="M121.762 176.728L121.601 176.837L121.601 176.837L121.763 176.729L121.762 176.728ZM121.596 176.834L121.52 176.783L54.534 132.126L54.4531 132.072L55.4007 132.488L121.05 176.254L121.596 176.834Z" fill="black"/>
<path d="M224.24 82.089C217.173 86.8816 205.664 86.9138 198.534 82.1609C191.405 77.408 191.355 69.6698 198.423 64.8772C205.49 60.0846 216.999 60.0525 224.129 64.8054C231.258 69.5583 231.308 77.2964 224.24 82.089Z" fill="white" stroke="black" stroke-width="0.313175"/>
<circle cx="26.4995" cy="26.4995" r="26.2345" transform="matrix(0.83271 0.55514 -0.82551 0.559777 167.281 72.188)" fill="white" stroke="black" stroke-width="0.529989"/>
<ellipse cx="28.8973" cy="9.08965" rx="28.8973" ry="9.08965" transform="matrix(0.974553 0.227667 -0.576613 0.813839 144.266 97.5615)" fill="#D9D9D9" fill-opacity="0.4"/>
<path d="M137.858 138.597C130.79 143.389 119.281 143.422 112.151 138.669C105.022 133.916 104.972 126.178 112.04 121.385C119.108 116.592 130.617 116.56 137.746 121.313C144.875 126.066 144.925 133.804 137.858 138.597Z" fill="white" stroke="black" stroke-width="0.313175"/>
<path d="M154.59 108.938L154.591 108.938C159.977 109.755 164.78 108.797 168.989 106.057C173.195 103.321 176.643 98.9644 179.343 93.0059C182.063 87.0493 183.873 79.6575 184.776 70.8361C185.694 62.0697 185.433 54.4424 183.985 47.9585C182.541 41.4506 180.048 36.2593 176.497 32.3991C172.964 28.5386 168.509 26.202 163.145 25.388C157.78 24.574 152.981 25.5063 148.757 28.1894C144.559 30.8475 141.108 35.1239 138.395 41.001L138.395 41.0016C135.703 46.8833 133.91 54.2115 133.013 62.9807C132.091 71.7731 132.336 79.4633 133.752 86.0477L133.752 86.0483C135.188 92.6343 137.663 97.8893 141.188 101.799L141.188 101.799C144.737 105.715 149.208 108.094 154.59 108.938ZM170.645 68.6913L170.645 68.6918C169.72 77.9362 167.937 84.6743 165.313 88.9313C162.688 93.1911 159.608 94.9925 156.074 94.4563C153.718 94.0987 151.761 92.7981 150.198 90.5297C148.636 88.2313 147.561 84.9733 146.99 80.7375C146.443 76.4825 146.482 71.278 147.112 65.1206C148.066 56.0135 149.86 49.37 152.478 45.1651C155.097 40.9578 158.164 39.1799 161.678 39.7131C164.035 40.0706 165.981 41.3695 167.523 43.6342L167.523 43.6352C169.088 45.9072 170.156 49.1244 170.712 53.305L170.712 53.306C171.288 57.485 171.267 62.6122 170.645 68.6913Z" fill="white" stroke="black" stroke-width="0.411586"/>
<path d="M149.298 108.104L149.297 108.104C143.921 107.262 139.457 104.886 135.914 100.976L135.914 100.976C132.394 97.0717 129.921 91.8226 128.486 85.2407L128.485 85.2401C127.07 78.66 126.826 70.9733 127.747 62.1833C128.644 53.4163 130.436 46.0916 133.127 40.2138L133.127 40.2133C135.838 34.3399 139.286 30.0685 143.477 27.4142C147.695 24.7353 152.487 23.8042 157.845 24.6172C163.202 25.4302 167.65 27.7632 171.178 31.6177C174.724 35.4725 177.214 40.658 178.658 47.162C180.105 53.6415 180.366 61.2648 179.448 70.0286C179.448 70.0287 179.448 70.0289 179.448 70.029L179.276 70.0025C178.374 78.8091 176.569 86.1782 173.859 92.1098L149.298 108.104ZM149.298 108.104C154.677 108.921 159.472 107.963 163.675 105.228C167.874 102.495 171.319 98.1441 174.017 92.1894L149.298 108.104ZM165.379 67.8938L165.379 67.8942C164.454 77.1401 162.67 83.8838 160.043 88.1468C157.415 92.412 154.325 94.2242 150.774 93.6854C148.408 93.3264 146.443 92.0199 144.876 89.745C143.309 87.4406 142.234 84.1767 141.662 79.938C141.114 75.6798 141.154 70.4728 141.784 64.3139C142.738 55.2052 144.532 48.5559 147.154 44.345C149.777 40.1322 152.854 38.3437 156.385 38.8794C158.751 39.2385 160.705 40.5434 162.251 42.8148L162.252 42.8157C163.821 45.0937 164.89 48.3167 165.447 52.5L165.447 52.5008C166.023 56.6832 166.002 61.8132 165.379 67.8938Z" fill="#EA5F5F" stroke="black" stroke-width="0.348454"/>
<path d="M184.615 102.616L184.616 102.616C185.124 101.777 185.815 101.129 186.684 100.676C187.569 100.211 188.609 100.033 189.796 100.131C190.999 100.23 192.001 100.572 192.794 101.167C193.589 101.757 194.164 102.509 194.517 103.421M184.615 102.616L194.355 103.484M184.615 102.616C184.117 103.445 183.828 104.374 183.746 105.401L183.641 106.72C183.559 107.746 183.697 108.715 184.057 109.622L184.057 109.623C184.418 110.526 184.994 111.273 185.779 111.863M184.615 102.616L184.218 109.558M194.517 103.421C194.517 103.421 194.517 103.421 194.517 103.422L194.355 103.484M194.517 103.421C194.517 103.42 194.517 103.42 194.517 103.42L194.355 103.484M194.517 103.421C194.877 104.32 195.015 105.288 194.932 106.322L194.827 107.641C194.745 108.668 194.456 109.601 193.957 110.438L193.957 110.438C193.457 111.271 192.766 111.914 191.889 112.367M194.355 103.484C194.705 104.357 194.839 105.298 194.759 106.308L194.654 107.627C194.574 108.629 194.292 109.536 193.808 110.348C193.324 111.152 192.658 111.774 191.808 112.212M191.889 112.367C191.889 112.366 191.89 112.366 191.89 112.366L191.808 112.212M191.889 112.367C191.889 112.367 191.889 112.367 191.889 112.367L191.808 112.212M191.889 112.367C191.004 112.831 189.964 113.009 188.777 112.912C187.574 112.812 186.572 112.466 185.779 111.863M191.808 112.212C190.958 112.658 189.953 112.834 188.791 112.738C187.613 112.641 186.644 112.303 185.884 111.724M185.884 111.724L185.78 111.863C185.78 111.863 185.78 111.863 185.779 111.863M185.884 111.724C185.123 111.153 184.568 110.431 184.218 109.558M185.884 111.724L185.779 111.862C185.779 111.863 185.779 111.863 185.779 111.863M184.218 109.558C183.869 108.677 183.735 107.736 183.815 106.734L183.92 105.415C184 104.414 184.281 103.511 184.765 102.706C185.257 101.895 185.924 101.269 186.765 100.83L184.218 109.558ZM190.446 108.857L190.445 108.859C190.185 109.271 189.742 109.47 189.056 109.413C188.373 109.357 187.956 109.085 187.749 108.623C187.529 108.114 187.441 107.586 187.485 107.037L187.59 105.718C187.635 105.152 187.81 104.638 188.115 104.173C188.393 103.749 188.844 103.549 189.519 103.605C190.231 103.663 190.642 103.937 190.824 104.39C191.029 104.898 191.11 105.435 191.064 106.004L190.959 107.323C190.914 107.889 190.743 108.4 190.446 108.857ZM175.21 85.3096L175.209 85.31C174.34 85.7635 173.65 86.4108 173.141 87.2496C172.634 88.0783 172.341 89.0116 172.258 90.0463L172.153 91.3653C172.071 92.3912 172.205 93.3549 172.557 94.2536L172.557 94.2536L172.558 94.2555C172.92 95.1501 173.495 95.8972 174.28 96.4946L174.282 96.4959C175.082 97.0908 176.084 97.4331 177.279 97.5315C178.473 97.6299 179.512 97.4601 180.388 97.0115L180.389 97.0112C181.266 96.5587 181.956 95.9154 182.457 95.0832C182.963 94.2546 183.257 93.3214 183.339 92.2868L183.444 90.9677C183.527 89.9335 183.389 88.9652 183.029 88.0654C182.668 87.1543 182.093 86.4023 181.306 85.8123C180.513 85.2173 179.506 84.8749 178.296 84.7752C177.125 84.6787 176.094 84.8538 175.21 85.3096ZM178.959 93.5026L178.958 93.5026L178.957 93.5044C178.698 93.9161 178.251 94.1147 177.556 94.0575C176.898 94.0033 176.491 93.7373 176.284 93.2813C176.064 92.7817 175.976 92.2503 176.021 91.684L176.126 90.3649C176.17 89.8153 176.341 89.3039 176.64 88.8286C176.912 88.3974 177.354 88.1944 178.019 88.2492C178.74 88.3086 179.154 88.5832 179.336 89.0355C179.541 89.5436 179.622 90.0807 179.576 90.6491L179.471 91.9682C179.426 92.5349 179.255 93.0453 178.959 93.5026ZM172.261 110.405L172.057 110.661L172.384 110.688L175.532 110.948L175.624 110.955L175.682 110.883L194.596 87.2635L194.801 87.0076L194.474 86.9806L191.325 86.7213L191.233 86.7137L191.175 86.7858L172.261 110.405Z" fill="#FFFEFE" stroke="black" stroke-width="0.348454"/>
<path d="M182.584 102.194L182.585 102.194C183.093 101.355 183.783 100.708 184.653 100.254C185.538 99.7895 186.578 99.6111 187.765 99.7089C188.967 99.808 189.97 100.15 190.763 100.745C191.557 101.335 192.133 102.088 192.486 102.999M182.584 102.194L192.324 103.062M182.584 102.194C182.086 103.023 181.797 103.953 181.715 104.979L181.61 106.298C181.528 107.325 181.666 108.293 182.025 109.2L182.026 109.201C182.387 110.104 182.962 110.851 183.748 111.441M182.584 102.194L182.187 109.136M192.486 102.999C192.486 102.999 192.486 102.999 192.486 103L192.324 103.062M192.486 102.999C192.486 102.998 192.486 102.998 192.485 102.998L192.324 103.062M192.486 102.999C192.846 103.898 192.984 104.867 192.901 105.9L192.796 107.22C192.714 108.246 192.425 109.179 191.926 110.016L191.926 110.016C191.425 110.849 190.735 111.492 189.858 111.945M192.324 103.062C192.673 103.935 192.808 104.877 192.728 105.886L192.622 107.205C192.542 108.207 192.261 109.114 191.776 109.926C191.293 110.731 190.627 111.352 189.777 111.79M189.858 111.945C189.858 111.945 189.858 111.944 189.858 111.944L189.777 111.79M189.858 111.945C189.858 111.945 189.858 111.945 189.857 111.945L189.777 111.79M189.858 111.945C188.973 112.409 187.933 112.587 186.746 112.49C185.543 112.391 184.54 112.044 183.748 111.441M189.777 111.79C188.927 112.236 187.921 112.412 186.76 112.316C185.582 112.219 184.613 111.881 183.853 111.302M183.853 111.302L183.749 111.441C183.749 111.441 183.748 111.441 183.748 111.441M183.853 111.302C183.092 110.731 182.537 110.009 182.187 109.136M183.853 111.302L183.748 111.441C183.748 111.441 183.748 111.441 183.748 111.441M182.187 109.136C181.838 108.255 181.704 107.314 181.783 106.312L181.889 104.993C181.968 103.992 182.25 103.089 182.734 102.285C183.226 101.473 183.892 100.847 184.734 100.409L182.187 109.136ZM188.415 108.435L188.414 108.437C188.154 108.85 187.711 109.048 187.025 108.991C186.341 108.935 185.925 108.663 185.718 108.201C185.498 107.692 185.41 107.164 185.454 106.615L185.559 105.296C185.604 104.73 185.779 104.216 186.084 103.751C186.362 103.327 186.813 103.127 187.488 103.183C188.2 103.242 188.61 103.515 188.793 103.968C188.998 104.476 189.078 105.013 189.033 105.582L188.928 106.901C188.883 107.468 188.712 107.978 188.415 108.435ZM173.179 84.8878L173.178 84.8881C172.309 85.3416 171.618 85.9889 171.11 86.8278C170.603 87.6564 170.309 88.5897 170.227 89.6244L170.122 90.9435C170.04 91.9694 170.174 92.933 170.526 93.8317L170.526 93.8317L170.527 93.8336C170.889 94.7282 171.464 95.4753 172.249 96.0728L172.25 96.074C173.051 96.6689 174.053 97.0112 175.248 97.1096C176.442 97.208 177.481 97.0382 178.357 96.5896L178.357 96.5894C179.235 96.1368 179.925 95.4935 180.425 94.6613C180.932 93.8327 181.226 92.8995 181.308 91.8649L181.413 90.5459C181.496 89.5117 181.358 88.5433 180.998 87.6435C180.637 86.7324 180.062 85.9804 179.275 85.3904C178.482 84.7954 177.475 84.453 176.265 84.3533C175.094 84.2568 174.062 84.4319 173.179 84.8878ZM176.927 93.0807L176.927 93.0807L176.926 93.0825C176.666 93.4942 176.22 93.6928 175.525 93.6356C174.867 93.5814 174.46 93.3154 174.252 92.8594C174.033 92.3599 173.945 91.8284 173.99 91.2621L174.095 89.943C174.139 89.3935 174.31 88.882 174.609 88.4067C174.88 87.9756 175.323 87.7726 175.988 87.8273C176.709 87.8867 177.123 88.1613 177.305 88.6137C177.51 89.1217 177.59 89.6588 177.545 90.2272L177.44 91.5463C177.395 92.113 177.224 92.6234 176.927 93.0807ZM170.23 109.984L170.025 110.239L170.352 110.266L173.501 110.526L173.593 110.533L173.651 110.461L192.564 86.8416L192.769 86.5857L192.442 86.5588L189.294 86.2994L189.202 86.2918L189.144 86.3639L170.23 109.984Z" fill="#EA5F5F" stroke="black" stroke-width="0.348454"/>
</svg>
