<svg width="344" height="232" viewBox="0 0 344 232" fill="none" xmlns="http://www.w3.org/2000/svg">
<rect width="101.983" height="195.935" rx="8.03014" transform="matrix(0.83205 0.5547 -0.830139 0.557556 206.578 42.8135)" fill="black" fill-opacity="0.05"/>
<rect x="0.000383661" y="0.223289" width="101.581" height="195.534" rx="7.82938" transform="matrix(0.83205 0.5547 -0.830139 0.557556 206.764 20.4682)" fill="black" stroke="black" stroke-width="0.401507"/>
<rect x="0.000383661" y="0.223289" width="101.581" height="195.534" rx="7.82938" transform="matrix(0.83205 0.5547 -0.830139 0.557556 206.764 18.8217)" fill="white" stroke="black" stroke-width="0.401507"/>
<path d="M211.761 37.4587L210.409 36.5573C210.557 36.4233 210.661 36.2852 210.72 36.1432C210.78 35.9997 210.799 35.8557 210.775 35.7111C210.752 35.5665 210.687 35.4248 210.582 35.2859C210.479 35.1484 210.336 35.0193 210.155 34.8986C209.828 34.6804 209.462 34.5451 209.058 34.4925C208.656 34.4385 208.236 34.4707 207.796 34.589C207.358 34.7059 206.922 34.9118 206.487 35.2064C206.04 35.5094 205.732 35.8085 205.562 36.1038C205.394 36.4005 205.353 36.6824 205.441 36.9494C205.529 37.2164 205.732 37.4563 206.051 37.6689C206.23 37.7883 206.419 37.8828 206.619 37.9526C206.82 38.0236 207.025 38.0685 207.234 38.0872C207.445 38.1045 207.655 38.095 207.864 38.0586C208.075 38.0236 208.28 37.9596 208.478 37.8668L209.824 38.7723C209.501 38.944 209.136 39.0739 208.729 39.1618C208.326 39.2497 207.902 39.2867 207.457 39.2728C207.016 39.2589 206.573 39.1857 206.128 39.0533C205.686 38.9209 205.263 38.7196 204.858 38.4493C204.294 38.0734 203.916 37.6515 203.725 37.1836C203.535 36.7171 203.551 36.2355 203.774 35.7389C203.998 35.2437 204.451 34.765 205.132 34.303C205.816 33.8395 206.527 33.5317 207.265 33.3795C208.004 33.2272 208.721 33.2142 209.417 33.3404C210.114 33.4652 210.741 33.7128 211.296 34.0832C211.663 34.3274 211.951 34.5884 212.162 34.8661C212.375 35.1452 212.505 35.4321 212.552 35.7268C212.601 36.0201 212.561 36.313 212.431 36.6054C212.304 36.8992 212.081 37.1837 211.761 37.4587ZM217.589 42.6079C216.906 43.0713 216.194 43.3785 215.453 43.5293C214.714 43.6816 213.994 43.6939 213.293 43.5664C212.595 43.4388 211.967 43.1891 211.41 42.8173C210.848 42.4428 210.47 42.0209 210.277 41.5516C210.083 41.0824 210.096 40.5987 210.316 40.1008C210.536 39.6028 210.987 39.1228 211.669 38.6607C212.352 38.1973 213.063 37.8894 213.802 37.7372C214.541 37.5849 215.259 37.5726 215.956 37.7002C216.656 37.8263 217.287 38.0767 217.848 38.4512C218.406 38.823 218.782 39.2436 218.975 39.7128C219.173 40.1821 219.162 40.6657 218.942 41.1637C218.724 41.663 218.273 42.1444 217.589 42.6079ZM216.234 41.7044C216.677 41.4042 216.983 41.1065 217.154 40.8112C217.326 40.5172 217.37 40.2367 217.287 39.9697C217.203 39.7026 216.999 39.4614 216.676 39.246C216.353 39.0306 215.993 38.8959 215.595 38.8419C215.197 38.7879 214.779 38.8194 214.341 38.9364C213.906 39.0547 213.467 39.2639 213.024 39.5641C212.581 39.8644 212.274 40.1614 212.101 40.4554C211.931 40.7507 211.888 41.0318 211.972 41.2989C212.055 41.5659 212.259 41.8072 212.582 42.0226C212.905 42.238 213.265 42.3727 213.663 42.4267C214.061 42.4806 214.478 42.4485 214.914 42.3302C215.351 42.2132 215.792 42.0046 216.234 41.7044ZM221.713 41.143L223.362 42.242L220.892 46.258L220.966 46.3074L226.918 44.6127L228.566 45.7117L222.299 49.9616L221.002 49.0972L225.082 46.3311L225.029 46.2961L219.344 47.9508L218.462 47.3622L220.889 43.5157L220.837 43.4807L216.742 46.2572L215.446 45.3929L221.713 41.143ZM229.667 46.4458L231.316 47.5448L228.846 51.5609L228.92 51.6103L234.872 49.9156L236.52 51.0145L230.253 55.2644L228.957 54.4001L233.036 51.6339L232.983 51.5989L227.299 53.2536L226.416 52.665L228.844 48.8185L228.791 48.7835L224.697 51.5601L223.4 50.6957L229.667 46.4458ZM238.958 52.6398L232.691 56.8897L231.354 55.9986L237.622 51.7487L238.958 52.6398ZM241.685 56.8816C241.907 56.6977 241.993 56.497 241.943 56.2795C241.892 56.0619 241.706 55.8462 241.385 55.6321C241.167 55.4867 240.952 55.3847 240.741 55.326C240.531 55.266 240.334 55.2452 240.147 55.2636C239.963 55.2834 239.803 55.339 239.669 55.4303C239.552 55.5036 239.478 55.5858 239.446 55.6768C239.416 55.7692 239.416 55.867 239.448 55.9703C239.481 56.0721 239.536 56.1787 239.613 56.2901C239.691 56.4001 239.784 56.5115 239.892 56.6241L240.325 57.0941C240.54 57.3195 240.711 57.5435 240.84 57.7664C240.968 57.9892 241.042 58.2074 241.062 58.4209C241.082 58.6344 241.037 58.8405 240.928 59.0391C240.82 59.2392 240.637 59.4285 240.378 59.6069C239.992 59.8656 239.561 60.0253 239.084 60.0859C238.611 60.1464 238.114 60.1072 237.593 59.9681C237.075 59.829 236.559 59.588 236.045 59.245C235.535 58.9047 235.168 58.5558 234.944 58.1982C234.722 57.842 234.658 57.4902 234.75 57.1428C234.846 56.7953 235.114 56.4653 235.555 56.1527L236.848 57.015C236.652 57.1671 236.538 57.3265 236.504 57.4933C236.474 57.6601 236.514 57.8281 236.624 57.9972C236.738 58.1664 236.91 58.3278 237.14 58.4814C237.367 58.6323 237.596 58.7412 237.828 58.8081C238.062 58.8763 238.283 58.9019 238.492 58.8848C238.701 58.8676 238.881 58.8079 239.032 58.7055C239.173 58.6101 239.249 58.5017 239.261 58.3804C239.274 58.2605 239.234 58.1243 239.141 57.9716C239.05 57.8203 238.917 57.6491 238.741 57.4581L238.224 56.883C237.82 56.4405 237.6 56.0237 237.565 55.6325C237.529 55.2413 237.744 54.8894 238.209 54.5767C238.587 54.318 239.02 54.1611 239.51 54.106C240.001 54.0523 240.507 54.0922 241.029 54.2258C241.55 54.3593 242.041 54.5798 242.502 54.8871C242.971 55.1999 243.301 55.5269 243.492 55.868C243.685 56.2105 243.737 56.5431 243.649 56.8658C243.561 57.1884 243.333 57.4783 242.966 57.7356L241.685 56.8816ZM247.381 60.679C247.604 60.4952 247.689 60.2945 247.639 60.0769C247.588 59.8594 247.402 59.6436 247.081 59.4296C246.863 59.2841 246.648 59.1821 246.437 59.1235C246.228 59.0634 246.03 59.0426 245.843 59.0611C245.659 59.0809 245.5 59.1364 245.365 59.2277C245.249 59.3011 245.174 59.3832 245.142 59.4743C245.112 59.5667 245.113 59.6645 245.144 59.7677C245.177 59.8696 245.232 59.9762 245.309 60.0876C245.388 60.1976 245.481 60.3089 245.588 60.4216L246.021 60.8916C246.236 61.1169 246.407 61.341 246.536 61.5638C246.664 61.7867 246.738 62.0048 246.758 62.2183C246.778 62.4318 246.733 62.6379 246.624 62.8366C246.517 63.0367 246.333 63.2259 246.074 63.4044C245.689 63.6631 245.257 63.8227 244.78 63.8833C244.307 63.9439 243.81 63.9046 243.289 63.7656C242.772 63.6265 242.256 63.3854 241.741 63.0424C241.231 62.7022 240.864 62.3533 240.64 61.9957C240.419 61.6395 240.354 61.2877 240.446 60.9402C240.542 60.5928 240.81 60.2627 241.251 59.9501L242.544 60.8124C242.349 60.9645 242.234 61.124 242.2 61.2908C242.17 61.4575 242.21 61.6255 242.32 61.7947C242.434 61.9638 242.606 62.1252 242.837 62.2789C243.063 62.4298 243.292 62.5387 243.524 62.6055C243.758 62.6738 243.98 62.6993 244.189 62.6822C244.397 62.6651 244.577 62.6053 244.728 62.503C244.869 62.4075 244.945 62.2992 244.957 62.1779C244.97 62.058 244.93 61.9217 244.837 61.769C244.746 61.6177 244.613 61.4466 244.437 61.2556L243.92 60.6804C243.516 60.2379 243.296 59.8211 243.261 59.4299C243.225 59.0388 243.44 58.6868 243.906 58.3742C244.283 58.1155 244.716 57.9586 245.206 57.9035C245.697 57.8498 246.204 57.8897 246.725 58.0232C247.246 58.1568 247.737 58.3772 248.198 58.6845C248.668 58.9974 248.998 59.3243 249.188 59.6655C249.381 60.008 249.433 60.3406 249.345 60.6632C249.257 60.9858 249.03 61.2758 248.662 61.5331L247.381 60.679ZM252.787 61.8589L246.52 66.1088L245.183 65.2177L251.45 60.9678L252.787 61.8589ZM256.563 68.5901C255.879 69.0535 255.167 69.3607 254.426 69.5116C253.688 69.6638 252.967 69.6761 252.266 69.5486C251.568 69.421 250.941 69.1714 250.383 68.7996C249.821 68.425 249.443 68.0031 249.25 67.5338C249.056 67.0646 249.07 66.581 249.29 66.083C249.51 65.585 249.961 65.105 250.642 64.6429C251.325 64.1795 252.037 63.8716 252.775 63.7194C253.514 63.5672 254.232 63.5548 254.93 63.6824C255.629 63.8085 256.26 64.0589 256.822 64.4335C257.379 64.8053 257.755 65.2258 257.949 65.6951C258.146 66.1643 258.135 66.6479 257.915 67.1459C257.697 67.6452 257.246 68.1266 256.563 68.5901ZM255.208 67.6866C255.65 67.3864 255.957 67.0887 256.127 66.7934C256.299 66.4994 256.344 66.2189 256.26 65.9519C256.176 65.6849 255.973 65.4436 255.65 65.2282C255.327 65.0128 254.966 64.8781 254.568 64.8241C254.17 64.7701 253.753 64.8016 253.315 64.9186C252.879 65.0369 252.44 65.2462 251.997 65.5464C251.554 65.8466 251.247 66.1436 251.075 66.4376C250.904 66.7329 250.861 67.0141 250.945 67.2811C251.029 67.5482 251.232 67.7894 251.555 68.0048C251.878 68.2202 252.239 68.3549 252.637 68.4089C253.034 68.4629 253.451 68.4307 253.887 68.3124C254.325 68.1954 254.765 67.9868 255.208 67.6866ZM265.974 70.6505L259.707 74.9004L258.553 74.1307L259.747 69.6222L259.7 69.5914L255.756 72.2662L254.419 71.3751L260.687 67.1252L261.86 67.9072L260.647 72.3993L260.702 72.4363L264.644 69.7635L265.974 70.6505Z" fill="black"/>
<path fill-rule="evenodd" clip-rule="evenodd" d="M60.2366 120.579L61.964 119.635L196.383 29.3534L197.961 28.0771L197.88 28.1313L60.3097 120.529L60.2366 120.579Z" fill="black"/>
<path fill-rule="evenodd" clip-rule="evenodd" d="M139.588 173.48L141.316 172.537L275.734 82.2552L277.312 80.979L277.232 81.0332L139.661 173.431L139.588 173.48Z" fill="black"/>
<path fill-rule="evenodd" clip-rule="evenodd" d="M279.621 70.7116L279.46 70.8199L279.461 70.8206L279.622 70.7123L279.621 70.7116ZM279.457 70.8179L279.38 70.7667L212.393 26.1091L212.312 26.0552L213.26 26.4711L278.91 70.2378L279.457 70.8179Z" fill="black"/>
<path fill-rule="evenodd" clip-rule="evenodd" d="M121.762 176.728L121.601 176.837L121.601 176.837L121.763 176.729L121.762 176.728ZM121.596 176.834L121.52 176.783L54.534 132.126L54.4531 132.072L55.4007 132.488L121.05 176.254L121.596 176.834Z" fill="black"/>
<path d="M224.24 82.089C217.173 86.8816 205.664 86.9138 198.534 82.1609C191.405 77.408 191.355 69.6698 198.423 64.8772C205.49 60.0846 216.999 60.0525 224.129 64.8054C231.258 69.5583 231.308 77.2964 224.24 82.089Z" fill="white" stroke="black" stroke-width="0.313175"/>
<circle cx="26.4995" cy="26.4995" r="26.2345" transform="matrix(0.83271 0.55514 -0.82551 0.559777 167.281 72.188)" fill="white" stroke="black" stroke-width="0.529989"/>
<ellipse cx="33.9099" cy="9.08965" rx="33.9099" ry="9.08965" transform="matrix(0.899382 0.438974 -0.743368 0.664996 145.953 92.8081)" fill="#D9D9D9" fill-opacity="0.4"/>
<path d="M137.858 138.597C130.79 143.389 119.281 143.422 112.151 138.669C105.022 133.916 104.972 126.178 112.04 121.385C119.108 116.592 130.617 116.56 137.746 121.313C144.875 126.066 144.925 133.804 137.858 138.597Z" fill="white" stroke="black" stroke-width="0.313175"/>
<path d="M162.365 106.668C156.775 102.915 151.965 98.0546 147.934 92.0865C143.926 86.1329 140.838 79.3218 138.671 71.6533C136.526 63.9993 135.465 55.8045 135.486 47.0689C135.486 38.345 136.559 31.6251 138.704 26.9094C140.871 22.2081 143.958 19.5921 147.967 19.0613C151.997 18.519 156.797 20.104 162.365 23.8165C167.934 27.5289 172.723 32.3359 176.731 38.2375C180.761 44.1535 183.86 50.9067 186.027 58.497C188.194 66.0613 189.266 74.1983 189.244 82.9078C189.244 91.6838 188.161 98.4615 185.994 103.241C183.849 108.035 180.772 110.736 176.764 111.345C172.755 111.954 167.956 110.395 162.365 106.668ZM162.365 92.6446C166.179 95.187 169.223 94.9119 171.498 91.8192C173.774 88.7266 174.9 82.5637 174.879 73.3305C174.879 67.2628 174.359 61.864 173.319 57.1342C172.3 52.4188 170.848 48.4171 168.963 45.1291C167.1 41.8556 164.901 39.3738 162.365 37.6837C158.573 35.1557 155.54 35.412 153.265 38.4526C150.99 41.4931 149.841 47.5504 149.82 56.6245C149.82 62.7703 150.329 68.24 151.347 73.0335C152.387 77.8155 153.85 81.8634 155.735 85.1775C157.62 88.4655 159.83 90.9545 162.365 92.6446Z" fill="white"/>
<path d="M162.365 106.668L162.364 107.017L162.365 107.018V106.668ZM147.934 92.0865L147.771 92.2665L147.771 92.2674L147.934 92.0865ZM138.671 71.6533L138.402 71.6079L138.403 71.6093L138.671 71.6533ZM135.486 47.0689L135.777 47.2641V47.2631L135.486 47.0689ZM138.704 26.9094L138.436 26.5941L138.435 26.595L138.704 26.9094ZM147.967 19.0613L148.128 19.4603L148.129 19.4602L147.967 19.0613ZM176.731 38.2375L176.569 38.4201L176.57 38.421L176.731 38.2375ZM186.027 58.497L185.759 58.4548L185.759 58.4554L186.027 58.497ZM189.244 82.9078L188.953 82.7126V82.7136L189.244 82.9078ZM185.994 103.241L185.726 102.927L185.725 102.928L185.994 103.241ZM176.764 111.345L176.928 111.744L176.764 111.345ZM171.498 91.8192L171.749 92.1648L171.498 91.8192ZM174.879 73.3305L174.587 73.1364V73.1374L174.879 73.3305ZM173.319 57.1342L173.04 57.05L173.04 57.0523L173.319 57.1342ZM168.963 45.1291L168.768 45.258L168.769 45.2601L168.963 45.1291ZM153.265 38.4526L153.015 38.106L153.265 38.4526ZM149.82 56.6245L149.528 56.4294V56.4304L149.82 56.6245ZM151.347 73.0335L151.068 72.9472L151.069 72.9502L151.347 73.0335ZM155.735 85.1775L155.539 85.3061L155.541 85.3085L155.735 85.1775ZM162.366 106.319C156.825 102.599 152.073 97.7927 148.098 91.9056L147.771 92.2674C151.856 98.3165 156.725 103.231 162.364 107.017L162.366 106.319ZM148.098 91.9065C144.143 86.0325 141.089 79.3012 138.94 71.6973L138.403 71.6093C140.588 79.3424 143.708 86.2333 147.771 92.2665L148.098 91.9065ZM138.94 71.6988C136.814 64.1105 135.756 55.9666 135.777 47.2641L135.195 46.8737C135.173 55.6424 136.239 63.8881 138.402 71.6079L138.94 71.6988ZM135.777 47.2631C135.777 38.5719 136.846 31.8982 138.972 27.2238L138.435 26.595C136.271 31.3521 135.195 38.118 135.195 46.8748L135.777 47.2631ZM138.972 27.2247C141.12 22.564 144.174 19.9838 148.128 19.4603L147.806 18.6624C143.743 19.2003 140.621 21.8521 138.436 26.5941L138.972 27.2247ZM148.129 19.4602C152.104 18.9252 156.845 20.4865 162.365 24.1665V23.4665C156.748 19.7216 151.89 18.1127 147.805 18.6624L148.129 19.4602ZM162.365 24.1665C167.885 27.8465 172.616 32.5996 176.569 38.4201L176.893 38.0548C172.83 32.0723 167.983 27.2113 162.365 23.4665V24.1665ZM176.57 38.421C180.546 44.2577 183.611 50.9305 185.759 58.4548L186.295 58.5392C184.109 50.8828 180.977 44.0492 176.893 38.054L176.57 38.421ZM185.759 58.4554C187.906 65.9518 188.975 74.0364 188.953 82.7126L189.536 83.103C189.557 74.3601 188.481 66.1709 186.295 58.5386L185.759 58.4554ZM188.953 82.7136C188.953 91.4566 187.874 98.1885 185.726 102.927L186.263 103.555C188.448 98.7346 189.536 91.911 189.536 83.1019L188.953 82.7136ZM185.725 102.928C183.598 107.681 180.555 110.346 176.6 110.947L176.928 111.744C180.99 111.127 184.1 108.389 186.263 103.554L185.725 102.928ZM176.6 110.947C172.647 111.547 167.906 110.012 162.365 106.318V107.018C168.005 110.778 172.864 112.361 176.928 111.744L176.6 110.947ZM162.365 92.9946C166.301 95.6182 169.432 95.3144 171.749 92.1648L171.248 91.4737C169.015 94.5093 166.057 94.7557 162.365 92.2946V92.9946ZM171.749 92.1648C174.064 89.0181 175.192 82.7802 175.17 73.5237L174.587 73.1374C174.609 82.3473 173.483 88.4352 171.248 91.4737L171.749 92.1648ZM175.17 73.5247C175.17 67.4358 174.648 61.9983 173.597 57.2161L173.04 57.0523C174.069 61.7298 174.587 67.0899 174.587 73.1364L175.17 73.5247ZM173.597 57.2184C172.569 52.4579 171.095 48.3771 169.158 44.9981L168.769 45.2601C170.602 48.4572 172.031 52.3797 173.04 57.05L173.597 57.2184ZM169.159 45.0003C167.241 41.6319 164.972 39.0716 162.365 37.3337V38.0337C164.829 39.676 166.958 42.0793 168.768 45.258L169.159 45.0003ZM162.365 37.3337C158.453 34.7251 155.333 35.009 153.015 38.106L153.515 38.7991C155.747 35.8151 158.694 35.5863 162.365 38.0337V37.3337ZM153.015 38.106C150.7 41.2 149.55 47.3316 149.528 56.4294L150.111 56.8197C150.132 47.7692 151.279 41.7862 153.515 38.7991L153.015 38.106ZM149.528 56.4304C149.528 62.5967 150.039 68.1036 151.068 72.9472L151.626 73.1198C150.619 68.3764 150.111 62.944 150.111 56.8187L149.528 56.4304ZM151.069 72.9502C152.118 77.7759 153.603 81.9019 155.539 85.3061L155.931 85.0489C154.097 81.8249 152.656 77.855 151.626 73.1169L151.069 72.9502ZM155.541 85.3085C157.479 88.6898 159.759 91.2567 162.365 92.9946V92.2946C159.902 90.6523 157.761 88.2411 155.929 85.0465L155.541 85.3085Z" fill="black"/>
<path d="M158.365 108.668C152.775 104.915 147.965 100.055 143.934 94.0865C139.926 88.1329 136.838 81.3218 134.671 73.6533C132.526 65.9993 131.465 57.8045 131.486 49.0689C131.486 40.345 132.559 33.6251 134.704 28.9094C136.871 24.2081 139.958 21.5921 143.967 21.0613C147.997 20.519 152.797 22.104 158.365 25.8165C163.934 29.5289 168.723 34.3359 172.731 40.2375C176.761 46.1535 179.86 52.9067 182.027 60.497C184.194 68.0613 185.266 76.1983 185.244 84.9078C185.244 93.6838 184.161 100.462 181.994 105.241C179.849 110.035 176.772 112.736 172.764 113.345C168.755 113.954 163.956 112.395 158.365 108.668ZM158.365 94.6446C162.179 97.187 165.223 96.9119 167.498 93.8192C169.774 90.7266 170.9 84.5637 170.879 75.3305C170.879 69.2628 170.359 63.864 169.319 59.1342C168.3 54.4188 166.848 50.4171 164.963 47.1291C163.1 43.8556 160.901 41.3738 158.365 39.6837C154.573 37.1557 151.54 37.412 149.265 40.4526C146.99 43.4931 145.841 49.5504 145.82 58.6245C145.82 64.7703 146.329 70.24 147.347 75.0335C148.387 79.8155 149.85 83.8634 151.735 87.1775C153.62 90.4655 155.83 92.9545 158.365 94.6446Z" fill="#EA5F5F"/>
<path d="M158.365 108.668L158.364 109.017L158.365 109.018V108.668ZM143.934 94.0865L143.771 94.2665L143.771 94.2674L143.934 94.0865ZM134.671 73.6533L134.402 73.6079L134.403 73.6093L134.671 73.6533ZM131.486 49.0689L131.777 49.2641V49.2631L131.486 49.0689ZM134.704 28.9094L134.436 28.5941L134.435 28.595L134.704 28.9094ZM143.967 21.0613L144.128 21.4603L144.129 21.4602L143.967 21.0613ZM172.731 40.2375L172.569 40.4201L172.57 40.421L172.731 40.2375ZM182.027 60.497L181.759 60.4548L181.759 60.4554L182.027 60.497ZM185.244 84.9078L184.953 84.7126V84.7136L185.244 84.9078ZM181.994 105.241L181.726 104.927L181.725 104.928L181.994 105.241ZM172.764 113.345L172.928 113.744L172.764 113.345ZM167.498 93.8192L167.749 94.1648L167.498 93.8192ZM170.879 75.3305L170.587 75.1364V75.1374L170.879 75.3305ZM169.319 59.1342L169.04 59.05L169.04 59.0523L169.319 59.1342ZM164.963 47.1291L164.768 47.258L164.769 47.2601L164.963 47.1291ZM149.265 40.4526L149.015 40.106L149.265 40.4526ZM145.82 58.6245L145.528 58.4294V58.4304L145.82 58.6245ZM147.347 75.0335L147.068 74.9472L147.069 74.9502L147.347 75.0335ZM151.735 87.1775L151.539 87.3061L151.541 87.3085L151.735 87.1775ZM158.366 108.319C152.825 104.599 148.073 99.7927 144.098 93.9056L143.771 94.2674C147.856 100.317 152.725 105.231 158.364 109.017L158.366 108.319ZM144.098 93.9065C140.143 88.0325 137.089 81.3012 134.94 73.6973L134.403 73.6093C136.588 81.3424 139.708 88.2333 143.771 94.2665L144.098 93.9065ZM134.94 73.6988C132.814 66.1105 131.756 57.9666 131.777 49.2641L131.195 48.8737C131.173 57.6424 132.239 65.8881 134.402 73.6079L134.94 73.6988ZM131.777 49.2631C131.777 40.5719 132.846 33.8982 134.972 29.2238L134.435 28.595C132.271 33.3521 131.195 40.118 131.195 48.8748L131.777 49.2631ZM134.972 29.2247C137.12 24.564 140.174 21.9838 144.128 21.4603L143.806 20.6624C139.743 21.2003 136.621 23.8521 134.436 28.5941L134.972 29.2247ZM144.129 21.4602C148.104 20.9252 152.845 22.4865 158.365 26.1665V25.4665C152.748 21.7216 147.89 20.1127 143.805 20.6624L144.129 21.4602ZM158.365 26.1665C163.885 29.8465 168.616 34.5996 172.569 40.4201L172.893 40.0548C168.83 34.0723 163.983 29.2113 158.365 25.4665V26.1665ZM172.57 40.421C176.546 46.2577 179.611 52.9305 181.759 60.4548L182.295 60.5392C180.109 52.8828 176.977 46.0492 172.893 40.054L172.57 40.421ZM181.759 60.4554C183.906 67.9518 184.975 76.0364 184.953 84.7126L185.536 85.103C185.557 76.3601 184.481 68.1709 182.295 60.5386L181.759 60.4554ZM184.953 84.7136C184.953 93.4566 183.874 100.188 181.726 104.927L182.263 105.555C184.448 100.735 185.536 93.911 185.536 85.1019L184.953 84.7136ZM181.725 104.928C179.598 109.681 176.555 112.346 172.6 112.947L172.928 113.744C176.99 113.127 180.1 110.389 182.263 105.554L181.725 104.928ZM172.6 112.947C168.647 113.547 163.906 112.012 158.365 108.318V109.018C164.005 112.778 168.864 114.361 172.928 113.744L172.6 112.947ZM158.365 94.9946C162.301 97.6182 165.432 97.3144 167.749 94.1648L167.248 93.4737C165.015 96.5093 162.057 96.7557 158.365 94.2946V94.9946ZM167.749 94.1648C170.064 91.0181 171.192 84.7802 171.17 75.5237L170.587 75.1374C170.609 84.3473 169.483 90.4352 167.248 93.4737L167.749 94.1648ZM171.17 75.5247C171.17 69.4358 170.648 63.9983 169.597 59.2161L169.04 59.0523C170.069 63.7298 170.587 69.0899 170.587 75.1364L171.17 75.5247ZM169.597 59.2184C168.569 54.4579 167.095 50.3771 165.158 46.9981L164.769 47.2601C166.602 50.4572 168.031 54.3797 169.04 59.05L169.597 59.2184ZM165.159 47.0003C163.241 43.6319 160.972 41.0716 158.365 39.3337V40.0337C160.829 41.676 162.958 44.0793 164.768 47.258L165.159 47.0003ZM158.365 39.3337C154.453 36.7251 151.333 37.009 149.015 40.106L149.515 40.7991C151.747 37.8151 154.694 37.5863 158.365 40.0337V39.3337ZM149.015 40.106C146.7 43.2 145.55 49.3316 145.528 58.4294L146.111 58.8197C146.132 49.7692 147.279 43.7862 149.515 40.7991L149.015 40.106ZM145.528 58.4304C145.528 64.5967 146.039 70.1036 147.068 74.9472L147.626 75.1198C146.619 70.3764 146.111 64.944 146.111 58.8187L145.528 58.4304ZM147.069 74.9502C148.118 79.7759 149.603 83.9019 151.539 87.3061L151.931 87.0489C150.097 83.8249 148.656 79.855 147.626 75.1169L147.069 74.9502ZM151.541 87.3085C153.479 90.6898 155.759 93.2567 158.365 94.9946V94.2946C155.902 92.6523 153.761 90.2411 151.929 87.0465L151.541 87.3085Z" fill="black"/>
<path d="M190.06 115.282V114.132C190.06 113.258 190.214 112.558 190.521 112.032C190.834 111.502 191.286 111.214 191.877 111.167C192.474 111.118 193.201 111.379 194.058 111.95C194.927 112.529 195.656 113.236 196.247 114.07C196.844 114.908 197.293 115.797 197.595 116.737C197.902 117.673 198.056 118.582 198.056 119.462V120.613C198.056 121.486 197.902 122.19 197.595 122.724C197.287 123.251 196.835 123.535 196.238 123.577C195.642 123.627 194.915 123.366 194.058 122.795C193.189 122.216 192.459 121.506 191.868 120.664C191.277 119.83 190.828 118.944 190.521 118.008C190.214 117.065 190.06 116.156 190.06 115.282ZM192.64 115.852V117.002C192.64 117.506 192.74 118.049 192.941 118.631C193.148 119.216 193.52 119.688 194.058 120.046C194.596 120.405 194.962 120.429 195.157 120.119C195.358 119.812 195.458 119.4 195.458 118.881V117.731C195.458 117.212 195.364 116.666 195.175 116.093C194.986 115.519 194.613 115.047 194.058 114.677C193.526 114.322 193.157 114.3 192.95 114.61C192.743 114.919 192.64 115.333 192.64 115.852ZM180.744 96.5858V95.4353C180.744 94.5546 180.9 93.8529 181.214 93.3302C181.527 92.8003 181.979 92.5122 182.57 92.4658C183.167 92.4234 183.888 92.6839 184.733 93.2472C185.607 93.8303 186.34 94.539 186.931 95.3733C187.522 96.2076 187.971 97.0965 188.278 98.04C188.586 98.9764 188.739 99.8849 188.739 100.766V101.916C188.739 102.797 188.583 103.499 188.27 104.021C187.962 104.548 187.51 104.833 186.913 104.875C186.322 104.914 185.595 104.646 184.733 104.071C183.87 103.496 183.14 102.789 182.543 101.951C181.952 101.11 181.503 100.224 181.196 99.2949C180.895 98.3624 180.744 97.4594 180.744 96.5858ZM183.341 97.1667V98.3173C183.341 98.8358 183.441 99.3822 183.642 99.9564C183.849 100.535 184.213 100.997 184.733 101.344C185.276 101.706 185.646 101.732 185.841 101.422C186.042 101.116 186.142 100.703 186.142 100.185V99.0341C186.142 98.5157 186.048 97.9697 185.858 97.3962C185.669 96.8227 185.294 96.3488 184.733 95.9745C184.207 95.6239 183.843 95.6089 183.642 95.9295C183.441 96.2501 183.341 96.6625 183.341 97.1667ZM181.914 113.943L194.395 100.445L196.717 101.993L184.236 115.491L181.914 113.943Z" fill="white"/>
<path d="M190.521 112.032L190.262 111.7L190.261 111.7L190.521 112.032ZM191.877 111.167L192.031 111.567L192.031 111.567L191.877 111.167ZM196.247 114.07L196.094 114.265L196.095 114.267L196.247 114.07ZM197.595 116.737L197.333 116.716L197.335 116.721L197.595 116.737ZM197.595 122.724L197.855 123.055L197.855 123.054L197.595 122.724ZM196.238 123.577L196.086 123.178L196.084 123.178L196.238 123.577ZM191.868 120.664L192.024 120.471L192.022 120.469L191.868 120.664ZM190.521 118.008L190.261 117.991L190.261 117.993L190.521 118.008ZM192.941 118.631L192.685 118.626L192.686 118.631L192.941 118.631ZM195.157 120.119L194.902 119.78L194.9 119.783L195.157 120.119ZM195.175 116.093L194.915 116.078L195.175 116.093ZM192.95 114.61L192.695 114.27L192.95 114.61ZM181.214 93.3302L181.473 93.6629L181.473 93.6621L181.214 93.3302ZM182.57 92.4658L182.417 92.066L182.416 92.0661L182.57 92.4658ZM186.931 95.3733L186.778 95.5684L186.931 95.3733ZM188.278 98.04L188.018 98.0229L188.018 98.0244L188.278 98.04ZM188.27 104.021L188.011 103.689L188.01 103.69L188.27 104.021ZM186.913 104.875L187.065 105.275L187.066 105.275L186.913 104.875ZM182.543 101.951L182.388 102.144L182.391 102.148L182.543 101.951ZM181.196 99.2949L180.935 99.2762L180.936 99.2809L181.196 99.2949ZM183.642 99.9564L183.387 99.9545L183.389 99.9594L183.642 99.9564ZM185.841 101.422L185.585 101.083L185.584 101.086L185.841 101.422ZM185.858 97.3962L186.118 97.4108L185.858 97.3962ZM183.642 95.9295L183.9 96.2651L183.9 96.2651L183.642 95.9295ZM181.914 113.943L181.674 113.584L181.36 113.924L181.914 114.293V113.943ZM194.395 100.445V100.095L194.241 99.9928L194.155 100.087L194.395 100.445ZM196.717 101.993L196.957 102.351L197.271 102.012L196.717 101.643V101.993ZM184.236 115.491V115.841L184.39 115.943L184.476 115.849L184.236 115.491ZM190.351 115.477V114.326L189.769 113.938V115.088L190.351 115.477ZM190.351 114.326C190.351 113.504 190.496 112.852 190.781 112.363L190.261 111.7C189.932 112.265 189.769 113.013 189.769 113.938L190.351 114.326ZM190.78 112.363C191.069 111.875 191.485 111.61 192.031 111.567L191.724 110.767C191.088 110.817 190.599 111.129 190.262 111.7L190.78 112.363ZM192.031 111.567C192.573 111.522 193.244 111.757 194.058 112.3V111.6C193.158 111 192.375 110.713 191.723 110.767L192.031 111.567ZM194.058 112.3C194.886 112.852 195.559 113.51 196.094 114.265L196.401 113.875C195.753 112.961 194.967 112.206 194.058 111.6V112.3ZM196.095 114.267C196.646 115.04 197.057 115.854 197.333 116.716L197.856 116.757C197.53 115.74 197.042 114.776 196.4 113.873L196.095 114.267ZM197.335 116.721C197.62 117.59 197.764 118.438 197.764 119.268L198.347 119.656C198.347 118.725 198.184 117.756 197.855 116.752L197.335 116.721ZM197.764 119.268V120.419L198.347 120.807V119.656L197.764 119.268ZM197.764 120.419C197.764 121.241 197.62 121.897 197.334 122.394L197.855 123.054C198.184 122.483 198.347 121.732 198.347 120.807L197.764 120.419ZM197.335 122.393C197.052 122.877 196.638 123.138 196.086 123.178L196.391 123.977C197.032 123.932 197.522 123.624 197.855 123.055L197.335 122.393ZM196.084 123.178C195.543 123.223 194.872 122.988 194.058 122.445V123.145C194.957 123.745 195.74 124.031 196.393 123.977L196.084 123.178ZM194.058 122.445C193.231 121.894 192.558 121.232 192.024 120.471L191.713 120.857C192.361 121.779 193.148 122.538 194.058 123.145V122.445ZM192.022 120.469C191.475 119.698 191.064 118.885 190.781 118.024L190.261 117.993C190.593 119.004 191.079 119.962 191.715 120.859L192.022 120.469ZM190.781 118.025C190.496 117.147 190.351 116.299 190.351 115.477L189.769 115.088C189.769 116.013 189.932 116.982 190.261 117.991L190.781 118.025ZM192.348 115.657V116.808L192.931 117.196V116.046L192.348 115.657ZM192.348 116.808C192.348 117.371 192.461 117.979 192.685 118.626L193.197 118.635C193.019 118.12 192.931 117.642 192.931 117.196L192.348 116.808ZM192.686 118.631C192.959 119.401 193.447 119.989 194.058 120.396V119.696C193.593 119.387 193.337 119.031 193.196 118.63L192.686 118.631ZM194.058 120.396C194.666 120.802 195.153 120.87 195.414 120.454L194.9 119.783C194.771 119.988 194.525 120.008 194.058 119.696V120.396ZM195.412 120.457C195.638 120.114 195.75 119.651 195.75 119.075L195.167 118.687C195.167 119.149 195.078 119.511 194.902 119.78L195.412 120.457ZM195.75 119.075V117.925L195.167 117.537V118.687L195.75 119.075ZM195.75 117.925C195.75 117.353 195.645 116.746 195.434 116.107L194.915 116.078C195.083 116.587 195.167 117.071 195.167 117.537L195.75 117.925ZM195.434 116.107C195.179 115.333 194.681 114.742 194.058 114.327V115.027C194.546 115.352 194.792 115.706 194.915 116.078L195.434 116.107ZM194.058 114.327C193.451 113.923 192.967 113.863 192.695 114.27L193.204 114.949C193.346 114.737 193.601 114.722 194.058 115.027V114.327ZM192.695 114.27C192.464 114.616 192.348 115.08 192.348 115.657L192.931 116.046C192.931 115.586 193.022 115.222 193.204 114.949L192.695 114.27ZM181.035 96.78V95.6294L180.453 95.2411V96.3917L181.035 96.78ZM181.035 95.6294C181.035 94.8004 181.182 94.1478 181.473 93.6629L180.955 92.9974C180.619 93.558 180.453 94.3088 180.453 95.2411L181.035 95.6294ZM181.473 93.6621C181.762 93.1734 182.177 92.9085 182.723 92.8656L182.416 92.0661C181.781 92.116 181.292 92.4272 180.954 92.9983L181.473 93.6621ZM182.722 92.8657C183.265 92.8271 183.93 93.0623 184.733 93.5972V92.8972C183.845 92.3055 183.069 92.0197 182.417 92.066L182.722 92.8657ZM184.733 93.5972C185.567 94.1534 186.243 94.8141 186.778 95.5684L187.084 95.1781C186.437 94.2639 185.648 93.5072 184.733 92.8972V93.5972ZM186.778 95.5684C187.323 96.3388 187.735 97.1544 188.018 98.0229L188.539 98.0571C188.207 97.0386 187.721 96.0763 187.084 95.1781L186.778 95.5684ZM188.018 98.0244C188.304 98.8936 188.448 99.7414 188.448 100.571L189.031 100.96C189.031 100.028 188.868 99.0592 188.538 98.0556L188.018 98.0244ZM188.448 100.571V101.722L189.031 102.11V100.96L188.448 100.571ZM188.448 101.722C188.448 102.551 188.301 103.204 188.011 103.689L188.528 104.354C188.864 103.793 189.031 103.043 189.031 102.11L188.448 101.722ZM188.01 103.69C187.727 104.174 187.313 104.436 186.761 104.475L187.066 105.275C187.707 105.229 188.197 104.922 188.529 104.352L188.01 103.69ZM186.762 104.475C186.226 104.511 185.555 104.269 184.733 103.721V104.421C185.636 105.023 186.418 105.318 187.065 105.275L186.762 104.475ZM184.733 103.721C183.911 103.173 183.237 102.515 182.696 101.754L182.391 102.148C183.043 103.064 183.829 103.818 184.733 104.421V103.721ZM182.698 101.758C182.15 100.978 181.738 100.164 181.455 99.3089L180.936 99.2809C181.268 100.285 181.754 101.241 182.388 102.144L182.698 101.758ZM181.457 99.3136C181.177 98.4469 181.035 97.6036 181.035 96.78L180.453 96.3917C180.453 97.3153 180.612 98.278 180.935 99.2762L181.457 99.3136ZM183.05 96.9726V98.1232L183.632 98.5115V97.3609L183.05 96.9726ZM183.05 98.1232C183.05 98.6985 183.162 99.3107 183.387 99.9545L183.898 99.9584C183.721 99.4536 183.632 98.9731 183.632 98.5115L183.05 98.1232ZM183.389 99.9594C183.66 100.718 184.137 101.297 184.733 101.694V100.994C184.289 100.698 184.038 100.351 183.896 99.9535L183.389 99.9594ZM184.733 101.694C185.345 102.102 185.836 102.174 186.098 101.758L185.584 101.086C185.455 101.291 185.208 101.31 184.733 100.994V101.694ZM186.096 101.761C186.321 101.417 186.433 100.954 186.433 100.379L185.851 99.9906C185.851 100.452 185.762 100.814 185.585 101.083L186.096 101.761ZM186.433 100.379V99.2283L185.851 98.84V99.9906L186.433 100.379ZM186.433 99.2283C186.433 98.6566 186.329 98.0493 186.118 97.4108L185.599 97.3816C185.766 97.89 185.851 98.3747 185.851 98.84L186.433 99.2283ZM186.118 97.4108C185.862 96.6346 185.36 96.0426 184.733 95.6245V96.3245C185.228 96.6549 185.477 97.0107 185.599 97.3816L186.118 97.4108ZM184.733 95.6245C184.128 95.2216 183.649 95.1728 183.385 95.5938L183.9 96.2651C184.038 96.0449 184.285 96.0262 184.733 96.3245V95.6245ZM183.385 95.5938C183.162 95.9493 183.05 96.4099 183.05 96.9726L183.632 97.3609C183.632 96.9151 183.721 96.5508 183.9 96.2651L183.385 95.5938ZM182.154 114.301L194.635 100.803L194.155 100.087L181.674 113.584L182.154 114.301ZM194.395 100.795L196.717 102.343V101.643L194.395 100.095V100.795ZM196.477 101.635L183.996 115.133L184.476 115.849L196.957 102.351L196.477 101.635ZM184.236 115.141L181.914 113.593V114.293L184.236 115.841V115.141Z" fill="black"/>
<path d="M188.06 115.282V114.132C188.06 113.258 188.214 112.558 188.521 112.032C188.834 111.502 189.286 111.214 189.877 111.167C190.474 111.118 191.201 111.379 192.058 111.95C192.927 112.529 193.656 113.236 194.247 114.07C194.844 114.908 195.293 115.797 195.595 116.737C195.902 117.673 196.056 118.582 196.056 119.462V120.613C196.056 121.486 195.902 122.19 195.595 122.724C195.287 123.251 194.835 123.535 194.238 123.577C193.642 123.627 192.915 123.366 192.058 122.795C191.189 122.216 190.459 121.506 189.868 120.664C189.277 119.83 188.828 118.944 188.521 118.008C188.214 117.065 188.06 116.156 188.06 115.282ZM190.64 115.852V117.002C190.64 117.506 190.74 118.049 190.941 118.631C191.148 119.216 191.52 119.688 192.058 120.046C192.596 120.405 192.962 120.429 193.157 120.119C193.358 119.812 193.458 119.4 193.458 118.881V117.731C193.458 117.212 193.364 116.666 193.175 116.093C192.986 115.519 192.613 115.047 192.058 114.677C191.526 114.322 191.157 114.3 190.95 114.61C190.743 114.919 190.64 115.333 190.64 115.852ZM178.744 96.5858V95.4353C178.744 94.5546 178.9 93.8529 179.214 93.3302C179.527 92.8003 179.979 92.5122 180.57 92.4658C181.167 92.4234 181.888 92.6839 182.733 93.2472C183.607 93.8303 184.34 94.539 184.931 95.3733C185.522 96.2076 185.971 97.0965 186.278 98.04C186.586 98.9764 186.739 99.8849 186.739 100.766V101.916C186.739 102.797 186.583 103.499 186.27 104.021C185.962 104.548 185.51 104.833 184.913 104.875C184.322 104.914 183.595 104.646 182.733 104.071C181.87 103.496 181.14 102.789 180.543 101.951C179.952 101.11 179.503 100.224 179.196 99.2949C178.895 98.3624 178.744 97.4594 178.744 96.5858ZM181.341 97.1667V98.3173C181.341 98.8358 181.441 99.3822 181.642 99.9564C181.849 100.535 182.213 100.997 182.733 101.344C183.276 101.706 183.646 101.732 183.841 101.422C184.042 101.116 184.142 100.703 184.142 100.185V99.0341C184.142 98.5157 184.048 97.9697 183.858 97.3962C183.669 96.8227 183.294 96.3488 182.733 95.9745C182.207 95.6239 181.843 95.6089 181.642 95.9295C181.441 96.2501 181.341 96.6625 181.341 97.1667ZM179.914 113.943L192.395 100.445L194.717 101.993L182.236 115.491L179.914 113.943Z" fill="#EA5F5F"/>
<path d="M188.521 112.032L188.262 111.7L188.261 111.7L188.521 112.032ZM189.877 111.167L190.031 111.567L190.031 111.567L189.877 111.167ZM194.247 114.07L194.094 114.265L194.095 114.267L194.247 114.07ZM195.595 116.737L195.333 116.716L195.335 116.721L195.595 116.737ZM195.595 122.724L195.855 123.055L195.855 123.054L195.595 122.724ZM194.238 123.577L194.086 123.178L194.084 123.178L194.238 123.577ZM189.868 120.664L190.024 120.471L190.022 120.469L189.868 120.664ZM188.521 118.008L188.261 117.991L188.261 117.993L188.521 118.008ZM190.941 118.631L190.685 118.626L190.686 118.631L190.941 118.631ZM193.157 120.119L192.902 119.78L192.9 119.783L193.157 120.119ZM193.175 116.093L192.915 116.078L193.175 116.093ZM190.95 114.61L190.695 114.27L190.95 114.61ZM179.214 93.3302L179.473 93.6629L179.473 93.6621L179.214 93.3302ZM180.57 92.4658L180.417 92.066L180.416 92.0661L180.57 92.4658ZM184.931 95.3733L184.778 95.5684L184.931 95.3733ZM186.278 98.04L186.018 98.0229L186.018 98.0244L186.278 98.04ZM186.27 104.021L186.011 103.689L186.01 103.69L186.27 104.021ZM184.913 104.875L185.065 105.275L185.066 105.275L184.913 104.875ZM180.543 101.951L180.388 102.144L180.391 102.148L180.543 101.951ZM179.196 99.2949L178.935 99.2762L178.936 99.2809L179.196 99.2949ZM181.642 99.9564L181.387 99.9545L181.389 99.9594L181.642 99.9564ZM183.841 101.422L183.585 101.083L183.584 101.086L183.841 101.422ZM183.858 97.3962L184.118 97.4108L183.858 97.3962ZM181.642 95.9295L181.9 96.2651L181.9 96.2651L181.642 95.9295ZM179.914 113.943L179.674 113.584L179.36 113.924L179.914 114.293V113.943ZM192.395 100.445V100.095L192.241 99.9928L192.155 100.087L192.395 100.445ZM194.717 101.993L194.957 102.351L195.271 102.012L194.717 101.643V101.993ZM182.236 115.491V115.841L182.39 115.943L182.476 115.849L182.236 115.491ZM188.351 115.477V114.326L187.769 113.938V115.088L188.351 115.477ZM188.351 114.326C188.351 113.504 188.496 112.852 188.781 112.363L188.261 111.7C187.932 112.265 187.769 113.013 187.769 113.938L188.351 114.326ZM188.78 112.363C189.069 111.875 189.485 111.61 190.031 111.567L189.724 110.767C189.088 110.817 188.599 111.129 188.262 111.7L188.78 112.363ZM190.031 111.567C190.573 111.522 191.244 111.757 192.058 112.3V111.6C191.158 111 190.375 110.713 189.723 110.767L190.031 111.567ZM192.058 112.3C192.886 112.852 193.559 113.51 194.094 114.265L194.401 113.875C193.753 112.961 192.967 112.206 192.058 111.6V112.3ZM194.095 114.267C194.646 115.04 195.057 115.854 195.333 116.716L195.856 116.757C195.53 115.74 195.042 114.776 194.4 113.873L194.095 114.267ZM195.335 116.721C195.62 117.59 195.764 118.438 195.764 119.268L196.347 119.656C196.347 118.725 196.184 117.756 195.855 116.752L195.335 116.721ZM195.764 119.268V120.419L196.347 120.807V119.656L195.764 119.268ZM195.764 120.419C195.764 121.241 195.62 121.897 195.334 122.394L195.855 123.054C196.184 122.483 196.347 121.732 196.347 120.807L195.764 120.419ZM195.335 122.393C195.052 122.877 194.638 123.138 194.086 123.178L194.391 123.977C195.032 123.932 195.522 123.624 195.855 123.055L195.335 122.393ZM194.084 123.178C193.543 123.223 192.872 122.988 192.058 122.445V123.145C192.957 123.745 193.74 124.031 194.393 123.977L194.084 123.178ZM192.058 122.445C191.231 121.894 190.558 121.232 190.024 120.471L189.713 120.857C190.361 121.779 191.148 122.538 192.058 123.145V122.445ZM190.022 120.469C189.475 119.698 189.064 118.885 188.781 118.024L188.261 117.993C188.593 119.004 189.079 119.962 189.715 120.859L190.022 120.469ZM188.781 118.025C188.496 117.147 188.351 116.299 188.351 115.477L187.769 115.088C187.769 116.013 187.932 116.982 188.261 117.991L188.781 118.025ZM190.348 115.657V116.808L190.931 117.196V116.046L190.348 115.657ZM190.348 116.808C190.348 117.371 190.461 117.979 190.685 118.626L191.197 118.635C191.019 118.12 190.931 117.642 190.931 117.196L190.348 116.808ZM190.686 118.631C190.959 119.401 191.447 119.989 192.058 120.396V119.696C191.593 119.387 191.337 119.031 191.196 118.63L190.686 118.631ZM192.058 120.396C192.666 120.802 193.153 120.87 193.414 120.454L192.9 119.783C192.771 119.988 192.525 120.008 192.058 119.696V120.396ZM193.412 120.457C193.638 120.114 193.75 119.651 193.75 119.075L193.167 118.687C193.167 119.149 193.078 119.511 192.902 119.78L193.412 120.457ZM193.75 119.075V117.925L193.167 117.537V118.687L193.75 119.075ZM193.75 117.925C193.75 117.353 193.645 116.746 193.434 116.107L192.915 116.078C193.083 116.587 193.167 117.071 193.167 117.537L193.75 117.925ZM193.434 116.107C193.179 115.333 192.681 114.742 192.058 114.327V115.027C192.546 115.352 192.792 115.706 192.915 116.078L193.434 116.107ZM192.058 114.327C191.451 113.923 190.967 113.863 190.695 114.27L191.204 114.949C191.346 114.737 191.601 114.722 192.058 115.027V114.327ZM190.695 114.27C190.464 114.616 190.348 115.08 190.348 115.657L190.931 116.046C190.931 115.586 191.022 115.222 191.204 114.949L190.695 114.27ZM179.035 96.78V95.6294L178.453 95.2411V96.3917L179.035 96.78ZM179.035 95.6294C179.035 94.8004 179.182 94.1478 179.473 93.6629L178.955 92.9974C178.619 93.558 178.453 94.3088 178.453 95.2411L179.035 95.6294ZM179.473 93.6621C179.762 93.1734 180.177 92.9085 180.723 92.8656L180.416 92.0661C179.781 92.116 179.292 92.4272 178.954 92.9983L179.473 93.6621ZM180.722 92.8657C181.265 92.8271 181.93 93.0623 182.733 93.5972V92.8972C181.845 92.3055 181.069 92.0197 180.417 92.066L180.722 92.8657ZM182.733 93.5972C183.567 94.1534 184.243 94.8141 184.778 95.5684L185.084 95.1781C184.437 94.2639 183.648 93.5072 182.733 92.8972V93.5972ZM184.778 95.5684C185.323 96.3388 185.735 97.1544 186.018 98.0229L186.539 98.0571C186.207 97.0386 185.721 96.0763 185.084 95.1781L184.778 95.5684ZM186.018 98.0244C186.304 98.8936 186.448 99.7414 186.448 100.571L187.031 100.96C187.031 100.028 186.868 99.0592 186.538 98.0556L186.018 98.0244ZM186.448 100.571V101.722L187.031 102.11V100.96L186.448 100.571ZM186.448 101.722C186.448 102.551 186.301 103.204 186.011 103.689L186.528 104.354C186.864 103.793 187.031 103.043 187.031 102.11L186.448 101.722ZM186.01 103.69C185.727 104.174 185.313 104.436 184.761 104.475L185.066 105.275C185.707 105.229 186.197 104.922 186.529 104.352L186.01 103.69ZM184.762 104.475C184.226 104.511 183.555 104.269 182.733 103.721V104.421C183.636 105.023 184.418 105.318 185.065 105.275L184.762 104.475ZM182.733 103.721C181.911 103.173 181.237 102.515 180.696 101.754L180.391 102.148C181.043 103.064 181.829 103.818 182.733 104.421V103.721ZM180.698 101.758C180.15 100.978 179.738 100.164 179.455 99.3089L178.936 99.2809C179.268 100.285 179.754 101.241 180.388 102.144L180.698 101.758ZM179.457 99.3136C179.177 98.4469 179.035 97.6036 179.035 96.78L178.453 96.3917C178.453 97.3153 178.612 98.278 178.935 99.2762L179.457 99.3136ZM181.05 96.9726V98.1232L181.632 98.5115V97.3609L181.05 96.9726ZM181.05 98.1232C181.05 98.6985 181.162 99.3107 181.387 99.9545L181.898 99.9584C181.721 99.4536 181.632 98.9731 181.632 98.5115L181.05 98.1232ZM181.389 99.9594C181.66 100.718 182.137 101.297 182.733 101.694V100.994C182.289 100.698 182.038 100.351 181.896 99.9535L181.389 99.9594ZM182.733 101.694C183.345 102.102 183.836 102.174 184.098 101.758L183.584 101.086C183.455 101.291 183.208 101.31 182.733 100.994V101.694ZM184.096 101.761C184.321 101.417 184.433 100.954 184.433 100.379L183.851 99.9906C183.851 100.452 183.762 100.814 183.585 101.083L184.096 101.761ZM184.433 100.379V99.2283L183.851 98.84V99.9906L184.433 100.379ZM184.433 99.2283C184.433 98.6566 184.329 98.0493 184.118 97.4108L183.599 97.3816C183.766 97.89 183.851 98.3747 183.851 98.84L184.433 99.2283ZM184.118 97.4108C183.862 96.6346 183.36 96.0426 182.733 95.6245V96.3245C183.228 96.6549 183.477 97.0107 183.599 97.3816L184.118 97.4108ZM182.733 95.6245C182.128 95.2216 181.649 95.1728 181.385 95.5938L181.9 96.2651C182.038 96.0449 182.285 96.0262 182.733 96.3245V95.6245ZM181.385 95.5938C181.162 95.9493 181.05 96.4099 181.05 96.9726L181.632 97.3609C181.632 96.9151 181.721 96.5508 181.9 96.2651L181.385 95.5938ZM180.154 114.301L192.635 100.803L192.155 100.087L179.674 113.584L180.154 114.301ZM192.395 100.795L194.717 102.343V101.643L192.395 100.095V100.795ZM194.477 101.635L181.996 115.133L182.476 115.849L194.957 102.351L194.477 101.635ZM182.236 115.141L179.914 113.593V114.293L182.236 115.841V115.141Z" fill="black"/>
</svg>
