<svg width="129" height="26" viewBox="0 0 129 26" fill="none" xmlns="http://www.w3.org/2000/svg">
<g clip-path="url(#clip0_3129_6463)">
<path fill-rule="evenodd" clip-rule="evenodd" d="M14.9329 0.926095V11.1576H5.12265V0.926095H0V24.5635H5.12234V13.7916H14.9329V24.5635H20.0553V0.925781H14.9329V0.926095ZM26.7181 13.7916H32.8115C32.9452 10.5496 31.6063 9.43539 30.0658 9.43539C28.3583 9.43539 26.8518 10.9551 26.7181 13.7916ZM26.9874 16.4588C27.7912 19.8018 30.4694 21.0514 32.7465 21.0514C34.6884 21.0514 36.4292 20.4098 37.4674 19.3631C37.1994 22.6719 34.5212 24.9006 30.5702 24.9006C26.117 24.9006 22.3669 21.4566 22.3669 16.29C22.3669 11.0226 25.8157 7.10554 30.5702 7.10554C35.2575 7.10554 37.501 10.1783 37.501 12.8462C37.501 12.9812 37.501 13.1161 37.4674 13.3186L26.9874 16.4591V16.4588Z" fill="#1F191A"/>
<path fill-rule="evenodd" clip-rule="evenodd" d="M50.8279 20.9464V10.6138C50.0912 9.83733 49.1537 9.36464 48.0156 9.36464C45.9733 9.36464 44.2991 11.1204 44.2991 14.8008C44.2991 18.6843 45.8389 21.5544 48.7855 21.5544C49.5555 21.5544 50.2588 21.2844 50.8279 20.9467V20.9464ZM55.5152 24.5593H50.8279V21.7232C49.9575 23.5126 48.2498 24.8971 45.9394 24.8971C42.4241 24.8971 39.3438 21.7232 39.3438 16.4891C39.3438 10.9851 42.6585 7.10165 47.848 7.10165C49.7893 7.10165 50.8615 8.16253 50.8615 8.16253L55.5152 6.76769V24.5593ZM78.2795 1.66796L82.9335 0.273438V24.559H78.2795V1.66796ZM87.2206 8.48895L91.8744 7.09412V24.5593H87.2206V8.48895ZM96.1581 8.48895L100.812 7.09223V10.4114C101.95 8.55423 103.692 7.10196 106.336 7.10196C109.115 7.10196 111.225 8.95944 111.225 12.9098V24.5596H106.571V14.497C106.571 11.8291 105.466 10.5125 103.223 10.5125C102.419 10.5125 101.615 10.7488 100.812 11.1204V24.5596H96.1581V8.48895ZM117.885 13.788H123.979C124.113 10.546 122.774 9.43181 121.233 9.43181C119.526 9.43181 118.019 10.9516 117.885 13.788ZM118.155 16.4552C118.959 19.7983 121.637 21.0478 123.914 21.0478C125.856 21.0478 127.597 20.4062 128.635 19.3595C128.367 22.6683 125.688 24.8971 121.737 24.8971C117.285 24.8971 113.534 21.453 113.534 16.2864C113.534 11.019 116.983 7.10196 121.737 7.10196C126.425 7.10196 128.668 10.1747 128.668 12.8426C128.668 12.9776 128.668 13.1125 128.635 13.315L118.155 16.4556V16.4552Z" fill="#1F191A"/>
<path fill-rule="evenodd" clip-rule="evenodd" d="M69.351 20.9525V10.62C68.6147 9.84346 67.6768 9.37078 66.5388 9.37078C64.4964 9.37078 62.8222 11.1266 62.8222 14.807C62.8222 18.6905 64.3624 21.5605 67.3087 21.5605C68.0789 21.5605 68.7823 21.2906 69.351 20.9528V20.9525ZM74.0386 24.5658H69.3513V21.7294C68.4807 23.519 66.7729 24.9032 64.4628 24.9032C60.9472 24.9032 57.8672 21.7294 57.8672 16.4953C57.8672 10.9913 61.1816 7.1081 66.3715 7.1081C67.309 7.1081 68.3802 7.27696 69.3513 7.61468V1.67409L74.0386 0.269531V24.5658Z" fill="#1F191A"/>
<path fill-rule="evenodd" clip-rule="evenodd" d="M86.9766 3.68777H92.1052V-0.15625H86.9766V3.68711V3.68777Z" fill="#1F191A"/>
</g>
<defs>
<clipPath id="clip0_3129_6463">
<rect width="129" height="25.1095" fill="white"/>
</clipPath>
</defs>
</svg>
