<svg width="162" height="19" viewBox="0 0 162 19" fill="none" xmlns="http://www.w3.org/2000/svg">
<path d="M5.88311 17.8062V18.3815H0.272367V17.8062C0.907888 17.8062 1.33459 17.7332 1.55249 17.5871C1.77038 17.4409 1.87933 17.03 1.87933 16.3542V2.60151C1.87933 1.92575 1.7613 1.51481 1.52525 1.3687C1.2892 1.22259 0.780783 1.14953 0 1.14953V0.574219H4.27615V8.98475C4.53036 8.45509 4.98884 7.89805 5.6516 7.3136C6.31435 6.72916 7.09968 6.43693 8.00756 6.43693C9.22413 6.43693 10.1184 6.82961 10.6904 7.61495C11.2623 8.4003 11.5483 9.34089 11.5483 10.4367V16.3542C11.5483 17.03 11.6573 17.4409 11.8752 17.5871C12.0931 17.7332 12.5288 17.8062 13.1825 17.8062V18.3815H7.57178V17.8062C8.2073 17.8062 8.62947 17.7332 8.83828 17.5871C9.04709 17.4409 9.1515 17.03 9.1515 16.3542V10.9025C9.1515 9.91621 8.94723 9.15826 8.53868 8.6286C8.13013 8.09895 7.53546 7.83412 6.75468 7.83412C6.19179 7.83412 5.69245 8.00306 5.25667 8.34095C4.82088 8.67883 4.49404 9.07607 4.27615 9.53267V16.3542C4.27615 17.03 4.38509 17.4409 4.60299 17.5871C4.82088 17.7332 5.24759 17.8062 5.88311 17.8062ZM24.9796 12.5462C24.9796 14.3361 24.3986 15.8018 23.2365 16.9432C22.0744 18.0847 20.7761 18.6555 19.3417 18.6555C17.9072 18.6555 16.6089 18.0847 15.4468 16.9432C14.2847 15.8018 13.7037 14.3361 13.7037 12.5462C13.7037 10.7381 14.2847 9.26784 15.4468 8.13548C16.6089 7.00311 17.9072 6.43693 19.3417 6.43693C20.7761 6.43693 22.0744 7.00311 23.2365 8.13548C24.3986 9.26784 24.9796 10.7381 24.9796 12.5462ZM22.4739 12.5462C22.4739 10.7563 22.1834 9.40482 21.6023 8.49162C21.0213 7.57843 20.2677 7.12183 19.3417 7.12183C18.4156 7.12183 17.6621 7.57843 17.081 8.49162C16.5 9.40482 16.2095 10.7563 16.2095 12.5462C16.2095 14.3178 16.5 15.6602 17.081 16.5734C17.6621 17.4866 18.4156 17.9432 19.3417 17.9432C20.2677 17.9432 21.0213 17.4866 21.6023 16.5734C22.1834 15.6602 22.4739 14.3178 22.4739 12.5462ZM29.0688 17.8062V18.3815H24.6565V17.8062C25.2738 17.8062 25.7641 17.7012 26.1273 17.4912C26.4904 17.2811 26.8717 16.9022 27.2712 16.3542L29.9404 12.5462L27.2984 8.46423C26.9534 7.91631 26.672 7.58299 26.4541 7.46428C26.2362 7.34556 25.8458 7.2862 25.2829 7.2862V6.71089H30.7302V7.2862C30.3308 7.2862 30.0312 7.30903 29.8314 7.35469C29.6317 7.40035 29.5318 7.5145 29.5318 7.69714C29.5318 7.7702 29.5591 7.87065 29.6135 7.9985C29.668 8.12634 29.7497 8.28159 29.8587 8.46423L31.5746 11.149L33.1271 8.73819C33.2723 8.50076 33.3858 8.29985 33.4675 8.13548C33.5492 7.9711 33.5901 7.83412 33.5901 7.72454C33.5901 7.56016 33.4948 7.44601 33.3041 7.38209C33.1134 7.31817 32.8184 7.2862 32.4189 7.2862V6.71089H36.6406V7.2862C36.0232 7.2862 35.5239 7.39122 35.1426 7.60126C34.7613 7.81129 34.389 8.19027 34.0259 8.73819L31.9831 11.7791L34.9247 16.3542C35.2697 16.9204 35.6011 17.304 35.9188 17.5049C36.2366 17.7058 36.686 17.8062 37.267 17.8062V18.3815H31.7108V17.8062C32.0921 17.8062 32.3781 17.7743 32.5687 17.7103C32.7594 17.6464 32.8547 17.5323 32.8547 17.3679C32.8547 17.2583 32.8138 17.1213 32.7321 16.9569C32.6504 16.7926 32.5369 16.5917 32.3917 16.3542L30.3489 13.2037L28.2517 16.3542C28.1065 16.5734 27.9884 16.7606 27.8976 16.9158C27.8069 17.0711 27.7615 17.2035 27.7615 17.3131C27.7615 17.4957 27.8704 17.6236 28.0883 17.6966C28.3062 17.7697 28.633 17.8062 29.0688 17.8062ZM37.5975 7.20402C38.3239 6.71089 39.0048 6.14928 39.6403 5.51917C40.2758 4.88907 40.8115 4.26353 41.2473 3.64255H41.4651V6.76568C41.9009 6.76568 42.5455 6.75655 43.3989 6.73829C44.2524 6.72002 44.8788 6.69263 45.2783 6.6561L45.1149 7.56016H41.4651V15.0666C41.4651 15.7424 41.6149 16.2994 41.9146 16.7378C42.2142 17.1761 42.6817 17.3953 43.3172 17.3953C43.7349 17.3953 44.098 17.2994 44.4067 17.1076C44.7154 16.9159 45.015 16.6191 45.3055 16.2173L45.6868 16.5186C45.2692 17.1944 44.7699 17.7195 44.1888 18.0939C43.6078 18.4683 42.9268 18.6555 42.1461 18.6555C41.2926 18.6555 40.5663 18.3678 39.9671 17.7925C39.3679 17.2172 39.0683 16.4729 39.0683 15.5598L39.15 7.56016H37.5975V7.20402ZM57.1571 12.5462C57.1571 14.3361 56.5761 15.8018 55.414 16.9432C54.2519 18.0847 52.9536 18.6555 51.5191 18.6555C50.0847 18.6555 48.7864 18.0847 47.6243 16.9432C46.4622 15.8018 45.8812 14.3361 45.8812 12.5462C45.8812 10.7381 46.4622 9.26784 47.6243 8.13548C48.7864 7.00311 50.0847 6.43693 51.5191 6.43693C52.9536 6.43693 54.2519 7.00311 55.414 8.13548C56.5761 9.26784 57.1571 10.7381 57.1571 12.5462ZM54.6513 12.5462C54.6513 10.7563 54.3608 9.40482 53.7798 8.49162C53.1987 7.57843 52.4452 7.12183 51.5191 7.12183C50.5931 7.12183 49.8395 7.57843 49.2585 8.49162C48.6774 9.40482 48.3869 10.7563 48.3869 12.5462C48.3869 14.3178 48.6774 15.6602 49.2585 16.5734C49.8395 17.4866 50.5931 17.9432 51.5191 17.9432C52.4452 17.9432 53.1987 17.4866 53.7798 16.5734C54.3608 15.6602 54.6513 14.3178 54.6513 12.5462ZM63.7248 17.8062V18.3815H58.0868V17.8062C58.7224 17.8062 59.1491 17.7332 59.3669 17.5871C59.5848 17.4409 59.6938 17.03 59.6938 16.3542V8.71079C59.6938 8.03502 59.5848 7.62865 59.3669 7.49167C59.1491 7.35469 58.7224 7.2862 58.0868 7.2862V6.71089H62.0906V8.98475C62.3448 8.45509 62.7988 7.89805 63.4524 7.3136C64.1061 6.72916 64.896 6.43693 65.822 6.43693C67.0204 6.43693 67.9102 6.82961 68.4912 7.61495C69.0723 8.4003 69.3628 9.34089 69.3628 10.4367V16.3542C69.3628 17.03 69.4717 17.4409 69.6896 17.5871C69.9075 17.7332 70.3342 17.8062 70.9697 17.8062V18.3815H65.359V17.8062C65.9945 17.8062 66.4212 17.7332 66.6391 17.5871C66.857 17.4409 66.966 17.03 66.966 16.3542V10.9025C66.966 9.91621 66.7571 9.15826 66.3395 8.6286C65.9219 8.09895 65.3227 7.83412 64.5419 7.83412C63.979 7.83412 63.4797 8.00306 63.0439 8.34095C62.6081 8.67883 62.2903 9.07607 62.0906 9.53267V16.3542C62.0906 17.03 62.2041 17.4409 62.4311 17.5871C62.658 17.7332 63.0893 17.8062 63.7248 17.8062ZM82.0352 18.6555H81.8445L77.4049 8.71079C77.1326 8.10808 76.9011 7.71997 76.7104 7.54646C76.5197 7.37296 76.1248 7.2862 75.5256 7.2862V6.71089H81.2725V7.2862C80.7823 7.2862 80.3964 7.31817 80.115 7.38209C79.8335 7.44601 79.6928 7.62409 79.6928 7.91631C79.6928 8.02589 79.711 8.14461 79.7473 8.27246C79.7836 8.4003 79.8381 8.55555 79.9107 8.73819L82.6344 15.3132L85.1946 8.73819C85.2672 8.55555 85.3217 8.4003 85.358 8.27246C85.3943 8.14461 85.4125 8.02589 85.4125 7.91631C85.4125 7.64235 85.2809 7.46884 85.0176 7.39579C84.7543 7.32273 84.3503 7.2862 83.8055 7.2862V6.71089H88.0544V7.2862C87.4371 7.2862 87.024 7.36383 86.8152 7.51907C86.6064 7.67431 86.3658 8.07155 86.0934 8.71079L82.0352 18.6555ZM92.988 7.14923C92.2435 7.14923 91.6034 7.43688 91.0678 8.0122C90.5321 8.58751 90.1917 9.41395 90.0464 10.4915H95.3031C95.2667 9.52353 95.0625 8.72449 94.6902 8.09438C94.318 7.46428 93.7506 7.14923 92.988 7.14923ZM97.7271 16.2173C97.2187 17.0209 96.5832 17.6281 95.8206 18.0391C95.0579 18.45 94.2681 18.6555 93.451 18.6555C91.8894 18.6555 90.5412 18.0939 89.4063 16.9706C88.2715 15.8474 87.704 14.4091 87.704 12.6558C87.704 10.8659 88.2579 9.38199 89.3655 8.20397C90.4731 7.02594 91.6897 6.43693 93.0152 6.43693C94.5768 6.43693 95.7207 6.93919 96.447 7.94371C97.1733 8.94822 97.5365 10.0167 97.5365 11.149H89.9647V11.6421C89.9647 13.2311 90.3914 14.5689 91.2448 15.6556C92.0982 16.7423 93.2058 17.2857 94.5677 17.2857C95.1669 17.2857 95.7025 17.1715 96.1746 16.9432C96.6467 16.7149 97.0644 16.3725 97.4275 15.9159L97.7271 16.2173ZM104.159 17.8062V18.3815H98.5207V17.8062C99.1562 17.8062 99.5829 17.7332 99.8008 17.5871C100.019 17.4409 100.128 17.03 100.128 16.3542V8.71079C100.128 8.03502 100.019 7.62865 99.8008 7.49167C99.5829 7.35469 99.1562 7.2862 98.5207 7.2862V6.71089H102.524V8.98475C102.779 8.45509 103.233 7.89805 103.886 7.3136C104.54 6.72916 105.33 6.43693 106.256 6.43693C107.454 6.43693 108.344 6.82961 108.925 7.61495C109.506 8.4003 109.797 9.34089 109.797 10.4367V16.3542C109.797 17.03 109.906 17.4409 110.123 17.5871C110.341 17.7332 110.768 17.8062 111.404 17.8062V18.3815H105.793V17.8062C106.428 17.8062 106.855 17.7332 107.073 17.5871C107.291 17.4409 107.4 17.03 107.4 16.3542V10.9025C107.4 9.91621 107.191 9.15826 106.773 8.6286C106.356 8.09895 105.757 7.83412 104.976 7.83412C104.413 7.83412 103.914 8.00306 103.478 8.34095C103.042 8.67883 102.724 9.07607 102.524 9.53267V16.3542C102.524 17.03 102.638 17.4409 102.865 17.5871C103.092 17.7332 103.523 17.8062 104.159 17.8062ZM111.761 7.20402C112.488 6.71089 113.169 6.14928 113.804 5.51917C114.44 4.88907 114.975 4.26353 115.411 3.64255H115.629V6.76568C116.065 6.76568 116.709 6.75655 117.563 6.73829C118.416 6.72002 119.043 6.69263 119.442 6.6561L119.279 7.56016H115.629V15.0666C115.629 15.7424 115.779 16.2994 116.078 16.7378C116.378 17.1761 116.845 17.3953 117.481 17.3953C117.899 17.3953 118.262 17.2994 118.57 17.1076C118.879 16.9159 119.179 16.6191 119.469 16.2173L119.851 16.5186C119.433 17.1944 118.934 17.7195 118.353 18.0939C117.772 18.4683 117.091 18.6555 116.31 18.6555C115.456 18.6555 114.73 18.3678 114.131 17.7925C113.532 17.2172 113.232 16.4729 113.232 15.5598L113.314 7.56016H111.761V7.20402ZM128.298 18.3815V16.3268C128.043 16.8565 127.603 17.377 126.977 17.8884C126.35 18.3998 125.592 18.6555 124.702 18.6555C123.577 18.6555 122.719 18.2765 122.129 17.5186C121.538 16.7606 121.243 15.8337 121.243 14.7379V8.71079C121.243 8.03502 121.134 7.62865 120.916 7.49167C120.699 7.35469 120.272 7.2862 119.636 7.2862V6.71089H123.64V14.3543C123.64 15.2858 123.831 16.0209 124.212 16.5597C124.593 17.0985 125.174 17.3679 125.955 17.3679C126.464 17.3679 126.922 17.2172 127.331 16.9158C127.739 16.6145 128.062 16.2264 128.298 15.7515V8.71079C128.298 8.03502 128.184 7.62865 127.957 7.49167C127.73 7.35469 127.299 7.2862 126.663 7.2862V6.71089H130.694V16.3542C130.694 17.03 130.803 17.4409 131.021 17.5871C131.239 17.7332 131.666 17.8062 132.301 17.8062V18.3815H128.298ZM139.087 17.8062V18.3815H132.932V17.8062C133.567 17.8062 133.994 17.7332 134.212 17.5871C134.43 17.4409 134.538 17.03 134.538 16.3542V8.71079C134.538 8.03502 134.43 7.62865 134.212 7.49167C133.994 7.35469 133.567 7.2862 132.932 7.2862V6.71089H136.935V9.14912C137.498 8.34551 138.016 7.69258 138.488 7.19032C138.96 6.68806 139.45 6.43693 139.959 6.43693C140.358 6.43693 140.753 6.58304 141.143 6.87527C141.534 7.16749 141.82 7.45971 142.001 7.75193L140.885 9.77923H140.83C140.594 9.35916 140.299 8.99388 139.945 8.68339C139.591 8.37291 139.223 8.21766 138.842 8.21766C138.533 8.21766 138.234 8.34095 137.943 8.58751C137.653 8.83407 137.317 9.20392 136.935 9.69704V16.3542C136.935 17.03 137.081 17.4409 137.371 17.5871C137.662 17.7332 138.234 17.8062 139.087 17.8062ZM147.534 7.14923C146.79 7.14923 146.149 7.43688 145.614 8.0122C145.078 8.58751 144.738 9.41395 144.592 10.4915H149.849C149.813 9.52353 149.609 8.72449 149.236 8.09438C148.864 7.46428 148.297 7.14923 147.534 7.14923ZM152.273 16.2173C151.765 17.0209 151.129 17.6281 150.367 18.0391C149.604 18.45 148.814 18.6555 147.997 18.6555C146.435 18.6555 145.087 18.0939 143.952 16.9706C142.818 15.8474 142.25 14.4091 142.25 12.6558C142.25 10.8659 142.804 9.38199 143.912 8.20397C145.019 7.02594 146.236 6.43693 147.561 6.43693C149.123 6.43693 150.267 6.93919 150.993 7.94371C151.719 8.94822 152.083 10.0167 152.083 11.149H144.511V11.6421C144.511 13.2311 144.937 14.5689 145.791 15.6556C146.644 16.7423 147.752 17.2857 149.114 17.2857C149.713 17.2857 150.249 17.1715 150.721 16.9432C151.193 16.7149 151.61 16.3725 151.974 15.9159L152.273 16.2173ZM157.343 17.9158C158.015 17.9158 158.546 17.7514 158.936 17.4227C159.327 17.0939 159.522 16.6099 159.522 15.9707C159.522 15.4958 159.372 15.1214 159.072 14.8475C158.773 14.5735 158.369 14.3087 157.86 14.053L155.845 13.0119C155.227 12.6832 154.692 12.2723 154.238 11.7791C153.784 11.286 153.557 10.6468 153.557 9.86142C153.557 8.8569 153.92 8.03503 154.646 7.39579C155.373 6.75655 156.253 6.43693 157.288 6.43693C157.906 6.43693 158.428 6.54195 158.855 6.75199C159.281 6.96202 159.604 7.06704 159.821 7.06704C159.949 7.06704 160.048 7.01681 160.121 6.91636C160.194 6.81591 160.266 6.69263 160.339 6.54652H160.666L160.884 10.0806L160.421 10.108C160.239 9.12173 159.853 8.37747 159.263 7.87522C158.673 7.37296 158.042 7.12183 157.37 7.12183C156.753 7.12183 156.272 7.29534 155.927 7.64235C155.582 7.98937 155.409 8.4277 155.409 8.95735C155.409 9.45048 155.568 9.83859 155.886 10.1217C156.203 10.4048 156.607 10.6742 157.098 10.9299L158.923 11.8613C159.594 12.2083 160.171 12.6284 160.652 13.1215C161.133 13.6146 161.374 14.2813 161.374 15.1214C161.374 16.1259 160.988 16.9661 160.216 17.6418C159.445 18.3176 158.505 18.6555 157.397 18.6555C156.544 18.6555 155.877 18.5002 155.395 18.1898C154.914 17.8793 154.583 17.724 154.401 17.724C154.274 17.724 154.156 17.8016 154.047 17.9569C153.938 18.1121 153.866 18.2811 153.829 18.4637H153.448L153.257 14.4639L153.775 14.4365C153.902 15.4045 154.297 16.2264 154.96 16.9022C155.622 17.5779 156.417 17.9158 157.343 17.9158Z" fill="black"/>
</svg>
