<svg width="226" height="20" viewBox="0 0 226 20" fill="none" xmlns="http://www.w3.org/2000/svg">
<rect x="131" width="95" height="20" rx="4" fill="black"/>
<path d="M139.508 16L135.414 4.54688H137.922L140.82 13.0234L143.625 4.54688H146.078L141.977 16H139.508Z" fill="#F7F2EA"/>
<path d="M147.258 16V4.54688H155.75V6.48438H149.57V9.02344H155.32V10.9531H149.57V14.0703H155.969V16H147.258Z" fill="#F7F2EA"/>
<path d="M157.953 16V4.54688H160.203L164.891 12.1953V4.54688H167.039V16H164.719L160.102 8.53125V16H157.953Z" fill="#F7F2EA"/>
<path d="M172.07 16V6.48438H168.672V4.54688H177.773V6.48438H174.383V16H172.07Z" fill="#F7F2EA"/>
<path d="M179.258 4.54688H181.57V10.75C181.57 11.7344 181.599 12.3724 181.656 12.6641C181.755 13.1328 181.99 13.5104 182.359 13.7969C182.734 14.0781 183.245 14.2188 183.891 14.2188C184.547 14.2188 185.042 14.0859 185.375 13.8203C185.708 13.5495 185.909 13.2188 185.977 12.8281C186.044 12.4375 186.078 11.7891 186.078 10.8828V4.54688H188.391V10.5625C188.391 11.9375 188.328 12.9089 188.203 13.4766C188.078 14.0443 187.846 14.5234 187.508 14.9141C187.174 15.3047 186.727 15.6172 186.164 15.8516C185.602 16.0807 184.867 16.1953 183.961 16.1953C182.867 16.1953 182.036 16.0703 181.469 15.8203C180.906 15.5651 180.461 15.237 180.133 14.8359C179.805 14.4297 179.589 14.0052 179.484 13.5625C179.333 12.9062 179.258 11.9375 179.258 10.6562V4.54688Z" fill="#F7F2EA"/>
<path d="M190.844 16V4.54688H195.711C196.935 4.54688 197.823 4.65104 198.375 4.85938C198.932 5.0625 199.378 5.42708 199.711 5.95312C200.044 6.47917 200.211 7.08073 200.211 7.75781C200.211 8.61719 199.958 9.32812 199.453 9.89062C198.948 10.4479 198.193 10.7995 197.188 10.9453C197.688 11.237 198.099 11.5573 198.422 11.9062C198.75 12.2552 199.19 12.875 199.742 13.7656L201.141 16H198.375L196.703 13.5078C196.109 12.6172 195.703 12.0573 195.484 11.8281C195.266 11.5938 195.034 11.4349 194.789 11.3516C194.544 11.263 194.156 11.2188 193.625 11.2188H193.156V16H190.844ZM193.156 9.39062H194.867C195.977 9.39062 196.669 9.34375 196.945 9.25C197.221 9.15625 197.438 8.99479 197.594 8.76562C197.75 8.53646 197.828 8.25 197.828 7.90625C197.828 7.52083 197.724 7.21094 197.516 6.97656C197.312 6.73698 197.023 6.58594 196.648 6.52344C196.461 6.4974 195.898 6.48438 194.961 6.48438H193.156V9.39062Z" fill="#F7F2EA"/>
<path d="M202.398 16V4.54688H210.891V6.48438H204.711V9.02344H210.461V10.9531H204.711V14.0703H211.109V16H202.398Z" fill="#F7F2EA"/>
<path d="M212.484 12.2734L214.734 12.0547C214.87 12.8099 215.143 13.3646 215.555 13.7188C215.971 14.0729 216.531 14.25 217.234 14.25C217.979 14.25 218.539 14.0938 218.914 13.7812C219.294 13.4635 219.484 13.0938 219.484 12.6719C219.484 12.401 219.404 12.1719 219.242 11.9844C219.086 11.7917 218.81 11.625 218.414 11.4844C218.143 11.3906 217.526 11.224 216.562 10.9844C215.323 10.6771 214.453 10.2995 213.953 9.85156C213.25 9.22135 212.898 8.45312 212.898 7.54688C212.898 6.96354 213.062 6.41927 213.391 5.91406C213.724 5.40365 214.201 5.01562 214.82 4.75C215.445 4.48438 216.198 4.35156 217.078 4.35156C218.516 4.35156 219.596 4.66667 220.32 5.29688C221.049 5.92708 221.432 6.76823 221.469 7.82031L219.156 7.92188C219.057 7.33333 218.844 6.91146 218.516 6.65625C218.193 6.39583 217.706 6.26562 217.055 6.26562C216.383 6.26562 215.857 6.40365 215.477 6.67969C215.232 6.85677 215.109 7.09375 215.109 7.39062C215.109 7.66146 215.224 7.89323 215.453 8.08594C215.745 8.33073 216.453 8.58594 217.578 8.85156C218.703 9.11719 219.534 9.39323 220.07 9.67969C220.612 9.96094 221.034 10.349 221.336 10.8438C221.643 11.3333 221.797 11.9401 221.797 12.6641C221.797 13.3203 221.615 13.9349 221.25 14.5078C220.885 15.0807 220.37 15.5078 219.703 15.7891C219.036 16.0651 218.206 16.2031 217.211 16.2031C215.763 16.2031 214.651 15.8698 213.875 15.2031C213.099 14.5312 212.635 13.5547 212.484 12.2734Z" fill="#F7F2EA"/>
<path d="M11.5775 0.057502C13.7244 -0.0958429 15.8712 0.345024 17.788 1.30343C20.6632 2.7027 22.8867 5.17539 23.9985 8.18478C24.4777 9.50738 24.7269 10.9067 24.7269 12.3059V17.4813C24.746 17.6922 24.746 17.9222 24.7269 18.133C24.6694 18.4014 24.5352 18.6314 24.3627 18.8423C24.1902 19.0531 23.9793 19.2256 23.7301 19.3406C22.9059 19.7048 21.9283 19.3981 21.4683 18.6122C21.3149 18.3631 21.2383 18.0755 21.2383 17.788V12.9576C21.2958 12.4976 21.2191 12.0376 21.0083 11.6159C20.529 10.7725 19.4365 10.485 18.5931 10.9642C18.0564 11.2708 17.7305 11.8267 17.7113 12.4401V17.328C17.7305 17.6347 17.7113 17.9414 17.6347 18.2289C17.4622 18.8039 17.0021 19.264 16.4079 19.4365C15.622 19.6473 14.7978 19.3023 14.4144 18.5931C14.1844 18.1714 14.1077 17.673 14.1844 17.1938V12.3251C14.0886 11.3092 13.2068 10.5425 12.1718 10.6383C12.0376 10.6575 11.9034 10.6766 11.7884 10.715C11.52 10.7916 11.2708 10.945 11.06 11.1367C10.715 11.4625 10.5233 11.9226 10.5233 12.4018V17.1363C10.5616 17.5388 10.5233 17.9222 10.4083 18.3055C10.1783 18.9764 9.56489 19.4365 8.85567 19.4556C8.10811 19.4748 7.41806 19.0148 7.16887 18.3055C7.07303 17.9605 7.0347 17.5772 7.05387 17.213V12.3251C7.05387 11.9417 6.90052 11.5775 6.6705 11.2708C6.05712 10.5041 4.94537 10.3891 4.17865 11.0025C4.00614 11.1367 3.87196 11.3092 3.75695 11.5009C3.6036 11.7692 3.52693 12.0759 3.52693 12.3826V17.6922C3.52693 18.6506 2.74104 19.4365 1.78263 19.4173C1.39927 19.4173 1.01591 19.2831 0.728389 19.0531C0.498371 18.8998 0.30669 18.6889 0.191681 18.4397C0.0575043 18.1905 0 17.9222 0 17.6538V12.3443C0 8.58731 1.72513 5.04121 4.65785 2.7027C6.613 1.09258 9.04735 0.134177 11.5775 0V0.057502Z" fill="black"/>
<path d="M59.905 6.26738H57.2214C57.0873 4.44641 57.9307 2.68295 59.4449 1.6287C61.1126 0.65113 63.0677 0.248598 65.0037 0.497784C66.0771 0.574456 67.1314 0.823641 68.1089 1.26451C69.7382 1.91622 70.7541 3.52635 70.6583 5.27065V15.2381C70.6583 16.4457 70.9075 16.6757 72.1342 16.5607H72.5176C72.5368 16.6182 72.5368 16.6757 72.5176 16.7332V18.7458C71.5784 19.11 70.5433 19.1675 69.5657 18.9183C68.8948 18.7075 68.3581 18.1899 68.1473 17.4999C68.0131 17.1549 67.9364 16.7907 67.8406 16.3881L67.5531 16.7332C65.6171 18.8225 62.6844 19.6659 59.9433 18.9183C57.8348 18.3433 56.3589 16.4648 56.3205 14.2797C56.3014 13.5704 56.378 12.8804 56.5314 12.1903C56.9531 10.7527 58.0265 9.60264 59.4449 9.10427C60.4417 8.7209 61.4768 8.47172 62.5502 8.37588C63.8153 8.22253 65.0612 8.06919 66.3263 7.87751C66.6905 7.83917 67.0355 7.68582 67.2847 7.41747C67.5531 7.14912 67.7064 6.80409 67.7256 6.4399C68.0131 5.32815 67.5531 4.17806 66.5947 3.56468C66.288 3.373 65.9429 3.23883 65.5787 3.18132C64.582 2.93214 63.5661 2.8938 62.5502 3.06631C61.1892 3.21966 60.1158 4.29307 59.9433 5.65401C59.9817 5.86486 59.9817 6.0757 59.9433 6.28655L59.905 6.26738ZM67.8214 9.5643C66.6713 10.1202 65.4254 10.4652 64.1603 10.5802C63.1061 10.7144 62.071 10.9061 61.0551 11.1936C59.8858 11.6153 59.1383 12.7845 59.2341 14.0305C59.3299 15.2764 60.25 16.2923 61.4768 16.5223C63.3936 16.8865 65.3679 16.2348 66.6713 14.7972C67.093 14.3563 67.3805 13.7813 67.4956 13.1679C67.7447 11.9986 67.7256 10.8294 67.8022 9.58347V9.5643H67.8214ZM106.158 13.0337C106.138 13.3021 106.081 13.5513 105.985 13.8005C105.218 16.7715 102.669 18.9375 99.6021 19.1675C95.5768 19.7809 91.8007 17.0782 91.1107 13.0721C90.459 10.4077 90.7081 7.58999 91.8199 5.07896C92.7975 2.70212 94.9443 0.996154 97.4745 0.593624C101.404 -0.192268 105.238 2.35709 106.023 6.28655C106.043 6.42073 106.081 6.55491 106.1 6.68908C106.292 7.99252 106.349 9.31511 106.483 10.676H93.9092C93.8325 12.4779 94.4651 14.2605 95.6727 15.6214C96.2477 16.1581 96.9761 16.484 97.7428 16.599C100.139 17.1357 102.535 15.7173 103.225 13.3788C103.225 13.3212 103.244 13.2637 103.282 13.2254C103.302 13.1679 103.34 13.1296 103.397 13.1104C103.436 13.0721 103.493 13.0529 103.551 13.0529C103.608 13.0337 103.666 13.0337 103.723 13.0529L106.158 13.0337ZM94.0051 8.28003H103.397C103.359 7.20662 103.091 6.15238 102.592 5.19397C102.132 4.29307 101.346 3.62218 100.388 3.29633C97.8578 2.43376 95.0976 3.7947 94.2351 6.34406C94.0242 6.97661 93.9476 7.62832 94.0051 8.28003ZM112.905 18.5733H110.068V0.861979H112.771V3.41134L113.211 2.87463C114.956 0.804475 117.774 -0.0389217 120.38 0.766139C122.182 1.18784 123.524 2.68295 123.754 4.50392C123.907 5.28981 123.984 6.0757 124.003 6.88076V18.5925H121.051V7.47498C121.051 6.66992 120.936 5.88402 120.687 5.1173C120.342 3.92887 119.249 3.12382 118.023 3.14298C115.838 2.9513 113.825 4.33141 113.192 6.42073C113.001 7.18746 112.905 7.99252 112.924 8.79758V18.6117L112.905 18.5733ZM75.297 0.861979H78.0572V8.37588C78.2105 8.20336 78.3255 8.12669 78.4214 8.01168C80.664 5.71151 82.9259 3.373 85.1877 1.13033C85.3411 0.938651 85.5902 0.823642 85.8394 0.84281H89.1364L88.7913 1.207C86.7978 3.18132 84.8427 5.19397 82.83 7.14912C82.7725 7.18745 82.7342 7.22579 82.6959 7.26413C82.6575 7.32163 82.6384 7.37913 82.6384 7.43664C82.6384 7.49414 82.6384 7.55165 82.6575 7.60915C82.6767 7.66666 82.6959 7.72416 82.7342 7.7625L89.213 18.1133L89.4622 18.5541C89.3472 18.5733 89.213 18.5733 89.098 18.5541H86.1461C86.0311 18.5541 85.9353 18.535 85.8394 18.4775C85.7436 18.42 85.6669 18.3433 85.6094 18.2475L80.6449 9.90932C80.5682 9.77515 80.4915 9.64097 80.3957 9.52596L78.1339 11.7686C78.038 11.8836 77.9997 12.0562 77.9997 12.2095V18.535H76.4471C76.0829 18.535 75.5653 18.65 75.3545 18.4391C75.1628 18.2283 75.2586 17.7299 75.2586 17.3657V1.32201C75.3161 1.16867 75.3161 1.01532 75.297 0.861979ZM43.5546 0.861979L36.9607 7.41747C39.3184 11.1744 41.6186 14.8547 43.9379 18.6117H40.641C40.526 18.6117 40.411 18.5925 40.3152 18.535C40.2193 18.4775 40.1235 18.4008 40.066 18.2858C38.4175 15.5256 36.7499 12.7462 35.1014 9.94766C35.1014 9.83265 34.9481 9.73681 34.8523 9.5643C34.4689 10.0052 34.0664 10.4269 33.6063 10.8102C32.7438 11.4428 32.3029 12.4779 32.4562 13.5321C32.5713 15.0847 32.4562 16.6182 32.4562 18.0749V18.5733H29.7344V0.881146H32.4754V8.26087C32.5329 8.29921 32.5904 8.33754 32.6288 8.37588C32.7246 8.26087 32.7438 8.10752 32.8396 8.01168C35.0631 5.71151 37.3249 3.373 39.5484 1.13033C39.6251 1.03449 39.7401 0.957819 39.8551 0.900315C39.9701 0.842811 40.1043 0.823642 40.2385 0.84281H43.037L43.5546 0.861979ZM49.0175 3.81387C50.3976 1.78205 51.8735 0.0952533 54.5954 0.593624V3.67969C53.8862 3.67969 53.177 3.7372 52.4678 3.85221C50.7235 4.29307 49.42 5.78819 49.2092 7.58999C49.2092 7.95418 49.1325 8.33754 49.1325 8.70174V18.6692H46.334V0.881146H49.0175V3.81387Z" fill="black"/>
</svg>
