<svg width="169" height="136" viewBox="0 0 169 136" fill="none" xmlns="http://www.w3.org/2000/svg">
<path d="M33.0819 31.8021L34.7615 86.515C34.8031 87.8709 35.5381 89.1104 36.7078 89.7973L82.1448 116.48C83.3814 117.206 84.9145 117.205 86.1495 116.476L132.673 89.0191C133.883 88.3052 134.622 87.0021 134.614 85.5974L134.309 32.4398C134.301 31.0294 133.541 29.7305 132.315 29.0326L85.7378 2.51143C84.5447 1.83208 83.0843 1.82156 81.8815 2.48367L35.1236 28.2234C33.825 28.9382 33.0364 30.3205 33.0819 31.8021Z" fill="white" stroke="black" stroke-width="0.394687"/>
<path d="M83.2251 74.2275L35.9019 101.209C34.1551 102.205 34.1257 104.713 35.8487 105.75L83.1713 134.223C84.0134 134.73 85.0677 134.725 85.9052 134.21L132.252 105.737C133.947 104.695 133.918 102.222 132.198 101.221L85.8522 74.2393C85.0413 73.7672 84.0403 73.7627 83.2251 74.2275Z" fill="#D9D9D9" fill-opacity="0.4"/>
<path d="M37.7038 86.9843L35.8928 32.5989C35.8531 31.4085 36.4868 30.297 37.5314 29.7247L83.6587 4.45312L84.1 59.1245L37.7038 86.9843Z" fill="white" stroke="black" stroke-width="0.0657812"/>
<path d="M47.1926 58.7387L46.7151 39.3487C46.7029 38.8563 46.9669 38.3984 47.399 38.162L75.9183 22.5648C76.795 22.0853 77.8652 22.7198 77.8652 23.719V42.6392C77.8652 43.1108 77.6128 43.5463 77.2036 43.7807L49.1619 59.8478C48.2973 60.3433 47.2172 59.7349 47.1926 58.7387Z" fill="white" fill-opacity="0.7" stroke="black" stroke-width="0.263125"/>
<path d="M50.2419 54.0404L49.8592 40.2639C49.8497 39.921 50.0315 39.6013 50.331 39.4341L60.3351 33.8505C60.9489 33.5078 61.7048 33.9516 61.7048 34.6546V48.3907C61.7048 48.718 61.5312 49.0206 61.2487 49.1858L51.6273 54.8099C51.0231 55.163 50.2614 54.7399 50.2419 54.0404Z" fill="#DFE6FF" fill-opacity="0.7" stroke="black" stroke-width="0.0657812"/>
<path d="M64.1875 46.2667V32.3024C64.1875 31.9691 64.3675 31.6619 64.6582 31.499L74.2361 26.1317C74.85 25.7876 75.6073 26.2313 75.6073 26.935V40.6681C75.6073 40.9953 75.4336 41.298 75.1511 41.4631L65.5732 47.0618C64.9592 47.4207 64.1875 46.9779 64.1875 46.2667Z" fill="#E9EEFF" stroke="black" stroke-width="0.0657812"/>
<path d="M59.8263 34.1328V48.0351L50.1719 53.6622" stroke="black" stroke-width="0.0657812"/>
<path d="M73.7247 26.4102V40.3125L64.0703 45.9396" stroke="black" stroke-width="0.0657812"/>
<path d="M83.6562 4.45312L130.362 30.7943C131.602 31.4939 132.369 32.8078 132.369 34.2321V86.3223L83.6562 59.3452V4.45312Z" fill="white" stroke="black" stroke-width="0.0657812"/>
<path d="M132.372 86.2647L86.2169 113.334C84.9786 114.06 83.4436 114.057 82.2086 113.325L37.6484 86.9267L83.162 59.4531L132.372 86.2647Z" fill="white" stroke="black" stroke-width="0.0657812"/>
<path d="M98.4227 67.4816L89.9297 62.5547L91.4051 63.4412L108.293 73.3062L124.726 82.8995L127.626 84.5433L98.4227 67.4816Z" fill="black"/>
<path d="M52.9227 78.8745L44.0703 84.3516L45.6359 83.414L63.3 72.5544L80.4831 61.9841L83.4709 60.0964L52.9227 78.8745Z" fill="black"/>
<path d="M51.4539 94.0558L42.9609 89.1289L44.4364 90.0154L61.3242 99.8804L77.7577 109.474L80.6575 111.118L51.4539 94.0558Z" fill="black"/>
<path d="M96.9679 105.838L87.9844 111.098L89.5724 110.199L107.497 99.7738L124.933 89.6265L127.966 87.8124L96.9679 105.838Z" fill="black"/>
<path d="M80.1369 66.4258L77.875 67.7498L77.9853 60.4125L80.1369 59.6953V66.4258Z" fill="#FAF4F4" stroke="black" stroke-width="0.0657812"/>
<path d="M78.091 67.3381V61.4603L75.7188 60.1914V66.3186C75.7188 66.6202 75.8907 66.8955 76.1617 67.0279L77.5231 67.6927C77.7853 67.8208 78.091 67.6299 78.091 67.3381Z" fill="#FAF4F4" stroke="black" stroke-width="0.0657812"/>
<path d="M84.0469 59.1208L84.1572 69.713L93.8116 63.6997V53.3281L84.0469 59.1208Z" fill="white" stroke="black" stroke-width="0.0657812"/>
<path d="M84.2454 48.445L75.005 53.6678C74.6375 53.8756 74.6519 54.4099 75.0302 54.5974L83.9038 58.9966C84.0612 59.0746 84.2472 59.0689 84.3996 58.9814L93.6092 53.6906C93.9749 53.4805 93.9573 52.9472 93.5786 52.7617L84.7358 48.4306C84.5799 48.3542 84.3964 48.3596 84.2454 48.445Z" fill="#FAF4F4" stroke="black" stroke-width="0.0657812"/>
<path d="M74.7188 58.6248V54.1562L84.1525 59.1214V63.2038L74.7188 58.6248Z" fill="#FAF4F4" stroke="black" stroke-width="0.0657812"/>
<path d="M77.8672 58.5682V57.4648L80.2946 58.5682V59.6716L77.8672 58.5682Z" fill="#FAF4F4" stroke="black" stroke-width="0.0657812"/>
<path d="M74.7188 62.7069V58.2383L84.1525 63.2034V67.2858L74.7188 62.7069Z" fill="#FAF4F4" stroke="black" stroke-width="0.0657812"/>
<path d="M77.8672 62.6502V61.5469L80.2946 62.6502V63.7536L77.8672 62.6502Z" fill="#FAF4F4" stroke="black" stroke-width="0.0657812"/>
<path d="M89.7853 100.5L87.5234 101.824L87.6338 94.4867L89.7853 93.7695V100.5Z" fill="white" stroke="black" stroke-width="0.0657812"/>
<path d="M87.7394 101.412V95.5345L85.3672 94.2656V100.393C85.3672 100.694 85.5391 100.97 85.8102 101.102L87.1715 101.767C87.4337 101.895 87.7394 101.704 87.7394 101.412Z" fill="#FAF4F4" stroke="black" stroke-width="0.0657812"/>
<path d="M68.0431 88.3633L65.7812 89.6873L65.8916 82.35L68.0431 81.6328V88.3633Z" fill="white" stroke="black" stroke-width="0.0657812"/>
<path d="M65.9972 89.2756V83.3978L63.625 82.1289V88.2561C63.625 88.5577 63.7969 88.833 64.068 88.9654L65.4293 89.6302C65.6915 89.7583 65.9972 89.5674 65.9972 89.2756Z" fill="#FAF4F4" stroke="black" stroke-width="0.0657812"/>
<path d="M122.273 82.3517L120.618 83.3447L96.2891 50.7278L98.2683 49.5357C98.6739 49.2915 99.1793 49.284 99.592 49.516L120.261 61.139C121.504 61.838 122.273 63.1532 122.273 64.5792V82.3517Z" fill="white" stroke="black" stroke-width="0.0657812"/>
<path d="M120.676 65.9748V83.3999L96.6776 70.1597L96.0753 51.4362C96.049 50.6194 96.9232 50.0856 97.6378 50.4821L118.305 61.9484C119.768 62.7601 120.676 64.3016 120.676 65.9748Z" fill="#FAF4F4" stroke="black" stroke-width="0.0657812"/>
<path d="M119.534 77.039L87.7885 95.5345L63.625 82.7355V79.6714C63.625 79.4849 63.7238 79.3123 63.8846 79.2177L96.2844 60.1719L120.227 73.9087L120.187 75.9285C120.178 76.3872 119.93 76.808 119.534 77.039Z" fill="white" stroke="black" stroke-width="0.263125"/>
<path d="M84.8972 91.2068L64.0634 79.9258C63.7029 79.7306 63.6942 79.2163 64.0479 79.009L96.1565 60.1941C96.2377 60.1465 96.3382 60.146 96.4199 60.1926L120.046 73.6779C120.224 73.7795 120.223 74.0365 120.044 74.1363L89.4578 91.1792C88.0424 91.9679 86.322 91.9783 84.8972 91.2068Z" fill="white" stroke="black" stroke-width="0.0657812"/>
<path d="M77.9751 70.7773L66.7266 77.4212L91.4603 90.117L91.5043 95.2734C91.5139 96.3948 92.7402 97.0796 93.7 96.4996L102.794 91.0035C103.237 90.7361 103.503 90.253 103.493 89.7361L103.367 83.4073L77.9751 70.7773Z" fill="#EDEFD0" stroke="black" stroke-width="0.0657812"/>
<path d="M91.3359 90.1159L103.44 83.4062" stroke="black" stroke-width="0.0657812"/>
<path d="M93.6951 64.4697L93.6641 63.4453L107.435 65.7624L107.395 67.2485C107.386 67.601 107.176 67.9172 106.854 68.0627L103.605 69.535C103.249 69.6963 102.839 69.6909 102.487 69.5203L94.4358 65.6135C93.9953 65.3998 93.7099 64.9591 93.6951 64.4697Z" fill="white" stroke="black" stroke-width="0.0657812"/>
<path d="M103.923 67.8142L107.05 66.3836C107.549 66.1551 107.565 65.4511 107.077 65.2003L98.2833 60.6861C98.0857 60.5846 97.8502 60.5897 97.6572 60.6997L93.9458 62.8148C93.4811 63.0797 93.5099 63.759 93.9954 63.9834L102.273 67.8109C102.796 68.0526 103.399 68.0539 103.923 67.8142Z" fill="white" stroke="black" stroke-width="0.0657812"/>
<path d="M104.323 70.3367L104.396 69.0391L118.125 71.4452L118.083 73.2007C118.075 73.55 117.87 73.8645 117.553 74.0128L114.301 75.5371C113.941 75.7056 113.525 75.7028 113.168 75.5294L105.062 71.5946C104.584 71.3628 104.293 70.8667 104.323 70.3367Z" fill="white" stroke="black" stroke-width="0.0657812"/>
<path d="M114.646 73.4387L117.826 71.8228C118.305 71.5791 118.306 70.8944 117.826 70.6502L109.198 66.2544C109.001 66.1541 108.767 66.1593 108.575 66.2683L104.645 68.4962C104.18 68.7604 104.208 69.4408 104.694 69.6655L112.924 73.4707C113.472 73.7244 114.107 73.7126 114.646 73.4387Z" fill="white" stroke="black" stroke-width="0.0657812"/>
</svg>
