<svg width="168" height="136" viewBox="0 0 168 136" fill="none" xmlns="http://www.w3.org/2000/svg">
<path d="M83.6504 58.5725C84.3511 58.075 85.5264 58.0621 86.2491 58.5439L141.947 95.6761C142.656 96.1486 142.658 96.9167 141.95 97.3917L86.4024 134.7C85.6964 135.174 84.5508 135.177 83.8416 134.706L29.5647 98.6887C28.867 98.2258 28.8488 97.4745 29.5238 96.9954L83.6504 58.5725Z" fill="black" fill-opacity="0.05"/>
<path d="M79.8949 3.4231C81.0695 2.62957 82.978 2.61472 84.1765 3.38977L135.636 36.6665C137.2 37.678 138.083 39.0717 138.082 40.5284L138.047 92.4777C138.047 92.5355 138.012 92.591 137.951 92.632L86.4138 127.247C85.2274 128.044 83.3022 128.048 82.1103 127.258L31.5069 93.677L30.9336 38.7507C30.9186 37.32 31.7569 35.9435 33.2626 34.9263L79.8949 3.4231Z" fill="white" stroke="black" stroke-width="0.415935"/>
<path d="M81.9162 57.0111C83.1445 56.1392 85.2046 56.1166 86.4714 56.9611L133.512 88.3215C133.691 88.4408 133.691 88.6347 133.513 88.7546L86.562 120.289C85.3245 121.12 83.3165 121.125 82.0733 120.3L35.9124 89.6679L81.9162 57.0111Z" fill="white" stroke="black" stroke-width="0.192801"/>
<path d="M35.665 41.4943C35.6534 40.0011 36.6614 38.1041 37.9103 37.2687L82.063 7.73759C82.4118 7.50428 82.6979 7.64629 82.7087 8.05813L83.9615 55.7685C84.0014 57.2865 82.9578 59.2526 81.6722 60.0816L36.2716 89.3573C36.1413 89.4414 36.0365 89.3842 36.0353 89.2284L35.665 41.4943Z" fill="white" stroke="black" stroke-width="0.192801"/>
<path d="M82.2936 7.98865C82.2936 7.5606 82.5823 7.40608 82.9385 7.64352L131.554 40.0541C132.797 40.8823 133.804 42.7642 133.804 44.2573V88.4459C133.804 88.661 133.659 88.7386 133.48 88.6193L84.5431 55.9948C83.3007 55.1666 82.2936 53.2847 82.2936 51.7916V7.98865Z" fill="white" stroke="black" stroke-width="0.192801"/>
<rect x="0.0969966" y="0.051911" width="22.1838" height="19.5428" rx="1.66493" transform="matrix(0.83205 -0.5547 0 1 39.843 48.0016)" fill="white" stroke="black" stroke-width="0.233151"/>
<rect x="0.0969966" y="0.051911" width="19.3817" height="16.8506" rx="1.66493" transform="matrix(0.83205 -0.5547 0 1 41.2458 48.5189)" fill="#EDEDED" stroke="black" stroke-width="0.233151"/>
<path d="M40.6778 50.7331C40.0122 48.9157 43.9685 48.4983 47.982 45.3001C51.9956 42.102 54.5465 37.3341 55.2121 39.1515C55.8777 40.9688 57.5395 43.5338 48.6819 48.7973C44.6684 51.9955 43.7853 53.6945 40.6778 50.7331Z" fill="#F07594" fill-opacity="0.2"/>
<path d="M57.8967 48.5286C57.8967 52.1114 55.4585 56.6413 52.4509 58.6464C49.4432 60.6515 49.3512 58.4331 48.8715 54.5454C48.3268 51.0668 50.7812 50.2002 52.18 48.3355C54.8103 44.8289 57.8967 44.9458 57.8967 48.5286Z" fill="#84DED5" fill-opacity="0.6"/>
<path d="M47.3647 56.1418C47.3647 59.2801 45.2479 63.2354 42.6367 64.9762C40.0255 66.717 40.8932 64.2231 40.8932 61.0848C40.8932 57.9465 40.7947 55.4681 43.4059 53.7273C46.0171 51.9865 47.3647 53.0035 47.3647 56.1418Z" fill="#FF0040" fill-opacity="0.23"/>
<path d="M47.3647 56.1418C47.3647 59.2801 45.2479 63.2354 42.6367 64.9762C40.0255 66.717 40.8932 64.2231 40.8932 61.0848C40.8932 57.9465 40.7947 55.4681 43.4059 53.7273C46.0171 51.9865 47.3647 53.0035 47.3647 56.1418Z" fill="#E1E431" fill-opacity="0.22"/>
<path d="M62.6335 47.3774C62.4562 47.2646 62.3558 47.1082 62.3558 46.9446L62.3556 46.1495C62.3556 45.9849 62.4572 45.8277 62.6363 45.7152L77.4977 36.3762C77.8125 36.1784 78.2944 36.1603 78.641 36.3334L81.6187 37.8204C81.8687 37.9452 82.016 38.1417 82.016 38.3502L82.016 39.0777C82.016 39.2362 81.9218 39.388 81.7542 39.4997L66.9858 49.3459C66.6439 49.5738 66.0927 49.5779 65.7425 49.3551L62.6335 47.3774Z" fill="white" stroke="black" stroke-width="0.121367"/>
<rect x="0.100867" y="0.000173313" width="19.3514" height="5.34596" rx="0.758433" transform="matrix(0.83205 -0.5547 0.830139 0.557556 61.8508 45.9315)" fill="white" stroke="black" stroke-width="0.121367"/>
<path d="M71.3278 33.3016C71.3278 33.0865 71.4729 33.0089 71.6518 33.1282L74.8274 35.2452V42.1776L71.3278 40.1052V33.3016Z" fill="white" stroke="black" stroke-width="0.121367"/>
<path d="M70.2812 34.605C70.1398 34.51 70.1401 34.3565 70.2818 34.262L71.1388 33.6906C71.2805 33.5961 71.51 33.5965 71.6514 33.6915L74.6681 35.7176L73.5545 36.4601C73.4127 36.5545 73.1833 36.5541 73.0419 36.4592L70.2812 34.605Z" fill="white" stroke="black" stroke-width="0.121367"/>
<path d="M69.9748 34.0651C69.9748 33.8948 70.0897 33.8333 70.2314 33.9278L73.9225 36.3885L73.7127 42.9041C73.7062 43.1051 73.5682 43.177 73.3974 43.0684L70.2381 41.061C70.0938 40.9693 69.9748 40.7506 69.9748 40.5772V34.0651Z" fill="white" stroke="black" stroke-width="0.121367"/>
<rect x="0.0504917" y="0.0270223" width="1.50136" height="7.04395" rx="0.164348" transform="matrix(0.83205 -0.5547 0 1 73.527 36.1833)" fill="white" stroke="black" stroke-width="0.121367"/>
<path d="M76.7575 29.701C76.7575 29.486 76.9026 29.4083 77.0815 29.5276L80.2571 31.6446V38.577L76.7575 36.5047V29.701Z" fill="white" stroke="black" stroke-width="0.121367"/>
<path d="M75.7109 31.0044C75.5695 30.9094 75.5697 30.7559 75.7114 30.6614L76.5685 30.09C76.7102 29.9955 76.9397 29.9959 77.0811 30.0909L80.0978 32.117L78.9841 32.8595C78.8424 32.9539 78.6129 32.9535 78.4716 32.8586L75.7109 31.0044Z" fill="white" stroke="black" stroke-width="0.121367"/>
<path d="M75.4045 30.4645C75.4045 30.2942 75.5194 30.2327 75.6611 30.3272L79.3521 32.7879L79.1424 39.3035C79.1359 39.5045 78.9979 39.5764 78.8271 39.4678L75.6677 37.4604C75.5235 37.3687 75.4045 37.1501 75.4045 36.9766V30.4645Z" fill="white" stroke="black" stroke-width="0.121367"/>
<rect x="0.0504917" y="0.0270223" width="1.50136" height="7.04395" rx="0.164348" transform="matrix(0.83205 -0.5547 0 1 78.9567 32.5827)" fill="white" stroke="black" stroke-width="0.121367"/>
<path d="M70.4519 34.2017C70.4519 33.9867 70.5969 33.9091 70.7758 34.0284L73.9514 36.1454V43.0778L70.4519 41.0054V34.2017Z" fill="white" stroke="black" stroke-width="0.121367"/>
<path d="M69.4052 35.5051C69.2638 35.4102 69.2641 35.2566 69.4058 35.1621L70.2629 34.5907C70.4046 34.4963 70.6341 34.4967 70.7754 34.5916L73.7921 36.6178L72.6785 37.3602C72.5368 37.4547 72.3073 37.4543 72.1659 37.3593L69.4052 35.5051Z" fill="white" stroke="black" stroke-width="0.121367"/>
<path d="M69.0988 34.9652C69.0988 34.7949 69.2137 34.7334 69.3554 34.8279L73.0465 37.2886L72.8367 43.8043C72.8303 44.0052 72.6922 44.0771 72.5214 43.9686L69.3621 41.9611C69.2178 41.8694 69.0988 41.6508 69.0988 41.4773V34.9652Z" fill="white" stroke="black" stroke-width="0.121367"/>
<rect x="0.0504917" y="0.0270223" width="1.50136" height="7.04395" rx="0.164348" transform="matrix(0.83205 -0.5547 0 1 72.6511 37.0834)" fill="white" stroke="black" stroke-width="0.121367"/>
<path d="M68.6394 35.5511C68.6394 35.3361 68.7844 35.2584 68.9633 35.3777L72.1389 37.4947V44.4271L68.6394 42.3548V35.5511Z" fill="white" stroke="black" stroke-width="0.121367"/>
<path d="M67.5927 36.8545C67.4513 36.7595 67.4516 36.606 67.5933 36.5115L68.4504 35.9401C68.5921 35.8456 68.8216 35.846 68.9629 35.941L71.9796 37.9671L70.866 38.7096C70.7243 38.804 70.4948 38.8036 70.3534 38.7087L67.5927 36.8545Z" fill="white" stroke="black" stroke-width="0.121367"/>
<path d="M67.2863 36.3146C67.2863 36.1443 67.4012 36.0828 67.5429 36.1773L71.234 38.638L71.0242 45.1536C71.0178 45.3546 70.8797 45.4265 70.7089 45.3179L67.5496 43.3105C67.4053 43.2188 67.2863 43.0002 67.2863 42.8267V36.3146Z" fill="white" stroke="black" stroke-width="0.121367"/>
<rect x="0.0504917" y="0.0270223" width="1.50136" height="7.04395" rx="0.164348" transform="matrix(0.83205 -0.5547 0 1 70.8386 38.4328)" fill="white" stroke="black" stroke-width="0.121367"/>
<path d="M60.9484 38.8256C60.7711 38.7129 60.6707 38.5564 60.6707 38.3928L60.6706 37.5977C60.6705 37.4332 60.7721 37.276 60.9513 37.1634L75.8127 27.8244C76.1275 27.6266 76.6093 27.6086 76.9559 27.7816L79.9337 29.2686C80.1837 29.3935 80.3309 29.5899 80.3309 29.7985L80.3309 30.526C80.3309 30.6844 80.2368 30.8362 80.0691 30.948L65.3007 40.7942C64.9589 41.0221 64.4076 41.0261 64.0574 40.8033L60.9484 38.8256Z" fill="white" stroke="black" stroke-width="0.121367"/>
<rect x="0.100867" y="0.000173313" width="19.3514" height="5.34596" rx="0.758433" transform="matrix(0.83205 -0.5547 0.830139 0.557556 60.1657 37.3798)" fill="white" stroke="black" stroke-width="0.121367"/>
<path d="M72.4181 22.1893C72.3479 21.986 72.4641 21.8808 72.6775 21.9542L76.4664 23.2572L78.7293 29.8098L74.6389 28.6203L72.4181 22.1893Z" fill="white" stroke="black" stroke-width="0.121367"/>
<path d="M71.8272 23.6497C71.6582 23.591 71.6084 23.4458 71.7158 23.3253L72.3654 22.5968C72.4728 22.4764 72.6968 22.4263 72.8657 22.485L76.47 23.737L75.6259 24.6836C75.5185 24.804 75.2945 24.8541 75.1256 24.7954L71.8272 23.6497Z" fill="white" stroke="black" stroke-width="0.121367"/>
<path d="M71.3487 23.2065C71.2931 23.0455 71.3851 22.9621 71.5542 23.0203L75.9581 24.5348L77.8803 30.7397C77.9396 30.931 77.8284 31.0293 77.6263 30.9643L73.889 29.7613C73.7184 29.7064 73.5309 29.5259 73.4743 29.3619L71.3487 23.2065Z" fill="white" stroke="black" stroke-width="0.121367"/>
<rect x="0.058077" y="0.0144424" width="1.50136" height="7.04395" rx="0.164348" transform="matrix(0.630634 -0.707232 0.326413 0.945227 75.5119 24.4418)" fill="white" stroke="black" stroke-width="0.121367"/>
<path d="M71.8029 22.9508C71.8029 22.7357 71.948 22.6581 72.1269 22.7774L75.3025 24.8944V31.8268L71.8029 29.7544V22.9508Z" fill="white" stroke="black" stroke-width="0.121367"/>
<path d="M70.7563 24.2541C70.6149 24.1592 70.6152 24.0056 70.7569 23.9112L71.6139 23.3398C71.7556 23.2453 71.9851 23.2457 72.1265 23.3406L75.1432 25.3668L74.0295 26.1092C73.8878 26.2037 73.6584 26.2033 73.517 26.1083L70.7563 24.2541Z" fill="white" stroke="black" stroke-width="0.121367"/>
<path d="M70.4499 23.7142C70.4499 23.5439 70.5648 23.4825 70.7065 23.5769L74.3975 26.0376L74.1878 32.5533C74.1813 32.7542 74.0433 32.8261 73.8725 32.7176L70.7132 30.7101C70.5689 30.6185 70.4499 30.3998 70.4499 30.2264V23.7142Z" fill="white" stroke="black" stroke-width="0.121367"/>
<rect x="0.0504917" y="0.0270223" width="1.50136" height="7.04395" rx="0.164348" transform="matrix(0.83205 -0.5547 0 1 74.0085 25.8325)" fill="white" stroke="black" stroke-width="0.121367"/>
<path d="M64.1371 37.0948L63.687 34.8445H67.9626L67.5126 37.0948C67.5126 37.0948 67.2875 37.7699 65.9373 37.7699C64.5871 37.7699 64.1371 37.0948 64.1371 37.0948Z" fill="white" stroke="black" stroke-width="0.121367"/>
<path d="M67.4192 33.7502L67.4556 33.7747L67.5017 33.7593C67.6618 33.7055 67.7858 33.6917 67.8798 33.7023C67.9713 33.7126 68.044 33.7473 68.101 33.8051C68.2192 33.9252 68.2619 34.1385 68.2332 34.3961C68.2048 34.651 68.1077 34.9388 67.963 35.1993C67.8178 35.4606 67.6271 35.6898 67.4156 35.8308C66.556 36.4038 65.164 36.4014 64.3064 35.8254C64.0965 35.6844 63.9093 35.4422 63.768 35.1631C63.6274 34.8853 63.5352 34.5767 63.5103 34.308C63.4979 34.1736 63.5024 34.0504 63.5253 33.9466C63.5484 33.842 63.5894 33.7611 63.6454 33.708C63.6991 33.6571 63.765 33.6327 63.8486 33.6344C63.938 33.6361 64.059 33.6677 64.2161 33.7488L64.2657 33.7744L64.31 33.7449C65.1695 33.1719 66.5616 33.1742 67.4192 33.7502Z" fill="#D9D9D9" stroke="black" stroke-width="0.121367"/>
<circle cx="2.12403" cy="2.12403" r="2.06335" transform="matrix(0.83205 -0.5547 0.830139 0.557556 62.334 33.9509)" fill="white" stroke="black" stroke-width="0.121367"/>
<circle cx="1.58389" cy="1.58389" r="1.52321" transform="matrix(0.83205 -0.5547 0.830139 0.557556 63.2339 33.6743)" fill="#A0967A" stroke="black" stroke-width="0.121367"/>
<path d="M64.1592 31.1285C63.9135 29.7065 65.5631 25.6177 65.5631 25.6177C65.5631 25.6177 66.5667 27.3279 67.1661 29.4182C67.6807 31.2131 66.3774 33.4283 65.9987 34.0186C65.9498 34.0949 65.8436 34.0972 65.7891 34.0247C65.4306 33.5487 64.3112 32.0073 64.1592 31.1285Z" fill="#A6E2B1" stroke="black" stroke-width="0.121367"/>
<path d="M62.564 31.6932C63.0131 32.5203 64.743 33.5429 65.6959 34.0602C65.8899 34.1655 66.0915 33.9571 65.9843 33.7641C65.5415 32.9665 64.7863 31.5988 64.3649 30.7931C63.8728 29.8521 62.5654 26.9675 62.5654 26.9675C62.5654 26.9675 61.9336 30.5322 62.564 31.6932Z" fill="#A6E2B1" stroke="black" stroke-width="0.121367"/>
<path d="M68.3615 30.5706C67.3216 30.4897 66.3759 32.9072 66.0557 33.8236C66.0005 33.9816 66.1333 34.1317 66.295 34.0884C66.89 33.9292 68.038 33.5104 68.1752 32.6268C68.3615 31.4275 71.3412 31.9414 71.3412 31.9414C71.3412 31.9414 69.1453 30.6316 68.3615 30.5706Z" fill="#A6E2B1" stroke="black" stroke-width="0.121367"/>
<rect x="0.0545812" y="0.101986" width="32.0284" height="20.502" rx="1.79313" transform="matrix(0.83205 0.5547 0 1 94.87 29.1033)" fill="white" stroke="black" stroke-width="0.131197"/>
<rect x="0.0545812" y="0.101986" width="10.9785" height="14.534" rx="1.79313" transform="matrix(0.83205 0.5547 0 1 97.3036 33.6746)" fill="#E9EEFF" stroke="black" stroke-width="0.131197"/>
<rect x="0.0545812" y="0.101986" width="12.1479" height="14.534" rx="1.79313" transform="matrix(0.83205 0.5547 0 1 108.974 42.1384)" fill="#E9EEFF" stroke="black" stroke-width="0.131197"/>
<rect x="0.0545812" y="0.101986" width="8.05487" height="27.9138" transform="matrix(0.83205 0.5547 0 1 96.3368 26.3401)" fill="#785C4C" fill-opacity="0.68" stroke="black" stroke-width="0.131197"/>
<rect x="0.0545812" y="0.101986" width="8.05487" height="28.0839" transform="matrix(0.83205 0.5547 0 1 113.855 37.5312)" fill="#785C4C" fill-opacity="0.68" stroke="black" stroke-width="0.131197"/>
<rect x="0.0545812" y="0.101986" width="1.62296" height="2.36283" rx="0.81148" transform="matrix(0.83205 0.5547 0 1 124.059 39.4761)" fill="white" stroke="black" stroke-width="0.131197"/>
<rect x="0.0545812" y="0.101986" width="1.62296" height="2.36283" rx="0.81148" transform="matrix(0.83205 0.5547 0 1 123.575 39.4761)" fill="white" stroke="black" stroke-width="0.131197"/>
<rect x="0.0545812" y="0.101986" width="1.62296" height="2.36283" rx="0.81148" transform="matrix(0.83205 0.5547 0 1 97.3046 21.9609)" fill="white" stroke="black" stroke-width="0.131197"/>
<rect x="0.0545812" y="0.101986" width="1.62296" height="2.36283" rx="0.81148" transform="matrix(0.83205 0.5547 0 1 96.8139 21.9609)" fill="white" stroke="black" stroke-width="0.131197"/>
<rect x="0.0545812" y="0.029211" width="3.37712" height="1.32265" rx="0.661325" transform="matrix(0.83205 -0.5547 0 1 121.626 42.4568)" fill="white" stroke="black" stroke-width="0.131197"/>
<rect x="0.0545812" y="0.029211" width="3.37712" height="1.32265" rx="0.661325" transform="matrix(0.83205 -0.5547 0 1 94.871 24.9399)" fill="white" stroke="black" stroke-width="0.131197"/>
<rect x="0.0545812" y="0.101986" width="34.3672" height="1.64668" rx="0.823338" transform="matrix(0.83205 0.5547 0 1 94.3866 23.4209)" fill="white" stroke="black" stroke-width="0.131197"/>
<rect x="0.0545812" y="0.101986" width="34.3672" height="1.64668" rx="0.823338" transform="matrix(0.83205 0.5547 0 1 93.8964 23.4209)" fill="white" stroke="black" stroke-width="0.131197"/>
<path d="M80.452 62.705C80.452 62.5956 80.5193 62.548 80.6094 62.5936L81.7236 63.1563C81.8326 63.2114 81.9295 63.3778 81.9295 63.51V67.8118C81.9295 67.8634 81.9142 67.9033 81.8865 67.9242L81.0977 68.5183C81.0225 68.5749 80.8842 68.4781 80.814 68.3197L80.4886 67.5848C80.4648 67.531 80.452 67.4763 80.452 67.4288V62.705Z" fill="white" stroke="black" stroke-width="0.103984"/>
<rect x="0.0432599" y="0.0808318" width="1.26695" height="5.11505" rx="0.218363" transform="matrix(0.83205 0.5547 0 1 79.9443 62.654)" fill="white" stroke="black" stroke-width="0.103984"/>
<path d="M87.1883 59.3864C87.1883 59.277 87.2556 59.2294 87.3458 59.275L88.4599 59.8377C88.5689 59.8928 88.6658 60.0592 88.6658 60.1914V64.4932C88.6658 64.5448 88.6506 64.5847 88.6228 64.6056L87.834 65.1997C87.7588 65.2563 87.6205 65.1595 87.5504 65.0011L87.225 64.2662C87.2012 64.2124 87.1883 64.1577 87.1883 64.1102V59.3864Z" fill="white" stroke="black" stroke-width="0.103984"/>
<rect x="0.0432599" y="0.0808318" width="1.26695" height="5.11505" rx="0.218363" transform="matrix(0.83205 0.5547 0 1 86.6806 59.3356)" fill="white" stroke="black" stroke-width="0.103984"/>
<path d="M75.4266 59.5573C75.4266 59.4479 75.4939 59.4003 75.584 59.4459L76.6982 60.0086C76.8072 60.0637 76.9041 60.2301 76.9041 60.3623V64.6641C76.9041 64.7157 76.8889 64.7556 76.8611 64.7765L76.0723 65.3706C75.9971 65.4272 75.8588 65.3304 75.7887 65.172L75.4633 64.4371C75.4394 64.3833 75.4266 64.3286 75.4266 64.2811V59.5573Z" fill="white" stroke="black" stroke-width="0.103984"/>
<rect x="0.0432599" y="0.0808318" width="1.26695" height="5.11505" rx="0.218363" transform="matrix(0.83205 0.5547 0 1 74.9189 59.5063)" fill="white" stroke="black" stroke-width="0.103984"/>
<path d="M74.0901 62.7952C73.8408 62.6259 73.701 62.3978 73.701 62.1603L73.701 58.5865C73.701 58.1804 74.106 57.8246 74.6908 57.7167L81.6938 56.4256C81.9019 56.3873 82.1207 56.3829 82.3319 56.4128L88.1004 57.2297C88.7254 57.3182 89.1728 57.6876 89.1728 58.1149L89.1728 61.6283C89.1728 61.8726 89.025 62.1063 88.7631 62.2762L81.8276 66.7745C81.2956 67.1195 80.4468 67.1126 79.9261 66.7589L74.0901 62.7952Z" fill="white" stroke="black" stroke-width="0.103984"/>
<rect x="0.0864204" y="0.00014849" width="10.5805" height="9.22857" rx="1.14873" transform="matrix(0.83205 -0.5547 0.830139 0.557556 73.1277 58.1249)" fill="white" stroke="black" stroke-width="0.103984"/>
<rect x="0.0432599" y="0.023152" width="8.64413" height="2.76843" rx="0.467927" transform="matrix(0.83205 -0.5547 0 1 81.4428 63.493)" fill="white" stroke="black" stroke-width="0.103984"/>
<rect x="0.0432599" y="0.023152" width="3.64521" height="1.14707" rx="0.573536" transform="matrix(0.83205 -0.5547 0 1 83.5161 62.9163)" fill="white" stroke="black" stroke-width="0.103984"/>
<circle cx="1.61401" cy="1.61401" r="1.56202" transform="matrix(0.83205 -0.5547 0.830139 0.557556 78.3936 57.9653)" fill="white" stroke="black" stroke-width="0.103984"/>
<circle cx="1.61401" cy="1.61401" r="1.56202" transform="matrix(0.83205 -0.5547 0.830139 0.557556 78.3936 57.5801)" fill="white" stroke="black" stroke-width="0.103984"/>
<rect x="80.7483" y="53.9109" width="0.724553" height="3.75204" rx="0.362277" fill="white" stroke="black" stroke-width="0.103984"/>
<path d="M79.3576 49.6162L78.604 52.7813C78.466 53.3607 78.4677 54.0078 78.9288 54.3848C79.3221 54.7066 79.9874 55.0146 81.0928 55.0146C82.3582 55.0146 82.9891 54.6109 83.3012 54.2451C83.584 53.9135 83.5474 53.4474 83.4464 53.0234L82.6352 49.6162H79.3576Z" fill="#EA5F5F" stroke="black" stroke-width="0.103984"/>
<circle cx="1.58235" cy="1.58235" r="1.53036" transform="matrix(0.83205 -0.5547 0.830139 0.557556 78.3188 49.7422)" fill="white" stroke="black" stroke-width="0.103984"/>
<path d="M98.4803 90.3237C98.4803 90.2157 98.5187 90.1385 98.5859 90.1116L100.794 89.2275C100.997 89.1463 101.317 89.533 101.317 89.8589V96.2044C101.317 96.293 101.291 96.3615 101.244 96.398L100.108 97.2739C100.013 97.3476 99.8499 97.2771 99.7185 97.1051L98.6464 95.7009C98.5441 95.567 98.4803 95.3964 98.4803 95.257V90.3237Z" fill="white" stroke="black" stroke-width="0.103984"/>
<rect x="0.0432599" y="0.0808318" width="2.07599" height="7.82815" rx="0.377909" transform="matrix(0.83205 0.5547 0 1 98.227 88.4789)" fill="white" stroke="black" stroke-width="0.103984"/>
<path d="M76.0135 105.933C76.0135 105.825 76.0519 105.748 76.1192 105.721L78.3273 104.837C78.5302 104.756 78.8505 105.142 78.8505 105.468V111.814C78.8505 111.902 78.8246 111.971 78.7773 112.007L77.6413 112.883C77.5458 112.957 77.3831 112.886 77.2517 112.714L76.1796 111.31C76.0773 111.176 76.0135 111.006 76.0135 110.866V105.933Z" fill="white" stroke="black" stroke-width="0.103984"/>
<rect x="0.0432599" y="0.0808318" width="2.07599" height="9.65329" rx="0.377909" transform="matrix(0.83205 0.5547 0 1 75.7602 102.263)" fill="white" stroke="black" stroke-width="0.103984"/>
<path d="M42.6795 83.2791C42.6795 83.2286 42.6879 83.1842 42.7043 83.1486L44.9124 78.3376C45.0458 78.0469 45.5165 78.4753 45.5165 78.8873V89.2659C45.5165 89.3545 45.4906 89.423 45.4434 89.4595L44.3073 90.3354C44.2118 90.4091 44.0491 90.3386 43.9178 90.1666L42.8456 88.7624C42.7433 88.6285 42.6795 88.4578 42.6795 88.3185V83.2791Z" fill="white" stroke="black" stroke-width="0.103984"/>
<rect x="0.0432599" y="0.0808318" width="2.07599" height="8.4178" rx="0.377909" transform="matrix(0.83205 0.5547 0 1 42.4262 80.9506)" fill="white" stroke="black" stroke-width="0.103984"/>
<path d="M41.7761 83.498C41.3482 83.2222 41.1064 82.8417 41.1064 82.4444L41.1072 78.3748C41.1073 77.9943 41.3292 77.6291 41.7257 77.3569L63.8302 62.1764C64.6585 61.6075 66.0155 61.5869 66.884 62.1299L96.533 80.6694C96.9755 80.9461 97.2268 81.3331 97.2268 81.7381L97.2268 85.1235C97.2268 85.5148 96.9921 85.8895 96.5754 86.1637L73.0179 101.664C72.1752 102.219 70.8252 102.223 69.9729 101.673L41.7761 83.498Z" fill="white" stroke="black" stroke-width="0.103984"/>
<rect x="0.0864204" y="0.00014849" width="32.0876" height="37.9694" rx="1.85732" transform="matrix(0.83205 -0.5547 0.830139 0.557556 39.5896 78.4984)" fill="white" stroke="black" stroke-width="0.103984"/>
<path d="M46.1836 83.459C46.1997 83.0858 46.4288 82.7312 46.8238 82.4679L71.3963 66.0862C72.2466 65.5194 73.6225 65.5193 74.4753 66.086L96.77 80.9024C97.2099 81.1947 97.4437 81.5981 97.4132 82.0121L97.0863 86.4465C97.0597 86.807 96.8345 87.148 96.4542 87.4037L72.7046 103.369C71.8628 103.935 70.4967 103.943 69.6384 103.386L46.6767 88.4985C46.2358 88.2127 45.9948 87.8161 46.0126 87.4058L46.1836 83.459Z" fill="white" stroke="black" stroke-width="0.103984"/>
<path d="M49.7129 90.0119L49.7131 85.5127L76.4914 67.3119L101.876 84.1162C102.291 84.3911 102.524 84.7655 102.524 85.156L102.524 90.0254C102.524 90.4137 102.293 90.7859 101.882 91.0596L77.9946 106.964C77.1518 107.526 75.7916 107.531 74.9363 106.977L50.3784 91.0627C49.953 90.7871 49.7128 90.4078 49.7129 90.0119Z" fill="#B6B6B6" stroke="black" stroke-width="0.103984"/>
<path d="M49.7861 85.2455L76.4853 67.4461L102.189 84.1896C102.654 84.4928 102.659 84.992 102.199 85.2981L77.4597 101.767C76.6067 102.335 75.2263 102.332 74.3759 101.761L49.7861 85.2455Z" fill="#B6B6B6" stroke="black" stroke-width="0.103984"/>
<path d="M62.8217 62.2879C63.3991 61.964 64.1848 61.8618 64.9006 62.0175L66.7232 62.4141C67.6007 62.6051 68.2031 63.145 68.2276 63.7625L68.2995 65.5748C68.3155 65.9772 68.0825 66.3665 67.6556 66.6506L49.246 78.9029C48.4282 79.4471 47.1199 79.4728 46.2581 78.9615L43.6338 77.4045C43.191 77.1418 42.927 76.7698 42.9022 76.374L42.7714 74.281C42.7431 73.8276 43.0313 73.3909 43.5514 73.0991L62.8217 62.2879Z" fill="white" stroke="black" stroke-width="0.103984"/>
<rect x="9.93619e-05" y="0.0578283" width="6.62932" height="26.1612" rx="1.85732" transform="matrix(0.83205 0.5547 -0.830139 0.557556 63.693 59.4547)" fill="white" stroke="black" stroke-width="0.103984"/>
<path d="M50.3941 77.0972C50.0807 76.7706 49.9081 76.3583 49.9083 75.9369L49.9091 74.6202C49.9094 73.9385 50.3226 73.3215 50.9918 73.0035L54.8883 71.1517C55.601 70.8129 56.4915 70.9089 57.122 71.3925L61.2374 74.5485L61.2374 75.7339C61.2374 76.2691 60.9591 76.7662 60.4828 77.0818L55.7731 80.2025C54.9503 80.7478 53.7676 80.6136 53.0801 79.897L50.3941 77.0972Z" fill="white" stroke="black" stroke-width="0.103984"/>
<rect x="0.077311" y="0.0104498" width="9.11986" height="7.88449" rx="1.85732" transform="matrix(0.83205 -0.5547 0.654931 0.755689 49.0711 73.9478)" fill="white" stroke="black" stroke-width="0.103984"/>
<path d="M58.8726 70.8594C58.5592 70.5328 58.3866 70.1205 58.3869 69.6991L58.3876 68.3824C58.3879 67.7007 58.8011 67.0837 59.4703 66.7657L63.3668 64.9139C64.0795 64.5751 64.97 64.6711 65.6005 65.1547L69.7159 68.3107L69.7159 69.4961C69.7159 70.0313 69.4376 70.5284 68.9613 70.844L64.2516 73.9647C63.4288 74.51 62.2461 74.3758 61.5586 73.6592L58.8726 70.8594Z" fill="white" stroke="black" stroke-width="0.103984"/>
<rect x="0.077311" y="0.0104498" width="9.11986" height="7.88449" rx="1.85732" transform="matrix(0.83205 -0.5547 0.654931 0.755689 57.5496 67.7085)" fill="white" stroke="black" stroke-width="0.103984"/>
</svg>
