<svg width="169" height="136" viewBox="0 0 169 136" fill="none" xmlns="http://www.w3.org/2000/svg">
<rect width="80.6695" height="100.464" rx="8.21254" transform="matrix(0.83205 0.5547 -0.830139 0.557556 94.8281 36.582)" fill="#D9D9D9" fill-opacity="0.4"/>
<path d="M89.6453 31.3716C93.3116 28.9674 99.1741 28.9643 102.836 31.3646L159.508 68.5141L159.556 71.265C159.586 72.961 158.594 74.5945 156.803 75.7967L86.6372 122.897C82.9552 125.368 76.9784 125.374 73.2971 122.909L19.4963 86.8816C17.7364 85.7032 16.7466 84.1057 16.7433 82.4385L16.7368 79.1827L89.6453 31.3716Z" fill="white" stroke="black" stroke-width="0.389479"/>
<rect x="0.000112107" y="0.0652461" width="80.5522" height="100.347" rx="8.15388" transform="matrix(0.83205 0.5547 -0.830139 0.557556 96.2964 23.8921)" fill="white" stroke="black" stroke-width="0.117322"/>
<rect x="5.60536e-05" y="0.032623" width="62.3059" height="2.60194" rx="0.791924" transform="matrix(0.83205 0.5547 -0.830139 0.557556 85.949 40.9988)" fill="#F5F7F8" stroke="black" stroke-width="0.058661"/>
<rect x="5.60536e-05" y="0.032623" width="62.3059" height="2.60194" rx="0.791924" transform="matrix(0.83205 0.5547 -0.830139 0.557556 82.4177 43.3738)" fill="#F5F7F8" stroke="black" stroke-width="0.058661"/>
<path d="M103.438 43.8394L108.396 40.5093L110.357 41.8164C110.734 42.0677 110.983 42.33 111.105 42.6034C111.228 42.8756 111.233 43.1432 111.118 43.4062C111.007 43.6691 110.787 43.9112 110.458 44.1323C110.129 44.3534 109.767 44.5011 109.373 44.5753C108.979 44.6495 108.576 44.6437 108.166 44.5579C107.757 44.4732 107.361 44.3036 106.98 44.0491L105.73 43.2159L106.57 42.6517L107.65 43.3716C107.852 43.5064 108.053 43.5942 108.254 43.6349C108.457 43.6757 108.654 43.6759 108.843 43.6355C109.035 43.5952 109.213 43.5203 109.376 43.4108C109.54 43.3002 109.651 43.1816 109.707 43.055C109.767 42.9284 109.764 42.7981 109.699 42.6642C109.636 42.5291 109.502 42.3937 109.299 42.2578L108.59 41.7854L104.489 44.5399L103.438 43.8394ZM108.145 46.9774L107.019 46.2268L113.693 44.0404L115.047 44.9431L111.802 49.4153L110.676 48.6647L113.256 45.2657L113.217 45.2398L108.145 46.9774ZM110.024 45.6215L112.683 47.3946L111.865 47.9442L109.205 46.1711L110.024 45.6215ZM116.56 45.9517L117.737 46.7363L116.735 48.926L116.783 48.9583L120.052 48.2796L121.229 49.0642L116.211 50.0087L114.458 51.1859L113.414 50.4903L115.167 49.313L116.56 45.9517ZM116.844 52.7769L121.803 49.4468L123.763 50.7539C124.139 51.0041 124.392 51.2626 124.523 51.5295C124.658 51.7963 124.673 52.058 124.568 52.3144C124.467 52.5708 124.252 52.8091 123.925 53.0291C123.595 53.2503 123.241 53.3931 122.861 53.4575C122.483 53.5209 122.096 53.5048 121.7 53.4092C121.306 53.3148 120.918 53.1403 120.536 52.8858L119.223 52.0106L120.066 51.4447L121.209 52.2066C121.409 52.3404 121.603 52.433 121.791 52.4846C121.978 52.5362 122.159 52.5467 122.334 52.5161C122.51 52.4866 122.679 52.4171 122.842 52.3076C123.007 52.1971 123.113 52.0817 123.159 51.9616C123.208 51.8426 123.194 51.7188 123.117 51.5903C123.045 51.4617 122.907 51.3301 122.705 51.1953L121.996 50.7229L117.895 53.4774L116.844 52.7769ZM121.784 53.0507L120.763 55.3896L119.603 54.6163L120.651 52.2952L121.784 53.0507ZM128.375 57.146C127.834 57.5091 127.271 57.7496 126.686 57.8674C126.103 57.9862 125.535 57.9953 124.983 57.8946C124.433 57.7939 123.939 57.5974 123.501 57.3052C123.059 57.0107 122.763 56.6793 122.612 56.3109C122.461 55.9424 122.473 55.5629 122.649 55.1722C122.824 54.7816 123.181 54.4052 123.72 54.0432C124.261 53.68 124.823 53.439 125.406 53.3202C125.989 53.2013 126.556 53.1922 127.105 53.2929C127.656 53.3925 128.153 53.5895 128.594 53.884C129.033 54.1762 129.327 54.5066 129.478 54.875C129.632 55.2435 129.622 55.623 129.446 56.0137C129.273 56.4054 128.915 56.7828 128.375 57.146ZM127.309 56.4358C127.66 56.2005 127.902 55.9671 128.038 55.7355C128.175 55.505 128.211 55.2849 128.146 55.0752C128.081 54.8655 127.921 54.6761 127.667 54.5067C127.413 54.3374 127.129 54.2314 126.816 54.1887C126.502 54.146 126.173 54.1703 125.827 54.2618C125.483 54.3543 125.136 54.5181 124.786 54.7534C124.435 54.9886 124.192 55.2215 124.055 55.452C123.92 55.6836 123.884 55.9043 123.949 56.1139C124.014 56.3236 124.174 56.5131 124.428 56.6824C124.682 56.8517 124.966 56.9577 125.279 57.0004C125.593 57.0432 125.921 57.0183 126.265 56.9258C126.611 56.8343 126.959 56.671 127.309 56.4358ZM126.674 59.3299L131.632 55.9998L132.683 56.7002L128.589 59.4499L130.719 60.8702L129.855 61.4507L126.674 59.3299ZM130.551 61.9146L135.509 58.5845L136.56 59.285L132.466 62.0346L134.596 63.455L133.732 64.0355L130.551 61.9146Z" fill="black"/>
<path fill-rule="evenodd" clip-rule="evenodd" d="M20.8712 73.5298L20.7734 73.4648L21.7515 72.9402L88.5416 28.2045L89.4219 27.4844L89.3731 27.517L20.8206 73.4333L20.7734 73.4648L20.7718 73.466L20.8696 73.5309L20.8712 73.5298Z" fill="black"/>
<path fill-rule="evenodd" clip-rule="evenodd" d="M84.8243 116.053L84.7266 115.988L85.7046 115.464L152.495 70.7279L153.375 70.0078L153.326 70.0405L84.7737 115.957L84.7266 115.988L84.7249 115.989L84.8227 116.054L84.8243 116.053Z" fill="black"/>
<path fill-rule="evenodd" clip-rule="evenodd" d="M154.088 64.1547L153.992 64.2188L153.45 63.7308L100.078 28.2473L99.2578 27.832L99.3067 27.8645L153.942 64.1879L153.991 64.2204L154.088 64.1551L154.088 64.1547Z" fill="black"/>
<path fill-rule="evenodd" clip-rule="evenodd" d="M74.4471 117.498L74.3516 117.563L73.8095 117.075L20.4376 81.5911L19.6172 81.1758L19.6661 81.2083L74.3013 117.532L74.3501 117.564L74.4477 117.499L74.4471 117.498Z" fill="black"/>
<rect x="5.60536e-05" y="0.032623" width="31.975" height="2.60194" rx="0.791924" transform="matrix(0.83205 0.5547 -0.830139 0.557556 62.0662 91.405)" fill="#F5F7F8" stroke="black" stroke-width="0.058661"/>
<rect x="5.60536e-05" y="0.032623" width="19.5234" height="2.60194" rx="0.791924" transform="matrix(0.83205 0.5547 -0.830139 0.557556 58.5349 93.78)" fill="#F5F7F8" stroke="black" stroke-width="0.058661"/>
<path d="M78.9039 52.115L79.392 52.4404L78.9764 53.3486L78.9965 53.362L80.3521 53.0805L80.8402 53.4059L78.759 53.7976L78.032 54.2859L77.5993 53.9974L78.3263 53.5091L78.9039 52.115ZM81.8196 55.4349C81.5953 55.5855 81.362 55.6852 81.1194 55.7341C80.8776 55.7834 80.642 55.7871 80.4127 55.7454C80.1848 55.7036 79.9799 55.6221 79.7981 55.5009C79.6149 55.3788 79.4921 55.2413 79.4295 55.0885C79.3669 54.9357 79.372 54.7783 79.4448 54.6163C79.5175 54.4543 79.6657 54.2982 79.8893 54.148C80.1135 53.9974 80.3466 53.8974 80.5884 53.8481C80.8303 53.7988 81.0652 53.7951 81.2931 53.8368C81.5217 53.8782 81.7276 53.9599 81.9108 54.082C82.0926 54.2032 82.2148 54.3402 82.2774 54.493C82.3413 54.6458 82.3369 54.8033 82.2641 54.9653C82.192 55.1277 82.0438 55.2843 81.8196 55.4349ZM81.3778 55.1403C81.523 55.0428 81.6237 54.946 81.6799 54.8499C81.7367 54.7543 81.7516 54.663 81.7246 54.576C81.6977 54.4891 81.6315 54.4105 81.5262 54.3403C81.4208 54.27 81.3031 54.2261 81.1731 54.2084C81.0431 54.1907 80.9064 54.2008 80.763 54.2387C80.6203 54.277 80.4764 54.345 80.3311 54.4426C80.1858 54.5401 80.0848 54.6367 80.028 54.7323C79.9719 54.8284 79.9573 54.9199 79.9842 55.0069C80.0112 55.0938 80.0773 55.1724 80.1827 55.2426C80.288 55.3128 80.4057 55.3568 80.5358 55.3745C80.6658 55.3922 80.8022 55.3819 80.9448 55.3436C81.0882 55.3056 81.2325 55.2379 81.3778 55.1403ZM84.4437 55.8082L84.8795 56.0988L83.544 56.9957C83.3941 57.0964 83.227 57.1606 83.0427 57.1883C82.8592 57.2164 82.6718 57.2089 82.4808 57.1657C82.2904 57.1221 82.1099 57.0435 81.9395 56.9299C81.7684 56.8158 81.6499 56.6951 81.584 56.5679C81.5188 56.4402 81.5069 56.3149 81.5482 56.1919C81.5895 56.069 81.6852 55.9572 81.8351 55.8565L83.1706 54.9595L83.6064 55.25L82.3081 56.122C82.2297 56.1746 82.1772 56.2328 82.1505 56.2965C82.1245 56.3607 82.1256 56.4255 82.1539 56.4909C82.1822 56.5563 82.2382 56.617 82.3221 56.6729C82.4066 56.7293 82.4975 56.7666 82.5947 56.7848C82.6926 56.8035 82.7891 56.8037 82.8842 56.7856C82.98 56.768 83.0671 56.7329 83.1454 56.6802L84.4437 55.8082ZM83.1816 57.719L85.238 56.3378L86.0512 56.8799C86.2069 56.9837 86.3119 57.0909 86.3664 57.2016C86.4222 57.3123 86.4284 57.4208 86.3851 57.5271C86.343 57.6335 86.2541 57.7323 86.1182 57.8236C85.9816 57.9153 85.8346 57.9745 85.6772 58.0012C85.5204 58.0275 85.3599 58.0208 85.1956 57.9812C85.032 57.942 84.8711 57.8697 84.7127 57.7641L84.1682 57.4011L84.5177 57.1664L84.9917 57.4824C85.0749 57.5379 85.1554 57.5763 85.2332 57.5977C85.3109 57.6191 85.386 57.6235 85.4584 57.6108C85.5314 57.5986 85.6017 57.5697 85.6693 57.5243C85.7376 57.4785 85.7814 57.4306 85.8008 57.3808C85.8208 57.3315 85.815 57.2801 85.7834 57.2268C85.7532 57.1735 85.6961 57.1189 85.6122 57.063L85.3184 56.867L83.6174 58.0095L83.1816 57.719ZM85.2305 57.8325L84.807 58.8025L84.3259 58.4818L84.7605 57.5192L85.2305 57.8325ZM88.2805 59.1576C88.3535 59.0979 88.3819 59.0326 88.3656 58.9617C88.3494 58.8909 88.289 58.8206 88.1843 58.7508C88.1132 58.7034 88.0431 58.6701 87.9741 58.651C87.9057 58.6313 87.841 58.6245 87.78 58.6304C87.7197 58.6368 87.6675 58.6548 87.6233 58.6845C87.5851 58.7084 87.5607 58.7351 87.55 58.7647C87.54 58.7948 87.5401 58.8266 87.5502 58.8602C87.561 58.8934 87.5788 58.9281 87.6037 58.9644C87.6292 59.0002 87.6594 59.0365 87.6943 59.0732L87.8353 59.2263C87.9051 59.2998 87.9609 59.3728 88.0026 59.4453C88.0442 59.5179 88.0682 59.589 88.0743 59.6585C88.0805 59.728 88.0655 59.795 88.0294 59.8597C87.994 59.9247 87.9338 59.9863 87.8488 60.0443C87.7223 60.1284 87.581 60.1802 87.4248 60.1997C87.2701 60.2193 87.1075 60.2063 86.9372 60.1609C86.7683 60.1154 86.5999 60.0368 86.4322 59.925C86.2658 59.814 86.1463 59.7003 86.0737 59.5839C86.0018 59.4678 85.9812 59.3533 86.0118 59.2402C86.0438 59.1272 86.132 59.0198 86.2766 58.9182L86.6983 59.1994C86.6341 59.2488 86.5963 59.3007 86.585 59.3549C86.575 59.4092 86.5879 59.4639 86.6235 59.519C86.6604 59.5741 86.7165 59.6267 86.7916 59.6768C86.8654 59.726 86.9402 59.7615 87.016 59.7834C87.0924 59.8057 87.1648 59.8141 87.2332 59.8086C87.3015 59.8031 87.3605 59.7837 87.41 59.7504C87.4562 59.7194 87.4812 59.6841 87.4852 59.6447C87.4898 59.6056 87.477 59.5613 87.4468 59.5115C87.4172 59.4623 87.3739 59.4065 87.3168 59.3443L87.1486 59.1569C87.017 59.0127 86.9457 58.8769 86.9348 58.7496C86.9238 58.6223 86.9947 58.5078 87.1473 58.4062C87.2712 58.3221 87.4131 58.2712 87.5733 58.2534C87.7341 58.2361 87.8997 58.2493 88.07 58.2929C88.2403 58.3366 88.4005 58.4085 88.5508 58.5087C88.7038 58.6107 88.8112 58.7172 88.8731 58.8283C88.9356 58.9399 88.9522 59.0482 88.9229 59.1532C88.8936 59.2581 88.8187 59.3525 88.6982 59.4361L88.2805 59.1576ZM87.8627 60.8397L87.3957 60.5284L90.1637 59.6216L90.7253 59.996L89.3794 61.8508L88.9124 61.5395L89.9826 60.1297L89.9665 60.119L87.8627 60.8397ZM88.6418 60.2773L89.7449 61.0127L89.4055 61.2406L88.3025 60.5053L88.6418 60.2773ZM89.6275 62.0162L91.6839 60.635L92.1197 60.9255L90.4217 62.066L91.3054 62.655L90.9469 62.8958L89.6275 62.0162ZM91.6433 63.3601L91.1763 63.0488L93.9443 62.142L94.5059 62.5164L93.16 64.3712L92.693 64.0599L93.7632 62.6501L93.7471 62.6394L91.6433 63.3601ZM92.4224 62.7977L93.5255 63.5331L93.1861 63.7611L92.0831 63.0257L92.4224 62.7977ZM93.4081 64.5366L95.4645 63.1554L96.2777 63.6976C96.4333 63.8013 96.5384 63.9085 96.5929 64.0192C96.6487 64.1299 96.6549 64.2384 96.6115 64.3448C96.5695 64.4511 96.4805 64.5499 96.3446 64.6412C96.2081 64.7329 96.0611 64.7921 95.9036 64.8189C95.7469 64.8452 95.5863 64.8385 95.4221 64.7988C95.2585 64.7597 95.0975 64.6873 94.9392 64.5817L94.3947 64.2187L94.7441 63.9841L95.2182 64.3001C95.3014 64.3555 95.3818 64.394 95.4596 64.4154C95.5374 64.4367 95.6125 64.4411 95.6848 64.4284C95.7578 64.4162 95.8282 64.3874 95.8958 64.342C95.9641 64.2961 96.0079 64.2483 96.0272 64.1985C96.0472 64.1491 96.0415 64.0978 96.0099 64.0444C95.9796 63.9911 95.9226 63.9365 95.8387 63.8806L95.5448 63.6847L93.8439 64.8271L93.4081 64.5366ZM95.457 64.6501L95.0334 65.6202L94.5524 65.2995L94.987 64.3368L95.457 64.6501ZM97.1178 64.2576L97.6059 64.583L97.1903 65.4912L97.2104 65.5046L98.566 65.2231L99.0541 65.5485L96.9729 65.9402L96.2459 66.4285L95.8132 66.14L96.5401 65.6517L97.1178 64.2576ZM97.8917 67.5257L99.9481 66.1445L100.384 66.435L99.5354 67.0049L100.42 67.5946L101.268 67.0248L101.703 67.3146L99.6469 68.6958L99.2121 68.4059L100.062 67.8354L99.1769 67.2456L98.3274 67.8162L97.8917 67.5257ZM100.361 69.1722L99.8944 68.8608L102.662 67.954L103.224 68.3284L101.878 70.1833L101.411 69.872L102.481 68.4622L102.465 68.4515L100.361 69.1722ZM101.141 68.6098L102.244 69.3452L101.904 69.5731L100.801 68.8378L101.141 68.6098ZM104.662 70.0788C104.735 70.019 104.764 69.9537 104.747 69.8829C104.731 69.812 104.671 69.7417 104.566 69.672C104.495 69.6245 104.425 69.5913 104.356 69.5721C104.287 69.5525 104.223 69.5456 104.162 69.5516C104.101 69.558 104.049 69.576 104.005 69.6057C103.967 69.6295 103.942 69.6562 103.932 69.6858C103.922 69.7159 103.922 69.7477 103.932 69.7813C103.943 69.8145 103.961 69.8492 103.985 69.8855C104.011 69.9214 104.041 69.9576 104.076 69.9943L104.217 70.1475C104.287 70.2209 104.343 70.2939 104.384 70.3665C104.426 70.439 104.45 70.5101 104.456 70.5796C104.462 70.6491 104.447 70.7162 104.411 70.7808C104.376 70.8459 104.316 70.9074 104.23 70.9654C104.104 71.0495 103.963 71.1013 103.807 71.1209C103.652 71.1404 103.489 71.1275 103.319 71.082C103.15 71.0366 102.982 70.9579 102.814 70.8461C102.647 70.7352 102.528 70.6215 102.455 70.505C102.383 70.389 102.363 70.2744 102.393 70.1614C102.425 70.0483 102.514 69.941 102.658 69.8394L103.08 70.1205C103.016 70.1699 102.978 70.2218 102.967 70.2761C102.957 70.3304 102.97 70.385 103.005 70.4401C103.042 70.4952 103.098 70.5478 103.173 70.5979C103.247 70.6471 103.322 70.6827 103.398 70.7045C103.474 70.7268 103.547 70.7352 103.615 70.7297C103.683 70.7242 103.742 70.7048 103.792 70.6715C103.838 70.6405 103.863 70.6053 103.867 70.5658C103.872 70.5268 103.859 70.4824 103.828 70.4327C103.799 70.3834 103.756 70.3276 103.699 70.2654L103.53 70.078C103.399 69.9338 103.327 69.7981 103.316 69.6707C103.306 69.5434 103.376 69.4289 103.529 69.3273C103.653 69.2432 103.795 69.1923 103.955 69.1746C104.116 69.1572 104.281 69.1704 104.452 69.2141C104.622 69.2577 104.782 69.3296 104.933 69.4298C105.086 69.5318 105.193 69.6384 105.255 69.7495C105.317 69.861 105.334 69.9693 105.305 70.0743C105.275 70.1793 105.2 70.2736 105.08 70.3572L104.662 70.0788ZM104.592 71.9926L106.649 70.6115L107.474 71.1616C107.625 71.2627 107.729 71.3621 107.786 71.4598C107.842 71.5574 107.856 71.65 107.828 71.7375C107.8 71.8246 107.734 71.9027 107.631 71.9719C107.551 72.0259 107.464 72.0626 107.371 72.082C107.278 72.101 107.185 72.1048 107.089 72.0933C106.996 72.0818 106.905 72.0575 106.817 72.0204L106.797 72.0339C106.872 72.0885 106.923 72.1523 106.951 72.2254C106.979 72.2989 106.978 72.3747 106.947 72.4527C106.917 72.5304 106.852 72.6031 106.751 72.671C106.641 72.7443 106.517 72.7916 106.377 72.8129C106.238 72.8342 106.091 72.8264 105.937 72.7895C105.782 72.7525 105.627 72.6826 105.473 72.5797L104.592 71.9926ZM105.383 72.0444L105.739 72.2813C105.86 72.3622 105.972 72.4058 106.074 72.4119C106.176 72.4175 106.266 72.3943 106.344 72.3421C106.401 72.3039 106.437 72.261 106.453 72.2134C106.469 72.1659 106.464 72.1168 106.438 72.0662C106.412 72.016 106.365 71.9676 106.295 71.9211L105.93 71.6775L105.383 72.0444ZM106.224 71.4799L106.547 71.6953C106.607 71.7351 106.67 71.7635 106.737 71.7804C106.805 71.7973 106.872 71.8017 106.938 71.7935C107.004 71.7858 107.065 71.7637 107.119 71.7273C107.193 71.6774 107.227 71.6195 107.219 71.5536C107.212 71.4881 107.161 71.4232 107.064 71.3588L106.733 71.138L106.224 71.4799ZM106.466 73.2418L108.522 71.8606L109.911 72.7865L109.553 73.0273L108.6 72.3919L108.11 72.721L108.991 73.3087L108.633 73.5495L107.751 72.9618L107.26 73.2915L108.217 73.9296L107.859 74.1704L106.466 73.2418ZM108.201 74.3986L110.258 73.0175L111.646 73.9434L111.288 74.1841L110.335 73.5488L109.845 73.8779L110.726 74.4656L110.368 74.7064L109.486 74.1186L108.995 74.4484L109.953 75.0865L109.594 75.3272L108.201 74.3986ZM113.717 75.3237L111.66 76.7049L111.284 76.4539L111.682 74.9868L111.667 74.9767L110.372 75.846L109.936 75.5555L111.993 74.1744L112.375 74.4293L111.972 75.8911L111.99 75.9031L113.283 75.0345L113.717 75.3237ZM112.676 77.3822L114.733 76.001L115.546 76.5431C115.702 76.6473 115.806 76.7561 115.856 76.8695C115.907 76.9824 115.909 77.0934 115.862 77.2025C115.816 77.3115 115.724 77.4119 115.588 77.5036C115.451 77.5954 115.301 77.6566 115.138 77.6874C114.974 77.7181 114.808 77.7157 114.637 77.6802C114.468 77.645 114.304 77.5747 114.145 77.4691L113.627 77.1236L113.975 76.8896L114.423 77.1881C114.507 77.244 114.591 77.2804 114.674 77.2973C114.758 77.3142 114.84 77.3143 114.918 77.2976C114.998 77.2809 115.071 77.2498 115.139 77.2044C115.207 77.1585 115.253 77.1093 115.276 77.0568C115.301 77.0043 115.3 76.9503 115.273 76.8947C115.247 76.8387 115.192 76.7825 115.107 76.7262L114.813 76.5303L113.112 77.6727L112.676 77.3822ZM114.629 78.6836L114.162 78.3723L116.93 77.4655L117.491 77.8399L116.145 79.6948L115.678 79.3834L116.749 77.9737L116.732 77.963L114.629 78.6836ZM115.408 78.1213L116.511 78.8566L116.171 79.0846L115.068 78.3492L115.408 78.1213ZM118.886 78.7695L116.829 80.1507L116.393 79.8601L118.45 78.479L118.886 78.7695ZM117.918 80.8768L117.188 80.3897L119.244 79.0085L119.981 79.4996C120.188 79.6379 120.325 79.7845 120.393 79.9395C120.461 80.0941 120.458 80.2497 120.385 80.4064C120.313 80.5635 120.171 80.7137 119.957 80.8571C119.743 81.001 119.518 81.0976 119.283 81.1469C119.048 81.1966 118.815 81.1988 118.581 81.1535C118.349 81.1086 118.128 81.0163 117.918 80.8768ZM117.996 80.43L118.273 80.6145C118.402 80.7004 118.533 80.7573 118.666 80.7854C118.801 80.8134 118.939 80.8098 119.079 80.7746C119.221 80.7393 119.369 80.6702 119.522 80.5673C119.674 80.4652 119.776 80.3668 119.827 80.2721C119.879 80.1779 119.884 80.0862 119.842 79.997C119.8 79.9078 119.714 79.8203 119.585 79.7344L119.307 79.5492L117.996 80.43ZM119.731 81.7655C119.665 81.7212 119.631 81.6674 119.63 81.6042C119.63 81.5414 119.664 81.4875 119.731 81.4426C119.796 81.3985 119.876 81.3764 119.97 81.3763C120.064 81.3765 120.145 81.3988 120.211 81.4431C120.275 81.486 120.308 81.5394 120.31 81.603C120.311 81.6667 120.279 81.7206 120.214 81.7646C120.169 81.7943 120.118 81.8139 120.058 81.8234C120 81.8329 119.941 81.833 119.883 81.8237C119.825 81.814 119.775 81.7945 119.731 81.7655ZM120.74 81.0877C120.674 81.0434 120.64 80.9897 120.639 80.9264C120.639 80.8636 120.673 80.8098 120.74 80.7648C120.805 80.7208 120.885 80.6989 120.978 80.6992C121.072 80.6994 121.153 80.7217 121.219 80.766C121.284 80.809 121.317 80.8623 121.318 80.9259C121.32 80.9892 121.288 81.0428 121.223 81.0869C121.178 81.117 121.126 81.1368 121.066 81.1463C121.008 81.1559 120.95 81.1557 120.892 81.146C120.834 81.1362 120.784 81.1168 120.74 81.0877Z" fill="black"/>
<rect x="5.60536e-05" y="0.032623" width="62.3059" height="30.4851" rx="2.31711" transform="matrix(0.83205 0.5547 -0.830139 0.557556 67.3083 53.5183)" fill="#BEEDE7" stroke="black" stroke-width="0.058661"/>
<rect x="5.60536e-05" y="0.032623" width="1.64413" height="23.6739" transform="matrix(0.83205 0.5547 -0.830139 0.557556 89.8943 72.1238)" fill="#8EE6DB" stroke="black" stroke-width="0.058661"/>
<rect x="5.60536e-05" y="0.032623" width="21.8647" height="2.60194" transform="matrix(0.83205 0.5547 -0.830139 0.557556 52.3005 68.3425)" fill="#8EE6DB" stroke="black" stroke-width="0.058661"/>
<rect x="5.60536e-05" y="0.032623" width="21.8647" height="2.60194" transform="matrix(0.83205 0.5547 -0.830139 0.557556 78.863 86.0496)" fill="#8EE6DB" stroke="black" stroke-width="0.058661"/>
<path d="M58.4056 67.6847L60.9556 65.9721L62.6777 67.1202L62.2332 67.4187L61.0514 66.6308L60.4438 67.0389L61.537 67.7677L61.0925 68.0663L59.9993 67.3375L59.3905 67.7464L60.5773 68.5376L60.1328 68.8361L58.4056 67.6847ZM64.686 68.459L65.2264 68.8193L63.5704 69.9315C63.3845 70.0564 63.1773 70.136 62.9488 70.1703C62.7212 70.2051 62.4889 70.1958 62.252 70.1423C62.0158 70.0882 61.7921 69.9907 61.5808 69.8498C61.3687 69.7084 61.2217 69.5588 61.14 69.401C61.0591 69.2426 61.0443 69.0873 61.0956 68.9348C61.1469 68.7823 61.2655 68.6437 61.4514 68.5188L63.1074 67.4066L63.6477 67.7668L62.0378 68.8481C61.9407 68.9133 61.8756 68.9855 61.8425 69.0645C61.8102 69.144 61.8116 69.2244 61.8466 69.3055C61.8817 69.3866 61.9512 69.4619 62.0552 69.5312C62.16 69.6011 62.2727 69.6473 62.3932 69.6699C62.5146 69.6931 62.6343 69.6934 62.7522 69.671C62.871 69.6491 62.979 69.6055 63.0761 69.5403L64.686 68.459ZM63.121 70.8283L65.671 69.1157L66.6793 69.7879C66.8723 69.9166 67.0026 70.0495 67.0702 70.1868C67.1394 70.324 67.1471 70.4585 67.0933 70.5904C67.0412 70.7223 66.9308 70.8448 66.7623 70.958C66.593 71.0717 66.4107 71.1452 66.2155 71.1783C66.0211 71.2109 65.8221 71.2026 65.6184 71.1535C65.4155 71.1049 65.2159 71.0152 65.0196 70.8843L64.3444 70.4342L64.7777 70.1431L65.3655 70.535C65.4687 70.6038 65.5685 70.6514 65.6649 70.678C65.7614 70.7045 65.8545 70.7099 65.9442 70.6942C66.0347 70.679 66.1219 70.6433 66.2058 70.5869C66.2904 70.5301 66.3448 70.4708 66.3687 70.409C66.3936 70.3478 66.3864 70.2841 66.3472 70.218C66.3097 70.1519 66.239 70.0842 66.135 70.0149L65.7706 69.7719L63.6614 71.1885L63.121 70.8283ZM65.6617 70.9691L65.1365 72.1719L64.5399 71.7743L65.0789 70.5805L65.6617 70.9691ZM69.0509 73.0752C68.7728 73.262 68.4834 73.3857 68.1827 73.4462C67.8828 73.5074 67.5907 73.512 67.3064 73.4602C67.0238 73.4085 66.7697 73.3074 66.5442 73.1571C66.3171 73.0057 66.1647 72.8352 66.0871 72.6457C66.0095 72.4563 66.0158 72.2611 66.1061 72.0602C66.1963 71.8593 66.38 71.6657 66.6573 71.4795C66.9354 71.2927 67.2243 71.1688 67.5242 71.1077C67.8241 71.0465 68.1154 71.0419 68.398 71.0937C68.6815 71.1449 68.9368 71.2462 69.1639 71.3976C69.3894 71.5479 69.5409 71.7178 69.6185 71.9073C69.6978 72.0968 69.6923 72.292 69.6021 72.4929C69.5127 72.6944 69.3289 72.8885 69.0509 73.0752ZM68.503 72.71C68.6831 72.589 68.808 72.469 68.8776 72.3498C68.948 72.2313 68.9665 72.1181 68.9331 72.0103C68.8997 71.9024 68.8177 71.805 68.687 71.7179C68.5564 71.6308 68.4105 71.5763 68.2492 71.5543C68.088 71.5324 67.9185 71.5449 67.7407 71.5919C67.5638 71.6395 67.3853 71.7238 67.2051 71.8447C67.025 71.9657 66.8997 72.0855 66.8293 72.2041C66.7597 72.3232 66.7416 72.4366 66.775 72.5445C66.8085 72.6523 66.8905 72.7497 67.0211 72.8368C67.1517 72.9239 67.2977 72.9784 67.4589 73.0004C67.6202 73.0224 67.7893 73.0096 67.9662 72.962C68.144 72.915 68.3229 72.831 68.503 72.71ZM71.3792 73.9026C71.4697 73.8285 71.5049 73.7475 71.4848 73.6597C71.4647 73.5719 71.3897 73.4847 71.26 73.3982C71.1718 73.3394 71.0849 73.2981 70.9992 73.2744C70.9144 73.25 70.8342 73.2416 70.7586 73.2489C70.6838 73.2568 70.619 73.2792 70.5643 73.316C70.5169 73.3455 70.4867 73.3787 70.4734 73.4154C70.461 73.4527 70.4611 73.4922 70.4736 73.5338C70.487 73.575 70.5091 73.618 70.5399 73.663C70.5716 73.7074 70.609 73.7524 70.6523 73.7979L70.8272 73.9878C70.9138 74.0789 70.9829 74.1694 71.0346 74.2594C71.0862 74.3494 71.1159 74.4375 71.1235 74.5236C71.1312 74.6098 71.1126 74.693 71.0679 74.7731C71.024 74.8539 70.9493 74.9302 70.8439 75.0021C70.687 75.1063 70.5118 75.1706 70.3182 75.1948C70.1263 75.2191 69.9247 75.203 69.7135 75.1467C69.504 75.0903 69.2953 74.9928 69.0873 74.8541C68.8809 74.7166 68.7328 74.5756 68.6428 74.4312C68.5536 74.2873 68.528 74.1453 68.566 74.0051C68.6057 73.8649 68.7151 73.7318 68.8944 73.6058L69.4173 73.9544C69.3376 74.0157 69.2908 74.08 69.2768 74.1473C69.2644 74.2146 69.2803 74.2824 69.3245 74.3507C69.3703 74.4191 69.4398 74.4843 69.533 74.5464C69.6245 74.6074 69.7172 74.6515 69.8112 74.6785C69.906 74.7062 69.9957 74.7166 70.0805 74.7098C70.1653 74.703 70.2383 74.6789 70.2998 74.6377C70.357 74.5992 70.3881 74.5555 70.393 74.5066C70.3988 74.4582 70.3829 74.4031 70.3454 74.3415C70.3087 74.2804 70.255 74.2112 70.1842 74.1341L69.9757 73.9017C69.8125 73.7229 69.7241 73.5546 69.7105 73.3967C69.697 73.2388 69.7848 73.0968 69.9741 72.9708C70.1276 72.8666 70.3037 72.8034 70.5023 72.7814C70.7017 72.7599 70.9069 72.7763 71.1181 72.8304C71.3293 72.8845 71.5281 72.9737 71.7144 73.098C71.9041 73.2244 72.0373 73.3565 72.114 73.4943C72.1915 73.6326 72.2121 73.7669 72.1758 73.8971C72.1394 74.0273 72.0465 74.1442 71.8971 74.2479L71.3792 73.9026Z" fill="black"/>
<path d="M64.3454 65.746C63.993 65.5111 63.7367 65.2638 63.5762 65.0041C63.4189 64.7444 63.3621 64.4958 63.4058 64.2582C63.4496 64.0206 63.5978 63.8169 63.8504 63.6473C64.0452 63.5164 64.2683 63.4258 64.5196 63.3754C64.7739 63.325 65.0321 63.3149 65.2942 63.345C65.5578 63.3742 65.8002 63.442 66.0213 63.5487L66.0533 63.5272C65.8533 63.3268 65.7714 63.1103 65.8076 62.8778C65.8453 62.6442 65.992 62.4416 66.2476 62.2699C66.4896 62.1074 66.7758 62.01 67.1064 61.9779C67.4385 61.9447 67.7821 61.9742 68.1372 62.0663C68.4954 62.1585 68.8324 62.3098 69.1481 62.5203C69.4638 62.7308 69.6905 62.9552 69.828 63.1935C69.967 63.4328 70.0124 63.6637 69.964 63.886C69.9172 64.1073 69.7743 64.2992 69.5354 64.4617C69.2767 64.6334 68.9729 64.7313 68.624 64.7554C68.2752 64.7794 67.9529 64.7265 67.6571 64.5965L67.6251 64.6179C67.7823 64.7634 67.8824 64.9238 67.9253 65.0991C67.9713 65.2744 67.9572 65.4472 67.8828 65.6176C67.8115 65.788 67.6792 65.9391 67.4859 66.0709C67.2318 66.2396 66.9273 66.339 66.5723 66.3692C66.2174 66.3993 65.8448 66.3617 65.4546 66.2564C65.0675 66.151 64.6977 65.9809 64.3454 65.746ZM65.0713 65.2585C65.2284 65.3632 65.3938 65.4358 65.5675 65.4763C65.7428 65.5158 65.9135 65.5236 66.0795 65.4999C66.2486 65.4761 66.3993 65.4198 66.5317 65.3309C66.6671 65.2399 66.7523 65.1368 66.7871 65.0216C66.8235 64.9053 66.8126 64.788 66.7545 64.6699C66.6979 64.5507 66.5934 64.4403 66.4409 64.3386C66.2899 64.2379 66.1244 64.1684 65.9446 64.1299C65.7663 64.0905 65.5903 64.0831 65.4167 64.1079C65.2461 64.1327 65.093 64.1905 64.9576 64.2815C64.8252 64.3704 64.7408 64.471 64.7045 64.5832C64.6696 64.6944 64.6828 64.809 64.7439 64.9272C64.8066 65.0443 64.9157 65.1548 65.0713 65.2585ZM67.1599 63.8557C67.2911 63.9431 67.4344 64.003 67.5898 64.0354C67.7453 64.0677 67.8992 64.0715 68.0515 64.0468C68.2038 64.0221 68.3416 63.9683 68.4649 63.8855C68.5866 63.8038 68.6641 63.7129 68.6975 63.6129C68.7324 63.5119 68.7253 63.4105 68.6764 63.3087C68.629 63.2058 68.5382 63.1096 68.404 63.0201C68.2713 62.9316 68.1272 62.8712 67.9717 62.8389C67.8178 62.8055 67.6654 62.8007 67.5146 62.8244C67.3669 62.8481 67.2322 62.9008 67.1104 62.9826C66.9871 63.0653 66.9073 63.1577 66.8709 63.2598C66.8345 63.3618 66.8408 63.4647 66.8897 63.5686C66.9387 63.6725 67.0287 63.7682 67.1599 63.8557ZM68.6553 68.6712C68.2633 68.4079 68.0214 68.1172 67.9294 67.7993C67.839 67.4824 67.8993 67.151 68.1105 66.805C68.3232 66.4601 68.686 66.1164 69.1988 65.774C69.7086 65.4316 70.2186 65.1901 70.7287 65.0496C71.2404 64.91 71.7309 64.8715 72.2003 64.9339C72.6727 64.9963 73.1049 65.1581 73.4969 65.4195C73.8889 65.6808 74.1316 65.9689 74.2251 66.2838C74.3201 66.5996 74.2643 66.929 74.0577 67.2719C73.8526 67.6138 73.4944 67.9554 72.983 68.2968C72.4702 68.6412 71.9557 68.8848 71.4394 69.0274C70.9247 69.171 70.4304 69.2131 69.9565 69.1538C69.4826 69.0944 69.0489 68.9336 68.6553 68.6712ZM69.4748 68.1208C69.7433 68.2998 70.0922 68.3522 70.5217 68.2781C70.9513 68.2039 71.4346 67.9855 71.9718 67.6226C72.3264 67.3845 72.585 67.1618 72.7476 66.9546C72.9118 66.7483 72.9869 66.5611 72.9729 66.3929C72.9604 66.2258 72.865 66.0827 72.6865 65.9637C72.4196 65.7858 72.0729 65.7329 71.6464 65.805C71.22 65.877 70.7404 66.0909 70.2078 66.4466C69.8487 66.6878 69.5847 66.9131 69.416 67.1224C69.2503 67.3317 69.1736 67.5209 69.1861 67.6901C69.2001 67.8583 69.2963 68.0019 69.4748 68.1208ZM74.7979 71.4557L75.0444 71.2901C75.2316 71.1644 75.4432 71.0753 75.6792 71.0229C75.9183 70.9705 76.1613 70.9635 76.4082 71.0018C76.6581 71.0401 76.8937 71.133 77.1148 71.2804C77.3391 71.4299 77.4803 71.5872 77.5384 71.7522C77.5981 71.9183 77.5877 72.0804 77.5073 72.2386C77.4298 72.3967 77.2968 72.5392 77.1081 72.6659L76.8616 72.8315C76.6744 72.9572 76.462 73.0468 76.2244 73.1002C75.9884 73.1526 75.7461 73.1591 75.4977 73.1198C75.2478 73.0815 75.0123 72.9886 74.7911 72.8412C74.5669 72.6917 74.4264 72.5339 74.3698 72.3678C74.3116 72.2028 74.3212 72.0412 74.3987 71.883C74.4776 71.7239 74.6107 71.5814 74.7979 71.4557ZM75.7102 71.734L75.4636 71.8996C75.3556 71.9721 75.2796 72.0579 75.2355 72.1569C75.1931 72.2568 75.2412 72.3531 75.38 72.4456C75.5188 72.5382 75.6606 72.5695 75.8052 72.5397C75.9515 72.5109 76.0801 72.4592 76.1912 72.3846L76.4377 72.219C76.5488 72.1444 76.6279 72.0586 76.6749 71.9617C76.722 71.8648 76.6739 71.7685 76.5305 71.6729C76.3932 71.5814 76.2499 71.5501 76.1007 71.5789C75.9514 71.6077 75.8213 71.6594 75.7102 71.734ZM75.0685 68.0558L75.3151 67.8902C75.5038 67.7635 75.7169 67.6744 75.9545 67.623C76.1936 67.5706 76.4366 67.5636 76.6835 67.6019C76.9319 67.6412 77.1651 67.7336 77.3832 67.879C77.609 68.0295 77.7509 68.1873 77.8091 68.3523C77.8673 68.5174 77.8569 68.6795 77.778 68.8387C77.7005 68.9968 77.5675 69.1393 77.3788 69.266L77.1322 69.4316C76.9435 69.5583 76.7304 69.6474 76.4928 69.6988C76.2568 69.7512 76.0145 69.7577 75.7661 69.7184C75.5208 69.679 75.2867 69.5851 75.064 69.4367C74.8414 69.2882 74.7002 69.131 74.6405 68.9649C74.5838 68.7988 74.5934 68.6372 74.6693 68.4801C74.7483 68.3229 74.8814 68.1815 75.0685 68.0558ZM75.9854 68.3371L75.7389 68.5027C75.6278 68.5773 75.551 68.6636 75.5085 68.7615C75.4676 68.8605 75.5142 68.9547 75.6484 69.0442C75.7887 69.1378 75.9312 69.1696 76.0759 69.1398C76.2221 69.111 76.3508 69.0593 76.4619 68.9847L76.7084 68.8191C76.8195 68.7445 76.8986 68.6587 76.9456 68.5618C76.9927 68.4649 76.9438 68.3681 76.7989 68.2715C76.6631 68.181 76.5206 68.1512 76.3714 68.182C76.2221 68.2129 76.0935 68.2646 75.9854 68.3371ZM71.8187 70.6427L79.715 69.6504L80.3144 70.0501L72.4181 71.0423L71.8187 70.6427Z" fill="black"/>
<path d="M83.5361 84.4371L86.0861 82.7244L87.1094 83.4066C87.2974 83.532 87.4265 83.6552 87.4965 83.7763C87.5665 83.8974 87.5837 84.0122 87.5482 84.1207C87.5134 84.2287 87.4322 84.3256 87.3043 84.4114C87.2047 84.4783 87.0972 84.5238 86.9817 84.5479C86.8671 84.5715 86.7508 84.5761 86.6327 84.5619C86.5164 84.5476 86.4037 84.5175 86.2948 84.4715L86.2699 84.4883C86.363 84.5559 86.4268 84.6351 86.461 84.7257C86.496 84.8168 86.4945 84.9108 86.4565 85.0076C86.4193 85.1039 86.338 85.1941 86.2126 85.2783C86.0773 85.3691 85.9229 85.4278 85.7492 85.4542C85.5772 85.4807 85.3952 85.471 85.2032 85.4251C85.0112 85.3793 84.8195 85.2926 84.6281 85.1651L83.5361 84.4371ZM84.5173 84.5013L84.9578 84.795C85.1084 84.8954 85.2468 84.9493 85.3732 84.9569C85.5003 84.9639 85.612 84.9351 85.7083 84.8704C85.7789 84.823 85.8241 84.7699 85.8439 84.7109C85.8638 84.6519 85.8574 84.591 85.8249 84.5282C85.7932 84.466 85.7341 84.4061 85.6476 84.3484L85.1946 84.0464L84.5173 84.5013ZM85.5594 83.8013L85.96 84.0684C86.034 84.1178 86.1126 84.1529 86.1958 84.1739C86.2806 84.1949 86.3637 84.2003 86.4451 84.1902C86.5274 84.1806 86.6021 84.1532 86.6693 84.1081C86.7615 84.0462 86.8029 83.9744 86.7936 83.8926C86.7852 83.8115 86.721 83.731 86.6012 83.6511L86.1907 83.3774L85.5594 83.8013ZM88.9498 84.6336L86.3999 86.3462L85.8595 85.986L88.4095 84.2734L88.9498 84.6336ZM88.8526 85.1636L89.2971 84.8651L91.3961 86.2645L90.9516 86.563L90.1692 86.0414L88.0637 87.4555L87.5296 87.0994L89.635 85.6853L88.8526 85.1636ZM92.9875 88.5201L92.4409 88.1557C92.5014 88.1016 92.5437 88.046 92.5677 87.9886C92.5925 87.9308 92.6003 87.8727 92.5911 87.8143C92.5819 87.7559 92.556 87.6987 92.5135 87.6426C92.4719 87.587 92.4144 87.5349 92.3412 87.4861C92.2089 87.3979 92.0609 87.3431 91.8972 87.3217C91.7343 87.2997 91.5635 87.3125 91.3849 87.3601C91.2072 87.4071 91.0299 87.49 90.8531 87.6087C90.6713 87.7308 90.5456 87.8514 90.476 87.9706C90.4072 88.0902 90.3904 88.204 90.4255 88.3118C90.4606 88.4196 90.5426 88.5165 90.6716 88.6025C90.7439 88.6507 90.8205 88.689 90.9011 88.7172C90.9826 88.746 91.0657 88.7642 91.1505 88.7718C91.2361 88.7789 91.3213 88.7751 91.406 88.7605C91.4916 88.7465 91.5747 88.7208 91.6552 88.6834L92.1993 89.0494C92.0681 89.1186 91.9199 89.1709 91.7546 89.2062C91.5909 89.2415 91.4189 89.2563 91.2386 89.2504C91.0599 89.2446 90.8804 89.2149 90.6999 89.1613C90.5212 89.1077 90.3498 89.0262 90.1859 88.9169C89.958 88.765 89.8056 88.5945 89.7288 88.4056C89.6529 88.2172 89.6605 88.0228 89.7515 87.8225C89.8434 87.6227 90.028 87.4297 90.3052 87.2435C90.5833 87.0567 90.8723 86.9328 91.1722 86.8717C91.4721 86.8105 91.7629 86.8056 92.0447 86.8568C92.3274 86.9075 92.581 87.0077 92.8056 87.1575C92.9537 87.2562 93.0702 87.3616 93.1552 87.4738C93.241 87.5866 93.2931 87.7024 93.3116 87.8214C93.3309 87.9398 93.3141 88.058 93.2611 88.176C93.209 88.2945 93.1177 88.4092 92.9875 88.5201ZM95.3414 90.6009C95.0633 90.7877 94.7739 90.9113 94.4732 90.9719C94.1733 91.033 93.8812 91.0377 93.5969 90.9859C93.3142 90.9342 93.0602 90.8331 92.8347 90.6828C92.6076 90.5314 92.4552 90.3609 92.3776 90.1714C92.3 89.9819 92.3063 89.7868 92.3966 89.5859C92.4868 89.385 92.6705 89.1914 92.9478 89.0052C93.2258 88.8184 93.5148 88.6945 93.8147 88.6334C94.1146 88.5722 94.4059 88.5676 94.6885 88.6193C94.972 88.6706 95.2273 88.7719 95.4544 88.9233C95.6799 89.0736 95.8314 89.2435 95.909 89.433C95.9883 89.6225 95.9828 89.8177 95.8926 90.0186C95.8032 90.22 95.6194 90.4142 95.3414 90.6009ZM94.7935 90.2357C94.9736 90.1147 95.0985 89.9947 95.1681 89.8755C95.2385 89.757 95.257 89.6438 95.2236 89.536C95.1902 89.4281 95.1082 89.3307 94.9775 89.2436C94.8469 89.1565 94.701 89.102 94.5397 89.08C94.3785 89.0581 94.209 89.0706 94.0312 89.1176C93.8543 89.1652 93.6758 89.2495 93.4956 89.3704C93.3155 89.4914 93.1902 89.6112 93.1198 89.7297C93.0502 89.8489 93.0321 89.9623 93.0655 90.0702C93.099 90.178 93.181 90.2754 93.3116 90.3625C93.4422 90.4496 93.5882 90.5041 93.7494 90.5261C93.9107 90.548 94.0798 90.5352 94.2567 90.4877C94.4344 90.4407 94.6134 90.3567 94.7935 90.2357ZM97.557 90.3717L95.007 92.0843L94.4667 91.7241L97.0166 90.0114L97.557 90.3717ZM100.139 92.0932L97.5894 93.8059L97.1226 93.4947L97.6156 91.6755L97.5969 91.663L95.992 92.741L95.4516 92.3807L98.0016 90.6681L98.4758 90.9842L97.9753 92.7968L97.9978 92.8118L99.6014 91.7347L100.139 92.0932Z" fill="black"/>
<path d="M89.1527 82.0802L89.8649 81.6018L93.0735 81.6789C93.3524 81.6815 93.5946 81.678 93.8003 81.6685C94.0074 81.66 94.1887 81.6372 94.344 81.6003C94.5009 81.5623 94.641 81.5019 94.7642 81.4191C94.9012 81.3271 94.9878 81.227 95.0242 81.1189C95.0621 81.0098 95.0536 80.9012 94.9985 80.7932C94.945 80.6842 94.8496 80.584 94.7124 80.4925C94.569 80.3969 94.415 80.3329 94.2504 80.3006C94.0858 80.2682 93.9205 80.269 93.7545 80.303C93.5885 80.3369 93.4309 80.4039 93.2818 80.5041L92.3414 79.8772C92.6473 79.6718 92.9823 79.5397 93.3463 79.481C93.7103 79.4222 94.079 79.4348 94.4524 79.5188C94.8258 79.6028 95.1758 79.7536 95.5022 79.9712C95.8377 80.1949 96.0705 80.4295 96.2004 80.675C96.3334 80.9204 96.365 81.1594 96.2953 81.392C96.2256 81.6245 96.0561 81.8313 95.7868 82.0122C95.6102 82.1308 95.4009 82.2244 95.1588 82.2931C94.9182 82.3629 94.6044 82.4093 94.2175 82.4324C93.8321 82.4544 93.3324 82.4563 92.7183 82.438L91.3654 82.4311L91.3335 82.4526L93.3011 83.7643L92.493 84.3071L89.1527 82.0802ZM94.9453 86.0794C94.5533 85.8161 94.3114 85.5254 94.2194 85.2075C94.129 84.8906 94.1893 84.5592 94.4005 84.2132C94.6132 83.8682 94.976 83.5246 95.4888 83.1822C95.9986 82.8398 96.5086 82.5983 97.0187 82.4578C97.5304 82.3182 98.0209 82.2797 98.4903 82.3421C98.9627 82.4045 99.3949 82.5663 99.7869 82.8277C100.179 83.089 100.422 83.3771 100.515 83.6919C100.61 84.0078 100.554 84.3372 100.348 84.6801C100.143 85.022 99.7844 85.3636 99.273 85.705C98.7602 86.0494 98.2457 86.2929 97.7294 86.4355C97.2147 86.5791 96.7204 86.6213 96.2465 86.5619C95.7726 86.5026 95.3389 86.3418 94.9453 86.0794ZM95.7648 85.529C96.0333 85.708 96.3822 85.7604 96.8118 85.6863C97.2413 85.6121 97.7246 85.3936 98.2618 85.0308C98.6164 84.7927 98.875 84.57 99.0376 84.3627C99.2018 84.1565 99.2769 83.9693 99.2629 83.8011C99.2504 83.634 99.155 83.4909 98.9765 83.3719C98.7096 83.194 98.3629 83.141 97.9364 83.2131C97.51 83.2852 97.0304 83.4991 96.4978 83.8548C96.1387 84.096 95.8747 84.3213 95.706 84.5306C95.5403 84.7398 95.4636 84.9291 95.4761 85.0983C95.4901 85.2665 95.5864 85.4101 95.7648 85.529ZM101.088 88.8639L101.334 88.6983C101.522 88.5726 101.733 88.4835 101.969 88.4311C102.208 88.3787 102.451 88.3717 102.698 88.41C102.948 88.4483 103.184 88.5412 103.405 88.6886C103.629 88.8381 103.77 88.9954 103.828 89.1604C103.888 89.3265 103.878 89.4886 103.797 89.6468C103.72 89.8049 103.587 89.9474 103.398 90.0741L103.152 90.2397C102.964 90.3654 102.752 90.455 102.514 90.5084C102.278 90.5608 102.036 90.5673 101.788 90.528C101.538 90.4897 101.302 90.3968 101.081 90.2494C100.857 90.0999 100.716 89.9421 100.66 89.776C100.602 89.611 100.611 89.4494 100.689 89.2912C100.768 89.132 100.901 88.9896 101.088 88.8639ZM102 89.1422L101.754 89.3077C101.646 89.3803 101.57 89.4661 101.526 89.565C101.483 89.665 101.531 89.7613 101.67 89.8538C101.809 89.9463 101.951 89.9777 102.095 89.9479C102.241 89.9191 102.37 89.8674 102.481 89.7928L102.728 89.6272C102.839 89.5526 102.918 89.4668 102.965 89.3699C103.012 89.273 102.964 89.1767 102.82 89.0811C102.683 88.9896 102.54 88.9582 102.391 88.987C102.241 89.0158 102.111 89.0675 102 89.1422ZM101.359 85.464L101.605 85.2984C101.794 85.1717 102.007 85.0826 102.244 85.0312C102.484 84.9788 102.727 84.9718 102.973 85.0101C103.222 85.0494 103.455 85.1418 103.673 85.2872C103.899 85.4377 104.041 85.5955 104.099 85.7605C104.157 85.9256 104.147 86.0877 104.068 86.2469C103.991 86.405 103.857 86.5475 103.669 86.6742L103.422 86.8398C103.234 86.9665 103.02 87.0556 102.783 87.107C102.547 87.1594 102.305 87.1659 102.056 87.1266C101.811 87.0872 101.577 86.9933 101.354 86.8449C101.131 86.6964 100.99 86.5391 100.93 86.3731C100.874 86.207 100.883 86.0454 100.959 85.8883C101.038 85.7311 101.171 85.5897 101.359 85.464ZM102.275 85.7453L102.029 85.9109C101.918 85.9855 101.841 86.0718 101.799 86.1697C101.758 86.2687 101.804 86.3629 101.938 86.4524C102.079 86.5459 102.221 86.5778 102.366 86.548C102.512 86.5192 102.641 86.4675 102.752 86.3929L102.998 86.2273C103.109 86.1527 103.189 86.0669 103.236 85.97C103.283 85.8731 103.234 85.7763 103.089 85.6797C102.953 85.5892 102.811 85.5594 102.661 85.5902C102.512 85.621 102.383 85.6727 102.275 85.7453ZM98.1087 88.0509L106.005 87.0586L106.604 87.4582L98.7082 88.4505L98.1087 88.0509Z" fill="black"/>
<rect width="60.0178" height="52.1791" rx="6.37196" transform="matrix(0.83205 0.5547 -0.830139 0.557556 50.8438 10.3047)" fill="#D9D9D9" fill-opacity="0.4"/>
<path d="M48.5423 4.46212C51.3793 2.57578 55.9579 2.57624 58.786 4.46315L100.57 32.3408L100.499 33.9808C100.446 35.2136 99.6944 36.3874 98.3965 37.2641L65.4256 59.5363C62.5944 61.4488 57.9831 61.46 55.1393 59.5613L15.5406 33.1226C14.1778 32.2127 13.4121 30.977 13.4121 29.6879L13.4121 27.8202L48.5423 4.46212Z" fill="white" stroke="black" stroke-width="0.389479"/>
<rect x="8.34074e-05" y="0.0485429" width="59.9305" height="52.0918" rx="6.32832" transform="matrix(0.83205 0.5547 -0.830139 0.557556 53.7122 -0.978569)" fill="white" stroke="black" stroke-width="0.0872872"/>
<path d="M37.6426 35.6379C36.5642 34.919 35.7887 34.1545 35.316 33.3444C34.853 32.5343 34.7049 31.7478 34.8719 30.9849C35.0486 30.222 35.5595 29.547 36.4049 28.9599L39.5534 31.0589C39.2124 31.3137 39.0134 31.6053 38.9562 31.9336C38.9087 32.2619 38.9934 32.598 39.2104 32.9419C39.4274 33.2859 39.7646 33.6103 40.222 33.9152C40.6986 34.2329 41.2039 34.4573 41.7379 34.5883C42.2719 34.7193 42.7913 34.7538 43.2961 34.6918C43.8009 34.6298 44.2479 34.4682 44.6369 34.2069C45.0308 33.9423 45.2683 33.6346 45.3494 33.2837C45.4402 32.9328 45.3674 32.5629 45.1311 32.174C44.8997 31.7882 44.5047 31.4092 43.9462 31.0369L42.5669 30.1174L44.8581 28.5785L46.2374 29.4981C46.7092 29.8126 47.2073 30.0354 47.7317 30.1664C48.2609 30.3006 48.7707 30.3384 49.2611 30.2796C49.7563 30.2176 50.1984 30.056 50.5874 29.7947C50.9573 29.5463 51.1925 29.2691 51.2929 28.9633C51.403 28.6574 51.3784 28.3453 51.2192 28.027C51.0647 27.7119 50.7781 27.4148 50.3593 27.1355C49.9356 26.8531 49.4712 26.6463 48.9661 26.5153C48.4657 26.381 47.9703 26.3368 47.4799 26.3827C46.9895 26.4286 46.5497 26.5725 46.1606 26.8145L43.1637 24.8166C44.0283 24.2552 45.0208 23.914 46.141 23.793C47.2613 23.6721 48.4035 23.7554 49.5677 24.043C50.7416 24.3306 51.834 24.8114 52.845 25.4854C53.8656 26.1658 54.5737 26.8854 54.9694 27.6441C55.365 28.4028 55.46 29.1347 55.2545 29.8397C55.0585 30.5448 54.5691 31.157 53.7861 31.6764C52.9648 32.2345 52.0179 32.5257 50.9456 32.5501C49.8781 32.5777 48.8559 32.3655 47.8789 31.9134L47.7636 31.9909C48.7124 32.8098 49.1634 33.6151 49.1167 34.4067C49.0796 35.1984 48.5999 35.9007 47.6776 36.5136C46.8419 37.0814 45.8519 37.421 44.7076 37.5323C43.5681 37.6469 42.3825 37.5444 41.1509 37.2247C39.9193 36.9051 38.7499 36.3761 37.6426 35.6379ZM66.9724 35.1736L52.2168 45.0841L49.09 42.9995L60.8843 35.0779L60.7977 35.0201L55.2926 34.1849L58.0593 32.3267L64.0333 33.2142L66.9724 35.1736Z" fill="black"/>
<path d="M48.4186 2.57694C51.3199 0.628259 56.0294 0.620167 58.9374 2.55886L98.2717 28.7817C101.18 30.7204 101.185 33.8717 98.2838 35.8204L87.9002 42.7945L38.035 9.55097L48.4186 2.57694Z" fill="#EA5F5F" stroke="black" stroke-width="0.0872872"/>
<path fill-rule="evenodd" clip-rule="evenodd" d="M56.0667 56.2976L55.6142 55.8999L15.7809 29.4173L15.125 29.0781L15.1614 29.1023L56.033 56.2752L56.0667 56.2976Z" fill="black"/>
<path fill-rule="evenodd" clip-rule="evenodd" d="M55.2757 2.18577L55.312 2.20995L96.1837 29.3828L96.22 29.407L96.1475 29.4556L96.1111 29.4314L55.2395 2.25855L55.2031 2.23437L55.2757 2.18577Z" fill="black"/>
<path fill-rule="evenodd" clip-rule="evenodd" d="M16.857 24.1352L16.8932 24.1109L49.0857 2.54855L49.122 2.52425L49.1947 2.5726L49.1938 2.57321L49.1239 2.52671L48.6171 2.86615L49.183 2.58041L49.1584 2.5969L16.966 24.1593L16.9297 24.1836L17.4213 23.7589L16.8582 24.1361L16.857 24.1352Z" fill="black"/>
<path fill-rule="evenodd" clip-rule="evenodd" d="M63.7007 55.2798L63.737 55.2555L95.9294 33.6931L95.9657 33.6688L96.0385 33.7171L96.0375 33.7177L95.9676 33.6712L95.4608 34.0107L96.0268 33.7249L96.0022 33.7414L63.8097 55.3038L63.7734 55.3281L64.2651 54.9035L63.702 55.2806L63.7007 55.2798Z" fill="black"/>
</svg>
