<svg width="145" height="217" viewBox="0 0 145 217" fill="none" xmlns="http://www.w3.org/2000/svg">
<ellipse cx="43.5894" cy="129.232" rx="46.1849" ry="9.20364" transform="rotate(33.4999 43.5894 129.232)" fill="#D9D9D9" fill-opacity="0.3"/>
<ellipse cx="100.66" cy="183.142" rx="46.1849" ry="9.20364" transform="rotate(33.4999 100.66 183.142)" fill="#D9D9D9" fill-opacity="0.3"/>
<path fill-rule="evenodd" clip-rule="evenodd" d="M26.0095 4.14698C22.5741 1.85667 19.7891 3.34715 19.7891 7.47607V44.4827C19.7891 48.6116 22.5741 53.8154 26.0095 56.1057L27.5175 57.111C28.2107 57.5731 28.7702 58.6271 28.7614 59.4544L28.6889 66.3139C28.6754 67.5909 29.9296 69.1321 30.7423 68.8372L39.6941 65.5885C39.9196 65.5066 40.2067 65.5705 40.5035 65.7684L86.9701 96.7461C90.4056 99.0364 93.1906 97.5459 93.1906 93.417V56.4104C93.1906 52.2815 90.4056 47.0777 86.9702 44.7874L26.0095 4.14698Z" fill="#E1E1E1"/>
<mask id="path-4-inside-1_2774_18719" fill="white">
<path fill-rule="evenodd" clip-rule="evenodd" d="M19.9861 5.00636C16.5506 2.71604 13.7656 4.20653 13.7656 8.33545V45.342C13.7656 49.4709 16.5506 54.6748 19.9861 56.9651L21.494 57.9704C22.1873 58.4325 22.7468 59.4865 22.738 60.3138L22.6655 67.1733C22.652 68.4503 23.9062 69.9915 24.7189 69.6966L33.6707 66.4478C33.8961 66.366 34.1832 66.4298 34.4801 66.6277L80.9467 97.6055C84.3822 99.8958 87.1672 98.4053 87.1672 94.2764V57.2698C87.1672 53.1409 84.3822 47.9371 80.9467 45.6468L19.9861 5.00636Z"/>
</mask>
<path fill-rule="evenodd" clip-rule="evenodd" d="M19.9861 5.00636C16.5506 2.71604 13.7656 4.20653 13.7656 8.33545V45.342C13.7656 49.4709 16.5506 54.6748 19.9861 56.9651L21.494 57.9704C22.1873 58.4325 22.7468 59.4865 22.738 60.3138L22.6655 67.1733C22.652 68.4503 23.9062 69.9915 24.7189 69.6966L33.6707 66.4478C33.8961 66.366 34.1832 66.4298 34.4801 66.6277L80.9467 97.6055C84.3822 99.8958 87.1672 98.4053 87.1672 94.2764V57.2698C87.1672 53.1409 84.3822 47.9371 80.9467 45.6468L19.9861 5.00636Z" fill="white"/>
<path d="M19.9861 5.00636V4.00636V5.00636ZM80.9467 97.6055V98.6055V97.6055ZM80.9467 45.6468V46.6468V45.6468ZM33.6707 66.4478L34.212 67.5682L33.6707 66.4478ZM34.4801 66.6277V65.6277V66.6277ZM24.7189 69.6966L24.1775 68.5763L24.7189 69.6966ZM22.738 60.3138L21.906 59.7465L22.738 60.3138ZM14.5977 8.89015C14.5977 5.31351 17.0102 4.02239 19.9861 6.00636V4.00636C16.0911 1.40969 12.9336 3.09954 12.9336 7.78075L14.5977 8.89015ZM14.5977 45.8967V8.89015L12.9336 7.78075V44.7873L14.5977 45.8967ZM19.9861 55.9651C17.0101 53.9811 14.5977 49.4734 14.5977 45.8967L12.9336 44.7873C12.9336 49.4685 16.0911 55.3684 19.9861 57.9651V55.9651ZM21.494 56.9704L19.9861 55.9651V57.9651L21.494 58.9704V56.9704ZM23.4975 67.7405L23.57 60.881L21.906 59.7465L21.8335 66.606L23.4975 67.7405ZM33.1294 65.3275L24.1775 68.5763L25.2602 70.8169L34.212 67.5682L33.1294 65.3275ZM80.9467 96.6055L34.4801 65.6277V67.6277L80.9467 98.6055V96.6055ZM86.3351 93.7217C86.3351 97.2983 83.9227 98.5895 80.9467 96.6055V98.6055C84.8417 101.202 87.9992 99.5123 87.9992 94.8311L86.3351 93.7217ZM86.3351 56.7151V93.7217L87.9992 94.8311V57.8245L86.3351 56.7151ZM80.9467 46.6468C83.9227 48.6307 86.3351 53.1385 86.3351 56.7151L87.9992 57.8245C87.9992 53.1433 84.8417 47.2434 80.9467 44.6468V46.6468ZM19.9861 6.00636L80.9467 46.6468V44.6468L19.9861 4.00636V6.00636ZM34.212 67.5682C34.2867 67.5411 34.3818 67.5622 34.4801 67.6277V65.6277C33.9847 65.2975 33.5056 65.191 33.1294 65.3275L34.212 67.5682ZM21.8335 66.606C21.811 68.7371 23.9039 71.3091 25.2602 70.8169L24.1775 68.5763C23.9084 68.6739 23.493 68.1635 23.4975 67.7405L21.8335 66.606ZM21.494 58.9704C21.7236 59.1234 21.9089 59.4725 21.906 59.7465L23.57 60.881C23.5846 59.5005 22.6509 57.7416 21.494 56.9704V58.9704Z" fill="black" mask="url(#path-4-inside-1_2774_18719)"/>
<path fill-rule="evenodd" clip-rule="evenodd" d="M74.8262 82.4349C68.5407 78.2446 63.4453 80.9716 63.4453 88.5258V122.113C63.4453 129.667 68.5407 139.188 74.8262 143.379L114.951 170.129L127.156 190.968C127.893 192.227 129.039 192.361 129.039 191.19L129.039 179.483C134.928 182.887 139.571 180.074 139.571 172.863V139.276C139.571 131.722 134.475 122.201 128.19 118.011L74.8262 82.4349Z" fill="#D3D3D3"/>
<mask id="path-7-inside-2_2774_18719" fill="white">
<path fill-rule="evenodd" clip-rule="evenodd" d="M68.4434 83.8021C62.1579 79.6118 57.0625 82.3387 57.0625 89.893V123.48C57.0625 131.035 62.1579 140.555 68.4434 144.746L108.568 171.496L120.773 192.335C121.51 193.594 122.656 193.729 122.656 192.557L122.656 180.85C128.545 184.254 133.188 181.442 133.188 174.231V140.643C133.188 133.089 128.093 123.568 121.807 119.378L68.4434 83.8021Z"/>
</mask>
<path fill-rule="evenodd" clip-rule="evenodd" d="M68.4434 83.8021C62.1579 79.6118 57.0625 82.3387 57.0625 89.893V123.48C57.0625 131.035 62.1579 140.555 68.4434 144.746L108.568 171.496L120.773 192.335C121.51 193.594 122.656 193.729 122.656 192.557L122.656 180.85C128.545 184.254 133.188 181.442 133.188 174.231V140.643C133.188 133.089 128.093 123.568 121.807 119.378L68.4434 83.8021Z" fill="white"/>
<path d="M68.4434 83.8021V82.8021V83.8021ZM68.4434 144.746V143.746V144.746ZM108.568 171.496L109.113 171.103L108.879 170.702L108.568 170.496V171.496ZM120.773 192.335L121.318 191.943L120.773 192.335ZM122.656 192.557L123.488 193.111L122.656 192.557ZM122.656 180.85L122.595 179.812L121.824 179.366V180.295L122.656 180.85ZM121.807 119.378V120.378V119.378ZM57.8946 90.4477C57.8946 83.4457 62.6174 80.9181 68.4434 84.8021V82.8021C61.6984 78.3054 56.2304 81.2318 56.2304 89.3383L57.8946 90.4477ZM57.8946 124.035V90.4477L56.2304 89.3383V122.926L57.8946 124.035ZM68.4434 143.746C62.6174 139.862 57.8946 131.037 57.8946 124.035L56.2304 122.926C56.2304 131.032 61.6984 141.249 68.4434 145.746V143.746ZM108.568 170.496L68.4434 143.746V145.746L108.568 172.496V170.496ZM121.318 191.943L109.113 171.103L108.024 171.888L120.228 192.728L121.318 191.943ZM121.824 192.002C121.824 192.317 121.516 192.281 121.318 191.943L120.228 192.728C121.504 194.907 123.488 195.14 123.488 193.111L121.824 192.002ZM121.824 180.295L121.824 192.002L123.488 193.111L123.488 181.405L121.824 180.295ZM132.356 173.676C132.356 180.359 128.053 182.967 122.595 179.812L122.717 181.888C129.038 185.541 134.02 182.524 134.02 174.785L132.356 173.676ZM132.356 140.089V173.676L134.02 174.785V141.198L132.356 140.089ZM121.807 120.378C127.633 124.262 132.356 133.087 132.356 140.089L134.02 141.198C134.02 133.091 128.552 122.875 121.807 118.378V120.378ZM68.4434 84.8021L121.807 120.378V118.378L68.4434 82.8021V84.8021Z" fill="black" mask="url(#path-7-inside-2_2774_18719)"/>
<path d="M30.0469 43.3919V28.3758L32.6884 30.1369V36.3325L38.0509 39.9075V33.7119L40.6864 35.4689V50.4849L38.0509 48.7279V42.525L32.6884 38.95V45.153L30.0469 43.3919ZM47.086 54.9713C46.1221 54.3287 45.2924 53.5409 44.5969 52.608C43.9055 51.673 43.3727 50.6481 42.9985 49.5335C42.6244 48.4139 42.4373 47.2603 42.4373 46.0725C42.4373 44.914 42.6244 44.022 42.9985 43.3965C43.3727 42.771 43.8994 42.4403 44.5786 42.4043C45.2619 42.371 46.0631 42.6607 46.9823 43.2735C47.6005 43.6856 48.176 44.189 48.7087 44.7837C49.2456 45.3763 49.7133 46.0425 50.1119 46.7823C50.5145 47.5249 50.8277 48.33 51.0514 49.1977C51.2751 50.0605 51.3869 50.9709 51.3869 51.9289V52.7868L43.4744 47.5118V45.5761L48.9406 49.2202C48.9406 48.7705 48.8592 48.3179 48.6965 47.8624C48.5339 47.4069 48.3081 46.9851 48.0194 46.5971C47.7347 46.2069 47.4032 45.8857 47.025 45.6336C46.6305 45.3705 46.2807 45.2473 45.9757 45.264C45.6747 45.2784 45.4388 45.412 45.268 45.6647C45.0972 45.9125 45.0097 46.2575 45.0056 46.6996V48.5399C45.0056 49.0972 45.0911 49.6356 45.2619 50.1552C45.4368 50.6775 45.6828 51.1543 46.0001 51.5858C46.3173 52.0173 46.6935 52.378 47.1287 52.6682C47.4174 52.8607 47.6818 52.988 47.9218 53.0502C48.1617 53.1125 48.3671 53.1027 48.5379 53.0211C48.7087 52.9394 48.8389 52.7867 48.9284 52.5628L51.332 54.3559C51.21 54.9687 50.9599 55.408 50.5816 55.674C50.2075 55.9378 49.7235 56.016 49.1297 55.9085C48.54 55.7989 47.8587 55.4865 47.086 54.9713ZM55.6818 45.4658V60.4819L53.0829 58.7493V43.7332L55.6818 45.4658ZM60.3625 48.5863V63.6024L57.7636 61.8698V46.8537L60.3625 48.5863ZM66.6782 68.0328C65.7306 67.401 64.9111 66.6127 64.2197 65.6679C63.5323 64.7208 63.0016 63.6876 62.6274 62.568C62.2532 61.4436 62.0661 60.3046 62.0661 59.1511C62.0661 57.9877 62.2532 57.0957 62.6274 56.4751C63.0016 55.8496 63.5323 55.524 64.2197 55.4983C64.9111 55.4704 65.7306 55.7724 66.6782 56.4041C67.6258 57.0359 68.4433 57.8253 69.1307 58.7723C69.8221 59.7172 70.3549 60.7518 70.729 61.8762C71.1032 62.9957 71.2903 64.1372 71.2903 65.3005C71.2903 66.4541 71.1032 67.3436 70.729 67.9691C70.3549 68.5898 69.8221 68.914 69.1307 68.9419C68.4433 68.9676 67.6258 68.6645 66.6782 68.0328ZM66.6904 65.6213C67.1215 65.9087 67.4815 66.0021 67.7702 65.9013C68.059 65.7956 68.2766 65.535 68.423 65.1193C68.5735 64.7064 68.6487 64.1725 68.6487 63.5175C68.6487 62.8625 68.5735 62.2282 68.423 61.6146C68.2766 61.0038 68.059 60.453 67.7702 59.9623C67.4815 59.4716 67.1215 59.0826 66.6904 58.7952C66.2552 58.5051 65.8892 58.4101 65.5923 58.5104C65.2995 58.6133 65.0778 58.8712 64.9273 59.2842C64.7809 59.6998 64.7077 60.2351 64.7077 60.8901C64.7077 61.5451 64.7809 62.178 64.9273 62.7889C65.0778 63.4025 65.2995 63.9559 65.5923 64.4493C65.8892 64.9405 66.2552 65.3312 66.6904 65.6213Z" fill="black"/>
<path d="M70.4956 109.917V119.928L68.9745 118.914L65.3507 110.197L65.2897 110.157V116.457L63.5286 115.283V105.273L65.0741 106.303L68.6694 114.996L68.7427 115.045V108.749L70.4956 109.917ZM74.765 122.921C74.1224 122.493 73.5693 121.967 73.1056 121.345C72.6447 120.722 72.2895 120.039 72.0401 119.296C71.7906 118.549 71.6659 117.78 71.6659 116.988C71.6659 116.216 71.7906 115.621 72.0401 115.204C72.2895 114.787 72.6406 114.567 73.0934 114.543C73.549 114.521 74.0831 114.714 74.6959 115.122C75.108 115.397 75.4917 115.733 75.8469 116.129C76.2048 116.524 76.5166 116.968 76.7823 117.462C77.0507 117.957 77.2595 118.493 77.4086 119.072C77.5578 119.647 77.6323 120.254 77.6323 120.893V121.465L72.3573 117.948V116.658L76.0014 119.087C76.0014 118.787 75.9472 118.485 75.8387 118.182C75.7303 117.878 75.5798 117.597 75.3873 117.338C75.1975 117.078 74.9765 116.864 74.7243 116.696C74.4613 116.52 74.2282 116.438 74.0248 116.449C73.8242 116.459 73.6669 116.548 73.553 116.717C73.4391 116.882 73.3808 117.112 73.3781 117.407V118.633C73.3781 119.005 73.4351 119.364 73.549 119.71C73.6655 120.058 73.8296 120.376 74.0411 120.664C74.2526 120.952 74.5034 121.192 74.7935 121.386C74.986 121.514 75.1622 121.599 75.3222 121.64C75.4822 121.682 75.6191 121.675 75.733 121.621C75.8469 121.566 75.9336 121.465 75.9933 121.315L77.5957 122.511C77.5144 122.919 77.3476 123.212 77.0955 123.389C76.846 123.565 76.5234 123.617 76.1275 123.546C75.7343 123.473 75.2802 123.264 74.765 122.921ZM81.6099 127.484C80.9673 127.056 80.4142 126.531 79.9506 125.909C79.4896 125.285 79.1344 124.602 78.885 123.859C78.6355 123.113 78.5108 122.344 78.5108 121.552C78.5108 120.779 78.6355 120.185 78.885 119.768C79.1344 119.351 79.4856 119.13 79.9384 119.106C80.3939 119.084 80.928 119.277 81.5408 119.686C81.9529 119.96 82.3366 120.296 82.6918 120.693C83.0497 121.088 83.3615 121.532 83.6272 122.025C83.8957 122.52 84.1044 123.057 84.2536 123.635C84.4027 124.21 84.4773 124.817 84.4773 125.456V126.028L79.2022 122.511V121.221L82.8463 123.65C82.8463 123.35 82.7921 123.049 82.6837 122.745C82.5752 122.441 82.4247 122.16 82.2322 121.901C82.0424 121.641 81.8214 121.427 81.5693 121.259C81.3063 121.084 81.0731 121.002 80.8697 121.013C80.6691 121.022 80.5118 121.111 80.3979 121.28C80.2841 121.445 80.2258 121.675 80.2231 121.97V123.197C80.2231 123.568 80.28 123.927 80.3939 124.274C80.5105 124.622 80.6745 124.94 80.886 125.227C81.0975 125.515 81.3483 125.755 81.6384 125.949C81.8309 126.077 82.0072 126.162 82.1671 126.204C82.3271 126.245 82.464 126.239 82.5779 126.184C82.6918 126.13 82.7786 126.028 82.8382 125.879L84.4406 127.074C84.3593 127.483 84.1926 127.775 83.9404 127.953C83.6909 128.129 83.3683 128.181 82.9724 128.109C82.5793 128.036 82.1251 127.828 81.6099 127.484ZM87.9099 131.66C87.4354 131.343 87.0056 130.91 86.6206 130.36C86.2383 129.809 85.9346 129.171 85.7096 128.448C85.4872 127.723 85.3761 126.942 85.3761 126.104C85.3761 125.244 85.4913 124.605 85.7218 124.189C85.9523 123.769 86.2586 123.545 86.6409 123.516C87.026 123.486 87.4476 123.624 87.9058 123.929C88.2556 124.162 88.5471 124.428 88.7802 124.727C89.0161 125.024 89.2059 125.327 89.3496 125.635C89.4961 125.941 89.6072 126.22 89.6831 126.473L89.736 126.508V122.744L91.4645 123.897V133.907L89.7563 132.769V131.566L89.6831 131.517C89.6018 131.672 89.4866 131.802 89.3374 131.908C89.191 132.012 88.9999 132.052 88.764 132.029C88.5308 132.007 88.2461 131.884 87.9099 131.66ZM88.4589 130.369C88.7382 130.555 88.9741 130.621 89.1666 130.567C89.3618 130.511 89.511 130.352 89.614 130.088C89.7197 129.826 89.7726 129.472 89.7726 129.025C89.7726 128.579 89.7211 128.157 89.6181 127.759C89.515 127.361 89.3659 127.008 89.1707 126.698C88.9755 126.389 88.7382 126.141 88.4589 125.955C88.1742 125.765 87.9343 125.698 87.7391 125.754C87.5438 125.809 87.3961 125.968 87.2958 126.23C87.1954 126.493 87.1453 126.84 87.1453 127.274C87.1453 127.71 87.1954 128.13 87.2958 128.533C87.3988 128.934 87.5466 129.293 87.7391 129.61C87.9343 129.926 88.1742 130.179 88.4589 130.369ZM95.5723 136.646V126.635L97.3334 127.809V131.94L100.908 134.323V130.192L102.665 131.364V141.375L100.908 140.203V136.068L97.3334 133.685V137.82L95.5723 136.646ZM106.932 144.365C106.289 143.937 105.736 143.412 105.272 142.79C104.811 142.167 104.456 141.483 104.207 140.74C103.957 139.994 103.833 139.225 103.833 138.433C103.833 137.661 103.957 137.066 104.207 136.649C104.456 136.232 104.807 136.011 105.26 135.987C105.716 135.965 106.25 136.158 106.863 136.567C107.275 136.842 107.658 137.177 108.014 137.574C108.371 137.969 108.683 138.413 108.949 138.906C109.217 139.401 109.426 139.938 109.575 140.516C109.724 141.092 109.799 141.699 109.799 142.337V142.909L104.524 139.392V138.102L108.168 140.531C108.168 140.232 108.114 139.93 108.005 139.626C107.897 139.323 107.746 139.041 107.554 138.783C107.364 138.523 107.143 138.308 106.891 138.14C106.628 137.965 106.395 137.883 106.192 137.894C105.991 137.904 105.834 137.993 105.72 138.161C105.606 138.326 105.548 138.556 105.545 138.851V140.078C105.545 140.449 105.602 140.808 105.716 141.155C105.832 141.503 105.996 141.821 106.208 142.108C106.419 142.396 106.67 142.637 106.96 142.83C107.153 142.958 107.329 143.043 107.489 143.085C107.649 143.126 107.786 143.12 107.9 143.065C108.014 143.011 108.1 142.909 108.16 142.76L109.762 143.955C109.681 144.364 109.514 144.657 109.262 144.834C109.013 145.01 108.69 145.062 108.294 144.99C107.901 144.917 107.447 144.709 106.932 144.365ZM112.662 138.028V148.039L110.93 146.884V136.873L112.662 138.028ZM114.05 151.78V141.456L115.758 142.595V143.856L115.836 143.908C115.912 143.756 116.021 143.624 116.165 143.512C116.311 143.397 116.501 143.348 116.734 143.363C116.97 143.377 117.263 143.501 117.613 143.734C118.068 144.037 118.489 144.461 118.874 145.004C119.259 145.545 119.567 146.178 119.797 146.906C120.027 147.629 120.143 148.422 120.143 149.282C120.143 150.119 120.03 150.751 119.805 151.178C119.583 151.604 119.279 151.836 118.894 151.876C118.512 151.914 118.083 151.775 117.609 151.459C117.273 151.235 116.987 150.977 116.751 150.687C116.518 150.398 116.326 150.102 116.177 149.801C116.028 149.496 115.914 149.213 115.836 148.952L115.783 148.917V152.935L114.05 151.78ZM115.746 146.341C115.746 146.788 115.798 147.211 115.901 147.612C116.004 148.013 116.153 148.372 116.348 148.688C116.543 149 116.781 149.25 117.06 149.436C117.342 149.624 117.58 149.69 117.776 149.635C117.971 149.576 118.119 149.414 118.219 149.148C118.322 148.881 118.373 148.529 118.373 148.093C118.373 147.659 118.323 147.245 118.223 146.849C118.123 146.452 117.975 146.097 117.78 145.781C117.584 145.465 117.345 145.212 117.06 145.022C116.778 144.834 116.539 144.765 116.344 144.814C116.151 144.865 116.004 145.02 115.901 145.281C115.798 145.541 115.746 145.895 115.746 146.341ZM122.786 151.787V151.621C122.789 151.053 122.831 150.626 122.912 150.341C122.996 150.058 123.118 149.866 123.278 149.764C123.438 149.662 123.631 149.602 123.856 149.582C124.024 149.564 124.175 149.529 124.307 149.477C124.44 149.426 124.546 149.342 124.625 149.225C124.703 149.104 124.743 148.938 124.743 148.726C124.743 148.502 124.698 148.275 124.608 148.045C124.519 147.816 124.398 147.606 124.246 147.413C124.097 147.222 123.932 147.067 123.75 146.945C123.574 146.828 123.407 146.764 123.25 146.754C123.093 146.74 122.964 146.791 122.864 146.907C122.763 147.019 122.709 147.206 122.701 147.468L121.042 146.362C121.055 145.719 121.185 145.268 121.432 145.009C121.679 144.747 122.005 144.647 122.412 144.709C122.819 144.769 123.268 144.962 123.758 145.289C124.298 145.649 124.775 146.074 125.19 146.566C125.605 147.054 125.93 147.579 126.166 148.141C126.402 148.702 126.52 149.268 126.52 149.838C126.52 150.219 126.467 150.523 126.361 150.749C126.258 150.974 126.113 151.138 125.926 151.241C125.739 151.341 125.518 151.397 125.263 151.41C125.049 151.42 124.873 151.462 124.734 151.537C124.599 151.612 124.497 151.737 124.429 151.91C124.364 152.085 124.33 152.331 124.328 152.649V152.815L122.786 151.787ZM123.592 155.452C123.32 155.272 123.089 155.003 122.896 154.647C122.706 154.289 122.613 153.949 122.615 153.629C122.613 153.307 122.706 153.096 122.896 152.994C123.089 152.895 123.32 152.935 123.592 153.116C123.849 153.288 124.076 153.553 124.271 153.911C124.466 154.269 124.565 154.609 124.568 154.93C124.565 155.143 124.518 155.309 124.425 155.427C124.336 155.543 124.218 155.606 124.071 155.616C123.925 155.623 123.765 155.568 123.592 155.452Z" fill="#1D7EFF"/>
</svg>
