<svg width="66" height="48" viewBox="0 0 66 48" fill="none" xmlns="http://www.w3.org/2000/svg">
<path d="M55.5907 3.9971C51.3426 2.1298 46.8002 0.772675 42.0516 0C41.4685 0.99061 40.7872 2.32298 40.3173 3.38291C35.2693 2.66969 30.2678 2.66969 25.3125 3.38291C24.843 2.32298 24.1458 0.99061 23.5576 0C18.8037 0.772675 14.2564 2.13475 10.0084 4.007C1.44006 16.1715 -0.882681 28.0341 0.278673 39.7282C5.96162 43.7155 11.4691 46.1374 16.8835 47.7222C18.2205 45.9939 19.4128 44.1564 20.4401 42.2196C18.4836 41.5213 16.61 40.6595 14.8396 39.6587C15.3094 39.3321 15.7688 38.9902 16.2127 38.6385C27.011 43.3835 38.7429 43.3835 49.4124 38.6385C49.8613 38.9902 50.3207 39.3321 50.7851 39.6587C49.0097 40.6642 47.1307 41.526 45.1745 42.2246C46.2015 44.1564 47.3887 45.9987 48.7308 47.7273C54.1505 46.1425 59.663 43.7203 65.3461 39.7282C66.7087 26.1719 63.0182 14.4181 55.5907 3.9971ZM21.911 32.5366C18.6694 32.5366 16.0113 29.6932 16.0113 26.2312C16.0113 22.7692 18.6128 19.9211 21.911 19.9211C25.2093 19.9211 27.8674 22.7641 27.8107 26.2312C27.8161 29.6932 25.2093 32.5366 21.911 32.5366ZM43.7137 32.5366C40.4722 32.5366 37.814 29.6932 37.814 26.2312C37.814 22.7692 40.4155 19.9211 43.7137 19.9211C47.012 19.9211 49.6704 22.7641 49.6134 26.2312C49.6134 29.6932 47.012 32.5366 43.7137 32.5366Z" fill="#5865F2"/>
</svg>
