<svg width="17" height="21" viewBox="0 0 17 21" fill="none" xmlns="http://www.w3.org/2000/svg">
<path d="M7.93333 0.867188C8.55893 0.867188 9.06667 1.37492 9.06667 2.00052V9.36719C9.06667 9.51748 9.12637 9.66161 9.23264 9.76788C9.33891 9.87415 9.48304 9.93385 9.63333 9.93385C9.78362 9.93385 9.92776 9.87415 10.034 9.76788C10.1403 9.66161 10.2 9.51748 10.2 9.36719V4.26719C10.2 3.64159 10.7077 3.13385 11.3333 3.13385C11.9589 3.13385 12.4667 3.64159 12.4667 4.26719V9.36719V11.0672V13.4335L14.6492 11.428L14.6559 11.4368C14.9063 11.2124 15.2284 11.0672 15.59 11.0672C16.3686 11.0672 17 11.6986 17 12.4772C17 12.8943 16.812 13.257 16.5241 13.5154L16.5329 13.5264L11.0146 18.5977C10.0909 19.544 8.8046 20.1339 7.37773 20.1339H5.66667C2.53753 20.1339 0 17.5963 0 14.4672V13.3339V9.36719V5.40052C0 4.77492 0.507733 4.26719 1.13333 4.26719C1.75893 4.26719 2.26667 4.77492 2.26667 5.40052V9.36719C2.26667 9.51748 2.32637 9.66161 2.43264 9.76788C2.53891 9.87415 2.68304 9.93385 2.83333 9.93385C2.98362 9.93385 3.12776 9.87415 3.23403 9.76788C3.3403 9.66161 3.4 9.51748 3.4 9.36719V3.13385C3.4 2.50825 3.90773 2.00052 4.53333 2.00052C5.15893 2.00052 5.66667 2.50825 5.66667 3.13385V9.36719C5.66667 9.51748 5.72637 9.66161 5.83264 9.76788C5.93891 9.87415 6.08304 9.93385 6.23333 9.93385C6.38362 9.93385 6.52776 9.87415 6.63403 9.76788C6.7403 9.66161 6.8 9.51748 6.8 9.36719V2.00052C6.8 1.37492 7.30773 0.867188 7.93333 0.867188Z" fill="#F44653"/>
</svg>
