<svg width="19" height="18" viewBox="0 0 19 18" fill="none" xmlns="http://www.w3.org/2000/svg">
<path fill-rule="evenodd" clip-rule="evenodd" d="M2.15234 0H16.1523C17.2569 0 18.1523 0.89543 18.1523 2V16C18.1523 17.1046 17.2569 18 16.1523 18H2.15234C1.04777 18 0.152344 17.1046 0.152344 16V2C0.152344 0.89543 1.04777 0 2.15234 0ZM5.15234 15C5.42848 15 5.65234 14.7761 5.65234 14.5V7.5C5.65234 7.2239 5.42848 7 5.15234 7H3.65234C3.3762 7 3.15234 7.2239 3.15234 7.5V14.5C3.15234 14.7761 3.3762 15 3.65234 15H5.15234ZM4.40234 6C3.57391 6 2.90234 5.32843 2.90234 4.5C2.90234 3.67157 3.57391 3 4.40234 3C5.23077 3 5.90234 3.67157 5.90234 4.5C5.90234 5.32843 5.23077 6 4.40234 6ZM14.6523 15C14.9284 15 15.1523 14.7761 15.1523 14.5V9.9C15.1848 8.3108 14.0099 6.95452 12.4323 6.76C11.3293 6.65925 10.2606 7.1744 9.65234 8.1V7.5C9.65234 7.2239 9.42844 7 9.15234 7H7.65234C7.37624 7 7.15234 7.2239 7.15234 7.5V14.5C7.15234 14.7761 7.37624 15 7.65234 15H9.15234C9.42844 15 9.65234 14.7761 9.65234 14.5V10.75C9.65234 9.9216 10.3239 9.25 11.1523 9.25C11.9807 9.25 12.6523 9.9216 12.6523 10.75V14.5C12.6523 14.7761 12.8762 15 13.1523 15H14.6523Z" fill="#1D7EFF"/>
</svg>
