<svg width="35" height="19" viewBox="0 0 35 19" fill="none" xmlns="http://www.w3.org/2000/svg">
<path d="M17.3738 0.11155C17.316 0.122067 17.2581 0.137841 17.2055 0.153617C16.5798 0.295595 16.1381 0.858245 16.1538 1.49977V5.53823C16.1486 6.02201 16.401 6.47423 16.8217 6.72137C17.2423 6.96326 17.7577 6.96326 18.1783 6.72137C18.599 6.47423 18.8514 6.02201 18.8462 5.53823V1.49977C18.8619 1.11065 18.7042 0.737302 18.4255 0.47438C18.1415 0.206202 17.7577 0.0747405 17.3738 0.11155ZM25.4928 2.25698C25.4349 2.2675 25.3771 2.28327 25.3245 2.29905C24.9301 2.37267 24.5936 2.61981 24.399 2.97213L22.3798 6.46371C22.0065 7.11576 22.2326 7.94133 22.8846 8.31467C23.5367 8.68802 24.3622 8.46191 24.7356 7.80987L26.7548 4.31828C27.0282 3.88709 27.0335 3.33496 26.7653 2.89325C26.4971 2.4568 26.0029 2.20966 25.4928 2.25698ZM9.21274 2.29905C8.76578 2.36215 8.38191 2.64611 8.18735 3.051C7.99279 3.4559 8.01382 3.92916 8.24519 4.31828L10.2644 7.80987C10.6378 8.46191 11.4633 8.68802 12.1154 8.31467C12.7674 7.94133 12.9935 7.11576 12.6202 6.46371L10.601 2.97213C10.3275 2.47784 9.77013 2.20966 9.21274 2.29905ZM31.4243 8.18847C31.3822 8.19899 31.3401 8.21476 31.2981 8.23054C31.1351 8.25683 30.9773 8.31467 30.8353 8.39881L27.3438 10.418C26.6917 10.7914 26.4656 11.617 26.8389 12.269C27.2123 12.921 28.0379 13.1472 28.6899 12.7738L32.1815 10.7546C32.8125 10.4864 33.1438 9.79229 32.9492 9.13499C32.7547 8.47769 32.0974 8.06753 31.4243 8.18847ZM3.28125 8.23054C2.69757 8.30416 2.23483 8.74586 2.1244 9.32429C2.01923 9.90272 2.30319 10.4811 2.81851 10.7546L6.3101 12.7738C6.96214 13.1472 7.78771 12.921 8.16106 12.269C8.53441 11.617 8.30829 10.7914 7.65625 10.418L4.16466 8.39881C3.89648 8.24106 3.58624 8.18321 3.28125 8.23054ZM17.5 8.23054C12.7779 8.23054 8.86043 11.7589 8.20312 16.3075H0V18.9998H35V16.3075H26.7969C26.1396 11.7589 22.2221 8.23054 17.5 8.23054ZM17.5 10.9228C20.7444 10.9228 23.4736 13.2471 24.1046 16.3075H10.8954C11.5264 13.2471 14.2556 10.9228 17.5 10.9228Z" fill="#FF9900" fill-opacity="0.9"/>
</svg>
