<svg width="58" height="49" viewBox="0 0 58 49" fill="none" xmlns="http://www.w3.org/2000/svg">
<path d="M57.0775 5.61242C55.7889 6.18386 54.4511 6.63467 53.0785 6.96105C54.591 5.52376 55.7282 3.72601 56.3698 1.7194C56.5529 1.14655 55.9307 0.651193 55.4134 0.957911C53.5038 2.09061 51.4469 2.94034 49.2996 3.48378C49.175 3.51531 49.0465 3.53129 48.9175 3.53129C48.5263 3.53129 48.1461 3.38606 47.847 3.12247C45.5624 1.10894 42.624 0 39.5734 0C38.2533 0 36.9205 0.205752 35.6119 0.611598C31.5574 1.86916 28.429 5.21364 27.4475 9.33999C27.0793 10.8877 26.9796 12.4369 27.151 13.9443C27.1706 14.1175 27.0887 14.2384 27.0382 14.2951C26.9496 14.3945 26.8239 14.4515 26.6933 14.4515C26.6788 14.4515 26.6638 14.4508 26.6489 14.4494C17.7738 13.6249 9.77053 9.34904 4.11343 2.40977C3.82495 2.05582 3.27175 2.09923 3.04182 2.49362C1.93401 4.39417 1.34858 6.56793 1.34858 8.77986C1.34858 12.1697 2.7105 15.3643 5.07614 17.6932C4.08133 17.4573 3.11846 17.0859 2.22405 16.5891C1.79133 16.3487 1.25892 16.6577 1.25284 17.1526C1.19091 22.1885 4.1393 26.6695 8.5561 28.6873C8.46716 28.6894 8.37821 28.6904 8.28912 28.6904C7.589 28.6904 6.88011 28.6228 6.1824 28.4894C5.6951 28.3964 5.28571 28.8587 5.43702 29.3311C6.87064 33.8069 10.7243 37.106 15.336 37.855C11.5086 40.4243 7.0515 41.7796 2.41255 41.7796L0.966346 41.7787C0.520764 41.7787 0.143906 42.0692 0.0303536 42.5008C-0.0815017 42.9258 0.124533 43.3743 0.504501 43.5953C5.73186 46.6374 11.6944 48.2453 17.7502 48.2453C23.0509 48.2453 28.0093 47.1933 32.4878 45.1188C36.5933 43.217 40.2213 40.4984 43.271 37.0385C46.1119 33.8155 48.3335 30.0949 49.8737 25.9801C51.342 22.0578 52.118 17.8727 52.118 13.877V13.6866C52.1179 13.0451 52.4081 12.4414 52.9143 12.0305C54.8354 10.4707 56.5082 8.63463 57.8863 6.5733C58.2501 6.02901 57.6763 5.34685 57.0775 5.61242Z" fill="#76A9EA"/>
</svg>
