<svg width="18" height="18" viewBox="0 0 18 18" fill="none" xmlns="http://www.w3.org/2000/svg">
<g clip-path="url(#clip0_7854_76879)">
<path d="M8.89124 17.2278C13.6033 17.2278 17.4231 13.4079 17.4231 8.69593C17.4231 3.98391 13.6033 0.164062 8.89124 0.164062C4.17922 0.164062 0.359375 3.98391 0.359375 8.69593C0.359375 13.4079 4.17922 17.2278 8.89124 17.2278Z" fill="#1B9DF0"/>
<path d="M7.33149 13.2007C11.1154 13.2007 13.1844 10.0652 13.1844 7.34781C13.1844 7.25822 13.1844 7.16864 13.1801 7.08332C13.5811 6.79323 13.9309 6.43063 14.2082 6.01684C13.8413 6.17894 13.4446 6.28985 13.0265 6.34105C13.4531 6.08509 13.7773 5.68409 13.9309 5.20204C13.5342 5.43667 13.0948 5.60731 12.6255 5.70116C12.2501 5.30016 11.7169 5.05273 11.1239 5.05273C9.98917 5.05273 9.06773 5.97418 9.06773 7.10891C9.06773 7.27102 9.08479 7.42886 9.12318 7.57817C7.41254 7.49285 5.89814 6.67379 4.88285 5.42814C4.70794 5.73102 4.60556 6.08509 4.60556 6.46049C4.60556 7.1729 4.96817 7.80426 5.52274 8.17113C5.18573 8.1626 4.87005 8.06875 4.59276 7.91517C4.59276 7.92371 4.59276 7.93224 4.59276 7.94077C4.59276 8.939 5.30091 9.76659 6.24368 9.95856C6.07304 10.0055 5.88961 10.0311 5.70191 10.0311C5.56966 10.0311 5.44168 10.0183 5.31371 9.99268C5.57393 10.8117 6.33326 11.4047 7.23338 11.4218C6.5295 11.9721 5.64218 12.3006 4.67808 12.3006C4.51171 12.3006 4.34961 12.292 4.1875 12.2707C5.08761 12.8594 6.17116 13.2007 7.33149 13.2007Z" fill="white"/>
</g>
<defs>
<clipPath id="clip0_7854_76879">
<rect width="17.0637" height="17.0637" fill="white" transform="translate(0.361328 0.166016)"/>
</clipPath>
</defs>
</svg>
