<svg width="26" height="20" viewBox="0 0 26 20" fill="none" xmlns="http://www.w3.org/2000/svg">
<path d="M2 0C0.895 0 0 0.895 0 2V18C0 19.105 0.895 20 2 20H24C25.105 20 26 19.105 26 18V2C26 0.895 25.105 0 24 0H2ZM2.66992 6H5.00391L6.53906 11.8887H6.64453L8.13477 6H10.3301L7.81836 14H5.24609L2.66992 6ZM11.9824 6H14.0176V14H11.9824V6ZM16 6H19.5039C21.2229 6 22.3867 7.12084 22.3867 8.83984C22.3867 10.5418 21.1618 11.6543 19.3828 11.6543H18.0352V14H16V6ZM18.0352 7.5625V10.1191H18.9551C19.8201 10.1191 20.3301 9.67475 20.3301 8.84375C20.3301 8.00075 19.8258 7.5625 18.9668 7.5625H18.0352Z" fill="#2B2B2B" fill-opacity="0.9"/>
</svg>
