<svg width="110" height="33" viewBox="0 0 110 33" fill="none" xmlns="http://www.w3.org/2000/svg">
<path d="M7.42234 3.77069L12.1814 0H22.0428V27.1119L16.874 32.1838L0.0166109 32.1672L0 14.0529L3.98387 9.06683H7.42234V3.77069Z" fill="black"/>
<path fill-rule="evenodd" clip-rule="evenodd" d="M13.6574 1.62891H20.4125V10.693V25.4823H5.60938V10.693H13.6574V1.62891Z" fill="white"/>
<path d="M35.6347 7.15802H38.5818V22.2119H35.6347V20.8641C34.7666 21.9759 33.5329 22.5318 31.9337 22.5318C30.3954 22.5318 29.078 21.953 27.9814 20.7955C26.9001 19.6228 26.3594 18.1911 26.3594 16.5005C26.3594 14.81 26.9001 13.3859 27.9814 12.2284C29.078 11.0557 30.3954 10.4693 31.9337 10.4693C33.5329 10.4693 34.7666 11.0252 35.6347 12.137V7.15802ZM30.1974 18.8308C30.8066 19.4248 31.5682 19.7218 32.482 19.7218C33.3958 19.7218 34.1497 19.4248 34.7437 18.8308C35.3377 18.2216 35.6347 17.4448 35.6347 16.5005C35.6347 15.5563 35.3377 14.7871 34.7437 14.1931C34.1497 13.5839 33.3958 13.2793 32.482 13.2793C31.5682 13.2793 30.8066 13.5839 30.1974 14.1931C29.6034 14.7871 29.3065 15.5563 29.3065 16.5005C29.3065 17.4448 29.6034 18.2216 30.1974 18.8308Z" fill="black"/>
<path d="M43.7672 17.7114C44.1632 19.143 45.2369 19.8588 46.9884 19.8588C48.1155 19.8588 48.9684 19.4781 49.5471 18.7166L51.9231 20.0873C50.796 21.717 49.1359 22.5318 46.9427 22.5318C45.0541 22.5318 43.5387 21.9606 42.3964 20.8184C41.2542 19.6761 40.683 18.2368 40.683 16.5005C40.683 14.7795 41.2465 13.3479 42.3736 12.2056C43.5006 11.0481 44.9475 10.4693 46.7143 10.4693C48.3896 10.4693 49.768 11.0481 50.8493 12.2056C51.9459 13.3631 52.4942 14.7947 52.4942 16.5005C52.4942 16.8813 52.4561 17.2849 52.38 17.7114H43.7672ZM43.7215 15.4268H49.5471C49.3796 14.6501 49.0293 14.0713 48.4962 13.6905C47.9784 13.3098 47.3844 13.1194 46.7143 13.1194C45.9223 13.1194 45.2674 13.325 44.7495 13.7362C44.2317 14.1322 43.889 14.6957 43.7215 15.4268Z" fill="black"/>
<path d="M61.1996 10.4693C62.7379 10.4693 64.0477 11.0557 65.1291 12.2284C66.2256 13.3859 66.7739 14.81 66.7739 16.5005C66.7739 18.1911 66.2256 19.6228 65.1291 20.7955C64.0477 21.953 62.7379 22.5318 61.1996 22.5318C59.6004 22.5318 58.3668 21.9759 57.4986 20.8641V22.2119H54.5515V7.15802H57.4986V12.137C58.3668 11.0252 59.6004 10.4693 61.1996 10.4693ZM58.3896 18.8308C58.9836 19.4248 59.7375 19.7218 60.6513 19.7218C61.5651 19.7218 62.319 19.4248 62.913 18.8308C63.5222 18.2216 63.8269 17.4448 63.8269 16.5005C63.8269 15.5563 63.5222 14.7871 62.913 14.1931C62.319 13.5839 61.5651 13.2793 60.6513 13.2793C59.7375 13.2793 58.9836 13.5839 58.3896 14.1931C57.7956 14.7871 57.4986 15.5563 57.4986 16.5005C57.4986 17.4448 57.7956 18.2216 58.3896 18.8308Z" fill="black"/>
<path d="M68.7585 22.2119V6.47266H71.7056V22.2119H68.7585Z" fill="black"/>
<path d="M84.0414 20.7955C82.8687 21.953 81.437 22.5318 79.7465 22.5318C78.0559 22.5318 76.6242 21.953 75.4515 20.7955C74.294 19.6228 73.7152 18.1911 73.7152 16.5005C73.7152 14.81 74.294 13.3859 75.4515 12.2284C76.6242 11.0557 78.0559 10.4693 79.7465 10.4693C81.437 10.4693 82.8687 11.0557 84.0414 12.2284C85.2142 13.3859 85.8006 14.81 85.8006 16.5005C85.8006 18.1911 85.2142 19.6228 84.0414 20.7955ZM77.5304 18.7623C78.1244 19.3562 78.8631 19.6532 79.7465 19.6532C80.6298 19.6532 81.3685 19.3562 81.9625 18.7623C82.5565 18.1683 82.8535 17.4144 82.8535 16.5005C82.8535 15.5867 82.5565 14.8328 81.9625 14.2388C81.3685 13.6448 80.6298 13.3479 79.7465 13.3479C78.8631 13.3479 78.1244 13.6448 77.5304 14.2388C76.9517 14.8328 76.6623 15.5867 76.6623 16.5005C76.6623 17.4144 76.9517 18.1683 77.5304 18.7623Z" fill="black"/>
<path d="M93.1234 22.5318C91.4024 22.5318 89.9631 21.953 88.8056 20.7955C87.6633 19.638 87.0922 18.2064 87.0922 16.5005C87.0922 14.7947 87.6633 13.3631 88.8056 12.2056C89.9631 11.0481 91.4024 10.4693 93.1234 10.4693C94.2353 10.4693 95.2481 10.7358 96.1619 11.2689C97.0757 11.802 97.7687 12.5178 98.2409 13.4164L95.705 14.9014C95.4765 14.4292 95.1262 14.0561 94.6541 13.7819C94.1972 13.5078 93.6793 13.3707 93.1006 13.3707C92.2172 13.3707 91.4862 13.6677 90.9074 14.2617C90.3287 14.8404 90.0393 15.5867 90.0393 16.5005C90.0393 17.3991 90.3287 18.1454 90.9074 18.7394C91.4862 19.3182 92.2172 19.6075 93.1006 19.6075C93.6946 19.6075 94.22 19.4781 94.6769 19.2192C95.1491 18.945 95.4994 18.5719 95.7278 18.0997L98.2865 19.5619C97.7839 20.4605 97.0757 21.1839 96.1619 21.7322C95.2481 22.2653 94.2353 22.5318 93.1234 22.5318Z" fill="black"/>
<path d="M110.002 22.2119H106.575L102.417 17.026V22.2119H99.47V7.15802H102.417V15.8152L106.347 10.7892H109.865L105.273 16.432L110.002 22.2119Z" fill="black"/>
</svg>
