<svg width="1264" height="375" viewBox="0 0 1264 375" fill="none" xmlns="http://www.w3.org/2000/svg">
<g clip-path="url(#clip0_539_59)">
<g filter="url(#filter0_d_539_59)">
<path d="M106.278 65.1463C105.941 61.9336 107.149 58.7515 109.533 56.5723L156.336 13.8011C157.941 12.3344 159.973 11.4204 162.136 11.1931L208.593 6.3102L256.784 1.24512C263.326 0.557492 269.188 5.30371 269.875 11.8461L273.455 45.9035L298.211 281.448C298.503 284.218 297.645 286.986 295.839 289.107L256.462 335.353C254.794 337.313 252.444 338.567 249.887 338.863L78.4397 358.727C72.816 359.378 67.742 355.314 67.1503 349.684L58.4894 267.281L48.3465 170.778C48.1062 168.492 48.6473 166.192 49.8815 164.252L81.6429 114.344C83.3086 111.726 86.0775 110.012 89.1629 109.688L108.747 107.629C109.838 107.515 110.629 106.538 110.514 105.447L106.278 65.1463Z" fill="white"/>
</g>
<path d="M124.283 74.8595L163.151 36.1777L251.644 26.1388L279.244 269.433L238.024 320.209L86.7337 337.221L68.1444 174.685L98.8188 125.886L129.675 122.386L124.283 74.8595Z" fill="#2CD5C4"/>
<path fill-rule="evenodd" clip-rule="evenodd" d="M178.077 49.3056L238.696 42.4289L247.923 123.767L262.979 256.483L130.139 271.552L115.084 138.837L187.305 130.644L178.077 49.3056Z" fill="white"/>
<path d="M429.885 91.3068H461.304V251.798H429.885V237.428C420.63 249.281 407.477 255.208 390.428 255.208C374.029 255.208 359.984 249.038 348.293 236.697C336.764 224.195 331 208.932 331 190.908C331 172.885 336.764 157.703 348.293 145.363C359.984 132.86 374.029 126.609 390.428 126.609C407.477 126.609 420.63 132.535 429.885 144.389V91.3068ZM371.918 215.751C378.413 222.084 386.531 225.25 396.274 225.25C406.016 225.25 414.054 222.084 420.386 215.751C426.719 209.256 429.885 200.975 429.885 190.908C429.885 180.841 426.719 172.641 420.386 166.309C414.054 159.814 406.016 156.566 396.274 156.566C386.531 156.566 378.413 159.814 371.918 166.309C365.585 172.641 362.419 180.841 362.419 190.908C362.419 200.975 365.585 209.256 371.918 215.751Z" fill="black"/>
<path d="M516.586 203.817C520.808 219.08 532.255 226.711 550.928 226.711C562.943 226.711 572.036 222.652 578.206 214.533L603.537 229.147C591.521 246.521 573.822 255.208 550.441 255.208C530.307 255.208 514.151 249.119 501.973 236.941C489.795 224.763 483.706 209.419 483.706 190.908C483.706 172.56 489.713 157.297 501.729 145.119C513.745 132.779 529.17 126.609 548.005 126.609C565.866 126.609 580.561 132.779 592.089 145.119C603.78 157.459 609.626 172.723 609.626 190.908C609.626 194.968 609.22 199.27 608.408 203.817H516.586ZM516.099 179.461H578.206C576.42 171.18 572.686 165.01 567.003 160.951C561.482 156.891 555.15 154.862 548.005 154.862C539.562 154.862 532.58 157.054 527.059 161.438C521.538 165.659 517.885 171.667 516.099 179.461Z" fill="black"/>
<path d="M702.435 126.609C718.834 126.609 732.798 132.86 744.327 145.363C756.018 157.703 761.863 172.885 761.863 190.908C761.863 208.932 756.018 224.195 744.327 236.697C732.798 249.038 718.834 255.208 702.435 255.208C685.386 255.208 672.234 249.281 662.978 237.428V251.798H631.559V91.3068H662.978V144.389C672.234 132.535 685.386 126.609 702.435 126.609ZM672.477 215.751C678.81 222.084 686.847 225.25 696.589 225.25C706.332 225.25 714.369 222.084 720.702 215.751C727.197 209.256 730.444 200.975 730.444 190.908C730.444 180.841 727.197 172.641 720.702 166.309C714.369 159.814 706.332 156.566 696.589 156.566C686.847 156.566 678.81 159.814 672.477 166.309C666.145 172.641 662.978 180.841 662.978 190.908C662.978 200.975 666.145 209.256 672.477 215.751Z" fill="black"/>
<path d="M783.021 251.798V84H814.44V251.798H783.021Z" fill="black"/>
<path d="M945.953 236.697C933.451 249.038 918.188 255.208 900.164 255.208C882.141 255.208 866.878 249.038 854.375 236.697C842.035 224.195 835.865 208.932 835.865 190.908C835.865 172.885 842.035 157.703 854.375 145.363C866.878 132.86 882.141 126.609 900.164 126.609C918.188 126.609 933.451 132.86 945.953 145.363C958.456 157.703 964.708 172.885 964.708 190.908C964.708 208.932 958.456 224.195 945.953 236.697ZM876.539 215.021C882.872 221.353 890.747 224.519 900.164 224.519C909.582 224.519 917.457 221.353 923.79 215.021C930.122 208.688 933.288 200.651 933.288 190.908C933.288 181.166 930.122 173.128 923.79 166.796C917.457 160.463 909.582 157.297 900.164 157.297C890.747 157.297 882.872 160.463 876.539 166.796C870.369 173.128 867.284 181.166 867.284 190.908C867.284 200.651 870.369 208.688 876.539 215.021Z" fill="black"/>
<path d="M1042.78 255.208C1024.43 255.208 1009.09 249.038 996.745 236.697C984.567 224.357 978.478 209.094 978.478 190.908C978.478 172.723 984.567 157.459 996.745 145.119C1009.09 132.779 1024.43 126.609 1042.78 126.609C1054.63 126.609 1065.43 129.45 1075.17 135.133C1084.91 140.816 1092.3 148.448 1097.33 158.028L1070.3 173.859C1067.86 168.826 1064.13 164.847 1059.1 161.925C1054.22 159.002 1048.7 157.541 1042.53 157.541C1033.12 157.541 1025.32 160.707 1019.15 167.039C1012.98 173.21 1009.9 181.166 1009.9 190.908C1009.9 200.488 1012.98 208.444 1019.15 214.777C1025.32 220.947 1033.12 224.032 1042.53 224.032C1048.87 224.032 1054.47 222.652 1059.34 219.892C1064.37 216.969 1068.11 212.991 1070.54 207.957L1097.82 223.545C1092.46 233.125 1084.91 240.838 1075.17 246.683C1065.43 252.366 1054.63 255.208 1042.78 255.208Z" fill="black"/>
<path d="M1222.72 251.798H1186.19L1141.86 196.51V251.798H1110.44V91.3068H1141.86V183.601L1183.75 130.019H1221.26L1172.3 190.178L1222.72 251.798Z" fill="black"/>
</g>
<defs>
<filter id="filter0_d_539_59" x="39.3318" y="1.17891" width="267.894" height="375.534" filterUnits="userSpaceOnUse" color-interpolation-filters="sRGB">
<feFlood flood-opacity="0" result="BackgroundImageFix"/>
<feColorMatrix in="SourceAlpha" type="matrix" values="0 0 0 0 0 0 0 0 0 0 0 0 0 0 0 0 0 0 127 0" result="hardAlpha"/>
<feOffset dy="8.95892"/>
<feGaussianBlur stdDeviation="4.47946"/>
<feComposite in2="hardAlpha" operator="out"/>
<feColorMatrix type="matrix" values="0 0 0 0 0 0 0 0 0 0 0 0 0 0 0 0 0 0 0.1 0"/>
<feBlend mode="normal" in2="BackgroundImageFix" result="effect1_dropShadow_539_59"/>
<feBlend mode="normal" in="SourceGraphic" in2="effect1_dropShadow_539_59" result="shape"/>
</filter>
<clipPath id="clip0_539_59">
<rect width="1264" height="375" fill="white"/>
</clipPath>
</defs>
</svg>
