<svg width="1264" height="360" viewBox="0 0 1264 360" fill="none" xmlns="http://www.w3.org/2000/svg">
<rect width="1264" height="360" fill="white"/>
<path d="M392.42 159.158C411.437 159.158 427.738 173.483 427.738 194.724C427.738 216.705 411.437 230.536 392.42 230.536C373.155 230.536 357.842 215.964 357.842 194.724C357.842 172.742 373.155 159.158 392.42 159.158ZM429.714 98.4328V150.514C422.551 137.918 402.546 131.002 389.703 131.002C354.138 131.002 327.71 152.737 327.71 194.724C327.71 234.735 354.631 258.445 390.444 258.445C405.263 258.445 420.329 253.505 429.714 238.933L429.863 255.728H459.846V98.4328H429.714Z" fill="black"/>
<path d="M607.667 205.591C612.359 155.453 586.92 130.261 546.168 130.261C506.651 130.261 481.459 156.935 481.459 193.983C481.459 233.006 506.404 258.939 548.391 258.939C566.915 258.939 587.908 252.517 600.751 239.18L581.487 220.163C574.571 227.325 559.999 231.524 548.885 231.524C527.645 231.524 514.555 220.657 512.579 205.591H607.667ZM513.073 180.646C517.518 164.839 530.855 156.935 547.156 156.935C564.445 156.935 576.794 164.839 578.77 180.646H513.073Z" fill="black"/>
<path d="M697.215 159.158C716.48 159.158 731.792 172.742 731.792 194.724C731.792 215.964 716.48 230.536 697.215 230.536C678.197 230.536 661.897 216.705 661.897 194.724C661.897 173.483 678.197 159.158 697.215 159.158ZM629.789 98.4328V255.728H659.406L659.921 238.933C669.306 253.505 684.372 258.445 699.191 258.445C735.003 258.445 761.924 234.735 761.924 194.724C761.924 152.737 735.497 131.002 699.932 131.002C687.089 131.002 667.083 137.918 659.921 150.514V98.4328H629.789Z" fill="black"/>
<path d="M784.153 98.4328V255.728H814.037V98.4328H784.153Z" fill="black"/>
<path d="M897.65 131.496C858.874 131.496 834.67 160.146 834.67 194.971C834.67 230.042 858.38 258.445 897.897 258.445C937.414 258.445 961.372 230.042 961.372 194.971C961.372 160.146 936.427 131.496 897.65 131.496ZM897.897 158.911C918.15 158.911 930.993 176.694 930.993 194.971C930.993 213.494 919.879 230.783 897.897 230.783C875.916 230.783 864.802 213.494 864.802 194.971C864.802 176.694 876.163 158.911 897.897 158.911Z" fill="black"/>
<path d="M1066.39 220.41C1058.98 227.819 1049.35 230.536 1039.72 230.536C1020.95 230.536 1005.14 218.187 1005.14 194.971C1005.14 173.73 1019.96 158.911 1040.21 158.911C1048.61 158.911 1057.5 162.122 1064.66 168.543L1083.68 148.538C1070.34 135.448 1057.01 130.508 1039.72 130.508C1004.4 130.508 975.01 151.749 975.01 194.971C975.01 238.192 1004.4 259.433 1039.72 259.433C1057.75 259.433 1072.57 253.999 1086.65 240.168L1066.39 220.41Z" fill="black"/>
<path d="M1099.13 98.4328V255.728H1129.27V200.651L1176.93 255.728H1213.24V253.505L1156.68 191.266L1206.32 135.695V133.966H1170.26L1129.27 182.868V98.4328H1099.13Z" fill="black"/>
<path d="M783.787 98.4328V255.728H813.672V98.4328H783.787Z" fill="black"/>
<path d="M897.285 131.496C858.509 131.496 834.305 160.146 834.305 194.971C834.305 230.042 858.015 258.445 897.532 258.445C937.049 258.445 961.006 230.042 961.006 194.971C961.006 160.146 936.061 131.496 897.285 131.496ZM897.532 158.911C917.784 158.911 930.628 176.694 930.628 194.971C930.628 213.494 919.513 230.783 897.532 230.783C875.551 230.783 864.436 213.494 864.436 194.971C864.436 176.694 875.798 158.911 897.532 158.911Z" fill="black"/>
<path d="M1066.03 220.41C1058.62 227.819 1048.99 230.536 1039.35 230.536C1020.58 230.536 1004.78 218.187 1004.78 194.971C1004.78 173.73 1019.6 158.911 1039.85 158.911C1048.24 158.911 1057.14 162.122 1064.3 168.543L1083.32 148.538C1069.98 135.448 1056.64 130.508 1039.35 130.508C1004.04 130.508 974.644 151.749 974.644 194.971C974.644 238.192 1004.04 259.433 1039.35 259.433C1057.38 259.433 1072.2 253.999 1086.28 240.168L1066.03 220.41Z" fill="black"/>
<path d="M1098.77 98.4328V255.728H1128.9V200.651L1176.57 255.728H1212.87V253.505L1156.31 191.266L1205.96 135.695V133.966H1169.9L1128.9 182.868V98.4328H1098.77Z" fill="black"/>
<path d="M783.422 98.4328V255.728H813.307V98.4328H783.422Z" fill="black"/>
<path d="M896.92 131.496C858.144 131.496 833.939 160.146 833.939 194.971C833.939 230.042 857.65 258.445 897.167 258.445C936.684 258.445 960.641 230.042 960.641 194.971C960.641 160.146 935.696 131.496 896.92 131.496ZM897.167 158.911C917.419 158.911 930.262 176.694 930.262 194.971C930.262 213.494 919.148 230.783 897.167 230.783C875.185 230.783 864.071 213.494 864.071 194.971C864.071 176.694 875.432 158.911 897.167 158.911Z" fill="black"/>
<path d="M1065.66 220.41C1058.25 227.819 1048.62 230.536 1038.99 230.536C1020.22 230.536 1004.41 218.187 1004.41 194.971C1004.41 173.73 1019.23 158.911 1039.48 158.911C1047.88 158.911 1056.77 162.122 1063.93 168.543L1082.95 148.538C1069.61 135.448 1056.28 130.508 1038.99 130.508C1003.67 130.508 974.279 151.749 974.279 194.971C974.279 238.192 1003.67 259.433 1038.99 259.433C1057.02 259.433 1071.84 253.999 1085.91 240.168L1065.66 220.41Z" fill="black"/>
<path d="M1098.4 98.4328V255.728H1128.53V200.651L1176.2 255.728H1212.51V253.505L1155.95 191.266L1205.59 135.695V133.966H1169.53L1128.53 182.868V98.4328H1098.4Z" fill="black"/>
<path d="M783.057 98.4328V255.728H812.941V98.4328H783.057Z" fill="black"/>
<path d="M896.554 131.496C857.778 131.496 833.574 160.146 833.574 194.971C833.574 230.042 857.284 258.445 896.801 258.445C936.318 258.445 960.276 230.042 960.276 194.971C960.276 160.146 935.33 131.496 896.554 131.496ZM896.801 158.911C917.054 158.911 929.897 176.694 929.897 194.971C929.897 213.494 918.783 230.783 896.801 230.783C874.82 230.783 863.706 213.494 863.706 194.971C863.706 176.694 875.067 158.911 896.801 158.911Z" fill="black"/>
<path d="M1065.3 220.41C1057.89 227.819 1048.26 230.536 1038.62 230.536C1019.85 230.536 1004.05 218.187 1004.05 194.971C1004.05 173.73 1018.86 158.911 1039.12 158.911C1047.51 158.911 1056.41 162.122 1063.57 168.543L1082.59 148.538C1069.25 135.448 1055.91 130.508 1038.62 130.508C1003.3 130.508 973.914 151.749 973.914 194.971C973.914 238.192 1003.3 259.433 1038.62 259.433C1056.65 259.433 1071.47 253.999 1085.55 240.168L1065.3 220.41Z" fill="black"/>
<path d="M1098.04 98.4328V255.728H1128.17V200.651L1175.84 255.728H1212.14V253.505L1155.58 191.266L1205.23 135.695V133.966H1169.17L1128.17 182.868V98.4328H1098.04Z" fill="black"/>
<path fill-rule="evenodd" clip-rule="evenodd" d="M194.824 9L144.104 49.1863V105.63H107.458L65 158.769L65.177 351.823L244.835 352L299.922 297.946V9H194.824ZM282.573 26.3786H210.579V122.979H124.807V280.597H282.573V122.979V26.3786Z" fill="#2CD5C4"/>
</svg>
