<svg width="1264" height="360" viewBox="0 0 1264 360" fill="none" xmlns="http://www.w3.org/2000/svg">
<path fill-rule="evenodd" clip-rule="evenodd" d="M194.824 9L144.104 49.1863V105.63H107.458L65 158.769L65.177 351.823L244.835 352L299.922 297.946V9H194.824ZM282.573 26.3786H210.579V122.979H124.807V280.597H282.573V122.979V26.3786Z" fill="#2CD5C4"/>
<path d="M435.885 88.3068H467.304V248.798H435.885V234.428C426.63 246.281 413.477 252.208 396.428 252.208C380.029 252.208 365.984 246.038 354.293 233.697C342.764 221.195 337 205.932 337 187.908C337 169.885 342.764 154.703 354.293 142.363C365.984 129.86 380.029 123.609 396.428 123.609C413.477 123.609 426.63 129.535 435.885 141.389V88.3068ZM377.918 212.751C384.413 219.084 392.531 222.25 402.274 222.25C412.016 222.25 420.054 219.084 426.386 212.751C432.719 206.256 435.885 197.975 435.885 187.908C435.885 177.841 432.719 169.641 426.386 163.309C420.054 156.814 412.016 153.566 402.274 153.566C392.531 153.566 384.413 156.814 377.918 163.309C371.585 169.641 368.419 177.841 368.419 187.908C368.419 197.975 371.585 206.256 377.918 212.751Z" fill="black"/>
<path d="M522.586 200.817C526.808 216.08 538.255 223.711 556.928 223.711C568.943 223.711 578.036 219.652 584.206 211.533L609.537 226.147C597.521 243.521 579.822 252.208 556.441 252.208C536.307 252.208 520.151 246.119 507.973 233.941C495.795 221.763 489.706 206.419 489.706 187.908C489.706 169.56 495.713 154.297 507.729 142.119C519.745 129.779 535.17 123.609 554.005 123.609C571.866 123.609 586.561 129.779 598.089 142.119C609.78 154.459 615.626 169.723 615.626 187.908C615.626 191.968 615.22 196.27 614.408 200.817H522.586ZM522.099 176.461H584.206C582.42 168.18 578.686 162.01 573.003 157.951C567.482 153.891 561.15 151.862 554.005 151.862C545.562 151.862 538.58 154.054 533.059 158.438C527.538 162.659 523.885 168.667 522.099 176.461Z" fill="black"/>
<path d="M708.435 123.609C724.834 123.609 738.798 129.86 750.327 142.363C762.018 154.703 767.863 169.885 767.863 187.908C767.863 205.932 762.018 221.195 750.327 233.697C738.798 246.038 724.834 252.208 708.435 252.208C691.386 252.208 678.234 246.281 668.978 234.428V248.798H637.559V88.3068H668.978V141.389C678.234 129.535 691.386 123.609 708.435 123.609ZM678.477 212.751C684.81 219.084 692.847 222.25 702.589 222.25C712.332 222.25 720.369 219.084 726.702 212.751C733.197 206.256 736.444 197.975 736.444 187.908C736.444 177.841 733.197 169.641 726.702 163.309C720.369 156.814 712.332 153.566 702.589 153.566C692.847 153.566 684.81 156.814 678.477 163.309C672.145 169.641 668.978 177.841 668.978 187.908C668.978 197.975 672.145 206.256 678.477 212.751Z" fill="black"/>
<path d="M789.021 248.798V81H820.44V248.798H789.021Z" fill="black"/>
<path d="M951.953 233.697C939.451 246.038 924.188 252.208 906.164 252.208C888.141 252.208 872.878 246.038 860.375 233.697C848.035 221.195 841.865 205.932 841.865 187.908C841.865 169.885 848.035 154.703 860.375 142.363C872.878 129.86 888.141 123.609 906.164 123.609C924.188 123.609 939.451 129.86 951.953 142.363C964.456 154.703 970.708 169.885 970.708 187.908C970.708 205.932 964.456 221.195 951.953 233.697ZM882.539 212.021C888.872 218.353 896.747 221.519 906.164 221.519C915.582 221.519 923.457 218.353 929.79 212.021C936.122 205.688 939.288 197.651 939.288 187.908C939.288 178.166 936.122 170.128 929.79 163.796C923.457 157.463 915.582 154.297 906.164 154.297C896.747 154.297 888.872 157.463 882.539 163.796C876.369 170.128 873.284 178.166 873.284 187.908C873.284 197.651 876.369 205.688 882.539 212.021Z" fill="black"/>
<path d="M1048.78 252.208C1030.43 252.208 1015.09 246.038 1002.74 233.697C990.567 221.357 984.478 206.094 984.478 187.908C984.478 169.723 990.567 154.459 1002.74 142.119C1015.09 129.779 1030.43 123.609 1048.78 123.609C1060.63 123.609 1071.43 126.45 1081.17 132.133C1090.91 137.816 1098.3 145.448 1103.33 155.028L1076.3 170.859C1073.86 165.826 1070.13 161.847 1065.1 158.925C1060.22 156.002 1054.7 154.541 1048.53 154.541C1039.12 154.541 1031.32 157.707 1025.15 164.039C1018.98 170.21 1015.9 178.166 1015.9 187.908C1015.9 197.488 1018.98 205.444 1025.15 211.777C1031.32 217.947 1039.12 221.032 1048.53 221.032C1054.87 221.032 1060.47 219.652 1065.34 216.892C1070.37 213.969 1074.11 209.991 1076.54 204.957L1103.82 220.545C1098.46 230.125 1090.91 237.838 1081.17 243.683C1071.43 249.366 1060.63 252.208 1048.78 252.208Z" fill="black"/>
<path d="M1228.72 248.798H1192.19L1147.86 193.51V248.798H1116.44V88.3068H1147.86V180.601L1189.75 127.019H1227.26L1178.3 187.178L1228.72 248.798Z" fill="black"/>
</svg>
