<svg width="1264" height="360" viewBox="0 0 1264 360" fill="none" xmlns="http://www.w3.org/2000/svg">
<path d="M126.017 59.1603L172.885 22.0264H270V289.025L219.098 338.974L53.0853 338.81L52.9218 160.42L92.1551 111.317H126.017V59.1603Z" fill="#2CD5C4"/>
<path fill-rule="evenodd" clip-rule="evenodd" d="M187.444 38.085H253.969V127.348V272.994H108.187V127.348H187.444V38.085Z" fill="white"/>
<path d="M430.885 88.3068H462.304V248.798H430.885V234.428C421.63 246.281 408.477 252.208 391.428 252.208C375.029 252.208 360.984 246.038 349.293 233.697C337.764 221.195 332 205.932 332 187.908C332 169.885 337.764 154.703 349.293 142.363C360.984 129.86 375.029 123.609 391.428 123.609C408.477 123.609 421.63 129.535 430.885 141.389V88.3068ZM372.918 212.751C379.413 219.084 387.531 222.25 397.274 222.25C407.016 222.25 415.054 219.084 421.386 212.751C427.719 206.256 430.885 197.975 430.885 187.908C430.885 177.841 427.719 169.641 421.386 163.309C415.054 156.814 407.016 153.566 397.274 153.566C387.531 153.566 379.413 156.814 372.918 163.309C366.585 169.641 363.419 177.841 363.419 187.908C363.419 197.975 366.585 206.256 372.918 212.751Z" fill="black"/>
<path d="M517.586 200.817C521.808 216.08 533.255 223.711 551.928 223.711C563.943 223.711 573.036 219.652 579.206 211.533L604.537 226.147C592.521 243.521 574.822 252.208 551.441 252.208C531.307 252.208 515.151 246.119 502.973 233.941C490.795 221.763 484.706 206.419 484.706 187.908C484.706 169.56 490.713 154.297 502.729 142.119C514.745 129.779 530.17 123.609 549.005 123.609C566.866 123.609 581.561 129.779 593.089 142.119C604.78 154.459 610.626 169.723 610.626 187.908C610.626 191.968 610.22 196.27 609.408 200.817H517.586ZM517.099 176.461H579.206C577.42 168.18 573.686 162.01 568.003 157.951C562.482 153.891 556.15 151.862 549.005 151.862C540.562 151.862 533.58 154.054 528.059 158.438C522.538 162.659 518.885 168.667 517.099 176.461Z" fill="black"/>
<path d="M703.435 123.609C719.834 123.609 733.798 129.86 745.327 142.363C757.018 154.703 762.863 169.885 762.863 187.908C762.863 205.932 757.018 221.195 745.327 233.697C733.798 246.038 719.834 252.208 703.435 252.208C686.386 252.208 673.234 246.281 663.978 234.428V248.798H632.559V88.3068H663.978V141.389C673.234 129.535 686.386 123.609 703.435 123.609ZM673.477 212.751C679.81 219.084 687.847 222.25 697.589 222.25C707.332 222.25 715.369 219.084 721.702 212.751C728.197 206.256 731.444 197.975 731.444 187.908C731.444 177.841 728.197 169.641 721.702 163.309C715.369 156.814 707.332 153.566 697.589 153.566C687.847 153.566 679.81 156.814 673.477 163.309C667.145 169.641 663.978 177.841 663.978 187.908C663.978 197.975 667.145 206.256 673.477 212.751Z" fill="black"/>
<path d="M784.021 248.798V81H815.44V248.798H784.021Z" fill="black"/>
<path d="M946.953 233.697C934.451 246.038 919.188 252.208 901.164 252.208C883.141 252.208 867.878 246.038 855.375 233.697C843.035 221.195 836.865 205.932 836.865 187.908C836.865 169.885 843.035 154.703 855.375 142.363C867.878 129.86 883.141 123.609 901.164 123.609C919.188 123.609 934.451 129.86 946.953 142.363C959.456 154.703 965.708 169.885 965.708 187.908C965.708 205.932 959.456 221.195 946.953 233.697ZM877.539 212.021C883.872 218.353 891.747 221.519 901.164 221.519C910.582 221.519 918.457 218.353 924.79 212.021C931.122 205.688 934.288 197.651 934.288 187.908C934.288 178.166 931.122 170.128 924.79 163.796C918.457 157.463 910.582 154.297 901.164 154.297C891.747 154.297 883.872 157.463 877.539 163.796C871.369 170.128 868.284 178.166 868.284 187.908C868.284 197.651 871.369 205.688 877.539 212.021Z" fill="black"/>
<path d="M1043.78 252.208C1025.43 252.208 1010.09 246.038 997.745 233.697C985.567 221.357 979.478 206.094 979.478 187.908C979.478 169.723 985.567 154.459 997.745 142.119C1010.09 129.779 1025.43 123.609 1043.78 123.609C1055.63 123.609 1066.43 126.45 1076.17 132.133C1085.91 137.816 1093.3 145.448 1098.33 155.028L1071.3 170.859C1068.86 165.826 1065.13 161.847 1060.1 158.925C1055.22 156.002 1049.7 154.541 1043.53 154.541C1034.12 154.541 1026.32 157.707 1020.15 164.039C1013.98 170.21 1010.9 178.166 1010.9 187.908C1010.9 197.488 1013.98 205.444 1020.15 211.777C1026.32 217.947 1034.12 221.032 1043.53 221.032C1049.87 221.032 1055.47 219.652 1060.34 216.892C1065.37 213.969 1069.11 209.991 1071.54 204.957L1098.82 220.545C1093.46 230.125 1085.91 237.838 1076.17 243.683C1066.43 249.366 1055.63 252.208 1043.78 252.208Z" fill="black"/>
<path d="M1223.72 248.798H1187.19L1142.86 193.51V248.798H1111.44V88.3068H1142.86V180.601L1184.75 127.019H1222.26L1173.3 187.178L1223.72 248.798Z" fill="black"/>
</svg>
