<svg width="892" height="172" viewBox="0 0 892 172" fill="none" xmlns="http://www.w3.org/2000/svg">
<path d="M98.8849 7.30676H130.304V167.798H98.8849V153.428C89.6297 165.281 76.4775 171.208 59.4284 171.208C43.0287 171.208 28.9835 165.038 17.2927 152.697C5.76423 140.195 0 124.932 0 106.908C0 88.8849 5.76423 73.7031 17.2927 61.3627C28.9835 48.8601 43.0287 42.6087 59.4284 42.6087C76.4775 42.6087 89.6297 48.5353 98.8849 60.3885V7.30676ZM40.9179 131.751C47.4128 138.084 55.5314 141.25 65.2738 141.25C75.0161 141.25 83.0536 138.084 89.3861 131.751C95.7186 125.256 98.8849 116.975 98.8849 106.908C98.8849 96.8411 95.7186 88.6413 89.3861 82.3088C83.0536 75.8139 75.0161 72.5664 65.2738 72.5664C55.5314 72.5664 47.4128 75.8139 40.9179 82.3088C34.5854 88.6413 31.4191 96.8411 31.4191 106.908C31.4191 116.975 34.5854 125.256 40.9179 131.751Z" fill="black"/>
<path d="M185.586 119.817C189.808 135.08 201.255 142.711 219.928 142.711C231.943 142.711 241.036 138.652 247.206 130.533L272.537 145.147C260.521 162.521 242.822 171.208 219.441 171.208C199.307 171.208 183.151 165.119 170.973 152.941C158.795 140.763 152.706 125.419 152.706 106.908C152.706 88.5601 158.713 73.2971 170.729 61.1192C182.745 48.7789 198.17 42.6087 217.005 42.6087C234.866 42.6087 249.561 48.7789 261.089 61.1192C272.78 73.4595 278.626 88.7225 278.626 106.908C278.626 110.968 278.22 115.27 277.408 119.817H185.586ZM185.099 95.461H247.206C245.42 87.18 241.686 81.0098 236.003 76.9505C230.482 72.8912 224.15 70.8615 217.005 70.8615C208.562 70.8615 201.58 73.0536 196.059 77.4376C190.538 81.6593 186.885 87.6671 185.099 95.461Z" fill="black"/>
<path d="M371.435 42.6087C387.834 42.6087 401.798 48.8601 413.327 61.3627C425.018 73.7031 430.863 88.8849 430.863 106.908C430.863 124.932 425.018 140.195 413.327 152.697C401.798 165.038 387.834 171.208 371.435 171.208C354.386 171.208 341.234 165.281 331.978 153.428V167.798H300.559V7.30676H331.978V60.3885C341.234 48.5353 354.386 42.6087 371.435 42.6087ZM341.477 131.751C347.81 138.084 355.847 141.25 365.589 141.25C375.332 141.25 383.369 138.084 389.702 131.751C396.197 125.256 399.444 116.975 399.444 106.908C399.444 96.8411 396.197 88.6413 389.702 82.3088C383.369 75.8139 375.332 72.5664 365.589 72.5664C355.847 72.5664 347.81 75.8139 341.477 82.3088C335.145 88.6413 331.978 96.8411 331.978 106.908C331.978 116.975 335.145 125.256 341.477 131.751Z" fill="black"/>
<path d="M452.021 167.798V0H483.44V167.798H452.021Z" fill="black"/>
<path d="M614.953 152.697C602.451 165.038 587.188 171.208 569.164 171.208C551.141 171.208 535.878 165.038 523.375 152.697C511.035 140.195 504.865 124.932 504.865 106.908C504.865 88.8849 511.035 73.7031 523.375 61.3627C535.878 48.8601 551.141 42.6087 569.164 42.6087C587.188 42.6087 602.451 48.8601 614.953 61.3627C627.456 73.7031 633.708 88.8849 633.708 106.908C633.708 124.932 627.456 140.195 614.953 152.697ZM545.539 131.021C551.872 137.353 559.747 140.519 569.164 140.519C578.582 140.519 586.457 137.353 592.79 131.021C599.122 124.688 602.288 116.651 602.288 106.908C602.288 97.1659 599.122 89.1284 592.79 82.7959C586.457 76.4634 578.582 73.2971 569.164 73.2971C559.747 73.2971 551.872 76.4634 545.539 82.7959C539.369 89.1284 536.284 97.1659 536.284 106.908C536.284 116.651 539.369 124.688 545.539 131.021Z" fill="black"/>
<path d="M711.778 171.208C693.429 171.208 678.085 165.038 665.745 152.697C653.567 140.357 647.478 125.094 647.478 106.908C647.478 88.7225 653.567 73.4595 665.745 61.1192C678.085 48.7789 693.429 42.6087 711.778 42.6087C723.631 42.6087 734.428 45.4502 744.171 51.1333C753.913 56.8163 761.301 64.4478 766.335 74.0278L739.3 89.8591C736.864 84.8256 733.13 80.8475 728.096 77.9247C723.225 75.002 717.704 73.5407 711.534 73.5407C702.116 73.5407 694.323 76.7069 688.152 83.0395C681.982 89.2096 678.897 97.1659 678.897 106.908C678.897 116.488 681.982 124.444 688.152 130.777C694.323 136.947 702.116 140.032 711.534 140.032C717.866 140.032 723.468 138.652 728.34 135.892C733.373 132.969 737.108 128.991 739.543 123.957L766.822 139.545C761.464 149.125 753.913 156.838 744.171 162.683C734.428 168.366 723.631 171.208 711.778 171.208Z" fill="black"/>
<path d="M891.72 167.798H855.186L810.858 112.51V167.798H779.439V7.30676H810.858V99.6015L852.75 46.0185H890.258L841.303 106.178L891.72 167.798Z" fill="black"/>
</svg>
