<svg width="368" height="368" viewBox="0 0 368 368" fill="none" xmlns="http://www.w3.org/2000/svg">
<path d="M0 22.9854C0 12.15 0 6.73226 3.36613 3.36613C6.73226 0 12.15 0 22.9854 0H345.015C355.85 0 361.268 0 364.634 3.36613C368 6.73226 368 12.15 368 22.9854V345.015C368 355.85 368 361.268 364.634 364.634C361.268 368 355.85 368 345.015 368H22.9854C12.15 368 6.73226 368 3.36613 364.634C0 361.268 0 355.85 0 345.015V22.9854Z" fill="#F5F5F4"/>
<mask id="mask0_3836_17575" style="mask-type:alpha" maskUnits="userSpaceOnUse" x="0" y="0" width="368" height="368">
<path d="M0 22.9854C0 12.15 0 6.73226 3.36613 3.36613C6.73226 0 12.15 0 22.9854 0H345.015C355.85 0 361.268 0 364.634 3.36613C368 6.73226 368 12.15 368 22.9854V345.015C368 355.85 368 361.268 364.634 364.634C361.268 368 355.85 368 345.015 368H22.9854C12.15 368 6.73226 368 3.36613 364.634C0 361.268 0 355.85 0 345.015V22.9854Z" fill="#FBFAF9"/>
</mask>
<g mask="url(#mask0_3836_17575)">
<path d="M85.1426 -30.4176C85.1426 38.8505 128.639 123.842 56.5423 123.842C-15.5542 123.842 -74 67.6892 -74 -1.57896C-74 -70.8471 -15.5542 -127 56.5423 -127C128.639 -127 85.1426 -99.6858 85.1426 -30.4176Z" fill="#F2CDDD"/>
<path d="M384.143 360.582C384.143 429.85 427.639 514.842 355.542 514.842C283.446 514.842 225 458.689 225 389.421C225 320.153 283.446 264 355.542 264C427.639 264 384.143 291.314 384.143 360.582Z" fill="#CCDEDF"/>
</g>
</svg>
