<svg width="368" height="368" viewBox="0 0 368 368" fill="none" xmlns="http://www.w3.org/2000/svg">
<path d="M0 60C0 31.7157 0 17.5736 8.7868 8.7868C17.5736 0 31.7157 0 60 0H308C336.284 0 350.426 0 359.213 8.7868C368 17.5736 368 31.7157 368 60V308C368 336.284 368 350.426 359.213 359.213C350.426 368 336.284 368 308 368H60C31.7157 368 17.5736 368 8.7868 359.213C0 350.426 0 336.284 0 308V60Z" fill="#FFF9F3"/>
<mask id="mask0_4020_17106" style="mask-type:alpha" maskUnits="userSpaceOnUse" x="0" y="0" width="368" height="368">
<path d="M0 60C0 31.7157 0 17.5736 8.7868 8.7868C17.5736 0 31.7157 0 60 0H308C336.284 0 350.426 0 359.213 8.7868C368 17.5736 368 31.7157 368 60V308C368 336.284 368 350.426 359.213 359.213C350.426 368 336.284 368 308 368H60C31.7157 368 17.5736 368 8.7868 359.213C0 350.426 0 336.284 0 308V60Z" fill="#FBFAF9"/>
</mask>
<g mask="url(#mask0_4020_17106)">
<path d="M450 492.235C450 619.683 346.802 723 219.5 723C92.1984 723 -11 619.683 -11 492.235C-11 364.788 129.698 287 257 287C384.302 287 450 364.788 450 492.235Z" fill="#F59300" fill-opacity="0.07"/>
<path d="M450 492.235C450 619.683 346.802 723 219.5 723C92.1984 723 -11 619.683 -11 492.235C-11 364.788 129.698 287 257 287C384.302 287 450 364.788 450 492.235Z" fill="#17E6B7" fill-opacity="0.14"/>
<path d="M51.033 36.5C51.033 163.802 127.844 320 0.5271 320C-126.79 320 -230 216.802 -230 89.5C-230 -37.8016 -126.79 -141 0.5271 -141C127.844 -141 51.033 -90.8016 51.033 36.5Z" fill="#F59300" fill-opacity="0.07"/>
<path d="M51.033 36.5C51.033 163.802 127.844 320 0.5271 320C-126.79 320 -230 216.802 -230 89.5C-230 -37.8016 -126.79 -141 0.5271 -141C127.844 -141 51.033 -90.8016 51.033 36.5Z" fill="#2A7AF2" fill-opacity="0.2"/>
</g>
</svg>
