<svg width="368" height="368" viewBox="0 0 368 368" fill="none" xmlns="http://www.w3.org/2000/svg">
<path d="M0 22.9854C0 12.15 0 6.73226 3.36613 3.36613C6.73226 0 12.15 0 22.9854 0H345.015C355.85 0 361.268 0 364.634 3.36613C368 6.73226 368 12.15 368 22.9854V345.015C368 355.85 368 361.268 364.634 364.634C361.268 368 355.85 368 345.015 368H22.9854C12.15 368 6.73226 368 3.36613 364.634C0 361.268 0 355.85 0 345.015V22.9854Z" fill="white"/>
<mask id="mask0_3836_17745" style="mask-type:alpha" maskUnits="userSpaceOnUse" x="0" y="0" width="368" height="368">
<path d="M0 22.9854C0 12.15 0 6.73226 3.36613 3.36613C6.73226 0 12.15 0 22.9854 0H345.015C355.85 0 361.268 0 364.634 3.36613C368 6.73226 368 12.15 368 22.9854V345.015C368 355.85 368 361.268 364.634 364.634C361.268 368 355.85 368 345.015 368H22.9854C12.15 368 6.73226 368 3.36613 364.634C0 361.268 0 355.85 0 345.015V22.9854Z" fill="#FBFAF9"/>
</mask>
<g mask="url(#mask0_3836_17745)">
<path d="M570.694 21.715C570.694 118.49 489.142 196.942 388.542 196.942C287.943 196.942 206.391 118.49 206.391 21.715C206.391 -75.0603 317.577 -134.127 418.176 -134.127C518.776 -134.127 570.694 -75.0603 570.694 21.715Z" fill="#F59300" fill-opacity="0.1"/>
<path d="M570.694 21.715C570.694 118.49 489.142 196.942 388.542 196.942C287.943 196.942 206.391 118.49 206.391 21.715C206.391 -75.0603 317.577 -134.127 418.176 -134.127C518.776 -134.127 570.694 -75.0603 570.694 21.715Z" fill="#FBF2BF"/>
<path d="M43.1036 265.524C43.1036 334.792 86.5997 419.783 14.5032 419.783C-57.5933 419.783 -116.039 363.631 -116.039 294.362C-116.039 225.094 -57.5933 168.941 14.5032 168.941C86.5997 168.941 43.1036 196.256 43.1036 265.524Z" fill="#FCF4DF"/>
</g>
</svg>
