<svg width="368" height="368" viewBox="0 0 368 368" fill="none" xmlns="http://www.w3.org/2000/svg">
<path d="M0 22.9854C0 12.15 0 6.73226 3.36613 3.36613C6.73226 0 12.15 0 22.9854 0H345.015C355.85 0 361.268 0 364.634 3.36613C368 6.73226 368 12.15 368 22.9854V345.015C368 355.85 368 361.268 364.634 364.634C361.268 368 355.85 368 345.015 368H22.9854C12.15 368 6.73226 368 3.36613 364.634C0 361.268 0 355.85 0 345.015V22.9854Z" fill="#F5F5F4"/>
<mask id="mask0_4021_17981" style="mask-type:alpha" maskUnits="userSpaceOnUse" x="0" y="0" width="368" height="368">
<path d="M0 22.9854C0 12.15 0 6.73226 3.36613 3.36613C6.73226 0 12.15 0 22.9854 0H345.015C355.85 0 361.268 0 364.634 3.36613C368 6.73226 368 12.15 368 22.9854V345.015C368 355.85 368 361.268 364.634 364.634C361.268 368 355.85 368 345.015 368H22.9854C12.15 368 6.73226 368 3.36613 364.634C0 361.268 0 355.85 0 345.015V22.9854Z" fill="#FBFAF9"/>
</mask>
<g mask="url(#mask0_4021_17981)">
<path d="M593.303 -17.158C593.303 79.6173 511.751 158.069 411.152 158.069C310.552 158.069 229 79.6173 229 -17.158C229 -113.933 340.186 -173 440.786 -173C541.385 -173 593.303 -113.933 593.303 -17.158Z" fill="#F59300" fill-opacity="0.1"/>
<path d="M593.303 -17.158C593.303 79.6173 511.751 158.069 411.152 158.069C310.552 158.069 229 79.6173 229 -17.158C229 -113.933 340.186 -173 440.786 -173C541.385 -173 593.303 -113.933 593.303 -17.158Z" fill="#D4E8DA"/>
<path d="M43.1036 265.524C43.1036 334.792 86.5997 419.783 14.5032 419.783C-57.5933 419.783 -116.039 363.631 -116.039 294.362C-116.039 225.094 -57.5933 168.941 14.5032 168.941C86.5997 168.941 43.1036 196.256 43.1036 265.524Z" fill="#2A7AF2" fill-opacity="0.2"/>
</g>
</svg>
