<svg width="96" height="160" viewBox="0 0 96 160" fill="none" xmlns="http://www.w3.org/2000/svg">
<ellipse rx="50.2936" ry="9.9848" transform="matrix(0.83632 0.548242 -0.555632 0.831429 51.3887 124.125)" fill="#D9D9D9" fill-opacity="0.3"/>
<path fill-rule="evenodd" clip-rule="evenodd" d="M16.0695 4.28872C12.4823 1.92012 9.57422 3.48478 9.57422 7.78346V48.4191C9.57422 52.7178 12.4823 58.1227 16.0695 60.4913L18.075 61.8155C18.7989 62.2934 19.3831 63.3883 19.3739 64.2496L19.2925 71.8786C19.2783 73.2058 20.5838 74.8029 21.4333 74.4975L31.3317 70.9397C31.5666 70.8553 31.865 70.9207 32.1735 71.1244L83.2437 104.845C86.831 107.214 89.7391 105.649 89.7391 101.35V60.7146C89.7391 56.416 86.831 51.0111 83.2437 48.6425L16.0695 4.28872Z" fill="#CECECE"/>
<mask id="path-3-inside-1_3966_19089" fill="white">
<path fill-rule="evenodd" clip-rule="evenodd" d="M9.49531 5.2184C5.90805 2.84981 3 4.41446 3 8.71315V49.3488C3 53.6475 5.90805 59.0524 9.49531 61.421L11.5008 62.7451C12.2247 63.2231 12.8089 64.318 12.7997 65.1793L12.7183 72.8084C12.7041 74.1356 14.0096 75.7326 14.8591 75.4273L24.7575 71.8694C24.9924 71.785 25.2909 71.8505 25.5994 72.0542L76.6695 105.775C80.2568 108.143 83.1648 106.579 83.1648 102.28V61.6443C83.1648 57.3456 80.2568 51.9407 76.6695 49.5722L9.49531 5.2184Z"/>
</mask>
<path fill-rule="evenodd" clip-rule="evenodd" d="M9.49531 5.2184C5.90805 2.84981 3 4.41446 3 8.71315V49.3488C3 53.6475 5.90805 59.0524 9.49531 61.421L11.5008 62.7451C12.2247 63.2231 12.8089 64.318 12.7997 65.1793L12.7183 72.8084C12.7041 74.1356 14.0096 75.7326 14.8591 75.4273L24.7575 71.8694C24.9924 71.785 25.2909 71.8505 25.5994 72.0542L76.6695 105.775C80.2568 108.143 83.1648 106.579 83.1648 102.28V61.6443C83.1648 57.3456 80.2568 51.9407 76.6695 49.5722L9.49531 5.2184Z" fill="white"/>
<path d="M9.49531 5.2184V4.32274V5.2184ZM76.6695 105.775V106.67V105.775ZM76.6695 49.5722V50.4678V49.5722ZM24.7575 71.8694L25.2419 72.8714L24.7575 71.8694ZM25.5994 72.0542V72.9498V72.0542ZM14.8591 75.4273L15.3435 76.4292L14.8591 75.4273ZM12.7997 65.1793L12.0524 64.6744L12.7997 65.1793ZM3.74744 9.20666C3.74744 5.40264 6.32085 4.01804 9.49531 6.11407V4.32274C5.49525 1.68158 2.25256 3.42628 2.25256 8.21963L3.74744 9.20666ZM3.74744 49.8423V9.20666L2.25256 8.21963V48.8553L3.74744 49.8423ZM9.49531 60.5253C6.32085 58.4293 3.74744 53.6463 3.74744 49.8423L2.25256 48.8553C2.25256 53.6486 5.49526 59.6755 9.49531 62.3166V60.5253ZM11.5008 61.8495L9.49531 60.5253V62.3166L11.5008 63.6408V61.8495ZM13.4656 73.3132L13.5471 65.6841L12.0524 64.6744L11.9709 72.3035L13.4656 73.3132ZM24.2731 70.8675L14.3747 74.4253L15.3435 76.4292L25.2419 72.8714L24.2731 70.8675ZM76.6695 104.879L25.5994 71.1585V72.9498L76.6695 106.67V104.879ZM82.4174 101.786C82.4174 105.59 79.844 106.975 76.6695 104.879V106.67C80.6696 109.312 83.9123 107.567 83.9123 102.774L82.4174 101.786ZM82.4174 61.1508V101.786L83.9123 102.774V62.1378L82.4174 61.1508ZM76.6695 50.4678C79.844 52.5639 82.4174 57.3468 82.4174 61.1508L83.9123 62.1378C83.9123 57.3445 80.6696 51.3176 76.6695 48.6765V50.4678ZM9.49531 6.11407L76.6695 50.4678V48.6765L9.49531 4.32274V6.11407ZM25.2419 72.8714C25.3416 72.8355 25.4684 72.8633 25.5994 72.9498V71.1585C25.1134 70.8376 24.6432 70.7344 24.2731 70.8675L25.2419 72.8714ZM11.9709 72.3035C11.9486 74.3943 14.0052 76.9102 15.3435 76.4292L14.3747 74.4253C14.014 74.555 13.4596 73.8768 13.4656 73.3132L11.9709 72.3035ZM11.5008 63.6408C11.8082 63.8438 12.0563 64.3087 12.0524 64.6744L13.5471 65.6841C13.5616 64.3272 12.6412 62.6025 11.5008 61.8495V63.6408Z" fill="black" mask="url(#path-3-inside-1_3966_19089)"/>
<path d="M20.7355 45.5963V29.9629L29.3734 35.6664V38.3915L23.4938 34.5093V38.2345L28.8001 41.7381V44.4633L23.4938 40.9596V47.4176L20.7355 45.5963ZM31.0201 52.3871V40.662L33.651 42.3991V44.4449L33.7529 44.5122C33.9313 43.9023 34.2307 43.5503 34.6511 43.4564C35.0716 43.3574 35.5557 43.4888 36.1035 43.8505C36.2394 43.9403 36.386 44.0472 36.5431 44.1713C36.7002 44.2954 36.8382 44.4145 36.9572 44.5287V47.4141C36.8298 47.2842 36.6535 47.1271 36.4284 46.9429C36.2033 46.7587 35.9974 46.6048 35.8105 46.4815C35.4113 46.2179 35.0546 46.0867 34.7403 46.0878C34.4303 46.0867 34.184 46.209 34.0014 46.4549C33.823 46.7035 33.7338 47.067 33.7338 47.5454V54.1789L31.0201 52.3871ZM42.3639 60.1061C41.3574 59.4416 40.491 58.6253 39.7648 57.6572C39.0429 56.6869 38.4865 55.6224 38.0958 54.4636C37.7051 53.2998 37.5098 52.0996 37.5098 50.863C37.5098 49.6569 37.7051 48.7273 38.0958 48.0744C38.4865 47.4214 39.0365 47.0746 39.7457 47.034C40.4592 46.9962 41.2958 47.2941 42.2556 47.9279C42.9011 48.3541 43.502 48.8755 44.0583 49.4922C44.6189 50.1066 45.1073 50.7981 45.5235 51.5665C45.9439 52.3377 46.2709 53.1745 46.5045 54.0768C46.7381 54.974 46.8548 55.9214 46.8548 56.9188V57.8119L38.5927 52.3566V50.3414L44.3004 54.11C44.3004 53.6419 44.2155 53.171 44.0456 52.6975C43.8757 52.224 43.64 51.786 43.3385 51.3833C43.0412 50.9784 42.6951 50.6455 42.3002 50.3848C41.8882 50.1128 41.523 49.9861 41.2045 50.0048C40.8902 50.0212 40.6439 50.1614 40.4655 50.4253C40.2872 50.6841 40.1959 51.0437 40.1916 51.504V53.42C40.1916 54.0001 40.2808 54.5603 40.4592 55.1004C40.6418 55.6434 40.8987 56.1388 41.23 56.5865C41.5612 57.0342 41.954 57.4081 42.4084 57.7081C42.71 57.9072 42.986 58.0386 43.2366 58.1022C43.4871 58.1659 43.7016 58.1548 43.88 58.069C44.0583 57.9833 44.1942 57.8236 44.2877 57.5901L46.7975 59.4458C46.6701 60.0843 46.4089 60.5429 46.014 60.8216C45.6233 61.098 45.1179 61.1816 44.4979 61.0724C43.8821 60.961 43.1707 60.6389 42.3639 60.1061ZM53.0849 67.185C52.0784 66.5204 51.2121 65.7041 50.4859 64.7361C49.7639 63.7658 49.2076 62.7012 48.8169 61.5425C48.4262 60.3787 48.2308 59.1785 48.2308 57.9418C48.2308 56.7357 48.4262 55.8062 48.8169 55.1533C49.2076 54.5003 49.7575 54.1535 50.4667 54.1129C51.1802 54.0751 52.0168 54.373 52.9766 55.0067C53.6221 55.433 54.223 55.9544 54.7794 56.5711C55.3399 57.1855 55.8283 57.8769 56.2445 58.6454C56.6649 59.4166 56.9919 60.2534 57.2255 61.1557C57.4591 62.0529 57.5759 63.0002 57.5759 63.9977V64.8908L49.3137 59.4355V57.4202L55.0214 61.1889C55.0214 60.7207 54.9365 60.2499 54.7666 59.7764C54.5968 59.3029 54.3611 58.8649 54.0595 58.4622C53.7623 58.0573 53.4161 57.7244 53.0212 57.4636C52.6093 57.1916 52.244 57.065 51.9255 57.0837C51.6113 57.1001 51.3649 57.2403 51.1866 57.5042C51.0082 57.763 50.9169 58.1226 50.9127 58.5828V60.4989C50.9127 61.079 51.0018 61.6392 51.1802 62.1793C51.3628 62.7223 51.6197 63.2176 51.951 63.6654C52.2822 64.1131 52.6751 64.487 53.1295 64.787C53.431 64.9861 53.707 65.1175 53.9576 65.1811C54.2082 65.2448 54.4226 65.2337 54.601 65.1479C54.7794 65.0621 54.9153 64.9025 55.0087 64.669L57.5185 66.5247C57.3911 67.1632 57.13 67.6218 56.735 67.9005C56.3443 68.1768 55.8389 68.2605 55.2189 68.1513C54.6031 68.0399 53.8918 67.7178 53.0849 67.185ZM62.5892 57.5981L62.3408 68.3805L60.0093 66.8411L59.7545 55.7263L62.5892 57.5981ZM61.175 72.4962C60.7546 72.2186 60.3936 71.8022 60.0921 71.2468C59.7906 70.6864 59.6419 70.1557 59.6462 69.6547C59.6419 69.1532 59.7906 68.8239 60.0921 68.6667C60.3936 68.5096 60.7546 68.5698 61.175 68.8474C61.5785 69.1138 61.9331 69.5261 62.2389 70.0842C62.5446 70.6423 62.6996 71.1721 62.7039 71.6737C62.6996 72.0067 62.6253 72.2655 62.4809 72.4501C62.3408 72.6324 62.156 72.7318 61.9267 72.7483C61.6974 72.7597 61.4468 72.6757 61.175 72.4962Z" fill="black"/>
</svg>
