<svg width="96" height="160" viewBox="0 0 96 160" fill="none" xmlns="http://www.w3.org/2000/svg">
<rect x="0.198983" y="0.371803" width="67.4398" height="98.7681" rx="4.54381" transform="matrix(0.832051 0.5547 0 1 19.1701 0.877905)" fill="black" stroke="black" stroke-width="0.478296"/>
<rect x="0.198983" y="0.371803" width="67.4398" height="98.7681" rx="4.54381" transform="matrix(0.832051 0.5547 0 1 17.2561 1.35837)" fill="white"/>
<rect x="0.198983" y="0.371803" width="67.4398" height="98.7681" rx="4.54381" transform="matrix(0.832051 0.5547 0 1 17.2561 1.35837)" fill="white"/>
<rect x="0.198983" y="0.371803" width="67.4398" height="98.7681" rx="4.54381" transform="matrix(0.832051 0.5547 0 1 17.2561 1.35837)" fill="white"/>
<rect x="0.198983" y="0.371803" width="67.4398" height="98.7681" rx="4.54381" transform="matrix(0.832051 0.5547 0 1 17.2561 1.35837)" stroke="black" stroke-width="0.478296"/>
<path d="M24.45 86.826L23.3726 86.1078V82.4554L24.4589 83.1795C24.7645 83.3833 25.0277 83.6318 25.2483 83.9252C25.4689 84.2173 25.6386 84.539 25.7573 84.8904C25.877 85.2425 25.9368 85.6082 25.9368 85.9875C25.9368 86.3679 25.877 86.655 25.7573 86.8486C25.6386 87.043 25.4679 87.139 25.2453 87.1369C25.0237 87.1354 24.7586 87.0318 24.45 86.826ZM24.0152 85.8745L24.4232 86.1466C24.6132 86.2732 24.7729 86.3393 24.9025 86.3448C25.0331 86.3498 25.1311 86.2885 25.1964 86.1608C25.2626 86.0326 25.2958 85.8324 25.2958 85.5601C25.2958 85.2902 25.2626 85.0476 25.1964 84.8322C25.1311 84.6174 25.0336 84.4264 24.904 84.2592C24.7744 84.092 24.6147 83.945 24.4247 83.8184L24.0152 83.5454V85.8745ZM27.4396 88.8726C27.2052 88.7163 27.0034 88.5247 26.8342 88.2978C26.666 88.0704 26.5364 87.8211 26.4454 87.55C26.3544 87.2776 26.3089 86.997 26.3089 86.7081C26.3089 86.4263 26.3544 86.2094 26.4454 86.0572C26.5364 85.9051 26.6645 85.8246 26.8297 85.8159C26.9959 85.8078 27.1908 85.8783 27.4144 86.0273C27.5648 86.1276 27.7048 86.25 27.8343 86.3947C27.9649 86.5388 28.0787 86.7008 28.1756 86.8808C28.2736 87.0614 28.3498 87.2572 28.4042 87.4683C28.4586 87.6781 28.4858 87.8996 28.4858 88.1326V88.3413L26.5612 87.0582V86.5874L27.8907 87.4738C27.8907 87.3644 27.8709 87.2543 27.8314 87.1435C27.7918 87.0327 27.7369 86.9301 27.6667 86.8357C27.5974 86.7408 27.5168 86.6627 27.4248 86.6014C27.3288 86.5374 27.2438 86.5074 27.1696 86.5115C27.0964 86.515 27.039 86.5475 26.9974 86.6089C26.9559 86.6692 26.9346 86.7531 26.9336 86.8607V87.3083C26.9336 87.4438 26.9544 87.5748 26.9959 87.7012C27.0385 87.8282 27.0983 87.9442 27.1755 88.0492C27.2527 88.1541 27.3442 88.2419 27.45 88.3124C27.5203 88.3593 27.5846 88.3902 27.6429 88.4054C27.7013 88.4205 27.7512 88.4181 27.7928 88.3983C27.8343 88.3784 27.866 88.3413 27.8878 88.2868L28.4724 88.7229C28.4427 88.872 28.3819 88.9789 28.2899 89.0436C28.1989 89.1077 28.0812 89.1267 27.9367 89.1006C27.7933 89.0739 27.6276 88.9979 27.4396 88.8726ZM28.9102 89.7995V86.147L29.5423 86.5685V87.9417L29.5616 87.9546C29.5893 87.8993 29.6294 87.8511 29.6818 87.81C29.7352 87.7683 29.8045 87.7503 29.8895 87.7559C29.9756 87.7609 30.0824 87.806 30.2101 87.8911C30.3763 88.0019 30.5296 88.1564 30.6701 88.3547C30.8105 88.5518 30.9228 88.783 31.0069 89.0483C31.091 89.3124 31.133 89.6014 31.133 89.9153C31.133 90.2209 31.092 90.4515 31.0099 90.6072C30.9288 90.7624 30.818 90.8472 30.6775 90.8618C30.538 90.8758 30.3817 90.8251 30.2086 90.7097C30.0859 90.6279 29.9815 90.5339 29.8955 90.4278C29.8104 90.3224 29.7407 90.2146 29.6862 90.1046C29.6318 89.9935 29.5903 89.8903 29.5616 89.795L29.5334 89.7763V90.215L28.9102 89.7995ZM29.529 88.8423C29.529 89.0052 29.5477 89.1598 29.5853 89.3062C29.6229 89.4525 29.6773 89.5833 29.7486 89.6986C29.8198 89.8126 29.9064 89.9036 30.0082 89.9715C30.1111 90.0401 30.1982 90.0643 30.2694 90.044C30.3406 90.0225 30.3946 89.9634 30.4312 89.8665C30.4688 89.7691 30.4875 89.6407 30.4875 89.4814C30.4875 89.3233 30.4692 89.172 30.4326 89.0275C30.396 88.883 30.3421 88.7531 30.2709 88.6379C30.1997 88.5226 30.1121 88.4304 30.0082 88.3611C29.9054 88.2925 29.8183 88.2672 29.7471 88.2851C29.6768 88.3037 29.6229 88.3605 29.5853 88.4555C29.5477 88.5505 29.529 88.6795 29.529 88.8423ZM32.187 88.3316V91.984L31.5548 91.5626V87.9102L32.187 88.3316ZM33.7232 93.0617C33.4927 92.908 33.2933 92.7162 33.1252 92.4864C32.958 92.2561 32.8289 92.0047 32.7379 91.7324C32.6469 91.4589 32.6014 91.1819 32.6014 90.9013C32.6014 90.6183 32.6469 90.4014 32.7379 90.2504C32.8289 90.0983 32.958 90.0191 33.1252 90.0128C33.2933 90.006 33.4927 90.0795 33.7232 90.2332C33.9537 90.3868 34.1525 90.5788 34.3197 90.8092C34.4879 91.039 34.6175 91.2907 34.7085 91.5642C34.7995 91.8365 34.845 92.1141 34.845 92.3971C34.845 92.6777 34.7995 92.894 34.7085 93.0462C34.6175 93.1971 34.4879 93.276 34.3197 93.2828C34.1525 93.289 33.9537 93.2153 33.7232 93.0617ZM33.7261 92.4751C33.831 92.545 33.9186 92.5677 33.9888 92.5432C34.059 92.5175 34.112 92.4541 34.1476 92.353C34.1842 92.2526 34.2025 92.1227 34.2025 91.9634C34.2025 91.8041 34.1842 91.6498 34.1476 91.5005C34.112 91.352 34.059 91.218 33.9888 91.0986C33.9186 90.9793 33.831 90.8847 33.7261 90.8147C33.6203 90.7442 33.5313 90.7211 33.459 90.7455C33.3878 90.7705 33.3339 90.8332 33.2973 90.9337C33.2617 91.0348 33.2439 91.165 33.2439 91.3243C33.2439 91.4836 33.2617 91.6376 33.2973 91.7862C33.3339 91.9354 33.3878 92.07 33.459 92.19C33.5313 92.3095 33.6203 92.4045 33.7261 92.4751ZM36.2859 94.7701C36.0524 94.6145 35.8516 94.4211 35.6834 94.1901C35.5162 93.9586 35.3876 93.7064 35.2976 93.4336C35.2086 93.1614 35.164 92.8868 35.164 92.6098C35.164 92.3292 35.2091 92.1131 35.2991 91.9615C35.3901 91.8093 35.5192 91.7295 35.6864 91.7221C35.8536 91.7134 36.0524 91.786 36.2829 91.9396C36.4817 92.0722 36.6558 92.2317 36.8052 92.418C36.9546 92.6044 37.0728 92.8051 37.1599 93.0201C37.2469 93.2351 37.2949 93.4513 37.3038 93.6689L36.7073 93.2712C36.6905 93.1233 36.646 92.9836 36.5737 92.8522C36.5025 92.7203 36.409 92.6158 36.2933 92.5387C36.1953 92.4734 36.1098 92.4484 36.0366 92.4638C35.9644 92.4787 35.908 92.5332 35.8674 92.6275C35.8268 92.7217 35.8066 92.855 35.8066 93.0274C35.8066 93.2022 35.8264 93.364 35.8659 93.5128C35.9065 93.6623 35.9634 93.7936 36.0366 93.9066C36.1098 94.0196 36.1953 94.1088 36.2933 94.174C36.3655 94.2222 36.4303 94.2476 36.4877 94.2501C36.546 94.2534 36.594 94.2336 36.6316 94.1909C36.6702 94.1477 36.6954 94.0819 36.7073 93.9935L37.3038 94.3912C37.2939 94.5938 37.2464 94.7465 37.1614 94.8491C37.0773 94.9511 36.961 94.9973 36.8126 94.9875C36.6643 94.9778 36.4887 94.9053 36.2859 94.7701ZM38.2813 95.2586L38.2828 94.3483L38.3748 94.4096L39.1049 93.8566L39.8305 94.3404L38.8497 95.0633L38.6998 94.9634L38.2813 95.2586ZM37.7085 95.6651V92.0126L38.3407 92.434V96.0865L37.7085 95.6651ZM39.1331 96.6148L38.4624 94.9745L38.8838 94.7186L39.8735 97.1084L39.1331 96.6148ZM43.6616 95.9813V99.6337L43.1066 99.2638L41.7844 96.0835L41.7622 96.0687V98.3675L41.1197 97.9391V94.2867L41.6835 94.6626L42.9953 97.8342L43.022 97.852V95.5549L43.6616 95.9813ZM44.1924 99.9876V96.3352L46.2046 97.6766V98.3133L44.835 97.4002V98.2705L46.071 99.0946V99.7313L44.835 98.9072V100.416L44.1924 99.9876ZM46.521 98.5243V97.8876L49.0169 99.5515V100.188L48.0865 99.568V102.584L47.4514 102.16V99.1446L46.521 98.5243ZM51.5347 104.883L52.0333 101.562L52.5082 101.879L52.0096 105.199L51.5347 104.883ZM50.174 103.069L50.2527 102.551L52.6269 104.134L52.5482 104.652L50.174 103.069ZM50.4663 104.17L50.9649 100.85L51.4398 101.167L50.9412 104.487L50.4663 104.17ZM50.3476 101.915L50.4277 101.398L52.802 102.981L52.7219 103.498L50.3476 101.915ZM54.2573 106.747C54.101 106.642 53.9501 106.51 53.8047 106.351C53.6603 106.193 53.5307 106.006 53.4159 105.791C53.3012 105.575 53.2102 105.33 53.1429 105.056C53.0766 104.782 53.0435 104.478 53.0435 104.144C53.0445 103.838 53.0737 103.583 53.131 103.38C53.1894 103.177 53.2725 103.026 53.3803 102.93C53.4891 102.833 53.6192 102.792 53.7706 102.804C53.9219 102.816 54.0916 102.885 54.2796 103.01C54.4824 103.145 54.6614 103.312 54.8167 103.511C54.972 103.708 55.0967 103.919 55.1907 104.144C55.2856 104.369 55.343 104.588 55.3628 104.802L54.7292 104.38C54.7045 104.236 54.6525 104.102 54.5734 103.976C54.4942 103.851 54.3963 103.749 54.2796 103.672C54.0817 103.54 53.9313 103.543 53.8285 103.681C53.7266 103.82 53.6746 104.067 53.6727 104.421L53.6934 104.435C53.7389 104.357 53.8003 104.306 53.8774 104.281C53.9556 104.256 54.0441 104.256 54.143 104.282C54.243 104.307 54.3483 104.356 54.4591 104.43C54.6392 104.55 54.7994 104.708 54.9399 104.904C55.0804 105.098 55.1912 105.311 55.2723 105.543C55.3534 105.774 55.394 106.004 55.394 106.232C55.394 106.479 55.346 106.667 55.25 106.796C55.1551 106.925 55.022 106.987 54.8509 106.983C54.6807 106.977 54.4829 106.899 54.2573 106.747ZM54.2543 106.139C54.3533 106.205 54.4418 106.236 54.52 106.231C54.5981 106.226 54.6594 106.189 54.704 106.121C54.7485 106.054 54.7707 105.959 54.7707 105.838C54.7707 105.717 54.7485 105.593 54.704 105.467C54.6604 105.342 54.6001 105.225 54.5229 105.116C54.4458 105.008 54.3577 104.92 54.2588 104.854C54.1846 104.805 54.1158 104.776 54.0525 104.767C53.9902 104.759 53.9353 104.768 53.8878 104.796C53.8413 104.825 53.8047 104.869 53.778 104.93C53.7513 104.989 53.7379 105.063 53.7379 105.151C53.7379 105.269 53.7602 105.391 53.8047 105.518C53.8502 105.646 53.9116 105.765 53.9887 105.875C54.0669 105.985 54.1554 106.073 54.2543 106.139ZM56.9595 108.549C56.7498 108.409 56.5628 108.238 56.3986 108.036C56.2353 107.834 56.1057 107.62 56.0098 107.393C55.9138 107.166 55.8639 106.946 55.8599 106.733L56.4831 107.149C56.4901 107.295 56.5395 107.443 56.6315 107.592C56.7235 107.741 56.8329 107.858 56.9595 107.943C57.0604 108.01 57.1494 108.042 57.2266 108.04C57.3047 108.038 57.3656 108.003 57.4091 107.936C57.4536 107.868 57.4759 107.771 57.4759 107.645C57.4759 107.516 57.4531 107.388 57.4076 107.26C57.3631 107.133 57.3013 107.016 57.2221 106.909C57.143 106.801 57.0525 106.713 56.9506 106.644C56.8615 106.584 56.775 106.549 56.6909 106.537C56.6078 106.525 56.543 106.542 56.4965 106.587L55.9252 106.083L56.0691 104.253L57.927 105.492V106.123L56.5989 105.238L56.5202 106.1L56.5381 106.112C56.5915 106.057 56.6721 106.036 56.7799 106.048C56.8878 106.061 57.0084 106.112 57.142 106.201C57.325 106.323 57.4882 106.483 57.6317 106.682C57.7751 106.881 57.8884 107.099 57.9715 107.335C58.0546 107.57 58.0956 107.804 58.0947 108.038C58.0956 108.284 58.0482 108.472 57.9522 108.599C57.8572 108.726 57.7242 108.787 57.553 108.782C57.3829 108.777 57.185 108.699 56.9595 108.549ZM59.8649 106.784V110.436L59.2224 110.008V107.088L59.2046 107.076L58.5087 107.137V106.452L59.261 106.381L59.8649 106.784ZM61.7536 111.745C61.5973 111.64 61.4464 111.508 61.301 111.349C61.1565 111.191 61.027 111.004 60.9122 110.788C60.7974 110.573 60.7064 110.328 60.6392 110.053C60.5729 109.78 60.5397 109.476 60.5397 109.142C60.5407 108.836 60.5699 108.581 60.6273 108.378C60.6857 108.174 60.7688 108.024 60.8766 107.927C60.9854 107.831 61.1155 107.789 61.2669 107.802C61.4182 107.814 61.5879 107.882 61.7758 108.008C61.9786 108.143 62.1577 108.31 62.313 108.508C62.4683 108.706 62.593 108.917 62.6869 109.141C62.7819 109.366 62.8393 109.586 62.8591 109.8L62.2254 109.377C62.2007 109.234 62.1488 109.099 62.0696 108.974C61.9905 108.849 61.8926 108.747 61.7758 108.669C61.578 108.537 61.4276 108.54 61.3247 108.679C61.2228 108.818 61.1709 109.064 61.1689 109.418L61.1897 109.432C61.2352 109.354 61.2965 109.303 61.3737 109.279C61.4518 109.253 61.5404 109.254 61.6393 109.279C61.7392 109.304 61.8446 109.353 61.9554 109.427C62.1354 109.547 62.2957 109.705 62.4362 109.901C62.5766 110.096 62.6874 110.309 62.7686 110.54C62.8497 110.771 62.8902 111.001 62.8902 111.229C62.8902 111.477 62.8423 111.665 62.7463 111.793C62.6513 111.923 62.5183 111.985 62.3471 111.98C62.177 111.975 61.9791 111.897 61.7536 111.745ZM61.7506 111.137C61.8495 111.203 61.9381 111.233 62.0162 111.228C62.0944 111.223 62.1557 111.187 62.2002 111.119C62.2447 111.051 62.267 110.957 62.267 110.835C62.267 110.714 62.2447 110.59 62.2002 110.464C62.1567 110.339 62.0963 110.222 62.0192 110.114C61.942 110.005 61.854 109.918 61.7551 109.852C61.6809 109.803 61.6121 109.773 61.5488 109.764C61.4865 109.756 61.4316 109.766 61.3841 109.794C61.3376 109.822 61.301 109.867 61.2743 109.927C61.2476 109.987 61.2342 110.061 61.2342 110.149C61.2342 110.266 61.2565 110.389 61.301 110.516C61.3465 110.644 61.4078 110.762 61.485 110.872C61.5631 110.983 61.6517 111.071 61.7506 111.137Z" fill="black"/>
<path d="M22.0765 93.6122L23.3363 91.4559V91.431L21.8687 90.4526V89.8213L24.0011 91.2428V91.8831L22.7398 94.0544L22.0765 93.6122ZM24.2945 95.1373C24.1966 95.072 24.1125 94.9743 24.0423 94.8442C23.973 94.7137 23.9384 94.5895 23.9384 94.4718C23.9384 94.3553 23.973 94.2785 24.0423 94.2415C24.1125 94.2051 24.1966 94.2195 24.2945 94.2848C24.3895 94.3481 24.4726 94.4451 24.5438 94.5758C24.6151 94.7065 24.6507 94.8301 24.6507 94.9467C24.6507 95.0251 24.6339 95.0859 24.6002 95.1288C24.5676 95.1713 24.5245 95.1943 24.4711 95.1979C24.4177 95.2003 24.3588 95.1801 24.2945 95.1373ZM26.1064 92.6463V96.2988L25.4639 95.8704V92.951L25.446 92.9391L24.7501 92.9995V92.3146L25.5024 92.2437L26.1064 92.6463ZM27.8136 97.4369V93.7845L29.8614 95.1497V95.7863L28.4561 94.8495V95.7198L29.756 96.5864V97.2231L28.4561 96.3565V97.2286L29.8673 98.1694V98.8061L27.8136 97.4369ZM30.2565 96.0497V95.4131L32.7524 97.077V97.7137L31.822 97.0934V100.109L31.1869 99.6858V96.67L30.2565 96.0497ZM33.1634 101.003V97.351L33.8059 97.7794V99.2864L35.1103 100.156V98.6489L35.7513 99.0763V102.729L35.1103 102.301V100.793L33.8059 99.923V101.432L33.1634 101.003Z" fill="black"/>
<rect x="0.183191" y="0.342295" width="55.042" height="62.3075" rx="1.98151" transform="matrix(0.832051 0.5547 0 1 22.4253 11.5859)" fill="white"/>
<rect x="0.183191" y="0.342295" width="55.042" height="62.3075" rx="1.98151" transform="matrix(0.832051 0.5547 0 1 22.4253 11.5859)" fill="white"/>
<rect x="0.183191" y="0.342295" width="55.042" height="62.3075" rx="1.98151" transform="matrix(0.832051 0.5547 0 1 22.4253 11.5859)" fill="#EDEDED"/>
<rect x="0.183191" y="0.342295" width="55.042" height="62.3075" rx="1.98151" transform="matrix(0.832051 0.5547 0 1 22.4253 11.5859)" stroke="black" stroke-width="0.440336"/>
<ellipse cx="43.3903" cy="134.903" rx="41.3791" ry="4.44828" transform="rotate(30.9876 43.3903 134.903)" fill="#D9D9D9" fill-opacity="0.4"/>
<path d="M22.7063 22.7565C18.2214 10.4307 28.0032 19.8361 35.7712 19.6246C43.5391 19.4132 46.3517 9.66493 50.8365 21.9907C55.3214 34.3166 52.6599 44.48 44.8919 44.6915C37.1239 44.9029 27.1911 35.0823 22.7063 22.7565Z" fill="#F07594" fill-opacity="0.2"/>
<path d="M72.3573 83.7757C72.3573 94.5559 65.086 98.4474 56.1163 92.4676C47.1466 86.4878 46.8723 79.4457 45.4416 65.8319C43.8173 53.1899 30.9269 36.6361 56.1163 53.4291C65.086 59.4089 72.3573 72.9955 72.3573 83.7757Z" fill="#EAF7F5"/>
<path d="M72.3573 83.7757C72.3573 94.5559 65.086 98.4474 56.1163 92.4676C47.1466 86.4878 46.8723 79.4457 45.4416 65.8319C43.8173 53.1899 30.9269 36.6361 56.1163 53.4291C65.086 59.4089 72.3573 72.9955 72.3573 83.7757Z" fill="#84DED5"/>
<path d="M42.2052 63.5475C42.2052 74.3277 34.9339 78.2192 25.9642 72.2394C16.9945 66.2596 19.9751 61.667 19.9751 50.8868C19.9751 40.1066 19.6368 31.142 28.6064 37.1217C37.5761 43.1015 42.2052 52.7673 42.2052 63.5475Z" fill="#FF0040" fill-opacity="0.23"/>
<path d="M42.2052 63.5475C42.2052 74.3277 34.9339 78.2192 25.9642 72.2394C16.9945 66.2596 19.9751 61.667 19.9751 50.8868C19.9751 40.1066 19.6368 31.142 28.6064 37.1217C37.5761 43.1015 42.2052 52.7673 42.2052 63.5475Z" fill="#E1E431" fill-opacity="0.22"/>
</svg>
