<svg width="96" height="160" viewBox="0 0 96 160" fill="none" xmlns="http://www.w3.org/2000/svg">
<ellipse cx="47.3097" cy="138.226" rx="44.7129" ry="18.7077" transform="rotate(0.535093 47.3097 138.226)" fill="#D9D9D9" fill-opacity="0.4"/>
<path d="M54.3386 102.039C54.1806 99.3131 52.0875 95.846 51.3909 94.7613C51.2505 94.5427 51.018 94.4064 50.7594 94.3808L49.8009 94.2856C49.6886 94.2744 49.5761 94.2846 49.4687 94.3192C48.4357 94.652 42.8251 96.6296 43.0162 100.273C43.1686 103.18 46.7882 111.865 47.8611 114.383C47.9936 114.694 48.4053 114.739 48.6011 114.463C50.0516 112.423 54.5546 105.766 54.3386 102.039Z" fill="#EFF16E"/>
<path d="M52.2667 100.667C51.9735 98.6684 50.2515 96.2616 49.5967 95.4059C49.4389 95.1995 49.1943 95.0832 48.9345 95.0803L48.6054 95.0766C48.3283 95.0735 48.0661 95.2008 47.9086 95.4287C47.2202 96.4254 45.4083 99.3263 45.757 101.797C46.0404 103.806 47.5011 108.245 48.1392 110.127C48.2582 110.478 48.7209 110.529 48.9055 110.207C50.0098 108.287 52.6585 103.337 52.2667 100.667Z" fill="#EA5F5F" stroke="black" stroke-width="0.146896"/>
<path d="M26.1333 77.5082L38.9135 84.8377C40.0041 85.4632 41.3598 84.6583 41.3329 83.4014L40.9753 66.7203C40.9471 65.4036 39.4402 64.6719 38.388 65.464L25.9653 74.8155C25.0386 75.5131 25.127 76.9311 26.1333 77.5082Z" fill="white" stroke="black" stroke-width="0.293793"/>
<path d="M72.0391 76.8349L60.8872 84.1483C59.8069 84.8567 58.3733 84.0739 58.3853 82.7822L58.5364 66.4182C58.549 65.06 60.1299 64.3224 61.1788 65.1853L72.1796 74.2358C73.0209 74.928 72.9501 76.2374 72.0391 76.8349Z" fill="white" stroke="black" stroke-width="0.293793"/>
<path d="M67.4379 52.4126C68.3771 68.1656 57.0663 91.4686 57.0663 91.4686C57.0663 91.4686 52.1957 95.9011 48.3859 95.9211C44.5761 95.9411 39.6592 91.56 39.6592 91.56C39.6592 91.56 28.9192 68.2709 29.8329 52.6101C30.3115 44.4059 31.4909 39.7612 34.3522 32.0573C37.5637 23.4111 45.9226 11.4676 45.9226 11.4676L47.0098 9.97828C47.5927 9.17973 48.7822 9.17348 49.3735 9.96587L50.4763 11.4437C50.4763 11.4437 59.3854 23.2222 62.7764 31.9081C65.7628 39.5577 66.9491 44.2153 67.4379 52.4126Z" fill="white" stroke="black" stroke-width="0.810424"/>
<path d="M55.6646 20.5452C57.6029 23.5101 60.0979 28.4847 60.7842 29.8722C60.9045 30.1154 60.9531 30.3808 60.8966 30.6462C60.5487 32.2785 58.5743 38.2998 48.3554 38.541C38.0758 38.7836 36.2254 32.8861 35.9172 31.3394C35.8692 31.0985 35.9097 30.8577 36.0107 30.6339C36.5921 29.3463 38.7838 24.6039 41.4605 20.2168C43.5562 16.7821 45.8527 13.4045 47.1435 11.5446C47.652 10.8119 48.7178 10.7966 49.2499 11.5123C50.8187 13.6227 53.756 17.6258 55.6646 20.5452Z" fill="#FF9494"/>
<path d="M46.9844 55.8474C49.2838 59.8274 48.6322 64.4277 45.5561 66.132C42.48 67.8362 38.1177 66.0136 35.8184 62.0336C33.5191 58.0536 34.1707 53.4532 37.2468 51.749C40.3229 50.0448 44.6851 51.8674 46.9844 55.8474Z" fill="white" stroke="black" stroke-width="0.0734482"/>
<path d="M46.086 56.2927C48.3853 60.2727 47.7337 64.8731 44.6576 66.5773C41.5815 68.2815 37.2193 66.4589 34.92 62.4789C32.6207 58.4989 33.2723 53.8986 36.3484 52.1943C39.4245 50.4901 43.7867 52.3127 46.086 56.2927Z" fill="white" stroke="black" stroke-width="0.0734482"/>
<path d="M45.109 56.849C46.1285 58.6138 46.5089 60.5057 46.3058 62.1345C46.1028 63.7633 45.3189 65.1195 44.0185 65.8399C42.7181 66.5604 41.1274 66.5198 39.5971 65.8513C38.0669 65.1827 36.6068 63.889 35.5872 62.1242C34.5677 60.3594 34.1874 58.4675 34.3904 56.8386C34.5934 55.2098 35.3773 53.8537 36.6777 53.1332C37.9781 52.4128 39.5688 52.4533 41.0991 53.1219C42.6294 53.7904 44.0894 55.0841 45.109 56.849Z" fill="white" stroke="black" stroke-width="0.293793"/>
<path d="M36.1218 53.3846C36.1218 53.3846 33.4414 57.218 36.3156 61.72C39.1898 66.222 44.139 65.9022 44.139 65.9022" stroke="black" stroke-width="0.0734482"/>
<path d="M68.2643 102.144L53.6505 92.6933C52.0156 91.636 51.2682 89.6311 51.8122 87.7616L55.3688 75.5374L60.0551 72.7952L73.4302 97.6026C73.7936 98.2766 73.5783 99.1167 72.9355 99.5328L68.9027 102.144C68.7085 102.269 68.4586 102.27 68.2643 102.144Z" fill="white" stroke="black" stroke-width="0.293793"/>
<path d="M67.8959 102.163L52.7761 92.178C51.7028 91.4692 51.2153 90.1447 51.573 88.9093L55.4444 75.5386L68.9507 101.208C69.3044 101.88 68.5298 102.581 67.8959 102.163Z" fill="white" stroke="black" stroke-width="0.0734482"/>
<path d="M29.1654 103.013L43.6792 93.4096C45.3029 92.3352 46.0292 90.3226 45.4656 88.4589L41.7808 76.2727L37.0659 73.5798L23.9522 98.5264C23.5959 99.2041 23.82 100.042 24.4671 100.451L28.5271 103.02C28.7226 103.143 28.9725 103.141 29.1654 103.013Z" fill="white" stroke="black" stroke-width="0.293793"/>
<path d="M29.5367 103.027L44.5509 92.8844C45.6166 92.1644 46.0902 90.8348 45.7195 89.6032L41.708 76.2739L28.472 102.084C28.1254 102.759 28.9073 103.453 29.5367 103.027Z" fill="white" stroke="black" stroke-width="0.0734482"/>
</svg>
