<svg width="168" height="224" viewBox="0 0 168 224" fill="none" xmlns="http://www.w3.org/2000/svg">
<path d="M130.316 210.424C124.909 221.038 92.3143 215.269 57.5144 197.539C22.7145 179.808 -1.11274 156.831 4.29477 146.218C9.70228 135.604 42.2968 141.373 77.0967 159.103C111.897 176.833 135.724 199.81 130.316 210.424Z" fill="#D9D9D9" fill-opacity="0.4"/>
<path d="M106.152 144.135C100.571 155.416 90.3586 156.604 73.935 142.063C52.0567 133.422 21.3905 104.684 27.1193 90.18C32.8481 75.6759 55.228 70.9232 77.1062 79.5646C98.9845 88.206 106.152 129.529 106.152 144.135Z" fill="#E9E9E9"/>
<path fill-rule="evenodd" clip-rule="evenodd" d="M26.3891 66.2554C25.3559 60.4215 25.2513 52.9316 25.4126 46.8178C25.6077 39.4239 27.9202 32.2921 31.5701 25.8588L34.6662 20.4016C34.6662 20.4016 39.1511 17.6912 42.3012 16.6192C42.6552 16.4988 42.9989 16.3809 43.334 16.266L43.3344 16.2658C47.402 14.8709 50.2066 13.9091 54.7696 14.0068C59.1614 14.1008 61.807 14.8952 65.8131 16.6192C69.2893 18.1153 73.8878 22.0816 73.8878 22.0816C73.8878 22.0816 77.8524 26.2791 80.0627 28.9689C81.6108 30.8528 82.4398 32.2743 83.3534 33.8406C83.8794 34.7425 84.4334 35.6923 85.1688 36.8062C86.6428 39.0387 88.9687 42.506 88.9687 42.506L89.1712 42.6199V42.6075L91.4999 43.9297L148.176 75.8054C150.107 76.8916 152.009 78.0453 153.771 79.3756C154.497 79.8694 155.188 80.4097 155.82 81.0232C156.094 81.2886 156.387 81.5839 156.693 81.9071C158.653 83.8708 160.736 86.3557 161.404 88.5798C162.539 92.3548 163.175 95.1515 161.404 98.6733C160.278 100.914 159.248 102.688 157.122 103.5C152.413 106.532 146.17 106.256 146.17 106.256L118.604 87.4766C118.622 87.528 118.639 87.5791 118.656 87.63C119.352 89.7467 119.615 90.9944 119.843 93.2111C119.933 94.0815 119.949 95.157 119.937 96.1228C119.915 97.8053 119.474 99.4707 118.49 100.836C117.999 101.516 117.429 102.193 116.875 102.592C116.079 103.165 114.263 103.796 112.348 104.352C113.17 105.068 114.157 105.97 114.858 106.748C116.391 108.451 117.218 109.479 118.301 111.498C118.468 111.809 118.636 112.112 118.801 112.411L118.802 112.412C119.594 113.845 120.338 115.188 120.676 116.842C121.272 119.752 121.346 121.403 119.845 123.966C118.678 125.96 117.389 127.345 115.214 128.123C113.599 128.7 110.392 129.8 107.839 130.152C108.372 131.133 108.754 132.018 109.039 133.347C109.477 135.387 109.651 137.241 109.514 138.691C109.377 140.14 109.216 141.136 108.445 142.372C107.532 143.836 106.337 145.278 104.645 145.816C103.22 146.268 97.4131 147.776 95.4647 147.342C94.0257 147.021 93.9017 145.798 93.7685 144.484C93.6484 143.299 93.5208 142.04 92.4143 141.303C90.1947 139.824 88.9482 138.709 87.1652 137.113L87.0706 137.028C86.6903 136.688 86.2807 136.301 85.859 135.889C80.7649 133.393 70.5466 128.188 63.9131 123.491L63.1934 122.982C57.338 118.839 53.7723 116.316 48.7135 110.904C43.1254 104.926 40.585 100.953 36.6013 93.8047C33.6718 88.548 32.2404 85.45 30.189 79.7925C28.3173 74.6305 27.3467 71.6622 26.3891 66.2554ZM103.679 124.354C103.719 124.398 103.761 124.446 103.805 124.495C103.811 124.46 103.814 124.441 103.814 124.441L103.679 124.354Z" fill="white"/>
<path d="M25.4126 46.8178L25.1158 46.81L25.4126 46.8178ZM26.3891 66.2554L26.6814 66.2036L26.3891 66.2554ZM31.5701 25.8588L31.3119 25.7123L31.5701 25.8588ZM34.6662 20.4016L34.5127 20.1475L34.4463 20.1876L34.408 20.2551L34.6662 20.4016ZM42.3012 16.6192L42.2056 16.3382V16.3382L42.3012 16.6192ZM43.334 16.266L43.2378 15.9852L43.2377 15.9852L43.334 16.266ZM43.3344 16.2658L43.4307 16.5467L43.4307 16.5467L43.3344 16.2658ZM54.7696 14.0068L54.7633 14.3036L54.7696 14.0068ZM65.8131 16.6192L65.9304 16.3466L65.8131 16.6192ZM73.8878 22.0816L74.1037 21.8778L74.0932 21.8667L74.0817 21.8568L73.8878 22.0816ZM80.0627 28.9689L79.8333 29.1574L80.0627 28.9689ZM83.3534 33.8406L83.0969 33.9902V33.9902L83.3534 33.8406ZM85.1688 36.8062L85.4165 36.6426L85.1688 36.8062ZM88.9687 42.506L88.7222 42.6714L88.7615 42.7301L88.8232 42.7648L88.9687 42.506ZM89.1712 42.6199L89.0256 42.8787L89.468 43.1275V42.6199H89.1712ZM89.1712 42.6075L89.3177 42.3493L88.8743 42.0975V42.6075H89.1712ZM91.4999 43.9297L91.3534 44.1878L91.3544 44.1884L91.4999 43.9297ZM148.176 75.8054L148.031 76.0641L148.176 75.8054ZM153.771 79.3756L153.592 79.6125L153.598 79.6169L153.604 79.6211L153.771 79.3756ZM155.82 81.0232L156.027 80.8102V80.8102L155.82 81.0232ZM156.693 81.9071L156.477 82.1112L156.483 82.1168L156.693 81.9071ZM161.404 88.5798L161.12 88.6652L161.404 88.5798ZM161.404 98.6733L161.139 98.54L161.404 98.6733ZM157.122 103.5L157.016 103.223L156.987 103.234L156.962 103.25L157.122 103.5ZM146.17 106.256L146.003 106.501L146.072 106.549L146.157 106.552L146.17 106.256ZM118.604 87.4766L118.771 87.2313L118.03 86.7262L118.323 87.5738L118.604 87.4766ZM118.656 87.63L118.374 87.7227V87.7227L118.656 87.63ZM119.843 93.2111L120.139 93.1807L119.843 93.2111ZM119.937 96.1228L119.64 96.119L119.937 96.1228ZM118.49 100.836L118.249 100.662L118.49 100.836ZM116.875 102.592L117.048 102.833L116.875 102.592ZM112.348 104.352L112.266 104.067L111.743 104.218L112.153 104.576L112.348 104.352ZM114.858 106.748L115.078 106.55L114.858 106.748ZM118.301 111.498L118.563 111.358L118.301 111.498ZM118.801 112.411L119.062 112.269L119.061 112.268L118.801 112.411ZM118.802 112.412L118.541 112.555L118.542 112.556L118.802 112.412ZM120.676 116.842L120.385 116.901L120.676 116.842ZM119.845 123.966L120.101 124.117L119.845 123.966ZM115.214 128.123L115.114 127.843L115.214 128.123ZM107.839 130.152L107.798 129.858L107.373 129.916L107.578 130.294L107.839 130.152ZM109.039 133.347L109.329 133.285L109.039 133.347ZM108.445 142.372L108.193 142.215L108.445 142.372ZM104.645 145.816L104.735 146.098L104.645 145.816ZM95.4647 147.342L95.5293 147.052V147.052L95.4647 147.342ZM93.7685 144.484L93.4732 144.514L93.7685 144.484ZM92.4143 141.303L92.5788 141.056L92.4143 141.303ZM87.1652 137.113L87.3631 136.892H87.3631L87.1652 137.113ZM87.0706 137.028L87.2686 136.807L87.2686 136.807L87.0706 137.028ZM85.859 135.889L86.0664 135.677L86.0323 135.643L85.9896 135.622L85.859 135.889ZM63.9131 123.491L64.0847 123.249L64.0846 123.249L63.9131 123.491ZM63.1934 122.982L63.3649 122.74L63.3648 122.74L63.1934 122.982ZM48.7135 110.904L48.4966 111.107L48.7135 110.904ZM36.6013 93.8047L36.342 93.9492L36.6013 93.8047ZM30.189 79.7925L29.9099 79.8937H29.9099L30.189 79.7925ZM103.805 124.495L103.583 124.692L103.995 125.159L104.098 124.544L103.805 124.495ZM103.679 124.354L103.842 124.105L103.458 124.551L103.679 124.354ZM103.814 124.441L104.106 124.495L104.142 124.301L103.976 124.193L103.814 124.441ZM25.1158 46.81C24.9545 52.9278 25.0581 60.4425 26.0968 66.3072L26.6814 66.2036C25.6537 60.4006 25.5482 52.9355 25.7094 46.8257L25.1158 46.81ZM31.3119 25.7123C27.6425 32.1799 25.3124 39.359 25.1158 46.81L25.7094 46.8257C25.9029 39.4889 28.1979 32.4042 31.8283 26.0053L31.3119 25.7123ZM34.408 20.2551L31.3119 25.7123L31.8283 26.0053L34.9244 20.548L34.408 20.2551ZM42.2056 16.3382C40.6063 16.8824 38.6798 17.8378 37.1623 18.6507C36.4014 19.0583 35.7396 19.4321 35.2679 19.7041C35.032 19.8402 34.8436 19.9508 34.7139 20.0275C34.6491 20.0659 34.599 20.0958 34.565 20.1161C34.5479 20.1263 34.535 20.1341 34.5262 20.1393C34.5218 20.142 34.5185 20.144 34.5162 20.1453C34.5151 20.146 34.5142 20.1465 34.5136 20.1469C34.5133 20.1471 34.5131 20.1472 34.513 20.1473C34.5129 20.1474 34.5128 20.1474 34.5128 20.1474C34.5127 20.1475 34.5127 20.1475 34.6662 20.4016C34.8198 20.6556 34.8198 20.6556 34.8198 20.6556C34.8198 20.6556 34.8199 20.6556 34.8199 20.6555C34.82 20.6555 34.8202 20.6554 34.8205 20.6552C34.821 20.6549 34.8217 20.6545 34.8228 20.6538C34.8248 20.6526 34.828 20.6507 34.8322 20.6482C34.8406 20.6431 34.8532 20.6355 34.8698 20.6256C34.903 20.6057 34.9523 20.5763 35.0163 20.5385C35.1442 20.4628 35.3307 20.3533 35.5645 20.2185C36.0322 19.9488 36.6885 19.5781 37.4426 19.1741C38.955 18.3639 40.846 17.428 42.3968 16.9003L42.2056 16.3382ZM43.2377 15.9852C42.9025 16.1001 42.5591 16.2179 42.2056 16.3382L42.3968 16.9003C42.7512 16.7797 43.0952 16.6617 43.4303 16.5468L43.2377 15.9852ZM43.2382 15.985L43.2378 15.9852L43.4302 16.5468L43.4307 16.5467L43.2382 15.985ZM54.776 13.71C50.156 13.6111 47.3079 14.5893 43.2381 15.985L43.4307 16.5467C47.496 15.1525 50.2572 14.2071 54.7633 14.3036L54.776 13.71ZM65.9304 16.3466C61.9012 14.6125 59.2171 13.8051 54.776 13.71L54.7633 14.3036C59.1056 14.3966 61.7128 15.1778 65.6957 16.8919L65.9304 16.3466ZM73.8878 22.0816C74.0817 21.8568 74.0817 21.8568 74.0816 21.8567C74.0816 21.8567 74.0815 21.8566 74.0814 21.8565C74.0813 21.8564 74.081 21.8562 74.0807 21.8559C74.0801 21.8554 74.0792 21.8546 74.0781 21.8536C74.0757 21.8516 74.0723 21.8487 74.0678 21.8448C74.0587 21.837 74.0454 21.8256 74.0279 21.8107C73.9929 21.7809 73.9412 21.7371 73.8745 21.681C73.7409 21.5687 73.5465 21.407 73.3024 21.2083C72.8145 20.811 72.1276 20.2657 71.3312 19.6733C69.744 18.4924 67.7022 17.1091 65.9304 16.3466L65.6957 16.8919C67.4002 17.6255 69.3957 18.9733 70.9768 20.1496C71.7647 20.7358 72.4447 21.2755 72.9276 21.6687C73.169 21.8652 73.361 22.025 73.4925 22.1355C73.5582 22.1908 73.6088 22.2337 73.6428 22.2627C73.6599 22.2772 73.6727 22.2882 73.6813 22.2956C73.6856 22.2992 73.6888 22.302 73.6909 22.3038C73.692 22.3047 73.6928 22.3054 73.6933 22.3058C73.6935 22.306 73.6937 22.3062 73.6938 22.3063C73.6939 22.3063 73.6939 22.3064 73.6939 22.3064C73.694 22.3064 73.694 22.3064 73.8878 22.0816ZM80.292 28.7804C79.1816 27.4291 77.6333 25.7023 76.3655 24.3162C75.731 23.6226 75.1656 23.0131 74.7589 22.577C74.5556 22.359 74.3918 22.1842 74.2789 22.064C74.2224 22.0039 74.1787 21.9574 74.149 21.9259C74.1342 21.9101 74.1229 21.8981 74.1152 21.89C74.1114 21.886 74.1086 21.8829 74.1066 21.8809C74.1056 21.8799 74.1049 21.8791 74.1044 21.8786C74.1042 21.8783 74.104 21.8781 74.1039 21.878C74.1038 21.8779 74.1038 21.8779 74.1037 21.8778C74.1037 21.8778 74.1037 21.8778 73.8878 22.0816C73.672 22.2854 73.672 22.2855 73.6721 22.2855C73.6721 22.2855 73.6721 22.2856 73.6722 22.2856C73.6723 22.2857 73.6725 22.2859 73.6727 22.2862C73.6732 22.2867 73.6739 22.2874 73.6748 22.2884C73.6767 22.2904 73.6796 22.2934 73.6833 22.2974C73.6908 22.3054 73.7021 22.3173 73.7168 22.3329C73.7463 22.3642 73.7899 22.4105 73.8461 22.4704C73.9586 22.5903 74.1219 22.7645 74.3247 22.982C74.7305 23.417 75.2944 24.025 75.9274 24.717C77.1943 26.1021 78.7335 27.819 79.8333 29.1574L80.292 28.7804ZM83.6098 33.691C82.6949 32.1224 81.856 30.6837 80.292 28.7804L79.8333 29.1574C81.3655 31.0219 82.1847 32.4261 83.0969 33.9902L83.6098 33.691ZM85.4165 36.6426C84.6861 35.5364 84.1358 34.5929 83.6098 33.691L83.0969 33.9902C83.6229 34.892 84.1806 35.8483 84.921 36.9698L85.4165 36.6426ZM88.9687 42.506C89.2152 42.3407 89.2152 42.3407 89.2152 42.3406C89.2152 42.3406 89.2152 42.3406 89.2151 42.3405C89.2151 42.3404 89.2149 42.3403 89.2148 42.34C89.2145 42.3396 89.2141 42.339 89.2135 42.3382C89.2124 42.3365 89.2107 42.334 89.2085 42.3307C89.2041 42.3241 89.1975 42.3142 89.1888 42.3012C89.1714 42.2753 89.1457 42.237 89.1125 42.1874C89.046 42.0883 88.9494 41.9441 88.8289 41.7642C88.5879 41.4043 88.2511 40.9012 87.8683 40.3284C87.1026 39.1826 86.1531 37.7582 85.4165 36.6426L84.921 36.9698C85.6585 38.0868 86.6089 39.5123 87.3747 40.6583C87.7576 41.2313 88.0945 41.7346 88.3356 42.0946C88.4562 42.2746 88.5528 42.4188 88.6193 42.518C88.6525 42.5676 88.6782 42.606 88.6957 42.6319C88.7044 42.6449 88.711 42.6548 88.7154 42.6614C88.7177 42.6647 88.7193 42.6672 88.7205 42.6689C88.721 42.6697 88.7214 42.6704 88.7217 42.6708C88.7219 42.671 88.722 42.6712 88.722 42.6713C88.7221 42.6713 88.7221 42.6714 88.7221 42.6714C88.7221 42.6714 88.7222 42.6714 88.9687 42.506ZM89.3167 42.3612L89.1142 42.2473L88.8232 42.7648L89.0256 42.8787L89.3167 42.3612ZM88.8743 42.6075V42.6199H89.468V42.6075H88.8743ZM91.6465 43.6715L89.3177 42.3493L89.0246 42.8656L91.3534 44.1878L91.6465 43.6715ZM148.322 75.5466L91.6455 43.6709L91.3544 44.1884L148.031 76.0641L148.322 75.5466ZM153.95 79.1387C152.173 77.7968 150.258 76.6356 148.322 75.5466L148.031 76.0641C149.957 77.1476 151.846 78.2938 153.592 79.6125L153.95 79.1387ZM156.027 80.8102C155.38 80.1821 154.675 79.6312 153.938 79.1302L153.604 79.6211C154.32 80.1077 154.997 80.6373 155.614 81.2362L156.027 80.8102ZM156.908 81.7031C156.6 81.3766 156.303 81.0783 156.027 80.8102L155.614 81.2362C155.884 81.4989 156.174 81.7912 156.477 82.1111L156.908 81.7031ZM161.689 88.4944C160.997 86.1921 158.863 83.6612 156.903 81.6974L156.483 82.1168C158.443 84.0805 160.475 86.5193 161.12 88.6652L161.689 88.4944ZM161.669 98.8066C163.495 95.1742 162.825 92.2771 161.689 88.4944L161.12 88.6652C162.252 92.4325 162.854 95.1288 161.139 98.54L161.669 98.8066ZM157.228 103.777C159.472 102.919 160.546 101.042 161.669 98.8066L161.139 98.54C160.01 100.786 159.023 102.456 157.016 103.223L157.228 103.777ZM146.17 106.256C146.157 106.552 146.157 106.552 146.157 106.552C146.157 106.552 146.157 106.552 146.157 106.552C146.157 106.552 146.158 106.552 146.158 106.552C146.159 106.552 146.161 106.553 146.162 106.553C146.166 106.553 146.171 106.553 146.177 106.553C146.19 106.554 146.208 106.554 146.233 106.555C146.281 106.556 146.353 106.558 146.444 106.559C146.628 106.56 146.895 106.559 147.228 106.548C147.896 106.527 148.835 106.466 149.922 106.309C152.093 105.996 154.878 105.298 157.283 103.749L156.962 103.25C154.657 104.734 151.966 105.414 149.838 105.721C148.776 105.874 147.859 105.934 147.209 105.955C146.884 105.965 146.626 105.966 146.45 105.965C146.362 105.964 146.294 105.963 146.249 105.961C146.226 105.961 146.21 105.96 146.198 105.96C146.193 105.96 146.189 105.959 146.186 105.959C146.185 105.959 146.184 105.959 146.183 105.959C146.183 105.959 146.183 105.959 146.183 105.959C146.183 105.959 146.183 105.959 146.183 105.959C146.183 105.959 146.183 105.959 146.17 106.256ZM118.437 87.722L146.003 106.501L146.337 106.01L118.771 87.2313L118.437 87.722ZM118.938 87.5372C118.92 87.4848 118.903 87.4322 118.884 87.3794L118.323 87.5738C118.341 87.6238 118.358 87.6734 118.374 87.7227L118.938 87.5372ZM120.139 93.1807C119.908 90.9432 119.641 89.6745 118.938 87.5372L118.374 87.7227C119.063 89.8189 119.322 91.0457 119.548 93.2414L120.139 93.1807ZM120.233 96.1265C120.246 95.1573 120.23 94.0683 120.139 93.1807L119.548 93.2414C119.636 94.0947 119.652 95.1566 119.64 96.119L120.233 96.1265ZM118.73 101.009C119.757 99.585 120.212 97.8567 120.233 96.1265L119.64 96.119C119.619 97.7539 119.19 99.3565 118.249 100.662L118.73 101.009ZM117.048 102.833C117.643 102.405 118.236 101.695 118.73 101.009L118.249 100.662C117.762 101.337 117.215 101.981 116.701 102.351L117.048 102.833ZM112.431 104.637C113.392 104.358 114.333 104.058 115.136 103.756C115.932 103.456 116.616 103.144 117.048 102.833L116.701 102.351C116.337 102.613 115.716 102.903 114.927 103.2C114.144 103.495 113.219 103.79 112.266 104.067L112.431 104.637ZM115.078 106.55C114.365 105.757 113.367 104.845 112.543 104.128L112.153 104.576C112.974 105.29 113.949 106.182 114.637 106.947L115.078 106.55ZM118.563 111.358C117.465 109.31 116.62 108.262 115.078 106.55L114.637 106.947C116.161 108.64 116.972 109.648 118.04 111.638L118.563 111.358ZM119.061 112.268C118.895 111.968 118.729 111.667 118.563 111.358L118.04 111.638C118.207 111.951 118.376 112.256 118.542 112.555L119.061 112.268ZM119.062 112.27L119.062 112.269L118.541 112.554L118.541 112.555L119.062 112.27ZM120.967 116.782C120.618 115.077 119.851 113.696 119.062 112.269L118.542 112.556C119.337 113.993 120.057 115.299 120.385 116.901L120.967 116.782ZM120.101 124.117C120.868 122.806 121.244 121.711 121.343 120.56C121.442 119.417 121.266 118.241 120.967 116.782L120.385 116.901C120.683 118.353 120.842 119.457 120.751 120.509C120.661 121.551 120.323 122.563 119.589 123.816L120.101 124.117ZM115.314 128.402C117.577 127.593 118.912 126.147 120.101 124.117L119.589 123.816C118.443 125.774 117.202 127.097 115.114 127.843L115.314 128.402ZM107.879 130.446C110.467 130.09 113.702 128.978 115.314 128.402L115.114 127.843C113.497 128.421 110.317 129.511 107.798 129.858L107.879 130.446ZM109.329 133.285C109.037 131.922 108.643 131.01 108.1 130.01L107.578 130.294C108.1 131.255 108.47 132.114 108.749 133.409L109.329 133.285ZM109.809 138.719C109.95 137.228 109.77 135.341 109.329 133.285L108.749 133.409C109.183 135.434 109.351 137.254 109.218 138.663L109.809 138.719ZM108.697 142.529C109.505 141.234 109.671 140.182 109.809 138.719L109.218 138.663C109.083 140.099 108.927 141.039 108.193 142.215L108.697 142.529ZM104.735 146.098C106.533 145.527 107.775 144.006 108.697 142.529L108.193 142.215C107.288 143.666 106.141 145.029 104.555 145.533L104.735 146.098ZM95.4001 147.631C95.9375 147.751 96.7069 147.733 97.5514 147.645C98.4051 147.557 99.3684 147.393 100.31 147.202C102.193 146.821 104.011 146.329 104.735 146.098L104.555 145.533C103.854 145.755 102.057 146.243 100.192 146.62C99.2606 146.809 98.3177 146.969 97.4901 147.055C96.6532 147.142 95.9661 147.149 95.5293 147.052L95.4001 147.631ZM93.4732 144.514C93.5384 145.157 93.605 145.844 93.8558 146.406C94.1197 146.998 94.5846 147.45 95.4001 147.631L95.5293 147.052C94.9058 146.913 94.5891 146.593 94.398 146.164C94.1939 145.706 94.1319 145.125 94.0639 144.454L93.4732 144.514ZM92.2497 141.55C93.2215 142.198 93.3501 143.3 93.4732 144.514L94.0639 144.454C93.9467 143.298 93.8201 141.883 92.5788 141.056L92.2497 141.55ZM86.9672 137.334C88.7516 138.931 90.0113 140.059 92.2497 141.55L92.5788 141.056C90.378 139.59 89.1448 138.486 87.3631 136.892L86.9672 137.334ZM86.8727 137.249L86.9672 137.334L87.3631 136.892L87.2686 136.807L86.8727 137.249ZM85.6515 136.101C86.0753 136.515 86.4882 136.905 86.8727 137.249L87.2686 136.807C86.8924 136.47 86.486 136.087 86.0664 135.677L85.6515 136.101ZM63.7416 123.734C70.3969 128.446 80.6353 133.66 85.7283 136.156L85.9896 135.622C80.8946 133.126 70.6963 127.93 64.0847 123.249L63.7416 123.734ZM63.0219 123.224L63.7416 123.734L64.0846 123.249L63.3649 122.74L63.0219 123.224ZM48.4966 111.107C53.5775 116.542 57.1644 119.08 63.0219 123.224L63.3648 122.74C57.5117 118.598 53.9672 116.09 48.9304 110.701L48.4966 111.107ZM36.342 93.9492C40.3327 101.11 42.8865 105.105 48.4966 111.107L48.9304 110.701C43.3643 104.747 40.8374 100.796 36.8607 93.6602L36.342 93.9492ZM29.9099 79.8937C31.9669 85.5667 33.4051 88.6793 36.342 93.9492L36.8607 93.6602C33.9385 88.4168 32.5138 85.3332 30.4681 79.6914L29.9099 79.8937ZM26.0968 66.3072C27.0586 71.7376 28.0354 74.7239 29.9099 79.8937L30.4681 79.6914C28.5992 74.5371 27.6348 71.5867 26.6814 66.2036L26.0968 66.3072ZM104.027 124.299C103.983 124.249 103.941 124.201 103.901 124.156L103.458 124.551C103.497 124.595 103.539 124.642 103.583 124.692L104.027 124.299ZM103.814 124.441C103.522 124.388 103.522 124.388 103.522 124.388C103.522 124.388 103.522 124.388 103.522 124.388C103.522 124.388 103.522 124.388 103.522 124.388C103.522 124.388 103.522 124.388 103.522 124.388C103.522 124.388 103.522 124.388 103.522 124.389C103.522 124.389 103.522 124.389 103.522 124.389C103.522 124.389 103.522 124.389 103.522 124.39C103.522 124.39 103.522 124.391 103.521 124.393C103.521 124.395 103.52 124.399 103.519 124.404C103.518 124.414 103.515 124.428 103.512 124.446L104.098 124.544C104.101 124.527 104.103 124.514 104.104 124.506C104.105 124.502 104.105 124.499 104.106 124.497C104.106 124.496 104.106 124.495 104.106 124.495C104.106 124.495 104.106 124.495 104.106 124.495C104.106 124.495 104.106 124.495 104.106 124.495C104.106 124.495 104.106 124.495 104.106 124.495C104.106 124.495 104.106 124.495 104.106 124.495C104.106 124.495 104.106 124.495 104.106 124.495C104.106 124.495 104.106 124.495 103.814 124.441ZM103.517 124.602L103.652 124.69L103.976 124.193L103.842 124.105L103.517 124.602Z" fill="black"/>
<path d="M16.3563 50.4299C16.2502 56.2435 16.4141 63.0213 17.3657 68.3943C18.3232 73.8011 19.2938 76.7694 21.1656 81.9315C23.2169 87.5889 24.6484 90.687 27.5779 95.9436C31.5616 103.092 34.102 107.065 39.6901 113.043C44.9529 118.673 48.5997 121.177 54.8897 125.63C64.021 132.096 79.9453 139.524 79.9453 139.524L80.539 69.8193L141.575 104.731C141.575 104.731 144.98 106.397 147.156 105.918C149.942 105.306 151.099 103.361 152.381 100.812C154.151 97.2904 153.515 94.4937 152.381 90.7187C151.7 88.4519 149.549 85.9141 147.556 83.9333C145.105 81.4969 142.165 79.6385 139.153 77.9443L79.9453 44.645C79.9453 44.645 77.6194 41.1777 76.1454 38.9451C74.1327 35.8967 73.4786 34.0764 71.0392 31.1078C68.829 28.4181 64.8644 24.2205 64.8644 24.2205C64.8644 24.2205 60.2658 20.2542 56.7896 18.7582C52.7835 17.0341 50.1071 17.0354 45.7462 17.0957C41.7517 17.1509 39.3747 17.3071 35.6527 18.7582C30.9862 20.5774 28.6924 22.6533 25.3217 26.358C25.0206 26.689 24.7079 27.0502 24.3881 27.4339C19.0463 33.8411 16.5084 42.0894 16.3563 50.4299Z" fill="white" stroke="black" stroke-width="0.474987"/>
<path d="M107.497 85.2543L80.3041 69.4609C80.3041 69.4609 75.0195 79.1027 75.3168 85.8485C75.4054 87.8599 75.7918 91.6671 75.7918 91.6671L102.391 105.679C102.391 105.679 106.058 106.43 108.091 104.967C108.646 104.567 109.216 103.89 109.706 103.21C110.69 101.845 111.132 100.18 111.153 98.4974C111.165 97.5316 111.149 96.4561 111.06 95.5857C110.832 93.3691 110.568 92.1214 109.872 90.0046C109.172 87.8753 107.497 85.2543 107.497 85.2543Z" fill="white" stroke="black" stroke-width="0.237494"/>
<path d="M102.034 105.444L75.7909 91.5508C75.7909 91.5508 71.1203 93.5285 69.8535 96.1824C68.9093 98.1604 69.0575 99.581 69.2598 101.763C69.5143 104.509 70.3588 105.969 71.6347 108.413C72.9567 110.946 75.9096 114.351 75.9096 114.351L95.0278 126.819C95.0278 126.819 97.9495 129.372 100.253 130.025C102.573 130.683 104.157 130.837 106.428 130.025C108.603 129.248 109.891 128.338 111.059 126.344C112.56 123.78 112.486 122.13 111.89 119.219C111.48 117.22 110.48 115.674 109.515 113.876C108.432 111.857 107.604 110.828 106.071 109.126C104.644 107.54 102.034 105.444 102.034 105.444Z" fill="white" stroke="black" stroke-width="0.237494"/>
<path d="M94.4327 126.225L75.4332 113.875C75.4332 113.875 72.6011 115.116 71.3958 116.369C70.2361 117.574 69.8993 118.441 69.1396 119.932C68.2279 121.72 68.5459 125.275 68.5459 125.275C68.5459 125.275 68.8951 128.126 69.7333 129.669C70.4543 130.995 71.8708 132.756 71.8708 132.756C71.8708 132.756 75.7344 137.125 78.2831 139.406L78.3776 139.491C80.1607 141.087 81.4071 142.202 83.6267 143.681C85.9602 145.236 88.0147 146.633 90.7515 147.243C92.6999 147.678 94.4327 147.696 95.8576 147.243C97.5492 146.706 98.744 146.214 99.6575 144.75C100.428 143.514 100.589 142.518 100.726 141.068C100.863 139.619 100.689 137.765 100.251 135.725C99.8373 133.796 99.2201 132.802 98.2326 131.094C97.0253 129.006 94.4327 126.225 94.4327 126.225Z" fill="white" stroke="black" stroke-width="0.237494"/>
<path d="M80.1484 69.5642V44.7461L142.874 80.3598C144.279 81.1574 145.639 82.0365 146.798 83.1618C150.064 86.3338 156.207 93.792 151.812 101.745C147.875 108.869 140.591 104.594 140.591 104.594L80.1484 69.5642Z" fill="#F1F1F1" stroke="black" stroke-width="0.593734"/>
<path d="M81.4812 63.0635L81.5625 67.0469L81.5947 66.3377L81.5363 58.3786L81.4698 50.6373L81.384 49.2988L81.4812 63.0635Z" fill="black"/>
<path d="M96.962 77.8227L83.9453 70.3047L86.0497 71.6899L137.175 101.062L141.109 103.085L96.962 77.8227Z" fill="black"/>
<path d="M99.4151 57.0961L86.3984 49.5781L88.5028 50.9634L139.628 80.3349L143.562 82.3585L99.4151 57.0961Z" fill="black"/>
<path d="M80.0645 44.7656L80.3949 80.3384C80.4118 82.1588 79.9742 83.9893 78.788 85.3703C78.0406 86.2403 77.108 87.1206 76.1459 87.5145C74.0429 88.3753 72.4725 88.2637 70.3273 87.5145C67.8768 86.6586 66.3471 85.0651 64.6274 83.1208C62.8805 81.1458 62.6377 79.9372 61.54 77.5397C60.3648 74.9729 60.1312 73.3321 59.7588 70.5337C59.3367 67.3619 59.7588 62.3402 59.7588 62.3402M59.7588 44.7656V62.3402M59.7588 62.3402C59.7588 62.3402 56.8457 65.6733 54.6527 67.4463C52.9923 68.7887 52.1621 69.847 50.1403 70.5337C47.7253 71.354 46.1078 71.0458 43.6092 70.5337C41.6685 70.1359 38.8594 67.565 38.8594 67.565" stroke="black" stroke-width="0.593734"/>
<path d="M147.568 85.6352C147.524 85.5866 147.449 85.5828 147.4 85.6267C147.351 85.6707 147.348 85.7458 147.392 85.7944L147.568 85.6352ZM147.392 85.7944C149.042 87.6217 150.4 90.0413 151.197 92.4319C151.995 94.8263 152.224 97.1713 151.642 98.857L151.867 98.9345C152.473 97.1766 152.227 94.7716 151.422 92.3568C150.616 89.9382 149.242 87.4892 147.568 85.6352L147.392 85.7944ZM151.642 98.857C151.051 100.571 150.346 101.917 149.371 102.863C148.399 103.806 147.15 104.36 145.453 104.477L145.469 104.714C147.215 104.594 148.519 104.02 149.536 103.033C150.55 102.05 151.27 100.664 151.867 98.9345L151.642 98.857Z" fill="url(#paint0_linear_4164_26802)"/>
<path d="M78.215 79.0789C76.5319 83.6806 77.1776 90.2258 73.2259 86.7008C72.1535 86.3086 72.6486 82.2603 74.3317 77.6586C76.0148 73.0569 78.9548 69.5282 80.0271 69.9204C80.3838 70.2763 79.898 74.4772 78.215 79.0789Z" fill="white"/>
<defs>
<linearGradient id="paint0_linear_4164_26802" x1="148.43" y1="97.827" x2="145.698" y2="97.5895" gradientUnits="userSpaceOnUse">
<stop/>
<stop offset="1" stop-opacity="0"/>
</linearGradient>
</defs>
</svg>
