<svg width="168" height="224" viewBox="0 0 168 224" fill="none" xmlns="http://www.w3.org/2000/svg">
<ellipse cx="83.8462" cy="163.483" rx="82.9956" ry="38.1983" transform="rotate(0.535091 83.8462 163.483)" fill="#D9D9D9" fill-opacity="0.4"/>
<ellipse cx="110.088" cy="192.488" rx="50.071" ry="23.0449" transform="rotate(0.535091 110.088 192.488)" fill="#D9D9D9" fill-opacity="0.4"/>
<path d="M86.3009 59.9331V171.366C86.3009 172.652 84.911 173.457 83.7958 172.817L24.1467 138.6C23.3182 138.125 23.0552 137.054 23.5693 136.249L74.5091 56.4888C76.188 53.8601 79.5176 52.8249 82.391 54.0381C84.7607 55.0386 86.3009 57.3608 86.3009 59.9331Z" fill="white" stroke="black" stroke-width="0.167279"/>
<path d="M85.3561 172.841L147.591 140.6C149.143 139.796 149.715 137.891 148.799 136.403C139.914 121.97 98.3038 54.6649 93.3035 51.9394C87.7013 48.8858 88.6899 49.9915 85.6071 50.142C82.6564 50.286 78.4141 52.4839 78.4141 52.4839L85.3561 172.841Z" fill="white" stroke="black" stroke-width="0.167279"/>
<path d="M78.4141 52.7337L86.1925 84.3847L92.8294 73.739L109.708 74.8556L100.829 61.5995L96.0616 54.8799C94.6994 52.96 93.0938 51.1574 90.9816 50.1181C90.653 49.9564 90.3321 49.8182 90.0399 49.7227C88.3634 49.1747 87.2665 49.2857 85.5234 49.5554C82.518 50.0205 78.4141 52.7337 78.4141 52.7337Z" fill="#DEDEDE" stroke="black" stroke-width="0.418197"/>
<path d="M86.3009 59.9331V171.366C86.3009 172.652 84.911 173.457 83.7958 172.817L24.1467 138.6C23.3182 138.125 23.0552 137.054 23.5693 136.249L74.5091 56.4888C76.188 53.8601 79.5176 52.8249 82.391 54.0381C84.7607 55.0386 86.3009 57.3608 86.3009 59.9331Z" fill="white" stroke="black" stroke-width="0.167279"/>
<path d="M86.2954 58.2207L86.0183 83.9104L74.2148 70.9448L63.4062 74.2551L75.4301 55.0381C76.6269 53.1255 78.8124 52.0662 81.0551 52.3117C84.0615 52.6408 86.328 55.1965 86.2954 58.2207Z" fill="#E7E7E7" stroke="black" stroke-width="0.418197"/>
<mask id="path-8-inside-1_4164_26468" fill="white">
<path fill-rule="evenodd" clip-rule="evenodd" d="M71.6477 99.0833C71.6481 99.0836 71.6485 99.0838 71.6489 99.084C74.7385 100.938 77.9366 99.6032 78.7922 96.1033C79.6477 92.6033 77.8367 88.2632 74.7471 86.4095C74.2727 86.1248 73.7957 85.9153 73.325 85.7773C72.8702 82.1853 70.787 78.6277 67.7968 76.8336C64.2493 74.7051 60.5934 75.7598 58.957 79.1097C58.6656 78.854 58.3552 78.6253 58.0281 78.4291C55.3743 76.8368 52.6271 77.9831 51.8922 80.9895C51.164 83.9688 52.6851 87.6568 55.2954 89.2727L55.2952 89.2734L71.6474 99.0848L71.6477 99.0833Z"/>
</mask>
<path fill-rule="evenodd" clip-rule="evenodd" d="M71.6477 99.0833C71.6481 99.0836 71.6485 99.0838 71.6489 99.084C74.7385 100.938 77.9366 99.6032 78.7922 96.1033C79.6477 92.6033 77.8367 88.2632 74.7471 86.4095C74.2727 86.1248 73.7957 85.9153 73.325 85.7773C72.8702 82.1853 70.787 78.6277 67.7968 76.8336C64.2493 74.7051 60.5934 75.7598 58.957 79.1097C58.6656 78.854 58.3552 78.6253 58.0281 78.4291C55.3743 76.8368 52.6271 77.9831 51.8922 80.9895C51.164 83.9688 52.6851 87.6568 55.2954 89.2727L55.2952 89.2734L71.6474 99.0848L71.6477 99.0833Z" fill="#F7F7F7"/>
<path d="M71.6477 99.0833L71.6875 98.9208L71.544 98.8348L71.5043 98.9973L71.6477 99.0833ZM73.325 85.7773L73.178 85.7663L73.1974 85.9195L73.3216 85.9559L73.325 85.7773ZM58.957 79.1097L58.8897 79.252L59.021 79.3672L59.089 79.2279L58.957 79.1097ZM55.2954 89.2727L55.4388 89.3587L55.4779 89.1986L55.3372 89.1114L55.2954 89.2727ZM55.2952 89.2734L55.1517 89.1874L55.112 89.3499L55.2554 89.4359L55.2952 89.2734ZM71.6474 99.0848L71.6077 99.2473L71.7511 99.3333L71.7908 99.1708L71.6474 99.0848ZM71.608 99.2458C71.6082 99.246 71.6084 99.2461 71.6086 99.2462C71.6088 99.2463 71.609 99.2464 71.6092 99.2465L71.6886 98.9215C71.6884 98.9214 71.6882 98.9213 71.688 98.9212C71.6878 98.9211 71.6876 98.921 71.6875 98.9208L71.608 99.2458ZM71.6092 99.2465C74.778 101.148 78.0581 99.779 78.9356 96.1893L78.6487 96.0172C77.8151 99.4274 74.699 100.728 71.6886 98.9215L71.6092 99.2465ZM78.9356 96.1893C79.8131 92.5996 77.9556 88.1482 74.7868 86.247L74.7074 86.572C77.7178 88.3782 79.4824 92.6069 78.6487 96.0172L78.9356 96.1893ZM74.7868 86.247C74.3004 85.9551 73.8112 85.7403 73.3283 85.5987L73.3216 85.9559C73.7801 86.0904 74.2449 86.2945 74.7074 86.572L74.7868 86.247ZM73.472 85.7884C73.0085 82.1271 70.885 78.5001 67.8366 76.6711L67.7571 76.9961C70.689 78.7552 72.732 82.2436 73.178 85.7663L73.472 85.7884ZM67.8366 76.6711C64.22 74.5011 60.4932 75.5765 58.8251 78.9916L59.089 79.2279C60.6935 75.943 64.2786 74.909 67.7571 76.9961L67.8366 76.6711ZM59.0243 78.9675C58.7241 78.704 58.4045 78.4686 58.0679 78.2666L57.9884 78.5916C58.3059 78.7821 58.607 79.004 58.8897 79.252L59.0243 78.9675ZM58.0679 78.2666C55.3348 76.6267 52.5056 77.8073 51.7488 80.9034L52.0357 81.0756C52.7486 78.1589 55.4138 77.0468 57.9884 78.5916L58.0679 78.2666ZM51.7488 80.9034C50.9988 83.9717 52.5653 87.7697 55.2535 89.4339L55.3372 89.1114C52.8049 87.5438 51.3291 83.9659 52.0357 81.0756L51.7488 80.9034ZM55.4386 89.3595L55.4388 89.3587L55.1519 89.1866L55.1517 89.1874L55.4386 89.3595ZM71.6871 98.9223L55.3349 89.1109L55.2554 89.4359L71.6077 99.2473L71.6871 98.9223ZM71.5043 98.9973L71.5039 98.9987L71.7908 99.1708L71.7912 99.1694L71.5043 98.9973Z" fill="black" mask="url(#path-8-inside-1_4164_26468)"/>
<mask id="path-10-inside-2_4164_26468" fill="white">
<path fill-rule="evenodd" clip-rule="evenodd" d="M69.9757 99.4153C69.9761 99.4155 69.9766 99.4158 69.977 99.4161C73.0666 101.27 76.2648 99.9353 77.1203 96.4353C77.9759 92.9353 76.1648 88.5952 73.0752 86.7415C72.6008 86.4568 72.1238 86.2473 71.6531 86.1093C71.1983 82.5174 69.1151 78.9597 66.125 77.1656C62.5774 75.0371 58.9215 76.0918 57.2851 79.4418C56.9937 79.186 56.6833 78.9574 56.3563 78.7611C53.7024 77.1688 50.9553 78.3151 50.2204 81.3215C49.4855 84.3279 51.0411 88.0559 53.695 89.6483C53.7225 89.6648 53.7501 89.6811 53.7777 89.697L69.9756 99.4157L69.9757 99.4153Z"/>
</mask>
<path fill-rule="evenodd" clip-rule="evenodd" d="M69.9757 99.4153C69.9761 99.4155 69.9766 99.4158 69.977 99.4161C73.0666 101.27 76.2648 99.9353 77.1203 96.4353C77.9759 92.9353 76.1648 88.5952 73.0752 86.7415C72.6008 86.4568 72.1238 86.2473 71.6531 86.1093C71.1983 82.5174 69.1151 78.9597 66.125 77.1656C62.5774 75.0371 58.9215 76.0918 57.2851 79.4418C56.9937 79.186 56.6833 78.9574 56.3563 78.7611C53.7024 77.1688 50.9553 78.3151 50.2204 81.3215C49.4855 84.3279 51.0411 88.0559 53.695 89.6483C53.7225 89.6648 53.7501 89.6811 53.7777 89.697L69.9756 99.4157L69.9757 99.4153Z" fill="white"/>
<path d="M69.9757 99.4153L70.0154 99.2528L69.872 99.1667L69.8323 99.3292L69.9757 99.4153ZM71.6531 86.1093L71.5061 86.0983L71.5255 86.2515L71.6497 86.288L71.6531 86.1093ZM57.2851 79.4418L57.2179 79.584L57.3491 79.6992L57.4171 79.5599L57.2851 79.4418ZM53.7777 89.697L53.8175 89.5345L53.815 89.5331L53.7777 89.697ZM69.9756 99.4157L69.9359 99.5782L70.0793 99.6643L70.119 99.5018L69.9756 99.4157ZM69.936 99.5778C69.936 99.5778 69.936 99.5778 69.936 99.5778L69.936 99.5778C69.936 99.5778 69.936 99.5778 69.936 99.5778L69.936 99.5778C69.936 99.5778 69.936 99.5778 69.936 99.5778L69.936 99.5778C69.936 99.5778 69.936 99.5778 69.936 99.5778C69.936 99.5778 69.936 99.5778 69.936 99.5778L69.936 99.5778C69.936 99.5778 69.936 99.5778 69.936 99.5778L69.936 99.5778C69.936 99.5778 69.936 99.5778 69.936 99.5778L69.936 99.5778C69.936 99.5778 69.936 99.5778 69.936 99.5778L69.936 99.5778C69.936 99.5778 69.936 99.5778 69.936 99.5778C69.936 99.5778 69.936 99.5778 69.936 99.5778L69.936 99.5778C69.936 99.5778 69.936 99.5778 69.936 99.5778L69.936 99.5778C69.936 99.5778 69.936 99.5778 69.936 99.5778L69.936 99.5778C69.936 99.5778 69.936 99.5778 69.936 99.5778C69.936 99.5778 69.936 99.5778 69.936 99.5778L69.936 99.5778C69.936 99.5778 69.936 99.5778 69.936 99.5778L69.936 99.5778C69.936 99.5778 69.936 99.5778 69.9361 99.5778L69.9361 99.5778C69.9361 99.5778 69.9361 99.5778 69.9361 99.5778C69.9361 99.5778 69.9361 99.5778 69.9361 99.5778L69.9361 99.5778C69.9361 99.5778 69.9361 99.5778 69.9361 99.5778L69.9361 99.5778C69.9361 99.5778 69.9361 99.5778 69.9361 99.5778L69.9361 99.5778C69.9361 99.5778 69.9361 99.5778 69.9361 99.5778L69.9361 99.5778C69.9361 99.5778 69.9361 99.5778 69.9361 99.5778C69.9361 99.5778 69.9361 99.5778 69.9361 99.5778L69.9361 99.5778C69.9361 99.5778 69.9361 99.5778 69.9361 99.5778L69.9361 99.5778C69.9361 99.5778 69.9361 99.5778 69.9361 99.5778L69.9361 99.5778C69.9361 99.5778 69.9361 99.5778 69.9361 99.5778C69.9361 99.5778 69.9361 99.5778 69.9361 99.5778L69.9361 99.5778C69.9361 99.5778 69.9361 99.5778 69.9361 99.5778L69.9361 99.5778C69.9361 99.5778 69.9361 99.5778 69.9361 99.5779L69.9361 99.5779C69.9361 99.5779 69.9361 99.5779 69.9361 99.5779C69.9361 99.5779 69.9361 99.5779 69.9361 99.5779L69.9361 99.5779C69.9361 99.5779 69.9361 99.5779 69.9361 99.5779L69.9361 99.5779C69.9361 99.5779 69.9361 99.5779 69.9361 99.5779L69.9361 99.5779C69.9361 99.5779 69.9361 99.5779 69.9361 99.5779L69.9361 99.5779C69.9361 99.5779 69.9361 99.5779 69.9361 99.5779C69.9361 99.5779 69.9361 99.5779 69.9361 99.5779L69.9361 99.5779C69.9361 99.5779 69.9361 99.5779 69.9361 99.5779L69.9361 99.5779C69.9361 99.5779 69.9361 99.5779 69.9362 99.5779L69.9362 99.5779C69.9362 99.5779 69.9362 99.5779 69.9362 99.5779C69.9362 99.5779 69.9362 99.5779 69.9362 99.5779L69.9362 99.5779C69.9362 99.5779 69.9362 99.5779 69.9362 99.5779L69.9362 99.5779C69.9362 99.5779 69.9362 99.5779 69.9362 99.5779L69.9362 99.5779C69.9362 99.5779 69.9362 99.5779 69.9362 99.5779C69.9362 99.5779 69.9362 99.5779 69.9362 99.5779L69.9362 99.5779C69.9362 99.5779 69.9362 99.5779 69.9362 99.5779L69.9362 99.5779C69.9362 99.5779 69.9362 99.5779 69.9362 99.5779L69.9362 99.5779C69.9362 99.5779 69.9362 99.5779 69.9362 99.5779L69.9362 99.5779C69.9362 99.5779 69.9362 99.5779 69.9362 99.5779C69.9362 99.5779 69.9362 99.5779 69.9362 99.5779L69.9362 99.5779C69.9362 99.5779 69.9362 99.5779 69.9362 99.5779L69.9362 99.5779C69.9362 99.5779 69.9362 99.5779 69.9362 99.5779L69.9362 99.5779C69.9362 99.5779 69.9362 99.5779 69.9362 99.5779C69.9362 99.5779 69.9362 99.5779 69.9362 99.5779L69.9362 99.5779C69.9362 99.5779 69.9362 99.5779 69.9362 99.5779L69.9362 99.5779C69.9362 99.5779 69.9362 99.5779 69.9362 99.5779L69.9362 99.5779C69.9362 99.5779 69.9362 99.5779 69.9362 99.5779C69.9362 99.5779 69.9362 99.5779 69.9362 99.5779L69.9362 99.5779C69.9362 99.5779 69.9362 99.5779 69.9362 99.5779L69.9362 99.5779C69.9362 99.5779 69.9362 99.5779 69.9362 99.5779L69.9362 99.5779C69.9362 99.5779 69.9362 99.5779 69.9362 99.5779C69.9362 99.5779 69.9363 99.5779 69.9363 99.5779L69.9363 99.5779C69.9363 99.5779 69.9363 99.5779 69.9363 99.5779L69.9363 99.5779C69.9363 99.5779 69.9363 99.5779 69.9363 99.5779L69.9363 99.5779C69.9363 99.5779 69.9363 99.5779 69.9363 99.5779L69.9363 99.5779C69.9363 99.5779 69.9363 99.5779 69.9363 99.5779C69.9363 99.5779 69.9363 99.5779 69.9363 99.578L69.9363 99.578C69.9363 99.578 69.9363 99.578 69.9363 99.578L69.9363 99.578C69.9363 99.578 69.9363 99.578 69.9363 99.578L69.9363 99.578C69.9363 99.578 69.9363 99.578 69.9363 99.578C69.9363 99.578 69.9363 99.578 69.9363 99.578L69.9363 99.578C69.9363 99.578 69.9363 99.578 69.9363 99.578L69.9363 99.578C69.9363 99.578 69.9363 99.578 69.9363 99.578L69.9363 99.578C69.9363 99.578 69.9363 99.578 69.9363 99.578C69.9363 99.578 69.9363 99.578 69.9363 99.578L69.9363 99.578C69.9363 99.578 69.9363 99.578 69.9363 99.578L69.9363 99.578C69.9363 99.578 69.9363 99.578 69.9363 99.578L69.9363 99.578C69.9363 99.578 69.9363 99.578 69.9363 99.578C69.9363 99.578 69.9363 99.578 69.9363 99.578L69.9363 99.578C69.9363 99.578 69.9363 99.578 69.9363 99.578L69.9363 99.578C69.9363 99.578 69.9363 99.578 69.9363 99.578L69.9363 99.578C69.9363 99.578 69.9363 99.578 69.9363 99.578L69.9363 99.578C69.9363 99.578 69.9363 99.578 69.9363 99.578C69.9364 99.578 69.9364 99.578 69.9364 99.578L69.9364 99.578C69.9364 99.578 69.9364 99.578 69.9364 99.578L69.9364 99.578C69.9364 99.578 69.9364 99.578 69.9364 99.578L69.9364 99.578C69.9364 99.578 69.9364 99.578 69.9364 99.578C69.9364 99.578 69.9364 99.578 69.9364 99.578L69.9364 99.578C69.9364 99.578 69.9364 99.578 69.9364 99.578L69.9364 99.578C69.9364 99.578 69.9364 99.578 69.9364 99.578L69.9364 99.578C69.9364 99.578 69.9364 99.578 69.9364 99.578C69.9364 99.578 69.9364 99.578 69.9364 99.578L69.9364 99.578C69.9364 99.578 69.9364 99.578 69.9364 99.578L69.9364 99.578C69.9364 99.578 69.9364 99.578 69.9364 99.578L69.9364 99.578C69.9364 99.578 69.9364 99.578 69.9364 99.578C69.9364 99.578 69.9364 99.578 69.9364 99.578L69.9364 99.578C69.9364 99.578 69.9364 99.578 69.9364 99.578L69.9364 99.578C69.9364 99.578 69.9364 99.578 69.9364 99.578L69.9364 99.578C69.9364 99.578 69.9364 99.578 69.9364 99.578L69.9364 99.578C69.9364 99.578 69.9364 99.578 69.9364 99.578C69.9364 99.578 69.9364 99.578 69.9364 99.578L69.9364 99.578C69.9364 99.578 69.9364 99.578 69.9364 99.578L69.9364 99.578C69.9364 99.578 69.9364 99.578 69.9364 99.578L69.9364 99.578C69.9364 99.5781 69.9364 99.5781 69.9364 99.5781C69.9364 99.5781 69.9364 99.5781 69.9364 99.5781L69.9364 99.5781C69.9365 99.5781 69.9365 99.5781 69.9365 99.5781L69.9365 99.5781C69.9365 99.5781 69.9365 99.5781 69.9365 99.5781L69.9365 99.5781C69.9365 99.5781 69.9365 99.5781 69.9365 99.5781C69.9365 99.5781 69.9365 99.5781 69.9365 99.5781L69.9365 99.5781C69.9365 99.5781 69.9365 99.5781 69.9365 99.5781L69.9365 99.5781C69.9365 99.5781 69.9365 99.5781 69.9365 99.5781L69.9365 99.5781C69.9365 99.5781 69.9365 99.5781 69.9365 99.5781C69.9365 99.5781 69.9365 99.5781 69.9365 99.5781L69.9365 99.5781C69.9365 99.5781 69.9365 99.5781 69.9365 99.5781L69.9365 99.5781C69.9365 99.5781 69.9365 99.5781 69.9365 99.5781L69.9365 99.5781C69.9365 99.5781 69.9365 99.5781 69.9365 99.5781L69.9365 99.5781C69.9365 99.5781 69.9365 99.5781 69.9365 99.5781C69.9365 99.5781 69.9365 99.5781 69.9365 99.5781L69.9365 99.5781C69.9365 99.5781 69.9365 99.5781 69.9365 99.5781L69.9365 99.5781C69.9365 99.5781 69.9365 99.5781 69.9365 99.5781L69.9365 99.5781C69.9365 99.5781 69.9365 99.5781 69.9365 99.5781C69.9365 99.5781 69.9365 99.5781 69.9365 99.5781L69.9365 99.5781C69.9365 99.5781 69.9365 99.5781 69.9365 99.5781L69.9365 99.5781C69.9365 99.5781 69.9365 99.5781 69.9365 99.5781L69.9365 99.5781C69.9365 99.5781 69.9365 99.5781 69.9365 99.5781C69.9365 99.5781 69.9365 99.5781 69.9365 99.5781L69.9365 99.5781C69.9365 99.5781 69.9365 99.5781 69.9365 99.5781L69.9365 99.5781C69.9366 99.5781 69.9366 99.5781 69.9366 99.5781L69.9366 99.5781C69.9366 99.5781 69.9366 99.5781 69.9366 99.5781C69.9366 99.5781 69.9366 99.5781 69.9366 99.5781L69.9366 99.5781C69.9366 99.5781 69.9366 99.5781 69.9366 99.5781L69.9366 99.5781C69.9366 99.5781 69.9366 99.5781 69.9366 99.5781L69.9366 99.5781C69.9366 99.5781 69.9366 99.5781 69.9366 99.5781C69.9366 99.5781 69.9366 99.5781 69.9366 99.5781L69.9366 99.5781C69.9366 99.5781 69.9366 99.5781 69.9366 99.5781L69.9366 99.5781C69.9366 99.5781 69.9366 99.5781 69.9366 99.5781L69.9366 99.5781C69.9366 99.5781 69.9366 99.5781 69.9366 99.5781L69.9366 99.5781C69.9366 99.5781 69.9366 99.5781 69.9366 99.5781C69.9366 99.5781 69.9366 99.5781 69.9366 99.5781L69.9366 99.5781C69.9366 99.5781 69.9366 99.5781 69.9366 99.5781L69.9366 99.5781C69.9366 99.5782 69.9366 99.5782 69.9366 99.5782L69.9366 99.5782C69.9366 99.5782 69.9366 99.5782 69.9366 99.5782C69.9366 99.5782 69.9366 99.5782 69.9366 99.5782L69.9366 99.5782C69.9366 99.5782 69.9366 99.5782 69.9366 99.5782L69.9366 99.5782C69.9366 99.5782 69.9366 99.5782 69.9366 99.5782L69.9366 99.5782C69.9366 99.5782 69.9366 99.5782 69.9366 99.5782C69.9366 99.5782 69.9366 99.5782 69.9366 99.5782L69.9366 99.5782C69.9366 99.5782 69.9366 99.5782 69.9366 99.5782L69.9366 99.5782C69.9366 99.5782 69.9366 99.5782 69.9366 99.5782L69.9366 99.5782C69.9367 99.5782 69.9367 99.5782 69.9367 99.5782C69.9367 99.5782 69.9367 99.5782 69.9367 99.5782L69.9367 99.5782C69.9367 99.5782 69.9367 99.5782 69.9367 99.5782L69.9367 99.5782C69.9367 99.5782 69.9367 99.5782 69.9367 99.5782L69.9367 99.5782C69.9367 99.5782 69.9367 99.5782 69.9367 99.5782C69.9367 99.5782 69.9367 99.5782 69.9367 99.5782L69.9367 99.5782C69.9367 99.5782 69.9367 99.5782 69.9367 99.5782L69.9367 99.5782C69.9367 99.5782 69.9367 99.5782 69.9367 99.5782L69.9367 99.5782C69.9367 99.5782 69.9367 99.5782 69.9367 99.5782L69.9367 99.5782C69.9367 99.5782 69.9367 99.5782 69.9367 99.5782C69.9367 99.5782 69.9367 99.5782 69.9367 99.5782L69.9367 99.5782C69.9367 99.5782 69.9367 99.5782 69.9367 99.5782L69.9367 99.5782C69.9367 99.5782 69.9367 99.5782 69.9367 99.5782L69.9367 99.5782C69.9367 99.5782 69.9367 99.5782 69.9367 99.5782C69.9367 99.5782 69.9367 99.5782 69.9367 99.5782L69.9367 99.5782C69.9367 99.5782 69.9367 99.5782 69.9367 99.5782L69.9367 99.5782C69.9367 99.5782 69.9367 99.5782 69.9367 99.5782L69.9367 99.5782C69.9367 99.5782 69.9367 99.5782 69.9367 99.5782C69.9367 99.5782 69.9367 99.5782 69.9367 99.5782L69.9367 99.5782C69.9367 99.5782 69.9367 99.5782 69.9367 99.5782L69.9367 99.5782C69.9367 99.5782 69.9367 99.5782 69.9367 99.5782L69.9367 99.5782C69.9367 99.5782 69.9367 99.5782 69.9367 99.5782C69.9367 99.5782 69.9367 99.5782 69.9368 99.5782L69.9368 99.5782C69.9368 99.5782 69.9368 99.5782 69.9368 99.5782L69.9368 99.5782C69.9368 99.5782 69.9368 99.5782 69.9368 99.5782L69.9368 99.5782C69.9368 99.5782 69.9368 99.5782 69.9368 99.5782C69.9368 99.5782 69.9368 99.5782 69.9368 99.5782L69.9368 99.5782C69.9368 99.5782 69.9368 99.5782 69.9368 99.5782L69.9368 99.5782C69.9368 99.5783 69.9368 99.5783 69.9368 99.5783L69.9368 99.5783C69.9368 99.5783 69.9368 99.5783 69.9368 99.5783L69.9368 99.5783C69.9368 99.5783 69.9368 99.5783 69.9368 99.5783C69.9368 99.5783 69.9368 99.5783 69.9368 99.5783L69.9368 99.5783C69.9368 99.5783 69.9368 99.5783 69.9368 99.5783L69.9368 99.5783C69.9368 99.5783 69.9368 99.5783 69.9368 99.5783L69.9368 99.5783C69.9368 99.5783 69.9368 99.5783 69.9368 99.5783C69.9368 99.5783 69.9368 99.5783 69.9368 99.5783L69.9368 99.5783C69.9368 99.5783 69.9368 99.5783 69.9368 99.5783L69.9368 99.5783C69.9368 99.5783 69.9368 99.5783 69.9368 99.5783L69.9368 99.5783C69.9368 99.5783 69.9368 99.5783 69.9368 99.5783C69.9368 99.5783 69.9368 99.5783 69.9368 99.5783L69.9368 99.5783C69.9368 99.5783 69.9368 99.5783 69.9368 99.5783L69.9368 99.5783C69.9368 99.5783 69.9368 99.5783 69.9368 99.5783L69.9368 99.5783C69.9368 99.5783 69.9368 99.5783 69.9368 99.5783C69.9368 99.5783 69.9368 99.5783 69.9368 99.5783L69.9368 99.5783C69.9368 99.5783 69.9368 99.5783 69.9369 99.5783L69.9369 99.5783C69.9369 99.5783 69.9369 99.5783 69.9369 99.5783L69.9369 99.5783C69.9369 99.5783 69.9369 99.5783 69.9369 99.5783L69.9369 99.5783C69.9369 99.5783 69.9369 99.5783 69.9369 99.5783C69.9369 99.5783 69.9369 99.5783 69.9369 99.5783L69.9369 99.5783C69.9369 99.5783 69.9369 99.5783 69.9369 99.5783L69.9369 99.5783C69.9369 99.5783 69.9369 99.5783 69.9369 99.5783L69.9369 99.5783C69.9369 99.5783 69.9369 99.5783 69.9369 99.5783C69.9369 99.5783 69.9369 99.5783 69.9369 99.5783L69.9369 99.5783C69.9369 99.5783 69.9369 99.5783 69.9369 99.5783L69.9369 99.5783C69.9369 99.5783 69.9369 99.5783 69.9369 99.5783L69.9369 99.5783C69.9369 99.5783 69.9369 99.5783 69.9369 99.5783C69.9369 99.5783 69.9369 99.5783 69.9369 99.5783L69.9369 99.5783C69.9369 99.5783 69.9369 99.5783 69.9369 99.5783L69.9369 99.5783C69.9369 99.5783 69.9369 99.5783 69.9369 99.5783L69.9369 99.5783C69.9369 99.5783 69.9369 99.5783 69.9369 99.5783C69.9369 99.5783 69.9369 99.5783 69.9369 99.5783L69.9369 99.5783C69.9369 99.5783 69.9369 99.5783 69.9369 99.5783L69.9369 99.5783C69.9369 99.5783 69.9369 99.5783 69.9369 99.5783L69.9369 99.5783C69.9369 99.5783 69.9369 99.5783 69.9369 99.5783L69.9369 99.5783C69.9369 99.5783 69.9369 99.5783 69.9369 99.5783C69.9369 99.5784 69.9369 99.5784 69.9369 99.5784L69.9369 99.5784C69.9369 99.5784 69.9369 99.5784 69.9369 99.5784L69.937 99.5784C69.937 99.5784 69.937 99.5784 69.937 99.5784L69.937 99.5784C69.937 99.5784 69.937 99.5784 69.937 99.5784C69.937 99.5784 69.937 99.5784 69.937 99.5784L69.937 99.5784C69.937 99.5784 69.937 99.5784 69.937 99.5784L69.937 99.5784C69.937 99.5784 69.937 99.5784 69.937 99.5784L69.937 99.5784C69.937 99.5784 69.937 99.5784 69.937 99.5784C69.937 99.5784 69.937 99.5784 69.937 99.5784L69.937 99.5784C69.937 99.5784 69.937 99.5784 69.937 99.5784L69.937 99.5784C69.937 99.5784 69.937 99.5784 69.937 99.5784L69.937 99.5784C69.937 99.5784 69.937 99.5784 69.937 99.5784C69.937 99.5784 69.937 99.5784 69.937 99.5784L69.937 99.5784C69.937 99.5784 69.937 99.5784 69.937 99.5784L69.937 99.5784C69.937 99.5784 69.937 99.5784 69.937 99.5784L69.937 99.5784C69.937 99.5784 69.937 99.5784 69.937 99.5784L69.937 99.5784C69.937 99.5784 69.937 99.5784 69.937 99.5784C69.937 99.5784 69.937 99.5784 69.937 99.5784L69.937 99.5784C69.937 99.5784 69.937 99.5784 69.937 99.5784L69.937 99.5784C69.937 99.5784 69.937 99.5784 69.937 99.5784L69.937 99.5784C69.937 99.5784 69.937 99.5784 69.937 99.5784C69.937 99.5784 69.937 99.5784 69.937 99.5784L69.937 99.5784C69.937 99.5784 69.937 99.5784 69.937 99.5784L69.937 99.5784C69.937 99.5784 69.937 99.5784 69.937 99.5784L69.9371 99.5784C69.9371 99.5784 69.9371 99.5784 69.9371 99.5784C69.9371 99.5784 69.9371 99.5784 69.9371 99.5784L69.9371 99.5784C69.9371 99.5784 69.9371 99.5784 69.9371 99.5784L69.9371 99.5784C69.9371 99.5784 69.9371 99.5784 69.9371 99.5784L69.9371 99.5784C69.9371 99.5784 69.9371 99.5784 69.9371 99.5784C69.9371 99.5784 69.9371 99.5784 69.9371 99.5784L69.9371 99.5784C69.9371 99.5784 69.9371 99.5784 69.9371 99.5784L69.9371 99.5784C69.9371 99.5784 69.9371 99.5784 69.9371 99.5784L69.9371 99.5784C69.9371 99.5784 69.9371 99.5784 69.9371 99.5784L69.9371 99.5784C69.9371 99.5784 69.9371 99.5784 69.9371 99.5784C69.9371 99.5784 69.9371 99.5784 69.9371 99.5784L69.9371 99.5784C69.9371 99.5784 69.9371 99.5784 69.9371 99.5784L69.9371 99.5784C69.9371 99.5784 69.9371 99.5784 69.9371 99.5784L69.9371 99.5785C69.9371 99.5785 69.9371 99.5785 69.9371 99.5785C69.9371 99.5785 69.9371 99.5785 69.9371 99.5785L69.9371 99.5785C69.9371 99.5785 69.9371 99.5785 69.9371 99.5785L69.9371 99.5785C69.9371 99.5785 69.9371 99.5785 69.9371 99.5785L69.9371 99.5785C69.9371 99.5785 69.9371 99.5785 69.9371 99.5785C69.9371 99.5785 69.9371 99.5785 69.9371 99.5785L69.9371 99.5785C69.9371 99.5785 69.9371 99.5785 69.9371 99.5785L69.9371 99.5785C69.9371 99.5785 69.9371 99.5785 69.9371 99.5785L69.9371 99.5785C69.9371 99.5785 69.9371 99.5785 69.9371 99.5785L69.9372 99.5785C69.9372 99.5785 69.9372 99.5785 69.9372 99.5785C69.9372 99.5785 69.9372 99.5785 69.9372 99.5785L69.9372 99.5785C69.9372 99.5785 69.9372 99.5785 69.9372 99.5785L69.9372 99.5785C69.9372 99.5785 69.9372 99.5785 69.9372 99.5785L69.9372 99.5785C69.9372 99.5785 69.9372 99.5785 69.9372 99.5785C69.9372 99.5785 69.9372 99.5785 69.9372 99.5785L69.9372 99.5785C69.9372 99.5785 69.9372 99.5785 69.9372 99.5785L69.9372 99.5785C69.9372 99.5785 69.9372 99.5785 69.9372 99.5785L69.9372 99.5785C69.9372 99.5785 69.9372 99.5785 69.9372 99.5785C69.9372 99.5785 69.9372 99.5785 69.9372 99.5785L69.9372 99.5785C69.9372 99.5785 69.9372 99.5785 69.9372 99.5785L69.9372 99.5785C69.9372 99.5785 69.9372 99.5785 69.9372 99.5785L69.9372 99.5785C69.9372 99.5785 69.9372 99.5785 69.9372 99.5785L69.9372 99.5785C69.9372 99.5785 69.9372 99.5785 69.9372 99.5785C69.9372 99.5785 69.9372 99.5785 69.9372 99.5785L69.9372 99.5785C69.9372 99.5785 69.9372 99.5785 69.9372 99.5785L69.9372 99.5785C69.9372 99.5785 69.9372 99.5785 69.9372 99.5785L69.9372 99.5785C69.9372 99.5785 69.9372 99.5785 69.9372 99.5785C69.9372 99.5785 69.9372 99.5785 69.9372 99.5785L69.9372 99.5785C69.9372 99.5785 69.9372 99.5785 69.9372 99.5785L69.9372 99.5785C69.9372 99.5785 69.9372 99.5785 69.9372 99.5785L69.9372 99.5785C69.9372 99.5785 69.9372 99.5785 69.9372 99.5785C69.9372 99.5785 69.9373 99.5785 69.9373 99.5785L69.9373 99.5785C69.9373 99.5785 69.9373 99.5785 69.9373 99.5785L69.9373 99.5785C69.9373 99.5785 69.9373 99.5785 69.9373 99.5785L69.9373 99.5785C69.9373 99.5785 69.9373 99.5785 69.9373 99.5785L69.9373 99.5785C69.9373 99.5785 69.9373 99.5785 69.9373 99.5785C69.9373 99.5785 69.9373 99.5785 69.9373 99.5786L69.9373 99.5786C69.9373 99.5786 69.9373 99.5786 69.9373 99.5786L69.9373 99.5786C69.9373 99.5786 69.9373 99.5786 69.9373 99.5786L69.9373 99.5786C69.9373 99.5786 69.9373 99.5786 69.9373 99.5786L70.0167 99.2536C70.0167 99.2536 70.0167 99.2536 70.0167 99.2536L70.0167 99.2536C70.0167 99.2536 70.0167 99.2536 70.0167 99.2536L70.0167 99.2536C70.0167 99.2536 70.0167 99.2536 70.0167 99.2536L70.0167 99.2536C70.0167 99.2536 70.0167 99.2536 70.0167 99.2536C70.0167 99.2536 70.0167 99.2536 70.0167 99.2536L70.0167 99.2536C70.0167 99.2536 70.0167 99.2536 70.0167 99.2536L70.0167 99.2536C70.0167 99.2536 70.0167 99.2536 70.0167 99.2536L70.0167 99.2536C70.0167 99.2536 70.0167 99.2536 70.0167 99.2535L70.0167 99.2535C70.0167 99.2535 70.0167 99.2535 70.0167 99.2535C70.0167 99.2535 70.0167 99.2535 70.0167 99.2535L70.0167 99.2535C70.0167 99.2535 70.0167 99.2535 70.0167 99.2535L70.0167 99.2535C70.0167 99.2535 70.0167 99.2535 70.0167 99.2535L70.0167 99.2535C70.0167 99.2535 70.0167 99.2535 70.0167 99.2535C70.0167 99.2535 70.0167 99.2535 70.0167 99.2535L70.0167 99.2535C70.0167 99.2535 70.0167 99.2535 70.0167 99.2535L70.0167 99.2535C70.0167 99.2535 70.0167 99.2535 70.0167 99.2535L70.0167 99.2535C70.0167 99.2535 70.0167 99.2535 70.0167 99.2535C70.0167 99.2535 70.0167 99.2535 70.0167 99.2535L70.0166 99.2535C70.0166 99.2535 70.0166 99.2535 70.0166 99.2535L70.0166 99.2535C70.0166 99.2535 70.0166 99.2535 70.0166 99.2535L70.0166 99.2535C70.0166 99.2535 70.0166 99.2535 70.0166 99.2535L70.0166 99.2535C70.0166 99.2535 70.0166 99.2535 70.0166 99.2535C70.0166 99.2535 70.0166 99.2535 70.0166 99.2535L70.0166 99.2535C70.0166 99.2535 70.0166 99.2535 70.0166 99.2535L70.0166 99.2535C70.0166 99.2535 70.0166 99.2535 70.0166 99.2535L70.0166 99.2535C70.0166 99.2535 70.0166 99.2535 70.0166 99.2535C70.0166 99.2535 70.0166 99.2535 70.0166 99.2535L70.0166 99.2535C70.0166 99.2535 70.0166 99.2535 70.0166 99.2535L70.0166 99.2535C70.0166 99.2535 70.0166 99.2535 70.0166 99.2535L70.0166 99.2535C70.0166 99.2535 70.0166 99.2535 70.0166 99.2535C70.0166 99.2535 70.0166 99.2535 70.0166 99.2535L70.0166 99.2535C70.0166 99.2535 70.0166 99.2535 70.0166 99.2535L70.0166 99.2535C70.0166 99.2535 70.0166 99.2535 70.0166 99.2535L70.0166 99.2535C70.0166 99.2535 70.0166 99.2535 70.0166 99.2535L70.0166 99.2535C70.0166 99.2535 70.0166 99.2535 70.0166 99.2535C70.0166 99.2535 70.0166 99.2535 70.0166 99.2535L70.0166 99.2535C70.0166 99.2535 70.0166 99.2535 70.0166 99.2535L70.0166 99.2535C70.0166 99.2535 70.0166 99.2535 70.0166 99.2535L70.0166 99.2535C70.0166 99.2535 70.0166 99.2535 70.0166 99.2535C70.0166 99.2535 70.0166 99.2535 70.0166 99.2535L70.0166 99.2535C70.0165 99.2535 70.0165 99.2535 70.0165 99.2535L70.0165 99.2535C70.0165 99.2535 70.0165 99.2535 70.0165 99.2535L70.0165 99.2535C70.0165 99.2535 70.0165 99.2535 70.0165 99.2535C70.0165 99.2535 70.0165 99.2535 70.0165 99.2535L70.0165 99.2535C70.0165 99.2535 70.0165 99.2535 70.0165 99.2534L70.0165 99.2534C70.0165 99.2534 70.0165 99.2534 70.0165 99.2534L70.0165 99.2534C70.0165 99.2534 70.0165 99.2534 70.0165 99.2534L70.0165 99.2534C70.0165 99.2534 70.0165 99.2534 70.0165 99.2534C70.0165 99.2534 70.0165 99.2534 70.0165 99.2534L70.0165 99.2534C70.0165 99.2534 70.0165 99.2534 70.0165 99.2534L70.0165 99.2534C70.0165 99.2534 70.0165 99.2534 70.0165 99.2534L70.0165 99.2534C70.0165 99.2534 70.0165 99.2534 70.0165 99.2534C70.0165 99.2534 70.0165 99.2534 70.0165 99.2534L70.0165 99.2534C70.0165 99.2534 70.0165 99.2534 70.0165 99.2534L70.0165 99.2534C70.0165 99.2534 70.0165 99.2534 70.0165 99.2534L70.0165 99.2534C70.0165 99.2534 70.0165 99.2534 70.0165 99.2534C70.0165 99.2534 70.0165 99.2534 70.0165 99.2534L70.0165 99.2534C70.0165 99.2534 70.0165 99.2534 70.0165 99.2534L70.0165 99.2534C70.0165 99.2534 70.0165 99.2534 70.0165 99.2534L70.0165 99.2534C70.0165 99.2534 70.0165 99.2534 70.0165 99.2534C70.0165 99.2534 70.0165 99.2534 70.0165 99.2534L70.0165 99.2534C70.0165 99.2534 70.0165 99.2534 70.0165 99.2534L70.0165 99.2534C70.0164 99.2534 70.0164 99.2534 70.0164 99.2534L70.0164 99.2534C70.0164 99.2534 70.0164 99.2534 70.0164 99.2534L70.0164 99.2534C70.0164 99.2534 70.0164 99.2534 70.0164 99.2534C70.0164 99.2534 70.0164 99.2534 70.0164 99.2534L70.0164 99.2534C70.0164 99.2534 70.0164 99.2534 70.0164 99.2534L70.0164 99.2534C70.0164 99.2534 70.0164 99.2534 70.0164 99.2534L70.0164 99.2534C70.0164 99.2534 70.0164 99.2534 70.0164 99.2534C70.0164 99.2534 70.0164 99.2534 70.0164 99.2534L70.0164 99.2534C70.0164 99.2534 70.0164 99.2534 70.0164 99.2534L70.0164 99.2534C70.0164 99.2534 70.0164 99.2534 70.0164 99.2534L70.0164 99.2534C70.0164 99.2534 70.0164 99.2534 70.0164 99.2534C70.0164 99.2534 70.0164 99.2534 70.0164 99.2534L70.0164 99.2534C70.0164 99.2534 70.0164 99.2534 70.0164 99.2534L70.0164 99.2534C70.0164 99.2534 70.0164 99.2534 70.0164 99.2534L70.0164 99.2534C70.0164 99.2534 70.0164 99.2534 70.0164 99.2534C70.0164 99.2534 70.0164 99.2534 70.0164 99.2534L70.0164 99.2534C70.0164 99.2534 70.0164 99.2534 70.0164 99.2534L70.0164 99.2534C70.0164 99.2534 70.0164 99.2534 70.0164 99.2534L70.0164 99.2534C70.0164 99.2534 70.0164 99.2534 70.0164 99.2534L70.0164 99.2534C70.0164 99.2533 70.0164 99.2533 70.0164 99.2533C70.0164 99.2533 70.0164 99.2533 70.0164 99.2533L70.0164 99.2533C70.0164 99.2533 70.0164 99.2533 70.0164 99.2533L70.0164 99.2533C70.0163 99.2533 70.0163 99.2533 70.0163 99.2533L70.0163 99.2533C70.0163 99.2533 70.0163 99.2533 70.0163 99.2533C70.0163 99.2533 70.0163 99.2533 70.0163 99.2533L70.0163 99.2533C70.0163 99.2533 70.0163 99.2533 70.0163 99.2533L70.0163 99.2533C70.0163 99.2533 70.0163 99.2533 70.0163 99.2533L70.0163 99.2533C70.0163 99.2533 70.0163 99.2533 70.0163 99.2533C70.0163 99.2533 70.0163 99.2533 70.0163 99.2533L70.0163 99.2533C70.0163 99.2533 70.0163 99.2533 70.0163 99.2533L70.0163 99.2533C70.0163 99.2533 70.0163 99.2533 70.0163 99.2533L70.0163 99.2533C70.0163 99.2533 70.0163 99.2533 70.0163 99.2533C70.0163 99.2533 70.0163 99.2533 70.0163 99.2533L70.0163 99.2533C70.0163 99.2533 70.0163 99.2533 70.0163 99.2533L70.0163 99.2533C70.0163 99.2533 70.0163 99.2533 70.0163 99.2533L70.0163 99.2533C70.0163 99.2533 70.0163 99.2533 70.0163 99.2533L70.0163 99.2533C70.0163 99.2533 70.0163 99.2533 70.0163 99.2533C70.0163 99.2533 70.0163 99.2533 70.0163 99.2533L70.0163 99.2533C70.0163 99.2533 70.0163 99.2533 70.0163 99.2533L70.0163 99.2533C70.0163 99.2533 70.0163 99.2533 70.0163 99.2533L70.0163 99.2533C70.0163 99.2533 70.0163 99.2533 70.0163 99.2533C70.0163 99.2533 70.0163 99.2533 70.0163 99.2533L70.0163 99.2533C70.0163 99.2533 70.0163 99.2533 70.0163 99.2533L70.0163 99.2533C70.0163 99.2533 70.0163 99.2533 70.0163 99.2533L70.0163 99.2533C70.0162 99.2533 70.0162 99.2533 70.0162 99.2533C70.0162 99.2533 70.0162 99.2533 70.0162 99.2533L70.0162 99.2533C70.0162 99.2533 70.0162 99.2533 70.0162 99.2533L70.0162 99.2533C70.0162 99.2533 70.0162 99.2533 70.0162 99.2533L70.0162 99.2533C70.0162 99.2533 70.0162 99.2533 70.0162 99.2533C70.0162 99.2533 70.0162 99.2533 70.0162 99.2533L70.0162 99.2533C70.0162 99.2533 70.0162 99.2533 70.0162 99.2533L70.0162 99.2533C70.0162 99.2533 70.0162 99.2533 70.0162 99.2533L70.0162 99.2533C70.0162 99.2533 70.0162 99.2533 70.0162 99.2533L70.0162 99.2533C70.0162 99.2533 70.0162 99.2533 70.0162 99.2533C70.0162 99.2533 70.0162 99.2533 70.0162 99.2533L70.0162 99.2533C70.0162 99.2533 70.0162 99.2533 70.0162 99.2533L70.0162 99.2533C70.0162 99.2532 70.0162 99.2532 70.0162 99.2532L70.0162 99.2532C70.0162 99.2532 70.0162 99.2532 70.0162 99.2532C70.0162 99.2532 70.0162 99.2532 70.0162 99.2532L70.0162 99.2532C70.0162 99.2532 70.0162 99.2532 70.0162 99.2532L70.0162 99.2532C70.0162 99.2532 70.0162 99.2532 70.0162 99.2532L70.0162 99.2532C70.0162 99.2532 70.0162 99.2532 70.0162 99.2532C70.0162 99.2532 70.0162 99.2532 70.0162 99.2532L70.0162 99.2532C70.0162 99.2532 70.0162 99.2532 70.0162 99.2532L70.0162 99.2532C70.0162 99.2532 70.0162 99.2532 70.0162 99.2532L70.0162 99.2532C70.0162 99.2532 70.0162 99.2532 70.0162 99.2532C70.0162 99.2532 70.0162 99.2532 70.0161 99.2532L70.0161 99.2532C70.0161 99.2532 70.0161 99.2532 70.0161 99.2532L70.0161 99.2532C70.0161 99.2532 70.0161 99.2532 70.0161 99.2532L70.0161 99.2532C70.0161 99.2532 70.0161 99.2532 70.0161 99.2532C70.0161 99.2532 70.0161 99.2532 70.0161 99.2532L70.0161 99.2532C70.0161 99.2532 70.0161 99.2532 70.0161 99.2532L70.0161 99.2532C70.0161 99.2532 70.0161 99.2532 70.0161 99.2532L70.0161 99.2532C70.0161 99.2532 70.0161 99.2532 70.0161 99.2532L70.0161 99.2532C70.0161 99.2532 70.0161 99.2532 70.0161 99.2532C70.0161 99.2532 70.0161 99.2532 70.0161 99.2532L70.0161 99.2532C70.0161 99.2532 70.0161 99.2532 70.0161 99.2532L70.0161 99.2532C70.0161 99.2532 70.0161 99.2532 70.0161 99.2532L70.0161 99.2532C70.0161 99.2532 70.0161 99.2532 70.0161 99.2532C70.0161 99.2532 70.0161 99.2532 70.0161 99.2532L70.0161 99.2532C70.0161 99.2532 70.0161 99.2532 70.0161 99.2532L70.0161 99.2532C70.0161 99.2532 70.0161 99.2532 70.0161 99.2532L70.0161 99.2532C70.0161 99.2532 70.0161 99.2532 70.0161 99.2532C70.0161 99.2532 70.0161 99.2532 70.0161 99.2532L70.0161 99.2532C70.0161 99.2532 70.0161 99.2532 70.0161 99.2532L70.0161 99.2532C70.0161 99.2532 70.0161 99.2532 70.0161 99.2532L70.0161 99.2532C70.0161 99.2532 70.0161 99.2532 70.0161 99.2532C70.0161 99.2532 70.0161 99.2532 70.0161 99.2532L70.0161 99.2532C70.0161 99.2532 70.0161 99.2532 70.016 99.2532L70.016 99.2532C70.016 99.2532 70.016 99.2532 70.016 99.2532L70.016 99.2532C70.016 99.2532 70.016 99.2532 70.016 99.2532C70.016 99.2532 70.016 99.2532 70.016 99.2532L70.016 99.2532C70.016 99.2532 70.016 99.2532 70.016 99.2532L70.016 99.2531C70.016 99.2531 70.016 99.2531 70.016 99.2531L70.016 99.2531C70.016 99.2531 70.016 99.2531 70.016 99.2531L70.016 99.2531C70.016 99.2531 70.016 99.2531 70.016 99.2531C70.016 99.2531 70.016 99.2531 70.016 99.2531L70.016 99.2531C70.016 99.2531 70.016 99.2531 70.016 99.2531L70.016 99.2531C70.016 99.2531 70.016 99.2531 70.016 99.2531L70.016 99.2531C70.016 99.2531 70.016 99.2531 70.016 99.2531C70.016 99.2531 70.016 99.2531 70.016 99.2531L70.016 99.2531C70.016 99.2531 70.016 99.2531 70.016 99.2531L70.016 99.2531C70.016 99.2531 70.016 99.2531 70.016 99.2531L70.016 99.2531C70.016 99.2531 70.016 99.2531 70.016 99.2531C70.016 99.2531 70.016 99.2531 70.016 99.2531L70.016 99.2531C70.016 99.2531 70.016 99.2531 70.016 99.2531L70.016 99.2531C70.016 99.2531 70.016 99.2531 70.016 99.2531L70.016 99.2531C70.016 99.2531 70.016 99.2531 70.016 99.2531C70.016 99.2531 70.016 99.2531 70.016 99.2531L70.016 99.2531C70.016 99.2531 70.016 99.2531 70.016 99.2531L70.016 99.2531C70.016 99.2531 70.016 99.2531 70.0159 99.2531L70.0159 99.2531C70.0159 99.2531 70.0159 99.2531 70.0159 99.2531C70.0159 99.2531 70.0159 99.2531 70.0159 99.2531L70.0159 99.2531C70.0159 99.2531 70.0159 99.2531 70.0159 99.2531L70.0159 99.2531C70.0159 99.2531 70.0159 99.2531 70.0159 99.2531L70.0159 99.2531C70.0159 99.2531 70.0159 99.2531 70.0159 99.2531L70.0159 99.2531C70.0159 99.2531 70.0159 99.2531 70.0159 99.2531C70.0159 99.2531 70.0159 99.2531 70.0159 99.2531L70.0159 99.2531C70.0159 99.2531 70.0159 99.2531 70.0159 99.2531L70.0159 99.2531C70.0159 99.2531 70.0159 99.2531 70.0159 99.2531L70.0159 99.2531C70.0159 99.2531 70.0159 99.2531 70.0159 99.2531C70.0159 99.2531 70.0159 99.2531 70.0159 99.2531L70.0159 99.2531C70.0159 99.2531 70.0159 99.2531 70.0159 99.2531L70.0159 99.2531C70.0159 99.2531 70.0159 99.2531 70.0159 99.2531L70.0159 99.2531C70.0159 99.2531 70.0159 99.2531 70.0159 99.2531C70.0159 99.2531 70.0159 99.2531 70.0159 99.2531L70.0159 99.2531C70.0159 99.2531 70.0159 99.2531 70.0159 99.2531L70.0159 99.2531C70.0159 99.2531 70.0159 99.2531 70.0159 99.2531L70.0159 99.2531C70.0159 99.2531 70.0159 99.2531 70.0159 99.2531C70.0159 99.2531 70.0159 99.2531 70.0159 99.2531L70.0159 99.253C70.0159 99.253 70.0159 99.253 70.0159 99.253L70.0159 99.253C70.0159 99.253 70.0159 99.253 70.0159 99.253L70.0159 99.253C70.0159 99.253 70.0159 99.253 70.0159 99.253L70.0158 99.253C70.0158 99.253 70.0158 99.253 70.0158 99.253C70.0158 99.253 70.0158 99.253 70.0158 99.253L70.0158 99.253C70.0158 99.253 70.0158 99.253 70.0158 99.253L70.0158 99.253C70.0158 99.253 70.0158 99.253 70.0158 99.253L70.0158 99.253C70.0158 99.253 70.0158 99.253 70.0158 99.253C70.0158 99.253 70.0158 99.253 70.0158 99.253L70.0158 99.253C70.0158 99.253 70.0158 99.253 70.0158 99.253L70.0158 99.253C70.0158 99.253 70.0158 99.253 70.0158 99.253L70.0158 99.253C70.0158 99.253 70.0158 99.253 70.0158 99.253C70.0158 99.253 70.0158 99.253 70.0158 99.253L70.0158 99.253C70.0158 99.253 70.0158 99.253 70.0158 99.253L70.0158 99.253C70.0158 99.253 70.0158 99.253 70.0158 99.253L70.0158 99.253C70.0158 99.253 70.0158 99.253 70.0158 99.253C70.0158 99.253 70.0158 99.253 70.0158 99.253L70.0158 99.253C70.0158 99.253 70.0158 99.253 70.0158 99.253L70.0158 99.253C70.0158 99.253 70.0158 99.253 70.0158 99.253L70.0158 99.253C70.0158 99.253 70.0158 99.253 70.0158 99.253L70.0158 99.253C70.0158 99.253 70.0158 99.253 70.0158 99.253C70.0158 99.253 70.0158 99.253 70.0158 99.253L70.0158 99.253C70.0158 99.253 70.0158 99.253 70.0158 99.253L70.0158 99.253C70.0158 99.253 70.0158 99.253 70.0158 99.253L70.0158 99.253C70.0158 99.253 70.0158 99.253 70.0158 99.253C70.0157 99.253 70.0157 99.253 70.0157 99.253L70.0157 99.253C70.0157 99.253 70.0157 99.253 70.0157 99.253L70.0157 99.253C70.0157 99.253 70.0157 99.253 70.0157 99.253L70.0157 99.253C70.0157 99.253 70.0157 99.253 70.0157 99.253C70.0157 99.253 70.0157 99.253 70.0157 99.253L70.0157 99.253C70.0157 99.253 70.0157 99.253 70.0157 99.253L70.0157 99.253C70.0157 99.253 70.0157 99.253 70.0157 99.253L70.0157 99.253C70.0157 99.253 70.0157 99.253 70.0157 99.253C70.0157 99.253 70.0157 99.253 70.0157 99.253L70.0157 99.253C70.0157 99.253 70.0157 99.253 70.0157 99.253L70.0157 99.253C70.0157 99.253 70.0157 99.253 70.0157 99.253L70.0157 99.253C70.0157 99.253 70.0157 99.253 70.0157 99.2529L70.0157 99.2529C70.0157 99.2529 70.0157 99.2529 70.0157 99.2529C70.0157 99.2529 70.0157 99.2529 70.0157 99.2529L70.0157 99.2529C70.0157 99.2529 70.0157 99.2529 70.0157 99.2529L70.0157 99.2529C70.0157 99.2529 70.0157 99.2529 70.0157 99.2529L70.0157 99.2529C70.0157 99.2529 70.0157 99.2529 70.0157 99.2529C70.0157 99.2529 70.0157 99.2529 70.0157 99.2529L70.0157 99.2529C70.0157 99.2529 70.0157 99.2529 70.0157 99.2529L70.0157 99.2529C70.0157 99.2529 70.0157 99.2529 70.0157 99.2529L70.0157 99.2529C70.0157 99.2529 70.0157 99.2529 70.0157 99.2529C70.0157 99.2529 70.0157 99.2529 70.0157 99.2529L70.0157 99.2529C70.0156 99.2529 70.0156 99.2529 70.0156 99.2529L70.0156 99.2529C70.0156 99.2529 70.0156 99.2529 70.0156 99.2529L70.0156 99.2529C70.0156 99.2529 70.0156 99.2529 70.0156 99.2529C70.0156 99.2529 70.0156 99.2529 70.0156 99.2529L70.0156 99.2529C70.0156 99.2529 70.0156 99.2529 70.0156 99.2529L70.0156 99.2529C70.0156 99.2529 70.0156 99.2529 70.0156 99.2529L70.0156 99.2529C70.0156 99.2529 70.0156 99.2529 70.0156 99.2529L70.0156 99.2529C70.0156 99.2529 70.0156 99.2529 70.0156 99.2529C70.0156 99.2529 70.0156 99.2529 70.0156 99.2529L70.0156 99.2529C70.0156 99.2529 70.0156 99.2529 70.0156 99.2529L70.0156 99.2529C70.0156 99.2529 70.0156 99.2529 70.0156 99.2529L70.0156 99.2529C70.0156 99.2529 70.0156 99.2529 70.0156 99.2529C70.0156 99.2529 70.0156 99.2529 70.0156 99.2529L70.0156 99.2529C70.0156 99.2529 70.0156 99.2529 70.0156 99.2529L70.0156 99.2529C70.0156 99.2529 70.0156 99.2529 70.0156 99.2529L70.0156 99.2529C70.0156 99.2529 70.0156 99.2529 70.0156 99.2529C70.0156 99.2529 70.0156 99.2529 70.0156 99.2529L70.0156 99.2529C70.0156 99.2529 70.0156 99.2529 70.0156 99.2529L70.0156 99.2529C70.0156 99.2529 70.0156 99.2529 70.0156 99.2529L70.0156 99.2529C70.0156 99.2529 70.0156 99.2529 70.0156 99.2529L70.0156 99.2529C70.0156 99.2529 70.0156 99.2529 70.0156 99.2529C70.0156 99.2529 70.0156 99.2529 70.0156 99.2529L70.0156 99.2529C70.0155 99.2529 70.0155 99.2529 70.0155 99.2529L70.0155 99.2529C70.0155 99.2529 70.0155 99.2529 70.0155 99.2529L70.0155 99.2529C70.0155 99.2529 70.0155 99.2529 70.0155 99.2529C70.0155 99.2529 70.0155 99.2529 70.0155 99.2529L70.0155 99.2529C70.0155 99.2529 70.0155 99.2529 70.0155 99.2528L70.0155 99.2528C70.0155 99.2528 70.0155 99.2528 70.0155 99.2528L70.0155 99.2528C70.0155 99.2528 70.0155 99.2528 70.0155 99.2528C70.0155 99.2528 70.0155 99.2528 70.0155 99.2528L70.0155 99.2528C70.0155 99.2528 70.0155 99.2528 70.0155 99.2528L70.0155 99.2528C70.0155 99.2528 70.0155 99.2528 70.0155 99.2528L70.0155 99.2528C70.0155 99.2528 70.0155 99.2528 70.0155 99.2528L70.0155 99.2528C70.0155 99.2528 70.0155 99.2528 70.0155 99.2528C70.0155 99.2528 70.0155 99.2528 70.0155 99.2528L70.0155 99.2528C70.0155 99.2528 70.0155 99.2528 70.0155 99.2528L70.0155 99.2528C70.0155 99.2528 70.0155 99.2528 70.0155 99.2528L70.0155 99.2528C70.0155 99.2528 70.0155 99.2528 70.0155 99.2528C70.0155 99.2528 70.0155 99.2528 70.0155 99.2528L70.0155 99.2528C70.0155 99.2528 70.0155 99.2528 70.0155 99.2528L70.0155 99.2528C70.0155 99.2528 70.0155 99.2528 70.0155 99.2528L70.0155 99.2528C70.0155 99.2528 70.0155 99.2528 70.0155 99.2528C70.0155 99.2528 70.0155 99.2528 70.0155 99.2528L70.0155 99.2528C70.0155 99.2528 70.0155 99.2528 70.0155 99.2528L70.0155 99.2528C70.0154 99.2528 70.0154 99.2528 70.0154 99.2528L70.0154 99.2528C70.0154 99.2528 70.0154 99.2528 70.0154 99.2528L70.0154 99.2528C70.0154 99.2528 70.0154 99.2528 70.0154 99.2528C70.0154 99.2528 70.0154 99.2528 70.0154 99.2528L70.0154 99.2528C70.0154 99.2528 70.0154 99.2528 70.0154 99.2528L70.0154 99.2528C70.0154 99.2528 70.0154 99.2528 70.0154 99.2528L70.0154 99.2528C70.0154 99.2528 70.0154 99.2528 70.0154 99.2528L69.936 99.5778ZM69.9373 99.5786C73.1061 101.48 76.3863 100.111 77.2637 96.5213L76.9769 96.3492C76.1432 99.7595 73.0271 101.06 70.0167 99.2536L69.9373 99.5786ZM77.2637 96.5213C78.1412 92.9316 76.2838 88.4803 73.115 86.579L73.0355 86.904C76.0459 88.7102 77.8105 92.939 76.9769 96.3492L77.2637 96.5213ZM73.115 86.579C72.6286 86.2872 72.1394 86.0723 71.6565 85.9307L71.6497 86.288C72.1082 86.4224 72.573 86.6265 73.0355 86.904L73.115 86.579ZM71.8001 86.1204C71.3366 82.4591 69.2131 78.8322 66.1647 77.0031L66.0852 77.3281C69.0171 79.0872 71.0601 82.5756 71.5061 86.0983L71.8001 86.1204ZM66.1647 77.0031C62.5481 74.8332 58.8213 75.9086 57.1532 79.3236L57.4171 79.5599C59.0217 76.275 62.6068 75.241 66.0852 77.3281L66.1647 77.0031ZM57.3524 79.2995C57.0522 79.0361 56.7326 78.8006 56.396 78.5986L56.3165 78.9236C56.634 79.1141 56.9352 79.336 57.2179 79.584L57.3524 79.2995ZM56.396 78.5986C53.6629 76.9588 50.8338 78.1393 50.0769 81.2355L50.3638 81.4076C51.0768 78.4909 53.7419 77.3788 56.3165 78.9236L56.396 78.5986ZM50.0769 81.2355C49.3201 84.3316 50.9222 88.1709 53.6552 89.8108L53.7347 89.4858C51.16 87.941 49.6508 84.3243 50.3638 81.4076L50.0769 81.2355ZM53.6552 89.8108C53.6836 89.8278 53.712 89.8445 53.7404 89.8609L53.815 89.5331C53.7882 89.5176 53.7615 89.5018 53.7347 89.4858L53.6552 89.8108ZM70.0153 99.2532L53.8174 89.5345L53.738 89.8595L69.9359 99.5782L70.0153 99.2532ZM69.8323 99.3292L69.8321 99.3297L70.119 99.5018L70.1191 99.5013L69.8323 99.3292Z" fill="black" mask="url(#path-10-inside-2_4164_26468)"/>
<path d="M110.848 193.178L152.073 171.821C153.101 171.288 153.48 170.027 152.873 169.041C146.988 159.481 119.425 114.898 116.113 113.093C112.402 111.07 113.057 111.802 111.015 111.902C109.06 111.997 106.25 113.453 106.25 113.453L110.848 193.178Z" fill="white" stroke="black" stroke-width="0.110805"/>
<path d="M106.25 113.617L111.402 134.582L119.062 129.095L126.979 128.27L121.098 119.489L117.94 115.038C117.037 113.766 115.974 112.572 114.575 111.884C114.357 111.777 114.145 111.685 113.951 111.622C112.84 111.259 112.114 111.333 110.959 111.511C108.968 111.819 106.25 113.617 106.25 113.617Z" fill="#DEDEDE" stroke="black" stroke-width="0.277014"/>
<path d="M111.476 118.39V192.203C111.476 193.055 110.555 193.588 109.816 193.165L70.3048 170.499C69.7561 170.184 69.5818 169.475 69.9223 168.941L103.665 116.109C104.777 114.367 106.982 113.682 108.886 114.485C110.456 115.148 111.476 116.686 111.476 118.39Z" fill="white" stroke="black" stroke-width="0.110805"/>
<path d="M111.466 117.254L111.283 134.271L104.673 127.425L96.3047 127.876L104.269 115.146C105.062 113.879 106.51 113.178 107.995 113.34C109.987 113.558 111.488 115.251 111.466 117.254Z" fill="#E7E7E7" stroke="black" stroke-width="0.277014"/>
<mask id="path-16-inside-3_4164_26468" fill="white">
<path fill-rule="evenodd" clip-rule="evenodd" d="M116.02 137.558C116.02 137.558 116.021 137.558 116.021 137.559C117.89 138.68 119.825 137.873 120.342 135.756C120.86 133.638 119.764 131.013 117.896 129.892C117.608 129.719 117.318 129.592 117.033 129.508C116.758 127.336 115.497 125.184 113.689 124.098C111.543 122.811 109.332 123.449 108.342 125.475C108.166 125.32 107.979 125.182 107.781 125.064C106.176 124.101 104.514 124.794 104.07 126.613C103.625 128.432 104.566 130.687 106.171 131.65C106.192 131.662 106.212 131.674 106.232 131.686L116.02 137.558L116.02 137.558Z"/>
</mask>
<path fill-rule="evenodd" clip-rule="evenodd" d="M116.02 137.558C116.02 137.558 116.021 137.558 116.021 137.559C117.89 138.68 119.825 137.873 120.342 135.756C120.86 133.638 119.764 131.013 117.896 129.892C117.608 129.719 117.318 129.592 117.033 129.508C116.758 127.336 115.497 125.184 113.689 124.098C111.543 122.811 109.332 123.449 108.342 125.475C108.166 125.32 107.979 125.182 107.781 125.064C106.176 124.101 104.514 124.794 104.07 126.613C103.625 128.432 104.566 130.687 106.171 131.65C106.192 131.662 106.212 131.674 106.232 131.686L116.02 137.558L116.02 137.558Z" fill="#F7F7F7"/>
<path d="M116.02 137.558L116.044 137.46L115.957 137.407L115.933 137.506L116.02 137.558ZM117.033 129.508L116.944 129.502L116.956 129.595L117.031 129.616L117.033 129.508ZM108.342 125.475L108.301 125.561L108.38 125.63L108.422 125.546L108.342 125.475ZM106.232 131.686L106.256 131.587L106.254 131.586L106.232 131.686ZM116.02 137.558L115.996 137.657L116.082 137.709L116.107 137.61L116.02 137.558ZM115.996 137.656C115.996 137.656 115.996 137.656 115.997 137.657C115.997 137.657 115.997 137.657 115.997 137.657L116.045 137.46C116.045 137.46 116.045 137.46 116.045 137.46C116.044 137.46 116.044 137.46 116.044 137.46L115.996 137.656ZM115.997 137.657C117.914 138.807 119.898 137.979 120.429 135.808L120.256 135.704C119.751 137.766 117.866 138.553 116.045 137.46L115.997 137.657ZM120.429 135.808C120.96 133.636 119.836 130.943 117.92 129.793L117.871 129.99C119.693 131.082 120.76 133.641 120.256 135.704L120.429 135.808ZM117.92 129.793C117.624 129.616 117.328 129.486 117.035 129.4L117.031 129.616C117.309 129.698 117.591 129.821 117.871 129.99L117.92 129.793ZM117.122 129.515C116.841 127.3 115.557 125.107 113.713 124L113.665 124.197C115.438 125.261 116.674 127.371 116.944 129.502L117.122 129.515ZM113.713 124C111.525 122.688 109.271 123.338 108.262 125.403L108.422 125.546C109.392 123.56 111.561 122.934 113.665 124.197L113.713 124ZM108.382 125.388C108.201 125.23 108.008 125.088 107.805 124.966L107.757 125.162C107.949 125.277 108.13 125.411 108.301 125.561L108.382 125.388ZM107.805 124.966C106.152 123.974 104.441 124.688 103.983 126.561L104.156 126.665C104.588 124.901 106.2 124.228 107.757 125.162L107.805 124.966ZM103.983 126.561C103.525 128.434 104.494 130.756 106.147 131.748L106.195 131.552C104.638 130.617 103.725 128.429 104.156 126.665L103.983 126.561ZM106.147 131.748C106.168 131.761 106.189 131.773 106.21 131.785L106.254 131.586C106.235 131.575 106.215 131.563 106.195 131.552L106.147 131.748ZM116.044 137.46L106.256 131.587L106.208 131.784L115.996 137.657L116.044 137.46ZM115.933 137.506L115.933 137.506L116.107 137.61L116.107 137.61L115.933 137.506Z" fill="black" mask="url(#path-16-inside-3_4164_26468)"/>
<mask id="path-18-inside-4_4164_26468" fill="white">
<path fill-rule="evenodd" clip-rule="evenodd" d="M114.89 137.69C114.927 137.714 114.964 137.737 115.002 137.76C116.871 138.881 118.806 138.074 119.323 135.957C119.841 133.84 118.745 131.214 116.876 130.093C116.59 129.921 116.301 129.794 116.017 129.711C115.742 127.538 114.482 125.387 112.673 124.302C110.527 123.014 108.316 123.652 107.326 125.678C107.15 125.523 106.963 125.386 106.766 125.267C105.16 124.304 103.498 124.997 103.054 126.816C102.609 128.635 103.55 130.89 105.156 131.853C105.197 131.878 105.238 131.901 105.278 131.924L114.89 137.69Z"/>
</mask>
<path fill-rule="evenodd" clip-rule="evenodd" d="M114.89 137.69C114.927 137.714 114.964 137.737 115.002 137.76C116.871 138.881 118.806 138.074 119.323 135.957C119.841 133.84 118.745 131.214 116.876 130.093C116.59 129.921 116.301 129.794 116.017 129.711C115.742 127.538 114.482 125.387 112.673 124.302C110.527 123.014 108.316 123.652 107.326 125.678C107.15 125.523 106.963 125.386 106.766 125.267C105.16 124.304 103.498 124.997 103.054 126.816C102.609 128.635 103.55 130.89 105.156 131.853C105.197 131.878 105.238 131.901 105.278 131.924L114.89 137.69Z" fill="white"/>
<path d="M114.89 137.69L114.917 137.594L114.914 137.592L114.89 137.69ZM116.017 129.711L115.928 129.704L115.94 129.797L116.015 129.819L116.017 129.711ZM107.326 125.678L107.285 125.764L107.365 125.833L107.406 125.749L107.326 125.678ZM105.278 131.924L105.303 131.825L105.299 131.823L105.278 131.924ZM114.863 137.787C114.901 137.811 114.939 137.835 114.978 137.858L115.026 137.662C114.989 137.64 114.953 137.617 114.917 137.594L114.863 137.787ZM114.978 137.858C116.895 139.008 118.879 138.18 119.41 136.009L119.236 135.905C118.732 137.968 116.847 138.754 115.026 137.662L114.978 137.858ZM119.41 136.009C119.941 133.837 118.817 131.145 116.9 129.994L116.852 130.191C118.673 131.284 119.741 133.842 119.236 135.905L119.41 136.009ZM116.9 129.994C116.606 129.818 116.311 129.688 116.019 129.603L116.015 129.819C116.292 129.9 116.573 130.023 116.852 130.191L116.9 129.994ZM116.106 129.717C115.825 127.503 114.541 125.309 112.697 124.203L112.649 124.4C114.422 125.464 115.658 127.573 115.928 129.704L116.106 129.717ZM112.697 124.203C110.51 122.891 108.256 123.541 107.246 125.606L107.406 125.749C108.377 123.763 110.545 123.137 112.649 124.4L112.697 124.203ZM107.367 125.592C107.186 125.433 106.993 125.291 106.79 125.169L106.742 125.366C106.933 125.48 107.115 125.614 107.285 125.764L107.367 125.592ZM106.79 125.169C105.136 124.177 103.425 124.891 102.967 126.764L103.141 126.868C103.572 125.104 105.184 124.431 106.742 125.366L106.79 125.169ZM102.967 126.764C102.509 128.637 103.478 130.959 105.132 131.951L105.18 131.755C103.622 130.82 102.709 128.633 103.141 126.868L102.967 126.764ZM105.132 131.951C105.174 131.977 105.216 132.001 105.258 132.024L105.299 131.823C105.259 131.801 105.219 131.779 105.18 131.755L105.132 131.951ZM114.914 137.592L105.303 131.825L105.254 132.022L114.866 137.789L114.914 137.592Z" fill="black" mask="url(#path-18-inside-4_4164_26468)"/>
<path d="M88.1333 52.0583C88.5342 52.5538 88.1024 53.3754 87.2904 53.2255C86.8123 53.1372 86.2631 52.8572 85.7213 52.496C84.6835 51.8042 83.979 51.8828 84.6892 51.2287C85.2746 50.8942 86.3783 50.7783 87.4161 51.4701C87.7908 51.7199 88.0064 51.9014 88.1333 52.0583Z" fill="#CCC9C9"/>
<path d="M86.1957 51.565V15.558L87.0848 14.9235V52.0511L86.6847 52.236L86.1957 51.565Z" fill="black" stroke="black" stroke-width="0.13241"/>
<path d="M85.7816 14.4936L86.6708 15.0863V52.293L85.7816 51.8034V14.4936Z" fill="white" stroke="black" stroke-width="0.13241"/>
<path d="M85.7837 14.4626L86.7107 14.331L104.775 24.7703V38.3284L104.047 38.7916L86.4677 27.1568L85.7837 14.4626Z" fill="black" stroke="black" stroke-width="0.13241"/>
<path d="M85.7816 27.5722V14.4918L104.085 25.1851V38.9815L85.7816 27.5722Z" fill="#2CD5C4" stroke="black" stroke-width="0.13241"/>
<path fill-rule="evenodd" clip-rule="evenodd" d="M95.8699 23.8456L94.9532 24.1043V25.326L94.2909 24.8844L93.5234 25.523L93.5266 29.7038L96.7739 31.8725L97.7696 31.3663V25.112L95.8699 23.8456ZM97.456 25.279L96.1547 24.4115V26.5024L94.6044 25.4689V28.8806L97.456 30.7816V27.3699V25.279Z" fill="white"/>
</svg>
