<svg width="168" height="224" viewBox="0 0 168 224" fill="none" xmlns="http://www.w3.org/2000/svg">
<path d="M44.6446 71.054L51.2601 95.6854C51.8427 97.8546 54.5488 98.551 56.0894 96.9283L75.9016 76.0585C77.5153 74.3587 76.5441 71.529 74.2342 71.2002L47.8065 67.4386C45.7721 67.149 44.1071 69.0528 44.6446 71.054Z" fill="white" stroke="black" stroke-width="0.52278"/>
<path d="M101.551 126.809L79.1552 122.111C76.9149 121.641 76.0995 118.84 77.7323 117.222L97.7624 97.3784C99.4792 95.6776 102.383 96.7438 102.616 99.1604L104.981 123.702C105.168 125.64 103.44 127.206 101.551 126.809Z" fill="white" stroke="black" stroke-width="0.52278"/>
<path d="M125.887 90.9785C107.755 111.597 65.3869 126.41 65.3869 126.41C65.3869 126.41 53.9998 125.869 49.3122 121.188C44.6245 116.507 43.9688 105.022 43.9688 105.022C43.9688 105.022 59.3289 62.9877 79.6162 44.7715C90.244 35.2287 97.3728 30.9482 110.305 24.9666C124.819 18.2532 149.669 13.8254 149.669 13.8254L152.743 13.3412C154.474 13.0687 155.971 14.5644 155.719 16.3135L155.272 19.4208C155.272 19.4208 151.76 44.9748 145.279 59.8925C139.571 73.0304 135.322 80.2492 125.887 90.9785Z" fill="white" stroke="black" stroke-width="0.653474"/>
<path d="M150.484 37.0679C149.23 43.1113 146.205 52.3114 145.34 54.8959C145.186 55.3554 144.914 55.753 144.511 56.0163C142.064 57.6124 132.29 62.5698 119.511 50.2681C106.654 37.8916 111.568 28.3328 113.093 26.0206C113.334 25.6553 113.687 25.4024 114.094 25.2473C116.403 24.3671 124.872 21.2254 133.5 19.1172C140.227 17.4735 147.128 16.1444 150.998 15.438C152.553 15.1543 153.908 16.4822 153.678 18.0594C153.012 22.6223 151.714 31.1359 150.484 37.0679Z" fill="#E7E7E7"/>
<path d="M96.6432 69.9484C94.5862 77.7042 88.1584 82.5809 82.3085 80.8866C76.4585 79.1924 73.3501 71.5539 75.4071 63.7981C77.4642 56.0422 83.8919 51.1656 89.7419 52.8598C95.5918 54.554 98.7003 62.1925 96.6432 69.9484Z" fill="white" stroke="black" stroke-width="0.130695"/>
<path d="M95.0026 69.3898C92.9456 77.1456 86.5178 82.0223 80.6679 80.3281C74.8179 78.6338 71.7095 70.9953 73.7665 63.2395C75.8235 55.4836 82.2513 50.607 88.1013 52.3012C93.9512 53.9954 97.0596 61.6339 95.0026 69.3898Z" fill="white" stroke="black" stroke-width="0.130695"/>
<path d="M93.1254 68.8696C92.2135 72.3078 90.364 75.1133 88.1229 76.8736C85.8818 78.6339 83.2644 79.34 80.7931 78.6243C78.3218 77.9086 76.4256 75.8953 75.3714 73.1806C74.3172 70.4659 74.1136 67.0658 75.0255 63.6276C75.9374 60.1894 77.7869 57.3839 80.028 55.6235C82.269 53.8632 84.8865 53.1571 87.3578 53.8729C89.8291 54.5886 91.7252 56.6019 92.7795 59.3165C93.8337 62.0312 94.0373 65.4314 93.1254 68.8696Z" fill="white" stroke="black" stroke-width="0.52278"/>
<path d="M86.361 53.4919C86.361 53.4919 78.3882 54.9161 76.3957 64.0274C74.4033 73.1386 80.8524 78.8568 80.8524 78.8568" stroke="black" stroke-width="0.130695"/>
<path d="M66.0244 153.412L59.7357 123.833C59.0122 120.43 60.587 116.952 63.6095 115.276L82.8098 104.634L91.9023 107.035L77.9247 154.146C77.5357 155.457 76.214 156.247 74.8878 155.96L66.8243 154.219C66.4235 154.132 66.1104 153.816 66.0244 153.412Z" fill="white" stroke="black" stroke-width="0.52278"/>
<path d="M65.5296 152.877L59.2848 122.067C58.8283 119.815 59.8765 117.525 61.8717 116.416L82.8999 104.724L68.0467 153.003C67.6478 154.3 65.7992 154.207 65.5296 152.877Z" fill="white" stroke="black" stroke-width="0.130695"/>
<path d="M17.1353 106.206L46.5103 112.242C49.8895 112.936 53.3195 111.31 54.9478 108.243L65.2914 88.7556L62.8164 79.6055L16.2829 94.2052C14.9879 94.6116 14.2194 95.9536 14.5172 97.2889L16.3274 105.408C16.4174 105.811 16.7337 106.124 17.1353 106.206Z" fill="white" stroke="black" stroke-width="0.52278"/>
<path d="M17.6715 106.701L48.265 112.679C50.5015 113.116 52.7596 112.034 53.8378 110.009L65.2017 88.6664L17.5199 104.162C16.2392 104.578 16.3506 106.443 17.6715 106.701Z" fill="white" stroke="black" stroke-width="0.130695"/>
<ellipse rx="58.1188" ry="24.5397" transform="matrix(0.999956 0.0094246 -0.00925411 0.999957 67.3735 195.911)" fill="#D9D9D9" fill-opacity="0.4"/>
<path d="M49.1306 136.094C52.2679 132.538 53.9493 125.688 54.4278 123.475C54.5253 123.024 54.4046 122.56 54.1132 122.201L53.0721 120.919C52.9445 120.761 52.7881 120.63 52.6086 120.538C50.9104 119.66 41.651 115.2 37.4335 119.927C34.069 123.698 27.889 138.838 26.1046 143.311C25.8815 143.871 26.3431 144.449 26.9354 144.348C31.2471 143.611 44.8443 140.951 49.1306 136.094Z" fill="#EFF16E"/>
<path d="M48.2797 131.848C50.3632 129.023 51.2021 123.937 51.4499 122.062C51.5104 121.605 51.35 121.152 51.0286 120.82L50.6589 120.438C50.3126 120.081 49.8196 119.908 49.3322 119.999C47.2485 120.386 41.5159 121.734 38.9285 125.203C36.8237 128.025 33.1951 135.275 31.6639 138.404C31.3743 138.997 31.8968 139.642 32.532 139.469C36.2626 138.451 45.5017 135.616 48.2797 131.848Z" fill="#EA5F5F" stroke="black" stroke-width="0.26139"/>
</svg>
