<svg width="101" height="90" viewBox="0 0 101 90" fill="none" xmlns="http://www.w3.org/2000/svg">
<path fill-rule="evenodd" clip-rule="evenodd" d="M21.231 89.9238C21.3668 89.72 21.1405 88.9254 20.7285 88.1577C20.0753 86.9412 19.7678 86.7623 18.3314 86.7623C17.4252 86.7623 16.6842 86.6247 16.6842 86.4561C16.6846 86.2874 16.4729 86.1498 16.2142 86.1498C15.955 86.1498 15.4117 85.8415 15.0062 85.4642C14.3157 84.8226 14.2595 84.8239 14.1233 85.4813C13.9335 86.3969 12.4374 85.9918 11.1051 84.6638C10.5732 84.1333 9.85586 83.6997 9.51147 83.6997C9.16709 83.6997 8.63954 83.424 8.33865 83.0871C7.63582 82.2998 6.58159 82.2962 6.58159 83.081C6.58159 83.4269 5.73293 82.8756 4.6049 81.7967C2.57815 79.8583 2.12263 79.053 3.28712 79.4683C3.74439 79.6317 3.94601 79.4401 3.94601 78.8431C3.94601 78.3698 4.18321 77.9827 4.47313 77.9827C4.88296 77.9827 4.88296 77.8737 4.47313 77.4927C4.18321 77.2232 3.94601 76.727 3.94601 76.3901C3.94601 75.9136 4.06329 75.8866 4.47313 76.2676C5.21504 76.9573 6.58159 76.8777 6.58159 76.1451C6.58159 75.8082 6.77311 75.5326 7.00723 75.5326C7.24092 75.5326 7.32087 75.8029 7.18426 76.1337C7.04809 76.4645 7.19656 77.2816 7.51458 77.9496C8.24991 79.4936 10.0188 79.9926 10.965 78.9232C11.6098 78.1947 11.6608 78.1943 12.4176 78.9068C12.8494 79.3135 13.0849 79.8232 12.9408 80.0392C12.4835 80.7277 13.6493 80.4631 14.8077 79.6161C15.4222 79.1669 16.0956 78.7994 16.3047 78.7994C16.5138 78.7994 16.6846 79.1669 16.6846 79.6161C16.6846 80.312 16.9776 80.4328 18.6613 80.4328C19.7485 80.4328 20.638 80.2932 20.638 80.1229C20.638 79.9522 21.054 79.5712 21.5627 79.276C22.2369 78.8844 22.3968 78.8746 22.1543 79.2396C21.8991 79.6239 22.2725 79.6647 23.7555 79.416C24.8194 79.2376 26.7275 79.1282 27.9957 79.1731C29.3789 79.2221 30.3018 79.082 30.3018 78.8227C30.3018 78.5855 30.6853 78.3911 31.1544 78.3911C31.6235 78.3911 32.1313 78.2045 32.2829 77.9762C32.4349 77.7479 32.7428 77.6667 32.9677 77.7961C33.1926 77.9251 33.3766 77.8255 33.3766 77.5744C33.3766 77.3053 33.602 77.2534 33.9257 77.4482C34.8517 78.0052 36.6167 77.8161 37.4231 77.0733C37.8769 76.6552 38.4923 76.4759 38.9338 76.6335C39.4789 76.8283 39.6102 76.7332 39.4231 76.2799C39.2285 75.8086 39.4134 75.7037 40.1949 75.8425C40.8428 75.9577 41.5891 75.7078 42.2142 75.1663C42.7597 74.6943 43.5834 74.3075 44.0442 74.3075C44.5049 74.3075 45.9501 74.0188 47.2556 73.666C48.9046 73.2205 49.6316 72.815 49.636 72.3389C49.6412 71.8264 49.7335 71.786 50.0019 72.1796C50.428 72.8036 52.1964 72.3054 53.0837 71.3119C53.3934 70.9648 53.9183 70.7777 54.2504 70.8962C54.5821 71.0146 55.5467 70.4674 56.3936 69.6801C57.3723 68.7699 58.2218 68.3186 58.7252 68.4411C59.161 68.5469 59.9525 68.2561 60.4849 67.7955C61.0173 67.3345 61.7183 66.9572 62.0425 66.9572C62.7849 66.9572 67.9475 63.8806 69.3461 62.6049C69.9229 62.079 70.5651 61.6486 70.7738 61.6486C70.9824 61.6486 71.506 61.3207 71.9378 60.9193C72.3692 60.5182 73.4563 59.6697 74.3537 59.0335C75.2507 58.3973 75.9852 57.5364 75.9852 57.1212C75.9852 56.6397 76.2092 56.4457 76.6032 56.5862C77.4106 56.8741 82.6927 52.071 83.4974 50.3168C83.8436 49.5621 84.4282 48.9896 84.8526 48.9896C85.7939 48.9896 86.9668 47.4664 86.9668 46.2442C86.9668 45.733 87.1671 45.3144 87.4122 45.3144C88.2349 45.3144 90.4527 42.6728 90.7308 41.3611C90.8823 40.6469 91.2992 39.958 91.6572 39.8302C92.1294 39.662 92.2287 39.2622 92.0183 38.3732C91.7798 37.3638 91.8509 37.1919 92.4228 37.3956C92.8718 37.5557 93.1164 37.4189 93.1164 37.0073C93.1164 36.6573 93.394 36.2245 93.7336 36.0448C94.0727 35.8651 94.4188 35.3506 94.5023 34.9014C94.5858 34.4522 94.9012 33.8417 95.2029 33.5453C95.5051 33.2484 95.752 32.7428 95.752 32.4223C95.752 32.1013 95.9615 31.8388 96.2172 31.8388C96.4803 31.8388 96.5326 31.617 96.338 31.3283C95.6993 30.3813 96.3591 28.4964 98.3749 25.5093C98.8813 24.7591 99.2143 23.4904 99.2341 22.2363C99.2529 21.0198 99.6228 19.5702 100.145 18.6648C101.116 16.9804 101.27 14.9358 100.557 13.1917C100.23 12.3929 100.229 12.0075 100.553 11.907C100.877 11.8065 100.876 11.5203 100.55 10.9535C100.218 10.3769 100.223 9.98734 100.569 9.60062C100.929 9.19676 100.888 8.90356 100.408 8.45724C99.9259 8.00887 99.8886 7.73894 100.261 7.39307C100.633 7.04678 100.627 6.92918 100.238 6.92918C99.9505 6.92918 99.5894 6.19414 99.4348 5.29576C99.2652 4.3104 98.9147 3.66235 98.551 3.66235C98.1297 3.66235 97.9483 3.10984 97.9483 1.82475C97.9483 0.342018 97.7999 -0.0103836 97.1796 0.000228882C96.1065 0.0182037 94.6499 1.07502 95.3843 1.30247C95.7292 1.40946 95.9005 2.04934 95.8333 2.97712C95.7735 3.80322 95.9282 4.47905 96.1777 4.47905C96.7896 4.47905 96.754 7.86389 96.1285 9.1404C95.7287 9.95548 95.7683 10.4377 96.3213 11.4991C96.7935 12.4056 96.866 12.9193 96.5475 13.1023C96.2897 13.2505 96.2001 13.5539 96.3485 13.7773C96.4966 14.0002 96.11 14.8786 95.4893 15.7292C94.5339 17.038 94.436 17.4292 94.8511 18.2765C95.26 19.1108 95.2332 19.239 94.6908 19.0454C94.0995 18.8343 93.4608 19.7421 93.3036 21.0174C93.2759 21.242 93.0251 21.9431 92.7457 22.5752C92.4663 23.2074 92.2379 23.973 92.2379 24.2769C92.2379 24.5803 91.9906 24.9221 91.6888 25.036C91.2671 25.1948 91.2614 25.3235 91.6638 25.5901C92.0372 25.8372 91.7508 26.3346 90.668 27.3187C89.634 28.2583 89.229 28.9382 89.4016 29.4438C89.5523 29.8848 89.3054 30.5357 88.7945 31.0453C87.4451 32.3921 87.2905 33.9561 88.4242 34.7903C89.2483 35.3967 89.2751 35.4972 88.614 35.505C88.1914 35.5098 87.8453 35.7932 87.8453 36.1342C87.8453 36.592 87.5576 36.6875 86.7471 36.4985C86.0808 36.3429 85.6274 36.4201 85.5941 36.6949C85.5637 36.9436 85.4899 37.3311 85.4293 37.5557C85.3687 37.7803 85.2949 38.1478 85.2646 38.3724C85.2343 38.597 84.9132 38.7808 84.5508 38.7808C84.1884 38.7808 83.8919 38.9756 83.8919 39.2132C83.8919 39.4509 84.0711 39.5428 84.2903 39.417C84.5091 39.2908 84.5886 39.5432 84.4665 39.9768C84.3443 40.4109 84.0171 40.6919 83.7386 40.6016C83.1012 40.3942 81.7935 41.2999 81.613 42.0741C81.5375 42.3963 81.114 42.9104 80.6721 43.2167C80.0927 43.6177 79.9469 44.0653 80.1507 44.8191C80.3822 45.6766 80.3238 45.7812 79.8283 45.3985C79.349 45.029 78.6568 45.4181 76.5017 47.2672C75.0047 48.5514 73.7818 49.8316 73.7845 50.1126C73.7867 50.3931 73.6294 50.623 73.4344 50.623C72.8695 50.623 68.957 54.1451 68.957 54.6539C68.957 54.9075 68.5274 55.5143 68.002 56.0027C67.3699 56.5903 67.138 56.6707 67.3154 56.2403C67.7947 55.0798 66.4993 55.1619 65.0958 56.3812C64.3429 57.0354 63.2729 57.7529 62.7181 57.9754C61.2233 58.5745 59.9973 59.3365 59.6007 59.9131C59.4074 60.1936 58.9132 60.4239 58.5025 60.4239C58.0918 60.4243 57.1816 60.8837 56.4792 61.4448C55.7773 62.0063 54.8386 62.4653 54.3927 62.4653C53.9473 62.4653 53.5827 62.7409 53.5827 63.0778C53.5827 63.4649 53.1633 63.6903 52.4424 63.6903C51.8156 63.6903 50.7776 63.9648 50.1363 64.3004C49.495 64.6357 48.0318 65.2723 46.884 65.715C45.7362 66.1576 44.7975 66.7101 44.7975 66.9425C44.7975 67.1752 44.4232 67.3655 43.966 67.3655C43.5087 67.3655 43.022 67.6379 42.8845 67.9711C42.747 68.3043 42.3644 68.4807 42.0345 68.3627C41.7046 68.2451 40.8933 68.3403 40.2313 68.5743C39.2781 68.9111 39.0792 69.1905 39.2733 69.9181C39.4077 70.4233 39.4047 70.6066 39.2658 70.3261C38.9649 69.7164 37.4943 69.6466 37.1104 70.224C36.961 70.4486 36.4058 70.6471 35.8765 70.6646C35.3472 70.6822 35.1609 70.7896 35.4631 70.9027C36.2279 71.1898 36.151 71.8574 35.3533 71.8574C34.9909 71.8574 34.6944 72.0355 34.6944 72.2531C34.6944 72.4704 34.3979 72.5426 34.0355 72.4136C33.2607 72.1371 33.1438 71.0407 33.8893 71.0407C34.1708 71.0407 34.271 70.9194 34.1115 70.7708C33.9521 70.6226 33.425 70.8349 32.94 71.2424C32.4415 71.6622 32.0589 71.7794 32.0589 71.5124C32.0589 70.9345 30.4582 70.8831 30.0822 71.4491C29.9328 71.6737 29.4272 71.8574 28.9581 71.8574C28.3291 71.8574 28.0963 72.1522 28.0708 72.9804L28.0361 74.1034L27.6161 73.0396C27.2779 72.1829 26.9788 72.0146 26.0774 72.1751C25.462 72.2841 24.8554 72.6239 24.7289 72.9302C24.6028 73.236 24.3265 73.3867 24.1152 73.2654C23.9039 73.1441 23.3316 73.2434 22.8436 73.4863C22.2347 73.7893 21.9558 73.7934 21.9558 73.5002C21.9558 72.9718 18.3499 73.4328 17.9418 74.0135C17.7876 74.2328 17.4112 74.2683 17.105 74.0927C16.747 73.8869 16.6583 73.9376 16.856 74.2349C17.2658 74.8511 12.8486 74.5799 12.1677 73.947C11.4605 73.2895 9.94942 73.3642 10.2297 74.0429C10.3909 74.4337 10.0843 74.5828 9.17939 74.5534C8.47657 74.5305 7.90114 74.2969 7.90026 74.0348C7.89982 73.7722 7.78825 73.2887 7.65295 72.9604C7.48691 72.5586 7.84623 72.2204 8.75111 71.9272C10.1989 71.458 10.3948 71.0738 9.57385 70.3106C9.17149 69.9365 9.36959 69.7671 10.4427 69.5674C11.2075 69.4253 12.0162 69.1014 12.2393 68.8474C12.9571 68.0336 13.0282 63.6903 12.3241 63.6903C11.591 63.6903 10.6259 65.9845 11.0572 66.7015C11.5883 67.5832 11.0006 67.555 10.3008 66.6652C9.78338 66.0073 9.65204 66.0135 8.1357 66.7673C7.03798 67.3129 6.44147 67.9364 6.27191 68.7151C6.11993 69.4134 5.80585 69.783 5.46718 69.6621C4.75074 69.4065 4.33871 70.8341 4.96159 71.4131C5.53439 71.9456 4.30006 72.9081 2.62822 73.2328C1.28012 73.4945 0.199539 75.3929 0.931786 76.2129C1.29066 76.6151 1.281 76.7577 0.895325 76.7577C0.580376 76.7577 0.478912 77.0684 0.639679 77.5401C0.786835 77.9705 0.701172 78.4405 0.449913 78.585C-0.267838 78.9971 -0.084671 79.94 0.700737 79.8771C1.52216 79.8113 2.53818 81.0609 2.03961 81.5244C1.85381 81.6971 1.5182 81.5681 1.2933 81.2377C0.999435 80.8057 0.882591 80.7848 0.877762 81.1638C0.863701 82.2766 2.83731 84.1289 4.47269 84.5384C5.43951 84.7802 6.14233 85.2073 6.14233 85.5532C6.14233 86.2155 6.83022 86.3585 7.21721 85.7762C7.35382 85.5708 7.2172 85.3098 6.91367 85.1959C6.53898 85.0554 6.57719 84.979 7.03271 84.957C7.40213 84.9394 8.14317 85.211 8.67995 85.5605C9.30414 85.9664 9.65643 86.0281 9.65643 85.7304C9.65643 85.4744 9.9033 85.3453 10.2055 85.4433C10.5073 85.5418 10.7028 85.8999 10.6391 86.2396C10.4994 86.9861 11.1824 87.5239 12.9843 88.0862C14.0877 88.4305 14.4255 88.3855 14.8252 87.8392C15.261 87.2446 15.3181 87.2634 15.3409 88.0078C15.3928 89.6833 17.3523 90.433 18.454 89.199C18.9504 88.6428 19.1234 88.6693 19.9989 89.4338C20.5409 89.9075 21.0957 90.128 21.231 89.9238ZM23.2108 88.6448C23.5771 88.4288 23.6373 88.1965 23.3667 88.0409C23.1242 87.9016 22.8132 88.0625 22.6744 88.3982C22.3836 89.1034 22.4109 89.1157 23.2108 88.6448ZM18.1509 77.0639C18.2726 76.783 18.3723 77.0129 18.3723 77.5744C18.3723 78.1359 18.2726 78.3654 18.1509 78.0848C18.0288 77.8039 18.0288 77.3445 18.1509 77.0639ZM25.1154 74.9095C25.2507 74.7837 25.4963 75.0103 25.6614 75.413C25.8995 75.9949 25.8494 76.0418 25.4154 75.6416C25.115 75.3644 24.9801 75.0348 25.1154 74.9095ZM39.3673 71.6532C39.5066 71.3163 39.6981 71.0407 39.793 71.0407C39.8878 71.0407 39.9656 71.3163 39.9656 71.6532C39.9656 71.9901 39.7741 72.2658 39.5399 72.2658C39.3063 72.2658 39.2285 71.9901 39.3673 71.6532ZM37.03 71.3723C37.1701 71.0468 37.2742 71.1436 37.2953 71.6193C37.3142 72.0498 37.2105 72.2907 37.0647 72.1551C36.9189 72.0195 36.903 71.6671 37.03 71.3723ZM95.8526 19.2561C95.589 18.5215 96.497 18.6759 96.8036 19.4183C96.9675 19.8156 96.8695 20.0026 96.5484 19.903C96.2616 19.814 95.9484 19.5232 95.8526 19.2561Z" fill="#2CD5C4"/>
</svg>
