<svg width="218" height="15" viewBox="0 0 218 15" fill="none" xmlns="http://www.w3.org/2000/svg">
<path fill-rule="evenodd" clip-rule="evenodd" d="M102.821 0.0400754C102.754 0.103038 99.0171 0.267305 94.5165 0.40519C83.0229 0.756938 80.3837 0.869495 77.149 1.14597C75.5876 1.27928 73.784 1.43124 73.1411 1.48365C69.038 1.81745 66.7963 2.03026 65.6263 2.1977C64.8915 2.30252 63.4637 2.46467 62.4534 2.55753C61.4431 2.65039 59.8843 2.79672 58.9896 2.8829C58.0948 2.96873 57.169 3.20862 56.9319 3.4158C56.6313 3.67855 56.4352 3.68066 56.2839 3.42248C56.1643 3.21882 55.7378 3.13897 55.3357 3.24485C54.9336 3.35072 54.2289 3.48826 53.7696 3.55052C53.3104 3.61242 51.9577 3.79604 50.7637 3.95784C49.5697 4.11964 48.4705 4.21673 48.3209 4.17346C48.1713 4.13055 47.4949 4.24381 46.8179 4.42567C46.1409 4.60717 44.5735 4.83791 43.3351 4.93816C42.097 5.03841 40.9537 5.20478 40.7947 5.3082C40.4938 5.50412 39.7166 5.62231 34.8313 6.2143C30.2082 6.77499 29.3001 6.91815 28.0523 7.28221C27.4094 7.47004 26.206 7.62446 25.378 7.62551C24.5504 7.62657 23.348 7.79892 22.7061 8.00821C21.4366 8.42257 17.6348 8.97974 14.6436 9.19009C13.6065 9.2629 12.4793 9.46973 12.1386 9.64947C11.7983 9.82921 10.8541 10.01 10.0408 10.0512C9.22756 10.092 8.41096 10.2239 8.22659 10.3442C7.88826 10.5644 6.37862 10.8021 5.20798 10.8197C4.41909 10.8317 2.66898 11.7614 2.66898 12.1683C2.66898 13.0734 5.68225 13.1416 7.09102 12.2682C7.78673 11.837 8.09934 11.799 8.39459 12.1099C8.68583 12.4167 8.9587 12.4191 9.4834 12.1208C9.86849 11.9017 10.6784 11.7561 11.2826 11.7976C11.8871 11.8387 12.5635 11.7515 12.7856 11.6038C13.008 11.456 13.9412 11.2963 14.8597 11.2496C17.4645 11.1166 26.8736 10.0462 29.7223 9.55907C31.2109 9.3044 32.6096 9.09687 33.9639 8.92979C34.5518 8.85733 35.2658 8.59458 35.5504 8.34554C35.9345 8.00997 36.184 7.9945 36.5163 8.28504C36.7628 8.50031 37.0704 8.56538 37.1997 8.42926C37.3286 8.29313 38.1415 8.1454 39.0055 8.10108C39.8699 8.05676 41.7793 7.8552 43.2489 7.6533C44.7185 7.45175 46.6723 7.20306 47.5908 7.10106C48.5093 6.99905 50.3128 6.75705 51.5987 6.56323C53.9062 6.21536 56.1787 5.95155 59.1135 5.69161C62.7917 5.36518 63.8662 5.18439 64.282 4.82103C64.6096 4.53436 64.7623 4.54561 64.8631 4.86429C64.9704 5.20373 65.7455 5.19423 68.4859 4.82068C70.4034 4.55933 72.5733 4.37853 73.3081 4.41898C74.0429 4.45908 76.3725 4.33245 78.485 4.13723C82.9307 3.72604 91.7584 3.40102 102.699 3.24555C106.924 3.1854 110.456 3.09923 110.548 3.05385C110.64 3.00883 110.865 3.02149 111.049 3.08234C111.233 3.14319 114.164 3.21671 117.562 3.24555C125.591 3.31379 141.399 3.9705 142.945 4.29974C143.908 4.50516 147.758 4.75596 153.394 4.98107C155.558 5.0676 157.483 5.23855 157.671 5.36096C157.86 5.48372 159.546 5.6508 161.418 5.73276C163.29 5.81472 165.273 6.02611 165.824 6.20304C167.084 6.6072 168.615 6.58539 168.865 6.15943C168.981 5.9635 169.21 5.96175 169.444 6.15556C169.657 6.33214 170.057 6.50098 170.333 6.53123C171.784 6.68987 173.281 6.90408 174.173 7.0803C176.204 7.482 176.944 7.58506 181.688 8.12746C187.1 8.74618 187.078 8.74266 188.702 9.29385C189.345 9.51194 190.622 9.76836 191.541 9.86368C193.918 10.1103 197.359 10.7188 198.686 11.1275C199.309 11.3196 199.938 11.3994 200.082 11.3051C200.227 11.2109 200.44 11.2946 200.555 11.4912C200.671 11.6878 201.417 11.8486 202.213 11.8486C203.01 11.8486 204.635 12.1652 205.825 12.5524C208.221 13.3319 209.307 13.4723 210.118 13.1071C210.45 12.9577 210.729 13.0565 210.841 13.3618C210.946 13.6506 211.731 13.9594 212.707 14.0959C213.634 14.2254 214.482 14.4849 214.592 14.6728C214.841 15.0963 217.094 15.1135 217.719 14.6963C218.309 14.3027 217.909 13.6073 217.091 13.6073C216.746 13.6073 216.378 13.4628 216.274 13.2862C216.17 13.1096 215.454 12.8525 214.681 12.7149C213.908 12.5778 213.045 12.3333 212.762 12.1722C212.109 11.8001 205.308 9.82006 202.563 9.2031C202.195 9.12044 199.791 8.57277 197.219 7.9857C193.405 7.11548 184.593 5.52875 180.686 5.00886C180.227 4.94766 179.626 4.81681 179.35 4.71761C179.075 4.61877 177.271 4.34828 175.342 4.11683C173.414 3.88503 171.309 3.62298 170.667 3.53398C170.024 3.44499 168.596 3.30676 167.494 3.22656C166.391 3.14636 162.709 2.76155 159.311 2.37216C152.691 1.61309 139.136 0.722115 129.529 0.414687C121.524 0.158615 102.972 -0.101679 102.821 0.0400754ZM0.397839 12.2707C-0.304211 13.0101 -0.0527133 13.6073 0.959948 13.6073C1.72212 13.6073 1.95658 13.4237 2.08283 12.728C2.21308 12.0093 2.11055 11.8486 1.52038 11.8486C1.1236 11.8486 0.618273 12.0385 0.397839 12.2707Z" fill="#F59300" fill-opacity="0.5"/>
</svg>
