<svg width="329" height="443" viewBox="0 0 329 443" fill="none" xmlns="http://www.w3.org/2000/svg">
    <g filter="url(#filter0_d_209_164)">
        <path
            d="M86.9595 83.9096C86.4104 80.2407 87.6361 76.5291 90.2622 73.9089L141.805 22.481C143.572 20.7174 145.858 19.5664 148.328 19.1968L201.382 11.2554L256.417 3.01769C263.888 1.89935 270.851 7.04954 271.97 14.521L277.791 53.4146L318.055 322.407C318.529 325.571 317.684 328.79 315.719 331.314L272.871 386.354C271.055 388.687 268.422 390.244 265.503 390.713L69.803 422.135C63.3837 423.166 57.3578 418.758 56.3953 412.328L42.3095 318.224L25.8135 208.018C25.4227 205.407 25.9276 202.74 27.246 200.453L61.1727 141.594C62.9519 138.507 66.0423 136.401 69.5659 135.874L91.9313 132.526C93.1766 132.34 94.035 131.179 93.8486 129.934L86.9595 83.9096Z"
            fill="white" />
    </g>
    <path
        d="M110.05 97.8543L152.752 52.2161L253.143 37.1893L294.456 313.193L249.566 372.702L77.9291 398.22L50.1575 213.839L83.1162 157.009L118.12 151.77L110.05 97.8543Z"
        fill="#2CD5C4" />
    <path fill-rule="evenodd" clip-rule="evenodd"
        d="M170.287 66.5636L239.056 56.2701L261.592 206.828L275.403 299.102L124.705 321.659L102.169 171.101L184.099 158.838L170.287 66.5636Z"
        fill="white" />
    <defs>
        <filter id="filter0_d_209_164" x="15.3963" y="2.86511" width="313.076" height="439.996"
            filterUnits="userSpaceOnUse" color-interpolation-filters="sRGB">
            <feFlood flood-opacity="0" result="BackgroundImageFix" />
            <feColorMatrix in="SourceAlpha" type="matrix" values="0 0 0 0 0 0 0 0 0 0 0 0 0 0 0 0 0 0 127 0"
                result="hardAlpha" />
            <feOffset dy="10.2884" />
            <feGaussianBlur stdDeviation="5.14422" />
            <feComposite in2="hardAlpha" operator="out" />
            <feColorMatrix type="matrix" values="0 0 0 0 0 0 0 0 0 0 0 0 0 0 0 0 0 0 0.1 0" />
            <feBlend mode="normal" in2="BackgroundImageFix" result="effect1_dropShadow_209_164" />
            <feBlend mode="normal" in="SourceGraphic" in2="effect1_dropShadow_209_164" result="shape" />
        </filter>
    </defs>
</svg>