<svg width="18" height="14" viewBox="0 0 18 14" fill="none" xmlns="http://www.w3.org/2000/svg">
<path d="M14.6964 1.54889C13.5733 1.05524 12.3725 0.696458 11.1171 0.492188C10.9629 0.754073 10.7828 1.10631 10.6586 1.38652C9.32406 1.19797 8.00182 1.19797 6.6918 1.38652C6.56768 1.10631 6.38338 0.754073 6.22787 0.492188C4.97108 0.696458 3.76892 1.05655 2.64589 1.55151C0.380705 4.76741 -0.233352 7.90351 0.0736722 10.995C1.57606 12.0492 3.03206 12.6894 4.46346 13.1084C4.81691 12.6515 5.13212 12.1657 5.40371 11.6537C4.88647 11.4691 4.39115 11.2412 3.92312 10.9767C4.04732 10.8903 4.16876 10.7999 4.28611 10.707C7.14083 11.9614 10.2424 11.9614 13.063 10.707C13.1817 10.7999 13.3032 10.8903 13.426 10.9767C12.9566 11.2425 12.4598 11.4703 11.9427 11.655C12.2142 12.1657 12.5281 12.6528 12.8828 13.1097C14.3156 12.6908 15.773 12.0504 17.2754 10.995C17.6356 7.41118 16.66 4.30387 14.6964 1.54889ZM5.79257 9.09381C4.9356 9.09381 4.23288 8.34212 4.23288 7.42688C4.23288 6.51163 4.92061 5.75868 5.79257 5.75868C6.66452 5.75868 7.36724 6.51029 7.35225 7.42688C7.35367 8.34212 6.66452 9.09381 5.79257 9.09381ZM11.5565 9.09381C10.6995 9.09381 9.99682 8.34212 9.99682 7.42688C9.99682 6.51163 10.6846 5.75868 11.5565 5.75868C12.4285 5.75868 13.1313 6.51029 13.1162 7.42688C13.1162 8.34212 12.4285 9.09381 11.5565 9.09381Z" fill="#5865F2"/>
</svg>
