<svg width="20" height="15" viewBox="0 0 20 15" fill="none" xmlns="http://www.w3.org/2000/svg">
<path d="M16.9419 1.25623C15.6473 0.669366 14.2629 0.242841 12.8157 0C12.638 0.311334 12.4304 0.730078 12.2872 1.0632C10.7487 0.839044 9.22446 0.839044 7.71427 1.0632C7.57118 0.730078 7.35873 0.311334 7.17946 0C5.73064 0.242841 4.34479 0.670922 3.05017 1.25934C0.438874 5.08247 -0.269007 8.81072 0.0849289 12.486C1.81687 13.7392 3.49534 14.5003 5.14546 14.9984C5.55291 14.4552 5.91627 13.8777 6.22937 13.269C5.63309 13.0495 5.06209 12.7787 4.52255 12.4642C4.66573 12.3615 4.80573 12.2541 4.941 12.1435C8.23191 13.6348 11.8074 13.6348 15.059 12.1435C15.1958 12.2541 15.3358 12.3615 15.4774 12.4642C14.9363 12.7802 14.3636 13.051 13.7675 13.2706C14.0805 13.8777 14.4423 14.4567 14.8513 15C16.503 14.5019 18.183 13.7407 19.915 12.486C20.3303 8.22544 19.2055 4.53141 16.9419 1.25623ZM6.67764 10.2258C5.68973 10.2258 4.87964 9.33216 4.87964 8.24409C4.87964 7.15603 5.67246 6.26091 6.67764 6.26091C7.68282 6.26091 8.49291 7.15444 8.47564 8.24409C8.47728 9.33216 7.68282 10.2258 6.67764 10.2258ZM13.3223 10.2258C12.3344 10.2258 11.5243 9.33216 11.5243 8.24409C11.5243 7.15603 12.3171 6.26091 13.3223 6.26091C14.3275 6.26091 15.1376 7.15444 15.1203 8.24409C15.1203 9.33216 14.3275 10.2258 13.3223 10.2258Z" fill="white"/>
</svg>
