<svg width="112" height="31" viewBox="0 0 112 31" fill="none" xmlns="http://www.w3.org/2000/svg">
<path fill-rule="evenodd" clip-rule="evenodd" d="M20.7691 0.773438L20.7691 24.5284L5.45312 24.5284L5.45312 9.22407L13.0686 9.22407L13.0686 0.773438L20.7691 0.773438Z" fill="white" stroke="black" stroke-width="1.51779"/>
<path fill-rule="evenodd" clip-rule="evenodd" d="M1 13.1269L4.72103 8.50977L4.72103 16.9236L4.72103 25.3375L1 29.9546L1 13.1269Z" fill="black" stroke="black" stroke-width="0.0384823"/>
<path fill-rule="evenodd" clip-rule="evenodd" d="M7.90625 3.52919L12.3617 0L12.3617 8.61712L7.90625 8.61712L7.90625 3.52919Z" fill="black"/>
<path fill-rule="evenodd" clip-rule="evenodd" d="M4.76999 25.2832L1 29.9997H16.6987L21.5146 25.2832H4.76999Z" fill="black" stroke="black" stroke-width="0.0386669"/>
<path d="M32.9354 12.7128C34.7441 12.7128 36.2944 14.0752 36.2944 16.0953C36.2944 18.1858 34.7441 19.5012 32.9354 19.5012C31.1033 19.5012 29.6469 18.1153 29.6469 16.0953C29.6469 14.0047 31.1033 12.7128 32.9354 12.7128ZM36.4823 6.9375V11.8907C35.8011 10.6927 33.8985 10.035 32.6771 10.035C29.2946 10.035 26.7812 12.1021 26.7812 16.0953C26.7812 19.9005 29.3416 22.1555 32.7475 22.1555C34.1569 22.1555 35.5897 21.6857 36.4823 20.2998L36.4965 21.8971H39.348V6.9375H36.4823Z" fill="#212121"/>
<path d="M53.4066 17.1288C53.8528 12.3605 51.4335 9.96456 47.5577 9.96456C43.7994 9.96456 41.4035 12.5014 41.4035 16.0248C41.4035 19.7361 43.776 22.2025 47.7691 22.2025C49.5308 22.2025 51.5274 21.5917 52.7489 20.3233L50.9167 18.5146C50.259 19.1958 48.8731 19.5952 47.8161 19.5952C45.796 19.5952 44.5511 18.5616 44.3632 17.1288H53.4066ZM44.4102 14.7564C44.833 13.2531 46.1014 12.5014 47.6517 12.5014C49.2959 12.5014 50.4704 13.2531 50.6583 14.7564H44.4102Z" fill="#212121"/>
<path d="M61.9231 12.7128C63.7552 12.7128 65.2116 14.0047 65.2116 16.0953C65.2116 18.1153 63.7552 19.5012 61.9231 19.5012C60.1144 19.5012 58.5641 18.1858 58.5641 16.0953C58.5641 14.0752 60.1144 12.7128 61.9231 12.7128ZM55.5105 6.9375V21.8971H58.3272L58.3762 20.2998C59.2688 21.6857 60.7016 22.1555 62.111 22.1555C65.5169 22.1555 68.0772 19.9005 68.0772 16.0953C68.0772 12.1021 65.5639 10.035 62.1814 10.035C60.96 10.035 59.0574 10.6927 58.3762 11.8907V6.9375H55.5105Z" fill="#212121"/>
<path d="M70.1913 6.9375V21.8971H73.0335V6.9375H70.1913Z" fill="#212121"/>
<path d="M80.9855 10.082C77.2977 10.082 74.9957 12.8068 74.9957 16.1187C74.9957 19.4542 77.2507 22.1555 81.009 22.1555C84.7673 22.1555 87.0457 19.4542 87.0457 16.1187C87.0457 12.8068 84.6733 10.082 80.9855 10.082ZM81.009 12.6893C82.9351 12.6893 84.1566 14.3805 84.1566 16.1187C84.1566 17.8804 83.0995 19.5247 81.009 19.5247C78.9184 19.5247 77.8614 17.8804 77.8614 16.1187C77.8614 14.3805 78.9419 12.6893 81.009 12.6893Z" fill="#212121"/>
<path d="M97.0338 18.5381C96.3291 19.2428 95.413 19.5012 94.497 19.5012C92.7118 19.5012 91.2085 18.3267 91.2085 16.1187C91.2085 14.0987 92.6178 12.6893 94.5439 12.6893C95.3426 12.6893 96.1882 12.9947 96.8694 13.6054L98.6781 11.7028C97.4096 10.4578 96.1412 9.98805 94.497 9.98805C91.138 9.98805 88.3428 12.0081 88.3428 16.1187C88.3428 20.2294 91.138 22.2494 94.497 22.2494C96.2117 22.2494 97.621 21.7327 98.9599 20.4173L97.0338 18.5381Z" fill="#212121"/>
<path d="M100.148 6.9375V21.8971H103.013V16.659L107.547 21.8971H111V21.6857L105.621 15.7664L110.342 10.4813V10.3169H106.913L103.013 14.9678V6.9375H100.148Z" fill="#212121"/>
<path d="M70.1565 6.9375V21.8971H72.9987V6.9375H70.1565Z" fill="#212121"/>
<path d="M80.9508 10.082C77.2629 10.082 74.961 12.8068 74.961 16.1187C74.961 19.4542 77.216 22.1555 80.9742 22.1555C84.7325 22.1555 87.011 19.4542 87.011 16.1187C87.011 12.8068 84.6386 10.082 80.9508 10.082ZM80.9742 12.6893C82.9004 12.6893 84.1218 14.3805 84.1218 16.1187C84.1218 17.8804 83.0648 19.5247 80.9742 19.5247C78.8837 19.5247 77.8267 17.8804 77.8267 16.1187C77.8267 14.3805 78.9072 12.6893 80.9742 12.6893Z" fill="#212121"/>
<path d="M96.9991 18.5381C96.2944 19.2428 95.3783 19.5012 94.4622 19.5012C92.677 19.5012 91.1737 18.3267 91.1737 16.1187C91.1737 14.0987 92.5831 12.6893 94.5092 12.6893C95.3078 12.6893 96.1534 12.9947 96.8346 13.6054L98.6433 11.7028C97.3749 10.4578 96.1065 9.98805 94.4622 9.98805C91.1033 9.98805 88.308 12.0081 88.308 16.1187C88.308 20.2294 91.1033 22.2494 94.4622 22.2494C96.1769 22.2494 97.5863 21.7327 98.9252 20.4173L96.9991 18.5381Z" fill="#212121"/>
<path d="M100.113 6.9375V21.8971H102.979V16.659L107.512 21.8971H110.965V21.6857L105.586 15.7664L110.307 10.4813V10.3169H106.878L102.979 14.9678V6.9375H100.113Z" fill="#212121"/>
<path d="M70.1218 6.9375V21.8971H72.964V6.9375H70.1218Z" fill="#212121"/>
<path d="M80.916 10.082C77.2282 10.082 74.9262 12.8068 74.9262 16.1187C74.9262 19.4542 77.1812 22.1555 80.9395 22.1555C84.6978 22.1555 86.9762 19.4542 86.9762 16.1187C86.9762 12.8068 84.6038 10.082 80.916 10.082ZM80.9395 12.6893C82.8656 12.6893 84.0871 14.3805 84.0871 16.1187C84.0871 17.8804 83.03 19.5247 80.9395 19.5247C78.849 19.5247 77.7919 17.8804 77.7919 16.1187C77.7919 14.3805 78.8724 12.6893 80.9395 12.6893Z" fill="#212121"/>
<path d="M96.9643 18.5381C96.2596 19.2428 95.3436 19.5012 94.4275 19.5012C92.6423 19.5012 91.139 18.3267 91.139 16.1187C91.139 14.0987 92.5483 12.6893 94.4744 12.6893C95.2731 12.6893 96.1187 12.9947 96.7999 13.6054L98.6086 11.7028C97.3401 10.4578 96.0717 9.98805 94.4275 9.98805C91.0685 9.98805 88.2733 12.0081 88.2733 16.1187C88.2733 20.2294 91.0685 22.2494 94.4275 22.2494C96.1422 22.2494 97.5515 21.7327 98.8904 20.4173L96.9643 18.5381Z" fill="#212121"/>
<path d="M100.078 6.9375V21.8971H102.944V16.659L107.477 21.8971H110.93V21.6857L105.551 15.7664L110.272 10.4813V10.3169H106.843L102.944 14.9678V6.9375H100.078Z" fill="#212121"/>
<path d="M70.087 6.9375V21.8971H72.9292V6.9375H70.087Z" fill="#212121"/>
<path d="M80.8813 10.082C77.1935 10.082 74.8915 12.8068 74.8915 16.1187C74.8915 19.4542 77.1465 22.1555 80.9048 22.1555C84.663 22.1555 86.9415 19.4542 86.9415 16.1187C86.9415 12.8068 84.5691 10.082 80.8813 10.082ZM80.9048 12.6893C82.8309 12.6893 84.0523 14.3805 84.0523 16.1187C84.0523 17.8804 82.9953 19.5247 80.9048 19.5247C78.8142 19.5247 77.7572 17.8804 77.7572 16.1187C77.7572 14.3805 78.8377 12.6893 80.9048 12.6893Z" fill="#212121"/>
<path d="M96.9296 18.5381C96.2249 19.2428 95.3088 19.5012 94.3927 19.5012C92.6075 19.5012 91.1042 18.3267 91.1042 16.1187C91.1042 14.0987 92.5136 12.6893 94.4397 12.6893C95.2383 12.6893 96.0839 12.9947 96.7651 13.6054L98.5738 11.7028C97.3054 10.4578 96.037 9.98805 94.3927 9.98805C91.0338 9.98805 88.2385 12.0081 88.2385 16.1187C88.2385 20.2294 91.0338 22.2494 94.3927 22.2494C96.1074 22.2494 97.5168 21.7327 98.8557 20.4173L96.9296 18.5381Z" fill="#212121"/>
<path d="M100.043 6.9375V21.8971H102.909V16.659L107.442 21.8971H110.895V21.6857L105.516 15.7664L110.238 10.4813V10.3169H106.808L102.909 14.9678V6.9375H100.043Z" fill="#212121"/>
</svg>
