<svg width="236" height="23" viewBox="0 0 236 23" fill="none" xmlns="http://www.w3.org/2000/svg">
<path fill-rule="evenodd" clip-rule="evenodd" d="M168.323 0.0737455C168.246 0.151523 164.976 0.259237 161.057 0.313234C157.137 0.366951 152.561 0.482779 150.888 0.570069C146.41 0.803683 145.354 0.810956 145.033 0.610356C144.874 0.510755 144.678 0.495928 144.598 0.577343C144.409 0.767871 141.494 0.949166 136.009 1.11144C133.605 1.18278 131.541 1.30169 131.422 1.37611C131.303 1.45053 130.097 1.59293 128.742 1.69253C127.387 1.79213 126.239 1.97958 126.191 2.10912C126.143 2.23866 125.832 2.24677 125.5 2.12703C124.96 1.93286 124.248 1.91244 122.762 2.04925C122.43 2.07975 122.342 2.24034 122.47 2.5825C122.64 3.03854 122.619 3.0377 122.152 2.56991C121.741 2.15752 121.373 2.09877 120.094 2.24034C119.237 2.33518 117.945 2.39757 117.223 2.37883C116.412 2.35784 115.909 2.46584 115.909 2.66084C115.909 2.87263 115.613 2.90928 115.011 2.77247C114.516 2.66 113.987 2.58083 113.835 2.59677C113.683 2.61244 112.626 2.65049 111.485 2.68126C110.344 2.71204 109.297 2.80157 109.158 2.87963C108.852 3.05197 108.006 3.1387 104.572 3.34937C103.127 3.43806 101.572 3.56116 101.116 3.62243C99.1279 3.89046 96.8204 4.08994 94.8942 4.16016C93.7535 4.20185 92.1359 4.38175 91.2995 4.55969C89.7446 4.89066 86.3792 5.19898 84.6866 5.1654C84.1674 5.15505 83.6406 5.30949 83.5159 5.50841C83.3315 5.80245 83.2883 5.80134 83.2847 5.50309C83.2809 5.15897 82.6324 5.17296 80.5154 5.56213C78.9255 5.85477 77.3999 6.05873 76.0912 6.15413C75.2547 6.2154 73.886 6.33459 73.0495 6.41936C72.2131 6.50441 70.7199 6.62807 69.7314 6.69438C68.7428 6.76069 67.934 6.83231 67.934 6.85329C67.934 6.89442 67.5135 7.00465 66.4505 7.24246C66.0908 7.32304 64.8465 7.46908 63.6854 7.56729C61.41 7.75949 60.4682 7.86972 60.4682 7.94359C60.4682 7.96933 59.7216 8.0485 58.8091 8.11957C56.1578 8.32632 55.0382 8.46173 53.417 8.77117C52.5806 8.93092 51.2118 9.13711 50.3754 9.22944C49.5389 9.32205 48.3651 9.45158 47.7667 9.51761C47.1686 9.58364 46.5584 9.7599 46.411 9.90902C46.2379 10.0842 45.9619 10.0822 45.6323 9.9037C45.2986 9.72297 44.9463 9.72213 44.6164 9.90062C44.3385 10.0511 43.4363 10.2014 42.6117 10.2344C41.7868 10.2674 40.8011 10.4126 40.4209 10.5567C40.0407 10.7011 39.2941 10.853 38.7618 10.8947C36.4855 11.072 34.4531 11.405 34.1548 11.6492C33.9535 11.8143 33.7715 11.8107 33.6673 11.6394C33.5592 11.4629 33.1853 11.4623 32.6057 11.6378C32.1133 11.7869 31.0404 11.9699 30.2211 12.0443C29.4015 12.1184 28.6214 12.248 28.4871 12.3322C28.353 12.4161 27.7167 12.5386 27.0735 12.6047C25.4341 12.7731 24.4187 12.944 23.1387 13.2672C22.5304 13.4208 21.8151 13.479 21.5488 13.3964C21.2825 13.3139 21.0646 13.3492 21.0643 13.4751C21.0638 13.6007 20.7043 13.7162 20.2649 13.7319C19.8258 13.7473 19.2349 13.8564 18.9523 13.9742C18.6694 14.092 17.792 14.2153 17.0023 14.2481C16.2129 14.2808 15.3983 14.449 15.1923 14.6219C14.9863 14.795 14.5748 14.943 14.2775 14.9514C12.5502 14.999 11.0625 15.213 10.7625 15.4573C10.5736 15.6114 10.0145 15.8249 9.5204 15.9318C9.02599 16.0386 8.62117 16.2107 8.62062 16.3137C8.61979 16.4169 8.21553 16.5305 7.72195 16.566C6.20306 16.6754 5.71473 16.8408 5.80294 17.2154C5.8646 17.4773 5.78939 17.4952 5.52642 17.2809C5.02179 16.8696 3.5217 17.1541 2.84838 17.7889C2.53841 18.081 2.08355 18.3199 1.83745 18.3199C1.23216 18.3199 -0.317981 19.9085 0.058078 20.1435C0.217903 20.2437 0.273483 20.5654 0.181404 20.8589C-0.00358383 21.4484 0.294775 22.1565 0.568247 21.7771C0.663368 21.6454 1.02118 21.379 1.36323 21.1854C1.91183 20.8749 1.98538 20.8958 1.98538 21.3625C1.98538 21.6599 2.23259 21.957 2.54975 22.041C3.02508 22.1669 3.08425 22.0947 2.92443 21.5852C2.8199 21.2523 2.53482 20.8128 2.29065 20.6085C1.90243 20.2831 1.9334 20.2563 2.53841 20.3937C2.91862 20.4798 3.31901 20.5523 3.42851 20.5542C3.53773 20.5565 3.55543 20.747 3.46805 20.9778C3.3804 21.2086 3.44648 21.3975 3.61488 21.3975C3.78328 21.3975 3.92098 21.2755 3.92098 21.1264C3.92098 20.9775 4.12007 20.9328 4.36368 21.0273C4.60702 21.1219 4.91643 21.0234 5.05082 20.8088C5.24991 20.4907 5.29581 20.5036 5.29941 20.8779C5.30162 21.1309 5.52145 21.4305 5.78745 21.5438C6.51358 21.8532 8.59518 21.7682 9.01991 21.4115C9.30112 21.1753 9.50187 21.2086 9.83673 21.5477C10.1951 21.9103 10.2808 21.9207 10.2808 21.6006C10.2808 21.3827 10.5186 20.9865 10.8095 20.7204C11.3235 20.2496 11.3316 20.265 11.1059 21.2769C10.932 22.0583 10.9743 22.4187 11.2757 22.7239C11.8146 23.2692 12.4918 22.9654 12.4971 22.1756C12.5001 21.7385 12.5726 21.6507 12.7266 21.8966C12.8576 22.1053 13.1571 22.1761 13.4416 22.0656C13.711 21.961 14.0138 22.0102 14.1144 22.175C14.3218 22.5149 16.3641 21.9859 16.3641 21.5922C16.3641 21.4669 16.2527 21.4341 16.1166 21.5192C15.9803 21.6045 15.7967 21.4831 15.708 21.2495C15.5769 20.9037 15.6482 20.8799 16.094 21.1211C16.3945 21.2839 16.6406 21.3303 16.6406 21.224C16.6406 21.118 16.8895 21.259 17.1937 21.5374C17.6911 21.9929 17.7467 21.9971 17.7467 21.5807C17.7467 21.3261 17.9333 21.1177 18.1615 21.1177C18.3896 21.1177 18.8467 20.8441 19.1774 20.5095C19.5673 20.115 19.7196 20.0562 19.6112 20.3425C19.3729 20.9703 19.6768 21.1633 20.1496 20.6846C20.6755 20.1528 21.0649 20.1681 21.0649 20.7213C21.0649 20.965 21.2205 21.1085 21.4105 21.0402C21.6008 20.972 21.7235 20.6301 21.6837 20.2806C21.6198 19.7177 21.6641 19.6892 22.0708 20.0308C22.4859 20.3791 22.5177 20.3293 22.3993 19.5149C22.2948 18.7933 22.3413 18.6741 22.6319 18.9184C22.8506 19.1019 22.9283 19.4931 22.8268 19.9018C22.67 20.5333 22.727 20.5755 23.6508 20.5126C24.649 20.4446 25.04 20.0386 24.7765 19.3439C24.6983 19.1377 24.8155 18.8171 25.037 18.6311C25.3707 18.351 25.4708 18.4386 25.6246 19.1458C25.7656 19.7966 25.9611 19.9986 26.4492 19.9986C27.1344 19.9986 27.5419 19.3898 27.1335 18.9766C26.9873 18.8286 27.1214 18.5765 27.4606 18.3622C27.7767 18.1624 27.9531 18.1342 27.8522 18.2992C27.7446 18.4752 27.8981 18.5997 28.2216 18.5997C28.5258 18.5997 28.8515 18.4738 28.9455 18.3199C29.2923 17.752 29.6426 18.0595 29.4648 18.776C29.3266 19.333 29.3758 19.4807 29.6669 19.3839C29.8785 19.3137 30.09 18.9287 30.137 18.5287C30.2233 17.7962 30.9008 16.9876 31.1864 17.2767C31.271 17.362 31.1292 17.7579 30.8714 18.1557C30.5897 18.591 30.5255 18.8795 30.7111 18.8795C30.8806 18.8795 31.0194 18.7805 31.0194 18.6593C31.0194 18.5382 31.4018 18.4095 31.8688 18.3734C32.3901 18.3334 32.6511 18.4184 32.5438 18.5938C32.2764 19.0317 32.8433 18.9332 33.2179 18.4763C33.3996 18.2548 33.7135 18.1375 33.915 18.2159C34.1166 18.2939 34.3533 18.2405 34.4412 18.0967C34.5289 17.9532 34.9003 17.8933 35.2664 17.9641C35.6325 18.0349 36.016 17.9551 36.1189 17.7867C36.3589 17.3936 38.2088 17.3849 38.2088 17.7769C38.2088 17.9397 38.3465 17.987 38.5149 17.8818C38.7336 17.745 38.725 17.6306 38.4853 17.4806C38.0218 17.1908 38.5491 16.8853 39.9638 16.6237C40.7626 16.4757 41.1774 16.5274 41.4564 16.8097C41.9964 17.3561 42.4521 17.2982 42.2329 16.7112C42.0653 16.2622 42.0871 16.2588 42.4972 16.669C43.0176 17.1894 44.015 17.0724 44.7646 16.4032C45.472 15.7717 46.0612 15.6674 45.8555 16.2101C45.7656 16.4474 45.8126 16.6413 45.9597 16.6413C46.1071 16.6413 46.2277 16.5014 46.2277 16.3305C46.2277 16.1265 46.5611 16.0829 47.1955 16.2032C48.0358 16.3626 48.1633 16.3142 48.1633 15.835C48.1633 15.2544 49.5115 13.9845 49.7955 14.2976C49.8862 14.3978 49.8052 14.536 49.615 14.6045C49.425 14.6733 49.2693 14.959 49.2693 15.2396C49.2693 15.9307 50.2247 15.6724 50.5706 14.8879L50.8289 14.3024L51.3913 14.8714C51.8979 15.384 52.0267 15.4019 52.6854 15.0527C53.325 14.7139 53.417 14.7189 53.417 15.0936C53.417 15.3356 53.6576 15.5222 53.9701 15.5222C54.2742 15.5222 54.5231 15.3963 54.5231 15.2424C54.5231 15.0885 54.8342 14.9626 55.2144 14.9626C55.5946 14.9626 55.9057 14.8233 55.9057 14.6529C55.9057 14.4825 56.0768 14.4098 56.2861 14.4909C56.5154 14.5799 56.6525 14.4646 56.6318 14.2005C56.6108 13.9353 56.8433 13.7417 57.2208 13.7098C57.7943 13.6614 57.8136 13.7047 57.4619 14.2475C57.1091 14.7925 57.1303 14.8359 57.7348 14.8093C58.0954 14.7931 58.4731 14.6963 58.5743 14.5942C58.6755 14.4918 58.9114 14.5365 59.0983 14.6935C59.5559 15.0779 60.9559 14.4392 60.764 13.9336C60.5942 13.4854 60.9346 13.4482 61.3511 13.8695C61.5673 14.0883 61.8109 14.0897 62.2083 13.8746C62.6404 13.6407 62.7981 13.6659 62.9206 13.9884C63.0068 14.2165 63.3071 14.4031 63.5878 14.4031C64.3084 14.4031 65.6973 12.8682 65.4844 12.307C65.3777 12.025 65.4249 11.9256 65.611 12.042C65.7745 12.1444 65.8439 12.4776 65.7651 12.7829C65.5936 13.446 65.8115 14.1233 66.1959 14.1233C66.3479 14.1233 66.4008 13.9344 66.3131 13.7036C66.1348 13.2333 66.828 13.1108 67.1045 13.5637C67.1985 13.7176 67.4858 13.8334 67.743 13.8214C68.0308 13.8077 68.0778 13.745 67.8649 13.6583C67.6749 13.5805 67.5281 13.2442 67.5386 12.911C67.5574 12.324 67.5657 12.3224 67.7958 12.8643C67.9266 13.1721 68.0422 13.2591 68.0529 13.0576C68.0634 12.8562 68.1967 12.7692 68.3488 12.8643C68.5009 12.9594 68.6292 12.8724 68.6342 12.671C68.6394 12.4494 68.8075 12.5252 69.0597 12.8629C69.4175 13.3419 69.514 13.3617 69.7394 13.0028C69.8837 12.7728 69.9476 12.4334 69.8807 12.2491C69.811 12.0557 69.9202 11.976 70.139 12.0608C70.5902 12.2362 70.9024 12.9513 70.6837 13.3091C70.4802 13.6426 70.901 13.6317 71.8155 13.28C72.301 13.0932 72.499 12.8545 72.395 12.5806C72.3082 12.352 72.358 12.1649 72.5051 12.1649C72.6525 12.1649 72.773 12.2829 72.773 12.4273C72.773 13.0022 73.951 12.5697 74.2015 11.9027C74.4139 11.3378 74.5123 11.2827 74.7183 11.6148C74.8579 11.8403 74.9019 12.2547 74.8154 12.5353C74.6782 12.9812 74.775 13.0229 75.5821 12.8643C76.0904 12.7644 76.7264 12.6847 76.996 12.6866C77.2653 12.6889 77.4135 12.5722 77.3253 12.4276C77.2368 12.2832 77.3482 12.1649 77.5728 12.1649C77.797 12.1649 78.0332 12.3221 78.097 12.5146C78.1877 12.7874 78.3141 12.7801 78.6716 12.4816C78.9238 12.2712 79.3817 12.1654 79.6892 12.2468C79.997 12.3282 80.4253 12.2163 80.641 11.9978C80.8818 11.7541 81.0986 11.7083 81.2028 11.8786C81.4337 12.2566 82.6938 12.1232 83.0552 11.6828C83.2775 11.4117 83.2043 11.3255 82.7516 11.3255C82.2157 11.3255 82.19 11.2617 82.4983 10.696C82.795 10.1519 82.8553 10.1328 82.9432 10.5561C82.9988 10.8256 83.2756 11.0458 83.5576 11.0458C83.8397 11.0458 84.2351 11.2117 84.4361 11.4145C84.6383 11.6185 85.545 11.8135 86.4669 11.8512C87.895 11.9097 88.2457 11.821 88.9278 11.2279C89.6551 10.5956 90.6754 10.4831 90.3137 11.0751C90.2297 11.2128 90.2822 11.3255 90.4307 11.3255C90.5789 11.3255 90.7631 11.168 90.8399 10.9758C90.9514 10.696 90.9837 10.696 91.0011 10.9758C91.0351 11.5225 92.8811 11.4159 93.1947 10.8491C93.4093 10.4613 93.5351 10.4372 93.8727 10.7209C94.2045 10.9996 94.3163 10.9968 94.4316 10.7078C94.5319 10.456 94.6448 10.4381 94.804 10.649C94.9296 10.8155 95.4679 10.9414 96.0002 10.9288C96.8182 10.9095 96.9559 10.8149 96.8887 10.3192C96.845 9.99659 97.0084 9.56545 97.2517 9.36093C97.6424 9.03304 97.6734 9.07333 97.5161 9.7073C97.4146 10.1161 97.4666 10.5055 97.6369 10.6121C97.8014 10.7148 97.9358 10.6613 97.9358 10.4932C97.9358 10.3153 98.2541 10.2403 98.6962 10.3139C99.1143 10.3832 99.4567 10.461 99.4567 10.4862C99.4567 10.5114 99.815 10.5914 100.253 10.6636C100.956 10.7794 101.031 10.7246 100.895 10.1952C100.75 9.63847 100.775 9.62756 101.226 10.0408C101.832 10.5953 102.36 10.6149 102.36 10.083C102.36 9.86118 102.506 9.58895 102.684 9.4776C102.901 9.34163 102.949 9.4278 102.83 9.74087C102.7 10.0836 102.806 10.2064 103.232 10.2064C103.691 10.2064 103.745 10.1272 103.495 9.82173C103.241 9.51257 103.316 9.43703 103.876 9.43703C104.282 9.43703 104.572 9.59707 104.572 9.82173C104.572 10.3371 105.026 10.3127 105.225 9.78675C105.313 9.55594 105.544 9.37716 105.739 9.38919C106.016 9.40654 106.018 9.44179 105.747 9.5523C105.557 9.63008 105.402 9.81333 105.402 9.95994C105.402 10.1172 105.628 10.1037 105.955 9.92664C106.259 9.76186 106.508 9.72996 106.508 9.85586C106.508 10.395 108.031 10.1642 108.901 9.49327C109.789 8.80782 109.826 8.80222 109.826 9.35282C109.826 10.0749 110.785 10.1342 111.186 9.43703C111.343 9.16537 111.472 9.10298 111.477 9.29715C111.481 9.49998 111.846 9.64687 112.344 9.64687C112.936 9.64687 113.16 9.53356 113.065 9.28232C112.886 8.80921 114.811 8.64694 115.094 9.11137C115.204 9.29127 115.439 9.34863 115.615 9.23811C115.849 9.09179 115.854 8.93735 115.633 8.66765C115.451 8.44634 115.433 8.23287 115.588 8.13607C115.73 8.0471 115.915 8.23931 115.998 8.56273L116.15 9.15082L116.971 8.55965C117.932 7.86749 118.24 7.81237 118.028 8.36968C117.944 8.59071 118.025 8.83244 118.206 8.90714C118.388 8.98212 118.294 9.05318 117.997 9.06521C117.668 9.07864 117.56 9.18495 117.72 9.33715C117.865 9.47452 118.384 9.52376 118.873 9.44655C119.582 9.33463 119.751 9.18384 119.703 8.7071C119.667 8.35346 119.784 8.13663 119.988 8.17804C120.178 8.21665 120.335 8.09075 120.338 7.89826C120.341 7.66521 120.431 7.68843 120.61 7.96821C120.757 8.19902 120.882 8.26197 120.887 8.10809C120.891 7.95422 121 7.99534 121.127 8.1993C121.255 8.40326 121.874 8.63995 122.502 8.725C123.467 8.85622 123.731 8.77732 124.215 8.21441C124.733 7.61177 124.772 7.60254 124.634 8.11817C124.52 8.54231 124.622 8.7029 125.035 8.74766C125.902 8.84167 126.49 8.83495 127.385 8.72109C127.841 8.66289 128.587 8.59155 129.044 8.56273C129.801 8.51461 129.83 8.47684 129.383 8.13355C128.919 7.7774 128.923 7.74914 129.452 7.60897C129.813 7.51357 130.011 7.59722 130.011 7.84566C130.011 8.06697 130.182 8.16433 130.413 8.07452C130.634 7.98891 130.966 8.01353 131.152 8.12936C131.337 8.24546 131.996 8.31597 132.617 8.28631C133.237 8.25666 134.335 8.20434 135.058 8.1702C135.892 8.13076 136.371 7.98024 136.371 7.75837C136.371 7.54518 136.749 7.40865 137.339 7.40865C137.871 7.40865 138.307 7.54211 138.307 7.70494C138.307 7.86777 138.437 7.92008 138.596 7.82076C138.754 7.72144 139.063 7.79027 139.281 7.97352C139.556 8.20406 139.914 8.22644 140.444 8.0457C140.865 7.90218 141.69 7.83587 142.277 7.89826C143.029 7.97828 143.286 7.91729 143.148 7.69151C143.028 7.49482 143.117 7.40529 143.379 7.45985C143.614 7.50853 144.006 7.29674 144.251 6.98899C144.689 6.43727 144.693 6.43811 144.524 7.05893C144.402 7.51021 144.471 7.68843 144.77 7.68843C144.999 7.68843 145.269 7.55386 145.37 7.38963C145.47 7.22512 145.726 7.15825 145.939 7.24079C146.154 7.32416 146.326 7.22148 146.326 7.01025C146.326 6.28842 147.141 6.28647 147.607 7.00717C147.981 7.58379 148.253 7.69514 149.159 7.64115C149.777 7.60422 150.32 7.40977 150.401 7.1963C150.48 6.98759 150.731 6.88939 150.959 6.9778C151.187 7.06621 151.565 6.97891 151.801 6.78391C152.169 6.47923 152.206 6.51756 152.068 7.05893C151.98 7.40501 151.944 7.68843 151.989 7.68843C152.27 7.68843 153.64 6.82252 153.842 6.51784C153.995 6.28535 154.022 6.4258 153.913 6.89862L153.742 7.64786L156.161 7.54043C157.491 7.48111 158.703 7.30793 158.854 7.15517C159.005 7.00242 159.203 6.40929 159.295 5.83715C159.387 5.265 159.618 4.74406 159.809 4.67971C160.076 4.58962 160.09 4.73874 159.869 5.32515C159.712 5.74426 159.644 6.14938 159.719 6.2252C159.794 6.30101 159.731 6.59842 159.579 6.88575C159.365 7.29086 159.398 7.40865 159.727 7.40865C159.96 7.40865 160.152 7.29059 160.152 7.14622C160.152 7.00186 160.369 6.8975 160.635 6.91457C160.901 6.93135 161.386 6.85609 161.712 6.74754C162.068 6.62919 162.455 6.69382 162.68 6.90953C163.287 7.49091 164.132 7.33143 164.484 6.56932L164.807 5.86988L164.83 6.6485C164.852 7.4232 164.86 7.42628 166.442 7.29199C167.317 7.21784 168.615 7.1507 169.327 7.14287C170.405 7.13111 170.654 7.0276 170.812 6.52372C170.98 5.98627 171.03 5.97088 171.26 6.38579C171.461 6.74978 171.637 6.78839 172.056 6.56121C172.426 6.36117 172.595 6.36061 172.595 6.55953C172.595 6.71872 172.781 6.8491 173.009 6.8491C173.238 6.8491 173.424 6.97024 173.424 7.11824C173.424 7.54714 178.586 7.27436 179.134 6.81637C179.514 6.4991 179.62 6.49602 179.72 6.79958C179.811 7.07012 180.038 6.99486 180.566 6.5198C180.963 6.16225 181.119 6.09314 180.911 6.3662C180.445 6.98143 180.725 7.33563 181.298 6.85469C181.641 6.5668 181.721 6.5724 181.729 6.88491C181.734 7.14286 181.869 7.09222 182.14 6.72963C182.362 6.43307 182.626 6.27388 182.726 6.37544C182.827 6.47727 183.085 6.34214 183.3 6.07524C183.586 5.71964 183.729 5.68383 183.834 5.9415C183.914 6.13483 184.124 6.21848 184.301 6.12699C184.478 6.03579 184.326 6.20589 183.963 6.50497C183.538 6.85581 183.412 7.11685 183.61 7.24023C183.778 7.34542 184.191 7.11181 184.527 6.72068C185.176 5.96556 186.027 5.74454 185.78 6.3953C185.636 6.77412 186.06 7.40865 186.456 7.40865C186.568 7.40865 186.714 7.12524 186.781 6.77915C186.901 6.16337 186.907 6.16225 187.096 6.72796C187.27 7.2531 187.484 7.30094 189.412 7.24638C190.58 7.21337 191.567 7.15993 191.605 7.12776C191.814 6.9501 194.121 6.99934 194.68 7.19322C195.099 7.33843 195.482 7.29842 195.738 7.08299C196.005 6.85889 196.203 6.84154 196.327 7.03151C196.67 7.55833 197.721 7.65122 198.093 7.18763C198.396 6.80993 198.377 6.77132 197.965 6.92772C197.665 7.04158 197.481 6.97808 197.481 6.75985C197.481 6.13399 198.521 6.28675 198.698 6.93863C198.837 7.4495 198.908 7.48055 199.136 7.12888C199.285 6.89806 199.41 6.85301 199.412 7.02899C199.419 7.50769 200.216 7.72452 200.802 7.40697C201.099 7.2461 201.383 7.23351 201.471 7.37732C201.654 7.67724 203.868 7.59778 204.388 7.2724C204.632 7.11964 204.69 7.15014 204.56 7.36361C204.433 7.57064 204.59 7.68032 205.001 7.67248C205.614 7.66073 207.574 7.88959 207.574 7.97296C207.574 7.99534 208.165 8.0527 208.887 8.10082C209.609 8.14894 210.201 8.10725 210.202 8.00821C210.202 7.90945 210.762 7.81713 211.446 7.8037C212.361 7.78523 212.689 7.88623 212.689 8.18587C212.689 8.45194 212.876 8.54343 213.229 8.45026C213.526 8.37164 213.827 8.45138 213.898 8.62736C213.97 8.80334 214.038 8.71801 214.05 8.43795C214.07 7.97464 214.111 7.96821 214.506 8.36801C214.916 8.78208 215.196 8.84223 217.253 8.9589C217.71 8.98491 218.353 9.09235 218.681 9.19782C219.01 9.30358 219.356 9.26357 219.45 9.10942C219.559 8.9312 219.863 8.92196 220.285 9.08396C220.747 9.26161 220.989 9.23727 221.083 9.00338C221.157 8.81873 221.227 8.88783 221.239 9.15726C221.251 9.42668 221.354 9.65162 221.469 9.6575C222.341 9.70198 223.974 10.0332 224.372 10.2464C224.766 10.4577 224.857 10.3874 224.86 9.86649C224.864 9.35114 224.916 9.30862 225.132 9.64687C225.353 9.99239 225.401 9.99659 225.405 9.67009C225.407 9.45214 225.487 9.35338 225.583 9.45046C225.68 9.54754 225.991 9.50138 226.275 9.34751C226.87 9.0252 226.887 9.07528 226.522 10.0483C226.311 10.6093 226.338 10.766 226.644 10.766C226.859 10.766 227.109 10.6457 227.199 10.4985C227.382 10.198 228.213 10.4344 228.499 10.8687C228.602 11.0242 229.022 11.1974 229.432 11.2528C229.842 11.3085 230.355 11.5334 230.572 11.753C230.889 12.0745 231.072 12.086 231.506 11.8115C231.802 11.624 232.045 11.3862 232.045 11.283C232.045 11.0248 232.614 11.1442 233.359 11.5586C233.832 11.8221 233.981 11.8255 233.981 11.5717C233.981 11.3725 234.203 11.4428 234.536 11.7469C235.358 12.4997 235.542 12.025 234.889 10.8328C234.45 10.0288 234.378 9.62616 234.579 9.09235C234.758 8.61449 234.743 8.36521 234.531 8.29359C234.361 8.23623 234.104 7.8756 233.96 7.49202C233.815 7.10873 233.459 6.73187 233.167 6.65465C232.875 6.57744 232.575 6.35306 232.501 6.15609C232.352 5.7644 227.276 4.13414 226.822 4.33223C226.763 4.35797 226.619 4.22144 226.501 4.02895C226.384 3.83674 225.125 3.45876 223.705 3.18934C222.285 2.91963 220.812 2.62559 220.432 2.5355C220.051 2.44541 219.056 2.30161 218.22 2.21628C217.383 2.13066 216.458 1.9891 216.163 1.90153C215.868 1.81368 214.935 1.70484 214.089 1.65952C213.243 1.61392 212.24 1.49389 211.86 1.39261C211.48 1.29133 210.111 1.16516 208.818 1.112C207.525 1.05884 206.468 0.997287 206.468 0.975465C206.468 0.953642 205.939 0.887055 205.292 0.827743C204.572 0.761715 204.117 0.836696 204.117 1.02107C204.117 1.22503 203.993 1.21775 203.732 0.998407C203.52 0.820189 202.338 0.654283 201.105 0.629942C199.872 0.605322 198.864 0.515233 198.864 0.429621C198.864 0.344289 196.841 0.240772 194.37 0.199645C191.899 0.158798 189.69 0.119629 189.462 0.112634C189.234 0.10564 188.238 0.144808 187.25 0.199365C186.261 0.253921 185.142 0.220069 184.761 0.124105C184.381 0.0281419 183.666 0.0410111 183.171 0.152362C182.677 0.263993 182.273 0.251123 182.273 0.123545C182.273 -0.00403315 181.931 -0.0384452 181.512 0.0468867C180.44 0.265392 170.734 0.311836 169.491 0.104521C168.925 0.00995654 168.399 -0.0037527 168.323 0.0737455ZM192.776 5.79126C192.778 5.90177 192.601 5.92276 192.383 5.83799C192.164 5.75321 192.057 5.4947 192.145 5.2636C192.274 4.922 192.348 4.91332 192.538 5.21688C192.667 5.42224 192.774 5.68047 192.776 5.79126ZM139.711 5.38027C139.722 5.49554 139.774 5.81113 139.825 6.08111C139.876 6.3511 139.819 6.51029 139.699 6.43503C139.369 6.22883 139.151 5.17044 139.439 5.17044C139.577 5.17044 139.699 5.265 139.711 5.38027ZM171.765 5.29382C171.765 5.36181 171.641 5.49498 171.489 5.5901C171.337 5.68523 171.212 5.62955 171.212 5.46672C171.212 5.30389 171.337 5.17044 171.489 5.17044C171.641 5.17044 171.765 5.22583 171.765 5.29382ZM160.843 6.28955C160.937 6.44342 160.882 6.56932 160.721 6.56932C160.56 6.56932 160.428 6.44342 160.428 6.28955C160.428 6.13567 160.483 6.00977 160.55 6.00977C160.617 6.00977 160.749 6.13567 160.843 6.28955ZM136.648 6.6927C136.648 6.76069 136.523 6.89386 136.371 6.98899C136.219 7.08411 136.095 7.02843 136.095 6.8656C136.095 6.70278 136.219 6.56932 136.371 6.56932C136.523 6.56932 136.648 6.62472 136.648 6.6927ZM138.232 6.73831C138.14 6.83119 137.902 6.84126 137.702 6.76041C137.482 6.67116 137.547 6.60485 137.869 6.59142C138.161 6.57939 138.324 6.64542 138.232 6.73831ZM139.275 6.8491C139.369 7.00298 139.244 7.12888 138.998 7.12888C138.752 7.12888 138.628 7.00298 138.722 6.8491C138.816 6.69522 138.94 6.56932 138.998 6.56932C139.056 6.56932 139.181 6.69522 139.275 6.8491ZM142.178 6.81637C142.178 6.95234 141.898 7.13503 141.556 7.22232C140.955 7.37536 140.952 7.36696 141.471 6.975C142.097 6.50189 142.178 6.48343 142.178 6.81637ZM132.224 6.97248C132.224 7.04047 132.099 7.17364 131.947 7.26876C131.795 7.36389 131.671 7.30821 131.671 7.14538C131.671 6.98255 131.795 6.8491 131.947 6.8491C132.099 6.8491 132.224 6.90449 132.224 6.97248ZM119.429 7.29786C119.337 7.39075 119.099 7.40082 118.899 7.31996C118.679 7.23071 118.744 7.16441 119.066 7.15098C119.358 7.13895 119.521 7.20497 119.429 7.29786ZM122.458 8.30058C122.37 8.52356 122.304 8.45726 122.291 8.13132C122.279 7.83643 122.344 7.67136 122.436 7.76425C122.528 7.85714 122.538 8.09858 122.458 8.30058ZM219.602 8.38787C219.602 9.09179 219.167 9.06045 219.11 8.35234C219.077 7.95198 219.169 7.73039 219.328 7.82944C219.479 7.924 219.602 8.17524 219.602 8.38787ZM104.71 8.52776C104.804 8.68164 104.749 8.80754 104.588 8.80754C104.428 8.80754 104.296 8.68164 104.296 8.52776C104.296 8.37388 104.35 8.24798 104.418 8.24798C104.485 8.24798 104.616 8.37388 104.71 8.52776ZM119.962 8.68192C120.047 8.9049 120.227 9.08731 120.363 9.08731C120.761 9.08731 120.647 8.6019 120.209 8.43207C119.941 8.328 119.86 8.41081 119.962 8.68192ZM227.875 8.69479C227.566 9.07137 227.583 9.18328 227.98 9.40794C228.642 9.7834 228.598 10.306 227.934 9.94623C227.65 9.79235 227.319 9.75654 227.199 9.86649C227.078 9.97644 227.062 9.836 227.162 9.55398C227.262 9.27225 227.345 8.86293 227.345 8.64471C227.345 8.42648 227.546 8.24798 227.793 8.24798C228.173 8.24798 228.185 8.31681 227.875 8.69479ZM89.8293 9.41969C89.7411 9.64267 89.6755 9.57636 89.6622 9.25042C89.6504 8.95554 89.7156 8.79047 89.8074 8.88336C89.8992 8.97624 89.9092 9.21769 89.8293 9.41969ZM222.644 8.93092C222.644 8.9989 222.519 9.13208 222.367 9.2272C222.215 9.32233 222.091 9.26665 222.091 9.10382C222.091 8.94099 222.215 8.80754 222.367 8.80754C222.519 8.80754 222.644 8.86293 222.644 8.93092ZM223.473 9.08731C223.473 9.24119 223.349 9.36709 223.197 9.36709C223.045 9.36709 222.92 9.24119 222.92 9.08731C222.92 8.93344 223.045 8.80754 223.197 8.80754C223.349 8.80754 223.473 8.93344 223.473 9.08731ZM89.0874 9.64687C89.0874 9.95462 88.9745 10.2064 88.8368 10.2064C88.6989 10.2064 88.6513 9.95462 88.7307 9.64687C88.8103 9.33911 88.9231 9.08731 88.9815 9.08731C89.0395 9.08731 89.0874 9.33911 89.0874 9.64687ZM90.7465 9.64687C90.7465 9.80074 90.6917 9.92664 90.6245 9.92664C90.5573 9.92664 90.4257 9.80074 90.3317 9.64687C90.2377 9.49299 90.2927 9.36709 90.4536 9.36709C90.6146 9.36709 90.7465 9.49299 90.7465 9.64687ZM88.1702 10.259C88.082 10.482 88.0164 10.4157 88.0032 10.0898C87.9913 9.79487 88.0565 9.6298 88.1483 9.72269C88.2401 9.81557 88.2501 10.057 88.1702 10.259ZM231.492 11.1389C231.492 11.3443 231.306 11.5121 231.077 11.5121C230.64 11.5121 230.538 11.2648 230.847 10.9526C231.152 10.6437 231.492 10.7419 231.492 11.1389ZM50.7788 15.2611C50.6784 15.4251 50.6558 15.6195 50.7282 15.6928C50.8007 15.7661 50.9337 15.6319 51.0238 15.3943C51.2107 14.9014 51.0515 14.8146 50.7788 15.2611ZM23.6041 18.9402C23.4058 19.1408 23.277 19.1573 23.277 18.9822C23.277 18.823 23.3599 18.609 23.4614 18.5066C23.5626 18.4039 23.71 18.3849 23.7885 18.4646C23.8671 18.544 23.7841 18.7581 23.6041 18.9402ZM8.0687 20.6639C8.0687 20.7218 7.85108 20.9423 7.5848 21.1535C7.14625 21.5013 7.13657 21.4915 7.48027 21.0478C7.84168 20.5817 8.0687 20.4337 8.0687 20.6639ZM12.1404 21.957C12.0945 22.5731 11.6634 22.7415 11.6634 22.1437C11.6634 21.8099 11.9087 21.3975 12.1072 21.3975C12.1484 21.3975 12.1633 21.6493 12.1404 21.957Z" fill="#9AD0F2"/>
</svg>
