<svg width="16" height="14" viewBox="0 0 16 14" fill="none" xmlns="http://www.w3.org/2000/svg">
<path d="M15.7535 1.97593C15.4128 2.127 15.0592 2.24618 14.6963 2.33246C15.0962 1.95249 15.3968 1.47723 15.5664 0.946743C15.6148 0.795299 15.4503 0.664342 15.3136 0.745428C14.8088 1.04488 14.265 1.26952 13.6973 1.41319C13.6643 1.42152 13.6304 1.42575 13.5963 1.42575C13.4929 1.42575 13.3923 1.38735 13.3133 1.31767C12.7093 0.785355 11.9325 0.492188 11.126 0.492188C10.777 0.492188 10.4247 0.546582 10.0787 0.653874C9.00683 0.986333 8.17978 1.87051 7.92029 2.96138C7.82295 3.37055 7.79659 3.7801 7.8419 4.17861C7.8471 4.22441 7.82545 4.25637 7.8121 4.27136C7.78866 4.29764 7.75543 4.31271 7.72092 4.31271C7.71707 4.31271 7.71311 4.31252 7.70919 4.31215C5.36288 4.09416 3.24708 2.96377 1.75152 1.12925C1.67526 1.03568 1.52901 1.04716 1.46822 1.15142C1.17535 1.65387 1.02058 2.22854 1.02058 2.8133C1.02058 3.70948 1.38063 4.55402 2.00603 5.1697C1.74303 5.10735 1.48848 5.00914 1.25203 4.87781C1.13763 4.81426 0.996881 4.89594 0.995274 5.02678C0.9789 6.35811 1.75836 7.54274 2.92602 8.07618C2.90251 8.07674 2.87899 8.077 2.85544 8.077C2.67035 8.077 2.48294 8.05913 2.29849 8.02388C2.16966 7.99928 2.06144 8.12149 2.10144 8.24639C2.48044 9.42964 3.49923 10.3018 4.71841 10.4998C3.70657 11.1791 2.52825 11.5374 1.30186 11.5374L0.919533 11.5371C0.801736 11.5371 0.702107 11.6139 0.672087 11.728C0.642516 11.8404 0.696985 11.9589 0.797436 12.0174C2.17938 12.8216 3.75569 13.2467 5.35663 13.2467C6.75798 13.2467 8.06882 12.9686 9.25278 12.4202C10.3382 11.9174 11.2973 11.1987 12.1035 10.284C12.8546 9.43192 13.4419 8.4483 13.8491 7.3605C14.2372 6.32357 14.4424 5.21715 14.4424 4.16082V4.1105C14.4424 3.94088 14.5191 3.78129 14.6529 3.67265C15.1608 3.2603 15.603 2.77491 15.9673 2.22996C16.0635 2.08606 15.9118 1.90572 15.7535 1.97593Z" fill="#1B9DF0"/>
</svg>
