<svg width="24" height="24" viewBox="0 0 24 24" fill="none" xmlns="http://www.w3.org/2000/svg">
<path d="M20.9737 6.17393C20.5093 6.7813 19.9479 7.31112 19.3112 7.74291C19.3112 7.90157 19.3112 8.06023 19.3112 8.22771C19.3163 11.1089 18.1424 13.8717 16.0527 15.8966C13.9629 17.9215 11.1321 19.0391 8.19491 18.999C6.49685 19.0045 4.82053 18.6244 3.29728 17.8884C3.21514 17.8532 3.16217 17.7736 3.16248 17.6856V17.5887C3.16248 17.4621 3.26709 17.3595 3.39613 17.3595C5.06528 17.3055 6.67488 16.7382 7.9972 15.7377C6.48639 15.7078 5.12705 14.8303 4.50146 13.4811C4.46987 13.4075 4.4797 13.3229 4.52743 13.2581C4.57515 13.1933 4.65386 13.1576 4.73511 13.1638C5.19428 13.209 5.65804 13.1672 6.10106 13.0404C4.43325 12.701 3.18007 11.3435 3.00072 9.68207C2.99435 9.60237 3.03078 9.52521 3.09686 9.47835C3.16293 9.43158 3.2491 9.42188 3.32424 9.45295C3.7718 9.64658 4.25495 9.74854 4.7441 9.75256C3.2827 8.81223 2.65147 7.02359 3.20741 5.39826C3.2648 5.24033 3.40267 5.12365 3.57036 5.09112C3.73804 5.05858 3.91082 5.11498 4.02518 5.2396C5.99725 7.29731 8.7069 8.5235 11.5828 8.65961C11.5092 8.37143 11.473 8.07526 11.475 7.77817C11.5019 6.22032 12.4851 4.83256 13.9643 4.26458C15.4434 3.69661 17.1258 4.06082 18.2239 5.18671C18.9723 5.04692 19.6959 4.80044 20.3716 4.45511C20.4211 4.42482 20.4839 4.42482 20.5334 4.45511C20.5643 4.50366 20.5643 4.56522 20.5334 4.61377C20.2061 5.34855 19.6532 5.96483 18.9518 6.37666C19.566 6.30683 20.1694 6.16478 20.7491 5.95357C20.7979 5.92101 20.862 5.92101 20.9108 5.95357C20.9517 5.97191 20.9823 6.00698 20.9944 6.04944C21.0065 6.0919 20.9989 6.13744 20.9737 6.17393Z" fill="white"/>
</svg>
