<svg width="631" height="498" viewBox="0 0 631 498" fill="none" xmlns="http://www.w3.org/2000/svg">
<path d="M211.284 75.6753C211.685 74.7057 212.086 73.7362 212.771 72.0815C207.947 71.8036 203.511 71.5515 198.998 71.2865C199.14 71.6226 199.315 72.0363 199.522 72.5275C196.883 72.5275 194.271 72.7343 191.704 72.4564C189.835 72.256 189.078 72.7214 188.451 74.5118C187.52 77.1683 186.576 77.0391 184.416 75.1711C181.396 72.5534 177.885 70.7953 173.76 70.4462C172.757 70.3622 171.807 69.6771 170.837 69.2699C170.947 68.9596 171.057 68.6558 171.167 68.3456H174.109C172.111 66.6909 170.009 64.9587 167.92 63.2071C165.34 61.0482 165.347 60.0011 168.127 57.894C164.72 56.2652 165.884 53.5247 166.621 50.8358C165.457 50.7841 164.564 50.7453 163.646 50.7066C163.698 50.2735 163.659 49.9374 163.75 49.8922C166.879 48.4443 166.239 45.1156 166.679 42.7693C167.351 39.1433 166.53 35.2651 166.647 31.4969C166.685 30.2947 167.701 29.1183 167.992 28.5043C168.535 25.1303 168.658 22.1829 169.531 19.4747C170.513 16.4368 172.259 16.4691 174.277 19.0933C175.163 20.2438 176.495 21.0583 177.381 22.2088C179.431 24.8524 181.338 27.6123 183.272 30.2817C183.019 30.3076 182.276 30.3722 181.526 30.4433C182.683 32.8866 186.686 33.7785 191.432 32.628C189.964 30.3852 186.156 34.3796 185.367 29.8034C188.154 30.1266 190.779 30.4369 193.411 30.7407C193.23 30.9798 193.055 31.219 192.874 31.4581C193.831 32.6345 194.795 33.8044 195.913 35.1682C196.456 34.2051 196.864 33.4877 197.284 32.7444C197.847 33.255 198.358 33.7139 199.166 34.4443C199.509 33.3067 199.754 32.4729 200.019 31.5874C200.453 31.6908 200.938 31.6649 201.035 31.8459C201.578 32.8478 201.843 34.6382 202.535 34.8062C204.552 35.2975 206.77 35.4203 208.814 35.0906C209.441 34.9937 209.771 32.9964 210.391 31.4969C213.98 31.2513 217.951 31.2836 221.501 33.9272C222.943 35.0001 223.693 34.3732 224.682 31.8201C223.221 30.5791 221.837 29.3962 220.072 27.8967C223.027 28.2845 225.109 28.5107 227.178 28.8404C229.409 29.1959 231.627 29.6548 234.763 30.2365C233.237 31.387 232.526 31.9299 231.633 32.5957C232.235 33.6363 232.901 34.7868 233.754 36.2541C232.649 36.3381 231.549 36.4221 230.282 36.5191C229.422 38.8977 228.536 41.3473 227.598 43.9392C229.002 44.2301 230.418 44.5209 231.802 44.8118C231.963 45.6197 232.028 47.0547 232.306 47.0934C235.041 47.5136 237.899 48.1341 240.803 44.7019C239.089 44.9023 238.145 45.0122 237.207 45.1221C237.143 45.4646 237.085 45.8072 237.02 46.1433C236.503 45.0316 235.979 43.9198 235.623 43.1442H230.735C231.317 37.9734 234.278 36.9133 238.035 37.592C237.809 35.9891 237.608 34.5735 237.408 33.158C237.822 33.0546 238.229 32.9447 238.643 32.8413C239.121 34.3021 239.6 35.7564 240.169 37.5015C241.805 37.5015 243.544 37.3399 245.245 37.5338C248.304 37.8893 251.336 38.5034 254.395 38.9106C255.067 39.0011 255.785 38.6585 256.49 38.5422C258.055 38.2901 259.626 38.0509 261.482 37.7665C261.346 37.1977 261.12 36.267 260.829 35.0648C263.383 35.0842 262.943 41.2375 266.532 37.7148C267.121 38.9364 267.632 40.0094 268.175 41.1405C266.849 41.05 265.692 40.966 264.534 40.882C264.502 41.1276 264.463 41.3732 264.431 41.6188C265.614 41.9614 266.797 42.3039 268.285 42.7305C268.705 42.2135 269.293 41.4895 269.875 40.7721C271.24 41.7545 272.546 42.6982 273.852 43.6484C273.923 43.4545 273.988 43.2605 274.059 43.0602L267.295 36.0149C267.489 35.6594 267.683 35.3039 267.871 34.9484C270.018 35.0454 272.158 35.1423 274.712 35.2522C274.305 36.1054 274.072 36.5902 273.839 37.0814C275.085 37.7148 276.066 37.0146 276.781 34.9807C277.641 35.207 278.527 35.4332 279.523 35.6917V38.7748C279.717 38.8201 279.905 38.8653 280.099 38.9106C280.383 38.3741 280.674 37.8441 280.7 37.7924C281.987 37.676 283.015 37.5856 284.037 37.4951C284.05 37.146 284.063 36.8035 284.076 36.4544C282.795 35.8921 281.521 35.3298 280.241 34.7674C280.331 34.5348 280.416 34.3021 280.506 34.0694H283.778C283.403 32.544 283.093 31.2707 282.627 29.351C281.431 30.6566 280.622 31.5292 280.234 31.9558C277.777 31.9558 275.747 31.9817 273.716 31.9429C273.07 31.9299 272.404 31.8395 271.796 31.6326C269.054 30.7083 266.552 29.3768 263.331 30.5209C261.269 31.2513 258.727 30.7342 256.412 30.6049C256.05 30.5855 255.734 29.6806 255.391 29.1829C255.824 28.9115 256.27 28.3944 256.684 28.4138C259.575 28.5624 262.465 28.8339 265.355 29.0343C265.996 29.0795 266.869 29.2476 267.257 28.9179C271.434 25.3113 276.51 26.8043 281.23 26.3196C281.948 26.2485 282.776 26.1515 283.332 25.7508C285.666 24.0767 288.292 24.3353 290.548 26.5523C290.969 26.9595 291.499 27.2503 292.23 27.7739C293.646 24.6261 295.902 23.2429 299.116 24.6455C299.692 24.8976 300.325 26.2032 300.144 26.772C299.258 29.5643 296.252 30.7148 293.355 30.0555C292.566 29.8745 291.467 31.0897 290.451 31.6973C289.068 31.4969 287.438 31.2642 285.647 31.0057C285.867 32.1885 286.099 33.436 286.184 33.9272C288.789 34.4443 291.208 34.6382 293.381 35.459C295.004 36.0731 296.148 37.2301 298.276 36.532C300.739 35.724 303.475 35.7564 306.1 34.8579C305.369 34.7028 304.638 34.5477 303.365 34.2697C305.369 32.7444 307.025 31.484 308.893 30.062C309.799 30.8893 310.995 31.9881 311.771 32.6926C313.853 31.303 315.638 30.1137 317.448 28.9115C319.052 29.6742 320.843 32.3307 321.865 28.5107C321.897 28.3879 322.162 28.291 322.337 28.2522C324.113 27.8773 324.551 26.8841 323.65 25.2725C319.278 26.8431 314.907 28.4913 309.928 27.0823C309.294 30.3852 307.988 29.3445 306.941 27.5218C305.111 28.4008 303.449 29.1959 301.341 30.2106C301.386 26.2873 303.966 25.7508 306.029 25.3694C308.648 24.8847 311.402 25.1691 314.092 25.001C314.642 24.9687 315.47 24.5033 315.644 24.038C316.866 20.7739 318.224 22.6806 319.162 23.6114C322.046 22.9198 324.581 22.3122 327.458 21.6206C327.859 19.7591 329.243 18.8542 331.998 18.2789C336.272 17.387 341.186 17.7554 344.549 13.7868C345.247 12.9659 347.168 13.2955 348.409 12.7978C354.83 10.2059 361.2 7.51065 367.601 4.87352C371.598 3.22531 375.613 1.62235 379.622 0C379.855 0.29086 380.081 0.588183 380.314 0.879043C379.286 1.75162 378.258 2.63067 377.165 3.55495C377.236 3.70361 377.314 4.17545 377.508 4.22716C383.618 5.76549 384.989 11.2789 387.285 15.9456C389.574 20.6123 391.688 25.3694 393.809 30.1137C395.51 33.9207 397.204 37.7342 398.73 41.6123C399.474 43.4997 397.314 46.4859 394.721 47.4619C391.016 48.858 387.291 50.1959 383.237 51.689C383.955 52.497 384.401 52.9947 384.841 53.4859C384.776 53.7574 384.711 54.0288 384.647 54.3003C383.774 54.0094 382.836 53.822 382.034 53.3954C380.424 52.5293 379.312 52.749 378.853 54.6299C378.42 56.4268 378.614 56.0196 376.848 55.3603C375.264 54.7721 373.285 55.2375 371.481 55.2375C371.481 55.6253 371.481 56.0067 371.475 56.3945C372.561 56.4527 373.647 56.5108 374.734 56.569C372.82 57.3123 371.1 59.9365 368.869 56.8534C368.448 56.2652 366.444 56.4656 365.338 56.8146C363.844 57.2929 362.512 58.2754 361.323 58.9282C361.575 60.2015 361.827 61.449 362.131 62.9679C358.969 63.5367 356.156 64.4093 353.33 64.4739C347.355 64.6226 347.349 64.4481 342.512 67.4601C344.995 67.2985 347.485 67.2015 349.961 66.9624C352.742 66.6909 355.522 66.3484 358.29 65.9347C360.928 65.5404 363.54 65.0039 366.896 64.4028C365.778 63.9956 365.312 63.8276 364.329 63.4721C365.5 62.8904 366.315 62.2569 367.226 62.063C374.3 60.5376 381.342 58.6632 388.501 57.7583C395.29 56.8986 401.782 54.4683 408.947 55.1923C415.834 55.8839 422.882 54.9531 429.859 54.7527C432.608 54.6687 435.356 54.617 438.104 54.5588C439.391 54.533 440.684 54.5588 441.971 54.4942C445.734 54.3132 449.491 54.087 453.255 53.906C455.88 53.7832 458.512 53.5828 461.137 53.6345C464.655 53.6992 468.166 53.9383 471.671 54.2163C472.149 54.2551 472.874 54.9014 472.964 55.3668C473.494 58.0815 473.831 60.8349 474.315 63.5561C474.982 67.305 475.829 71.0215 476.398 74.7833C476.676 76.6383 476.372 78.5774 476.572 80.4583C477.09 85.3124 477.866 90.1471 478.299 95.0077C478.648 98.9117 478.654 102.848 478.797 106.771C478.81 107.082 478.706 107.411 478.603 107.715C478.499 108.012 468.787 111.91 468.67 111.703C467.215 109.144 464.816 109.777 462.579 109.88C462.43 109.887 462.288 110.094 462.062 110.275C462.631 110.566 463.148 110.831 464.125 111.335C462.178 111.613 460.678 111.832 459.145 112.052C460.005 115.09 461.751 115.206 464.286 112.621C468.735 115.866 473.669 114.754 477.82 113.649C478.81 112.776 479.767 111.199 480.795 111.154C485.696 110.934 490.611 111.115 495.519 111.218C495.952 111.225 496.385 111.69 496.805 111.962C497.704 112.537 498.564 113.584 499.483 113.629C503.291 113.817 507.119 113.707 510.967 113.267C507.3 112.944 503.634 112.614 499.968 112.291L499.903 111.787C501.985 111.606 504.1 111.121 506.149 111.302C514.62 112.039 523.072 112.963 531.53 113.855C540.486 114.799 549.429 115.84 558.391 116.738C561.036 117.003 563.726 116.835 566.37 117.061C567.761 117.184 569.112 117.734 570.367 118.742C569.339 118.852 568.304 118.968 567.276 119.078C574.725 123.376 584.004 122.31 591.951 126.789C590.218 128.056 589.268 128.747 587.949 129.717C590.167 130.784 591.809 131.572 593.781 132.516C591.744 134.209 590.186 135.502 588.421 136.963C590.031 138.074 591.052 138.772 592.954 140.078C587.929 139.871 589.656 143.575 588.162 145.352C589.488 145.986 590.593 146.522 592.378 147.375C589.029 149.25 586.274 150.795 583.487 152.352C584.424 152.43 585.608 152.527 586.778 152.624C587.309 154.35 587.852 156.127 588.634 158.687C587.334 158.939 585.879 159.333 584.399 159.469C582.834 159.611 581.237 159.501 578.715 159.501C580.499 160.697 581.502 161.375 583.202 162.513C579.303 162.345 576.283 162.209 573.264 162.08C573.238 162.216 573.212 162.345 573.186 162.481C575.294 162.862 577.396 163.243 579.976 163.715C579.057 164.032 578.501 164.226 577.919 164.426C578.702 164.821 579.465 165.208 580.234 165.603C580.221 165.965 580.202 166.333 580.189 166.695C573.593 164.943 567.166 166.333 560.57 167.012C560.861 167.348 561.204 167.736 561.96 168.602C559.742 168.725 557.912 168.828 555.449 168.964C560.583 169.326 565.084 169.636 569.578 169.953C569.235 169.183 568.938 168.518 568.634 167.833C569.093 167.652 569.3 167.484 569.468 167.509C573.07 168.143 576.639 168.97 580.267 169.416C586.727 170.218 593.206 170.89 599.692 171.446C604.173 171.834 608.693 171.788 613.167 172.215C616.562 172.538 619.925 173.275 623.281 173.928C623.746 174.018 624.167 174.677 624.458 175.169C624.652 175.505 624.496 176.345 624.632 176.371C628.577 177.289 629.12 180.656 629.637 184.024C627.258 185.607 627.167 186.907 629.721 190.293C628.939 190.591 628.215 190.875 626.734 191.444C628.525 192.375 629.734 193.002 630.995 193.654C630.995 193.603 631.015 193.713 630.976 193.797C630.258 195.212 629.482 196.602 628.829 198.05C627.852 200.228 628.04 202.057 630.879 202.943C629.65 203.654 628.641 204.248 627.652 204.823C632.554 215.004 630.51 214.713 625.622 215.469C627.876 216.201 629.042 217.701 629.12 219.968C626.766 219.981 624.38 220.472 622.615 217.97C622.266 217.479 620.054 218.306 618.767 218.927C621.975 220.905 624.568 223.684 628.687 222.734C628.596 223.193 628.512 223.652 628.422 224.111C623.029 223.704 617.629 223.374 612.243 222.863C607.134 222.378 602.045 221.661 596.937 221.125C591.188 220.523 585.44 219.767 579.672 219.502C561.411 218.649 543.143 217.983 524.876 217.279C521.927 217.162 518.966 217.162 516.017 217.208C505.057 217.363 494.096 217.434 483.149 217.764C473.223 218.061 463.297 218.623 453.377 219.153C452.013 219.224 450.675 219.812 449.31 220.065C447.131 220.465 444.713 221.939 443.199 218.74C443.089 218.507 441.331 218.946 440.38 219.231C438.705 219.728 436.856 221.15 436.158 218.035C436.125 217.88 434.644 217.77 434.095 218.08C433.571 218.378 433.371 219.263 432.776 220.362C430.273 215.611 428.359 220.556 425.895 220.582C426.122 219.037 426.296 217.828 426.549 216.109C421.414 215.378 416.759 217.059 412.006 217.912C411.941 218.203 411.876 218.5 411.812 218.791C412.943 219.263 414.081 219.728 415.75 220.42C411.618 221.37 407.803 222.249 403.988 223.128C403.929 222.986 403.878 222.837 403.819 222.695C404.272 222.32 404.725 221.952 405.171 221.577C402.558 218.177 399.519 220.776 396.635 221.357C397.89 221.448 399.144 221.532 400.269 221.609C398.038 225.675 392.975 224.505 389.8 227.039C389.425 227.336 388.19 227.084 387.731 226.67C384.711 223.917 381.627 224.66 378.581 226.315C380.094 231.841 374.954 227.918 373.518 230.439C382.59 229.753 391.301 229.094 400.011 228.435L400.082 229.217C399.228 229.34 398.368 229.456 396.862 229.669C399.771 230.115 402.048 230.464 403.671 230.71C406.8 230.451 409.439 230.38 412.025 229.967C413.952 229.656 416.06 229.282 417.638 228.247C419.882 226.78 421.246 227.032 423.154 229.249C423.949 230.174 425.947 230.064 428.107 230.6C427.273 228.661 426.807 227.595 426.335 226.489C427.305 226.089 429.935 226.205 434.224 226.838C433.687 226.153 433.299 225.656 432.595 224.757H439.818C438.285 225.727 437.612 226.147 436.61 226.78C437.574 227.427 438.395 227.969 439.274 228.564C438.214 228.758 437.173 228.945 435.815 229.191C439.992 231.214 441.214 230.762 443.303 226.761C445.941 226.896 448.547 227.026 451.599 227.187C450.92 226.16 450.623 225.707 450.325 225.255C450.519 224.977 450.707 224.699 450.901 224.421C452.543 225.332 454.108 226.438 455.841 227.09C457.296 227.64 458.99 227.982 460.516 227.814C462.501 227.595 463.995 227.491 466.11 228.435C468.25 229.391 471.942 228.655 474.102 227.304C476.436 225.843 478.169 224.654 481.002 225.604C482.534 226.121 484.325 225.869 486 225.953C490.727 226.186 495.448 226.522 500.181 226.606C504.972 226.69 509.796 226.224 514.569 226.528C521.429 226.968 528.258 227.944 535.112 228.577C542.012 229.217 548.937 229.618 555.83 230.329C559.212 230.678 562.529 231.596 565.905 232.042C568.446 232.378 571.046 232.3 573.606 232.552C575.41 232.727 577.221 233.03 578.973 233.489C583.623 234.704 588.194 236.275 592.889 237.258C597.021 238.124 596.84 242.254 599.743 244.439C598.463 245.027 597.344 245.175 597.053 245.751C596.374 247.089 595.346 248.937 595.799 250.017C596.82 252.434 598.657 254.509 599.75 256.112C597.713 258.988 596.129 261.218 594.402 263.661C595.281 264.224 596.329 264.889 597.655 265.736C596.323 266.706 595.12 267.578 593.361 268.858C595.566 269.944 597.234 270.771 598.961 271.624C600.28 275.289 597.241 275.315 594.661 275.942C596.032 277.099 597.118 278.017 598.165 278.902C596.361 282.192 595.611 285.269 597.674 288.526C592.96 291.694 588.278 294.699 582.09 292.857C581.153 292.579 579.633 293.406 578.708 294.137C577.085 295.417 576.238 296.606 573.671 294.835C571.744 293.503 568.343 294.311 565.601 294.169C564.12 294.092 562.51 294.376 561.197 293.878C559.07 293.07 557.835 293.439 556.18 295.113C551.834 299.521 553.231 305.073 553.14 310.069C552.849 325.64 553.063 341.23 553.354 356.807C553.444 361.746 552.332 366.988 555.643 371.518C556.057 372.087 556.115 373.335 555.772 373.962C553.386 378.331 554.563 382.72 555.416 387.147C555.675 388.498 555.753 389.894 555.856 391.271C556.115 394.755 556.425 398.239 556.561 401.729C556.723 405.866 556.826 410.015 556.723 414.152C556.69 415.296 555.824 416.421 555.339 417.552C554.065 416.938 552.72 416.421 551.55 415.645C551.142 415.374 551.032 414.469 551 413.835C550.631 406.448 550.315 399.06 549.959 391.672C549.875 389.959 549.707 388.253 549.552 386.546C549.215 382.772 547.709 379.036 549.442 375.203C549.81 374.395 549.836 373.167 549.5 372.346C546.383 364.693 547.948 356.678 547.573 348.825C547.094 338.955 546.59 329.072 546.428 319.196C546.305 311.576 546.635 303.949 546.913 296.328C547.023 293.271 545.904 292.088 542.794 292.14C536.16 292.249 529.254 290.95 522.955 292.398C517.95 293.549 513.114 293.368 508.232 293.736C503.518 294.085 498.739 293.633 493.993 293.51C493.029 293.484 492.066 293.322 491.102 293.322C481.028 293.316 470.953 293.271 460.878 293.368C458.221 293.394 455.57 294.079 452.905 294.124C447.047 294.221 441.182 294.008 435.33 294.137C433.662 294.176 432.019 295.009 430.351 295.391C429.782 295.52 429.135 295.462 428.547 295.371C426.432 295.061 424.324 294.706 422.177 294.796C423.807 297.517 425.663 297.33 427.816 295.223C428.081 296.787 428.282 297.983 428.424 298.829C431.023 297.459 433.577 295.998 436.242 294.77C437.225 294.318 437.878 295.481 438.602 295.888C440.626 297.026 443.186 297.336 445.579 297.653C450.222 298.267 454.91 298.558 459.553 299.191C462.379 299.573 465.127 300.465 467.946 300.917C474.147 301.925 480.368 302.792 486.576 303.729C489.059 304.104 491.548 304.433 494.012 304.905C500.504 306.153 506.977 307.478 512.157 308.505C517.931 314.975 513.586 320.489 513.476 327.069C514.62 328.232 513.935 330.216 512.842 332.453C512.15 333.862 512.26 335.659 512.48 337.275C512.008 338.354 511.09 339.446 511.135 340.5C511.355 345.716 511.879 350.913 512.195 356.122C512.551 362.023 511.064 363.394 504.94 363.581C499.263 363.756 493.592 364.396 487.921 364.383C484.642 364.383 481.383 363.329 478.092 363.051C474.994 362.786 471.858 362.728 468.754 362.89C462.075 363.232 455.408 363.827 448.735 364.215C446.193 364.363 443.633 364.26 441.085 364.144C440.626 364.124 440.199 363.471 439.578 362.961C439.781 365.736 438.069 367.315 434.444 367.699C432.433 366.193 431.308 364.887 429.911 364.46C429.025 364.189 427.745 365.236 426.361 365.805C422.591 363.407 418.032 363.439 412.821 364.88C413.997 365.339 414.786 365.643 415.575 365.953C415.53 366.231 415.485 366.509 415.446 366.781C413.545 366.477 411.644 366.173 409.18 365.772C409.057 365.966 408.462 366.929 407.492 368.5C406.522 365.016 404.802 364.796 402.287 365.753C400.981 366.251 399.338 365.837 397.625 365.837C397.482 367.013 397.334 368.183 397.165 369.56C399.164 369.276 400.994 369.011 402.83 368.752C402.888 369.146 402.94 369.547 402.998 369.941C399.131 371.286 395.025 370.872 390.848 371.053C391.378 369.767 391.792 368.759 392.232 367.679C392.574 367.815 392.878 367.886 393.137 368.048C393.784 368.455 394.379 369.12 395.057 369.217C395.361 369.263 396.273 367.886 396.131 367.673C395.665 366.981 394.831 366.037 394.159 366.057C390.887 366.147 387.628 366.522 385.099 366.735C384.511 368.216 384.213 368.978 383.916 369.735C383.192 366.6 382.092 365.908 379.047 366.735C376.861 367.33 374.1 365.947 373.214 368.668C365.842 368.862 358.788 368.668 351.694 371.105C351.726 371.796 351.778 372.798 351.862 374.459C354.901 373.742 357.598 373.005 360.34 372.52C361.051 372.398 361.898 373.076 362.687 373.386C361.989 373.845 361.329 374.627 360.585 374.724C352.625 375.752 344.626 376.528 336.679 377.659C328.299 378.848 319.809 379.792 311.68 382.002C308.628 382.83 305.266 382.157 302.893 383.483C298.463 385.958 293.975 383.618 289.708 384.833C287.774 385.383 285.899 386.139 283.985 386.76C283.416 386.941 282.75 387.147 282.2 387.031C280.39 386.63 279.142 386.637 277.383 388.117C275.74 389.5 272.727 389.254 270.063 389.772C270.341 395.485 270.625 401.147 270.884 406.803C270.936 407.986 271.117 409.22 270.845 410.339C270.606 411.308 269.804 412.135 269.255 413.027C268.414 412.355 266.991 411.793 266.836 410.985C266.054 406.881 265.582 402.718 265.032 398.568C264.696 396.028 264.411 393.475 263.952 389.7C262.374 391.148 260.926 391.846 260.654 392.861C259.962 395.401 259.452 398.09 259.497 400.714C259.672 411.334 259.555 422.005 260.616 432.547C261.217 438.558 259.95 444.738 262.51 450.71C263.538 453.095 262.601 456.45 262.122 459.287C261.974 460.166 260.15 461.569 259.484 461.375C258.301 461.032 256.613 459.714 256.542 458.705C256.096 452.565 256.147 446.399 255.824 440.245C255.552 435.107 254.945 429.994 254.576 424.862C254.259 420.467 254.162 416.052 253.761 411.664C253.658 410.526 253.05 409.039 252.171 408.432C248.575 405.924 246.202 402.628 244.65 398.588C244.217 397.45 243.305 396.5 241.74 395.55C241.579 396.423 241.236 397.302 241.275 398.161C241.566 404.172 241.98 410.171 242.277 416.182C242.743 425.728 243.215 435.268 243.557 444.822C243.829 452.423 243.848 460.037 244.113 467.638C244.327 473.623 244.831 479.602 245.045 485.587C245.155 488.586 245.025 491.605 244.773 494.591C244.631 496.304 244.068 498.404 241.837 497.933C240.932 497.739 239.878 495.774 239.8 494.559C239.076 482.666 238.514 470.766 237.964 458.867C237.266 443.833 236.645 428.792 235.946 413.758C235.688 408.141 235.772 402.453 234.847 396.946C233.632 389.72 231.446 382.668 229.92 375.487C228.258 367.666 226.797 359.794 225.4 351.921C224.798 348.547 224.579 345.108 224.178 341.65C227.98 335.381 235.377 336.738 241.307 334.625C241.281 334.334 241.255 334.043 241.236 333.752C239.522 333.752 237.802 333.681 236.089 333.765C232.92 333.92 229.719 333.972 226.603 334.482C225.368 334.683 223.111 334.844 223.77 337.404C223.822 337.611 223.02 338.031 222.639 338.341C220.628 334.185 217.078 337.501 214.31 336.221C214.472 335.452 214.698 334.405 214.924 333.364C213.353 334.844 211.872 336.24 209.706 338.283C211.846 338.47 213.444 338.613 215.901 338.832C213.676 339.582 212.208 340.293 210.67 340.558C203.945 341.715 197.148 342.478 190.482 343.88C184.125 345.218 177.943 347.377 171.6 348.78C167.617 349.659 163.465 349.775 159.411 350.35C158.842 350.434 158.299 351.12 157.852 351.617C156.281 353.362 154.567 353.679 152.492 352.192C152.899 351.63 153.307 351.068 153.268 351.12C151.237 349.103 149.019 347.493 147.597 345.354C145.327 341.941 143.439 338.244 141.68 334.534C140.464 331.962 139.559 329.318 136.966 327.67C136.565 327.418 136.785 326.183 136.714 325.285C136.054 325.162 135.252 325.013 134.451 324.865C135.427 320.282 131.534 318.239 129.724 315.169C128.527 313.14 127.325 311.117 126.128 309.087C126.368 308.938 126.601 308.79 126.84 308.641C125.967 308.298 125.094 307.956 123.025 307.142C128.004 303.91 132.265 301.15 137.076 298.028C135.951 298.028 135.272 297.815 134.858 298.06C128.857 301.635 121.899 300.73 115.465 302.255C110.997 303.315 106.464 304.078 101.957 304.957C95.1158 306.288 88.2486 307.51 81.433 308.945C72.6453 310.8 63.8963 312.823 55.1279 314.775C53.4079 315.156 50.6662 315.034 50.1747 316.022C48.9849 318.427 48.2671 321.374 48.3835 324.057C48.7586 332.828 49.8708 341.566 50.1812 350.337C50.5045 359.49 50.2782 368.662 50.1941 377.82C50.1682 380.38 49.7867 382.933 49.5992 385.486C49.457 387.374 48.5387 388.776 46.6182 388.362C46.0169 388.233 45.3638 386.191 45.4931 385.111C46.851 373.839 46.1203 362.65 44.7624 351.436C43.8312 343.758 43.4562 336.014 42.441 328.355C42.1564 326.209 40.7532 324.05 39.3888 322.253C37.0674 319.202 34.552 316.236 31.7586 313.624C29.7669 311.763 27.5102 309.701 24.2123 310.664C23.5398 310.865 22.7574 310.69 21.3089 310.69C22.156 309.475 22.7251 308.654 23.417 307.659C22.6798 307.51 21.9491 307.355 21.5159 307.271C21.7357 305.623 21.9362 304.136 22.1431 302.649C19.3496 302.145 17.5455 299.553 17.0929 297.033C16.7178 294.945 15.3599 293.025 14.4417 291.034C14.1442 291.125 13.8403 291.215 13.5428 291.306C14.1119 290.556 14.6874 289.806 15.4763 288.772H11.0662C14.6421 283.976 9.20393 283.065 8.40857 281.19C6.15181 280.395 4.62575 279.859 2.20734 279.006C4.24424 277.202 5.70563 275.916 7.41922 274.404C6.65619 274.3 6.37167 274.249 6.08715 274.223C4.56109 274.074 1.73529 274.042 1.7159 273.777C1.50251 271.114 -1.8018 268.8 1.36671 265.626C4.41883 262.575 7.58087 260.714 11.8745 260.546C13.1225 260.501 14.3447 259.861 15.5862 259.505C18.2698 258.742 20.9598 257.993 23.6433 257.23C25.0594 256.829 26.5402 256.551 27.8658 255.957C30.239 254.89 32.0754 254.961 32.8514 257.463C36.5954 256.073 40.2165 254.729 44.4649 253.151C43.4691 254.302 42.9001 254.968 42.3246 255.627C49.1336 252.55 57.1713 252.091 62.5319 245.466C57.2101 247.076 53.7894 252.434 47.5558 251.109L69.134 240.173C69.2375 240.354 69.3474 240.528 69.4509 240.709C68.7461 241.336 68.0348 241.963 66.9549 242.92C70.589 242.092 73.6928 241.381 77.2687 240.567C77.7408 239.235 78.4391 237.258 79.4091 234.517C81.1485 238.692 82.9397 235.952 84.9443 235.616C84.6727 234.569 84.4399 233.677 84.1489 232.546C85.675 232.1 87.2334 231.647 89.3155 231.033C88.8758 232.003 88.6754 232.442 88.3456 233.179C90.6605 232.274 92.1737 232.662 91.8374 235.474C93.8161 234.793 94.2019 233.621 92.9949 231.957C97.7153 229.863 102.442 227.924 107.001 225.649C108.643 224.828 109.872 223.186 111.288 221.92L110.654 220.898C108.934 221.196 107.111 221.234 105.507 221.836C97.8705 224.692 90.4083 228.066 82.6487 230.529C76.8872 232.358 71.0416 233.793 65.6358 236.631C65.099 236.915 63.864 235.939 62.9846 235.499C62.0987 235.054 61.2451 234.549 59.6673 233.677C58.8267 231.162 57.7403 227.743 56.5311 224.369C56.1044 223.18 55.2831 222.133 54.7982 220.957C52.4315 215.262 50.1165 209.542 47.7822 203.835C47.7434 203.738 47.711 203.563 47.6464 203.55C43.2751 202.755 45.797 199.853 45.7259 197.655C45.6935 196.576 44.9305 195.477 44.3679 194.462C43.7019 193.267 42.8871 192.148 42.0271 190.836C42.8936 190.035 43.6437 189.343 44.5555 188.497C44.0769 187.857 43.592 187.21 43.0553 186.493C44.8594 185.064 46.6506 183.714 48.3577 182.259C49.1595 181.574 49.7479 180.643 50.5174 179.906C50.9313 179.506 51.4809 179.202 52.0241 178.995C64.1873 174.29 76.4216 169.752 88.5072 164.846C93.6286 162.765 98.4072 159.857 103.406 157.452C105.022 156.676 106.852 155.836 108.559 155.881C112.84 155.991 115.394 152.676 118.88 151.331C121.434 150.349 124.234 149.987 126.924 149.366C128.146 149.082 129.659 149.172 129.148 147.098C129.103 146.904 130.099 146.38 130.668 146.122C132.09 145.488 133.539 144.913 134.683 144.441C133.287 138.068 131.922 132.096 130.713 126.097C130.435 124.708 130.5 123.182 130.713 121.76C131.625 115.646 127.325 110.469 127.648 104.438C127.7 103.449 126.6 102.402 126.154 101.601C127.241 99.8166 128.23 98.1684 129.252 96.5461C129.394 96.3134 129.685 96.1259 129.95 96.029C136.973 93.5017 144.001 90.9809 151.205 88.8609C149.944 89.4814 148.683 90.0954 147.319 90.7676C147.642 91.5885 147.933 92.3254 148.211 93.0428C150.442 92.5257 152.498 92.0151 154.58 91.595C155.13 91.4851 155.925 91.4722 156.288 91.7824C159.236 94.3291 158.835 91.5562 159.146 90.2829C163.336 89.4556 167.726 91.511 171.619 88.4278C173.372 87.0382 176.851 88.2469 178.344 90.4251C179.618 89.9468 180.918 89.462 183.065 88.6605C181.435 88.5765 180.64 88.5377 179.967 88.4989C179.767 87.5747 179.573 86.6827 179.379 85.7972C180.595 85.2672 181.804 84.7372 183.504 83.9939C183.103 85.0733 182.877 85.6808 182.651 86.2884C182.864 86.3013 183.097 86.3789 183.278 86.3143C185.787 85.3706 188.335 84.5109 190.773 83.3992C191.574 83.0308 192.079 82.016 193.165 80.8009C194.025 81.5054 195.351 82.5977 197.051 84.0003C198.855 82.7916 200.905 81.4278 202.949 80.0575L202.839 80.1093C205.238 79.8572 207.637 79.6116 210.042 79.3595C209.725 79.7344 209.415 80.1157 209.098 80.4906C208.626 81.0594 208.154 81.6282 207.682 82.1905C208.516 82.2681 209.35 82.3909 210.191 82.4167C211.633 82.4555 213.081 82.4297 214.304 82.4297C214.026 81.654 213.625 80.5229 213.217 79.3853C214.763 80.1416 216.315 80.9043 217.86 81.6605C217.576 81.8738 217.291 82.0936 217.007 82.3069C216.58 84.1037 216.153 85.8941 215.713 87.7556C217.349 87.4066 218.668 87.1222 219.988 86.8378V86.8314C219.399 87.2773 218.817 87.7233 218.229 88.1693C218.397 88.3697 218.565 88.57 218.733 88.7704C220.434 87.329 222.141 85.8812 223.887 84.4011C223.169 83.6384 222.749 83.1859 221.876 82.2681C224.43 81.4666 226.486 80.8267 228.116 80.3161C228.652 81.4214 229.015 82.9209 229.448 82.9403C230.825 83.0114 232.228 82.5266 234.149 82.1582C233.185 81.3697 232.759 81.0206 231.601 80.0705C235.196 79.4629 238.119 78.9717 241.068 78.474C241.171 78.0862 241.398 77.1942 241.773 75.7528C242.646 76.968 243.092 77.5885 243.493 78.1379C246.849 76.5026 249.959 74.9837 253.069 73.4647C253.069 73.0187 253.069 72.5728 253.063 72.1268C251.414 71.7196 249.733 70.9375 248.123 71.0667C247.256 71.1378 246.519 72.7731 245.555 73.9042C244.98 74.2339 244.042 74.7704 242.717 75.5331C241.921 75.1065 240.538 74.3632 239.238 73.6651C240.285 72.8442 241.165 72.1591 241.566 71.8488C240.279 70.0778 239.542 69.0695 238.624 67.8027C238.384 70.75 236.496 70.5884 234.472 70.4462C232.506 70.304 230.521 70.4139 228.542 70.4139C228.53 70.5497 228.517 70.6789 228.504 70.8147C230.45 71.2865 232.39 71.7583 234.336 72.2302L234.369 73.2385C228.814 72.0104 223.938 73.7168 219.231 76.341C218.875 75.3521 218.591 74.5635 218.436 74.1499C219.916 73.8525 221.384 73.5552 222.852 73.2579C220.615 72.4306 218.591 72.1203 216.567 72.0945C213.832 72.0621 213.903 74.4666 213.269 76.2247C212.603 75.9726 211.937 75.727 211.271 75.4749L211.342 75.5718L211.284 75.6753ZM178.247 206.834C180.536 206.019 182.825 205.198 184.998 204.429C184.229 201.579 179.469 203.886 181.086 199.381C180.297 199.905 179.696 200.086 179.515 200.467C178.609 202.348 177.814 204.287 176.973 206.2C174.626 203.731 172.246 206.097 169.886 206.149C168.949 206.168 168.005 206.149 167.06 206.149C168.968 204.384 170.572 203.04 168.438 199.788C165.787 201.766 163.174 203.712 160.749 205.522C161.273 206.827 161.713 207.932 162.152 209.038L158.965 210.065L159.133 210.893C163.924 210.453 168.179 207.39 173.824 206.698C172.589 207.7 172.078 208.113 171.567 208.527C171.697 208.805 171.826 209.076 171.955 209.354C174.051 208.514 176.146 207.674 178.247 206.834ZM377.217 218.617C377.197 218.203 377.178 217.789 377.159 217.382C373.686 217.718 370.22 218.048 366.748 218.384C366.774 218.604 366.799 218.817 366.819 219.037C370.311 218.875 373.809 218.707 377.301 218.546C373.958 219.825 370.615 221.112 367.071 222.469C365.642 220.614 363.734 223.18 361.82 222.87L361.639 223.755C362.907 224.15 364.181 224.537 365.59 224.977C364.297 228.099 362.312 226.483 360.488 225.662C359.46 225.203 358.322 224.065 357.488 224.266C354.572 224.977 351.765 226.14 348.914 227.129L349.45 228.506C350.711 227.885 352.037 227.362 353.22 226.619C355.509 225.177 358.749 225.901 359.505 228.125C360.087 229.825 364.814 231.162 365.248 229.728C366.011 227.187 367.828 228.047 369.302 227.834C370.544 227.653 371.83 227.795 373.234 227.795C373.072 226.496 372.956 225.526 372.826 224.486C371.119 224.66 369.651 224.809 368.183 224.957C371.895 223.704 375.684 222.986 379.493 222.34C379.9 222.269 380.476 222.534 380.812 222.824C383.308 225.016 384.582 224.654 385.869 221.047H374.688C374.676 220.756 374.663 220.459 374.656 220.168C377.656 219.703 380.663 219.237 384.543 218.636C381.491 218.636 379.351 218.636 377.223 218.636L377.217 218.617ZM441.292 172.448C442.799 172.26 444.312 172.079 445.818 171.892C445.877 172.305 445.935 172.719 445.986 173.126C444.59 173.449 443.199 173.779 441.783 174.109C443.342 174.794 444.725 175.834 446.18 175.951C448.935 176.171 452.31 176.765 454.309 175.473C455.738 174.548 456.966 173.159 458.822 172.215C463.045 170.056 466.802 170.586 470.895 172.215C472.473 172.842 474.775 173.249 476.126 172.551C479.094 171.013 481.222 170.347 482.179 175.046C483.465 173.521 484.358 172.467 485.438 171.187C480.872 170.709 476.462 170.243 472.052 169.785C472.065 169.423 472.085 169.067 472.098 168.705C474.477 168.285 476.863 167.865 479.243 167.445C477.005 166.475 474.833 166.01 472.641 165.848C471.205 165.738 469.621 166.462 468.302 166.1C465.554 165.351 463.161 165.131 460.71 167.044C459.236 168.195 457.645 167.936 457.218 165.279C455.77 166.12 454.516 166.85 453.261 167.58C453.714 168.395 454.043 168.977 454.923 170.554C451.567 169.946 449.097 169.507 446.627 169.035C445.495 168.822 443.801 167.975 443.374 168.414C442.359 169.448 441.951 171.071 441.298 172.454C434.741 170.353 428.385 170.521 422.261 174.264C426.924 172.603 431.101 173.572 434.987 176.261C436.358 173.766 438.324 172.267 441.298 172.448H441.292ZM308.467 337.404C310.4 336.951 312.333 336.505 314.513 336.001C314.707 336.816 314.881 337.572 314.972 337.96C313.885 338.735 313.09 339.298 312.036 340.047C314.914 340.778 317.164 341.347 319.033 341.818C318.89 341.288 318.599 340.19 318.308 339.097C318.683 338.897 319.052 338.703 319.427 338.503C320.462 339.821 321.503 341.133 322.537 342.452C322.175 342.497 321.82 342.549 321.457 342.594C320.591 344.197 319.724 345.806 318.761 347.59C320.106 347.519 321.076 347.468 322.046 347.422C322.072 347.584 322.098 347.739 322.124 347.901C321.639 348.172 321.16 348.45 320.675 348.722C320.772 348.928 320.875 349.142 320.973 349.348C323.3 348.385 325.628 347.429 328.131 346.395C327.529 345.496 327.148 344.921 326.43 343.842C328.907 343.686 330.924 343.557 332.884 343.434C333.763 347.261 337.416 348.095 340.604 345.522C339.537 345.464 338.496 345.406 337.455 345.348C337.481 344.986 337.507 344.63 337.533 344.268C340.617 344.559 343.702 344.85 346.741 345.141C346.941 344.843 347.355 344.216 347.769 343.589C348.293 344.184 348.81 344.772 349.728 345.813C354.332 344.591 359.344 343.266 364.691 341.851C364.09 342.542 363.741 342.95 363.152 343.622C368.636 342.213 373.719 340.907 378.982 339.556C379.079 339.757 379.428 340.5 379.784 341.237L380.799 340.519V336.854C382.086 337.346 383.903 338.328 384.103 338.07C385.313 336.505 386.192 334.67 387.059 332.86C387.149 332.673 386.457 331.774 386.108 331.761C383.528 331.664 380.941 331.709 377.527 331.709C378.704 333.319 379.17 333.959 379.933 334.993C377.488 335.187 375.277 335.368 373.525 335.504C373.175 334.036 372.891 332.834 372.6 331.632C371.171 331.955 370.162 332.188 368.856 332.485C369.703 332.944 370.278 333.254 371.617 333.985C368.688 335.096 366.476 336.047 364.187 336.725C363.663 336.88 362.545 336.26 362.234 335.704C361.264 333.946 360.236 333.196 358.076 333.875C357.055 334.198 355.535 333.649 354.501 333.041C353.459 332.433 352.742 331.263 351.946 330.417C353.906 330.417 356.091 330.397 358.277 330.436C358.542 330.436 358.878 330.682 359.059 330.908C360.439 332.601 361.519 332.586 362.299 330.863C361.135 330.139 359.997 329.428 358.555 328.536C358.07 328.659 357.132 328.891 356.195 329.124C356.124 328.743 356.052 328.355 355.975 327.974C357.475 327.805 358.975 327.637 360.475 327.469C358.367 327.036 356.363 327.444 354.339 327.663C352.302 327.883 350.246 327.922 348.125 328.045C348.655 329.428 349.095 330.572 349.534 331.716C349.224 331.845 348.914 331.981 348.597 332.11C348.286 331.845 347.924 331.619 347.666 331.302C344.665 327.637 344.704 327.702 340.262 329.867C338.6 330.675 336.75 331.095 334.985 331.69C334.798 331.341 334.617 330.986 334.429 330.637C337.074 328.975 339.725 327.314 342.189 325.769C341.865 325.537 341.335 325.155 340.19 324.322H345.131C345.15 324.011 345.17 323.701 345.189 323.391C337.559 322.783 329.922 322.182 322.292 321.575L322.149 322.673C326.391 322.247 329.883 325.983 334.313 323.766C333.841 324.6 333.543 324.994 333.375 325.446C333.149 326.06 333.026 326.713 332.896 327.204C327.297 324.425 321.897 328.045 316.44 326.558C316.808 327.275 317.022 327.702 317.261 328.167C314.163 327.747 311.131 329.686 309.417 332.866C312.922 333.054 316.595 333.248 321.044 333.48C320.177 334.172 319.705 334.864 319.207 334.883C316.653 335.012 314.073 335.135 311.525 334.941C309.508 334.786 308.505 335.42 308.428 337.41C307.801 336.499 307.18 335.588 306.481 334.573C305.841 335.491 305.33 336.544 305.111 336.492C304.166 336.247 303.313 335.672 302.421 335.219C302.724 334.857 303.022 334.502 303.326 334.14C304.548 333.855 305.77 333.577 306.675 333.364C306.869 332.278 307.018 331.483 307.18 330.591C306.624 330.294 305.848 329.88 304.457 329.143C305.971 328.911 306.792 328.781 307.613 328.659C305.938 327.928 304.432 326.901 303.326 329.551C302.86 330.662 300.72 331.082 299.343 331.813C299.297 331.606 299.246 331.393 299.2 331.186C300.461 329.712 301.729 328.245 302.841 326.939C301.489 326.118 300.448 325.026 299.297 324.897C297.487 324.697 295.611 325.149 293.756 325.323C294.105 327.857 292.598 327.127 291.221 326.836C290.833 326.752 290.348 327.127 289.908 327.295C290.154 327.844 290.406 328.394 291.104 329.951C287.186 327.334 283.746 325.588 279.737 327.495C280.312 328.019 280.791 328.458 281.353 328.975C277.448 330.772 276.924 330.54 277.15 327.14C274.725 326.965 272.3 326.784 269.882 326.61C269.875 326.855 269.869 327.107 269.862 327.353C270.399 327.799 270.936 328.239 271.641 328.82C271.098 329.247 270.755 329.473 270.47 329.751C270.192 330.022 269.972 330.352 269.798 330.565C271.039 331.302 272.132 331.955 273.341 332.673H254.841C254.861 332.42 254.88 332.162 254.899 331.91C256.322 331.509 257.738 331.108 259.161 330.708L259.025 330.003H244.792C244.799 329.764 244.805 329.531 244.818 329.292C246.448 329.156 248.071 329.014 249.881 328.859C248.485 327.359 243.098 327.353 240.479 328.697C241.229 329.066 241.87 329.383 242.516 329.699C242.484 329.938 242.452 330.178 242.419 330.41C239.936 330.649 237.453 330.889 234.97 331.128C234.977 331.283 234.989 331.444 234.996 331.6C237.893 331.871 240.79 332.136 243.771 332.414V334.359C247.023 333.901 250.05 333.474 253.005 333.054C250.838 334.353 248.737 335.607 246.642 336.861C247.987 337.339 249.177 337.074 250.379 337.022C252.688 336.932 255.973 335.988 257.124 337.132C259.73 339.724 260.435 338.309 261.889 334.864C262.426 336.137 262.775 337.229 262.885 337.203C266.772 336.344 270.554 339.621 274.576 337.346C275.611 336.757 277.506 336.958 278.838 338.6C280.105 340.164 282 341.902 284.787 339.77C283.862 339.608 283.241 339.504 282.646 339.401V336.648C284.127 336.402 285.524 336.169 287.283 335.878C286.837 336.777 286.565 337.32 286.591 337.275C288.634 337.275 290.691 337.501 292.676 337.21C294.48 336.945 296.2 336.124 298.56 335.355C299.045 336.04 300.06 337.488 300.985 338.787C303.526 338.315 305.983 337.856 308.441 337.397L308.467 337.404ZM401.22 116.447C401.142 116.906 401.071 117.359 400.994 117.818C395.581 118.154 390.169 118.593 384.75 118.8C379.344 119.007 373.919 118.871 368.513 119.104C365.164 119.253 361.801 119.634 358.51 120.248C355.781 120.752 352.535 118.8 350.297 121.877C350.168 122.051 349.489 121.754 349.088 121.806C347.42 122.045 345.745 122.277 344.103 122.62C339.001 123.699 333.931 125.005 328.797 125.884C323.339 126.821 317.461 126.278 313.219 130.945C312.999 131.191 312.418 131.165 312.004 131.171C308.253 131.262 305.026 132.238 301.599 134.242C297.209 136.801 291.867 137.738 286.921 139.322C286.539 139.445 286.022 139.154 285.569 139.05C284.645 138.844 283.616 138.262 282.808 138.488C278.799 139.593 274.822 140.834 270.891 142.198C269.979 142.515 269.306 143.504 268.524 144.182C271.725 144.338 274.544 143.911 277.331 143.329C281.308 142.502 285.285 141.668 289.203 140.621C292.21 139.82 295.126 138.695 298.082 137.706C298.185 138.036 298.295 138.372 298.398 138.701L295.922 139.684C296.704 140.091 297.422 140.182 298.049 139.975C300.623 139.128 303.125 138.016 305.744 137.357C307.813 136.84 310.012 136.704 312.152 136.672C313.155 136.652 314.319 137.771 315.133 137.512C317.403 136.788 319.821 135.967 321.626 134.507C323.3 133.149 324.277 132.639 325.842 134.364C326.184 134.746 327.154 134.558 327.833 134.629C327.885 134.041 328.04 133.44 327.956 132.878C327.853 132.18 327.549 131.514 327.128 130.202C328.538 130.667 329.437 131.152 330.368 131.223C332.082 131.359 335.295 131.385 335.315 131.223C335.638 127.565 338.949 129.168 340.656 128.256C342.602 127.209 342.686 128.928 342.092 130.428C346.437 130.48 351.138 134.19 355.529 128.638C353.641 128.638 352.483 128.579 351.338 128.651C349.444 128.767 347.549 129.174 345.674 129.077C343.398 128.961 343.462 127.713 344.827 127.08C357.449 125.761 370.065 124.449 383.049 123.092C381.931 122.491 381.09 122.032 379.622 121.243C382.487 120.965 384.918 120.009 386.768 120.675C392.84 122.859 398.756 123.68 405.093 121.864C407.247 121.243 409.762 121.819 412.109 121.922C416.836 122.135 421.557 122.394 426.283 122.639L426.413 121.036C422.701 119.11 418.375 120.868 414.502 119.505C422.339 119.162 430.176 118.819 438.013 118.483C431.301 116.208 424.201 118.47 417.612 116.273C417.631 115.898 417.651 115.53 417.67 115.155C423.781 114.864 429.892 114.573 435.601 114.301C434.974 113.267 434.386 112.298 433.474 110.805C428.023 111.477 422.203 112.188 416.383 112.912C410.551 113.642 404.718 114.379 398.84 115.122C399.7 115.601 400.457 116.021 401.207 116.434L401.22 116.447ZM305.156 241.982C309.113 241.562 313.148 241.071 317.196 240.735C318.871 240.599 320.895 240.224 322.188 240.961C325.008 242.558 324.859 242.823 327.82 241.879C327.348 241.743 326.87 241.601 326.825 241.588C329.049 240.806 331.5 239.94 333.963 239.087C334.364 238.951 334.791 238.757 335.192 238.783C338.942 239.003 342.686 239.442 346.431 239.436C348.351 239.436 350.272 238.654 352.845 238.078C349.36 236.96 346.786 236.133 344.206 235.306C344.297 235.493 344.549 236.01 344.82 236.566C342.674 236.947 339.583 238.24 338.917 237.464C337.067 235.312 335.257 236.624 333.472 236.521C331.383 236.391 329.282 236.488 326.941 236.488C327.342 234.737 327.588 233.644 327.846 232.507C333.2 233.405 337.171 230.885 340.533 226.819C340.688 227.077 340.85 227.336 341.005 227.601C340.798 228.202 340.598 228.797 340.333 229.579C344.504 227.097 348.48 224.731 352.121 222.566C351.455 222.508 350.304 222.404 349.153 222.307C349.153 222.068 349.146 221.823 349.14 221.583C351.448 221.176 353.75 220.769 356.059 220.355L355.897 219.431C343.275 221.331 330.659 223.225 318.037 225.125L318.166 226.211C322.091 225.707 326.016 225.203 329.941 224.699C329.987 224.867 330.025 225.029 330.071 225.197C329.495 225.416 328.913 225.643 328.338 225.862C328.415 226.082 328.493 226.308 328.57 226.528C332.062 225.436 335.561 224.337 339.059 223.245C339.136 223.497 339.214 223.749 339.292 224.001C338.626 224.169 337.371 224.434 337.378 224.486C338.07 228.532 335.522 226.489 333.711 226.8C327.963 227.782 322.311 229.34 316.621 230.678C316.666 230.91 316.705 231.143 316.75 231.376C318.761 231.66 320.779 231.938 323.397 232.307C317.927 235.254 312.553 232.416 307.716 234.401C309.812 234.679 311.9 234.957 313.995 235.241C313.963 235.622 313.924 236.004 313.892 236.385C312.249 236.463 310.588 236.741 308.971 236.572C306.468 236.314 304.328 236.075 302.298 238.389C300.92 239.959 298.463 240.593 295.864 241.982C296.284 237.917 293.73 238.608 292.23 238.55C291.104 238.512 289.94 239.649 288.24 240.554C292.333 242.823 295.689 242.312 299.039 241.543C300.177 241.284 301.295 240.903 302.369 240.464C303.1 240.166 303.746 239.662 304.425 239.248C304.626 240.005 304.826 240.761 305.156 242.002V241.982ZM383.075 279.6C378.394 279.904 373.874 279.736 369.567 280.622C365.985 281.358 361.814 279.762 358.775 283.032C358.6 283.22 357.831 282.942 357.378 282.774C356.712 282.528 356.033 281.856 355.451 281.947C350.071 282.826 344.717 283.834 339.35 284.803C341.885 285.547 344.452 285.993 346.961 285.767C356.479 284.913 365.991 283.937 375.484 282.8C378.148 282.477 381.426 283.162 383.075 279.6ZM419.086 291.771C440.8 290.789 461.894 289.826 482.993 288.869C461.751 287.389 440.639 288.255 419.086 291.771ZM387.253 173.268C387.272 173.359 387.291 173.449 387.311 173.54C385.966 173.863 384.634 174.361 383.276 174.445C382.215 174.509 381.058 173.721 380.049 173.908C373.356 175.136 366.696 176.526 360.029 177.858C360.346 178.362 360.605 178.433 360.87 178.446C367.608 178.711 374.236 175.466 381.071 177.864C381.795 178.116 383.23 177.741 383.69 177.159C385.972 174.225 388.526 174.639 391.482 175.899C392.717 176.423 394.256 176.255 395.652 176.403C395.678 176.099 395.698 175.802 395.723 175.498C394.993 175.324 394.256 175.149 393.04 174.858C395.148 174.438 396.681 174.135 398.207 173.831C398.161 173.643 398.11 173.462 398.064 173.275H387.246L387.253 173.268ZM270.289 242.215V243.049C268.226 243.178 265.802 244.051 264.166 243.269C261.353 241.931 259.083 242.5 256.548 243.488C255.171 244.025 253.684 244.277 252.242 244.665C252.274 244.885 252.306 245.098 252.339 245.318C255.746 244.736 259.154 244.148 262.827 243.521C262.471 244.82 262.303 245.428 262.083 246.242C264.314 246.242 266.306 245.958 268.168 246.313C270.6 246.778 271.44 245.499 272.067 243.644C273.031 240.787 274.822 240.069 277.687 241.407C280.416 242.68 284.606 241.672 285.776 239.158C284.03 239.255 282.213 238.867 280.939 239.526C278.327 240.871 276.445 240.341 274.551 238.395C274.331 238.169 273.477 238.55 272.915 238.647C273.982 241.763 271.266 240.121 270.335 240.586C269.358 241.071 268.162 241.097 267.056 241.323C267.121 241.627 267.179 241.924 267.244 242.228H270.289V242.215ZM498.079 166.915C499.98 168.078 501.474 169.765 502.968 169.772C507.869 169.778 512.771 169.196 517.672 168.783C518.326 168.731 518.953 168.363 519.839 168.059C518.248 165.467 516.373 164.62 513.689 165.118C511.064 165.603 508.109 166.656 505.794 165.919C502.994 165.021 501.028 165.965 498.079 166.915ZM549.694 169.416C549.862 169.125 550.03 168.828 550.198 168.537C549.623 168.091 549.054 167.626 548.465 167.193C546.37 165.648 544.036 166.424 541.74 166.378C536.638 166.275 531.549 165.816 526.454 165.551C525.691 165.512 524.908 165.745 524.016 165.868C524.223 166.527 524.223 166.915 524.417 167.102C526.758 169.403 535.015 169.261 538.041 167.122C538.733 166.637 540.531 166.617 541.016 167.128C543.544 169.849 546.758 168.931 549.7 169.41L549.694 169.416ZM280.558 284.758C280.59 285.165 280.622 285.573 280.648 285.98C281.385 285.98 282.207 285.76 282.84 286.019C285.97 287.273 288.983 287.085 292.113 285.915C293.659 285.34 295.644 284.752 297.053 285.249C300.073 286.322 301.373 284.778 303.035 282.063C295.236 283 287.891 283.879 280.551 284.758H280.558ZM322.99 353.44C325.053 352.8 326.915 352.231 328.771 351.643C329.094 351.54 329.644 351.229 329.67 351.275C331.054 353.44 332.321 351.708 333.446 351.068C335.056 350.156 337.475 351.326 338.542 349.064C338.567 349.006 339.337 349.18 339.641 349.4C342.24 351.281 343.631 350.951 345.267 347.513C342.111 347.952 339.292 348.398 336.466 348.722C333.019 349.116 329.495 349.956 326.12 349.588C322.874 349.239 322.57 350.35 322.984 353.433L322.99 353.44ZM262.633 149.327C262.53 148.985 262.426 148.636 262.323 148.293C252.584 148.707 243.441 151.519 234.582 155.649C235.5 156.017 236.373 155.998 237.188 155.785C240.033 155.041 242.238 151.965 245.756 153.529C246.112 153.684 247.017 153.083 247.392 152.611C249.151 150.433 250.192 150.265 252.733 151.68C253.309 151.997 254.207 152.062 254.848 151.874C257.466 151.105 260.04 150.187 262.633 149.327ZM270.742 232.752C270.742 233.069 270.748 233.392 270.755 233.709C275.876 234.543 281.023 233.535 286.145 233.192C287.069 233.127 287.929 232.067 288.99 231.356C285.776 228.758 283.17 230.658 280.791 230.684C279.303 230.135 277.81 229.579 276.322 229.029C276.206 229.307 276.096 229.592 275.98 229.87C276.374 230.716 276.775 231.557 277.331 232.746H270.748L270.742 232.752ZM218.436 186.519C214.84 187.449 211.659 188.548 212.383 193.086C213.308 193.26 214.433 193.797 215.39 193.577C217.201 193.163 218.966 192.426 220.634 191.586C221.229 191.289 221.656 190.339 221.817 189.615C221.927 189.136 221.43 188.522 221.177 187.908C220.589 188.012 220.175 188.076 219.761 188.16C219.328 188.251 218.901 188.361 218.429 188.471V186.525L218.436 186.519ZM240.673 82.2875C240.551 81.9772 240.428 81.6734 240.305 81.3632C233.593 84.0908 226.881 86.812 220.169 89.5396C220.259 89.8046 220.35 90.0631 220.44 90.3281C223.292 89.7787 226.286 89.5784 228.963 88.5636C231.213 87.7104 233.101 85.9135 235.313 84.4269C237.479 85.9006 238.604 85.5322 240.68 82.2875H240.673ZM110.383 233.024C111.818 231.014 113.079 229.249 114.34 227.485C114.114 227.213 113.888 226.935 113.661 226.664C112.278 227.026 110.894 227.388 109.749 227.685C109.827 227.427 109.963 226.942 110.163 226.257C108.139 227.355 106.497 228.351 104.777 229.165C100.968 230.956 100.948 230.917 101.408 232.972C104.337 229.592 107.324 230.174 110.383 233.024ZM566.241 120.965C564.599 118.813 543.932 115.458 539.639 116.809C548.303 118.16 556.975 119.518 566.241 120.965ZM292.947 318.944C293.937 324.283 294.428 324.477 298.321 322.24C300.009 322.641 301.683 322.699 303.339 322.564C303.559 322.544 303.901 321.096 303.856 321.083C302.466 320.495 301.03 320.004 299.44 319.435C299.019 318.886 298.34 318.02 297.668 317.147C297.448 317.309 297.235 317.464 297.015 317.625C297.06 318.576 297.105 319.532 297.15 320.599C295.734 320.043 294.59 319.597 292.947 318.95V318.944ZM313.096 167.057C311.958 165.46 311.37 164.633 310.736 163.735C298.592 165.002 294.422 166.12 293.471 168.253C298.095 167.38 302.802 166.495 307.51 165.603C307.471 165.835 307.438 166.074 307.4 166.307C309.081 166.527 310.756 166.747 313.096 167.05V167.057ZM436.772 238.867C436.804 238.524 436.837 238.182 436.869 237.833C436.061 237.62 435.246 237.406 434.677 237.251C435.569 235.952 436.358 234.801 437.16 233.638C432.705 235.06 428.527 236.391 424.285 237.749C428.495 238.124 432.633 238.499 436.772 238.867ZM132.866 225.998C132.866 225.746 132.866 225.494 132.866 225.242C132.265 225.171 131.67 225.1 131.004 225.016C131.386 224.402 131.696 223.917 132.006 223.426C130.551 222.605 129.122 221.137 128.055 221.364C126.794 221.635 125.85 223.367 124.771 224.466L125.43 225.242C126.161 225.035 126.898 224.835 127.881 224.563C127.409 225.416 127.073 226.03 126.549 226.974C128.954 226.606 130.914 226.302 132.873 226.005L132.866 225.998ZM317.636 185.672C317.707 186.073 317.778 186.473 317.849 186.874C323.32 186.086 328.797 185.297 334.267 184.515C333.847 183.539 333.155 183.015 332.411 182.938C331.745 182.867 331.034 183.365 330.329 183.487C326.1 184.237 321.871 184.948 317.636 185.672ZM305.906 42.291C306.262 42.5172 306.617 42.7435 306.966 42.9697C308.389 42.123 309.818 41.2698 311.241 40.423C310.788 40.1451 310.329 39.8672 309.747 39.5052C310.516 39.1045 311.195 38.7555 311.868 38.4064C311.829 38.0121 311.784 37.6179 311.745 37.2236C310.2 37.2236 307.988 36.6031 307.27 37.3723C306.242 38.4775 306.307 40.5976 305.899 42.2846L305.906 42.291ZM343.456 370.446V374.156H349.787C350.233 368.384 346.243 370.795 343.456 370.446ZM304.891 193.881C310.245 191.78 314.784 189.996 319.434 188.167C316.155 187.184 307.316 190.306 304.891 193.881ZM279.019 44.7149C281.495 45.665 283.675 46.5053 285.938 47.3714C286.371 44.327 283.953 43.0343 281.709 41.412C280.694 42.6594 279.795 43.7582 279.019 44.7149ZM232.545 332.614C231.388 330.953 231.433 329.648 233.515 328.678C231.543 328.982 229.577 329.292 227.307 329.641C227.928 330.139 228.29 330.43 228.601 330.682C227.579 331.386 226.525 332.11 225.102 333.093C227.883 332.912 230.049 332.776 232.545 332.614ZM219.858 204.507C224.701 205.05 225.49 204.63 225.982 201.269C222.16 200.583 220.789 201.307 219.858 204.507ZM305.634 286.529C309.262 282.806 311.816 282.405 316.815 284.59C317.164 282.341 316.511 281.533 314.235 281.895C311.008 282.412 307.813 283.168 304.871 283.769C305.13 284.719 305.343 285.476 305.628 286.529H305.634ZM345.04 183.087C348.907 182.285 352.541 181.529 356.175 180.773C354.501 180.514 352.858 176.539 351.125 180.702C348.37 179.208 346.734 180.837 345.04 183.087ZM516.321 164.271C516.386 160.089 515.551 160.031 507.986 163.799C511.355 163.993 513.825 164.129 516.321 164.271ZM247.696 47.6687C249.422 47.3584 250.379 47.1839 251.705 46.9448C251.142 44.8247 250.638 42.9115 250.134 40.9983C249.765 40.9983 249.39 41.0048 249.021 41.0112C248.595 43.1377 248.174 45.2642 247.696 47.6752V47.6687ZM247.87 142.664C247.851 142.302 247.832 141.933 247.806 141.571C244.889 139.858 242.174 139.458 239.606 143.297C242.684 143.064 245.277 142.864 247.87 142.664ZM597.448 216.594L597.344 217.815C601.522 218.197 605.699 218.584 609.87 218.966L609.973 217.757C605.796 217.369 601.619 216.981 597.448 216.594ZM119.766 229.721C119.429 229.275 119.093 228.823 118.757 228.377C117.405 229.152 116.002 229.87 114.78 230.807C114.664 230.897 115.647 232.416 116.119 233.27C117.334 232.087 118.55 230.904 119.766 229.721ZM250.36 144.654C250.644 145.023 250.929 145.391 251.214 145.753C252.714 144.809 254.214 143.872 255.708 142.929C255.649 142.618 255.585 142.302 255.52 141.991C253.832 141.61 252.145 141.229 250.457 140.841L249.894 141.532C252.901 142.295 252.196 143.42 250.354 144.648L250.36 144.654ZM440.529 197.979C437.38 198.418 434.942 198.761 432.504 199.103C436.746 201.437 438.718 201.191 440.529 197.979ZM410.046 169.617C409.898 169.991 409.755 170.366 409.607 170.741C410.616 171.232 411.792 172.305 412.601 172.079C414.075 171.665 415.336 170.483 416.687 169.623C416.668 169.41 416.649 169.203 416.636 168.99C414.437 169.196 412.239 169.41 410.046 169.617ZM379.739 284.047C379.661 283.711 379.59 283.382 379.512 283.045C374.779 283.543 370.046 284.047 365.319 284.545C365.345 284.791 365.364 285.03 365.39 285.275C370.175 284.868 374.96 284.454 379.745 284.047H379.739ZM273.969 151.628C273.904 151.06 273.839 150.491 273.768 149.922C270.684 150.607 267.599 151.299 264.515 151.984L264.722 152.773C267.8 152.391 270.884 152.01 273.962 151.628H273.969ZM342.318 372.772C342.104 372.391 341.885 372.016 341.671 371.635C340.21 371.893 338.742 372.158 337.054 372.456C337.229 373.561 337.384 374.518 337.675 376.379C339.641 374.854 340.979 373.813 342.318 372.772ZM204.598 36.9004C206.091 39.4018 206.99 40.9014 208.4 43.267C208.814 41.3926 209.719 39.6022 209.221 39.0334C208.335 38.0251 206.609 37.7536 204.598 36.9004ZM528.193 288.979C528.167 288.455 528.135 287.932 528.109 287.408H522.807C522.942 288.061 523.078 289.276 523.221 289.276C524.876 289.276 526.538 289.108 528.193 288.979ZM333.381 180.979C329.385 178.31 326.999 181.768 324.018 183.099C327.141 182.395 330.258 181.69 333.381 180.979ZM445.424 113.784C445.443 113.985 445.456 114.185 445.476 114.392H451.619C451.334 113.151 451.069 112.02 450.791 110.818C449.013 111.8 447.215 112.795 445.424 113.791V113.784ZM401.524 173.592C401.537 173.889 401.55 174.193 401.563 174.49C404.291 175.162 407.027 175.86 409.639 174.484C409.626 174.186 409.613 173.889 409.6 173.592H401.524ZM185.774 204.701C187.83 203.033 189.343 201.811 191.303 200.221C186.718 199.51 186.427 199.756 185.774 204.701ZM233.166 185.439C233.056 185.155 232.953 184.87 232.843 184.586C230.857 185.64 228.866 186.687 226.822 187.766C228.976 189.893 229.383 189.744 233.166 185.446V185.439ZM521.352 163.379C526.383 165.454 531.769 165.176 532.222 163.974C528.665 163.78 525.012 163.58 521.352 163.379ZM582.743 217.001C584.981 218.242 586.539 218.222 593.167 216.354C589.643 216.574 586.119 216.794 582.743 217.001ZM394.708 338.264C392.484 337.3 390.609 336.486 388.611 335.626C388.656 338.167 391.688 339.55 394.708 338.264ZM235.992 143.594C233.444 144.234 231.601 144.693 229.409 145.242C231.672 147.285 234.349 146.652 235.992 143.594ZM167.035 213.782C166.653 213.394 166.272 213.013 165.89 212.625C164.338 214.286 162.78 215.947 161.228 217.608C161.448 217.835 161.674 218.054 161.894 218.281L167.035 213.782ZM261.366 172.958C264.605 174.063 265.608 173.617 267.502 169.455C265.103 170.825 263.079 171.976 261.366 172.958ZM310.904 352.813C312.612 353.336 314.215 353.828 315.819 354.319C313.691 350.402 312.586 350.208 310.904 352.813ZM290.949 355.166C290.93 355.495 290.91 355.825 290.891 356.148H297.907C295.831 352.91 293.29 354.933 290.949 355.166ZM199.121 196.35C199.179 196.718 199.237 197.087 199.295 197.449C202.257 196.634 205.212 195.82 208.173 195.005L207.915 194.184C204.986 194.902 202.05 195.626 199.121 196.343V196.35ZM331.183 186.073C331.151 186.357 331.118 186.642 331.092 186.926C332.935 187.585 334.597 189.919 337.643 186.861C334.972 186.532 333.078 186.299 331.189 186.066L331.183 186.073ZM303.255 355.308C309.217 355.289 309.365 355.192 308.467 352.606C306.695 353.524 304.975 354.416 303.255 355.308ZM503.091 211.339C501.157 212.431 499.871 213.155 498.209 214.092C501.998 215.669 502.36 215.495 503.091 211.339ZM411.424 238.117C411.424 237.865 411.424 237.62 411.424 237.367H404.983C404.983 237.62 404.983 237.865 404.983 238.117H411.424ZM521.487 114.819C521.5 114.444 521.52 114.062 521.533 113.687C518.875 113.558 516.224 113.429 513.566 113.3C513.553 113.636 513.547 113.978 513.534 114.314C516.185 114.482 518.836 114.65 521.494 114.825L521.487 114.819Z" fill="black"/>
</svg>
